M48
; DRILL file {KiCad 8.0.1} date 2024-09-30T12:45:27-0700
; FORMAT={-:-/ absolute / metric / decimal}
; #@! TF.CreationDate,2024-09-30T12:45:27-07:00
; #@! TF.GenerationSoftware,Kicad,Pcbnew,8.0.1
; #@! TF.FileFunction,Plated,1,2,PTH
FMAT,2
METRIC
; #@! TA.AperFunction,Plated,PTH,ViaDrill
T1C0.400
; #@! TA.AperFunction,Plated,PTH,ComponentDrill
T2C0.600
; #@! TA.AperFunction,Plated,PTH,ComponentDrill
T3C1.000
; #@! TA.AperFunction,Plated,PTH,ComponentDrill
T4C1.500
; #@! TA.AperFunction,Plated,PTH,ComponentDrill
T5C1.700
; #@! TA.AperFunction,Plated,PTH,ComponentDrill
T6C2.000
%
G90
G05
T1
X44.069Y-121.92
X44.196Y-131.445
X44.958Y-121.92
X45.212Y-131.445
X45.974Y-121.92
X46.228Y-131.445
X46.99Y-121.92
X47.244Y-131.445
X48.006Y-121.92
X48.26Y-131.445
X49.022Y-121.92
X49.276Y-131.445
X50.038Y-121.92
X50.292Y-131.445
X51.054Y-121.92
X51.308Y-131.445
X52.07Y-121.92
X52.324Y-131.318
X52.451Y-122.809
X52.451Y-123.825
X52.451Y-124.841
X52.578Y-125.73
X52.578Y-132.283
X52.629Y-121.006
X52.984Y-133.248
X53.035Y-120.091
X53.086Y-121.971
X53.34Y-106.274
X53.34Y-126.365
X53.543Y-134.061
X53.645Y-119.329
X53.797Y-115.773
X53.848Y-113.132
X53.848Y-132.08
X54.356Y-116.586
X54.356Y-118.618
X54.356Y-134.772
X54.458Y-117.602
X54.991Y-115.443
X55.27Y-135.179
X55.499Y-122.682
X55.728Y-121.615
X56.261Y-123.317
X56.286Y-120.548
X56.286Y-135.484
X56.998Y-119.634
X57.277Y-123.317
X57.404Y-135.484
X58.064Y-119.126
X58.166Y-123.952
X58.293Y-134.747
X59.055Y-123.444
X59.182Y-117.094
X59.182Y-133.604
X59.817Y-134.239
X59.944Y-120.269
X59.944Y-123.063
X59.944Y-137.033
X60.198Y-136.017
X60.198Y-137.922
X60.3Y-148.031
X60.401Y-146.914
X60.452Y-135.001
X60.706Y-132.334
X60.833Y-122.555
X60.88Y-138.553
X61.062Y-146.05
X61.163Y-141.834
X61.341Y-119.888
X61.468Y-129.921
X61.849Y-122.174
X61.874Y-145.288
X61.976Y-142.494
X62.103Y-130.683
X62.23Y-129.159
X62.281Y-143.459
X62.382Y-144.374
X62.738Y-121.92
X62.738Y-131.318
X62.856Y-141.247
X62.992Y-123.444
X62.992Y-128.524
X63.373Y-131.953
X63.754Y-121.666
X63.754Y-127.762
X63.872Y-150.291
X64.008Y-132.588
X64.77Y-121.539
X64.897Y-127.0
X64.897Y-132.842
X64.897Y-145.542
X65.786Y-121.666
X65.786Y-132.969
X65.786Y-143.383
X66.04Y-125.476
X66.421Y-122.301
X66.421Y-133.604
X66.802Y-124.714
X67.056Y-134.239
X67.183Y-122.936
X67.183Y-135.128
X67.437Y-123.952
X67.437Y-136.017
X67.803Y-147.376
X68.199Y-135.255
X68.326Y-103.124
X68.783Y-137.476
X68.834Y-134.493
X69.333Y-145.781
X69.342Y-122.225
X69.596Y-133.858
X70.231Y-133.096
X71.12Y-132.715
X71.882Y-133.223
X71.882Y-144.018
X71.882Y-147.066
X72.136Y-148.59
X72.517Y-133.985
X72.644Y-135.001
X73.152Y-147.066
X73.279Y-135.763
X73.406Y-138.176
X73.616Y-119.176
X73.914Y-136.779
X73.914Y-148.844
X74.93Y-132.334
X75.565Y-102.997
X76.2Y-147.32
X76.454Y-116.332
X76.708Y-130.937
X76.708Y-140.335
X76.708Y-148.844
X76.897Y-134.994
X77.47Y-139.319
X77.47Y-142.748
X77.47Y-151.384
X77.724Y-140.716
X77.978Y-137.033
X78.13Y-114.91
X78.74Y-135.001
X78.74Y-141.097
X78.74Y-151.257
X79.248Y-153.924
X79.883Y-141.097
X80.391Y-153.924
X81.026Y-139.827
X81.178Y-111.455
X81.407Y-141.224
X82.042Y-152.273
X83.312Y-135.128
X83.373Y-152.508
X84.201Y-137.16
X84.328Y-125.857
X84.328Y-129.413
X84.328Y-135.89
X85.09Y-151.765
X85.395Y-108.56
X85.598Y-127.127
X85.598Y-150.749
X85.852Y-143.637
X86.36Y-130.683
X86.995Y-151.003
X87.376Y-115.697
X87.376Y-149.987
X87.503Y-130.429
X87.884Y-139.04
X88.392Y-145.288
X88.646Y-147.447
X88.748Y-123.444
X89.153Y-135.033
X89.408Y-133.731
X90.932Y-136.906
X91.313Y-126.619
X91.44Y-147.32
X92.329Y-117.856
X92.456Y-122.301
X92.537Y-130.67
X92.71Y-132.334
X94.488Y-115.062
X94.488Y-115.062
X94.615Y-142.113
X94.869Y-132.969
X94.996Y-117.856
X95.148Y-140.462
X95.885Y-120.904
X95.885Y-132.969
X96.012Y-138.557
X96.266Y-137.16
X96.647Y-121.925
X96.774Y-133.604
X97.739Y-120.98
X97.917Y-132.461
X98.044Y-137.414
X98.298Y-136.144
X99.967Y-122.379
T2
X94.255Y-122.421
X94.255Y-131.071
X98.425Y-122.421
X98.425Y-131.071
T3
X46.54Y-118.035
X47.24Y-115.593
X47.94Y-113.152
X66.802Y-153.162
X69.342Y-153.162
X71.882Y-153.162
X74.422Y-153.162
X76.962Y-153.162
T4
X47.752Y-126.746
T5
X45.212Y-124.206
X45.212Y-129.286
X50.292Y-124.206
X50.292Y-129.286
T6
X50.927Y-108.839
X56.007Y-104.013
X88.138Y-104.013
X93.218Y-108.839
M30
