%TF.GenerationSoftware,KiCad,Pcbnew,8.0.1*%
%TF.CreationDate,2024-09-30T12:45:28-07:00*%
%TF.ProjectId,rocketBeaconModule,726f636b-6574-4426-9561-636f6e4d6f64,rev?*%
%TF.SameCoordinates,Original*%
%TF.FileFunction,Copper,L1,Top*%
%TF.FilePolarity,Positive*%
%FSLAX46Y46*%
G04 Gerber Fmt 4.6, Leading zero omitted, Abs format (unit mm)*
G04 Created by KiCad (PCBNEW 8.0.1) date 2024-09-30 12:45:28*
%MOMM*%
%LPD*%
G01*
G04 APERTURE LIST*
G04 Aperture macros list*
%AMRoundRect*
0 Rectangle with rounded corners*
0 $1 Rounding radius*
0 $2 $3 $4 $5 $6 $7 $8 $9 X,Y pos of 4 corners*
0 Add a 4 corners polygon primitive as box body*
4,1,4,$2,$3,$4,$5,$6,$7,$8,$9,$2,$3,0*
0 Add four circle primitives for the rounded corners*
1,1,$1+$1,$2,$3*
1,1,$1+$1,$4,$5*
1,1,$1+$1,$6,$7*
1,1,$1+$1,$8,$9*
0 Add four rect primitives between the rounded corners*
20,1,$1+$1,$2,$3,$4,$5,0*
20,1,$1+$1,$4,$5,$6,$7,0*
20,1,$1+$1,$6,$7,$8,$9,0*
20,1,$1+$1,$8,$9,$2,$3,0*%
%AMHorizOval*
0 Thick line with rounded ends*
0 $1 width*
0 $2 $3 position (X,Y) of the first rounded end (center of the circle)*
0 $4 $5 position (X,Y) of the second rounded end (center of the circle)*
0 Add line between two ends*
20,1,$1,$2,$3,$4,$5,0*
0 Add two circle primitives to create the rounded ends*
1,1,$1,$2,$3*
1,1,$1,$4,$5*%
%AMRotRect*
0 Rectangle, with rotation*
0 The origin of the aperture is its center*
0 $1 length*
0 $2 width*
0 $3 Rotation angle, in degrees counterclockwise*
0 Add horizontal line*
21,1,$1,$2,0,0,$3*%
G04 Aperture macros list end*
%TA.AperFunction,EtchedComponent*%
%ADD10C,0.010000*%
%TD*%
%TA.AperFunction,SMDPad,CuDef*%
%ADD11RoundRect,0.140000X-0.219203X-0.021213X-0.021213X-0.219203X0.219203X0.021213X0.021213X0.219203X0*%
%TD*%
%TA.AperFunction,SMDPad,CuDef*%
%ADD12RoundRect,0.140000X0.219203X0.021213X0.021213X0.219203X-0.219203X-0.021213X-0.021213X-0.219203X0*%
%TD*%
%TA.AperFunction,SMDPad,CuDef*%
%ADD13RoundRect,0.140000X-0.021213X0.219203X-0.219203X0.021213X0.021213X-0.219203X0.219203X-0.021213X0*%
%TD*%
%TA.AperFunction,SMDPad,CuDef*%
%ADD14RoundRect,0.062500X0.309359X-0.220971X-0.220971X0.309359X-0.309359X0.220971X0.220971X-0.309359X0*%
%TD*%
%TA.AperFunction,SMDPad,CuDef*%
%ADD15RoundRect,0.062500X0.309359X0.220971X0.220971X0.309359X-0.309359X-0.220971X-0.220971X-0.309359X0*%
%TD*%
%TA.AperFunction,HeatsinkPad*%
%ADD16RotRect,3.450000X3.450000X135.000000*%
%TD*%
%TA.AperFunction,ComponentPad*%
%ADD17RotRect,1.700000X1.700000X344.000000*%
%TD*%
%TA.AperFunction,ComponentPad*%
%ADD18HorizOval,1.700000X0.000000X0.000000X0.000000X0.000000X0*%
%TD*%
%TA.AperFunction,SMDPad,CuDef*%
%ADD19R,0.350000X0.350000*%
%TD*%
%TA.AperFunction,SMDPad,CuDef*%
%ADD20R,0.300000X0.900000*%
%TD*%
%TA.AperFunction,SMDPad,CuDef*%
%ADD21R,0.900000X0.300000*%
%TD*%
%TA.AperFunction,SMDPad,CuDef*%
%ADD22R,1.800000X1.800000*%
%TD*%
%TA.AperFunction,SMDPad,CuDef*%
%ADD23RoundRect,0.135000X-0.135000X-0.185000X0.135000X-0.185000X0.135000X0.185000X-0.135000X0.185000X0*%
%TD*%
%TA.AperFunction,SMDPad,CuDef*%
%ADD24RoundRect,0.140000X0.021213X-0.219203X0.219203X-0.021213X-0.021213X0.219203X-0.219203X0.021213X0*%
%TD*%
%TA.AperFunction,ComponentPad*%
%ADD25R,1.700000X1.700000*%
%TD*%
%TA.AperFunction,ComponentPad*%
%ADD26O,1.700000X1.700000*%
%TD*%
%TA.AperFunction,SMDPad,CuDef*%
%ADD27R,0.400000X1.000000*%
%TD*%
%TA.AperFunction,SMDPad,CuDef*%
%ADD28R,2.000000X1.300000*%
%TD*%
%TA.AperFunction,SMDPad,CuDef*%
%ADD29RoundRect,0.140000X-0.140000X-0.170000X0.140000X-0.170000X0.140000X0.170000X-0.140000X0.170000X0*%
%TD*%
%TA.AperFunction,SMDPad,CuDef*%
%ADD30RoundRect,0.135000X-0.185000X0.135000X-0.185000X-0.135000X0.185000X-0.135000X0.185000X0.135000X0*%
%TD*%
%TA.AperFunction,SMDPad,CuDef*%
%ADD31RoundRect,0.140000X0.140000X0.170000X-0.140000X0.170000X-0.140000X-0.170000X0.140000X-0.170000X0*%
%TD*%
%TA.AperFunction,SMDPad,CuDef*%
%ADD32RoundRect,0.135000X0.135000X0.185000X-0.135000X0.185000X-0.135000X-0.185000X0.135000X-0.185000X0*%
%TD*%
%TA.AperFunction,SMDPad,CuDef*%
%ADD33RoundRect,0.062500X0.220971X0.309359X-0.309359X-0.220971X-0.220971X-0.309359X0.309359X0.220971X0*%
%TD*%
%TA.AperFunction,SMDPad,CuDef*%
%ADD34RoundRect,0.062500X-0.220971X0.309359X-0.309359X0.220971X0.220971X-0.309359X0.309359X-0.220971X0*%
%TD*%
%TA.AperFunction,HeatsinkPad*%
%ADD35RotRect,5.600000X5.600000X225.000000*%
%TD*%
%TA.AperFunction,SMDPad,CuDef*%
%ADD36RoundRect,0.147500X-0.147500X-0.172500X0.147500X-0.172500X0.147500X0.172500X-0.147500X0.172500X0*%
%TD*%
%TA.AperFunction,ComponentPad*%
%ADD37RotRect,4.000000X4.000000X37.000000*%
%TD*%
%TA.AperFunction,ComponentPad*%
%ADD38C,2.050000*%
%TD*%
%TA.AperFunction,ComponentPad*%
%ADD39C,2.250000*%
%TD*%
%TA.AperFunction,ComponentPad*%
%ADD40RotRect,4.000000X4.000000X52.000000*%
%TD*%
%TA.AperFunction,SMDPad,CuDef*%
%ADD41RoundRect,0.147500X0.147500X0.172500X-0.147500X0.172500X-0.147500X-0.172500X0.147500X-0.172500X0*%
%TD*%
%TA.AperFunction,SMDPad,CuDef*%
%ADD42RoundRect,0.225000X0.250000X-0.225000X0.250000X0.225000X-0.250000X0.225000X-0.250000X-0.225000X0*%
%TD*%
%TA.AperFunction,SMDPad,CuDef*%
%ADD43RoundRect,0.250000X-0.229810X0.689429X-0.689429X0.229810X0.229810X-0.689429X0.689429X-0.229810X0*%
%TD*%
%TA.AperFunction,SMDPad,CuDef*%
%ADD44RoundRect,0.218750X0.335876X0.026517X0.026517X0.335876X-0.335876X-0.026517X-0.026517X-0.335876X0*%
%TD*%
%TA.AperFunction,SMDPad,CuDef*%
%ADD45RotRect,0.609600X0.609600X315.000000*%
%TD*%
%TA.AperFunction,SMDPad,CuDef*%
%ADD46RotRect,0.457200X0.609600X45.000000*%
%TD*%
%TA.AperFunction,SMDPad,CuDef*%
%ADD47RotRect,0.457200X0.609600X315.000000*%
%TD*%
%TA.AperFunction,SMDPad,CuDef*%
%ADD48RotRect,3.886200X3.886200X315.000000*%
%TD*%
%TA.AperFunction,SMDPad,CuDef*%
%ADD49RotRect,1.300000X1.100000X315.000000*%
%TD*%
%TA.AperFunction,SMDPad,CuDef*%
%ADD50R,1.140000X0.600000*%
%TD*%
%TA.AperFunction,SMDPad,CuDef*%
%ADD51R,1.140000X0.300000*%
%TD*%
%TA.AperFunction,ComponentPad*%
%ADD52C,0.900000*%
%TD*%
%TA.AperFunction,SMDPad,CuDef*%
%ADD53RotRect,1.400000X1.200000X45.000000*%
%TD*%
%TA.AperFunction,SMDPad,CuDef*%
%ADD54RoundRect,0.225000X0.017678X-0.335876X0.335876X-0.017678X-0.017678X0.335876X-0.335876X0.017678X0*%
%TD*%
%TA.AperFunction,ComponentPad*%
%ADD55RotRect,4.000000X4.000000X143.000000*%
%TD*%
%TA.AperFunction,ComponentPad*%
%ADD56RotRect,4.000000X4.000000X128.000000*%
%TD*%
%TA.AperFunction,ViaPad*%
%ADD57C,0.800000*%
%TD*%
%TA.AperFunction,Conductor*%
%ADD58C,0.250000*%
%TD*%
%TA.AperFunction,Conductor*%
%ADD59C,0.500000*%
%TD*%
%TA.AperFunction,Conductor*%
%ADD60C,0.300000*%
%TD*%
%TA.AperFunction,Conductor*%
%ADD61C,0.200000*%
%TD*%
G04 APERTURE END LIST*
D10*
%TO.C,J1*%
X94805000Y-121971001D02*
X94829000Y-121972000D01*
X94852000Y-121973000D01*
X94875000Y-121977000D01*
X94899000Y-121981000D01*
X94921000Y-121986000D01*
X94944000Y-121993000D01*
X94966000Y-122001000D01*
X94988000Y-122010000D01*
X95009000Y-122020000D01*
X95030000Y-122031000D01*
X95050001Y-122044000D01*
X95070000Y-122057000D01*
X95088000Y-122071000D01*
X95106000Y-122087000D01*
X95123000Y-122103000D01*
X95139000Y-122120000D01*
X95155000Y-122138000D01*
X95169000Y-122156000D01*
X95182000Y-122176000D01*
X95195000Y-122196000D01*
X95206000Y-122217000D01*
X95216000Y-122238000D01*
X95225000Y-122260000D01*
X95233000Y-122282000D01*
X95240000Y-122305000D01*
X95245000Y-122327001D01*
X95249000Y-122351000D01*
X95253000Y-122374000D01*
X95254000Y-122397000D01*
X95255000Y-122421000D01*
X95254000Y-122445000D01*
X95253000Y-122468000D01*
X95249000Y-122491001D01*
X95245000Y-122515000D01*
X95239999Y-122537000D01*
X95233000Y-122560000D01*
X95225000Y-122582000D01*
X95216000Y-122604000D01*
X95206000Y-122625000D01*
X95195000Y-122646000D01*
X95182000Y-122666000D01*
X95169000Y-122686000D01*
X95155000Y-122704000D01*
X95139000Y-122722000D01*
X95123000Y-122739001D01*
X95106000Y-122755000D01*
X95088000Y-122771000D01*
X95070000Y-122785000D01*
X95050000Y-122798000D01*
X95030000Y-122811000D01*
X95009000Y-122822000D01*
X94988000Y-122832000D01*
X94966001Y-122841000D01*
X94944000Y-122849000D01*
X94921000Y-122856000D01*
X94899000Y-122861000D01*
X94875000Y-122865001D01*
X94851999Y-122869000D01*
X94829000Y-122870000D01*
X94805000Y-122871000D01*
X93705000Y-122871000D01*
X93681000Y-122870001D01*
X93658000Y-122869000D01*
X93635000Y-122865000D01*
X93611000Y-122861000D01*
X93589000Y-122856000D01*
X93566000Y-122849000D01*
X93544000Y-122841000D01*
X93522000Y-122832001D01*
X93501000Y-122822000D01*
X93480000Y-122811000D01*
X93460000Y-122798000D01*
X93440000Y-122785000D01*
X93422000Y-122771000D01*
X93404000Y-122755000D01*
X93387000Y-122739000D01*
X93371000Y-122722000D01*
X93355000Y-122704000D01*
X93341001Y-122686000D01*
X93328000Y-122666000D01*
X93315000Y-122646000D01*
X93304000Y-122625000D01*
X93294000Y-122604000D01*
X93285001Y-122582000D01*
X93277000Y-122560000D01*
X93270000Y-122537000D01*
X93265000Y-122515000D01*
X93261000Y-122491000D01*
X93257000Y-122468000D01*
X93256000Y-122445000D01*
X93255000Y-122421000D01*
X93256000Y-122397001D01*
X93257000Y-122374000D01*
X93261000Y-122351000D01*
X93265000Y-122327000D01*
X93270000Y-122305000D01*
X93277000Y-122282000D01*
X93285000Y-122260000D01*
X93294000Y-122238001D01*
X93304000Y-122217000D01*
X93315000Y-122196000D01*
X93328000Y-122176000D01*
X93341000Y-122156000D01*
X93355001Y-122138000D01*
X93371000Y-122120000D01*
X93387000Y-122103000D01*
X93404000Y-122087000D01*
X93422000Y-122071000D01*
X93440000Y-122057000D01*
X93460000Y-122044000D01*
X93479999Y-122031000D01*
X93501000Y-122020000D01*
X93522000Y-122010000D01*
X93544000Y-122001000D01*
X93566000Y-121993000D01*
X93589000Y-121986000D01*
X93611000Y-121981000D01*
X93635000Y-121977000D01*
X93658000Y-121973000D01*
X93681000Y-121972000D01*
X93705000Y-121971000D01*
X94805000Y-121971001D01*
%TA.AperFunction,EtchedComponent*%
G36*
X94805000Y-121971001D02*
G01*
X94829000Y-121972000D01*
X94852000Y-121973000D01*
X94875000Y-121977000D01*
X94899000Y-121981000D01*
X94921000Y-121986000D01*
X94944000Y-121993000D01*
X94966000Y-122001000D01*
X94988000Y-122010000D01*
X95009000Y-122020000D01*
X95030000Y-122031000D01*
X95050001Y-122044000D01*
X95070000Y-122057000D01*
X95088000Y-122071000D01*
X95106000Y-122087000D01*
X95123000Y-122103000D01*
X95139000Y-122120000D01*
X95155000Y-122138000D01*
X95169000Y-122156000D01*
X95182000Y-122176000D01*
X95195000Y-122196000D01*
X95206000Y-122217000D01*
X95216000Y-122238000D01*
X95225000Y-122260000D01*
X95233000Y-122282000D01*
X95240000Y-122305000D01*
X95245000Y-122327001D01*
X95249000Y-122351000D01*
X95253000Y-122374000D01*
X95254000Y-122397000D01*
X95255000Y-122421000D01*
X95254000Y-122445000D01*
X95253000Y-122468000D01*
X95249000Y-122491001D01*
X95245000Y-122515000D01*
X95239999Y-122537000D01*
X95233000Y-122560000D01*
X95225000Y-122582000D01*
X95216000Y-122604000D01*
X95206000Y-122625000D01*
X95195000Y-122646000D01*
X95182000Y-122666000D01*
X95169000Y-122686000D01*
X95155000Y-122704000D01*
X95139000Y-122722000D01*
X95123000Y-122739001D01*
X95106000Y-122755000D01*
X95088000Y-122771000D01*
X95070000Y-122785000D01*
X95050000Y-122798000D01*
X95030000Y-122811000D01*
X95009000Y-122822000D01*
X94988000Y-122832000D01*
X94966001Y-122841000D01*
X94944000Y-122849000D01*
X94921000Y-122856000D01*
X94899000Y-122861000D01*
X94875000Y-122865001D01*
X94851999Y-122869000D01*
X94829000Y-122870000D01*
X94805000Y-122871000D01*
X93705000Y-122871000D01*
X93681000Y-122870001D01*
X93658000Y-122869000D01*
X93635000Y-122865000D01*
X93611000Y-122861000D01*
X93589000Y-122856000D01*
X93566000Y-122849000D01*
X93544000Y-122841000D01*
X93522000Y-122832001D01*
X93501000Y-122822000D01*
X93480000Y-122811000D01*
X93460000Y-122798000D01*
X93440000Y-122785000D01*
X93422000Y-122771000D01*
X93404000Y-122755000D01*
X93387000Y-122739000D01*
X93371000Y-122722000D01*
X93355000Y-122704000D01*
X93341001Y-122686000D01*
X93328000Y-122666000D01*
X93315000Y-122646000D01*
X93304000Y-122625000D01*
X93294000Y-122604000D01*
X93285001Y-122582000D01*
X93277000Y-122560000D01*
X93270000Y-122537000D01*
X93265000Y-122515000D01*
X93261000Y-122491000D01*
X93257000Y-122468000D01*
X93256000Y-122445000D01*
X93255000Y-122421000D01*
X93256000Y-122397001D01*
X93257000Y-122374000D01*
X93261000Y-122351000D01*
X93265000Y-122327000D01*
X93270000Y-122305000D01*
X93277000Y-122282000D01*
X93285000Y-122260000D01*
X93294000Y-122238001D01*
X93304000Y-122217000D01*
X93315000Y-122196000D01*
X93328000Y-122176000D01*
X93341000Y-122156000D01*
X93355001Y-122138000D01*
X93371000Y-122120000D01*
X93387000Y-122103000D01*
X93404000Y-122087000D01*
X93422000Y-122071000D01*
X93440000Y-122057000D01*
X93460000Y-122044000D01*
X93479999Y-122031000D01*
X93501000Y-122020000D01*
X93522000Y-122010000D01*
X93544000Y-122001000D01*
X93566000Y-121993000D01*
X93589000Y-121986000D01*
X93611000Y-121981000D01*
X93635000Y-121977000D01*
X93658000Y-121973000D01*
X93681000Y-121972000D01*
X93705000Y-121971000D01*
X94805000Y-121971001D01*
G37*
%TD.AperFunction*%
X94829000Y-130622000D02*
X94851999Y-130623000D01*
X94875000Y-130626999D01*
X94899000Y-130631000D01*
X94921000Y-130636000D01*
X94944000Y-130643000D01*
X94966001Y-130651000D01*
X94988000Y-130660000D01*
X95009000Y-130670000D01*
X95030000Y-130681000D01*
X95050000Y-130694000D01*
X95070000Y-130707000D01*
X95088000Y-130721000D01*
X95106000Y-130737000D01*
X95123000Y-130752999D01*
X95139000Y-130770000D01*
X95155000Y-130788000D01*
X95169000Y-130806000D01*
X95182000Y-130826000D01*
X95195000Y-130846000D01*
X95206000Y-130867000D01*
X95216000Y-130888000D01*
X95225000Y-130910000D01*
X95233000Y-130932000D01*
X95239999Y-130955000D01*
X95245000Y-130977000D01*
X95249000Y-131000999D01*
X95253000Y-131024000D01*
X95254000Y-131047000D01*
X95255000Y-131071000D01*
X95254000Y-131095000D01*
X95253000Y-131118000D01*
X95249000Y-131141000D01*
X95245000Y-131164999D01*
X95240000Y-131187000D01*
X95233000Y-131210000D01*
X95225000Y-131232000D01*
X95216000Y-131254000D01*
X95206000Y-131275000D01*
X95195000Y-131296000D01*
X95182000Y-131316000D01*
X95169000Y-131336000D01*
X95155000Y-131354000D01*
X95139000Y-131372000D01*
X95123000Y-131389000D01*
X95106000Y-131405000D01*
X95088000Y-131421000D01*
X95070000Y-131435000D01*
X95050001Y-131448000D01*
X95030000Y-131461000D01*
X95009000Y-131472000D01*
X94988000Y-131482000D01*
X94966000Y-131491000D01*
X94944000Y-131499000D01*
X94921000Y-131506000D01*
X94899000Y-131511000D01*
X94875000Y-131515000D01*
X94852000Y-131519000D01*
X94829000Y-131520000D01*
X94805000Y-131520999D01*
X93705000Y-131521000D01*
X93681000Y-131520000D01*
X93658000Y-131519000D01*
X93635000Y-131515000D01*
X93611000Y-131511000D01*
X93589000Y-131506000D01*
X93566000Y-131499000D01*
X93544000Y-131491000D01*
X93522000Y-131482000D01*
X93501000Y-131472000D01*
X93479999Y-131461000D01*
X93460000Y-131448000D01*
X93440000Y-131435000D01*
X93422000Y-131421000D01*
X93404000Y-131405000D01*
X93387000Y-131389000D01*
X93371000Y-131372000D01*
X93355001Y-131354000D01*
X93341000Y-131336000D01*
X93328000Y-131316000D01*
X93315000Y-131296000D01*
X93304000Y-131275000D01*
X93294000Y-131253999D01*
X93285000Y-131232000D01*
X93277000Y-131210000D01*
X93270000Y-131187000D01*
X93265000Y-131165000D01*
X93261000Y-131141000D01*
X93257000Y-131118000D01*
X93256000Y-131094999D01*
X93255000Y-131071000D01*
X93256000Y-131047000D01*
X93257000Y-131024000D01*
X93261000Y-131001000D01*
X93265000Y-130977000D01*
X93270000Y-130955000D01*
X93277000Y-130932000D01*
X93285001Y-130910000D01*
X93294000Y-130888000D01*
X93304000Y-130867000D01*
X93315000Y-130846000D01*
X93328000Y-130826000D01*
X93341001Y-130806000D01*
X93355000Y-130788000D01*
X93371000Y-130770000D01*
X93387000Y-130753000D01*
X93404000Y-130737000D01*
X93422000Y-130721000D01*
X93440000Y-130707000D01*
X93460000Y-130694000D01*
X93480000Y-130681000D01*
X93501000Y-130670000D01*
X93522000Y-130659999D01*
X93544000Y-130651000D01*
X93566000Y-130643000D01*
X93589000Y-130636000D01*
X93611000Y-130631000D01*
X93635000Y-130627000D01*
X93658000Y-130623000D01*
X93681000Y-130621999D01*
X93705000Y-130621000D01*
X94805000Y-130621000D01*
X94829000Y-130622000D01*
%TA.AperFunction,EtchedComponent*%
G36*
X94829000Y-130622000D02*
G01*
X94851999Y-130623000D01*
X94875000Y-130626999D01*
X94899000Y-130631000D01*
X94921000Y-130636000D01*
X94944000Y-130643000D01*
X94966001Y-130651000D01*
X94988000Y-130660000D01*
X95009000Y-130670000D01*
X95030000Y-130681000D01*
X95050000Y-130694000D01*
X95070000Y-130707000D01*
X95088000Y-130721000D01*
X95106000Y-130737000D01*
X95123000Y-130752999D01*
X95139000Y-130770000D01*
X95155000Y-130788000D01*
X95169000Y-130806000D01*
X95182000Y-130826000D01*
X95195000Y-130846000D01*
X95206000Y-130867000D01*
X95216000Y-130888000D01*
X95225000Y-130910000D01*
X95233000Y-130932000D01*
X95239999Y-130955000D01*
X95245000Y-130977000D01*
X95249000Y-131000999D01*
X95253000Y-131024000D01*
X95254000Y-131047000D01*
X95255000Y-131071000D01*
X95254000Y-131095000D01*
X95253000Y-131118000D01*
X95249000Y-131141000D01*
X95245000Y-131164999D01*
X95240000Y-131187000D01*
X95233000Y-131210000D01*
X95225000Y-131232000D01*
X95216000Y-131254000D01*
X95206000Y-131275000D01*
X95195000Y-131296000D01*
X95182000Y-131316000D01*
X95169000Y-131336000D01*
X95155000Y-131354000D01*
X95139000Y-131372000D01*
X95123000Y-131389000D01*
X95106000Y-131405000D01*
X95088000Y-131421000D01*
X95070000Y-131435000D01*
X95050001Y-131448000D01*
X95030000Y-131461000D01*
X95009000Y-131472000D01*
X94988000Y-131482000D01*
X94966000Y-131491000D01*
X94944000Y-131499000D01*
X94921000Y-131506000D01*
X94899000Y-131511000D01*
X94875000Y-131515000D01*
X94852000Y-131519000D01*
X94829000Y-131520000D01*
X94805000Y-131520999D01*
X93705000Y-131521000D01*
X93681000Y-131520000D01*
X93658000Y-131519000D01*
X93635000Y-131515000D01*
X93611000Y-131511000D01*
X93589000Y-131506000D01*
X93566000Y-131499000D01*
X93544000Y-131491000D01*
X93522000Y-131482000D01*
X93501000Y-131472000D01*
X93479999Y-131461000D01*
X93460000Y-131448000D01*
X93440000Y-131435000D01*
X93422000Y-131421000D01*
X93404000Y-131405000D01*
X93387000Y-131389000D01*
X93371000Y-131372000D01*
X93355001Y-131354000D01*
X93341000Y-131336000D01*
X93328000Y-131316000D01*
X93315000Y-131296000D01*
X93304000Y-131275000D01*
X93294000Y-131253999D01*
X93285000Y-131232000D01*
X93277000Y-131210000D01*
X93270000Y-131187000D01*
X93265000Y-131165000D01*
X93261000Y-131141000D01*
X93257000Y-131118000D01*
X93256000Y-131094999D01*
X93255000Y-131071000D01*
X93256000Y-131047000D01*
X93257000Y-131024000D01*
X93261000Y-131001000D01*
X93265000Y-130977000D01*
X93270000Y-130955000D01*
X93277000Y-130932000D01*
X93285001Y-130910000D01*
X93294000Y-130888000D01*
X93304000Y-130867000D01*
X93315000Y-130846000D01*
X93328000Y-130826000D01*
X93341001Y-130806000D01*
X93355000Y-130788000D01*
X93371000Y-130770000D01*
X93387000Y-130753000D01*
X93404000Y-130737000D01*
X93422000Y-130721000D01*
X93440000Y-130707000D01*
X93460000Y-130694000D01*
X93480000Y-130681000D01*
X93501000Y-130670000D01*
X93522000Y-130659999D01*
X93544000Y-130651000D01*
X93566000Y-130643000D01*
X93589000Y-130636000D01*
X93611000Y-130631000D01*
X93635000Y-130627000D01*
X93658000Y-130623000D01*
X93681000Y-130621999D01*
X93705000Y-130621000D01*
X94805000Y-130621000D01*
X94829000Y-130622000D01*
G37*
%TD.AperFunction*%
X98849000Y-121972000D02*
X98872000Y-121973000D01*
X98895000Y-121977000D01*
X98919000Y-121981000D01*
X98941000Y-121986000D01*
X98964000Y-121993000D01*
X98986000Y-122001000D01*
X99008000Y-122010000D01*
X99029000Y-122020000D01*
X99050000Y-122031000D01*
X99070000Y-122044000D01*
X99090000Y-122057000D01*
X99108000Y-122071000D01*
X99125999Y-122087000D01*
X99143000Y-122103000D01*
X99158999Y-122120000D01*
X99175000Y-122138000D01*
X99189000Y-122155999D01*
X99202000Y-122176000D01*
X99215000Y-122196001D01*
X99226000Y-122217000D01*
X99236000Y-122238000D01*
X99245001Y-122260000D01*
X99253000Y-122282000D01*
X99260000Y-122305000D01*
X99265000Y-122327000D01*
X99269000Y-122351000D01*
X99273000Y-122374000D01*
X99274000Y-122397000D01*
X99275000Y-122421000D01*
X99274000Y-122445000D01*
X99273000Y-122468000D01*
X99269000Y-122491001D01*
X99265000Y-122515000D01*
X99260000Y-122537000D01*
X99252999Y-122560000D01*
X99245000Y-122582000D01*
X99236000Y-122604000D01*
X99226000Y-122624999D01*
X99215000Y-122646000D01*
X99202000Y-122666000D01*
X99189000Y-122686000D01*
X99175000Y-122703999D01*
X99159000Y-122722000D01*
X99143000Y-122739000D01*
X99126000Y-122755000D01*
X99107999Y-122771000D01*
X99090000Y-122785000D01*
X99069999Y-122798000D01*
X99050000Y-122811000D01*
X99029000Y-122821999D01*
X99008000Y-122832000D01*
X98986000Y-122841000D01*
X98964000Y-122848999D01*
X98941000Y-122856001D01*
X98919000Y-122861000D01*
X98895000Y-122865000D01*
X98872000Y-122869000D01*
X98849000Y-122870000D01*
X98825000Y-122871000D01*
X98025000Y-122871000D01*
X98001000Y-122870000D01*
X97978000Y-122869000D01*
X97955000Y-122865000D01*
X97931000Y-122861000D01*
X97909000Y-122856001D01*
X97886000Y-122848999D01*
X97864000Y-122841000D01*
X97842000Y-122832000D01*
X97821000Y-122821999D01*
X97800000Y-122811000D01*
X97780001Y-122798000D01*
X97760000Y-122785000D01*
X97742001Y-122771000D01*
X97724000Y-122755000D01*
X97707000Y-122739000D01*
X97691000Y-122722000D01*
X97675000Y-122703999D01*
X97661000Y-122686000D01*
X97648000Y-122666000D01*
X97635000Y-122646000D01*
X97624000Y-122624999D01*
X97614000Y-122604000D01*
X97605000Y-122582000D01*
X97597001Y-122560000D01*
X97590000Y-122537000D01*
X97585000Y-122515000D01*
X97581000Y-122491001D01*
X97577000Y-122468000D01*
X97576000Y-122445000D01*
X97575000Y-122421000D01*
X97576000Y-122397000D01*
X97577000Y-122374000D01*
X97581000Y-122351000D01*
X97585000Y-122327000D01*
X97590000Y-122305000D01*
X97597000Y-122282000D01*
X97604999Y-122260000D01*
X97614000Y-122238000D01*
X97624000Y-122217000D01*
X97635000Y-122196001D01*
X97648000Y-122176000D01*
X97661000Y-122155999D01*
X97675000Y-122138000D01*
X97691001Y-122120000D01*
X97707000Y-122103000D01*
X97724001Y-122087000D01*
X97742000Y-122071000D01*
X97760000Y-122057000D01*
X97780000Y-122044000D01*
X97800000Y-122031000D01*
X97821000Y-122020000D01*
X97842000Y-122010000D01*
X97864000Y-122001000D01*
X97886000Y-121993000D01*
X97909000Y-121986000D01*
X97931000Y-121981000D01*
X97955000Y-121977000D01*
X97978000Y-121973000D01*
X98001000Y-121972000D01*
X98025000Y-121971000D01*
X98825000Y-121971000D01*
X98849000Y-121972000D01*
%TA.AperFunction,EtchedComponent*%
G36*
X98849000Y-121972000D02*
G01*
X98872000Y-121973000D01*
X98895000Y-121977000D01*
X98919000Y-121981000D01*
X98941000Y-121986000D01*
X98964000Y-121993000D01*
X98986000Y-122001000D01*
X99008000Y-122010000D01*
X99029000Y-122020000D01*
X99050000Y-122031000D01*
X99070000Y-122044000D01*
X99090000Y-122057000D01*
X99108000Y-122071000D01*
X99125999Y-122087000D01*
X99143000Y-122103000D01*
X99158999Y-122120000D01*
X99175000Y-122138000D01*
X99189000Y-122155999D01*
X99202000Y-122176000D01*
X99215000Y-122196001D01*
X99226000Y-122217000D01*
X99236000Y-122238000D01*
X99245001Y-122260000D01*
X99253000Y-122282000D01*
X99260000Y-122305000D01*
X99265000Y-122327000D01*
X99269000Y-122351000D01*
X99273000Y-122374000D01*
X99274000Y-122397000D01*
X99275000Y-122421000D01*
X99274000Y-122445000D01*
X99273000Y-122468000D01*
X99269000Y-122491001D01*
X99265000Y-122515000D01*
X99260000Y-122537000D01*
X99252999Y-122560000D01*
X99245000Y-122582000D01*
X99236000Y-122604000D01*
X99226000Y-122624999D01*
X99215000Y-122646000D01*
X99202000Y-122666000D01*
X99189000Y-122686000D01*
X99175000Y-122703999D01*
X99159000Y-122722000D01*
X99143000Y-122739000D01*
X99126000Y-122755000D01*
X99107999Y-122771000D01*
X99090000Y-122785000D01*
X99069999Y-122798000D01*
X99050000Y-122811000D01*
X99029000Y-122821999D01*
X99008000Y-122832000D01*
X98986000Y-122841000D01*
X98964000Y-122848999D01*
X98941000Y-122856001D01*
X98919000Y-122861000D01*
X98895000Y-122865000D01*
X98872000Y-122869000D01*
X98849000Y-122870000D01*
X98825000Y-122871000D01*
X98025000Y-122871000D01*
X98001000Y-122870000D01*
X97978000Y-122869000D01*
X97955000Y-122865000D01*
X97931000Y-122861000D01*
X97909000Y-122856001D01*
X97886000Y-122848999D01*
X97864000Y-122841000D01*
X97842000Y-122832000D01*
X97821000Y-122821999D01*
X97800000Y-122811000D01*
X97780001Y-122798000D01*
X97760000Y-122785000D01*
X97742001Y-122771000D01*
X97724000Y-122755000D01*
X97707000Y-122739000D01*
X97691000Y-122722000D01*
X97675000Y-122703999D01*
X97661000Y-122686000D01*
X97648000Y-122666000D01*
X97635000Y-122646000D01*
X97624000Y-122624999D01*
X97614000Y-122604000D01*
X97605000Y-122582000D01*
X97597001Y-122560000D01*
X97590000Y-122537000D01*
X97585000Y-122515000D01*
X97581000Y-122491001D01*
X97577000Y-122468000D01*
X97576000Y-122445000D01*
X97575000Y-122421000D01*
X97576000Y-122397000D01*
X97577000Y-122374000D01*
X97581000Y-122351000D01*
X97585000Y-122327000D01*
X97590000Y-122305000D01*
X97597000Y-122282000D01*
X97604999Y-122260000D01*
X97614000Y-122238000D01*
X97624000Y-122217000D01*
X97635000Y-122196001D01*
X97648000Y-122176000D01*
X97661000Y-122155999D01*
X97675000Y-122138000D01*
X97691001Y-122120000D01*
X97707000Y-122103000D01*
X97724001Y-122087000D01*
X97742000Y-122071000D01*
X97760000Y-122057000D01*
X97780000Y-122044000D01*
X97800000Y-122031000D01*
X97821000Y-122020000D01*
X97842000Y-122010000D01*
X97864000Y-122001000D01*
X97886000Y-121993000D01*
X97909000Y-121986000D01*
X97931000Y-121981000D01*
X97955000Y-121977000D01*
X97978000Y-121973000D01*
X98001000Y-121972000D01*
X98025000Y-121971000D01*
X98825000Y-121971000D01*
X98849000Y-121972000D01*
G37*
%TD.AperFunction*%
X98849000Y-130622000D02*
X98872000Y-130623000D01*
X98895000Y-130627000D01*
X98919000Y-130631000D01*
X98941000Y-130635999D01*
X98964000Y-130643001D01*
X98986000Y-130651000D01*
X99008000Y-130660000D01*
X99029000Y-130670001D01*
X99050000Y-130681000D01*
X99069999Y-130694000D01*
X99090000Y-130707000D01*
X99107999Y-130721000D01*
X99126000Y-130737000D01*
X99143000Y-130753000D01*
X99159000Y-130770000D01*
X99175000Y-130788001D01*
X99189000Y-130806000D01*
X99202000Y-130826000D01*
X99215000Y-130846000D01*
X99226000Y-130867001D01*
X99236000Y-130888000D01*
X99245000Y-130910000D01*
X99252999Y-130932000D01*
X99260000Y-130955000D01*
X99265000Y-130977000D01*
X99269000Y-131000999D01*
X99273000Y-131024000D01*
X99274000Y-131047000D01*
X99275000Y-131071000D01*
X99274000Y-131095000D01*
X99273000Y-131118000D01*
X99269000Y-131141000D01*
X99265000Y-131165000D01*
X99260000Y-131187000D01*
X99253000Y-131210000D01*
X99245001Y-131232000D01*
X99236000Y-131254000D01*
X99226000Y-131275000D01*
X99215000Y-131295999D01*
X99202000Y-131316000D01*
X99189000Y-131336001D01*
X99175000Y-131354000D01*
X99158999Y-131372000D01*
X99143000Y-131389000D01*
X99125999Y-131405000D01*
X99108000Y-131421000D01*
X99090000Y-131435000D01*
X99070000Y-131448000D01*
X99050000Y-131461000D01*
X99029000Y-131472000D01*
X99008000Y-131482000D01*
X98986000Y-131491000D01*
X98964000Y-131499000D01*
X98941000Y-131506000D01*
X98919000Y-131511000D01*
X98895000Y-131515000D01*
X98872000Y-131519000D01*
X98849000Y-131520000D01*
X98825000Y-131521000D01*
X98025000Y-131521000D01*
X98001000Y-131520000D01*
X97978000Y-131519000D01*
X97955000Y-131515000D01*
X97931000Y-131511000D01*
X97909000Y-131506000D01*
X97886000Y-131499000D01*
X97864000Y-131491000D01*
X97842000Y-131482000D01*
X97821000Y-131472000D01*
X97800000Y-131461000D01*
X97780000Y-131448000D01*
X97760000Y-131435000D01*
X97742000Y-131421000D01*
X97724001Y-131405000D01*
X97707000Y-131389000D01*
X97691001Y-131372000D01*
X97675000Y-131354000D01*
X97661000Y-131336001D01*
X97648000Y-131316000D01*
X97635000Y-131295999D01*
X97624000Y-131275000D01*
X97614000Y-131254000D01*
X97604999Y-131232000D01*
X97597000Y-131210000D01*
X97590000Y-131187000D01*
X97585000Y-131165000D01*
X97581000Y-131141000D01*
X97577000Y-131118000D01*
X97576000Y-131095000D01*
X97575000Y-131071000D01*
X97576000Y-131047000D01*
X97577000Y-131024000D01*
X97581000Y-131000999D01*
X97585000Y-130977000D01*
X97590000Y-130955000D01*
X97597001Y-130932000D01*
X97605000Y-130910000D01*
X97614000Y-130888000D01*
X97624000Y-130867001D01*
X97635000Y-130846000D01*
X97648000Y-130826000D01*
X97661000Y-130806000D01*
X97675000Y-130788001D01*
X97691000Y-130770000D01*
X97707000Y-130753000D01*
X97724000Y-130737000D01*
X97742001Y-130721000D01*
X97760000Y-130707000D01*
X97780001Y-130694000D01*
X97800000Y-130681000D01*
X97821000Y-130670001D01*
X97842000Y-130660000D01*
X97864000Y-130651000D01*
X97886000Y-130643001D01*
X97909000Y-130635999D01*
X97931000Y-130631000D01*
X97955000Y-130627000D01*
X97978000Y-130623000D01*
X98001000Y-130622000D01*
X98025000Y-130621000D01*
X98825000Y-130621000D01*
X98849000Y-130622000D01*
%TA.AperFunction,EtchedComponent*%
G36*
X98849000Y-130622000D02*
G01*
X98872000Y-130623000D01*
X98895000Y-130627000D01*
X98919000Y-130631000D01*
X98941000Y-130635999D01*
X98964000Y-130643001D01*
X98986000Y-130651000D01*
X99008000Y-130660000D01*
X99029000Y-130670001D01*
X99050000Y-130681000D01*
X99069999Y-130694000D01*
X99090000Y-130707000D01*
X99107999Y-130721000D01*
X99126000Y-130737000D01*
X99143000Y-130753000D01*
X99159000Y-130770000D01*
X99175000Y-130788001D01*
X99189000Y-130806000D01*
X99202000Y-130826000D01*
X99215000Y-130846000D01*
X99226000Y-130867001D01*
X99236000Y-130888000D01*
X99245000Y-130910000D01*
X99252999Y-130932000D01*
X99260000Y-130955000D01*
X99265000Y-130977000D01*
X99269000Y-131000999D01*
X99273000Y-131024000D01*
X99274000Y-131047000D01*
X99275000Y-131071000D01*
X99274000Y-131095000D01*
X99273000Y-131118000D01*
X99269000Y-131141000D01*
X99265000Y-131165000D01*
X99260000Y-131187000D01*
X99253000Y-131210000D01*
X99245001Y-131232000D01*
X99236000Y-131254000D01*
X99226000Y-131275000D01*
X99215000Y-131295999D01*
X99202000Y-131316000D01*
X99189000Y-131336001D01*
X99175000Y-131354000D01*
X99158999Y-131372000D01*
X99143000Y-131389000D01*
X99125999Y-131405000D01*
X99108000Y-131421000D01*
X99090000Y-131435000D01*
X99070000Y-131448000D01*
X99050000Y-131461000D01*
X99029000Y-131472000D01*
X99008000Y-131482000D01*
X98986000Y-131491000D01*
X98964000Y-131499000D01*
X98941000Y-131506000D01*
X98919000Y-131511000D01*
X98895000Y-131515000D01*
X98872000Y-131519000D01*
X98849000Y-131520000D01*
X98825000Y-131521000D01*
X98025000Y-131521000D01*
X98001000Y-131520000D01*
X97978000Y-131519000D01*
X97955000Y-131515000D01*
X97931000Y-131511000D01*
X97909000Y-131506000D01*
X97886000Y-131499000D01*
X97864000Y-131491000D01*
X97842000Y-131482000D01*
X97821000Y-131472000D01*
X97800000Y-131461000D01*
X97780000Y-131448000D01*
X97760000Y-131435000D01*
X97742000Y-131421000D01*
X97724001Y-131405000D01*
X97707000Y-131389000D01*
X97691001Y-131372000D01*
X97675000Y-131354000D01*
X97661000Y-131336001D01*
X97648000Y-131316000D01*
X97635000Y-131295999D01*
X97624000Y-131275000D01*
X97614000Y-131254000D01*
X97604999Y-131232000D01*
X97597000Y-131210000D01*
X97590000Y-131187000D01*
X97585000Y-131165000D01*
X97581000Y-131141000D01*
X97577000Y-131118000D01*
X97576000Y-131095000D01*
X97575000Y-131071000D01*
X97576000Y-131047000D01*
X97577000Y-131024000D01*
X97581000Y-131000999D01*
X97585000Y-130977000D01*
X97590000Y-130955000D01*
X97597001Y-130932000D01*
X97605000Y-130910000D01*
X97614000Y-130888000D01*
X97624000Y-130867001D01*
X97635000Y-130846000D01*
X97648000Y-130826000D01*
X97661000Y-130806000D01*
X97675000Y-130788001D01*
X97691000Y-130770000D01*
X97707000Y-130753000D01*
X97724000Y-130737000D01*
X97742001Y-130721000D01*
X97760000Y-130707000D01*
X97780001Y-130694000D01*
X97800000Y-130681000D01*
X97821000Y-130670001D01*
X97842000Y-130660000D01*
X97864000Y-130651000D01*
X97886000Y-130643001D01*
X97909000Y-130635999D01*
X97931000Y-130631000D01*
X97955000Y-130627000D01*
X97978000Y-130623000D01*
X98001000Y-130622000D01*
X98025000Y-130621000D01*
X98825000Y-130621000D01*
X98849000Y-130622000D01*
G37*
%TD.AperFunction*%
%TD*%
D11*
%TO.P,R9,1*%
%TO.N,Net-(C26-Pad1)*%
X68782827Y-136038674D03*
%TO.P,R9,2*%
%TO.N,FEM_VPC*%
X69461649Y-136717496D03*
%TD*%
D12*
%TO.P,C7,1*%
%TO.N,FEM_VPC*%
X87969411Y-146389411D03*
%TO.P,C7,2*%
%TO.N,GND*%
X87290589Y-145710589D03*
%TD*%
D13*
%TO.P,L1,1,1*%
%TO.N,Net-(C26-Pad1)*%
X68044607Y-136776893D03*
%TO.P,L1,2,2*%
%TO.N,Net-(U3-PA)*%
X67365785Y-137455715D03*
%TD*%
D14*
%TO.P,U3,1,VDD_GUARD*%
%TO.N,FEM_VPC*%
X69268963Y-144387837D03*
%TO.P,U3,2,~{RESET}*%
%TO.N,RADIO_RESET*%
X69622516Y-144034283D03*
%TO.P,U3,3,GPIO3*%
%TO.N,RADIO_MARC_INT*%
X69976070Y-143680730D03*
%TO.P,U3,4,GPIO2*%
%TO.N,RADIO_INT*%
X70329623Y-143327176D03*
%TO.P,U3,5,DVDD*%
%TO.N,FEM_VPC*%
X70683176Y-142973623D03*
%TO.P,U3,6,DCPL*%
%TO.N,Net-(U3-DCPL)*%
X71036730Y-142620070D03*
%TO.P,U3,7,SI*%
%TO.N,SPI_MOSI*%
X71390283Y-142266516D03*
%TO.P,U3,8,SCLK*%
%TO.N,SPI2_SCK*%
X71743837Y-141912963D03*
D15*
%TO.P,U3,9,SO(GPIO1)*%
%TO.N,SPI2_MISO*%
X71743837Y-140940691D03*
%TO.P,U3,10,GPIO0*%
%TO.N,unconnected-(U3-GPIO0-Pad10)*%
X71390283Y-140587138D03*
%TO.P,U3,11,~{CS}*%
%TO.N,RADIO_CS*%
X71036730Y-140233584D03*
%TO.P,U3,12,DVDD*%
%TO.N,FEM_VPC*%
X70683176Y-139880031D03*
%TO.P,U3,13,AVDD_IF*%
X70329623Y-139526478D03*
%TO.P,U3,14,RBIAS*%
%TO.N,Net-(U3-RBIAS)*%
X69976070Y-139172924D03*
%TO.P,U3,15,AVDD_RF*%
%TO.N,FEM_VPC*%
X69622516Y-138819371D03*
%TO.P,U3,16,NC*%
%TO.N,unconnected-(U3-NC-Pad16)*%
X69268963Y-138465817D03*
D14*
%TO.P,U3,17,PA*%
%TO.N,Net-(U3-PA)*%
X68296691Y-138465817D03*
%TO.P,U3,18,TRX_SW*%
%TO.N,unconnected-(U3-TRX_SW-Pad18)*%
X67943138Y-138819371D03*
%TO.P,U3,19,LNA_P*%
%TO.N,Net-(U3-LNA_P)*%
X67589584Y-139172924D03*
%TO.P,U3,20,LNA_N*%
%TO.N,Net-(U3-LNA_N)*%
X67236031Y-139526478D03*
%TO.P,U3,21,DCPL_VCO*%
%TO.N,Net-(U3-DCPL_VCO)*%
X66882478Y-139880031D03*
%TO.P,U3,22,AVDD_SYNTH1*%
%TO.N,FEM_VPC*%
X66528924Y-140233584D03*
%TO.P,U3,23,LPF0*%
%TO.N,Net-(U3-LPF0)*%
X66175371Y-140587138D03*
%TO.P,U3,24,LPF1*%
%TO.N,Net-(U3-LPF1)*%
X65821817Y-140940691D03*
D15*
%TO.P,U3,25,AVDD_PFD_CHP*%
%TO.N,FEM_VPC*%
X65821817Y-141912963D03*
%TO.P,U3,26,DCPL_PFD_CHP*%
%TO.N,Net-(U3-DCPL_PFD_CHP)*%
X66175371Y-142266516D03*
%TO.P,U3,27,AVDD_SYNTH2*%
%TO.N,FEM_VPC*%
X66528924Y-142620070D03*
%TO.P,U3,28,AVDD_XOSC*%
X66882478Y-142973623D03*
%TO.P,U3,29,DCPL_XOSC*%
%TO.N,Net-(U3-DCPL_XOSC)*%
X67236031Y-143327176D03*
%TO.P,U3,30,XOSC_Q1*%
%TO.N,Net-(U3-XOSC_Q1)*%
X67589584Y-143680730D03*
%TO.P,U3,31,XOSC_Q2*%
%TO.N,Net-(U3-XOSC_Q2)*%
X67943138Y-144034283D03*
%TO.P,U3,32,EXT_XOSC*%
%TO.N,GND*%
X68296691Y-144387837D03*
D16*
%TO.P,U3,33,GND_EP*%
X68782827Y-141426827D03*
%TD*%
D17*
%TO.P,J6,1,Pin_1*%
%TO.N,+BATT*%
X47939985Y-113151652D03*
D18*
%TO.P,J6,2,Pin_2*%
%TO.N,/HV_SUPPLY*%
X47239865Y-115593256D03*
%TO.P,J6,3,Pin_3*%
%TO.N,VBUS*%
X46539748Y-118034859D03*
%TD*%
D13*
%TO.P,R2,1*%
%TO.N,Net-(U4-RBIAS)*%
X55203411Y-132756589D03*
%TO.P,R2,2*%
%TO.N,GND*%
X54524589Y-133435411D03*
%TD*%
D19*
%TO.P,U2,1,RS485/GPIO.1*%
%TO.N,/CP2102N_SIG2*%
X95242000Y-134412000D03*
D20*
%TO.P,U2,2,CLK/GPIO.0*%
%TO.N,/CP2102N_SIG1*%
X94742001Y-134112000D03*
%TO.P,U2,3,GND*%
%TO.N,GND*%
X94242000Y-134112000D03*
%TO.P,U2,4,D+*%
%TO.N,/D+*%
X93742000Y-134112000D03*
%TO.P,U2,5,D-*%
%TO.N,/D-*%
X93241999Y-134112000D03*
D19*
%TO.P,U2,6,VDD*%
%TO.N,FEM_VPC*%
X92742000Y-134412000D03*
D21*
%TO.P,U2,7,VREGIN*%
%TO.N,VBUS*%
X92442000Y-134911999D03*
%TO.P,U2,8,VBUS*%
X92442000Y-135412000D03*
%TO.P,U2,9,~{RST}*%
%TO.N,Net-(U2-~{RST})*%
X92442000Y-135912000D03*
%TO.P,U2,10,NC*%
%TO.N,unconnected-(U2-NC-Pad10)*%
X92442000Y-136412001D03*
D19*
%TO.P,U2,11,~{SUSPEND}*%
%TO.N,unconnected-(U2-~{SUSPEND}-Pad11)*%
X92742000Y-136912000D03*
D20*
%TO.P,U2,12,GND*%
%TO.N,GND*%
X93241999Y-137212000D03*
%TO.P,U2,13,~{WAKEUP}*%
%TO.N,unconnected-(U2-~{WAKEUP}-Pad13)*%
X93742000Y-137212000D03*
%TO.P,U2,14,SUSPEND*%
%TO.N,unconnected-(U2-SUSPEND-Pad14)*%
X94242000Y-137212000D03*
%TO.P,U2,15,~{CTS}*%
%TO.N,unconnected-(U2-~{CTS}-Pad15)*%
X94742001Y-137212000D03*
D19*
%TO.P,U2,16,~{RTS}*%
%TO.N,unconnected-(U2-~{RTS}-Pad16)*%
X95242000Y-136912000D03*
D21*
%TO.P,U2,17,RXD*%
%TO.N,/TX*%
X95542000Y-136412001D03*
%TO.P,U2,18,TXD*%
%TO.N,/RX*%
X95542000Y-135912000D03*
%TO.P,U2,19,~{RXT}/GPIO.3*%
%TO.N,/RXT*%
X95542000Y-135412000D03*
%TO.P,U2,20,~{TXT}/GPIO.2*%
%TO.N,/TXT*%
X95542000Y-134911999D03*
D22*
%TO.P,U2,EXP*%
%TO.N,N/C*%
X93992000Y-135662000D03*
%TD*%
D13*
%TO.P,C36,1*%
%TO.N,Net-(U3-XOSC_Q2)*%
X65815068Y-149210245D03*
%TO.P,C36,2*%
%TO.N,GND*%
X65136246Y-149889067D03*
%TD*%
D23*
%TO.P,R3,1*%
%TO.N,GND*%
X91184000Y-128143000D03*
%TO.P,R3,2*%
%TO.N,Net-(J1-CC1)*%
X92204000Y-128143000D03*
%TD*%
D12*
%TO.P,C11,1*%
%TO.N,+3.3VA*%
X83651411Y-140547411D03*
%TO.P,C11,2*%
%TO.N,GND*%
X82972589Y-139868589D03*
%TD*%
D24*
%TO.P,C26,1*%
%TO.N,Net-(C26-Pad1)*%
X69540846Y-135280655D03*
%TO.P,C26,2*%
%TO.N,FEM_VPC*%
X70219668Y-134601833D03*
%TD*%
D11*
%TO.P,C16,1*%
%TO.N,Net-(U3-DCPL)*%
X72558589Y-144694589D03*
%TO.P,C16,2*%
%TO.N,GND*%
X73237411Y-145373411D03*
%TD*%
D25*
%TO.P,SWD1,1,Pin_1*%
%TO.N,FEM_VPC*%
X66802000Y-153162000D03*
D26*
%TO.P,SWD1,2,Pin_2*%
%TO.N,/SWCLK*%
X69342000Y-153162000D03*
%TO.P,SWD1,3,Pin_3*%
%TO.N,GND*%
X71881999Y-153162000D03*
%TO.P,SWD1,4,Pin_4*%
%TO.N,/SWDIO*%
X74422000Y-153162000D03*
%TO.P,SWD1,5,Pin_5*%
%TO.N,/NRST*%
X76962000Y-153162000D03*
%TD*%
D23*
%TO.P,R10,1*%
%TO.N,FEM_VPC*%
X98931000Y-132334000D03*
%TO.P,R10,2*%
%TO.N,Net-(D4-A)*%
X99951000Y-132334000D03*
%TD*%
D12*
%TO.P,L7,1,1*%
%TO.N,Net-(C34-Pad1)*%
X63015664Y-133145192D03*
%TO.P,L7,2,2*%
%TO.N,Net-(C37-Pad1)*%
X62336842Y-132466370D03*
%TD*%
D11*
%TO.P,C32,1*%
%TO.N,GND*%
X61079606Y-136956498D03*
%TO.P,C32,2*%
%TO.N,Net-(U3-LNA_N)*%
X61758428Y-137635320D03*
%TD*%
D24*
%TO.P,C29,1*%
%TO.N,GND*%
X63434272Y-142824070D03*
%TO.P,C29,2*%
%TO.N,FEM_VPC*%
X64113094Y-142145248D03*
%TD*%
D12*
%TO.P,C8,1*%
%TO.N,FEM_VPC*%
X81280000Y-153162000D03*
%TO.P,C8,2*%
%TO.N,GND*%
X80601178Y-152483178D03*
%TD*%
D24*
%TO.P,C3,1*%
%TO.N,/OSC_IN*%
X92624589Y-144484411D03*
%TO.P,C3,2*%
%TO.N,GND*%
X93303411Y-143805589D03*
%TD*%
D12*
%TO.P,L6,1,1*%
%TO.N,Net-(C33-Pad1)*%
X62636655Y-135639865D03*
%TO.P,L6,2,2*%
%TO.N,Net-(U4-RX0)*%
X61957833Y-134961043D03*
%TD*%
%TO.P,C10,1*%
%TO.N,+3.3VA*%
X83397411Y-141817411D03*
%TO.P,C10,2*%
%TO.N,GND*%
X82718589Y-141138589D03*
%TD*%
D11*
%TO.P,C33,1*%
%TO.N,Net-(C33-Pad1)*%
X63414473Y-136417683D03*
%TO.P,C33,2*%
%TO.N,Net-(U3-LNA_P)*%
X64093295Y-137096505D03*
%TD*%
D27*
%TO.P,EX1,1,Pin_1*%
%TO.N,VBUS*%
X75382000Y-106693999D03*
%TO.P,EX1,2,Pin_2*%
%TO.N,FEM_VPC*%
X74382000Y-106693999D03*
%TO.P,EX1,3,Pin_3*%
%TO.N,/S1*%
X73382000Y-106693999D03*
%TO.P,EX1,4,Pin_4*%
%TO.N,/S2*%
X72382000Y-106693999D03*
%TO.P,EX1,5,Pin_5*%
%TO.N,/TX*%
X71382000Y-106693999D03*
%TO.P,EX1,6,Pin_6*%
%TO.N,/RX*%
X70382000Y-106693999D03*
%TO.P,EX1,7,Pin_7*%
%TO.N,/NRST*%
X69382000Y-106693999D03*
%TO.P,EX1,8,Pin_8*%
%TO.N,GND*%
X68382000Y-106693999D03*
D28*
%TO.P,EX1,MP*%
%TO.N,N/C*%
X78182000Y-103993999D03*
X65582000Y-103993999D03*
%TD*%
D29*
%TO.P,C20,1*%
%TO.N,GND*%
X63070800Y-138633200D03*
%TO.P,C20,2*%
%TO.N,Net-(U3-DCPL_VCO)*%
X64030800Y-138633200D03*
%TD*%
D11*
%TO.P,C37,1*%
%TO.N,Net-(C37-Pad1)*%
X61598623Y-133164992D03*
%TO.P,C37,2*%
%TO.N,GND*%
X62277445Y-133843814D03*
%TD*%
D12*
%TO.P,C39,1*%
%TO.N,GND*%
X61807411Y-127593411D03*
%TO.P,C39,2*%
%TO.N,+3V9*%
X61128589Y-126914589D03*
%TD*%
D30*
%TO.P,R15,1*%
%TO.N,GND*%
X55499000Y-116457001D03*
%TO.P,R15,2*%
%TO.N,FEM_BYP*%
X55499000Y-117476999D03*
%TD*%
D11*
%TO.P,C6,1*%
%TO.N,/OSC_OUT*%
X93259589Y-140503589D03*
%TO.P,C6,2*%
%TO.N,GND*%
X93938411Y-141182411D03*
%TD*%
D12*
%TO.P,R13,1*%
%TO.N,Net-(C37-Pad1)*%
X61578823Y-131708351D03*
%TO.P,R13,2*%
%TO.N,Net-(U4-TX)*%
X60900001Y-131029529D03*
%TD*%
D11*
%TO.P,C40,1*%
%TO.N,GND*%
X59604589Y-125390589D03*
%TO.P,C40,2*%
%TO.N,+3V9*%
X60283411Y-126069411D03*
%TD*%
D31*
%TO.P,C21,1*%
%TO.N,Net-(U3-LPF0)*%
X64465200Y-140349196D03*
%TO.P,C21,2*%
%TO.N,Net-(U3-LPF1)*%
X63505200Y-140349196D03*
%TD*%
D13*
%TO.P,C4,1*%
%TO.N,FEM_VPC*%
X87715411Y-147996589D03*
%TO.P,C4,2*%
%TO.N,GND*%
X87036589Y-148675411D03*
%TD*%
D23*
%TO.P,R11,1*%
%TO.N,FEM_VPC*%
X98931000Y-135509000D03*
%TO.P,R11,2*%
%TO.N,Net-(D5-A)*%
X99951000Y-135509000D03*
%TD*%
D24*
%TO.P,C14,1*%
%TO.N,FEM_VPC*%
X58334589Y-132927411D03*
%TO.P,C14,2*%
%TO.N,GND*%
X59013411Y-132248589D03*
%TD*%
D31*
%TO.P,C24,1*%
%TO.N,FEM_VPC*%
X62317043Y-139630776D03*
%TO.P,C24,2*%
%TO.N,GND*%
X61357043Y-139630776D03*
%TD*%
D32*
%TO.P,R5,1*%
%TO.N,Net-(D1-K)*%
X99823999Y-121158000D03*
%TO.P,R5,2*%
%TO.N,GND*%
X98804001Y-121158000D03*
%TD*%
D11*
%TO.P,C15,1*%
%TO.N,FEM_VPC*%
X71882000Y-145542000D03*
%TO.P,C15,2*%
%TO.N,GND*%
X72560822Y-146220822D03*
%TD*%
D33*
%TO.P,U1,1,VBAT*%
%TO.N,FEM_VPC*%
X86395359Y-146637087D03*
%TO.P,U1,2,PC13*%
%TO.N,unconnected-(U1-PC13-Pad2)*%
X86041806Y-146283534D03*
%TO.P,U1,3,PC14*%
%TO.N,unconnected-(U1-PC14-Pad3)*%
X85688252Y-145929980D03*
%TO.P,U1,4,PC15*%
%TO.N,unconnected-(U1-PC15-Pad4)*%
X85334699Y-145576427D03*
%TO.P,U1,5,PH0*%
%TO.N,/OSC_IN*%
X84981146Y-145222874D03*
%TO.P,U1,6,PH1*%
%TO.N,/OSC_OUT*%
X84627592Y-144869320D03*
%TO.P,U1,7,NRST*%
%TO.N,/NRST*%
X84274039Y-144515767D03*
%TO.P,U1,8,VSSA*%
%TO.N,GND*%
X83920485Y-144162213D03*
%TO.P,U1,9,VREF+*%
%TO.N,+3.3VA*%
X83566932Y-143808660D03*
%TO.P,U1,10,PA0*%
%TO.N,unconnected-(U1-PA0-Pad10)*%
X83213379Y-143455107D03*
%TO.P,U1,11,PA1*%
%TO.N,unconnected-(U1-PA1-Pad11)*%
X82859825Y-143101553D03*
%TO.P,U1,12,PA2*%
%TO.N,/CP2102N_SIG1*%
X82506272Y-142748000D03*
D34*
%TO.P,U1,13,PA3*%
%TO.N,/CP2102N_SIG2*%
X81534000Y-142748000D03*
%TO.P,U1,14,PA4*%
%TO.N,FEM_TR*%
X81180447Y-143101553D03*
%TO.P,U1,15,PA5*%
%TO.N,FEM_EN*%
X80826893Y-143455107D03*
%TO.P,U1,16,PA6*%
%TO.N,RADIO_MARC_INT*%
X80473340Y-143808660D03*
%TO.P,U1,17,PA7*%
%TO.N,RADIO_INT*%
X80119787Y-144162213D03*
%TO.P,U1,18,PB0*%
%TO.N,FEM_BYP*%
X79766233Y-144515767D03*
%TO.P,U1,19,PB1*%
%TO.N,unconnected-(U1-PB1-Pad19)*%
X79412680Y-144869320D03*
%TO.P,U1,20,PB2*%
%TO.N,unconnected-(U1-PB2-Pad20)*%
X79059126Y-145222874D03*
%TO.P,U1,21,PB10*%
%TO.N,unconnected-(U1-PB10-Pad21)*%
X78705573Y-145576427D03*
%TO.P,U1,22,VCAP1*%
%TO.N,Net-(U1-VCAP1)*%
X78352020Y-145929980D03*
%TO.P,U1,23,VSS*%
%TO.N,GND*%
X77998466Y-146283534D03*
%TO.P,U1,24,VDD*%
%TO.N,FEM_VPC*%
X77644913Y-146637087D03*
D33*
%TO.P,U1,25,PB12*%
%TO.N,RADIO_CS*%
X77644913Y-147609359D03*
%TO.P,U1,26,PB13*%
%TO.N,SPI2_SCK*%
X77998466Y-147962912D03*
%TO.P,U1,27,PB14*%
%TO.N,SPI2_MISO*%
X78352020Y-148316466D03*
%TO.P,U1,28,PB15*%
%TO.N,SPI_MOSI*%
X78705573Y-148670019D03*
%TO.P,U1,29,PA8*%
%TO.N,RADIO_RESET*%
X79059126Y-149023572D03*
%TO.P,U1,30,PA9*%
%TO.N,/TX*%
X79412680Y-149377126D03*
%TO.P,U1,31,PA10*%
%TO.N,/RX*%
X79766233Y-149730679D03*
%TO.P,U1,32,PA11*%
%TO.N,unconnected-(U1-PA11-Pad32)*%
X80119787Y-150084233D03*
%TO.P,U1,33,PA12*%
%TO.N,unconnected-(U1-PA12-Pad33)*%
X80473340Y-150437786D03*
%TO.P,U1,34,PA13*%
%TO.N,/SWDIO*%
X80826893Y-150791339D03*
%TO.P,U1,35,VSS*%
%TO.N,GND*%
X81180447Y-151144893D03*
%TO.P,U1,36,VDD*%
%TO.N,FEM_VPC*%
X81534000Y-151498446D03*
D34*
%TO.P,U1,37,PA14*%
%TO.N,/SWCLK*%
X82506272Y-151498446D03*
%TO.P,U1,38,PA15*%
%TO.N,unconnected-(U1-PA15-Pad38)*%
X82859825Y-151144893D03*
%TO.P,U1,39,PB3*%
%TO.N,unconnected-(U1-PB3-Pad39)*%
X83213379Y-150791339D03*
%TO.P,U1,40,PB4*%
%TO.N,unconnected-(U1-PB4-Pad40)*%
X83566932Y-150437786D03*
%TO.P,U1,41,PB5*%
%TO.N,unconnected-(U1-PB5-Pad41)*%
X83920485Y-150084233D03*
%TO.P,U1,42,PB6*%
%TO.N,/LED2*%
X84274039Y-149730679D03*
%TO.P,U1,43,PB7*%
%TO.N,/LED1*%
X84627592Y-149377126D03*
%TO.P,U1,44,BOOT0*%
%TO.N,unconnected-(U1-BOOT0-Pad44)*%
X84981146Y-149023572D03*
%TO.P,U1,45,PB8*%
%TO.N,/S1*%
X85334699Y-148670019D03*
%TO.P,U1,46,PB9*%
%TO.N,/S2*%
X85688252Y-148316466D03*
%TO.P,U1,47,VSS*%
%TO.N,GND*%
X86041806Y-147962912D03*
%TO.P,U1,48,VDD*%
%TO.N,FEM_VPC*%
X86395359Y-147609359D03*
D35*
%TO.P,U1,49,VSS*%
%TO.N,GND*%
X82020136Y-147123223D03*
%TD*%
D36*
%TO.P,D4,1,K*%
%TO.N,/TXT*%
X98956000Y-133350000D03*
%TO.P,D4,2,A*%
%TO.N,Net-(D4-A)*%
X99926000Y-133350000D03*
%TD*%
D37*
%TO.P,J4,1,Pin_1*%
%TO.N,+BATT*%
X56007000Y-104013000D03*
%TD*%
D36*
%TO.P,D5,1,K*%
%TO.N,/RXT*%
X98956000Y-134493000D03*
%TO.P,D5,2,A*%
%TO.N,Net-(D5-A)*%
X99926000Y-134493000D03*
%TD*%
D38*
%TO.P,P1,1,Pin_1*%
%TO.N,Net-(P1-Pin_1)*%
X47752000Y-126746000D03*
D39*
%TO.P,P1,2*%
%TO.N,N/C*%
X45212000Y-124206000D03*
X45212000Y-129286000D03*
X50292000Y-124206000D03*
X50292000Y-129286000D03*
%TD*%
D40*
%TO.P,J5,1,Pin_1*%
%TO.N,GND*%
X50927000Y-108839000D03*
%TD*%
D13*
%TO.P,C35,1*%
%TO.N,Net-(C34-Pad1)*%
X63734085Y-133903211D03*
%TO.P,C35,2*%
%TO.N,GND*%
X63055263Y-134582033D03*
%TD*%
D41*
%TO.P,D1,1,K*%
%TO.N,Net-(D1-K)*%
X99799000Y-120142000D03*
%TO.P,D1,2,A*%
%TO.N,FEM_VPC*%
X98829000Y-120142000D03*
%TD*%
%TO.P,D3,1,K*%
%TO.N,Net-(D3-K)*%
X99799000Y-119126000D03*
%TO.P,D3,2,A*%
%TO.N,/LED2*%
X98829000Y-119126000D03*
%TD*%
D42*
%TO.P,C1,1*%
%TO.N,FEM_VPC*%
X91440000Y-132728000D03*
%TO.P,C1,2*%
%TO.N,GND*%
X91440000Y-131178000D03*
%TD*%
D12*
%TO.P,L5,1,1*%
%TO.N,Net-(C30-Pad1)*%
X65190724Y-135320253D03*
%TO.P,L5,2,2*%
%TO.N,Net-(C34-Pad1)*%
X64511902Y-134641431D03*
%TD*%
D11*
%TO.P,C30,1*%
%TO.N,Net-(C30-Pad1)*%
X65948743Y-136078272D03*
%TO.P,C30,2*%
%TO.N,Net-(U3-PA)*%
X66627565Y-136757094D03*
%TD*%
D24*
%TO.P,C28,1*%
%TO.N,GND*%
X64389000Y-144780000D03*
%TO.P,C28,2*%
%TO.N,FEM_VPC*%
X65067822Y-144101178D03*
%TD*%
D12*
%TO.P,R8,1*%
%TO.N,Net-(U3-RBIAS)*%
X72514937Y-136897101D03*
%TO.P,R8,2*%
%TO.N,GND*%
X71836115Y-136218279D03*
%TD*%
D31*
%TO.P,C13,1*%
%TO.N,FEM_VPC*%
X91793000Y-133985000D03*
%TO.P,C13,2*%
%TO.N,GND*%
X90833000Y-133985000D03*
%TD*%
D11*
%TO.P,C41,1*%
%TO.N,GND*%
X60366589Y-124628589D03*
%TO.P,C41,2*%
%TO.N,+3V9*%
X61045411Y-125307411D03*
%TD*%
%TO.P,C31,1*%
%TO.N,Net-(U3-XOSC_Q1)*%
X61723748Y-149030640D03*
%TO.P,C31,2*%
%TO.N,GND*%
X62402570Y-149709462D03*
%TD*%
D43*
%TO.P,C43,1*%
%TO.N,GND*%
X65558983Y-123417017D03*
%TO.P,C43,2*%
%TO.N,+3V9*%
X63473017Y-125502983D03*
%TD*%
D11*
%TO.P,C44,1*%
%TO.N,GND*%
X61128589Y-123866589D03*
%TO.P,C44,2*%
%TO.N,+3V9*%
X61807411Y-124545411D03*
%TD*%
D23*
%TO.P,R4,1*%
%TO.N,GND*%
X91311000Y-125095000D03*
%TO.P,R4,2*%
%TO.N,Net-(J1-CC2)*%
X92331000Y-125095000D03*
%TD*%
D32*
%TO.P,R6,1*%
%TO.N,Net-(D2-K)*%
X99442999Y-116078000D03*
%TO.P,R6,2*%
%TO.N,GND*%
X98423001Y-116078000D03*
%TD*%
D13*
%TO.P,C9,1*%
%TO.N,Net-(U1-VCAP1)*%
X78063411Y-144186589D03*
%TO.P,C9,2*%
%TO.N,GND*%
X77384589Y-144865411D03*
%TD*%
D12*
%TO.P,C42,1*%
%TO.N,GND*%
X62569411Y-126831411D03*
%TO.P,C42,2*%
%TO.N,+3V9*%
X61890589Y-126152589D03*
%TD*%
D44*
%TO.P,FB1,1*%
%TO.N,+3.3VA*%
X83917694Y-139035694D03*
%TO.P,FB1,2*%
%TO.N,FEM_VPC*%
X82804000Y-137922000D03*
%TD*%
D23*
%TO.P,R12,1*%
%TO.N,FEM_VPC*%
X90295000Y-135763000D03*
%TO.P,R12,2*%
%TO.N,Net-(U2-~{RST})*%
X91315000Y-135763000D03*
%TD*%
D41*
%TO.P,D2,1,K*%
%TO.N,Net-(D2-K)*%
X99799000Y-117094000D03*
%TO.P,D2,2,A*%
%TO.N,/LED1*%
X98829000Y-117094000D03*
%TD*%
D24*
%TO.P,C19,1*%
%TO.N,FEM_VPC*%
X70419073Y-137635320D03*
%TO.P,C19,2*%
%TO.N,GND*%
X71097895Y-136956498D03*
%TD*%
D45*
%TO.P,U4,1,GND*%
%TO.N,GND*%
X56882650Y-124542019D03*
D46*
%TO.P,U4,2,TR*%
%TO.N,FEM_TR*%
X56184729Y-125239957D03*
%TO.P,U4,3,EN*%
%TO.N,FEM_EN*%
X55654398Y-125770288D03*
%TO.P,U4,4,BYP*%
%TO.N,FEM_BYP*%
X55124070Y-126300616D03*
%TO.P,U4,5,VPC*%
%TO.N,FEM_VPC*%
X54593738Y-126830948D03*
%TO.P,U4,6,GND*%
%TO.N,GND*%
X54063410Y-127361276D03*
%TO.P,U4,7,ANT*%
%TO.N,Net-(P1-Pin_1)*%
X53533079Y-127891607D03*
D45*
%TO.P,U4,8,GND*%
%TO.N,GND*%
X52835860Y-128588810D03*
D47*
%TO.P,U4,9,GND*%
X53521190Y-129275558D03*
%TO.P,U4,10,RX1*%
%TO.N,Net-(U4-RX1)*%
X54051520Y-129805889D03*
%TO.P,U4,11,GND*%
%TO.N,GND*%
X54581849Y-130336218D03*
%TO.P,U4,12,GND*%
X55112180Y-130866549D03*
%TO.P,U4,13,RX2*%
%TO.N,Net-(U4-RX1)*%
X55642509Y-131396878D03*
%TO.P,U4,14,RBIAS*%
%TO.N,Net-(U4-RBIAS)*%
X56172840Y-131927208D03*
D45*
%TO.P,U4,15,GND*%
%TO.N,GND*%
X56859588Y-132612538D03*
D46*
%TO.P,U4,16,VDD1*%
%TO.N,FEM_VPC*%
X57556791Y-131915319D03*
%TO.P,U4,17,VCC_RX*%
X58087122Y-131384988D03*
%TO.P,U4,18,RX0*%
%TO.N,Net-(U4-RX0)*%
X58617450Y-130854660D03*
%TO.P,U4,19,GND*%
%TO.N,GND*%
X59147782Y-130324328D03*
%TO.P,U4,20,TX*%
%TO.N,Net-(U4-TX)*%
X59678110Y-129794000D03*
%TO.P,U4,21,GND*%
%TO.N,GND*%
X60208441Y-129263669D03*
D45*
%TO.P,U4,22,GND*%
X60906379Y-128565748D03*
D47*
%TO.P,U4,23,VDD2*%
%TO.N,+3V9*%
X60220330Y-127879718D03*
%TO.P,U4,24,VCC_TX1*%
X59690000Y-127349387D03*
%TO.P,U4,25,VCC_TX2*%
X59159671Y-126819058D03*
%TO.P,U4,26,VCC_TX3*%
X58629340Y-126288727D03*
%TO.P,U4,27,GND*%
%TO.N,GND*%
X58099011Y-125758398D03*
%TO.P,U4,28,GND*%
X57568680Y-125228068D03*
D48*
%TO.P,U4,29,EPAD*%
X56870760Y-128577638D03*
%TD*%
D11*
%TO.P,C27,1*%
%TO.N,FEM_VPC*%
X70938089Y-133883412D03*
%TO.P,C27,2*%
%TO.N,GND*%
X71616911Y-134562234D03*
%TD*%
D24*
%TO.P,C22,1*%
%TO.N,FEM_VPC*%
X70239467Y-136018874D03*
%TO.P,C22,2*%
%TO.N,GND*%
X70918289Y-135340052D03*
%TD*%
D13*
%TO.P,C38,1*%
%TO.N,FEM_VPC*%
X57489411Y-133772589D03*
%TO.P,C38,2*%
%TO.N,GND*%
X56810589Y-134451411D03*
%TD*%
D24*
%TO.P,C5,1*%
%TO.N,FEM_VPC*%
X76114589Y-146389411D03*
%TO.P,C5,2*%
%TO.N,GND*%
X76793411Y-145710589D03*
%TD*%
%TO.P,C23,1*%
%TO.N,GND*%
X63668589Y-144103411D03*
%TO.P,C23,2*%
%TO.N,Net-(U3-DCPL_PFD_CHP)*%
X64347411Y-143424589D03*
%TD*%
D12*
%TO.P,L4,1,1*%
%TO.N,Net-(U3-LNA_P)*%
X64811715Y-136378085D03*
%TO.P,L4,2,2*%
%TO.N,GND*%
X64132893Y-135699263D03*
%TD*%
D13*
%TO.P,L2,1,1*%
%TO.N,Net-(U3-LNA_P)*%
X65530136Y-137136104D03*
%TO.P,L2,2,2*%
%TO.N,Net-(U3-LNA_N)*%
X64851314Y-137814926D03*
%TD*%
D11*
%TO.P,C12,1*%
%TO.N,FEM_VPC*%
X81617178Y-138513178D03*
%TO.P,C12,2*%
%TO.N,GND*%
X82296000Y-139192000D03*
%TD*%
D23*
%TO.P,R14,1*%
%TO.N,FEM_EN*%
X57275001Y-117221000D03*
%TO.P,R14,2*%
%TO.N,FEM_VPC*%
X58294999Y-117221000D03*
%TD*%
D49*
%TO.P,X1,1,1*%
%TO.N,Net-(U3-XOSC_Q1)*%
X62174175Y-147414901D03*
%TO.P,X1,2,2*%
%TO.N,GND*%
X63659099Y-148899825D03*
%TO.P,X1,3,3*%
%TO.N,Net-(U3-XOSC_Q2)*%
X64825825Y-147733099D03*
%TO.P,X1,4,4*%
%TO.N,GND*%
X63340901Y-146248175D03*
%TD*%
D50*
%TO.P,J1,A1/B12,GND*%
%TO.N,GND*%
X93675000Y-129946000D03*
%TO.P,J1,A4/B9,VBUS*%
%TO.N,VBUS*%
X93675000Y-129146000D03*
D51*
%TO.P,J1,A5,CC1*%
%TO.N,Net-(J1-CC1)*%
X93675000Y-127996000D03*
%TO.P,J1,A6,DP1*%
%TO.N,/D+*%
X93675000Y-126996000D03*
%TO.P,J1,A7,DN1*%
%TO.N,/D-*%
X93675000Y-126496000D03*
%TO.P,J1,A8,SBU1*%
%TO.N,unconnected-(J1-SBU1-PadA8)*%
X93675000Y-125496000D03*
D50*
%TO.P,J1,B1/A12,GND*%
%TO.N,GND*%
X93675000Y-123546000D03*
%TO.P,J1,B4/A9,VBUS*%
%TO.N,VBUS*%
X93675000Y-124346000D03*
D51*
%TO.P,J1,B5,CC2*%
%TO.N,Net-(J1-CC2)*%
X93675000Y-124996000D03*
%TO.P,J1,B6,DP2*%
%TO.N,/D+*%
X93675000Y-125996000D03*
%TO.P,J1,B7,DN2*%
%TO.N,/D-*%
X93675000Y-127496000D03*
%TO.P,J1,B8,SBU2*%
%TO.N,unconnected-(J1-SBU2-PadB8)*%
X93675000Y-128496000D03*
D52*
%TO.P,J1,S1,SHIELD*%
%TO.N,GND*%
X94255000Y-131071000D03*
%TO.P,J1,S2,SHIELD*%
X94255000Y-122421000D03*
%TO.P,J1,S3,SHIELD*%
X98425000Y-131071000D03*
%TO.P,J1,S4,SHIELD*%
X98425000Y-122421000D03*
%TD*%
D12*
%TO.P,L3,1,1*%
%TO.N,Net-(U3-LNA_N)*%
X62476849Y-136916900D03*
%TO.P,L3,2,2*%
%TO.N,Net-(C33-Pad1)*%
X61798027Y-136238078D03*
%TD*%
%TO.P,C18,1*%
%TO.N,FEM_VPC*%
X68224213Y-146256366D03*
%TO.P,C18,2*%
%TO.N,GND*%
X67545391Y-145577544D03*
%TD*%
D24*
%TO.P,C17,1*%
%TO.N,FEM_VPC*%
X71496703Y-138712951D03*
%TO.P,C17,2*%
%TO.N,GND*%
X72175525Y-138034129D03*
%TD*%
%TO.P,C25,1*%
%TO.N,GND*%
X65684400Y-144881600D03*
%TO.P,C25,2*%
%TO.N,Net-(U3-DCPL_XOSC)*%
X66363222Y-144202778D03*
%TD*%
D11*
%TO.P,C34,1*%
%TO.N,Net-(C34-Pad1)*%
X65230323Y-133923010D03*
%TO.P,C34,2*%
%TO.N,Net-(C30-Pad1)*%
X65909145Y-134601832D03*
%TD*%
D32*
%TO.P,R7,1*%
%TO.N,Net-(D3-K)*%
X99823999Y-118110000D03*
%TO.P,R7,2*%
%TO.N,GND*%
X98804001Y-118110000D03*
%TD*%
D53*
%TO.P,Y1,1,1*%
%TO.N,/OSC_IN*%
X91263223Y-143872858D03*
%TO.P,Y1,2,2*%
%TO.N,GND*%
X92818858Y-142317223D03*
%TO.P,Y1,3,3*%
%TO.N,/OSC_OUT*%
X91616777Y-141115142D03*
%TO.P,Y1,4,4*%
%TO.N,GND*%
X90061142Y-142670777D03*
%TD*%
D54*
%TO.P,C2,1*%
%TO.N,FEM_VPC*%
X81239992Y-137073008D03*
%TO.P,C2,2*%
%TO.N,GND*%
X82336008Y-135976992D03*
%TD*%
D55*
%TO.P,J2,1,Pin_1*%
%TO.N,FEM_VPC*%
X88138000Y-104013000D03*
%TD*%
D56*
%TO.P,J3,1,Pin_1*%
%TO.N,GND*%
X93218000Y-108839000D03*
%TD*%
D57*
%TO.N,/NRST*%
X84328000Y-129413000D03*
X85852000Y-143637000D03*
%TO.N,GND*%
X67183000Y-135128000D03*
X60706000Y-132334000D03*
X62280800Y-143459200D03*
X63754000Y-127762000D03*
X52984400Y-133248400D03*
X52628800Y-121005600D03*
X53340000Y-126365000D03*
X66040000Y-125476000D03*
X78130400Y-114909600D03*
X50038000Y-121920000D03*
X94615000Y-142113000D03*
X63754000Y-121666000D03*
X44958000Y-121920000D03*
X59817000Y-134239000D03*
X52578000Y-132283200D03*
X52324000Y-131318000D03*
X56286400Y-120548400D03*
X67437000Y-123952000D03*
X51308000Y-131445000D03*
X55499000Y-122682000D03*
X64897000Y-145542000D03*
X56261000Y-123317000D03*
X65786000Y-132969000D03*
X92456000Y-122301000D03*
X68199000Y-135255000D03*
X55727600Y-121615200D03*
X73152000Y-147066000D03*
X61061600Y-146050000D03*
X62738000Y-131318000D03*
X67802864Y-147376121D03*
X57277000Y-123317000D03*
X49022000Y-121920000D03*
X67056000Y-134239000D03*
X54356000Y-134772400D03*
X95148400Y-140462000D03*
X81178400Y-111455200D03*
X53848000Y-113131600D03*
X53340000Y-106273600D03*
X57404000Y-135483600D03*
X61874400Y-145288000D03*
X54457600Y-117602000D03*
X58064400Y-119126000D03*
X64897000Y-132842000D03*
X44069000Y-121920000D03*
X69596000Y-133858000D03*
X63872091Y-150290624D03*
X61468000Y-129921000D03*
X62738000Y-121920000D03*
X61163200Y-141833600D03*
X94488000Y-115062000D03*
X62992000Y-123444000D03*
X71120000Y-132715000D03*
X83312000Y-135128000D03*
X91440000Y-147320000D03*
X48260000Y-131445000D03*
X66802000Y-124714000D03*
X46228000Y-131445000D03*
X66421000Y-122301000D03*
X46990000Y-121920000D03*
X53644800Y-119329200D03*
X51054000Y-121920000D03*
X61341000Y-119888000D03*
X60198000Y-136017000D03*
X52578000Y-125730000D03*
X64770000Y-121539000D03*
X52451000Y-123825000D03*
X64008000Y-132588000D03*
X54991000Y-115443000D03*
X45212000Y-131445000D03*
X59944000Y-137033000D03*
X45974000Y-121920000D03*
X67437000Y-136017000D03*
X60833000Y-122555000D03*
X54356000Y-118618000D03*
X60452000Y-135001000D03*
X56997600Y-119634000D03*
X58166000Y-123952000D03*
X73279000Y-135763000D03*
X47244000Y-131445000D03*
X62382400Y-144373600D03*
X60880202Y-138553145D03*
X60299600Y-148031200D03*
X92537038Y-130670157D03*
X59182000Y-133604000D03*
X85394800Y-108559600D03*
X54356000Y-116586000D03*
X88392000Y-145288000D03*
X60401200Y-146913600D03*
X50292000Y-131445000D03*
X53035200Y-120091200D03*
X91313000Y-126619000D03*
X94488000Y-115062000D03*
X62103000Y-130683000D03*
X53797200Y-115773200D03*
X70231000Y-133096000D03*
X59944000Y-123063000D03*
X61976000Y-142494000D03*
X52451000Y-122809000D03*
X73914000Y-136779000D03*
X60198000Y-137922000D03*
X48006000Y-121920000D03*
X55270400Y-135178800D03*
X44196000Y-131445000D03*
X72644000Y-135001000D03*
X56286400Y-135483600D03*
X68834000Y-134493000D03*
X68326000Y-103124000D03*
X77470000Y-139319000D03*
X53848000Y-132080000D03*
X63373000Y-131953000D03*
X99966677Y-122378576D03*
X87884000Y-139039600D03*
X94869000Y-132969000D03*
X71882000Y-133223000D03*
X59055000Y-123444000D03*
X62992000Y-128524000D03*
X52070000Y-121920000D03*
X62230000Y-129159000D03*
X69342000Y-122224800D03*
X61849000Y-122174000D03*
X65786000Y-121666000D03*
X49276000Y-131445000D03*
X53543200Y-134061200D03*
X52451000Y-124841000D03*
X67183000Y-122936000D03*
X66421000Y-133604000D03*
X72517000Y-133985000D03*
%TO.N,VBUS*%
X73616471Y-119175628D03*
X76454000Y-116332000D03*
%TO.N,/SWCLK*%
X83372763Y-152508310D03*
%TO.N,+3V9*%
X64897000Y-127000000D03*
%TO.N,/LED1*%
X92329000Y-117856000D03*
X85598000Y-150749000D03*
X94996000Y-117856000D03*
X95885000Y-120904000D03*
%TO.N,/LED2*%
X96647240Y-121925101D03*
X85090000Y-151765000D03*
%TO.N,FEM_EN*%
X78740000Y-141097000D03*
X77978000Y-137033000D03*
%TO.N,FEM_BYP*%
X77470000Y-142748000D03*
X78740000Y-135001000D03*
%TO.N,/CP2102N_SIG1*%
X84328000Y-135890000D03*
X89408000Y-133731000D03*
X81407000Y-141224000D03*
X95885000Y-132969000D03*
%TO.N,SPI2_SCK*%
X76708000Y-148844000D03*
X73914000Y-148844000D03*
%TO.N,RADIO_MARC_INT*%
X72136000Y-148590000D03*
X77724000Y-140716000D03*
%TO.N,RADIO_INT*%
X76708000Y-140335000D03*
X71882000Y-147066000D03*
%TO.N,/S1*%
X85598000Y-127127000D03*
X86995000Y-151003000D03*
%TO.N,/S2*%
X87376000Y-149987000D03*
X84328000Y-125857000D03*
%TO.N,/TX*%
X98044000Y-137414000D03*
X96266000Y-137160000D03*
X79248000Y-153924000D03*
X77470000Y-151384000D03*
X87503000Y-130429000D03*
%TO.N,/RX*%
X96012000Y-138557000D03*
X80391000Y-153924000D03*
X86360000Y-130683000D03*
X78740000Y-151257000D03*
%TO.N,/CP2102N_SIG2*%
X89152686Y-135032539D03*
X81026000Y-139827000D03*
X84201000Y-137160000D03*
X96774000Y-133604000D03*
%TO.N,FEM_VPC*%
X68782827Y-137475515D03*
X90932000Y-136906000D03*
X59944000Y-120269000D03*
X88747600Y-123444000D03*
X87376000Y-115697000D03*
X76200000Y-147320000D03*
X69333380Y-145781422D03*
X71882000Y-144018000D03*
X58293000Y-134747000D03*
X59182000Y-117094000D03*
X97917000Y-132461000D03*
X74930000Y-132334000D03*
X53086000Y-121970800D03*
X65786000Y-143383000D03*
X97738924Y-120980164D03*
X88646000Y-147447000D03*
X75565000Y-102997000D03*
X73406000Y-138176000D03*
X76708000Y-130937000D03*
X98298000Y-136144000D03*
X92710000Y-132334000D03*
X62855858Y-141247222D03*
X82042000Y-152273000D03*
%TO.N,FEM_TR*%
X79883000Y-141097000D03*
X76897275Y-134993668D03*
%TD*%
D58*
%TO.N,/NRST*%
X70482000Y-110614000D02*
X69382000Y-109514000D01*
X84274039Y-144515767D02*
X84811463Y-143978343D01*
X85510657Y-143978343D02*
X85852000Y-143637000D01*
X85852000Y-143637000D02*
X85852000Y-143510000D01*
X84328000Y-129413000D02*
X83820000Y-128905000D01*
X70482000Y-114680792D02*
X70482000Y-110614000D01*
X83820000Y-128018792D02*
X70482000Y-114680792D01*
X84811463Y-143978343D02*
X85510657Y-143978343D01*
X69382000Y-109514000D02*
X69382000Y-106693999D01*
X83820000Y-128905000D02*
X83820000Y-128018792D01*
%TO.N,GND*%
X90103300Y-142628619D02*
X92507462Y-142628619D01*
X72560822Y-146220822D02*
X72560822Y-146474822D01*
X87036589Y-148675411D02*
X87080411Y-148675411D01*
D59*
X61636748Y-128565748D02*
X62230000Y-129159000D01*
D58*
X68382000Y-103180000D02*
X68326000Y-103124000D01*
D60*
X96278000Y-118606000D02*
X94685339Y-118606000D01*
D58*
X55499000Y-116457001D02*
X55499000Y-115951000D01*
D59*
X61128589Y-123866589D02*
X60366589Y-124628589D01*
D60*
X87884000Y-139039600D02*
X87782400Y-138836400D01*
D59*
X55817512Y-133654614D02*
X56859588Y-132612538D01*
X59147782Y-130324328D02*
X59444621Y-130621167D01*
D58*
X65684400Y-144881600D02*
X65557400Y-144881600D01*
D59*
X59147782Y-130324328D02*
X57401092Y-128577638D01*
D60*
X63372046Y-142824070D02*
X61357044Y-140809068D01*
D58*
X77384589Y-145669657D02*
X77490466Y-145775534D01*
D59*
X63018983Y-123417017D02*
X65558983Y-123417017D01*
D58*
X76793411Y-145710589D02*
X77425521Y-145710589D01*
X67545391Y-145577544D02*
X67326188Y-145796747D01*
X68326000Y-103124000D02*
X68382000Y-103068000D01*
D59*
X56644062Y-134284884D02*
X56810589Y-134451411D01*
X52835860Y-128588810D02*
X52835860Y-128590228D01*
X60706000Y-132094682D02*
X60706000Y-132334000D01*
X61578161Y-123417017D02*
X62965017Y-123417017D01*
D58*
X64389000Y-144780000D02*
X64389000Y-145034000D01*
X67545390Y-145577544D02*
X68296691Y-144826243D01*
D60*
X94107000Y-118027661D02*
X94107000Y-115443000D01*
D59*
X59444621Y-130833303D02*
X60706000Y-132094682D01*
X55112180Y-130866549D02*
X55112180Y-130336218D01*
D58*
X93241999Y-137212000D02*
X93242000Y-137412000D01*
X71616911Y-134562235D02*
X70918290Y-135260856D01*
X82336008Y-135976992D02*
X82463008Y-135976992D01*
X65557400Y-144881600D02*
X64897000Y-145542000D01*
X81180447Y-151144893D02*
X81180447Y-151074181D01*
D60*
X98423001Y-116078000D02*
X95504000Y-116078000D01*
D58*
X91440000Y-131178000D02*
X92029195Y-131178000D01*
D59*
X60906379Y-128565748D02*
X60906362Y-128565748D01*
X61128589Y-123866589D02*
X61578161Y-123417017D01*
X59013411Y-132248589D02*
X59182000Y-132417178D01*
X53848000Y-131826000D02*
X53848000Y-132080000D01*
X53054678Y-129742070D02*
X53054678Y-131032678D01*
X53848000Y-132080000D02*
X53848000Y-132758822D01*
X52835860Y-128590228D02*
X53521190Y-129275558D01*
D58*
X91440000Y-147320000D02*
X90424000Y-147320000D01*
D59*
X54063410Y-127361276D02*
X55279772Y-128577638D01*
D58*
X64345178Y-144780000D02*
X63668589Y-144103411D01*
X73237411Y-145373411D02*
X73237411Y-145544233D01*
X87376000Y-148971000D02*
X89154000Y-148971000D01*
D60*
X63434272Y-142824070D02*
X63372046Y-142824070D01*
D59*
X62061411Y-127593411D02*
X62992000Y-128524000D01*
X50927000Y-108839000D02*
X53848000Y-111760000D01*
D60*
X72055317Y-135999076D02*
X71836114Y-136218279D01*
D58*
X90061142Y-142670777D02*
X90103300Y-142628619D01*
X83312000Y-135128000D02*
X83185000Y-135128000D01*
X87036589Y-148675411D02*
X86754305Y-148675411D01*
X91311000Y-126617000D02*
X91313000Y-126619000D01*
X62058242Y-134063017D02*
X61598622Y-134063017D01*
D60*
X72268864Y-138034129D02*
X73226884Y-137076108D01*
X61357043Y-139630776D02*
X60860403Y-139134136D01*
D59*
X93218000Y-108839000D02*
X85674200Y-108839000D01*
X53521190Y-129275558D02*
X53054678Y-129742070D01*
D58*
X73237411Y-145544233D02*
X72560822Y-146220822D01*
D60*
X96774000Y-118110000D02*
X96278000Y-118606000D01*
D59*
X56644062Y-132828064D02*
X56644062Y-134284884D01*
X54219110Y-128577638D02*
X56870760Y-128577638D01*
X60366589Y-124628589D02*
X59604589Y-125390589D01*
D58*
X94869000Y-132969000D02*
X94615000Y-132969000D01*
D59*
X54524589Y-133435411D02*
X54743792Y-133654614D01*
D58*
X89154000Y-148971000D02*
X89789000Y-148971000D01*
X82296000Y-139192000D02*
X82972589Y-139868589D01*
D59*
X54581849Y-130336218D02*
X55112180Y-130866549D01*
D58*
X77490466Y-145775534D02*
X77998466Y-146283534D01*
X64389000Y-145034000D02*
X64897000Y-145542000D01*
X65136246Y-149889067D02*
X64273648Y-149889067D01*
X63434272Y-143869094D02*
X63434272Y-142824070D01*
X81169152Y-138963178D02*
X77825822Y-138963178D01*
X92029195Y-131178000D02*
X92537038Y-130670157D01*
X90424000Y-147320000D02*
X88392000Y-145288000D01*
X60911676Y-133376071D02*
X60706000Y-132334000D01*
X77425521Y-145710589D02*
X77490466Y-145775534D01*
D60*
X94685339Y-118606000D02*
X94107000Y-118027661D01*
X60860403Y-139134136D02*
X60860403Y-137175701D01*
D59*
X58099011Y-125758398D02*
X58466820Y-125390589D01*
D58*
X82020136Y-150234492D02*
X82020136Y-147123223D01*
X92818858Y-142317223D02*
X94410777Y-142317223D01*
X67326188Y-145796747D02*
X67326188Y-146828188D01*
X81180447Y-151074181D02*
X82020136Y-150234492D01*
X89789000Y-148971000D02*
X91440000Y-147320000D01*
D60*
X98804001Y-121158000D02*
X98804001Y-121283001D01*
D59*
X62569411Y-126831411D02*
X62823411Y-126831411D01*
D58*
X87713178Y-145288000D02*
X88392000Y-145288000D01*
X68296691Y-144826243D02*
X68296691Y-144387837D01*
D59*
X78130400Y-114909600D02*
X78130400Y-114350800D01*
D60*
X93726000Y-139039600D02*
X87884000Y-139039600D01*
D58*
X82296000Y-139192000D02*
X82287875Y-139200125D01*
D60*
X63070800Y-138633200D02*
X62044620Y-138633200D01*
D58*
X63872091Y-150290624D02*
X63872091Y-149112817D01*
X82020136Y-146062562D02*
X82020136Y-147123223D01*
D59*
X61807411Y-127664716D02*
X60906379Y-128565748D01*
D58*
X62277445Y-133843814D02*
X63015664Y-134582034D01*
D59*
X61807411Y-127593411D02*
X61807411Y-127664716D01*
X56882650Y-124542019D02*
X56882650Y-124542037D01*
D58*
X63015664Y-134582034D02*
X63055262Y-134582034D01*
D60*
X95504000Y-116078000D02*
X94488000Y-115062000D01*
D58*
X71836114Y-136218279D02*
X71097895Y-136956498D01*
D59*
X59182000Y-132417178D02*
X59182000Y-133604000D01*
D58*
X85971094Y-147962912D02*
X85131405Y-147123223D01*
X90640000Y-133792000D02*
X90640000Y-131978000D01*
X65769138Y-144799726D02*
X65639274Y-144799726D01*
X91311000Y-125095000D02*
X91311000Y-126617000D01*
X62402570Y-149709462D02*
X63290929Y-149709462D01*
X77825822Y-138963178D02*
X77470000Y-139319000D01*
D60*
X95148400Y-140462000D02*
X94030800Y-139344400D01*
X72550293Y-135999076D02*
X72055317Y-135999076D01*
D59*
X57401092Y-128577638D02*
X56870760Y-128577638D01*
D58*
X92456000Y-122301000D02*
X92456000Y-122428000D01*
X82718589Y-141138589D02*
X82718589Y-140122589D01*
D59*
X85674200Y-108839000D02*
X85394800Y-108559600D01*
D58*
X83920485Y-144162213D02*
X82020136Y-146062562D01*
X82463008Y-135976992D02*
X83312000Y-135128000D01*
X92507462Y-142628619D02*
X92818858Y-142317223D01*
X91311000Y-128016000D02*
X91184000Y-128143000D01*
X90833000Y-133985000D02*
X90640000Y-133792000D01*
D59*
X58099011Y-125758398D02*
X56870760Y-126986649D01*
D58*
X94615000Y-132989001D02*
X94869000Y-132969000D01*
D59*
X53340000Y-106426000D02*
X50927000Y-108839000D01*
D60*
X94107000Y-115443000D02*
X94488000Y-115062000D01*
D58*
X70918290Y-135260856D02*
X70918290Y-135340052D01*
X64389000Y-144780000D02*
X64490600Y-144881600D01*
X93303411Y-143805589D02*
X93303411Y-142801776D01*
D59*
X60208441Y-129263669D02*
X59522410Y-128577638D01*
D60*
X73226884Y-136675668D02*
X72550293Y-135999076D01*
D59*
X53848000Y-132758822D02*
X54524589Y-133435411D01*
X53521190Y-129275558D02*
X54219110Y-128577638D01*
D58*
X70918290Y-135340052D02*
X71796516Y-136218279D01*
X67326188Y-146828188D02*
X67818000Y-147320000D01*
X93675000Y-123546000D02*
X93574000Y-123546000D01*
X64273648Y-149889067D02*
X63872091Y-150290624D01*
X80601178Y-152483178D02*
X80601178Y-151724162D01*
D60*
X60860404Y-137175701D02*
X60860404Y-137670677D01*
D59*
X55112180Y-130336218D02*
X56870760Y-128577638D01*
D58*
X78838155Y-147123223D02*
X82020136Y-147123223D01*
D59*
X62569411Y-126831411D02*
X61807411Y-127593411D01*
D58*
X91311000Y-126621000D02*
X91311000Y-128016000D01*
D59*
X54581849Y-130336218D02*
X55112180Y-130336218D01*
D58*
X86041806Y-147962912D02*
X85971094Y-147962912D01*
X71796516Y-136218279D02*
X71836114Y-136218279D01*
D60*
X73226884Y-137076108D02*
X73226884Y-136675668D01*
D59*
X62992000Y-123444000D02*
X63018983Y-123417017D01*
D58*
X80601178Y-151724162D02*
X81180447Y-151144893D01*
X68382000Y-106693999D02*
X68382000Y-103180000D01*
D59*
X60810669Y-129263669D02*
X61468000Y-129921000D01*
D60*
X61079606Y-136956498D02*
X60860404Y-137175701D01*
X98835386Y-121283001D02*
X99822000Y-122269615D01*
D59*
X56882650Y-124542019D02*
X57575981Y-124542019D01*
D58*
X64389000Y-145200076D02*
X63340901Y-146248175D01*
X87080411Y-148675411D02*
X87376000Y-148971000D01*
D59*
X54743792Y-133654614D02*
X55817512Y-133654614D01*
D60*
X61357044Y-140809068D02*
X61357044Y-139630776D01*
D59*
X60208441Y-129263669D02*
X60810669Y-129263669D01*
D58*
X82287875Y-139200125D02*
X81406099Y-139200125D01*
D59*
X57575981Y-124542019D02*
X58166000Y-123952000D01*
X60906362Y-128565748D02*
X60208441Y-129263669D01*
X59444621Y-130621167D02*
X59444621Y-130833303D01*
D58*
X93938411Y-141197670D02*
X92818858Y-142317223D01*
X63668589Y-144103411D02*
X63434272Y-143869094D01*
D59*
X55279772Y-128577638D02*
X56870760Y-128577638D01*
D60*
X98804001Y-118110000D02*
X96774000Y-118110000D01*
D59*
X56870760Y-126986649D02*
X56870760Y-128577638D01*
D60*
X61357043Y-139320777D02*
X61357043Y-139630776D01*
D58*
X55245000Y-115697000D02*
X54991000Y-115443000D01*
X64132893Y-135659664D02*
X64132893Y-135699262D01*
X61598622Y-134063017D02*
X60911676Y-133376071D01*
X64490600Y-144881600D02*
X65684400Y-144881600D01*
X55499000Y-115951000D02*
X55245000Y-115697000D01*
X91313000Y-126619000D02*
X91311000Y-126621000D01*
D59*
X78130400Y-114350800D02*
X81127600Y-111353600D01*
D58*
X62277445Y-133843814D02*
X62058242Y-134063017D01*
X85131405Y-147123223D02*
X82020136Y-147123223D01*
D59*
X59522410Y-128577638D02*
X56870760Y-128577638D01*
X53340000Y-106273600D02*
X53340000Y-106426000D01*
X62823411Y-126831411D02*
X63754000Y-127762000D01*
D58*
X62402571Y-149709462D02*
X63212208Y-148899825D01*
X92537038Y-130670157D02*
X92950843Y-130670157D01*
D59*
X61807411Y-127593411D02*
X62061411Y-127593411D01*
D58*
X63290929Y-149709462D02*
X63872091Y-150290624D01*
X93303411Y-142801776D02*
X92818858Y-142317223D01*
X87290589Y-145710589D02*
X87713178Y-145288000D01*
D60*
X94030800Y-139344400D02*
X93726000Y-139039600D01*
D59*
X57568680Y-125228068D02*
X57568680Y-124549320D01*
D58*
X63055262Y-134582034D02*
X64132893Y-135659664D01*
D59*
X60906379Y-128565748D02*
X61636748Y-128565748D01*
X53848000Y-111760000D02*
X53848000Y-113131600D01*
X57568680Y-124549320D02*
X58166000Y-123952000D01*
D60*
X98804001Y-121283001D02*
X98835386Y-121283001D01*
D58*
X81406099Y-139200125D02*
X81169152Y-138963178D01*
X60706000Y-132334000D02*
X60911676Y-132382324D01*
D59*
X62965017Y-123417017D02*
X62992000Y-123444000D01*
D58*
X93241999Y-137212000D02*
X93241999Y-138555599D01*
X77384589Y-144865411D02*
X77384589Y-145669657D01*
X72560822Y-146474822D02*
X73152000Y-147066000D01*
D60*
X72175526Y-138034129D02*
X72268864Y-138034129D01*
D58*
X94410777Y-142317223D02*
X94615000Y-142113000D01*
X82718589Y-140122589D02*
X82972589Y-139868589D01*
X92950843Y-130670157D02*
X93675000Y-129946000D01*
X77998466Y-146283534D02*
X78838155Y-147123223D01*
D59*
X58466820Y-125390589D02*
X59604589Y-125390589D01*
D60*
X60860403Y-137175701D02*
X61079606Y-136956498D01*
D58*
X94242000Y-133362001D02*
X94615000Y-132989001D01*
X94242000Y-134112000D02*
X94242000Y-133362001D01*
X64389000Y-144780000D02*
X64345178Y-144780000D01*
X93938411Y-141182411D02*
X93938411Y-141197670D01*
X90061142Y-142670777D02*
X89993223Y-142670777D01*
X65136245Y-149889067D02*
X64147003Y-148899825D01*
X86754305Y-148675411D02*
X86041806Y-147962912D01*
X91440000Y-147320000D02*
X91567000Y-147447000D01*
D60*
X62044620Y-138633200D02*
X61357043Y-139320777D01*
X60960257Y-138633200D02*
X60880202Y-138553145D01*
D59*
X56859588Y-132612538D02*
X56644062Y-132828064D01*
D60*
X61357044Y-139320776D02*
X61357044Y-139630776D01*
D58*
X93574000Y-123546000D02*
X92456000Y-122301000D01*
D59*
X56882650Y-124542037D02*
X58099011Y-125758398D01*
X53054678Y-131032678D02*
X53848000Y-131826000D01*
D58*
X93241999Y-138555599D02*
X94030800Y-139344400D01*
X64389000Y-144780000D02*
X64389000Y-145200076D01*
X90640000Y-131978000D02*
X91440000Y-131178000D01*
%TO.N,/OSC_IN*%
X92624589Y-144484411D02*
X91874776Y-144484411D01*
X85325677Y-144878343D02*
X86712343Y-144878343D01*
X86712343Y-144878343D02*
X87222853Y-144367833D01*
X91874776Y-144484411D02*
X91263223Y-143872858D01*
X87222853Y-144367833D02*
X90768248Y-144367833D01*
X84981146Y-145222874D02*
X85325677Y-144878343D01*
X90768248Y-144367833D02*
X91263223Y-143872858D01*
%TO.N,Net-(U1-VCAP1)*%
X77978000Y-145555960D02*
X78352020Y-145929980D01*
X78282614Y-144865412D02*
X77978000Y-145170026D01*
X77978000Y-145170026D02*
X77978000Y-145555960D01*
X78063411Y-144186589D02*
X78282614Y-144405792D01*
X78282614Y-144405792D02*
X78282614Y-144865412D01*
%TO.N,+3.3VA*%
X83651411Y-140547411D02*
X83651411Y-141563411D01*
X83917694Y-139035694D02*
X83917694Y-140281128D01*
X83651411Y-141563411D02*
X83397411Y-141817411D01*
X83911463Y-143464129D02*
X83566932Y-143808660D01*
X83397411Y-141817411D02*
X83911463Y-142331463D01*
X83911463Y-142331463D02*
X83911463Y-143464129D01*
X83917694Y-140281128D02*
X83651411Y-140547411D01*
%TO.N,VBUS*%
X90190000Y-124968000D02*
X90833000Y-124325000D01*
X92442000Y-134911999D02*
X90788509Y-134911999D01*
X90190000Y-131064000D02*
X90190000Y-124968000D01*
D59*
X92710000Y-124325000D02*
X83685000Y-124325000D01*
X76454000Y-117094000D02*
X76454000Y-116332000D01*
X93654000Y-124325000D02*
X92710000Y-124325000D01*
D58*
X75382000Y-115260000D02*
X76454000Y-116332000D01*
D59*
X55538000Y-114593000D02*
X53174000Y-114593000D01*
D58*
X90190000Y-134313490D02*
X90190000Y-131064000D01*
D59*
X49732140Y-118034860D02*
X46539748Y-118034860D01*
D58*
X90190000Y-131044000D02*
X92088000Y-129146000D01*
X75382000Y-106693999D02*
X75382000Y-115260000D01*
D59*
X73616471Y-119175628D02*
X69816843Y-115376000D01*
X92710000Y-124325000D02*
X91432000Y-124325000D01*
D58*
X90833000Y-124325000D02*
X91432000Y-124325000D01*
X92442000Y-135412000D02*
X92442000Y-134911999D01*
X92088000Y-129146000D02*
X93675000Y-129146000D01*
D59*
X53174000Y-114593000D02*
X49732140Y-118034860D01*
D58*
X90190000Y-131064000D02*
X90190000Y-131044000D01*
D59*
X69816843Y-115376000D02*
X56321000Y-115376000D01*
X56321000Y-115376000D02*
X55538000Y-114593000D01*
X83685000Y-124325000D02*
X76454000Y-117094000D01*
X93675000Y-124346000D02*
X93654000Y-124325000D01*
D58*
X90788509Y-134911999D02*
X90190000Y-134313490D01*
%TO.N,Net-(U3-DCPL)*%
X73207208Y-144272000D02*
X72981178Y-144272000D01*
X72727178Y-143791970D02*
X73207208Y-144272000D01*
X71036730Y-142620070D02*
X71477707Y-143061047D01*
X71477707Y-143061047D02*
X71996255Y-143061047D01*
X72981178Y-144272000D02*
X72558589Y-144694589D01*
X72544604Y-143609396D02*
X72727178Y-143791970D01*
X71996255Y-143061047D02*
X72544604Y-143609396D01*
D60*
%TO.N,Net-(U3-DCPL_VCO)*%
X66882478Y-139880031D02*
X65635647Y-138633200D01*
X65635647Y-138633200D02*
X64030800Y-138633200D01*
%TO.N,Net-(U3-LPF1)*%
X65733430Y-141029079D02*
X64074556Y-141029079D01*
X64074556Y-141029079D02*
X63505200Y-140459723D01*
X63505200Y-140459723D02*
X63505200Y-140349196D01*
X65821818Y-140940691D02*
X65733430Y-141029079D01*
%TO.N,Net-(U3-LPF0)*%
X65805840Y-140217607D02*
X66175371Y-140587138D01*
D58*
X64571789Y-140242607D02*
X65830840Y-140242607D01*
X65830840Y-140242607D02*
X66175371Y-140587138D01*
X64465200Y-140349196D02*
X64571789Y-140242607D01*
%TO.N,Net-(U3-DCPL_PFD_CHP)*%
X65830840Y-142611047D02*
X65160953Y-142611047D01*
X66175371Y-142266516D02*
X65830840Y-142611047D01*
X64352096Y-143382685D02*
X64312498Y-143382685D01*
X64312498Y-143382685D02*
X64492810Y-143562997D01*
X65160953Y-142611047D02*
X64347411Y-143424589D01*
%TO.N,Net-(U3-DCPL_XOSC)*%
X67236031Y-143329969D02*
X66363222Y-144202778D01*
X67236031Y-143327176D02*
X67236031Y-143329969D01*
X67236031Y-143332834D02*
X67236031Y-143327177D01*
X66447960Y-144120904D02*
X66447960Y-144115247D01*
%TO.N,Net-(C26-Pad1)*%
X68044608Y-136776893D02*
X68782827Y-136038674D01*
X69540846Y-135280655D02*
X68782827Y-136038674D01*
%TO.N,Net-(C30-Pad1)*%
X65190725Y-135320253D02*
X65909145Y-134601833D01*
X65948743Y-136078272D02*
X65190725Y-135320253D01*
%TO.N,Net-(U3-PA)*%
X67365785Y-137455716D02*
X66667164Y-136757094D01*
X67365785Y-137534911D02*
X67365785Y-137455716D01*
X68296691Y-138465818D02*
X67365785Y-137534911D01*
X66667164Y-136757094D02*
X66627566Y-136757094D01*
%TO.N,Net-(U3-XOSC_Q1)*%
X62633795Y-147874521D02*
X63305545Y-147874521D01*
X67134908Y-144135406D02*
X67589584Y-143680730D01*
X67589585Y-143680730D02*
X67134908Y-144135407D01*
X64982857Y-146484033D02*
X67134907Y-144331983D01*
X61723748Y-149030640D02*
X62174175Y-148580213D01*
X67134908Y-144135407D02*
X67134908Y-144331982D01*
X67134907Y-144331983D02*
X67134908Y-144135406D01*
X62174175Y-148580213D02*
X62174175Y-147414901D01*
X63305545Y-147874521D02*
X64696033Y-146484033D01*
X62174175Y-147414901D02*
X62633795Y-147874521D01*
X64696033Y-146484033D02*
X64982857Y-146484033D01*
D60*
%TO.N,Net-(U3-LNA_N)*%
X67236031Y-139526478D02*
X65557604Y-137848051D01*
X65557604Y-137848051D02*
X64884439Y-137848051D01*
X62476849Y-136916900D02*
X61758428Y-137635321D01*
X64851313Y-137814926D02*
X63374875Y-137814926D01*
X64884439Y-137848051D02*
X64851313Y-137814926D01*
X63374875Y-137814926D02*
X62476849Y-136916900D01*
%TO.N,Net-(C33-Pad1)*%
X62396239Y-135639865D02*
X62636655Y-135639865D01*
X61798026Y-136238078D02*
X62396239Y-135639865D01*
X63414473Y-136417683D02*
X62636655Y-135639865D01*
%TO.N,Net-(U3-LNA_P)*%
X65552763Y-137136103D02*
X65530136Y-137136103D01*
X64093295Y-137096505D02*
X64811716Y-136378085D01*
X67589585Y-139172924D02*
X65552763Y-137136103D01*
X65900660Y-137467029D02*
X64811716Y-136378085D01*
D58*
%TO.N,Net-(C34-Pad1)*%
X63773683Y-133903211D02*
X63734085Y-133903211D01*
X64511902Y-134641431D02*
X63773683Y-133903211D01*
X63734085Y-133903211D02*
X63015664Y-133184791D01*
X63015664Y-133184791D02*
X63015664Y-133145193D01*
X65230323Y-133923010D02*
X64511902Y-134641431D01*
%TO.N,Net-(U3-XOSC_Q2)*%
X65815068Y-149210245D02*
X64825826Y-148221002D01*
X67943138Y-144034283D02*
X67584908Y-144392514D01*
X65024000Y-148174193D02*
X64811008Y-147961201D01*
X67584908Y-144518378D02*
X64825825Y-147277461D01*
X64825825Y-147277461D02*
X64825825Y-147733099D01*
X67584908Y-144392514D02*
X67584908Y-144518378D01*
%TO.N,Net-(C37-Pad1)*%
X62336842Y-132466370D02*
X61638220Y-133164992D01*
X61638220Y-133164992D02*
X61598622Y-133164992D01*
X61578823Y-131708352D02*
X62336842Y-132466370D01*
%TO.N,/SWDIO*%
X80151178Y-151877822D02*
X77692000Y-154337000D01*
X75597000Y-154337000D02*
X74422000Y-153162000D01*
X77692000Y-154337000D02*
X75597000Y-154337000D01*
X80151178Y-151467054D02*
X80151178Y-151877822D01*
X80826893Y-150791339D02*
X80151178Y-151467054D01*
%TO.N,/SWCLK*%
X82537446Y-151498446D02*
X83372763Y-152333763D01*
X82506272Y-151498446D02*
X82537446Y-151498446D01*
X83372763Y-152333763D02*
X83372763Y-152508310D01*
%TO.N,/TXT*%
X98956000Y-133350000D02*
X97394001Y-134911999D01*
X97394001Y-134911999D02*
X95542000Y-134911999D01*
D59*
%TO.N,+3V9*%
X59159671Y-126819058D02*
X59533764Y-126819058D01*
X58629340Y-126288727D02*
X60220330Y-127879718D01*
X64970034Y-127000000D02*
X64843034Y-126873000D01*
X60283411Y-126069411D02*
X61128589Y-126914589D01*
X63473017Y-125502983D02*
X63473017Y-125576017D01*
X61807411Y-124545411D02*
X61045411Y-125307411D01*
X63473017Y-125576017D02*
X64897000Y-127000000D01*
X64897000Y-127000000D02*
X64970034Y-127000000D01*
X63277445Y-125307411D02*
X63473017Y-125502983D01*
X59690000Y-126662822D02*
X60283411Y-126069411D01*
X61045411Y-125307411D02*
X60283411Y-126069411D01*
X62515445Y-124545411D02*
X63473017Y-125502983D01*
X61045411Y-125307411D02*
X63277445Y-125307411D01*
X61890589Y-126152589D02*
X61045411Y-125307411D01*
X64897000Y-126926966D02*
X64897000Y-127000000D01*
X61128589Y-126914589D02*
X61890589Y-126152589D01*
X62540195Y-125502983D02*
X61890589Y-126152589D01*
X61128589Y-126971459D02*
X60220330Y-127879718D01*
X63473017Y-125502983D02*
X62540195Y-125502983D01*
X59690000Y-127349387D02*
X59690000Y-126662822D01*
X59533764Y-126819058D02*
X60283411Y-126069411D01*
X61128589Y-126914589D02*
X61128589Y-126971459D01*
X61807411Y-124545411D02*
X62515445Y-124545411D01*
D60*
%TO.N,Net-(D1-K)*%
X99799000Y-121133001D02*
X99823999Y-121158000D01*
X99799000Y-120142000D02*
X99799000Y-121133001D01*
%TO.N,Net-(D2-K)*%
X99442999Y-116078000D02*
X99442999Y-116737999D01*
X99442999Y-116737999D02*
X99799000Y-117094000D01*
D58*
%TO.N,/LED1*%
X95758000Y-117094000D02*
X98829000Y-117094000D01*
X94996000Y-117856000D02*
X95758000Y-117094000D01*
X85598000Y-150347534D02*
X85598000Y-150749000D01*
X84627592Y-149377126D02*
X85598000Y-150347534D01*
X95377000Y-120904000D02*
X92329000Y-117856000D01*
X95885000Y-120904000D02*
X95377000Y-120904000D01*
D60*
%TO.N,Net-(D3-K)*%
X99823999Y-118110000D02*
X99823999Y-119101001D01*
X99823999Y-119101001D02*
X99799000Y-119126000D01*
D58*
%TO.N,Net-(D4-A)*%
X99926000Y-133350000D02*
X99926000Y-132359000D01*
X99926000Y-132359000D02*
X99951000Y-132334000D01*
%TO.N,Net-(D5-A)*%
X99926000Y-135484000D02*
X99951000Y-135509000D01*
X99926000Y-134493000D02*
X99926000Y-135484000D01*
%TO.N,Net-(J1-CC1)*%
X92204000Y-128143000D02*
X92351000Y-127996000D01*
X92351000Y-127996000D02*
X93675000Y-127996000D01*
%TO.N,/OSC_OUT*%
X90278858Y-141115142D02*
X91616777Y-141115142D01*
X85068569Y-144428343D02*
X86525947Y-144428343D01*
X86525947Y-144428343D02*
X87036457Y-143917833D01*
X87036457Y-143917833D02*
X87476167Y-143917833D01*
X84627592Y-144869320D02*
X85068569Y-144428343D01*
X92228330Y-140503589D02*
X91616777Y-141115142D01*
X93259589Y-140503589D02*
X92228330Y-140503589D01*
X87476167Y-143917833D02*
X90278858Y-141115142D01*
%TO.N,Net-(J1-CC2)*%
X92430000Y-124996000D02*
X93675000Y-124996000D01*
X92331000Y-125095000D02*
X92430000Y-124996000D01*
%TO.N,/LED2*%
X84274039Y-149730679D02*
X84618569Y-150075209D01*
D60*
X96647240Y-121925101D02*
X96647240Y-119760760D01*
D58*
X85090000Y-151765000D02*
X84963000Y-151638000D01*
D60*
X97282000Y-119126000D02*
X98829000Y-119126000D01*
X96647240Y-119760760D02*
X97282000Y-119126000D01*
D58*
X84618569Y-151293569D02*
X85090000Y-151765000D01*
X84618569Y-150075209D02*
X84618569Y-151293569D01*
D60*
%TO.N,Net-(U4-RX0)*%
X59944000Y-132181210D02*
X59944000Y-133304937D01*
X61600106Y-134961043D02*
X61957833Y-134961043D01*
X59944000Y-133304937D02*
X61600106Y-134961043D01*
X58617450Y-130854660D02*
X59944000Y-132181210D01*
D59*
%TO.N,Net-(P1-Pin_1)*%
X52387472Y-126746000D02*
X47752000Y-126746000D01*
X53533079Y-127891607D02*
X52387472Y-126746000D01*
%TO.N,Net-(U4-RBIAS)*%
X55343459Y-132756589D02*
X55203411Y-132756589D01*
X56172840Y-131927208D02*
X55343459Y-132756589D01*
D58*
%TO.N,Net-(U3-RBIAS)*%
X72251893Y-136897101D02*
X69976070Y-139172924D01*
X72514937Y-136897101D02*
X72251893Y-136897101D01*
%TO.N,Net-(U2-~{RST})*%
X91315000Y-135763000D02*
X91464000Y-135912000D01*
X91464000Y-135912000D02*
X92442000Y-135912000D01*
%TO.N,/RXT*%
X98037000Y-135412000D02*
X95542000Y-135412000D01*
X98956000Y-134493000D02*
X98037000Y-135412000D01*
%TO.N,FEM_EN*%
X78740000Y-141368214D02*
X78740000Y-141097000D01*
X56801000Y-117951000D02*
X67532000Y-117951000D01*
X55654398Y-125770288D02*
X54287000Y-124402890D01*
X56692800Y-118059200D02*
X57275001Y-117476999D01*
X54287000Y-120465000D02*
X56692800Y-118059200D01*
X77978000Y-128397000D02*
X77978000Y-137033000D01*
X57275001Y-117476999D02*
X57275001Y-117221000D01*
X80826893Y-143455107D02*
X78740000Y-141368214D01*
X67532000Y-117951000D02*
X77978000Y-128397000D01*
X54287000Y-124402890D02*
X54287000Y-120465000D01*
%TO.N,FEM_BYP*%
X67623396Y-117406000D02*
X60891000Y-117406000D01*
X78428000Y-128210604D02*
X67623396Y-117406000D01*
X77998466Y-142748000D02*
X77470000Y-142748000D01*
X53837000Y-125013546D02*
X53837000Y-120278604D01*
X55499000Y-117476999D02*
X55883395Y-117476999D01*
X78428000Y-134689000D02*
X78428000Y-128210604D01*
X56769000Y-115951000D02*
X56261000Y-116459000D01*
X79766233Y-144515767D02*
X77998466Y-142748000D01*
X56261000Y-116459000D02*
X56261000Y-117854604D01*
X53837000Y-120278604D02*
X56261000Y-117854604D01*
X55124070Y-126300616D02*
X53837000Y-125013546D01*
X60891000Y-117406000D02*
X59436000Y-115951000D01*
X78740000Y-135001000D02*
X78428000Y-134689000D01*
X59436000Y-115951000D02*
X56769000Y-115951000D01*
X55883395Y-117476999D02*
X56261000Y-117854604D01*
%TO.N,/CP2102N_SIG1*%
X89408000Y-133731000D02*
X86487000Y-133731000D01*
X95069000Y-133912000D02*
X95885000Y-133096000D01*
X94742001Y-134112000D02*
X94742000Y-133912000D01*
X81407000Y-141224000D02*
X81407000Y-141648728D01*
X95885000Y-132969000D02*
X96012000Y-132969000D01*
X95885000Y-133096000D02*
X95885000Y-132969000D01*
X81407000Y-141648728D02*
X82506272Y-142748000D01*
X86487000Y-133731000D02*
X84328000Y-135890000D01*
X84328000Y-135890000D02*
X84455000Y-136017000D01*
X96012000Y-132969000D02*
X96012000Y-132969000D01*
X94742000Y-133912000D02*
X95069000Y-133912000D01*
%TO.N,SPI_MOSI*%
X71882000Y-142611047D02*
X72182651Y-142611047D01*
X71390283Y-142266516D02*
X71734814Y-142611047D01*
X71882000Y-142611047D02*
X71999047Y-142611047D01*
X73189000Y-148590000D02*
X73189000Y-149144305D01*
X74077642Y-144506038D02*
X74077642Y-147655053D01*
X77261592Y-150114000D02*
X78705573Y-148670019D01*
X73189000Y-148543695D02*
X73189000Y-148590000D01*
X72182651Y-142611047D02*
X74077642Y-144506038D01*
X74158695Y-150114000D02*
X77261592Y-150114000D01*
X71734814Y-142611047D02*
X71882000Y-142611047D01*
X74077642Y-147655053D02*
X73189000Y-148543695D01*
X73189000Y-149144305D02*
X74158695Y-150114000D01*
%TO.N,SPI2_SCK*%
X74542947Y-144272000D02*
X74542947Y-145288000D01*
X72183910Y-141912963D02*
X74542947Y-144272000D01*
X74542947Y-145288000D02*
X74527642Y-145303305D01*
X71743837Y-141912963D02*
X72183910Y-141912963D01*
X77117378Y-148844000D02*
X76708000Y-148844000D01*
X74527642Y-148230358D02*
X73914000Y-148844000D01*
X74527642Y-145303305D02*
X74527642Y-148230358D01*
X77998466Y-147962912D02*
X77117378Y-148844000D01*
%TO.N,SPI2_MISO*%
X76200000Y-149569000D02*
X77099486Y-149569000D01*
X75848000Y-144428000D02*
X75848000Y-144739246D01*
X72222528Y-140462000D02*
X74039604Y-140462000D01*
X71743837Y-140940691D02*
X72222528Y-140462000D01*
X74977642Y-148346642D02*
X76200000Y-149569000D01*
X75242000Y-141664396D02*
X75242000Y-143002000D01*
X75848000Y-144739246D02*
X74977642Y-145609604D01*
X74039604Y-140462000D02*
X75242000Y-141664396D01*
X76004000Y-143764000D02*
X76004000Y-144272000D01*
X77099486Y-149569000D02*
X78352020Y-148316466D01*
X76004000Y-144272000D02*
X75848000Y-144428000D01*
X74977642Y-145609604D02*
X74977642Y-148346642D01*
X75242000Y-143002000D02*
X76004000Y-143764000D01*
%TO.N,RADIO_RESET*%
X73142695Y-150622000D02*
X77460698Y-150622000D01*
X70257000Y-147736305D02*
X73142695Y-150622000D01*
X70257000Y-144668767D02*
X70257000Y-147736305D01*
X69622516Y-144034283D02*
X70257000Y-144668767D01*
X69622516Y-144034283D02*
X69967047Y-144378814D01*
X77460698Y-150622000D02*
X79059126Y-149023572D01*
%TO.N,RADIO_MARC_INT*%
X69976070Y-143680730D02*
X70707000Y-144411660D01*
X80473340Y-143808660D02*
X80426355Y-143808660D01*
X70707000Y-147161000D02*
X72136000Y-148590000D01*
X77724000Y-141106305D02*
X77724000Y-140716000D01*
X70707000Y-144411660D02*
X70707000Y-147161000D01*
X80426355Y-143808660D02*
X77724000Y-141106305D01*
%TO.N,RADIO_INT*%
X71157000Y-146341000D02*
X71882000Y-147066000D01*
X71157000Y-144154553D02*
X71157000Y-146341000D01*
X70329623Y-143327176D02*
X71157000Y-144154553D01*
X76962000Y-140589000D02*
X76708000Y-140335000D01*
X80119787Y-144162213D02*
X76962000Y-141004426D01*
X76962000Y-141004426D02*
X76962000Y-140589000D01*
X71882000Y-147066000D02*
X71628000Y-147066000D01*
%TO.N,RADIO_CS*%
X75184000Y-140970000D02*
X75692000Y-141478000D01*
X71036730Y-140233584D02*
X71381260Y-139889054D01*
X77172272Y-148082000D02*
X77644913Y-147609359D01*
X71888160Y-139382154D02*
X73596154Y-139382154D01*
X77172272Y-148082000D02*
X75935642Y-148082000D01*
X71036730Y-140233584D02*
X71888160Y-139382154D01*
X75184000Y-140970000D02*
X75427642Y-141213642D01*
X75427642Y-145796000D02*
X75427642Y-147574000D01*
X75935642Y-148082000D02*
X75427642Y-147574000D01*
X76454000Y-143519305D02*
X76454000Y-144769642D01*
X75692000Y-142757305D02*
X76454000Y-143519305D01*
X76454000Y-144769642D02*
X75427642Y-145796000D01*
X71036730Y-140233584D02*
X71453353Y-139816961D01*
X72834154Y-139382154D02*
X71888160Y-139382154D01*
X73596154Y-139382154D02*
X75184000Y-140970000D01*
X75692000Y-141478000D02*
X75692000Y-142757305D01*
%TO.N,/S1*%
X85679230Y-149014550D02*
X85679230Y-149687230D01*
X85598000Y-127127000D02*
X85598000Y-125603000D01*
X85598000Y-125603000D02*
X85090000Y-125095000D01*
X73382000Y-115035208D02*
X73382000Y-106693999D01*
X85334699Y-148670019D02*
X85679230Y-149014550D01*
X83441792Y-125095000D02*
X73382000Y-115035208D01*
X85090000Y-125095000D02*
X83441792Y-125095000D01*
X85679230Y-149687230D02*
X86995000Y-151003000D01*
%TO.N,/S2*%
X85688252Y-148316466D02*
X87358786Y-149987000D01*
X72382000Y-114671604D02*
X72382000Y-106693999D01*
X84328000Y-125857000D02*
X83567396Y-125857000D01*
X83567396Y-125857000D02*
X72382000Y-114671604D01*
X87358786Y-149987000D02*
X87376000Y-149987000D01*
X87376000Y-149987000D02*
X87376000Y-150004214D01*
X87376000Y-150004214D02*
X87376000Y-150004214D01*
%TO.N,/TX*%
X80010000Y-154686000D02*
X82804000Y-154686000D01*
X92710000Y-147828000D02*
X92710000Y-145950376D01*
X84736376Y-153924000D02*
X86183188Y-152477188D01*
X97441000Y-138017000D02*
X98044000Y-137414000D01*
X87503000Y-130429000D02*
X71382000Y-114308000D01*
X95542000Y-136412001D02*
X95842000Y-136412001D01*
X96266000Y-136836001D02*
X96266000Y-137160000D01*
X79412680Y-149441320D02*
X77470000Y-151384000D01*
X83566000Y-153924000D02*
X84736376Y-153924000D01*
X87425812Y-152477188D02*
X89535000Y-150368000D01*
X79412680Y-149377126D02*
X79412680Y-149441320D01*
X82804000Y-154686000D02*
X83566000Y-153924000D01*
X90170000Y-150368000D02*
X92710000Y-147828000D01*
X92710000Y-145950376D02*
X97441000Y-141219376D01*
X86183188Y-152477188D02*
X87425812Y-152477188D01*
X89535000Y-150368000D02*
X90170000Y-150368000D01*
X79248000Y-153924000D02*
X80010000Y-154686000D01*
X97441000Y-141219376D02*
X97441000Y-138017000D01*
X95842000Y-136412001D02*
X96266000Y-136836001D01*
X71382000Y-114308000D02*
X71382000Y-106693999D01*
%TO.N,/RX*%
X87239416Y-152027188D02*
X89348604Y-149918000D01*
X96991000Y-140462000D02*
X96991000Y-139536000D01*
X95542000Y-135912000D02*
X96291999Y-135912000D01*
X92260000Y-145763980D02*
X96991000Y-141032980D01*
X82617604Y-154236000D02*
X83379604Y-153474000D01*
X83379604Y-153474000D02*
X84549980Y-153474000D01*
X78740000Y-151257000D02*
X78613000Y-151130000D01*
X70932000Y-114494396D02*
X70932000Y-110427604D01*
X89348604Y-149918000D02*
X89983604Y-149918000D01*
X96991000Y-136611001D02*
X96991000Y-140462000D01*
X96991000Y-141032980D02*
X96991000Y-140462000D01*
X85996792Y-152027188D02*
X87239416Y-152027188D01*
X92260000Y-147641604D02*
X92260000Y-145763980D01*
X70932000Y-110427604D02*
X70382000Y-109877604D01*
X86360000Y-130683000D02*
X86360000Y-129922396D01*
X79766233Y-149730679D02*
X78740000Y-150756912D01*
X89983604Y-149918000D02*
X92260000Y-147641604D01*
X80391000Y-153924000D02*
X80703000Y-154236000D01*
X86360000Y-129922396D02*
X70932000Y-114494396D01*
X80703000Y-154236000D02*
X82617604Y-154236000D01*
X70382000Y-109877604D02*
X70382000Y-106693999D01*
X78740000Y-150756912D02*
X78740000Y-151257000D01*
X96291999Y-135912000D02*
X96991000Y-136611001D01*
X84549980Y-153474000D02*
X85996792Y-152027188D01*
X96991000Y-139536000D02*
X96012000Y-138557000D01*
D61*
%TO.N,/D+*%
X94560686Y-126996000D02*
X93675000Y-126996000D01*
X94495000Y-125996000D02*
X93675000Y-125996000D01*
X94495000Y-126996000D02*
X94742000Y-126749000D01*
X93742000Y-134112000D02*
X93742000Y-132953000D01*
X95283595Y-132234174D02*
X95964995Y-131552773D01*
X94460826Y-132234174D02*
X95283595Y-132234174D01*
X93675000Y-126996000D02*
X94495000Y-126996000D01*
X94742000Y-126749000D02*
X94742000Y-126243000D01*
X95964995Y-131552773D02*
X95964995Y-128400309D01*
X93742000Y-132953000D02*
X94460826Y-132234174D01*
X94742000Y-126243000D02*
X94495000Y-125996000D01*
X95964995Y-128400309D02*
X94560686Y-126996000D01*
%TO.N,/D-*%
X93675000Y-127496000D02*
X92855000Y-127496000D01*
X93241999Y-132818001D02*
X94225826Y-131834174D01*
X92928000Y-126496000D02*
X93675000Y-126496000D01*
X93241999Y-134112000D02*
X93241999Y-132818001D01*
X92855000Y-127496000D02*
X92805000Y-127446000D01*
X95564995Y-131387088D02*
X95564995Y-128565995D01*
X95117909Y-131834174D02*
X95564995Y-131387088D01*
X92805000Y-126619000D02*
X92928000Y-126496000D01*
X92805000Y-127446000D02*
X92805000Y-126619000D01*
X94225826Y-131834174D02*
X95117909Y-131834174D01*
X94495000Y-127496000D02*
X93675000Y-127496000D01*
X95564995Y-128565995D02*
X94495000Y-127496000D01*
D58*
%TO.N,/CP2102N_SIG2*%
X80682000Y-141896000D02*
X81153000Y-142367000D01*
X95712000Y-134412000D02*
X96774000Y-133604000D01*
X81026000Y-139954000D02*
X80682000Y-140298000D01*
X95242000Y-134412000D02*
X95712000Y-134412000D01*
X81026000Y-139827000D02*
X81026000Y-139954000D01*
X80682000Y-140298000D02*
X80682000Y-141896000D01*
X81153000Y-142367000D02*
X81534000Y-142748000D01*
X96774000Y-133604000D02*
X96647000Y-133477000D01*
X89152686Y-135032539D02*
X86328461Y-135032539D01*
X86328461Y-135032539D02*
X84201000Y-137160000D01*
%TO.N,FEM_VPC*%
X88353900Y-116674900D02*
X88747600Y-117068600D01*
D60*
X63753884Y-142145248D02*
X62855858Y-141247222D01*
D58*
X90295000Y-135763000D02*
X90295000Y-136269000D01*
D59*
X58463822Y-134747000D02*
X58293000Y-134576178D01*
D58*
X69268963Y-144387837D02*
X69268963Y-145211616D01*
X81617178Y-138513178D02*
X73743178Y-138513178D01*
X86395359Y-147609359D02*
X87328181Y-147609359D01*
X54593738Y-126593433D02*
X53387000Y-125386695D01*
X87820500Y-147891500D02*
X88201500Y-147891500D01*
X66528924Y-142620070D02*
X66528924Y-142640076D01*
X70938089Y-133883412D02*
X70219668Y-134601833D01*
X59055000Y-117221000D02*
X59182000Y-117094000D01*
X90295000Y-136269000D02*
X90932000Y-136906000D01*
X53387000Y-125386695D02*
X53387000Y-122271800D01*
X82212822Y-138513178D02*
X82804000Y-137922000D01*
X70683176Y-142973623D02*
X71727553Y-144018000D01*
X76362265Y-146637087D02*
X77644913Y-146637087D01*
X74930000Y-126621792D02*
X74930000Y-132334000D01*
D60*
X64113094Y-142145248D02*
X64345379Y-141912963D01*
D58*
X82804000Y-137922000D02*
X88136000Y-137922000D01*
D59*
X58334589Y-132927411D02*
X58334589Y-132693117D01*
D58*
X69268963Y-145211616D02*
X68224213Y-146256367D01*
X87721735Y-146637087D02*
X87969411Y-146389411D01*
X81534000Y-152908000D02*
X81534000Y-152273000D01*
X74382000Y-106693999D02*
X74382000Y-104180000D01*
X76327000Y-130937000D02*
X74930000Y-132334000D01*
X73152000Y-138176000D02*
X73406000Y-138176000D01*
X98804000Y-132461000D02*
X98931000Y-132334000D01*
X86395359Y-146637087D02*
X87721735Y-146637087D01*
X71871642Y-145277642D02*
X71871642Y-144028358D01*
X86395359Y-146637087D02*
X86395359Y-147609359D01*
X59944000Y-120269000D02*
X60288000Y-120613000D01*
X73406000Y-138176000D02*
X73406000Y-137922000D01*
X81280000Y-153162000D02*
X81534000Y-152908000D01*
X74382000Y-104180000D02*
X75565000Y-102997000D01*
X88747600Y-117068600D02*
X88747600Y-123444000D01*
X60288000Y-120613000D02*
X68921208Y-120613000D01*
D59*
X58334589Y-132693117D02*
X57556791Y-131915319D01*
D58*
X70419072Y-137635321D02*
X70419072Y-138022815D01*
D60*
X62855858Y-141247222D02*
X62317043Y-140708407D01*
D58*
X92315000Y-133985000D02*
X92742000Y-134412000D01*
X81534000Y-152273000D02*
X82042000Y-152273000D01*
X87969411Y-146389411D02*
X87969411Y-147742589D01*
X88136000Y-137922000D02*
X90295000Y-135763000D01*
X97917000Y-132461000D02*
X97917000Y-132334000D01*
X81239992Y-137073008D02*
X81239992Y-138135992D01*
D59*
X58293000Y-134576178D02*
X58293000Y-134747000D01*
D58*
X66528924Y-142640076D02*
X65786000Y-143383000D01*
X69461650Y-136717496D02*
X68782827Y-137475515D01*
X76708000Y-130937000D02*
X76327000Y-130937000D01*
X88353900Y-116674900D02*
X87376000Y-115697000D01*
X69540846Y-136717496D02*
X69461650Y-136717496D01*
X98931000Y-135511000D02*
X98298000Y-136144000D01*
X81534000Y-152273000D02*
X81534000Y-151498446D01*
X71715906Y-138932154D02*
X72395846Y-138932154D01*
X71882000Y-145542000D02*
X71882000Y-145288000D01*
X71871642Y-144028358D02*
X71882000Y-144018000D01*
X92710000Y-132334000D02*
X92742000Y-132493000D01*
X76362265Y-146637087D02*
X76200000Y-146799352D01*
X97917000Y-132461000D02*
X98804000Y-132461000D01*
X82804000Y-137922000D02*
X82088984Y-137922000D01*
X73743178Y-138513178D02*
X73406000Y-138176000D01*
D60*
X98679000Y-120142000D02*
X97917000Y-120904000D01*
X64345379Y-141912963D02*
X65821818Y-141912963D01*
D58*
X71727553Y-144018000D02*
X71882000Y-144018000D01*
X91440000Y-132728000D02*
X91440000Y-133632000D01*
X69268963Y-145211616D02*
X69268963Y-145722963D01*
X68782827Y-137475515D02*
X68782827Y-137396319D01*
X70227793Y-136007200D02*
X70239467Y-136018875D01*
X70219668Y-134601833D02*
X70227793Y-134609957D01*
D60*
X58087122Y-131384988D02*
X57556791Y-131915319D01*
D58*
X71496703Y-138712951D02*
X71715906Y-138932154D01*
X70419072Y-138022815D02*
X69622517Y-138819371D01*
D59*
X58334589Y-132927411D02*
X57489411Y-133772589D01*
D60*
X65926116Y-139630776D02*
X66528924Y-140233585D01*
D58*
X71882000Y-145288000D02*
X71871642Y-145277642D01*
X82088984Y-137922000D02*
X81239992Y-137073008D01*
X71882000Y-144018000D02*
X71628000Y-144018000D01*
D60*
X62317043Y-139630776D02*
X65926116Y-139630776D01*
D58*
X70683177Y-139526478D02*
X70329623Y-139526478D01*
X70239467Y-136018875D02*
X69540846Y-136717496D01*
X70683177Y-139880031D02*
X70683177Y-139526478D01*
D60*
X64113094Y-142145248D02*
X63753884Y-142145248D01*
D58*
X88201500Y-147891500D02*
X88646000Y-147447000D01*
X66528924Y-142620070D02*
X66882478Y-142973623D01*
X91793000Y-133985000D02*
X92315000Y-133985000D01*
X70227793Y-134609957D02*
X70227793Y-136007200D01*
X92742000Y-134412000D02*
X92742000Y-132366000D01*
X70379474Y-137635321D02*
X70419072Y-137635321D01*
X72395846Y-138932154D02*
X73152000Y-138176000D01*
D59*
X58293000Y-134747000D02*
X58463822Y-134747000D01*
D58*
X68921208Y-120613000D02*
X74930000Y-126621792D01*
X66511954Y-142620070D02*
X66528924Y-142620070D01*
D60*
X62317043Y-140708407D02*
X62317043Y-139630776D01*
X98829000Y-120142000D02*
X98679000Y-120142000D01*
D58*
X65786000Y-143383000D02*
X65067822Y-144101178D01*
X58294999Y-117221000D02*
X59055000Y-117221000D01*
X76200000Y-146799352D02*
X76200000Y-147320000D01*
X92742000Y-132366000D02*
X92710000Y-132334000D01*
X66882478Y-142973623D02*
X66195377Y-142973623D01*
X69461650Y-136717496D02*
X70379474Y-137635321D01*
X73406000Y-137922000D02*
X73406000Y-137922000D01*
X54593738Y-126830948D02*
X54593738Y-126593433D01*
X81239992Y-138135992D02*
X81617178Y-138513178D01*
D59*
X57489411Y-133772589D02*
X58293000Y-134576178D01*
D58*
X76114589Y-146389411D02*
X76362265Y-146637087D01*
X91440000Y-133632000D02*
X91793000Y-133985000D01*
X81617178Y-138513178D02*
X82212822Y-138513178D01*
X98931000Y-135509000D02*
X98931000Y-135511000D01*
X53387000Y-122271800D02*
X53086000Y-121970800D01*
X70683177Y-139526478D02*
X71496703Y-138712951D01*
X87969411Y-147742589D02*
X87715411Y-147996589D01*
X87328181Y-147609359D02*
X87715411Y-147996589D01*
X87715411Y-147996589D02*
X87820500Y-147891500D01*
%TO.N,FEM_TR*%
X54737000Y-120651396D02*
X56987396Y-118401000D01*
X67345604Y-118401000D02*
X77528000Y-128583396D01*
X56184729Y-125239957D02*
X54737000Y-123792228D01*
X81180447Y-143101553D02*
X80137000Y-142058106D01*
X56987396Y-118401000D02*
X67345604Y-118401000D01*
X79883000Y-141097000D02*
X80137000Y-141224000D01*
X77528000Y-128583396D02*
X77528000Y-134362943D01*
X80137000Y-142058106D02*
X79883000Y-141097000D01*
X54737000Y-123792228D02*
X54737000Y-120651396D01*
X77528000Y-134362943D02*
X76897275Y-134993668D01*
D59*
%TO.N,Net-(U4-RX1)*%
X53754678Y-130576497D02*
X54871901Y-131693720D01*
X55345667Y-131693720D02*
X55642509Y-131396878D01*
X54051520Y-129805889D02*
X53754678Y-130102731D01*
X54871901Y-131693720D02*
X55345667Y-131693720D01*
X53754678Y-130102731D02*
X53754678Y-130576497D01*
D60*
%TO.N,Net-(U4-TX)*%
X60900001Y-131029529D02*
X60900001Y-131015891D01*
X60900001Y-131015891D02*
X59678110Y-129794000D01*
%TD*%
M02*
