%TF.GenerationSoftware,KiCad,Pcbnew,8.0.1*%
%TF.CreationDate,2024-09-30T12:45:28-07:00*%
%TF.ProjectId,rocketBeaconModule,726f636b-6574-4426-9561-636f6e4d6f64,rev?*%
%TF.SameCoordinates,Original*%
%TF.FileFunction,Copper,L2,Bot*%
%TF.FilePolarity,Positive*%
%FSLAX46Y46*%
G04 Gerber Fmt 4.6, Leading zero omitted, Abs format (unit mm)*
G04 Created by KiCad (PCBNEW 8.0.1) date 2024-09-30 12:45:28*
%MOMM*%
%LPD*%
G01*
G04 APERTURE LIST*
G04 Aperture macros list*
%AMRoundRect*
0 Rectangle with rounded corners*
0 $1 Rounding radius*
0 $2 $3 $4 $5 $6 $7 $8 $9 X,Y pos of 4 corners*
0 Add a 4 corners polygon primitive as box body*
4,1,4,$2,$3,$4,$5,$6,$7,$8,$9,$2,$3,0*
0 Add four circle primitives for the rounded corners*
1,1,$1+$1,$2,$3*
1,1,$1+$1,$4,$5*
1,1,$1+$1,$6,$7*
1,1,$1+$1,$8,$9*
0 Add four rect primitives between the rounded corners*
20,1,$1+$1,$2,$3,$4,$5,0*
20,1,$1+$1,$4,$5,$6,$7,0*
20,1,$1+$1,$6,$7,$8,$9,0*
20,1,$1+$1,$8,$9,$2,$3,0*%
%AMHorizOval*
0 Thick line with rounded ends*
0 $1 width*
0 $2 $3 position (X,Y) of the first rounded end (center of the circle)*
0 $4 $5 position (X,Y) of the second rounded end (center of the circle)*
0 Add line between two ends*
20,1,$1,$2,$3,$4,$5,0*
0 Add two circle primitives to create the rounded ends*
1,1,$1,$2,$3*
1,1,$1,$4,$5*%
%AMRotRect*
0 Rectangle, with rotation*
0 The origin of the aperture is its center*
0 $1 length*
0 $2 width*
0 $3 Rotation angle, in degrees counterclockwise*
0 Add horizontal line*
21,1,$1,$2,0,0,$3*%
G04 Aperture macros list end*
%TA.AperFunction,EtchedComponent*%
%ADD10C,0.010000*%
%TD*%
%TA.AperFunction,SMDPad,CuDef*%
%ADD11RotRect,2.900000X5.400000X225.000000*%
%TD*%
%TA.AperFunction,ComponentPad*%
%ADD12RotRect,1.700000X1.700000X344.000000*%
%TD*%
%TA.AperFunction,ComponentPad*%
%ADD13HorizOval,1.700000X0.000000X0.000000X0.000000X0.000000X0*%
%TD*%
%TA.AperFunction,ComponentPad*%
%ADD14R,1.700000X1.700000*%
%TD*%
%TA.AperFunction,ComponentPad*%
%ADD15O,1.700000X1.700000*%
%TD*%
%TA.AperFunction,ComponentPad*%
%ADD16RotRect,4.000000X4.000000X37.000000*%
%TD*%
%TA.AperFunction,ComponentPad*%
%ADD17C,2.050000*%
%TD*%
%TA.AperFunction,ComponentPad*%
%ADD18C,2.250000*%
%TD*%
%TA.AperFunction,ComponentPad*%
%ADD19RotRect,4.000000X4.000000X52.000000*%
%TD*%
%TA.AperFunction,ComponentPad*%
%ADD20C,0.900000*%
%TD*%
%TA.AperFunction,SMDPad,CuDef*%
%ADD21RoundRect,0.250000X-0.475000X0.250000X-0.475000X-0.250000X0.475000X-0.250000X0.475000X0.250000X0*%
%TD*%
%TA.AperFunction,SMDPad,CuDef*%
%ADD22RoundRect,0.250000X-1.166726X0.247487X0.247487X-1.166726X1.166726X-0.247487X-0.247487X1.166726X0*%
%TD*%
%TA.AperFunction,SMDPad,CuDef*%
%ADD23RoundRect,0.135000X-0.226274X-0.035355X-0.035355X-0.226274X0.226274X0.035355X0.035355X0.226274X0*%
%TD*%
%TA.AperFunction,SMDPad,CuDef*%
%ADD24RoundRect,0.250000X-0.159099X0.512652X-0.512652X0.159099X0.159099X-0.512652X0.512652X-0.159099X0*%
%TD*%
%TA.AperFunction,SMDPad,CuDef*%
%ADD25RoundRect,0.375000X0.625000X0.375000X-0.625000X0.375000X-0.625000X-0.375000X0.625000X-0.375000X0*%
%TD*%
%TA.AperFunction,SMDPad,CuDef*%
%ADD26RoundRect,0.500000X0.500000X1.400000X-0.500000X1.400000X-0.500000X-1.400000X0.500000X-1.400000X0*%
%TD*%
%TA.AperFunction,SMDPad,CuDef*%
%ADD27RoundRect,0.135000X0.185000X-0.135000X0.185000X0.135000X-0.185000X0.135000X-0.185000X-0.135000X0*%
%TD*%
%TA.AperFunction,SMDPad,CuDef*%
%ADD28RoundRect,0.135000X0.135000X0.185000X-0.135000X0.185000X-0.135000X-0.185000X0.135000X-0.185000X0*%
%TD*%
%TA.AperFunction,SMDPad,CuDef*%
%ADD29RoundRect,0.250000X-1.661701X1.237437X1.237437X-1.661701X1.661701X-1.237437X-1.237437X1.661701X0*%
%TD*%
%TA.AperFunction,SMDPad,CuDef*%
%ADD30RoundRect,0.250000X-3.111270X-0.247487X-0.247487X-3.111270X3.111270X0.247487X0.247487X3.111270X0*%
%TD*%
%TA.AperFunction,SMDPad,CuDef*%
%ADD31RoundRect,0.250002X-6.788222X-0.494975X-0.494975X-6.788222X6.788222X0.494975X0.494975X6.788222X0*%
%TD*%
%TA.AperFunction,ComponentPad*%
%ADD32RotRect,4.000000X4.000000X143.000000*%
%TD*%
%TA.AperFunction,ComponentPad*%
%ADD33RotRect,4.000000X4.000000X128.000000*%
%TD*%
%TA.AperFunction,SMDPad,CuDef*%
%ADD34RoundRect,0.250000X-0.671751X-2.085965X2.085965X0.671751X0.671751X2.085965X-2.085965X-0.671751X0*%
%TD*%
%TA.AperFunction,SMDPad,CuDef*%
%ADD35RoundRect,0.250000X0.250000X0.475000X-0.250000X0.475000X-0.250000X-0.475000X0.250000X-0.475000X0*%
%TD*%
%TA.AperFunction,ViaPad*%
%ADD36C,0.800000*%
%TD*%
%TA.AperFunction,Conductor*%
%ADD37C,0.500000*%
%TD*%
%TA.AperFunction,Conductor*%
%ADD38C,0.300000*%
%TD*%
%TA.AperFunction,Conductor*%
%ADD39C,0.250000*%
%TD*%
G04 APERTURE END LIST*
D10*
%TO.C,J1*%
X94805000Y-121971001D02*
X94829000Y-121972000D01*
X94852000Y-121973000D01*
X94875000Y-121977000D01*
X94899000Y-121981000D01*
X94921000Y-121986000D01*
X94944000Y-121993000D01*
X94966000Y-122001000D01*
X94988000Y-122010000D01*
X95009000Y-122020000D01*
X95030000Y-122031000D01*
X95050001Y-122044000D01*
X95070000Y-122057000D01*
X95088000Y-122071000D01*
X95106000Y-122087000D01*
X95123000Y-122103000D01*
X95139000Y-122120000D01*
X95155000Y-122138000D01*
X95169000Y-122156000D01*
X95182000Y-122176000D01*
X95195000Y-122196000D01*
X95206000Y-122217000D01*
X95216000Y-122238000D01*
X95225000Y-122260000D01*
X95233000Y-122282000D01*
X95240000Y-122305000D01*
X95245000Y-122327001D01*
X95249000Y-122351000D01*
X95253000Y-122374000D01*
X95254000Y-122397000D01*
X95255000Y-122421000D01*
X95254000Y-122445000D01*
X95253000Y-122468000D01*
X95249000Y-122491001D01*
X95245000Y-122515000D01*
X95239999Y-122537000D01*
X95233000Y-122560000D01*
X95225000Y-122582000D01*
X95216000Y-122604000D01*
X95206000Y-122625000D01*
X95195000Y-122646000D01*
X95182000Y-122666000D01*
X95169000Y-122686000D01*
X95155000Y-122704000D01*
X95139000Y-122722000D01*
X95123000Y-122739001D01*
X95106000Y-122755000D01*
X95088000Y-122771000D01*
X95070000Y-122785000D01*
X95050000Y-122798000D01*
X95030000Y-122811000D01*
X95009000Y-122822000D01*
X94988000Y-122832000D01*
X94966001Y-122841000D01*
X94944000Y-122849000D01*
X94921000Y-122856000D01*
X94899000Y-122861000D01*
X94875000Y-122865001D01*
X94851999Y-122869000D01*
X94829000Y-122870000D01*
X94805000Y-122871000D01*
X93705000Y-122871000D01*
X93681000Y-122870001D01*
X93658000Y-122869000D01*
X93635000Y-122865000D01*
X93611000Y-122861000D01*
X93589000Y-122856000D01*
X93566000Y-122849000D01*
X93544000Y-122841000D01*
X93522000Y-122832001D01*
X93501000Y-122822000D01*
X93480000Y-122811000D01*
X93460000Y-122798000D01*
X93440000Y-122785000D01*
X93422000Y-122771000D01*
X93404000Y-122755000D01*
X93387000Y-122739000D01*
X93371000Y-122722000D01*
X93355000Y-122704000D01*
X93341001Y-122686000D01*
X93328000Y-122666000D01*
X93315000Y-122646000D01*
X93304000Y-122625000D01*
X93294000Y-122604000D01*
X93285001Y-122582000D01*
X93277000Y-122560000D01*
X93270000Y-122537000D01*
X93265000Y-122515000D01*
X93261000Y-122491000D01*
X93257000Y-122468000D01*
X93256000Y-122445000D01*
X93255000Y-122421000D01*
X93256000Y-122397001D01*
X93257000Y-122374000D01*
X93261000Y-122351000D01*
X93265000Y-122327000D01*
X93270000Y-122305000D01*
X93277000Y-122282000D01*
X93285000Y-122260000D01*
X93294000Y-122238001D01*
X93304000Y-122217000D01*
X93315000Y-122196000D01*
X93328000Y-122176000D01*
X93341000Y-122156000D01*
X93355001Y-122138000D01*
X93371000Y-122120000D01*
X93387000Y-122103000D01*
X93404000Y-122087000D01*
X93422000Y-122071000D01*
X93440000Y-122057000D01*
X93460000Y-122044000D01*
X93479999Y-122031000D01*
X93501000Y-122020000D01*
X93522000Y-122010000D01*
X93544000Y-122001000D01*
X93566000Y-121993000D01*
X93589000Y-121986000D01*
X93611000Y-121981000D01*
X93635000Y-121977000D01*
X93658000Y-121973000D01*
X93681000Y-121972000D01*
X93705000Y-121971000D01*
X94805000Y-121971001D01*
%TA.AperFunction,EtchedComponent*%
G36*
X94805000Y-121971001D02*
G01*
X94829000Y-121972000D01*
X94852000Y-121973000D01*
X94875000Y-121977000D01*
X94899000Y-121981000D01*
X94921000Y-121986000D01*
X94944000Y-121993000D01*
X94966000Y-122001000D01*
X94988000Y-122010000D01*
X95009000Y-122020000D01*
X95030000Y-122031000D01*
X95050001Y-122044000D01*
X95070000Y-122057000D01*
X95088000Y-122071000D01*
X95106000Y-122087000D01*
X95123000Y-122103000D01*
X95139000Y-122120000D01*
X95155000Y-122138000D01*
X95169000Y-122156000D01*
X95182000Y-122176000D01*
X95195000Y-122196000D01*
X95206000Y-122217000D01*
X95216000Y-122238000D01*
X95225000Y-122260000D01*
X95233000Y-122282000D01*
X95240000Y-122305000D01*
X95245000Y-122327001D01*
X95249000Y-122351000D01*
X95253000Y-122374000D01*
X95254000Y-122397000D01*
X95255000Y-122421000D01*
X95254000Y-122445000D01*
X95253000Y-122468000D01*
X95249000Y-122491001D01*
X95245000Y-122515000D01*
X95239999Y-122537000D01*
X95233000Y-122560000D01*
X95225000Y-122582000D01*
X95216000Y-122604000D01*
X95206000Y-122625000D01*
X95195000Y-122646000D01*
X95182000Y-122666000D01*
X95169000Y-122686000D01*
X95155000Y-122704000D01*
X95139000Y-122722000D01*
X95123000Y-122739001D01*
X95106000Y-122755000D01*
X95088000Y-122771000D01*
X95070000Y-122785000D01*
X95050000Y-122798000D01*
X95030000Y-122811000D01*
X95009000Y-122822000D01*
X94988000Y-122832000D01*
X94966001Y-122841000D01*
X94944000Y-122849000D01*
X94921000Y-122856000D01*
X94899000Y-122861000D01*
X94875000Y-122865001D01*
X94851999Y-122869000D01*
X94829000Y-122870000D01*
X94805000Y-122871000D01*
X93705000Y-122871000D01*
X93681000Y-122870001D01*
X93658000Y-122869000D01*
X93635000Y-122865000D01*
X93611000Y-122861000D01*
X93589000Y-122856000D01*
X93566000Y-122849000D01*
X93544000Y-122841000D01*
X93522000Y-122832001D01*
X93501000Y-122822000D01*
X93480000Y-122811000D01*
X93460000Y-122798000D01*
X93440000Y-122785000D01*
X93422000Y-122771000D01*
X93404000Y-122755000D01*
X93387000Y-122739000D01*
X93371000Y-122722000D01*
X93355000Y-122704000D01*
X93341001Y-122686000D01*
X93328000Y-122666000D01*
X93315000Y-122646000D01*
X93304000Y-122625000D01*
X93294000Y-122604000D01*
X93285001Y-122582000D01*
X93277000Y-122560000D01*
X93270000Y-122537000D01*
X93265000Y-122515000D01*
X93261000Y-122491000D01*
X93257000Y-122468000D01*
X93256000Y-122445000D01*
X93255000Y-122421000D01*
X93256000Y-122397001D01*
X93257000Y-122374000D01*
X93261000Y-122351000D01*
X93265000Y-122327000D01*
X93270000Y-122305000D01*
X93277000Y-122282000D01*
X93285000Y-122260000D01*
X93294000Y-122238001D01*
X93304000Y-122217000D01*
X93315000Y-122196000D01*
X93328000Y-122176000D01*
X93341000Y-122156000D01*
X93355001Y-122138000D01*
X93371000Y-122120000D01*
X93387000Y-122103000D01*
X93404000Y-122087000D01*
X93422000Y-122071000D01*
X93440000Y-122057000D01*
X93460000Y-122044000D01*
X93479999Y-122031000D01*
X93501000Y-122020000D01*
X93522000Y-122010000D01*
X93544000Y-122001000D01*
X93566000Y-121993000D01*
X93589000Y-121986000D01*
X93611000Y-121981000D01*
X93635000Y-121977000D01*
X93658000Y-121973000D01*
X93681000Y-121972000D01*
X93705000Y-121971000D01*
X94805000Y-121971001D01*
G37*
%TD.AperFunction*%
X94829000Y-130622000D02*
X94851999Y-130623000D01*
X94875000Y-130626999D01*
X94899000Y-130631000D01*
X94921000Y-130636000D01*
X94944000Y-130643000D01*
X94966001Y-130651000D01*
X94988000Y-130660000D01*
X95009000Y-130670000D01*
X95030000Y-130681000D01*
X95050000Y-130694000D01*
X95070000Y-130707000D01*
X95088000Y-130721000D01*
X95106000Y-130737000D01*
X95123000Y-130752999D01*
X95139000Y-130770000D01*
X95155000Y-130788000D01*
X95169000Y-130806000D01*
X95182000Y-130826000D01*
X95195000Y-130846000D01*
X95206000Y-130867000D01*
X95216000Y-130888000D01*
X95225000Y-130910000D01*
X95233000Y-130932000D01*
X95239999Y-130955000D01*
X95245000Y-130977000D01*
X95249000Y-131000999D01*
X95253000Y-131024000D01*
X95254000Y-131047000D01*
X95255000Y-131071000D01*
X95254000Y-131095000D01*
X95253000Y-131118000D01*
X95249000Y-131141000D01*
X95245000Y-131164999D01*
X95240000Y-131187000D01*
X95233000Y-131210000D01*
X95225000Y-131232000D01*
X95216000Y-131254000D01*
X95206000Y-131275000D01*
X95195000Y-131296000D01*
X95182000Y-131316000D01*
X95169000Y-131336000D01*
X95155000Y-131354000D01*
X95139000Y-131372000D01*
X95123000Y-131389000D01*
X95106000Y-131405000D01*
X95088000Y-131421000D01*
X95070000Y-131435000D01*
X95050001Y-131448000D01*
X95030000Y-131461000D01*
X95009000Y-131472000D01*
X94988000Y-131482000D01*
X94966000Y-131491000D01*
X94944000Y-131499000D01*
X94921000Y-131506000D01*
X94899000Y-131511000D01*
X94875000Y-131515000D01*
X94852000Y-131519000D01*
X94829000Y-131520000D01*
X94805000Y-131520999D01*
X93705000Y-131521000D01*
X93681000Y-131520000D01*
X93658000Y-131519000D01*
X93635000Y-131515000D01*
X93611000Y-131511000D01*
X93589000Y-131506000D01*
X93566000Y-131499000D01*
X93544000Y-131491000D01*
X93522000Y-131482000D01*
X93501000Y-131472000D01*
X93479999Y-131461000D01*
X93460000Y-131448000D01*
X93440000Y-131435000D01*
X93422000Y-131421000D01*
X93404000Y-131405000D01*
X93387000Y-131389000D01*
X93371000Y-131372000D01*
X93355001Y-131354000D01*
X93341000Y-131336000D01*
X93328000Y-131316000D01*
X93315000Y-131296000D01*
X93304000Y-131275000D01*
X93294000Y-131253999D01*
X93285000Y-131232000D01*
X93277000Y-131210000D01*
X93270000Y-131187000D01*
X93265000Y-131165000D01*
X93261000Y-131141000D01*
X93257000Y-131118000D01*
X93256000Y-131094999D01*
X93255000Y-131071000D01*
X93256000Y-131047000D01*
X93257000Y-131024000D01*
X93261000Y-131001000D01*
X93265000Y-130977000D01*
X93270000Y-130955000D01*
X93277000Y-130932000D01*
X93285001Y-130910000D01*
X93294000Y-130888000D01*
X93304000Y-130867000D01*
X93315000Y-130846000D01*
X93328000Y-130826000D01*
X93341001Y-130806000D01*
X93355000Y-130788000D01*
X93371000Y-130770000D01*
X93387000Y-130753000D01*
X93404000Y-130737000D01*
X93422000Y-130721000D01*
X93440000Y-130707000D01*
X93460000Y-130694000D01*
X93480000Y-130681000D01*
X93501000Y-130670000D01*
X93522000Y-130659999D01*
X93544000Y-130651000D01*
X93566000Y-130643000D01*
X93589000Y-130636000D01*
X93611000Y-130631000D01*
X93635000Y-130627000D01*
X93658000Y-130623000D01*
X93681000Y-130621999D01*
X93705000Y-130621000D01*
X94805000Y-130621000D01*
X94829000Y-130622000D01*
%TA.AperFunction,EtchedComponent*%
G36*
X94829000Y-130622000D02*
G01*
X94851999Y-130623000D01*
X94875000Y-130626999D01*
X94899000Y-130631000D01*
X94921000Y-130636000D01*
X94944000Y-130643000D01*
X94966001Y-130651000D01*
X94988000Y-130660000D01*
X95009000Y-130670000D01*
X95030000Y-130681000D01*
X95050000Y-130694000D01*
X95070000Y-130707000D01*
X95088000Y-130721000D01*
X95106000Y-130737000D01*
X95123000Y-130752999D01*
X95139000Y-130770000D01*
X95155000Y-130788000D01*
X95169000Y-130806000D01*
X95182000Y-130826000D01*
X95195000Y-130846000D01*
X95206000Y-130867000D01*
X95216000Y-130888000D01*
X95225000Y-130910000D01*
X95233000Y-130932000D01*
X95239999Y-130955000D01*
X95245000Y-130977000D01*
X95249000Y-131000999D01*
X95253000Y-131024000D01*
X95254000Y-131047000D01*
X95255000Y-131071000D01*
X95254000Y-131095000D01*
X95253000Y-131118000D01*
X95249000Y-131141000D01*
X95245000Y-131164999D01*
X95240000Y-131187000D01*
X95233000Y-131210000D01*
X95225000Y-131232000D01*
X95216000Y-131254000D01*
X95206000Y-131275000D01*
X95195000Y-131296000D01*
X95182000Y-131316000D01*
X95169000Y-131336000D01*
X95155000Y-131354000D01*
X95139000Y-131372000D01*
X95123000Y-131389000D01*
X95106000Y-131405000D01*
X95088000Y-131421000D01*
X95070000Y-131435000D01*
X95050001Y-131448000D01*
X95030000Y-131461000D01*
X95009000Y-131472000D01*
X94988000Y-131482000D01*
X94966000Y-131491000D01*
X94944000Y-131499000D01*
X94921000Y-131506000D01*
X94899000Y-131511000D01*
X94875000Y-131515000D01*
X94852000Y-131519000D01*
X94829000Y-131520000D01*
X94805000Y-131520999D01*
X93705000Y-131521000D01*
X93681000Y-131520000D01*
X93658000Y-131519000D01*
X93635000Y-131515000D01*
X93611000Y-131511000D01*
X93589000Y-131506000D01*
X93566000Y-131499000D01*
X93544000Y-131491000D01*
X93522000Y-131482000D01*
X93501000Y-131472000D01*
X93479999Y-131461000D01*
X93460000Y-131448000D01*
X93440000Y-131435000D01*
X93422000Y-131421000D01*
X93404000Y-131405000D01*
X93387000Y-131389000D01*
X93371000Y-131372000D01*
X93355001Y-131354000D01*
X93341000Y-131336000D01*
X93328000Y-131316000D01*
X93315000Y-131296000D01*
X93304000Y-131275000D01*
X93294000Y-131253999D01*
X93285000Y-131232000D01*
X93277000Y-131210000D01*
X93270000Y-131187000D01*
X93265000Y-131165000D01*
X93261000Y-131141000D01*
X93257000Y-131118000D01*
X93256000Y-131094999D01*
X93255000Y-131071000D01*
X93256000Y-131047000D01*
X93257000Y-131024000D01*
X93261000Y-131001000D01*
X93265000Y-130977000D01*
X93270000Y-130955000D01*
X93277000Y-130932000D01*
X93285001Y-130910000D01*
X93294000Y-130888000D01*
X93304000Y-130867000D01*
X93315000Y-130846000D01*
X93328000Y-130826000D01*
X93341001Y-130806000D01*
X93355000Y-130788000D01*
X93371000Y-130770000D01*
X93387000Y-130753000D01*
X93404000Y-130737000D01*
X93422000Y-130721000D01*
X93440000Y-130707000D01*
X93460000Y-130694000D01*
X93480000Y-130681000D01*
X93501000Y-130670000D01*
X93522000Y-130659999D01*
X93544000Y-130651000D01*
X93566000Y-130643000D01*
X93589000Y-130636000D01*
X93611000Y-130631000D01*
X93635000Y-130627000D01*
X93658000Y-130623000D01*
X93681000Y-130621999D01*
X93705000Y-130621000D01*
X94805000Y-130621000D01*
X94829000Y-130622000D01*
G37*
%TD.AperFunction*%
X98849000Y-121972000D02*
X98872000Y-121973000D01*
X98895000Y-121977000D01*
X98919000Y-121981000D01*
X98941000Y-121986000D01*
X98964000Y-121993000D01*
X98986000Y-122001000D01*
X99008000Y-122010000D01*
X99029000Y-122020000D01*
X99050000Y-122031000D01*
X99070000Y-122044000D01*
X99090000Y-122057000D01*
X99108000Y-122071000D01*
X99125999Y-122087000D01*
X99143000Y-122103000D01*
X99158999Y-122120000D01*
X99175000Y-122138000D01*
X99189000Y-122155999D01*
X99202000Y-122176000D01*
X99215000Y-122196001D01*
X99226000Y-122217000D01*
X99236000Y-122238000D01*
X99245001Y-122260000D01*
X99253000Y-122282000D01*
X99260000Y-122305000D01*
X99265000Y-122327000D01*
X99269000Y-122351000D01*
X99273000Y-122374000D01*
X99274000Y-122397000D01*
X99275000Y-122421000D01*
X99274000Y-122445000D01*
X99273000Y-122468000D01*
X99269000Y-122491001D01*
X99265000Y-122515000D01*
X99260000Y-122537000D01*
X99252999Y-122560000D01*
X99245000Y-122582000D01*
X99236000Y-122604000D01*
X99226000Y-122624999D01*
X99215000Y-122646000D01*
X99202000Y-122666000D01*
X99189000Y-122686000D01*
X99175000Y-122703999D01*
X99159000Y-122722000D01*
X99143000Y-122739000D01*
X99126000Y-122755000D01*
X99107999Y-122771000D01*
X99090000Y-122785000D01*
X99069999Y-122798000D01*
X99050000Y-122811000D01*
X99029000Y-122821999D01*
X99008000Y-122832000D01*
X98986000Y-122841000D01*
X98964000Y-122848999D01*
X98941000Y-122856001D01*
X98919000Y-122861000D01*
X98895000Y-122865000D01*
X98872000Y-122869000D01*
X98849000Y-122870000D01*
X98825000Y-122871000D01*
X98025000Y-122871000D01*
X98001000Y-122870000D01*
X97978000Y-122869000D01*
X97955000Y-122865000D01*
X97931000Y-122861000D01*
X97909000Y-122856001D01*
X97886000Y-122848999D01*
X97864000Y-122841000D01*
X97842000Y-122832000D01*
X97821000Y-122821999D01*
X97800000Y-122811000D01*
X97780001Y-122798000D01*
X97760000Y-122785000D01*
X97742001Y-122771000D01*
X97724000Y-122755000D01*
X97707000Y-122739000D01*
X97691000Y-122722000D01*
X97675000Y-122703999D01*
X97661000Y-122686000D01*
X97648000Y-122666000D01*
X97635000Y-122646000D01*
X97624000Y-122624999D01*
X97614000Y-122604000D01*
X97605000Y-122582000D01*
X97597001Y-122560000D01*
X97590000Y-122537000D01*
X97585000Y-122515000D01*
X97581000Y-122491001D01*
X97577000Y-122468000D01*
X97576000Y-122445000D01*
X97575000Y-122421000D01*
X97576000Y-122397000D01*
X97577000Y-122374000D01*
X97581000Y-122351000D01*
X97585000Y-122327000D01*
X97590000Y-122305000D01*
X97597000Y-122282000D01*
X97604999Y-122260000D01*
X97614000Y-122238000D01*
X97624000Y-122217000D01*
X97635000Y-122196001D01*
X97648000Y-122176000D01*
X97661000Y-122155999D01*
X97675000Y-122138000D01*
X97691001Y-122120000D01*
X97707000Y-122103000D01*
X97724001Y-122087000D01*
X97742000Y-122071000D01*
X97760000Y-122057000D01*
X97780000Y-122044000D01*
X97800000Y-122031000D01*
X97821000Y-122020000D01*
X97842000Y-122010000D01*
X97864000Y-122001000D01*
X97886000Y-121993000D01*
X97909000Y-121986000D01*
X97931000Y-121981000D01*
X97955000Y-121977000D01*
X97978000Y-121973000D01*
X98001000Y-121972000D01*
X98025000Y-121971000D01*
X98825000Y-121971000D01*
X98849000Y-121972000D01*
%TA.AperFunction,EtchedComponent*%
G36*
X98849000Y-121972000D02*
G01*
X98872000Y-121973000D01*
X98895000Y-121977000D01*
X98919000Y-121981000D01*
X98941000Y-121986000D01*
X98964000Y-121993000D01*
X98986000Y-122001000D01*
X99008000Y-122010000D01*
X99029000Y-122020000D01*
X99050000Y-122031000D01*
X99070000Y-122044000D01*
X99090000Y-122057000D01*
X99108000Y-122071000D01*
X99125999Y-122087000D01*
X99143000Y-122103000D01*
X99158999Y-122120000D01*
X99175000Y-122138000D01*
X99189000Y-122155999D01*
X99202000Y-122176000D01*
X99215000Y-122196001D01*
X99226000Y-122217000D01*
X99236000Y-122238000D01*
X99245001Y-122260000D01*
X99253000Y-122282000D01*
X99260000Y-122305000D01*
X99265000Y-122327000D01*
X99269000Y-122351000D01*
X99273000Y-122374000D01*
X99274000Y-122397000D01*
X99275000Y-122421000D01*
X99274000Y-122445000D01*
X99273000Y-122468000D01*
X99269000Y-122491001D01*
X99265000Y-122515000D01*
X99260000Y-122537000D01*
X99252999Y-122560000D01*
X99245000Y-122582000D01*
X99236000Y-122604000D01*
X99226000Y-122624999D01*
X99215000Y-122646000D01*
X99202000Y-122666000D01*
X99189000Y-122686000D01*
X99175000Y-122703999D01*
X99159000Y-122722000D01*
X99143000Y-122739000D01*
X99126000Y-122755000D01*
X99107999Y-122771000D01*
X99090000Y-122785000D01*
X99069999Y-122798000D01*
X99050000Y-122811000D01*
X99029000Y-122821999D01*
X99008000Y-122832000D01*
X98986000Y-122841000D01*
X98964000Y-122848999D01*
X98941000Y-122856001D01*
X98919000Y-122861000D01*
X98895000Y-122865000D01*
X98872000Y-122869000D01*
X98849000Y-122870000D01*
X98825000Y-122871000D01*
X98025000Y-122871000D01*
X98001000Y-122870000D01*
X97978000Y-122869000D01*
X97955000Y-122865000D01*
X97931000Y-122861000D01*
X97909000Y-122856001D01*
X97886000Y-122848999D01*
X97864000Y-122841000D01*
X97842000Y-122832000D01*
X97821000Y-122821999D01*
X97800000Y-122811000D01*
X97780001Y-122798000D01*
X97760000Y-122785000D01*
X97742001Y-122771000D01*
X97724000Y-122755000D01*
X97707000Y-122739000D01*
X97691000Y-122722000D01*
X97675000Y-122703999D01*
X97661000Y-122686000D01*
X97648000Y-122666000D01*
X97635000Y-122646000D01*
X97624000Y-122624999D01*
X97614000Y-122604000D01*
X97605000Y-122582000D01*
X97597001Y-122560000D01*
X97590000Y-122537000D01*
X97585000Y-122515000D01*
X97581000Y-122491001D01*
X97577000Y-122468000D01*
X97576000Y-122445000D01*
X97575000Y-122421000D01*
X97576000Y-122397000D01*
X97577000Y-122374000D01*
X97581000Y-122351000D01*
X97585000Y-122327000D01*
X97590000Y-122305000D01*
X97597000Y-122282000D01*
X97604999Y-122260000D01*
X97614000Y-122238000D01*
X97624000Y-122217000D01*
X97635000Y-122196001D01*
X97648000Y-122176000D01*
X97661000Y-122155999D01*
X97675000Y-122138000D01*
X97691001Y-122120000D01*
X97707000Y-122103000D01*
X97724001Y-122087000D01*
X97742000Y-122071000D01*
X97760000Y-122057000D01*
X97780000Y-122044000D01*
X97800000Y-122031000D01*
X97821000Y-122020000D01*
X97842000Y-122010000D01*
X97864000Y-122001000D01*
X97886000Y-121993000D01*
X97909000Y-121986000D01*
X97931000Y-121981000D01*
X97955000Y-121977000D01*
X97978000Y-121973000D01*
X98001000Y-121972000D01*
X98025000Y-121971000D01*
X98825000Y-121971000D01*
X98849000Y-121972000D01*
G37*
%TD.AperFunction*%
X98849000Y-130622000D02*
X98872000Y-130623000D01*
X98895000Y-130627000D01*
X98919000Y-130631000D01*
X98941000Y-130635999D01*
X98964000Y-130643001D01*
X98986000Y-130651000D01*
X99008000Y-130660000D01*
X99029000Y-130670001D01*
X99050000Y-130681000D01*
X99069999Y-130694000D01*
X99090000Y-130707000D01*
X99107999Y-130721000D01*
X99126000Y-130737000D01*
X99143000Y-130753000D01*
X99159000Y-130770000D01*
X99175000Y-130788001D01*
X99189000Y-130806000D01*
X99202000Y-130826000D01*
X99215000Y-130846000D01*
X99226000Y-130867001D01*
X99236000Y-130888000D01*
X99245000Y-130910000D01*
X99252999Y-130932000D01*
X99260000Y-130955000D01*
X99265000Y-130977000D01*
X99269000Y-131000999D01*
X99273000Y-131024000D01*
X99274000Y-131047000D01*
X99275000Y-131071000D01*
X99274000Y-131095000D01*
X99273000Y-131118000D01*
X99269000Y-131141000D01*
X99265000Y-131165000D01*
X99260000Y-131187000D01*
X99253000Y-131210000D01*
X99245001Y-131232000D01*
X99236000Y-131254000D01*
X99226000Y-131275000D01*
X99215000Y-131295999D01*
X99202000Y-131316000D01*
X99189000Y-131336001D01*
X99175000Y-131354000D01*
X99158999Y-131372000D01*
X99143000Y-131389000D01*
X99125999Y-131405000D01*
X99108000Y-131421000D01*
X99090000Y-131435000D01*
X99070000Y-131448000D01*
X99050000Y-131461000D01*
X99029000Y-131472000D01*
X99008000Y-131482000D01*
X98986000Y-131491000D01*
X98964000Y-131499000D01*
X98941000Y-131506000D01*
X98919000Y-131511000D01*
X98895000Y-131515000D01*
X98872000Y-131519000D01*
X98849000Y-131520000D01*
X98825000Y-131521000D01*
X98025000Y-131521000D01*
X98001000Y-131520000D01*
X97978000Y-131519000D01*
X97955000Y-131515000D01*
X97931000Y-131511000D01*
X97909000Y-131506000D01*
X97886000Y-131499000D01*
X97864000Y-131491000D01*
X97842000Y-131482000D01*
X97821000Y-131472000D01*
X97800000Y-131461000D01*
X97780000Y-131448000D01*
X97760000Y-131435000D01*
X97742000Y-131421000D01*
X97724001Y-131405000D01*
X97707000Y-131389000D01*
X97691001Y-131372000D01*
X97675000Y-131354000D01*
X97661000Y-131336001D01*
X97648000Y-131316000D01*
X97635000Y-131295999D01*
X97624000Y-131275000D01*
X97614000Y-131254000D01*
X97604999Y-131232000D01*
X97597000Y-131210000D01*
X97590000Y-131187000D01*
X97585000Y-131165000D01*
X97581000Y-131141000D01*
X97577000Y-131118000D01*
X97576000Y-131095000D01*
X97575000Y-131071000D01*
X97576000Y-131047000D01*
X97577000Y-131024000D01*
X97581000Y-131000999D01*
X97585000Y-130977000D01*
X97590000Y-130955000D01*
X97597001Y-130932000D01*
X97605000Y-130910000D01*
X97614000Y-130888000D01*
X97624000Y-130867001D01*
X97635000Y-130846000D01*
X97648000Y-130826000D01*
X97661000Y-130806000D01*
X97675000Y-130788001D01*
X97691000Y-130770000D01*
X97707000Y-130753000D01*
X97724000Y-130737000D01*
X97742001Y-130721000D01*
X97760000Y-130707000D01*
X97780001Y-130694000D01*
X97800000Y-130681000D01*
X97821000Y-130670001D01*
X97842000Y-130660000D01*
X97864000Y-130651000D01*
X97886000Y-130643001D01*
X97909000Y-130635999D01*
X97931000Y-130631000D01*
X97955000Y-130627000D01*
X97978000Y-130623000D01*
X98001000Y-130622000D01*
X98025000Y-130621000D01*
X98825000Y-130621000D01*
X98849000Y-130622000D01*
%TA.AperFunction,EtchedComponent*%
G36*
X98849000Y-130622000D02*
G01*
X98872000Y-130623000D01*
X98895000Y-130627000D01*
X98919000Y-130631000D01*
X98941000Y-130635999D01*
X98964000Y-130643001D01*
X98986000Y-130651000D01*
X99008000Y-130660000D01*
X99029000Y-130670001D01*
X99050000Y-130681000D01*
X99069999Y-130694000D01*
X99090000Y-130707000D01*
X99107999Y-130721000D01*
X99126000Y-130737000D01*
X99143000Y-130753000D01*
X99159000Y-130770000D01*
X99175000Y-130788001D01*
X99189000Y-130806000D01*
X99202000Y-130826000D01*
X99215000Y-130846000D01*
X99226000Y-130867001D01*
X99236000Y-130888000D01*
X99245000Y-130910000D01*
X99252999Y-130932000D01*
X99260000Y-130955000D01*
X99265000Y-130977000D01*
X99269000Y-131000999D01*
X99273000Y-131024000D01*
X99274000Y-131047000D01*
X99275000Y-131071000D01*
X99274000Y-131095000D01*
X99273000Y-131118000D01*
X99269000Y-131141000D01*
X99265000Y-131165000D01*
X99260000Y-131187000D01*
X99253000Y-131210000D01*
X99245001Y-131232000D01*
X99236000Y-131254000D01*
X99226000Y-131275000D01*
X99215000Y-131295999D01*
X99202000Y-131316000D01*
X99189000Y-131336001D01*
X99175000Y-131354000D01*
X99158999Y-131372000D01*
X99143000Y-131389000D01*
X99125999Y-131405000D01*
X99108000Y-131421000D01*
X99090000Y-131435000D01*
X99070000Y-131448000D01*
X99050000Y-131461000D01*
X99029000Y-131472000D01*
X99008000Y-131482000D01*
X98986000Y-131491000D01*
X98964000Y-131499000D01*
X98941000Y-131506000D01*
X98919000Y-131511000D01*
X98895000Y-131515000D01*
X98872000Y-131519000D01*
X98849000Y-131520000D01*
X98825000Y-131521000D01*
X98025000Y-131521000D01*
X98001000Y-131520000D01*
X97978000Y-131519000D01*
X97955000Y-131515000D01*
X97931000Y-131511000D01*
X97909000Y-131506000D01*
X97886000Y-131499000D01*
X97864000Y-131491000D01*
X97842000Y-131482000D01*
X97821000Y-131472000D01*
X97800000Y-131461000D01*
X97780000Y-131448000D01*
X97760000Y-131435000D01*
X97742000Y-131421000D01*
X97724001Y-131405000D01*
X97707000Y-131389000D01*
X97691001Y-131372000D01*
X97675000Y-131354000D01*
X97661000Y-131336001D01*
X97648000Y-131316000D01*
X97635000Y-131295999D01*
X97624000Y-131275000D01*
X97614000Y-131254000D01*
X97604999Y-131232000D01*
X97597000Y-131210000D01*
X97590000Y-131187000D01*
X97585000Y-131165000D01*
X97581000Y-131141000D01*
X97577000Y-131118000D01*
X97576000Y-131095000D01*
X97575000Y-131071000D01*
X97576000Y-131047000D01*
X97577000Y-131024000D01*
X97581000Y-131000999D01*
X97585000Y-130977000D01*
X97590000Y-130955000D01*
X97597001Y-130932000D01*
X97605000Y-130910000D01*
X97614000Y-130888000D01*
X97624000Y-130867001D01*
X97635000Y-130846000D01*
X97648000Y-130826000D01*
X97661000Y-130806000D01*
X97675000Y-130788001D01*
X97691000Y-130770000D01*
X97707000Y-130753000D01*
X97724000Y-130737000D01*
X97742001Y-130721000D01*
X97760000Y-130707000D01*
X97780001Y-130694000D01*
X97800000Y-130681000D01*
X97821000Y-130670001D01*
X97842000Y-130660000D01*
X97864000Y-130651000D01*
X97886000Y-130643001D01*
X97909000Y-130635999D01*
X97931000Y-130631000D01*
X97955000Y-130627000D01*
X97978000Y-130623000D01*
X98001000Y-130622000D01*
X98025000Y-130621000D01*
X98825000Y-130621000D01*
X98849000Y-130622000D01*
G37*
%TD.AperFunction*%
%TD*%
D11*
%TO.P,L8,1,1*%
%TO.N,Net-(D6-K)*%
X80919379Y-117810221D03*
%TO.P,L8,2,2*%
%TO.N,+3V9*%
X73919021Y-124810579D03*
%TD*%
D12*
%TO.P,J6,1,Pin_1*%
%TO.N,+BATT*%
X47939985Y-113151652D03*
D13*
%TO.P,J6,2,Pin_2*%
%TO.N,/HV_SUPPLY*%
X47239865Y-115593256D03*
%TO.P,J6,3,Pin_3*%
%TO.N,VBUS*%
X46539748Y-118034859D03*
%TD*%
D14*
%TO.P,SWD1,1,Pin_1*%
%TO.N,FEM_VPC*%
X66802000Y-153162000D03*
D15*
%TO.P,SWD1,2,Pin_2*%
%TO.N,/SWCLK*%
X69342000Y-153162000D03*
%TO.P,SWD1,3,Pin_3*%
%TO.N,GND*%
X71881999Y-153162000D03*
%TO.P,SWD1,4,Pin_4*%
%TO.N,/SWDIO*%
X74422000Y-153162000D03*
%TO.P,SWD1,5,Pin_5*%
%TO.N,/NRST*%
X76962000Y-153162000D03*
%TD*%
D16*
%TO.P,J4,1,Pin_1*%
%TO.N,+BATT*%
X56007000Y-104013000D03*
%TD*%
D17*
%TO.P,P1,1,Pin_1*%
%TO.N,Net-(P1-Pin_1)*%
X47752000Y-126746000D03*
D18*
%TO.P,P1,2*%
%TO.N,N/C*%
X45212000Y-124206000D03*
X45212000Y-129286000D03*
X50292000Y-124206000D03*
X50292000Y-129286000D03*
%TD*%
D19*
%TO.P,J5,1,Pin_1*%
%TO.N,GND*%
X50927000Y-108839000D03*
%TD*%
D20*
%TO.P,J1,S1,SHIELD*%
%TO.N,GND*%
X94255000Y-131071000D03*
%TO.P,J1,S2,SHIELD*%
X94255000Y-122421000D03*
%TO.P,J1,S3,SHIELD*%
X98425000Y-131071000D03*
%TO.P,J1,S4,SHIELD*%
X98425000Y-122421000D03*
%TD*%
D21*
%TO.P,C48,1*%
%TO.N,FEM_VPC*%
X99060000Y-117795001D03*
%TO.P,C48,2*%
%TO.N,GND*%
X99060000Y-119694999D03*
%TD*%
D22*
%TO.P,D6,1,K*%
%TO.N,Net-(D6-K)*%
X60942786Y-115679786D03*
%TO.P,D6,2,A*%
%TO.N,GND*%
X63771214Y-118508214D03*
%TD*%
D23*
%TO.P,R17,1*%
%TO.N,Net-(U5-FB)*%
X83306976Y-114244176D03*
%TO.P,R17,2*%
%TO.N,+3V9*%
X84028224Y-114965424D03*
%TD*%
D24*
%TO.P,C45,1*%
%TO.N,GND*%
X61631751Y-100166249D03*
%TO.P,C45,2*%
%TO.N,/HV_SUPPLY*%
X60288249Y-101509751D03*
%TD*%
D23*
%TO.P,R16,1*%
%TO.N,GND*%
X81884576Y-112821776D03*
%TO.P,R16,2*%
%TO.N,Net-(U5-FB)*%
X82605824Y-113543024D03*
%TD*%
D25*
%TO.P,U6,1,GND*%
%TO.N,GND*%
X96622000Y-114286000D03*
%TO.P,U6,2,VO*%
%TO.N,FEM_VPC*%
X96621999Y-116586000D03*
D26*
X90322001Y-116586000D03*
D25*
%TO.P,U6,3,VI*%
%TO.N,+3V9*%
X96622000Y-118886000D03*
%TD*%
D27*
%TO.P,R18,1*%
%TO.N,FEM_VPC*%
X98806000Y-116460999D03*
%TO.P,R18,2*%
%TO.N,GND*%
X98806000Y-115441001D03*
%TD*%
D28*
%TO.P,R1,1*%
%TO.N,/NRST*%
X83822000Y-130937000D03*
%TO.P,R1,2*%
%TO.N,FEM_VPC*%
X82802000Y-130937000D03*
%TD*%
D29*
%TO.P,U5,1,VIN*%
%TO.N,/HV_SUPPLY*%
X60060295Y-109064621D03*
%TO.P,U5,2,OUT*%
%TO.N,Net-(D6-K)*%
X61262377Y-107862540D03*
%TO.P,U5,3,GND*%
%TO.N,GND*%
X62464458Y-106660458D03*
D30*
X69181973Y-109453530D03*
X65257530Y-113377973D03*
D31*
X68934485Y-113130485D03*
D30*
X72611440Y-112882998D03*
X68686998Y-116807440D03*
D29*
%TO.P,U5,4,FB*%
%TO.N,Net-(U5-FB)*%
X63666540Y-105458377D03*
%TO.P,U5,5,~{ON}/OFF*%
%TO.N,GND*%
X64868621Y-104256295D03*
%TD*%
D32*
%TO.P,J2,1,Pin_1*%
%TO.N,FEM_VPC*%
X88138000Y-104013000D03*
%TD*%
D33*
%TO.P,J3,1,Pin_1*%
%TO.N,GND*%
X93218000Y-108839000D03*
%TD*%
D34*
%TO.P,C46,1*%
%TO.N,GND*%
X63831966Y-136421635D03*
%TO.P,C46,2*%
%TO.N,+3V9*%
X69771662Y-130481939D03*
%TD*%
D35*
%TO.P,C47,1*%
%TO.N,+3V9*%
X90739000Y-121285000D03*
%TO.P,C47,2*%
%TO.N,GND*%
X88839000Y-121285000D03*
%TD*%
D36*
%TO.N,/NRST*%
X84328000Y-129413000D03*
X85852000Y-143637000D03*
%TO.N,GND*%
X67183000Y-135128000D03*
X60706000Y-132334000D03*
X62280800Y-143459200D03*
X63754000Y-127762000D03*
X52984400Y-133248400D03*
X52628800Y-121005600D03*
X53340000Y-126365000D03*
X66040000Y-125476000D03*
X78130400Y-114909600D03*
X50038000Y-121920000D03*
X94615000Y-142113000D03*
X63754000Y-121666000D03*
X44958000Y-121920000D03*
X59817000Y-134239000D03*
X52578000Y-132283200D03*
X52324000Y-131318000D03*
X56286400Y-120548400D03*
X67437000Y-123952000D03*
X51308000Y-131445000D03*
X55499000Y-122682000D03*
X64897000Y-145542000D03*
X56261000Y-123317000D03*
X65786000Y-132969000D03*
X92456000Y-122301000D03*
X68199000Y-135255000D03*
X55727600Y-121615200D03*
X73152000Y-147066000D03*
X61061600Y-146050000D03*
X62738000Y-131318000D03*
X67802864Y-147376121D03*
X57277000Y-123317000D03*
X49022000Y-121920000D03*
X67056000Y-134239000D03*
X54356000Y-134772400D03*
X95148400Y-140462000D03*
X81178400Y-111455200D03*
X53848000Y-113131600D03*
X53340000Y-106273600D03*
X57404000Y-135483600D03*
X61874400Y-145288000D03*
X54457600Y-117602000D03*
X58064400Y-119126000D03*
X64897000Y-132842000D03*
X44069000Y-121920000D03*
X69596000Y-133858000D03*
X63872091Y-150290624D03*
X61468000Y-129921000D03*
X62738000Y-121920000D03*
X61163200Y-141833600D03*
X94488000Y-115062000D03*
X62992000Y-123444000D03*
X71120000Y-132715000D03*
X83312000Y-135128000D03*
X91440000Y-147320000D03*
X48260000Y-131445000D03*
X66802000Y-124714000D03*
X46228000Y-131445000D03*
X66421000Y-122301000D03*
X46990000Y-121920000D03*
X53644800Y-119329200D03*
X51054000Y-121920000D03*
X61341000Y-119888000D03*
X60198000Y-136017000D03*
X52578000Y-125730000D03*
X64770000Y-121539000D03*
X52451000Y-123825000D03*
X64008000Y-132588000D03*
X54991000Y-115443000D03*
X45212000Y-131445000D03*
X59944000Y-137033000D03*
X45974000Y-121920000D03*
X67437000Y-136017000D03*
X60833000Y-122555000D03*
X54356000Y-118618000D03*
X60452000Y-135001000D03*
X56997600Y-119634000D03*
X58166000Y-123952000D03*
X73279000Y-135763000D03*
X47244000Y-131445000D03*
X62382400Y-144373600D03*
X60880202Y-138553145D03*
X60299600Y-148031200D03*
X92537038Y-130670157D03*
X59182000Y-133604000D03*
X85394800Y-108559600D03*
X54356000Y-116586000D03*
X88392000Y-145288000D03*
X60401200Y-146913600D03*
X50292000Y-131445000D03*
X53035200Y-120091200D03*
X91313000Y-126619000D03*
X94488000Y-115062000D03*
X62103000Y-130683000D03*
X53797200Y-115773200D03*
X70231000Y-133096000D03*
X59944000Y-123063000D03*
X61976000Y-142494000D03*
X52451000Y-122809000D03*
X73914000Y-136779000D03*
X60198000Y-137922000D03*
X48006000Y-121920000D03*
X55270400Y-135178800D03*
X44196000Y-131445000D03*
X72644000Y-135001000D03*
X56286400Y-135483600D03*
X68834000Y-134493000D03*
X68326000Y-103124000D03*
X77470000Y-139319000D03*
X53848000Y-132080000D03*
X63373000Y-131953000D03*
X99966677Y-122378576D03*
X87884000Y-139039600D03*
X94869000Y-132969000D03*
X71882000Y-133223000D03*
X59055000Y-123444000D03*
X62992000Y-128524000D03*
X52070000Y-121920000D03*
X62230000Y-129159000D03*
X69342000Y-122224800D03*
X61849000Y-122174000D03*
X65786000Y-121666000D03*
X49276000Y-131445000D03*
X53543200Y-134061200D03*
X52451000Y-124841000D03*
X67183000Y-122936000D03*
X66421000Y-133604000D03*
X72517000Y-133985000D03*
%TO.N,VBUS*%
X73616471Y-119175628D03*
X76454000Y-116332000D03*
%TO.N,/SWCLK*%
X83372763Y-152508310D03*
%TO.N,+3V9*%
X64897000Y-127000000D03*
%TO.N,/LED1*%
X92329000Y-117856000D03*
X85598000Y-150749000D03*
X94996000Y-117856000D03*
X95885000Y-120904000D03*
%TO.N,/LED2*%
X96647240Y-121925101D03*
X85090000Y-151765000D03*
%TO.N,FEM_EN*%
X78740000Y-141097000D03*
X77978000Y-137033000D03*
%TO.N,FEM_BYP*%
X77470000Y-142748000D03*
X78740000Y-135001000D03*
%TO.N,/CP2102N_SIG1*%
X84328000Y-135890000D03*
X89408000Y-133731000D03*
X81407000Y-141224000D03*
X95885000Y-132969000D03*
%TO.N,SPI2_SCK*%
X76708000Y-148844000D03*
X73914000Y-148844000D03*
%TO.N,RADIO_MARC_INT*%
X72136000Y-148590000D03*
X77724000Y-140716000D03*
%TO.N,RADIO_INT*%
X76708000Y-140335000D03*
X71882000Y-147066000D03*
%TO.N,/S1*%
X85598000Y-127127000D03*
X86995000Y-151003000D03*
%TO.N,/S2*%
X87376000Y-149987000D03*
X84328000Y-125857000D03*
%TO.N,/TX*%
X98044000Y-137414000D03*
X96266000Y-137160000D03*
X79248000Y-153924000D03*
X77470000Y-151384000D03*
X87503000Y-130429000D03*
%TO.N,/RX*%
X96012000Y-138557000D03*
X80391000Y-153924000D03*
X86360000Y-130683000D03*
X78740000Y-151257000D03*
%TO.N,/CP2102N_SIG2*%
X89152686Y-135032539D03*
X81026000Y-139827000D03*
X84201000Y-137160000D03*
X96774000Y-133604000D03*
%TO.N,FEM_VPC*%
X68782827Y-137475515D03*
X90932000Y-136906000D03*
X59944000Y-120269000D03*
X88747600Y-123444000D03*
X87376000Y-115697000D03*
X76200000Y-147320000D03*
X69333380Y-145781422D03*
X71882000Y-144018000D03*
X58293000Y-134747000D03*
X59182000Y-117094000D03*
X97917000Y-132461000D03*
X74930000Y-132334000D03*
X53086000Y-121970800D03*
X65786000Y-143383000D03*
X97738924Y-120980164D03*
X88646000Y-147447000D03*
X75565000Y-102997000D03*
X73406000Y-138176000D03*
X76708000Y-130937000D03*
X98298000Y-136144000D03*
X92710000Y-132334000D03*
X62855858Y-141247222D03*
X82042000Y-152273000D03*
%TO.N,FEM_TR*%
X79883000Y-141097000D03*
X76897275Y-134993668D03*
%TD*%
D37*
%TO.N,+3V9*%
X68935600Y-127834296D02*
X69771662Y-128670358D01*
X69771662Y-128670358D02*
X69771662Y-130481939D01*
X68935600Y-127834296D02*
X65731296Y-127834296D01*
X69748400Y-127834296D02*
X68935600Y-127834296D01*
X71120000Y-129133601D02*
X69771662Y-130481939D01*
X71297800Y-127431800D02*
X71120000Y-127609600D01*
X71297800Y-127431800D02*
X70895304Y-127834296D01*
X73919021Y-124810579D02*
X71297800Y-127431800D01*
X71120000Y-127609600D02*
X71120000Y-129133601D01*
D38*
%TO.N,Net-(U5-FB)*%
X64731057Y-106522894D02*
X63666540Y-105458377D01*
X69037200Y-104343200D02*
X66857506Y-106522894D01*
X66857506Y-106522894D02*
X64731057Y-106522894D01*
X80822800Y-114350800D02*
X70815200Y-104343200D01*
X81798048Y-114350800D02*
X80822800Y-114350800D01*
X82605824Y-113543024D02*
X81798048Y-114350800D01*
X70815200Y-104343200D02*
X69037200Y-104343200D01*
D37*
%TO.N,Net-(D6-K)*%
X62426894Y-109027057D02*
X61262377Y-107862540D01*
X65754711Y-109027057D02*
X62426894Y-109027057D01*
X71260834Y-105637362D02*
X69144406Y-105637362D01*
X69144406Y-105637362D02*
X65754711Y-109027057D01*
X80919379Y-115295907D02*
X71260834Y-105637362D01*
X80919379Y-117810221D02*
X80919379Y-115295907D01*
%TO.N,+3V9*%
X70895304Y-127834296D02*
X69748400Y-127834296D01*
X81538371Y-124810579D02*
X73919021Y-124810579D01*
X87412950Y-118936000D02*
X83083075Y-123265875D01*
X83083075Y-123265875D02*
X81538371Y-124810579D01*
D39*
%TO.N,/NRST*%
X85852000Y-143637000D02*
X87122000Y-143637000D01*
X87766305Y-143637000D02*
X89371000Y-145241695D01*
X89466000Y-139255584D02*
X86338000Y-136127584D01*
X81883000Y-153448000D02*
X81116000Y-154215000D01*
X86338000Y-136127584D02*
X86338000Y-133203792D01*
X87757000Y-143637000D02*
X89466000Y-141928000D01*
X89466000Y-141928000D02*
X89466000Y-139255584D01*
X87122000Y-143637000D02*
X87757000Y-143637000D01*
X78449000Y-154649000D02*
X76962000Y-153162000D01*
X88946305Y-148172000D02*
X86779396Y-148172000D01*
X84097763Y-152808615D02*
X83458378Y-153448000D01*
X87122000Y-143637000D02*
X87766305Y-143637000D01*
X89371000Y-147747305D02*
X88946305Y-148172000D01*
X81116000Y-154224305D02*
X80691305Y-154649000D01*
X83822000Y-130937000D02*
X84071208Y-130937000D01*
X83458378Y-153448000D02*
X81883000Y-153448000D01*
X84097763Y-150853633D02*
X84097763Y-152808615D01*
X81116000Y-154215000D02*
X81116000Y-154224305D01*
X84071208Y-130937000D02*
X84698000Y-131563792D01*
X84698000Y-131563792D02*
X84698000Y-129783000D01*
X86338000Y-133203792D02*
X84698000Y-131563792D01*
X80691305Y-154649000D02*
X78449000Y-154649000D01*
X86779396Y-148172000D02*
X84097763Y-150853633D01*
X84328000Y-129413000D02*
X84455000Y-129540000D01*
X84698000Y-129783000D02*
X84328000Y-129413000D01*
X89371000Y-145241695D02*
X89371000Y-147747305D01*
D37*
%TO.N,GND*%
X63771214Y-118508214D02*
X68934485Y-113344943D01*
X63704104Y-103091778D02*
X64868621Y-104256295D01*
X62391428Y-119888000D02*
X61341000Y-119888000D01*
D39*
X98806000Y-115441001D02*
X97777001Y-115441001D01*
D37*
X66033139Y-105420813D02*
X64868621Y-104256295D01*
X96622000Y-112243000D02*
X93218000Y-108839000D01*
X62464458Y-106660458D02*
X61299941Y-105495941D01*
X96622000Y-114286000D02*
X96622000Y-112243000D01*
X68686998Y-116807440D02*
X68686998Y-121569798D01*
X62109822Y-103091778D02*
X63704104Y-103091778D01*
X61299941Y-103901659D02*
X62109822Y-103091778D01*
X62464458Y-106660458D02*
X63628976Y-107824976D01*
X68934485Y-113344943D02*
X68934485Y-113130485D01*
X63771214Y-118508214D02*
X62391428Y-119888000D01*
X68686998Y-121569798D02*
X69342000Y-122224800D01*
X61299941Y-105495941D02*
X61299941Y-103901659D01*
D39*
X97777001Y-115441001D02*
X96622000Y-114286000D01*
D37*
%TO.N,VBUS*%
X76454000Y-116332000D02*
X73660000Y-119126000D01*
D39*
%TO.N,/SWCLK*%
X83372763Y-152508310D02*
X82883073Y-152998000D01*
X82883073Y-152998000D02*
X81506305Y-152998000D01*
X81506305Y-152998000D02*
X79040305Y-150532000D01*
X79040305Y-150532000D02*
X71972000Y-150532000D01*
X71972000Y-150532000D02*
X69342000Y-153162000D01*
D37*
%TO.N,+3V9*%
X96572000Y-118936000D02*
X92964000Y-118936000D01*
D38*
X84028224Y-115551274D02*
X87412950Y-118936000D01*
D37*
X92265000Y-118936000D02*
X92964000Y-118936000D01*
X65731296Y-127834296D02*
X64897000Y-127000000D01*
X92964000Y-118936000D02*
X87412950Y-118936000D01*
X90739000Y-121285000D02*
X90739000Y-120462000D01*
D38*
X84028224Y-114965424D02*
X84028224Y-115551274D01*
D37*
X96622000Y-118886000D02*
X96572000Y-118936000D01*
X90739000Y-120462000D02*
X92265000Y-118936000D01*
D39*
%TO.N,/LED1*%
X91317653Y-148467653D02*
X92333653Y-147451653D01*
X87299494Y-151728000D02*
X90559840Y-148467653D01*
X99753000Y-132020604D02*
X99753000Y-130233000D01*
X99499000Y-132274604D02*
X99753000Y-132020604D01*
X95631000Y-126111000D02*
X95631000Y-121158000D01*
X94996000Y-117856000D02*
X92329000Y-117856000D01*
X97213000Y-141672604D02*
X97213000Y-139386604D01*
X85598000Y-150749000D02*
X86577000Y-151728000D01*
X99753000Y-130233000D02*
X95631000Y-126111000D01*
X97213000Y-139386604D02*
X99499000Y-137100604D01*
X86577000Y-151728000D02*
X87299494Y-151728000D01*
X95435000Y-143450604D02*
X97213000Y-141672604D01*
X92333653Y-147451653D02*
X92333653Y-147440951D01*
X95435000Y-144339604D02*
X95435000Y-143450604D01*
X92333653Y-147451653D02*
X92583000Y-147202305D01*
X99499000Y-137100604D02*
X99499000Y-132274604D01*
X95631000Y-121158000D02*
X95885000Y-120904000D01*
X92333653Y-147440951D02*
X95435000Y-144339604D01*
X90559840Y-148467653D02*
X91317653Y-148467653D01*
%TO.N,/LED2*%
X100203000Y-130046604D02*
X96081000Y-125924604D01*
X93033000Y-147388701D02*
X93033000Y-147378000D01*
X89732945Y-149930945D02*
X90746237Y-148917653D01*
X93033000Y-147378000D02*
X95885000Y-144526000D01*
X99949000Y-132461000D02*
X100203000Y-132207000D01*
X91504049Y-148917653D02*
X93033000Y-147388701D01*
X100203000Y-132207000D02*
X100203000Y-130046604D01*
X85503000Y-152178000D02*
X87485890Y-152178000D01*
X85090000Y-151765000D02*
X85503000Y-152178000D01*
X87485890Y-152178000D02*
X89732945Y-149930945D01*
X97663000Y-141859000D02*
X97663000Y-139573000D01*
X93033000Y-147378000D02*
X93853000Y-146558000D01*
X99949000Y-137287000D02*
X99949000Y-132461000D01*
X96081000Y-122486000D02*
X96647000Y-121920000D01*
X95885000Y-144526000D02*
X95885000Y-143637000D01*
X90746237Y-148917653D02*
X91504049Y-148917653D01*
X95885000Y-143637000D02*
X97663000Y-141859000D01*
X97663000Y-139573000D02*
X99949000Y-137287000D01*
X96081000Y-125924604D02*
X96081000Y-122486000D01*
%TO.N,FEM_EN*%
X78740000Y-138176000D02*
X78740000Y-137795000D01*
X78740000Y-137795000D02*
X77978000Y-137033000D01*
X78740000Y-141097000D02*
X78740000Y-138176000D01*
%TO.N,FEM_BYP*%
X79640000Y-137033299D02*
X78999351Y-136392649D01*
X79640000Y-139466305D02*
X79640000Y-137033299D01*
X78740000Y-136133298D02*
X78740000Y-135001000D01*
X79257305Y-142748000D02*
X80608000Y-141397305D01*
X77470000Y-142748000D02*
X79257305Y-142748000D01*
X78999351Y-136392649D02*
X78740000Y-136133298D01*
X80608000Y-141397305D02*
X80608000Y-140434305D01*
X80608000Y-140434305D02*
X79640000Y-139466305D01*
%TO.N,/CP2102N_SIG1*%
X95885000Y-132969000D02*
X95885000Y-132978305D01*
X91313000Y-133694000D02*
X91223000Y-133694000D01*
X95381653Y-133481653D02*
X95169305Y-133694000D01*
X81788000Y-140180984D02*
X81788000Y-139701396D01*
X81788000Y-139701396D02*
X83071210Y-138418186D01*
X95169305Y-133694000D02*
X91313000Y-133694000D01*
X81407000Y-140561984D02*
X81788000Y-140180984D01*
X83071210Y-138418186D02*
X83968119Y-138418186D01*
X95169305Y-133694000D02*
X89445000Y-133694000D01*
X95885000Y-132978305D02*
X95381653Y-133481653D01*
X84926000Y-136488000D02*
X84328000Y-135890000D01*
X84926000Y-137460305D02*
X84926000Y-136488000D01*
X83968119Y-138418186D02*
X84926000Y-137460305D01*
X89445000Y-133694000D02*
X89408000Y-133731000D01*
X81407000Y-141224000D02*
X81407000Y-140561984D01*
%TO.N,SPI2_SCK*%
X73914000Y-148844000D02*
X74168000Y-148844000D01*
X76708000Y-148844000D02*
X73914000Y-148844000D01*
%TO.N,RADIO_MARC_INT*%
X72898000Y-148590000D02*
X75311000Y-146177000D01*
X75311000Y-143129000D02*
X77724000Y-140716000D01*
X75311000Y-146177000D02*
X75311000Y-143129000D01*
X72136000Y-148590000D02*
X72898000Y-148590000D01*
%TO.N,RADIO_INT*%
X74739500Y-142303500D02*
X76708000Y-140335000D01*
X74739500Y-144208500D02*
X74739500Y-142303500D01*
X74739500Y-144208500D02*
X71882000Y-147066000D01*
%TO.N,/S1*%
X87238000Y-132831000D02*
X86106000Y-131699000D01*
X90366000Y-148025097D02*
X90366000Y-138882792D01*
X90366000Y-138882792D02*
X87238000Y-135754792D01*
X87676305Y-150712000D02*
X87679097Y-150712000D01*
X87385305Y-151003000D02*
X87676305Y-150712000D01*
X86106000Y-131699000D02*
X85598000Y-131191000D01*
X87679097Y-150712000D02*
X90366000Y-148025097D01*
X86995000Y-151003000D02*
X87385305Y-151003000D01*
X87238000Y-135754792D02*
X87238000Y-132831000D01*
X85598000Y-131191000D02*
X85598000Y-127127000D01*
%TO.N,/S2*%
X86788000Y-133017396D02*
X85148000Y-131377396D01*
X85148000Y-127947000D02*
X84328000Y-127127000D01*
X85148000Y-131377396D02*
X85148000Y-127947000D01*
X87376000Y-149987000D02*
X87767701Y-149987000D01*
X89916000Y-141732000D02*
X89916000Y-140716000D01*
X84328000Y-127127000D02*
X84328000Y-125857000D01*
X86788000Y-135941188D02*
X86788000Y-133017396D01*
X89916000Y-139069188D02*
X86788000Y-135941188D01*
X87767701Y-149987000D02*
X89916000Y-147838701D01*
X89916000Y-147838701D02*
X89916000Y-141732000D01*
X89916000Y-141732000D02*
X89916000Y-139069188D01*
%TO.N,/TX*%
X96266000Y-137160000D02*
X97790000Y-137160000D01*
X88138000Y-131064000D02*
X87503000Y-130429000D01*
X79248000Y-153162000D02*
X79248000Y-153924000D01*
X77470000Y-151384000D02*
X79248000Y-153162000D01*
X94488000Y-138938000D02*
X91694000Y-138938000D01*
X97790000Y-137160000D02*
X98044000Y-137414000D01*
X96266000Y-137160000D02*
X94488000Y-138938000D01*
X88138000Y-135382000D02*
X88138000Y-131064000D01*
X91694000Y-138938000D02*
X88138000Y-135382000D01*
%TO.N,/RX*%
X87688000Y-135568396D02*
X87688000Y-132011000D01*
X95181000Y-139388000D02*
X91507604Y-139388000D01*
X87688000Y-132011000D02*
X86360000Y-130683000D01*
X91507604Y-139388000D02*
X87688000Y-135568396D01*
X80391000Y-152908000D02*
X80391000Y-153924000D01*
X96012000Y-138557000D02*
X95181000Y-139388000D01*
X78740000Y-151257000D02*
X80391000Y-152908000D01*
%TO.N,/CP2102N_SIG2*%
X84201000Y-137160000D02*
X83693000Y-137160000D01*
X92075000Y-134874000D02*
X90805000Y-134874000D01*
X83693000Y-137160000D02*
X81026000Y-139827000D01*
X96139000Y-134239000D02*
X93091000Y-134239000D01*
X93091000Y-134239000D02*
X92456000Y-134874000D01*
X92456000Y-134874000D02*
X92075000Y-134874000D01*
X92075000Y-134874000D02*
X89281000Y-134874000D01*
X96774000Y-133604000D02*
X96139000Y-134239000D01*
D37*
%TO.N,FEM_VPC*%
X90322001Y-116586000D02*
X88265000Y-116586000D01*
X90322001Y-112674001D02*
X88138000Y-110490000D01*
D39*
X79121000Y-130937000D02*
X76708000Y-130937000D01*
X69483312Y-138176000D02*
X73406000Y-138176000D01*
D37*
X90322001Y-116586000D02*
X90322001Y-112674001D01*
D39*
X72136000Y-150082000D02*
X70580000Y-150082000D01*
X82802000Y-130937000D02*
X79248000Y-130937000D01*
X59182000Y-119507000D02*
X59944000Y-120269000D01*
D37*
X97831000Y-117795001D02*
X96621999Y-116586000D01*
D39*
X53086000Y-121970800D02*
X57962800Y-117094000D01*
X68184422Y-145781422D02*
X69333380Y-145781422D01*
X70842802Y-144272000D02*
X69333380Y-145781422D01*
X91694000Y-136144000D02*
X90932000Y-136906000D01*
X98010000Y-120709088D02*
X97738924Y-120980164D01*
D37*
X88265000Y-116586000D02*
X87376000Y-115697000D01*
X76581000Y-104013000D02*
X75565000Y-102997000D01*
D39*
X88747600Y-123444000D02*
X88773000Y-123469400D01*
X71882000Y-144018000D02*
X71628000Y-144272000D01*
X59182000Y-117094000D02*
X59182000Y-119507000D01*
X79248000Y-130937000D02*
X79121000Y-130937000D01*
X98010000Y-118845001D02*
X98010000Y-120709088D01*
D37*
X88138000Y-104013000D02*
X76581000Y-104013000D01*
D38*
X65011120Y-141247222D02*
X68782827Y-137475515D01*
D39*
X86868000Y-147447000D02*
X82042000Y-152273000D01*
X80899000Y-151130000D02*
X79851000Y-150082000D01*
X58293000Y-137042305D02*
X58293000Y-134747000D01*
X71882000Y-139700000D02*
X73406000Y-138176000D01*
X98806000Y-117541001D02*
X99060000Y-117795001D01*
D38*
X62855858Y-141247222D02*
X65011120Y-141247222D01*
D39*
X62855858Y-141247222D02*
X62497917Y-141247222D01*
X65786000Y-143383000D02*
X64991636Y-143383000D01*
X74930000Y-132334000D02*
X74930000Y-136788305D01*
X74930000Y-136788305D02*
X73542305Y-138176000D01*
X64991636Y-143383000D02*
X62855858Y-141247222D01*
X98298000Y-136144000D02*
X91694000Y-136144000D01*
D37*
X88138000Y-110490000D02*
X88138000Y-104013000D01*
D39*
X97700000Y-132244000D02*
X97917000Y-132461000D01*
X98806000Y-116460999D02*
X98806000Y-117541001D01*
X65786000Y-143383000D02*
X68184422Y-145781422D01*
X77089000Y-147320000D02*
X76200000Y-147320000D01*
X92800000Y-132244000D02*
X97700000Y-132244000D01*
X79851000Y-150082000D02*
X72136000Y-150082000D01*
X68782827Y-137475515D02*
X69483312Y-138176000D01*
D37*
X99060000Y-117795001D02*
X97831000Y-117795001D01*
D39*
X99060000Y-117795001D02*
X98010000Y-118845001D01*
X62497917Y-141247222D02*
X58293000Y-137042305D01*
X88773000Y-123469400D02*
X88773000Y-128397000D01*
X69882000Y-150082000D02*
X66802000Y-153162000D01*
X80899000Y-151130000D02*
X77089000Y-147320000D01*
X92710000Y-132334000D02*
X92800000Y-132244000D01*
X73542305Y-138176000D02*
X73406000Y-138176000D01*
X98298000Y-136144000D02*
X98298000Y-132842000D01*
X69333380Y-148835380D02*
X69333380Y-145781422D01*
X71628000Y-144272000D02*
X70842802Y-144272000D01*
X88773000Y-128397000D02*
X92710000Y-132334000D01*
D37*
X96621999Y-116586000D02*
X90322001Y-116586000D01*
D39*
X98298000Y-132842000D02*
X97917000Y-132461000D01*
X76708000Y-130937000D02*
X76962000Y-130937000D01*
X88773000Y-123418600D02*
X88747600Y-123444000D01*
X72136000Y-150082000D02*
X69882000Y-150082000D01*
X57962800Y-117094000D02*
X59182000Y-117094000D01*
X70580000Y-150082000D02*
X69333380Y-148835380D01*
X82042000Y-152273000D02*
X80899000Y-151130000D01*
X71882000Y-144018000D02*
X71882000Y-139700000D01*
X88646000Y-147447000D02*
X86868000Y-147447000D01*
%TO.N,FEM_TR*%
X79190000Y-140404000D02*
X79190000Y-137795000D01*
X79190000Y-137219695D02*
X76971305Y-135001000D01*
X79190000Y-137726000D02*
X79190000Y-137219695D01*
X79190000Y-137795000D02*
X79190000Y-137726000D01*
X79883000Y-141097000D02*
X79190000Y-140404000D01*
D37*
%TO.N,+BATT*%
X56007000Y-107547440D02*
X50402788Y-113151652D01*
X50402788Y-113151652D02*
X47939985Y-113151652D01*
X56007000Y-104013000D02*
X56007000Y-107547440D01*
%TO.N,Net-(D6-K)*%
X62484000Y-109084163D02*
X61262377Y-107862540D01*
X60942786Y-115679786D02*
X60942786Y-112071218D01*
X60942786Y-112071218D02*
X62484000Y-110530004D01*
X62484000Y-110530004D02*
X62484000Y-109084163D01*
%TO.N,Net-(U5-FB)*%
X62502022Y-104293859D02*
X63666540Y-105458377D01*
D38*
X83306976Y-114244176D02*
X82605824Y-113543024D01*
D37*
%TO.N,/HV_SUPPLY*%
X55527379Y-109064621D02*
X48998744Y-115593256D01*
X60060295Y-109064621D02*
X58895778Y-107900104D01*
X58895778Y-105950222D02*
X59257901Y-105588099D01*
X59257901Y-105588099D02*
X59257901Y-103432961D01*
X48998744Y-115593256D02*
X47239865Y-115593256D01*
X58895778Y-107900104D02*
X58895778Y-105950222D01*
X60288249Y-102402613D02*
X60288249Y-101509751D01*
X60060295Y-109064621D02*
X55527379Y-109064621D01*
X59257901Y-103432961D02*
X60288249Y-102402613D01*
%TD*%
%TA.AperFunction,Conductor*%
%TO.N,GND*%
G36*
X71089908Y-106107547D02*
G01*
X71110550Y-106124181D01*
X79719340Y-114732971D01*
X79752825Y-114794294D01*
X79747841Y-114863986D01*
X79719340Y-114908333D01*
X77829149Y-116798523D01*
X77829143Y-116798531D01*
X77796019Y-116848104D01*
X77796017Y-116848108D01*
X77780458Y-116926335D01*
X77780458Y-116926340D01*
X77796017Y-117004564D01*
X77796020Y-117004571D01*
X77829143Y-117054143D01*
X77829149Y-117054151D01*
X81675448Y-120900450D01*
X81675456Y-120900456D01*
X81725028Y-120933579D01*
X81725031Y-120933581D01*
X81725034Y-120933581D01*
X81725035Y-120933582D01*
X81803260Y-120949142D01*
X81803262Y-120949142D01*
X81803264Y-120949142D01*
X81881491Y-120933582D01*
X81881492Y-120933581D01*
X81881494Y-120933581D01*
X81931073Y-120900453D01*
X84009611Y-118821915D01*
X84042739Y-118772336D01*
X84045066Y-118760640D01*
X84058300Y-118694106D01*
X84058300Y-118694101D01*
X84042740Y-118615877D01*
X84042739Y-118615876D01*
X84042739Y-118615873D01*
X84009611Y-118566294D01*
X84009608Y-118566290D01*
X81406198Y-115962880D01*
X81372713Y-115901557D01*
X81369879Y-115875199D01*
X81369879Y-115236600D01*
X81369879Y-115236598D01*
X81339178Y-115122021D01*
X81333367Y-115111956D01*
X81314110Y-115078601D01*
X81279872Y-115019299D01*
X81279866Y-115019291D01*
X81173556Y-114912981D01*
X81140071Y-114851658D01*
X81145055Y-114781966D01*
X81186927Y-114726033D01*
X81252391Y-114701616D01*
X81261237Y-114701300D01*
X81844190Y-114701300D01*
X81844192Y-114701300D01*
X81933336Y-114677414D01*
X81943926Y-114671300D01*
X82013260Y-114631270D01*
X82503413Y-114141117D01*
X82564736Y-114107632D01*
X82591094Y-114104798D01*
X82620554Y-114104798D01*
X82687593Y-114124483D01*
X82708235Y-114141117D01*
X82708883Y-114141765D01*
X82742368Y-114203088D01*
X82745202Y-114229446D01*
X82745202Y-114338689D01*
X82785667Y-114449869D01*
X82785668Y-114449870D01*
X82815667Y-114488965D01*
X82815669Y-114488967D01*
X82815673Y-114488972D01*
X83062179Y-114735478D01*
X83062183Y-114735481D01*
X83062187Y-114735485D01*
X83101282Y-114765484D01*
X83212463Y-114805950D01*
X83212465Y-114805950D01*
X83341626Y-114805950D01*
X83341626Y-114809956D01*
X83390458Y-114815370D01*
X83444716Y-114859391D01*
X83466561Y-114925758D01*
X83466205Y-114930774D01*
X83466450Y-114930774D01*
X83466450Y-115059937D01*
X83506915Y-115171117D01*
X83506916Y-115171118D01*
X83536915Y-115210213D01*
X83641406Y-115314704D01*
X83674890Y-115376025D01*
X83677724Y-115402384D01*
X83677724Y-115597418D01*
X83692501Y-115652565D01*
X83692500Y-115652565D01*
X83692501Y-115652567D01*
X83701608Y-115686558D01*
X83701609Y-115686560D01*
X83747751Y-115766482D01*
X83747755Y-115766487D01*
X86758876Y-118777608D01*
X86792361Y-118838931D01*
X86787377Y-118908623D01*
X86758876Y-118952970D01*
X82806461Y-122905386D01*
X81388087Y-124323760D01*
X81326764Y-124357245D01*
X81300406Y-124360079D01*
X75854042Y-124360079D01*
X75787003Y-124340394D01*
X75766361Y-124323760D01*
X73162951Y-121720349D01*
X73162943Y-121720343D01*
X73113371Y-121687220D01*
X73113364Y-121687217D01*
X73035140Y-121671658D01*
X73035136Y-121671658D01*
X72956908Y-121687217D01*
X72956904Y-121687219D01*
X72907331Y-121720343D01*
X72907323Y-121720349D01*
X70828791Y-123798881D01*
X70828785Y-123798889D01*
X70795661Y-123848462D01*
X70795659Y-123848466D01*
X70780100Y-123926693D01*
X70780100Y-123926698D01*
X70795659Y-124004922D01*
X70795662Y-124004929D01*
X70828785Y-124054501D01*
X70828791Y-124054509D01*
X72345708Y-125571426D01*
X72379193Y-125632749D01*
X72374209Y-125702441D01*
X72345708Y-125746788D01*
X71021186Y-127071311D01*
X70745020Y-127347477D01*
X70683697Y-127380962D01*
X70657339Y-127383796D01*
X65969262Y-127383796D01*
X65902223Y-127364111D01*
X65881581Y-127347477D01*
X65527681Y-126993577D01*
X65494196Y-126932254D01*
X65492425Y-126922095D01*
X65482044Y-126843238D01*
X65421536Y-126697159D01*
X65325282Y-126571718D01*
X65199841Y-126475464D01*
X65053762Y-126414956D01*
X65053760Y-126414955D01*
X64897001Y-126394318D01*
X64896999Y-126394318D01*
X64740239Y-126414955D01*
X64740237Y-126414956D01*
X64594160Y-126475463D01*
X64468718Y-126571718D01*
X64372463Y-126697160D01*
X64311956Y-126843237D01*
X64311955Y-126843239D01*
X64291318Y-126999998D01*
X64291318Y-127000001D01*
X64311955Y-127156760D01*
X64311956Y-127156762D01*
X64372464Y-127302841D01*
X64468718Y-127428282D01*
X64594159Y-127524536D01*
X64740238Y-127585044D01*
X64819082Y-127595423D01*
X64882977Y-127623689D01*
X64890577Y-127630681D01*
X65454682Y-128194786D01*
X65557409Y-128254095D01*
X65581617Y-128260580D01*
X65581620Y-128260582D01*
X65581621Y-128260582D01*
X65611743Y-128268653D01*
X65671987Y-128284796D01*
X68697635Y-128284796D01*
X68764674Y-128304481D01*
X68785316Y-128321115D01*
X69245561Y-128781360D01*
X69279046Y-128842683D01*
X69274062Y-128912375D01*
X69245561Y-128956722D01*
X67328779Y-130873504D01*
X67309271Y-130897049D01*
X67275960Y-130966221D01*
X67250349Y-131019403D01*
X67230108Y-131153690D01*
X67250349Y-131287978D01*
X67309272Y-131410333D01*
X67309588Y-131410714D01*
X67328779Y-131433876D01*
X68819724Y-132924821D01*
X68819729Y-132924825D01*
X68819731Y-132924827D01*
X68843268Y-132944329D01*
X68965623Y-133003252D01*
X69099911Y-133023493D01*
X69234198Y-133003252D01*
X69356553Y-132944329D01*
X69380090Y-132924827D01*
X72214550Y-130090367D01*
X72234052Y-130066830D01*
X72292975Y-129944475D01*
X72313216Y-129810188D01*
X72292975Y-129675900D01*
X72234052Y-129553545D01*
X72214550Y-129530008D01*
X72214548Y-129530006D01*
X72214544Y-129530001D01*
X71606819Y-128922276D01*
X71573334Y-128860953D01*
X71570500Y-128834595D01*
X71570500Y-127847565D01*
X71590185Y-127780526D01*
X71606819Y-127759884D01*
X71658289Y-127708414D01*
X72308739Y-127057964D01*
X72982813Y-126383889D01*
X73044134Y-126350406D01*
X73113826Y-126355390D01*
X73158173Y-126383891D01*
X74675090Y-127900808D01*
X74675094Y-127900811D01*
X74724673Y-127933939D01*
X74724676Y-127933939D01*
X74724677Y-127933940D01*
X74802902Y-127949500D01*
X74802904Y-127949500D01*
X74802906Y-127949500D01*
X74881133Y-127933940D01*
X74881134Y-127933939D01*
X74881136Y-127933939D01*
X74930715Y-127900811D01*
X77009253Y-125822273D01*
X77042381Y-125772694D01*
X77049200Y-125738415D01*
X77057942Y-125694464D01*
X77057942Y-125694459D01*
X77042382Y-125616235D01*
X77042381Y-125616234D01*
X77042381Y-125616231D01*
X77009253Y-125566652D01*
X77009250Y-125566648D01*
X76915362Y-125472760D01*
X76881877Y-125411437D01*
X76886861Y-125341745D01*
X76928733Y-125285812D01*
X76994197Y-125261395D01*
X77003043Y-125261079D01*
X81597679Y-125261079D01*
X81597680Y-125261079D01*
X81688044Y-125236865D01*
X81712258Y-125230378D01*
X81814985Y-125171068D01*
X83443564Y-123542489D01*
X85451053Y-121535000D01*
X87839001Y-121535000D01*
X87839001Y-121809986D01*
X87849494Y-121912697D01*
X87904641Y-122079119D01*
X87904643Y-122079124D01*
X87996684Y-122228345D01*
X88120654Y-122352315D01*
X88269875Y-122444356D01*
X88269880Y-122444358D01*
X88436302Y-122499505D01*
X88436309Y-122499506D01*
X88539019Y-122509999D01*
X88588999Y-122509998D01*
X88589000Y-122509998D01*
X88589000Y-121535000D01*
X87839001Y-121535000D01*
X85451053Y-121535000D01*
X85951053Y-121035000D01*
X87839000Y-121035000D01*
X88589000Y-121035000D01*
X88589000Y-120060000D01*
X88588999Y-120059999D01*
X88539029Y-120060000D01*
X88539011Y-120060001D01*
X88436302Y-120070494D01*
X88269880Y-120125641D01*
X88269875Y-120125643D01*
X88120654Y-120217684D01*
X87996684Y-120341654D01*
X87904643Y-120490875D01*
X87904641Y-120490880D01*
X87849494Y-120657302D01*
X87849493Y-120657309D01*
X87839000Y-120760013D01*
X87839000Y-121035000D01*
X85951053Y-121035000D01*
X87563234Y-119422819D01*
X87624557Y-119389334D01*
X87650915Y-119386500D01*
X90878035Y-119386500D01*
X90945074Y-119406185D01*
X90990829Y-119458989D01*
X91000773Y-119528147D01*
X90971748Y-119591703D01*
X90965716Y-119598181D01*
X90378513Y-120185383D01*
X90378509Y-120185389D01*
X90319201Y-120288112D01*
X90319200Y-120288113D01*
X90319201Y-120288114D01*
X90301274Y-120355018D01*
X90264909Y-120414678D01*
X90255133Y-120422694D01*
X90166850Y-120487850D01*
X90086207Y-120597117D01*
X90063842Y-120661033D01*
X90023120Y-120717808D01*
X89958167Y-120743555D01*
X89889605Y-120730098D01*
X89839203Y-120681711D01*
X89829095Y-120659081D01*
X89773358Y-120490880D01*
X89773356Y-120490875D01*
X89681315Y-120341654D01*
X89557345Y-120217684D01*
X89408124Y-120125643D01*
X89408119Y-120125641D01*
X89241697Y-120070494D01*
X89241690Y-120070493D01*
X89138986Y-120060000D01*
X89089000Y-120060000D01*
X89089000Y-122509999D01*
X89138972Y-122509999D01*
X89138986Y-122509998D01*
X89241697Y-122499505D01*
X89408119Y-122444358D01*
X89408124Y-122444356D01*
X89557345Y-122352315D01*
X89681315Y-122228345D01*
X89773356Y-122079124D01*
X89773359Y-122079117D01*
X89829094Y-121910918D01*
X89868866Y-121853473D01*
X89933382Y-121826649D01*
X90002158Y-121838964D01*
X90053358Y-121886506D01*
X90063841Y-121908965D01*
X90078103Y-121949722D01*
X90086207Y-121972882D01*
X90166850Y-122082150D01*
X90276118Y-122162793D01*
X90318845Y-122177744D01*
X90404299Y-122207646D01*
X90434730Y-122210500D01*
X90434734Y-122210500D01*
X91043270Y-122210500D01*
X91073699Y-122207646D01*
X91073701Y-122207646D01*
X91137790Y-122185219D01*
X91201882Y-122162793D01*
X91311150Y-122082150D01*
X91391793Y-121972882D01*
X91415600Y-121904844D01*
X91436646Y-121844701D01*
X91436646Y-121844699D01*
X91439500Y-121814269D01*
X91439500Y-120755730D01*
X91436646Y-120725300D01*
X91436646Y-120725298D01*
X91391794Y-120597120D01*
X91391792Y-120597117D01*
X91391121Y-120596207D01*
X91390693Y-120595037D01*
X91387451Y-120588902D01*
X91388290Y-120588458D01*
X91367149Y-120530581D01*
X91382463Y-120462411D01*
X91403205Y-120434896D01*
X92415284Y-119422819D01*
X92476607Y-119389334D01*
X92502965Y-119386500D01*
X92904691Y-119386500D01*
X95343213Y-119386500D01*
X95410252Y-119406185D01*
X95456007Y-119458989D01*
X95457772Y-119463044D01*
X95494302Y-119551233D01*
X95586549Y-119671451D01*
X95706767Y-119763698D01*
X95846764Y-119821687D01*
X95959280Y-119836500D01*
X95959287Y-119836500D01*
X97284713Y-119836500D01*
X97284720Y-119836500D01*
X97397236Y-119821687D01*
X97513047Y-119773715D01*
X97582516Y-119766247D01*
X97644996Y-119797522D01*
X97680648Y-119857611D01*
X97684500Y-119888277D01*
X97684500Y-120272902D01*
X97664815Y-120339941D01*
X97612011Y-120385696D01*
X97589762Y-120392086D01*
X97590012Y-120393017D01*
X97582161Y-120395120D01*
X97436084Y-120455627D01*
X97310642Y-120551882D01*
X97214387Y-120677324D01*
X97153880Y-120823401D01*
X97153879Y-120823403D01*
X97133242Y-120980162D01*
X97133242Y-120980165D01*
X97153879Y-121136924D01*
X97153880Y-121136926D01*
X97214388Y-121283006D01*
X97238830Y-121314859D01*
X97264024Y-121380028D01*
X97261150Y-121394038D01*
X97318833Y-121414775D01*
X97321125Y-121416490D01*
X97436083Y-121504700D01*
X97582162Y-121565208D01*
X97718531Y-121583161D01*
X97782428Y-121611427D01*
X97820899Y-121669752D01*
X97821730Y-121739616D01*
X97784658Y-121798840D01*
X97753047Y-121819156D01*
X97753068Y-121819200D01*
X97752730Y-121819360D01*
X97752520Y-121819496D01*
X97751480Y-121819955D01*
X97730539Y-121829928D01*
X97723291Y-121833550D01*
X97702358Y-121844514D01*
X97702313Y-121844539D01*
X97685285Y-121854504D01*
X97645274Y-121880511D01*
X97630776Y-121890833D01*
X97612757Y-121904847D01*
X97602161Y-121913661D01*
X97590881Y-121923688D01*
X97584153Y-121929670D01*
X97584127Y-121929693D01*
X97579735Y-121933711D01*
X97562721Y-121949722D01*
X97553719Y-121958724D01*
X97537702Y-121975743D01*
X97533678Y-121980143D01*
X97517683Y-121998138D01*
X97517675Y-121998147D01*
X97517668Y-121998156D01*
X97508826Y-122008783D01*
X97494846Y-122026757D01*
X97484504Y-122041283D01*
X97473288Y-122058539D01*
X97420248Y-122104020D01*
X97351039Y-122113606D01*
X97287634Y-122084252D01*
X97250165Y-122025280D01*
X97246382Y-121974775D01*
X97246632Y-121972882D01*
X97252922Y-121925101D01*
X97245339Y-121867505D01*
X97236335Y-121799113D01*
X97232284Y-121768339D01*
X97171776Y-121622260D01*
X97147332Y-121590404D01*
X97122139Y-121525236D01*
X97125012Y-121511225D01*
X97067330Y-121490489D01*
X97065025Y-121488764D01*
X96950081Y-121400565D01*
X96934323Y-121394038D01*
X96804002Y-121340057D01*
X96804000Y-121340056D01*
X96647241Y-121319419D01*
X96647237Y-121319419D01*
X96559440Y-121330977D01*
X96490405Y-121320211D01*
X96438150Y-121273831D01*
X96419265Y-121206561D01*
X96428694Y-121160589D01*
X96470044Y-121060762D01*
X96484739Y-120949142D01*
X96490682Y-120904001D01*
X96490682Y-120903998D01*
X96471726Y-120760013D01*
X96470044Y-120747238D01*
X96409536Y-120601159D01*
X96313282Y-120475718D01*
X96187841Y-120379464D01*
X96041762Y-120318956D01*
X96041760Y-120318955D01*
X95885001Y-120298318D01*
X95884999Y-120298318D01*
X95728239Y-120318955D01*
X95728237Y-120318956D01*
X95582160Y-120379463D01*
X95456718Y-120475718D01*
X95360463Y-120601160D01*
X95299956Y-120747237D01*
X95299955Y-120747239D01*
X95279318Y-120903998D01*
X95279318Y-120904001D01*
X95299956Y-121060765D01*
X95302060Y-121068617D01*
X95299145Y-121069397D01*
X95303984Y-121107021D01*
X95305500Y-121107021D01*
X95305500Y-121732745D01*
X95285815Y-121799784D01*
X95233011Y-121845539D01*
X95163853Y-121855483D01*
X95123969Y-121842591D01*
X95106692Y-121833542D01*
X95106693Y-121833542D01*
X95106673Y-121833532D01*
X95099501Y-121829948D01*
X95099480Y-121829938D01*
X95099460Y-121829928D01*
X95078529Y-121819960D01*
X95067683Y-121815163D01*
X95049710Y-121807811D01*
X95045702Y-121806172D01*
X95037937Y-121803173D01*
X95015937Y-121795173D01*
X95015936Y-121795172D01*
X95015926Y-121795169D01*
X95012415Y-121793997D01*
X95005290Y-121791620D01*
X94993790Y-121788120D01*
X94982295Y-121784621D01*
X94967635Y-121780730D01*
X94945658Y-121775735D01*
X94933618Y-121773366D01*
X94933606Y-121773364D01*
X94910644Y-121769537D01*
X94909878Y-121769406D01*
X94888067Y-121765613D01*
X94865249Y-121763143D01*
X94861154Y-121762700D01*
X94861145Y-121762699D01*
X94859488Y-121762627D01*
X94852859Y-121762338D01*
X94786739Y-121739759D01*
X94743322Y-121685016D01*
X94735591Y-121656649D01*
X94726575Y-121595868D01*
X94620311Y-121539068D01*
X94441230Y-121484744D01*
X94255000Y-121466403D01*
X94068769Y-121484744D01*
X93889688Y-121539068D01*
X93783423Y-121595869D01*
X93774407Y-121656651D01*
X93745098Y-121720077D01*
X93686152Y-121757588D01*
X93657140Y-121762338D01*
X93652996Y-121762519D01*
X93648853Y-121762699D01*
X93648845Y-121762700D01*
X93621924Y-121765614D01*
X93600174Y-121769397D01*
X93599352Y-121769537D01*
X93576394Y-121773364D01*
X93576376Y-121773367D01*
X93564341Y-121775735D01*
X93542364Y-121780730D01*
X93527704Y-121784621D01*
X93509503Y-121790161D01*
X93504710Y-121791620D01*
X93501142Y-121792810D01*
X93494073Y-121795169D01*
X93483228Y-121799113D01*
X93472063Y-121803173D01*
X93464298Y-121806172D01*
X93464288Y-121806175D01*
X93464283Y-121806178D01*
X93442316Y-121815163D01*
X93431485Y-121819954D01*
X93410517Y-121829938D01*
X93403319Y-121833536D01*
X93382329Y-121844531D01*
X93382315Y-121844538D01*
X93365285Y-121854503D01*
X93365273Y-121854511D01*
X93345274Y-121867511D01*
X93345273Y-121867510D01*
X93325282Y-121880506D01*
X93310762Y-121890843D01*
X93292761Y-121904844D01*
X93282161Y-121913660D01*
X93264125Y-121929692D01*
X93259744Y-121933701D01*
X93242726Y-121949718D01*
X93233737Y-121958707D01*
X93233721Y-121958723D01*
X93233714Y-121958731D01*
X93217714Y-121975731D01*
X93217703Y-121975743D01*
X93217676Y-121975772D01*
X93213688Y-121980131D01*
X93197660Y-121998163D01*
X93188840Y-122008768D01*
X93174842Y-122026764D01*
X93164514Y-122041269D01*
X93138504Y-122081286D01*
X93128539Y-122098313D01*
X93128515Y-122098357D01*
X93117549Y-122119291D01*
X93113951Y-122126491D01*
X93103938Y-122147518D01*
X93099170Y-122158302D01*
X93090187Y-122180261D01*
X93087163Y-122188087D01*
X93079176Y-122210052D01*
X93075619Y-122220714D01*
X93068621Y-122243704D01*
X93064730Y-122258364D01*
X93059735Y-122280341D01*
X93057367Y-122292376D01*
X93053544Y-122315315D01*
X93053397Y-122316174D01*
X93049614Y-122337924D01*
X93046699Y-122364851D01*
X93046699Y-122364855D01*
X93046699Y-122364857D01*
X93045699Y-122387858D01*
X93045683Y-122388237D01*
X93045679Y-122388340D01*
X93045678Y-122388339D01*
X93044682Y-122412225D01*
X93044682Y-122429752D01*
X93045688Y-122453911D01*
X93045689Y-122453926D01*
X93045699Y-122454144D01*
X93046699Y-122477144D01*
X93049613Y-122504067D01*
X93052598Y-122521233D01*
X93053397Y-122525824D01*
X93053544Y-122526685D01*
X93057366Y-122549618D01*
X93059735Y-122561658D01*
X93064730Y-122583635D01*
X93068623Y-122598303D01*
X93075621Y-122621294D01*
X93079094Y-122631699D01*
X93079176Y-122631945D01*
X93085176Y-122648445D01*
X93087179Y-122653951D01*
X93090174Y-122661706D01*
X93099164Y-122683685D01*
X93103956Y-122694520D01*
X93113928Y-122715460D01*
X93113948Y-122715501D01*
X93117532Y-122722673D01*
X93117543Y-122722694D01*
X93117550Y-122722708D01*
X93128514Y-122743641D01*
X93128539Y-122743686D01*
X93138497Y-122760701D01*
X93138508Y-122760720D01*
X93151508Y-122780720D01*
X93151512Y-122780726D01*
X93164513Y-122800726D01*
X93174838Y-122815229D01*
X93174846Y-122815239D01*
X93188840Y-122833233D01*
X93197669Y-122843849D01*
X93213692Y-122861874D01*
X93217701Y-122866255D01*
X93217714Y-122866269D01*
X93233714Y-122883269D01*
X93242731Y-122892286D01*
X93259731Y-122908286D01*
X93259739Y-122908294D01*
X93259744Y-122908298D01*
X93264125Y-122912307D01*
X93282161Y-122928339D01*
X93292761Y-122937155D01*
X93310767Y-122951160D01*
X93325274Y-122961488D01*
X93325280Y-122961492D01*
X93365280Y-122987492D01*
X93382327Y-122997468D01*
X93382333Y-122997471D01*
X93382357Y-122997484D01*
X93403293Y-123008451D01*
X93410510Y-123012058D01*
X93431483Y-123022046D01*
X93431491Y-123022049D01*
X93431492Y-123022050D01*
X93442305Y-123026832D01*
X93464305Y-123035831D01*
X93472063Y-123038827D01*
X93494063Y-123046827D01*
X93504710Y-123050380D01*
X93527710Y-123057380D01*
X93541704Y-123061094D01*
X93542364Y-123061269D01*
X93564341Y-123066264D01*
X93571495Y-123067671D01*
X93576394Y-123068636D01*
X93599396Y-123072469D01*
X93600024Y-123072576D01*
X93615529Y-123075273D01*
X93621926Y-123076386D01*
X93621929Y-123076386D01*
X93621933Y-123076387D01*
X93648847Y-123079301D01*
X93657133Y-123079661D01*
X93723254Y-123102237D01*
X93766673Y-123156978D01*
X93774407Y-123185350D01*
X93783422Y-123246130D01*
X93889688Y-123302931D01*
X94068770Y-123357255D01*
X94188218Y-123369019D01*
X94253006Y-123395179D01*
X94293365Y-123452213D01*
X94296482Y-123522013D01*
X94283452Y-123554421D01*
X94232018Y-123643506D01*
X94232017Y-123643509D01*
X94232016Y-123643514D01*
X94194500Y-123783524D01*
X94194500Y-123928474D01*
X94232016Y-124068484D01*
X94232017Y-124068487D01*
X94304488Y-124194010D01*
X94304490Y-124194012D01*
X94304491Y-124194014D01*
X94406985Y-124296508D01*
X94406986Y-124296509D01*
X94406988Y-124296510D01*
X94532511Y-124368981D01*
X94532512Y-124368981D01*
X94532515Y-124368983D01*
X94672525Y-124406499D01*
X94672528Y-124406499D01*
X94817472Y-124406499D01*
X94817475Y-124406499D01*
X94957485Y-124368983D01*
X95083015Y-124296508D01*
X95093819Y-124285704D01*
X95155142Y-124252219D01*
X95224834Y-124257203D01*
X95280767Y-124299075D01*
X95305184Y-124364539D01*
X95305500Y-124373385D01*
X95305500Y-126068147D01*
X95305500Y-126153853D01*
X95316591Y-126195246D01*
X95327682Y-126236640D01*
X95349108Y-126273750D01*
X95370535Y-126310862D01*
X95370537Y-126310864D01*
X99391181Y-130331508D01*
X99424666Y-130392831D01*
X99427500Y-130419189D01*
X99427500Y-130449290D01*
X99407815Y-130516329D01*
X99355011Y-130562084D01*
X99285853Y-130572028D01*
X99227375Y-130547173D01*
X99219227Y-130540836D01*
X99204721Y-130530508D01*
X99184714Y-130517504D01*
X99184709Y-130517501D01*
X99164737Y-130504518D01*
X99164724Y-130504510D01*
X99147689Y-130494542D01*
X99147684Y-130494539D01*
X99147667Y-130494529D01*
X99147658Y-130494524D01*
X99147647Y-130494518D01*
X99126661Y-130483526D01*
X99119508Y-130479951D01*
X99098524Y-130469958D01*
X99087683Y-130465163D01*
X99065698Y-130456170D01*
X99057952Y-130453180D01*
X99057929Y-130453171D01*
X99043929Y-130448080D01*
X99035919Y-130445168D01*
X99025294Y-130441622D01*
X99002314Y-130434626D01*
X98987655Y-130430735D01*
X98987642Y-130430732D01*
X98981833Y-130429412D01*
X98920823Y-130395362D01*
X98887906Y-130333733D01*
X98893535Y-130264090D01*
X98898210Y-130256888D01*
X98896576Y-130245869D01*
X98790311Y-130189068D01*
X98611230Y-130134744D01*
X98425000Y-130116403D01*
X98238769Y-130134744D01*
X98059686Y-130189069D01*
X97953422Y-130245868D01*
X97950993Y-130262248D01*
X97961853Y-130282137D01*
X97956869Y-130351829D01*
X97914997Y-130407762D01*
X97868170Y-130429411D01*
X97862358Y-130430731D01*
X97847685Y-130434626D01*
X97824705Y-130441622D01*
X97814080Y-130445168D01*
X97802745Y-130449290D01*
X97792071Y-130453171D01*
X97792066Y-130453173D01*
X97792047Y-130453180D01*
X97784301Y-130456170D01*
X97762316Y-130465163D01*
X97751475Y-130469958D01*
X97730491Y-130479951D01*
X97723338Y-130483526D01*
X97702352Y-130494518D01*
X97702310Y-130494542D01*
X97685275Y-130504510D01*
X97685262Y-130504518D01*
X97665291Y-130517501D01*
X97665286Y-130517504D01*
X97645278Y-130530508D01*
X97630770Y-130540837D01*
X97612750Y-130554854D01*
X97602168Y-130563655D01*
X97584141Y-130579679D01*
X97579772Y-130583676D01*
X97579753Y-130583693D01*
X97579731Y-130583714D01*
X97562731Y-130599714D01*
X97562707Y-130599737D01*
X97553737Y-130608707D01*
X97553721Y-130608723D01*
X97553714Y-130608731D01*
X97537714Y-130625731D01*
X97537702Y-130625744D01*
X97537676Y-130625772D01*
X97533679Y-130630141D01*
X97517655Y-130648168D01*
X97508854Y-130658750D01*
X97494841Y-130676765D01*
X97484505Y-130691283D01*
X97458520Y-130731260D01*
X97458497Y-130731298D01*
X97448542Y-130748309D01*
X97448517Y-130748355D01*
X97437528Y-130769335D01*
X97433949Y-130776496D01*
X97423945Y-130797503D01*
X97419178Y-130808282D01*
X97410166Y-130830312D01*
X97407174Y-130838063D01*
X97399172Y-130860070D01*
X97397814Y-130864141D01*
X97395624Y-130870702D01*
X97390726Y-130886795D01*
X97388624Y-130893700D01*
X97384734Y-130908353D01*
X97379735Y-130930350D01*
X97377360Y-130942411D01*
X97373532Y-130965374D01*
X97373388Y-130966221D01*
X97369615Y-130987919D01*
X97366699Y-131014852D01*
X97366425Y-131021147D01*
X97365699Y-131037856D01*
X97365682Y-131038237D01*
X97364682Y-131062237D01*
X97364682Y-131079763D01*
X97365678Y-131103660D01*
X97365689Y-131103926D01*
X97365700Y-131104170D01*
X97365705Y-131104283D01*
X97366699Y-131127144D01*
X97366700Y-131127154D01*
X97367143Y-131131249D01*
X97369572Y-131153690D01*
X97369614Y-131154072D01*
X97373397Y-131175824D01*
X97373544Y-131176685D01*
X97377366Y-131199618D01*
X97379735Y-131211658D01*
X97384730Y-131233635D01*
X97388621Y-131248295D01*
X97392945Y-131262500D01*
X97395618Y-131271285D01*
X97395625Y-131271306D01*
X97396736Y-131274635D01*
X97399171Y-131281929D01*
X97403167Y-131292919D01*
X97407174Y-131303942D01*
X97410180Y-131311727D01*
X97419175Y-131333714D01*
X97423945Y-131344497D01*
X97433942Y-131365489D01*
X97437539Y-131372689D01*
X97448519Y-131393649D01*
X97448539Y-131393685D01*
X97458496Y-131410701D01*
X97484512Y-131450728D01*
X97494846Y-131465242D01*
X97508826Y-131483216D01*
X97508841Y-131483234D01*
X97508845Y-131483239D01*
X97517675Y-131493853D01*
X97526820Y-131504140D01*
X97533678Y-131511856D01*
X97537702Y-131516256D01*
X97553719Y-131533275D01*
X97562721Y-131542277D01*
X97565142Y-131544555D01*
X97579736Y-131558290D01*
X97584148Y-131562326D01*
X97602147Y-131578326D01*
X97602152Y-131578330D01*
X97602161Y-131578338D01*
X97612757Y-131587152D01*
X97612761Y-131587155D01*
X97612766Y-131587159D01*
X97630766Y-131601159D01*
X97645280Y-131611492D01*
X97665275Y-131624489D01*
X97685285Y-131637495D01*
X97702313Y-131647460D01*
X97702358Y-131647485D01*
X97719985Y-131656717D01*
X97723327Y-131658468D01*
X97730499Y-131662052D01*
X97730519Y-131662061D01*
X97730534Y-131662069D01*
X97732878Y-131663185D01*
X97784949Y-131709772D01*
X97803567Y-131777115D01*
X97782821Y-131843834D01*
X97729298Y-131888745D01*
X97727038Y-131889707D01*
X97680318Y-131909060D01*
X97632863Y-131918500D01*
X95107554Y-131918500D01*
X95040515Y-131898815D01*
X94994760Y-131846011D01*
X94984816Y-131776853D01*
X95013841Y-131713297D01*
X95060606Y-131679731D01*
X95067695Y-131676831D01*
X95067702Y-131676828D01*
X95078501Y-131672052D01*
X95078519Y-131672043D01*
X95078529Y-131672039D01*
X95086668Y-131668162D01*
X95099501Y-131662052D01*
X95106673Y-131658468D01*
X95127673Y-131647468D01*
X95144716Y-131637495D01*
X95154280Y-131631279D01*
X95164718Y-131624495D01*
X95179413Y-131614942D01*
X95184724Y-131611490D01*
X95199234Y-131601159D01*
X95217234Y-131587159D01*
X95227849Y-131578330D01*
X95245849Y-131562330D01*
X95250269Y-131558286D01*
X95267269Y-131542286D01*
X95276286Y-131533269D01*
X95292286Y-131516269D01*
X95296330Y-131511849D01*
X95312330Y-131493849D01*
X95321159Y-131483234D01*
X95335159Y-131465234D01*
X95345492Y-131450720D01*
X95371492Y-131410720D01*
X95381468Y-131393673D01*
X95392468Y-131372673D01*
X95396052Y-131365501D01*
X95406052Y-131344501D01*
X95410828Y-131333702D01*
X95419828Y-131311702D01*
X95422827Y-131303937D01*
X95430827Y-131281937D01*
X95434380Y-131271290D01*
X95441380Y-131248290D01*
X95445266Y-131233649D01*
X95450266Y-131211648D01*
X95452636Y-131199606D01*
X95456477Y-131176552D01*
X95456614Y-131175754D01*
X95460385Y-131154079D01*
X95460386Y-131154072D01*
X95460387Y-131154067D01*
X95463301Y-131127144D01*
X95464301Y-131104144D01*
X95464318Y-131103763D01*
X95465318Y-131079763D01*
X95465318Y-131062237D01*
X95464318Y-131038237D01*
X95464301Y-131037856D01*
X95463301Y-131014856D01*
X95460387Y-130987934D01*
X95456603Y-130966174D01*
X95456472Y-130965407D01*
X95452634Y-130942379D01*
X95450263Y-130930339D01*
X95445263Y-130908341D01*
X95441385Y-130893734D01*
X95441381Y-130893718D01*
X95434382Y-130870718D01*
X95434370Y-130870683D01*
X95430834Y-130860083D01*
X95430824Y-130860055D01*
X95422827Y-130838063D01*
X95419828Y-130830298D01*
X95414647Y-130817635D01*
X95410836Y-130808316D01*
X95409954Y-130806322D01*
X95406052Y-130797499D01*
X95406049Y-130797493D01*
X95406039Y-130797470D01*
X95396071Y-130776539D01*
X95396052Y-130776499D01*
X95392468Y-130769327D01*
X95390717Y-130765985D01*
X95381485Y-130748358D01*
X95381471Y-130748334D01*
X95381468Y-130748327D01*
X95381457Y-130748309D01*
X95371495Y-130731285D01*
X95359404Y-130712684D01*
X95345492Y-130691280D01*
X95335159Y-130676766D01*
X95321159Y-130658766D01*
X95321146Y-130658750D01*
X95312339Y-130648161D01*
X95296330Y-130630151D01*
X95296306Y-130630125D01*
X95292290Y-130625735D01*
X95292263Y-130625706D01*
X95276293Y-130608736D01*
X95267274Y-130599717D01*
X95250250Y-130583696D01*
X95245864Y-130579684D01*
X95245849Y-130579670D01*
X95227849Y-130563670D01*
X95225942Y-130562084D01*
X95217238Y-130554844D01*
X95199232Y-130540839D01*
X95184725Y-130530511D01*
X95144714Y-130504504D01*
X95127686Y-130494539D01*
X95127641Y-130494514D01*
X95106708Y-130483550D01*
X95106694Y-130483543D01*
X95106673Y-130483532D01*
X95099501Y-130479948D01*
X95099483Y-130479939D01*
X95078486Y-130469941D01*
X95067728Y-130465184D01*
X95067722Y-130465181D01*
X95067705Y-130465174D01*
X95053408Y-130459325D01*
X95045697Y-130456170D01*
X95037935Y-130453172D01*
X95015938Y-130445173D01*
X95005284Y-130441618D01*
X94982295Y-130434621D01*
X94967644Y-130430733D01*
X94945651Y-130425735D01*
X94933614Y-130423364D01*
X94918030Y-130420766D01*
X94910645Y-130419535D01*
X94910028Y-130419430D01*
X94888056Y-130415611D01*
X94888051Y-130415610D01*
X94886094Y-130415335D01*
X94886102Y-130415271D01*
X94886089Y-130415269D01*
X94886164Y-130414837D01*
X94886171Y-130414783D01*
X94823672Y-130388841D01*
X94783866Y-130331420D01*
X94781423Y-130261593D01*
X94817120Y-130201530D01*
X94869452Y-130172573D01*
X94957485Y-130148985D01*
X95083015Y-130076510D01*
X95185509Y-129974016D01*
X95257984Y-129848486D01*
X95295500Y-129708476D01*
X95295500Y-129563526D01*
X95257984Y-129423516D01*
X95251911Y-129412998D01*
X95185511Y-129297989D01*
X95185506Y-129297983D01*
X95083017Y-129195494D01*
X95083011Y-129195489D01*
X94957488Y-129123018D01*
X94957489Y-129123018D01*
X94946006Y-129119941D01*
X94817475Y-129085501D01*
X94672525Y-129085501D01*
X94543993Y-129119941D01*
X94532511Y-129123018D01*
X94406988Y-129195489D01*
X94406982Y-129195494D01*
X94304493Y-129297983D01*
X94304488Y-129297989D01*
X94232017Y-129423512D01*
X94232016Y-129423516D01*
X94194500Y-129563526D01*
X94194500Y-129708476D01*
X94230086Y-129841282D01*
X94232017Y-129848489D01*
X94283452Y-129937577D01*
X94299925Y-130005477D01*
X94277072Y-130071504D01*
X94222151Y-130114695D01*
X94188219Y-130122980D01*
X94068769Y-130134744D01*
X93889686Y-130189069D01*
X93783422Y-130245868D01*
X93774407Y-130306649D01*
X93745099Y-130370075D01*
X93686153Y-130407587D01*
X93657144Y-130412337D01*
X93648847Y-130412699D01*
X93639875Y-130413670D01*
X93621927Y-130415613D01*
X93600173Y-130419397D01*
X93599315Y-130419543D01*
X93576404Y-130423361D01*
X93564341Y-130425735D01*
X93542364Y-130430730D01*
X93527704Y-130434621D01*
X93509503Y-130440161D01*
X93504710Y-130441620D01*
X93502043Y-130442509D01*
X93494060Y-130445173D01*
X93472064Y-130453172D01*
X93464296Y-130456172D01*
X93442308Y-130465166D01*
X93431483Y-130469953D01*
X93410510Y-130479941D01*
X93403293Y-130483548D01*
X93382357Y-130494515D01*
X93382313Y-130494539D01*
X93365285Y-130504504D01*
X93325274Y-130530511D01*
X93310767Y-130540839D01*
X93292761Y-130554844D01*
X93282161Y-130563660D01*
X93264125Y-130579692D01*
X93259744Y-130583701D01*
X93242726Y-130599718D01*
X93233718Y-130608726D01*
X93217701Y-130625744D01*
X93213692Y-130630125D01*
X93197669Y-130648150D01*
X93188840Y-130658766D01*
X93174834Y-130676776D01*
X93164515Y-130691270D01*
X93155285Y-130705468D01*
X93151512Y-130711274D01*
X93151508Y-130711280D01*
X93147636Y-130717235D01*
X93138504Y-130731285D01*
X93128539Y-130748313D01*
X93128514Y-130748358D01*
X93117550Y-130769291D01*
X93113928Y-130776539D01*
X93103956Y-130797479D01*
X93099164Y-130808314D01*
X93090174Y-130830293D01*
X93087179Y-130838048D01*
X93087174Y-130838062D01*
X93080185Y-130857282D01*
X93079170Y-130860072D01*
X93075621Y-130870705D01*
X93068623Y-130893696D01*
X93064730Y-130908364D01*
X93059735Y-130930341D01*
X93057367Y-130942376D01*
X93053544Y-130965315D01*
X93053397Y-130966174D01*
X93049614Y-130987924D01*
X93046700Y-131014845D01*
X93046699Y-131014855D01*
X93045705Y-131037717D01*
X93045700Y-131037830D01*
X93045690Y-131038053D01*
X93044682Y-131062247D01*
X93044682Y-131079774D01*
X93045678Y-131103660D01*
X93045679Y-131103660D01*
X93045683Y-131103763D01*
X93045699Y-131104142D01*
X93045817Y-131106853D01*
X93046699Y-131127148D01*
X93048276Y-131141718D01*
X93049572Y-131153690D01*
X93049614Y-131154072D01*
X93053397Y-131175824D01*
X93053544Y-131176685D01*
X93057366Y-131199618D01*
X93059735Y-131211658D01*
X93064730Y-131233635D01*
X93068621Y-131248295D01*
X93072120Y-131259790D01*
X93075620Y-131271290D01*
X93077983Y-131278373D01*
X93079176Y-131281947D01*
X93087163Y-131303912D01*
X93090187Y-131311738D01*
X93099170Y-131333697D01*
X93103938Y-131344481D01*
X93103946Y-131344497D01*
X93113946Y-131365498D01*
X93113951Y-131365508D01*
X93117549Y-131372708D01*
X93128515Y-131393642D01*
X93128539Y-131393686D01*
X93132857Y-131401064D01*
X93138508Y-131410720D01*
X93148243Y-131425697D01*
X93164514Y-131450730D01*
X93174842Y-131465235D01*
X93188777Y-131483150D01*
X93188847Y-131483240D01*
X93197667Y-131493844D01*
X93213666Y-131511844D01*
X93217714Y-131516269D01*
X93233714Y-131533269D01*
X93242731Y-131542286D01*
X93259731Y-131558286D01*
X93259739Y-131558294D01*
X93259744Y-131558298D01*
X93264125Y-131562307D01*
X93282161Y-131578339D01*
X93292761Y-131587155D01*
X93310761Y-131601156D01*
X93322991Y-131609863D01*
X93323287Y-131610197D01*
X93327248Y-131612771D01*
X93345276Y-131624489D01*
X93345276Y-131624490D01*
X93365275Y-131637490D01*
X93365283Y-131637494D01*
X93365285Y-131637496D01*
X93382313Y-131647460D01*
X93382329Y-131647469D01*
X93403330Y-131658469D01*
X93410463Y-131662034D01*
X93410517Y-131662061D01*
X93412878Y-131663185D01*
X93431499Y-131672052D01*
X93438556Y-131675173D01*
X93442304Y-131676831D01*
X93449394Y-131679731D01*
X93503990Y-131723333D01*
X93526346Y-131789529D01*
X93509365Y-131857304D01*
X93458438Y-131905139D01*
X93402446Y-131918500D01*
X93197032Y-131918500D01*
X93129993Y-131898815D01*
X93121546Y-131892876D01*
X93012842Y-131809464D01*
X92866762Y-131748956D01*
X92866760Y-131748955D01*
X92710001Y-131728318D01*
X92709997Y-131728318D01*
X92642179Y-131737246D01*
X92573144Y-131726480D01*
X92538314Y-131701988D01*
X90837044Y-130000718D01*
X89134819Y-128298492D01*
X89101334Y-128237169D01*
X89098500Y-128210811D01*
X89098500Y-123992808D01*
X89118185Y-123925769D01*
X89147010Y-123894435D01*
X89175882Y-123872282D01*
X89272136Y-123746841D01*
X89332644Y-123600762D01*
X89353282Y-123444000D01*
X89348233Y-123405652D01*
X89332644Y-123287239D01*
X89332644Y-123287238D01*
X89272136Y-123141159D01*
X89175882Y-123015718D01*
X89050441Y-122919464D01*
X89023544Y-122908323D01*
X88904362Y-122858956D01*
X88904360Y-122858955D01*
X88747601Y-122838318D01*
X88747599Y-122838318D01*
X88590839Y-122858955D01*
X88590837Y-122858956D01*
X88444760Y-122919463D01*
X88319318Y-123015718D01*
X88223063Y-123141160D01*
X88162556Y-123287237D01*
X88162555Y-123287239D01*
X88141918Y-123443998D01*
X88141918Y-123444001D01*
X88162555Y-123600760D01*
X88162556Y-123600762D01*
X88223064Y-123746841D01*
X88319318Y-123872282D01*
X88319319Y-123872283D01*
X88398986Y-123933413D01*
X88440189Y-123989841D01*
X88447500Y-124031789D01*
X88447500Y-128439852D01*
X88469682Y-128522640D01*
X88491108Y-128559750D01*
X88512535Y-128596862D01*
X90311035Y-130395362D01*
X92077988Y-132162314D01*
X92111473Y-132223637D01*
X92113246Y-132266179D01*
X92104318Y-132333997D01*
X92104318Y-132334001D01*
X92124955Y-132490760D01*
X92124956Y-132490762D01*
X92173933Y-132609004D01*
X92185464Y-132636841D01*
X92281718Y-132762282D01*
X92407159Y-132858536D01*
X92553238Y-132919044D01*
X92631619Y-132929363D01*
X92709999Y-132939682D01*
X92710000Y-132939682D01*
X92710001Y-132939682D01*
X92762254Y-132932802D01*
X92866762Y-132919044D01*
X93012841Y-132858536D01*
X93138282Y-132762282D01*
X93234536Y-132636841D01*
X93234539Y-132636833D01*
X93237621Y-132631497D01*
X93288190Y-132583283D01*
X93345007Y-132569500D01*
X95214922Y-132569500D01*
X95281961Y-132589185D01*
X95327716Y-132641989D01*
X95337660Y-132711147D01*
X95329483Y-132740952D01*
X95299957Y-132812234D01*
X95299955Y-132812239D01*
X95279318Y-132968998D01*
X95279318Y-132969002D01*
X95289328Y-133045042D01*
X95278562Y-133114077D01*
X95254071Y-133148907D01*
X95181793Y-133221185D01*
X95181792Y-133221186D01*
X95174726Y-133228253D01*
X95174725Y-133228253D01*
X95174722Y-133228255D01*
X95174723Y-133228256D01*
X95070796Y-133332182D01*
X95009476Y-133365666D01*
X94983117Y-133368500D01*
X89947908Y-133368500D01*
X89880869Y-133348815D01*
X89849535Y-133319989D01*
X89836282Y-133302718D01*
X89710841Y-133206464D01*
X89653549Y-133182733D01*
X89564762Y-133145956D01*
X89564760Y-133145955D01*
X89408001Y-133125318D01*
X89407999Y-133125318D01*
X89251239Y-133145955D01*
X89251237Y-133145956D01*
X89105160Y-133206463D01*
X88979718Y-133302718D01*
X88883463Y-133428160D01*
X88822956Y-133574237D01*
X88822955Y-133574239D01*
X88802318Y-133730998D01*
X88802318Y-133731001D01*
X88822955Y-133887760D01*
X88822956Y-133887762D01*
X88883464Y-134033841D01*
X88979718Y-134159282D01*
X89062059Y-134222464D01*
X89065192Y-134224868D01*
X89106394Y-134281296D01*
X89110549Y-134351043D01*
X89076336Y-134411963D01*
X89014619Y-134444715D01*
X89005895Y-134446182D01*
X88995924Y-134447495D01*
X88995923Y-134447495D01*
X88849846Y-134508002D01*
X88724401Y-134604259D01*
X88685875Y-134654468D01*
X88629447Y-134695671D01*
X88559701Y-134699825D01*
X88498781Y-134665612D01*
X88466028Y-134603894D01*
X88463500Y-134578981D01*
X88463500Y-131116855D01*
X88463501Y-131116842D01*
X88463501Y-131021148D01*
X88463500Y-131021144D01*
X88441318Y-130938362D01*
X88436692Y-130930349D01*
X88398465Y-130864138D01*
X88337862Y-130803535D01*
X88337861Y-130803534D01*
X88333531Y-130799204D01*
X88333520Y-130799194D01*
X88135011Y-130600685D01*
X88101526Y-130539362D01*
X88099753Y-130496818D01*
X88102898Y-130472935D01*
X88108682Y-130429000D01*
X88107439Y-130419561D01*
X88088044Y-130272239D01*
X88088044Y-130272238D01*
X88027536Y-130126159D01*
X87931282Y-130000718D01*
X87805841Y-129904464D01*
X87659762Y-129843956D01*
X87659760Y-129843955D01*
X87503001Y-129823318D01*
X87502999Y-129823318D01*
X87346239Y-129843955D01*
X87346237Y-129843956D01*
X87200160Y-129904463D01*
X87074718Y-130000718D01*
X86978464Y-130126159D01*
X86954029Y-130185150D01*
X86910187Y-130239553D01*
X86843893Y-130261617D01*
X86776194Y-130244337D01*
X86763982Y-130236072D01*
X86662842Y-130158464D01*
X86516762Y-130097956D01*
X86516760Y-130097955D01*
X86360001Y-130077318D01*
X86359999Y-130077318D01*
X86203239Y-130097955D01*
X86203234Y-130097957D01*
X86094952Y-130142809D01*
X86025483Y-130150278D01*
X85963004Y-130119003D01*
X85927352Y-130058914D01*
X85923500Y-130028248D01*
X85923500Y-127695298D01*
X85943185Y-127628259D01*
X85972010Y-127596925D01*
X86026282Y-127555282D01*
X86122536Y-127429841D01*
X86183044Y-127283762D01*
X86203682Y-127127000D01*
X86203005Y-127121861D01*
X86183044Y-126970239D01*
X86183044Y-126970238D01*
X86122536Y-126824159D01*
X86026282Y-126698718D01*
X85900841Y-126602464D01*
X85754762Y-126541956D01*
X85754760Y-126541955D01*
X85598001Y-126521318D01*
X85597999Y-126521318D01*
X85441239Y-126541955D01*
X85441237Y-126541956D01*
X85295160Y-126602463D01*
X85169718Y-126698718D01*
X85073463Y-126824160D01*
X85012956Y-126970237D01*
X85012956Y-126970239D01*
X85001406Y-127057964D01*
X84973139Y-127121861D01*
X84914814Y-127160331D01*
X84844949Y-127161162D01*
X84790786Y-127129459D01*
X84689819Y-127028492D01*
X84656334Y-126967169D01*
X84653500Y-126940811D01*
X84653500Y-126425298D01*
X84673185Y-126358259D01*
X84702010Y-126326925D01*
X84756282Y-126285282D01*
X84852536Y-126159841D01*
X84913044Y-126013762D01*
X84933682Y-125857000D01*
X84929613Y-125826096D01*
X84913044Y-125700239D01*
X84913044Y-125700238D01*
X84852536Y-125554159D01*
X84756282Y-125428718D01*
X84630841Y-125332464D01*
X84484762Y-125271956D01*
X84484760Y-125271955D01*
X84328001Y-125251318D01*
X84327999Y-125251318D01*
X84171239Y-125271955D01*
X84171237Y-125271956D01*
X84025160Y-125332463D01*
X83899718Y-125428718D01*
X83803463Y-125554160D01*
X83742956Y-125700237D01*
X83742955Y-125700239D01*
X83722318Y-125856998D01*
X83722318Y-125857001D01*
X83742955Y-126013760D01*
X83742956Y-126013762D01*
X83791479Y-126130908D01*
X83803464Y-126159841D01*
X83899718Y-126285282D01*
X83953987Y-126326924D01*
X83995189Y-126383349D01*
X84002500Y-126425298D01*
X84002500Y-127169852D01*
X84024682Y-127252640D01*
X84042650Y-127283760D01*
X84067535Y-127326862D01*
X84067537Y-127326864D01*
X84786181Y-128045508D01*
X84819666Y-128106831D01*
X84822500Y-128133189D01*
X84822500Y-128784343D01*
X84802815Y-128851382D01*
X84750011Y-128897137D01*
X84680853Y-128907081D01*
X84636508Y-128891735D01*
X84630843Y-128888465D01*
X84630838Y-128888463D01*
X84484762Y-128827956D01*
X84484760Y-128827955D01*
X84328001Y-128807318D01*
X84327999Y-128807318D01*
X84171239Y-128827955D01*
X84171237Y-128827956D01*
X84025160Y-128888463D01*
X83899718Y-128984718D01*
X83803463Y-129110160D01*
X83742956Y-129256237D01*
X83742955Y-129256239D01*
X83722318Y-129412998D01*
X83722318Y-129413001D01*
X83742955Y-129569760D01*
X83742956Y-129569762D01*
X83803464Y-129715841D01*
X83899718Y-129841282D01*
X84025159Y-129937536D01*
X84171238Y-129998044D01*
X84264686Y-130010346D01*
X84328581Y-130038612D01*
X84367053Y-130096936D01*
X84372500Y-130133285D01*
X84372500Y-130393669D01*
X84352815Y-130460708D01*
X84300011Y-130506463D01*
X84230853Y-130516407D01*
X84167297Y-130487382D01*
X84160819Y-130481350D01*
X84152404Y-130472935D01*
X84135782Y-130465184D01*
X84045173Y-130422932D01*
X84045171Y-130422931D01*
X84045172Y-130422931D01*
X83996317Y-130416500D01*
X83996316Y-130416500D01*
X83647684Y-130416500D01*
X83647683Y-130416500D01*
X83598828Y-130422931D01*
X83491595Y-130472935D01*
X83400264Y-130564267D01*
X83397440Y-130561443D01*
X83358958Y-130592183D01*
X83289458Y-130599352D01*
X83227114Y-130567808D01*
X83223901Y-130564101D01*
X83223736Y-130564267D01*
X83132404Y-130472935D01*
X83115782Y-130465184D01*
X83025173Y-130422932D01*
X83025171Y-130422931D01*
X83025172Y-130422931D01*
X82976317Y-130416500D01*
X82976316Y-130416500D01*
X82627684Y-130416500D01*
X82627683Y-130416500D01*
X82578828Y-130422931D01*
X82471595Y-130472935D01*
X82387936Y-130556594D01*
X82386516Y-130558623D01*
X82383486Y-130561044D01*
X82380264Y-130564267D01*
X82379904Y-130563907D01*
X82331939Y-130602248D01*
X82284941Y-130611500D01*
X77276299Y-130611500D01*
X77209260Y-130591815D01*
X77177923Y-130562986D01*
X77136283Y-130508719D01*
X77130790Y-130504504D01*
X77010841Y-130412464D01*
X77008994Y-130411699D01*
X76864762Y-130351956D01*
X76864760Y-130351955D01*
X76708001Y-130331318D01*
X76707999Y-130331318D01*
X76551239Y-130351955D01*
X76551237Y-130351956D01*
X76405160Y-130412463D01*
X76279718Y-130508718D01*
X76183463Y-130634160D01*
X76122956Y-130780237D01*
X76122955Y-130780239D01*
X76102318Y-130936998D01*
X76102318Y-130937001D01*
X76122955Y-131093760D01*
X76122956Y-131093762D01*
X76157281Y-131176631D01*
X76183464Y-131239841D01*
X76279718Y-131365282D01*
X76405159Y-131461536D01*
X76551238Y-131522044D01*
X76629619Y-131532363D01*
X76707999Y-131542682D01*
X76708000Y-131542682D01*
X76708001Y-131542682D01*
X76760254Y-131535802D01*
X76864762Y-131522044D01*
X77010841Y-131461536D01*
X77136282Y-131365282D01*
X77177923Y-131311013D01*
X77234351Y-131269811D01*
X77276299Y-131262500D01*
X79078147Y-131262500D01*
X79205147Y-131262500D01*
X82284941Y-131262500D01*
X82351980Y-131282185D01*
X82386516Y-131315377D01*
X82387934Y-131317402D01*
X82387935Y-131317404D01*
X82471596Y-131401065D01*
X82578827Y-131451068D01*
X82627683Y-131457500D01*
X82627684Y-131457500D01*
X82976317Y-131457500D01*
X83005446Y-131453665D01*
X83025173Y-131451068D01*
X83132404Y-131401065D01*
X83216065Y-131317404D01*
X83216065Y-131317403D01*
X83223736Y-131309733D01*
X83226564Y-131312561D01*
X83264977Y-131281843D01*
X83334474Y-131274635D01*
X83396835Y-131306143D01*
X83400093Y-131309903D01*
X83400264Y-131309733D01*
X83407935Y-131317404D01*
X83491596Y-131401065D01*
X83598827Y-131451068D01*
X83647683Y-131457500D01*
X83647684Y-131457500D01*
X83996317Y-131457500D01*
X84054579Y-131449830D01*
X84055083Y-131453665D01*
X84106162Y-131453690D01*
X84158851Y-131484969D01*
X84433194Y-131759312D01*
X84433215Y-131759335D01*
X85976181Y-133302300D01*
X86009666Y-133363623D01*
X86012500Y-133389981D01*
X86012500Y-136084731D01*
X86012500Y-136170437D01*
X86018503Y-136192841D01*
X86034682Y-136253224D01*
X86046671Y-136273988D01*
X86077535Y-136327446D01*
X86077537Y-136327448D01*
X89104181Y-139354092D01*
X89137666Y-139415415D01*
X89140500Y-139441773D01*
X89140500Y-141741811D01*
X89120815Y-141808850D01*
X89104181Y-141829492D01*
X87658492Y-143275181D01*
X87597169Y-143308666D01*
X87570811Y-143311500D01*
X86420299Y-143311500D01*
X86353260Y-143291815D01*
X86321923Y-143262986D01*
X86280283Y-143208719D01*
X86238009Y-143176281D01*
X86154841Y-143112464D01*
X86076852Y-143080160D01*
X86008762Y-143051956D01*
X86008760Y-143051955D01*
X85852001Y-143031318D01*
X85851999Y-143031318D01*
X85695239Y-143051955D01*
X85695237Y-143051956D01*
X85549160Y-143112463D01*
X85423718Y-143208718D01*
X85327463Y-143334160D01*
X85266956Y-143480237D01*
X85266955Y-143480239D01*
X85246318Y-143636998D01*
X85246318Y-143637001D01*
X85266955Y-143793760D01*
X85266956Y-143793762D01*
X85294905Y-143861238D01*
X85327464Y-143939841D01*
X85423718Y-144065282D01*
X85549159Y-144161536D01*
X85695238Y-144222044D01*
X85773619Y-144232363D01*
X85851999Y-144242682D01*
X85852000Y-144242682D01*
X85852001Y-144242682D01*
X85904254Y-144235802D01*
X86008762Y-144222044D01*
X86154841Y-144161536D01*
X86280282Y-144065282D01*
X86321923Y-144011013D01*
X86378351Y-143969811D01*
X86420299Y-143962500D01*
X87079147Y-143962500D01*
X87580116Y-143962500D01*
X87647155Y-143982185D01*
X87667797Y-143998819D01*
X89009181Y-145340203D01*
X89042666Y-145401526D01*
X89045500Y-145427884D01*
X89045500Y-146776922D01*
X89025815Y-146843961D01*
X88973011Y-146889716D01*
X88903853Y-146899660D01*
X88874048Y-146891483D01*
X88802765Y-146861957D01*
X88802760Y-146861955D01*
X88646001Y-146841318D01*
X88645999Y-146841318D01*
X88489239Y-146861955D01*
X88489237Y-146861956D01*
X88343160Y-146922463D01*
X88217716Y-147018719D01*
X88176077Y-147072986D01*
X88119649Y-147114189D01*
X88077701Y-147121500D01*
X86918465Y-147121500D01*
X86918449Y-147121499D01*
X86910853Y-147121499D01*
X86825147Y-147121499D01*
X86792033Y-147130372D01*
X86742359Y-147143682D01*
X86742358Y-147143683D01*
X86668141Y-147186532D01*
X86668136Y-147186536D01*
X86607533Y-147247140D01*
X82213684Y-151640988D01*
X82152361Y-151674473D01*
X82109818Y-151676246D01*
X82042001Y-151667318D01*
X82041999Y-151667318D01*
X81974181Y-151676246D01*
X81905145Y-151665480D01*
X81870315Y-151640988D01*
X81094543Y-150865215D01*
X81094520Y-150865194D01*
X80614644Y-150385318D01*
X80043797Y-149814470D01*
X80043790Y-149814464D01*
X77288864Y-147059537D01*
X77288863Y-147059536D01*
X77288862Y-147059535D01*
X77251750Y-147038108D01*
X77214640Y-147016682D01*
X77173246Y-147005591D01*
X77131853Y-146994500D01*
X77131852Y-146994500D01*
X76768299Y-146994500D01*
X76701260Y-146974815D01*
X76669923Y-146945986D01*
X76628283Y-146891719D01*
X76628282Y-146891718D01*
X76502841Y-146795464D01*
X76424852Y-146763160D01*
X76356762Y-146734956D01*
X76356760Y-146734955D01*
X76200001Y-146714318D01*
X76199999Y-146714318D01*
X76043239Y-146734955D01*
X76043237Y-146734956D01*
X75897160Y-146795463D01*
X75771718Y-146891718D01*
X75675463Y-147017160D01*
X75614956Y-147163237D01*
X75614955Y-147163239D01*
X75594318Y-147319998D01*
X75594318Y-147320001D01*
X75614955Y-147476760D01*
X75614956Y-147476762D01*
X75661265Y-147588563D01*
X75675464Y-147622841D01*
X75771718Y-147748282D01*
X75897159Y-147844536D01*
X76043238Y-147905044D01*
X76121619Y-147915363D01*
X76199999Y-147925682D01*
X76200000Y-147925682D01*
X76200001Y-147925682D01*
X76252254Y-147918802D01*
X76356762Y-147905044D01*
X76502841Y-147844536D01*
X76628282Y-147748282D01*
X76669923Y-147694013D01*
X76726351Y-147652811D01*
X76768299Y-147645500D01*
X76902811Y-147645500D01*
X76969850Y-147665185D01*
X76990492Y-147681819D01*
X78009226Y-148700553D01*
X78853493Y-149544819D01*
X78886978Y-149606142D01*
X78881994Y-149675834D01*
X78840122Y-149731767D01*
X78774658Y-149756184D01*
X78765812Y-149756500D01*
X70766189Y-149756500D01*
X70699150Y-149736815D01*
X70678508Y-149720181D01*
X69695199Y-148736872D01*
X69661714Y-148675549D01*
X69658880Y-148649191D01*
X69658880Y-147066001D01*
X71276318Y-147066001D01*
X71296955Y-147222760D01*
X71296956Y-147222762D01*
X71337232Y-147319998D01*
X71357464Y-147368841D01*
X71453718Y-147494282D01*
X71579159Y-147590536D01*
X71725238Y-147651044D01*
X71803619Y-147661363D01*
X71881999Y-147671682D01*
X71882000Y-147671682D01*
X71882001Y-147671682D01*
X71934254Y-147664802D01*
X72038762Y-147651044D01*
X72184841Y-147590536D01*
X72310282Y-147494282D01*
X72406536Y-147368841D01*
X72467044Y-147222762D01*
X72487682Y-147066000D01*
X72478753Y-146998181D01*
X72489518Y-146929146D01*
X72514008Y-146894317D01*
X74773821Y-144634505D01*
X74835142Y-144601022D01*
X74904834Y-144606006D01*
X74960767Y-144647878D01*
X74985184Y-144713342D01*
X74985500Y-144722188D01*
X74985500Y-145990811D01*
X74965815Y-146057850D01*
X74949181Y-146078492D01*
X72799492Y-148228181D01*
X72738169Y-148261666D01*
X72711811Y-148264500D01*
X72704299Y-148264500D01*
X72637260Y-148244815D01*
X72605923Y-148215986D01*
X72564283Y-148161719D01*
X72491452Y-148105834D01*
X72438841Y-148065464D01*
X72414148Y-148055236D01*
X72292762Y-148004956D01*
X72292760Y-148004955D01*
X72136001Y-147984318D01*
X72135999Y-147984318D01*
X71979239Y-148004955D01*
X71979237Y-148004956D01*
X71833160Y-148065463D01*
X71707718Y-148161718D01*
X71611463Y-148287160D01*
X71550956Y-148433237D01*
X71550955Y-148433239D01*
X71530318Y-148589998D01*
X71530318Y-148590001D01*
X71550955Y-148746760D01*
X71550956Y-148746762D01*
X71595751Y-148854908D01*
X71611464Y-148892841D01*
X71707718Y-149018282D01*
X71833159Y-149114536D01*
X71979238Y-149175044D01*
X72057619Y-149185363D01*
X72135999Y-149195682D01*
X72136000Y-149195682D01*
X72136001Y-149195682D01*
X72188254Y-149188802D01*
X72292762Y-149175044D01*
X72438841Y-149114536D01*
X72564282Y-149018282D01*
X72605923Y-148964013D01*
X72662351Y-148922811D01*
X72704299Y-148915500D01*
X72940851Y-148915500D01*
X72940853Y-148915500D01*
X73023639Y-148893318D01*
X73097862Y-148850465D01*
X73106783Y-148841544D01*
X73168105Y-148808057D01*
X73237797Y-148813039D01*
X73293732Y-148854908D01*
X73317406Y-148913036D01*
X73323724Y-148961019D01*
X73328956Y-149000762D01*
X73389464Y-149146841D01*
X73485718Y-149272282D01*
X73611159Y-149368536D01*
X73757238Y-149429044D01*
X73835619Y-149439363D01*
X73913999Y-149449682D01*
X73914000Y-149449682D01*
X73914001Y-149449682D01*
X73966254Y-149442802D01*
X74070762Y-149429044D01*
X74216841Y-149368536D01*
X74342282Y-149272282D01*
X74383923Y-149218013D01*
X74440351Y-149176811D01*
X74482299Y-149169500D01*
X76139701Y-149169500D01*
X76206740Y-149189185D01*
X76238077Y-149218014D01*
X76257366Y-149243153D01*
X76279718Y-149272282D01*
X76405159Y-149368536D01*
X76551238Y-149429044D01*
X76629619Y-149439363D01*
X76707999Y-149449682D01*
X76708000Y-149449682D01*
X76708001Y-149449682D01*
X76760254Y-149442802D01*
X76864762Y-149429044D01*
X77010841Y-149368536D01*
X77136282Y-149272282D01*
X77232536Y-149146841D01*
X77293044Y-149000762D01*
X77313682Y-148844000D01*
X77310860Y-148822568D01*
X77293044Y-148687239D01*
X77293044Y-148687238D01*
X77232536Y-148541159D01*
X77136282Y-148415718D01*
X77010841Y-148319464D01*
X76932852Y-148287160D01*
X76864762Y-148258956D01*
X76864760Y-148258955D01*
X76708001Y-148238318D01*
X76707999Y-148238318D01*
X76551239Y-148258955D01*
X76551237Y-148258956D01*
X76405160Y-148319463D01*
X76279716Y-148415719D01*
X76238077Y-148469986D01*
X76181649Y-148511189D01*
X76139701Y-148518500D01*
X74482299Y-148518500D01*
X74415260Y-148498815D01*
X74383923Y-148469986D01*
X74342283Y-148415719D01*
X74342282Y-148415718D01*
X74216841Y-148319464D01*
X74070762Y-148258956D01*
X74050925Y-148256344D01*
X73983034Y-148247406D01*
X73919138Y-148219139D01*
X73880667Y-148160814D01*
X73879836Y-148090950D01*
X73911537Y-148036788D01*
X75571465Y-146376862D01*
X75587135Y-146349720D01*
X75606156Y-146316776D01*
X75614317Y-146302639D01*
X75614318Y-146302638D01*
X75636500Y-146219853D01*
X75636500Y-143315188D01*
X75656185Y-143248149D01*
X75672814Y-143227512D01*
X77552316Y-141348009D01*
X77613637Y-141314526D01*
X77656181Y-141312753D01*
X77723999Y-141321682D01*
X77724000Y-141321682D01*
X77724001Y-141321682D01*
X77776254Y-141314802D01*
X77880762Y-141301044D01*
X78016957Y-141244629D01*
X78086425Y-141237161D01*
X78148905Y-141268436D01*
X78178970Y-141311738D01*
X78193995Y-141348011D01*
X78215464Y-141399841D01*
X78311718Y-141525282D01*
X78437159Y-141621536D01*
X78583238Y-141682044D01*
X78661619Y-141692363D01*
X78739999Y-141702682D01*
X78740000Y-141702682D01*
X78740001Y-141702682D01*
X78799080Y-141694904D01*
X78896762Y-141682044D01*
X79042841Y-141621536D01*
X79168282Y-141525282D01*
X79213125Y-141466841D01*
X79269552Y-141425639D01*
X79339298Y-141421484D01*
X79400218Y-141455696D01*
X79409871Y-141466837D01*
X79432308Y-141496077D01*
X79450366Y-141519611D01*
X79454718Y-141525282D01*
X79580159Y-141621536D01*
X79651444Y-141651063D01*
X79705847Y-141694904D01*
X79727912Y-141761198D01*
X79710633Y-141828897D01*
X79691672Y-141853305D01*
X79158797Y-142386181D01*
X79097474Y-142419666D01*
X79071116Y-142422500D01*
X78038299Y-142422500D01*
X77971260Y-142402815D01*
X77939923Y-142373986D01*
X77898283Y-142319719D01*
X77825443Y-142263827D01*
X77772841Y-142223464D01*
X77626762Y-142162956D01*
X77626760Y-142162955D01*
X77470001Y-142142318D01*
X77469999Y-142142318D01*
X77313239Y-142162955D01*
X77313237Y-142162956D01*
X77167160Y-142223463D01*
X77041718Y-142319718D01*
X76945463Y-142445160D01*
X76884956Y-142591237D01*
X76884955Y-142591239D01*
X76864318Y-142747998D01*
X76864318Y-142748001D01*
X76884955Y-142904760D01*
X76884956Y-142904762D01*
X76945464Y-143050841D01*
X77041718Y-143176282D01*
X77167159Y-143272536D01*
X77313238Y-143333044D01*
X77391619Y-143343363D01*
X77469999Y-143353682D01*
X77470000Y-143353682D01*
X77470001Y-143353682D01*
X77522254Y-143346802D01*
X77626762Y-143333044D01*
X77772841Y-143272536D01*
X77898282Y-143176282D01*
X77939923Y-143122013D01*
X77996351Y-143080811D01*
X78038299Y-143073500D01*
X79300156Y-143073500D01*
X79300158Y-143073500D01*
X79382944Y-143051318D01*
X79457167Y-143008465D01*
X80808353Y-141657279D01*
X80869676Y-141623794D01*
X80939368Y-141628778D01*
X80970939Y-141649068D01*
X80972271Y-141647334D01*
X80978716Y-141652279D01*
X80978718Y-141652282D01*
X81104159Y-141748536D01*
X81250238Y-141809044D01*
X81304161Y-141816143D01*
X81406999Y-141829682D01*
X81407000Y-141829682D01*
X81407001Y-141829682D01*
X81470197Y-141821362D01*
X81563762Y-141809044D01*
X81709841Y-141748536D01*
X81835282Y-141652282D01*
X81931536Y-141526841D01*
X81992044Y-141380762D01*
X81998689Y-141330286D01*
X85161900Y-141330286D01*
X85193165Y-141527689D01*
X85195154Y-141540243D01*
X85246338Y-141697771D01*
X85260844Y-141742414D01*
X85357351Y-141931820D01*
X85482290Y-142103786D01*
X85632613Y-142254109D01*
X85804579Y-142379048D01*
X85804581Y-142379049D01*
X85804584Y-142379051D01*
X85993988Y-142475557D01*
X86196157Y-142541246D01*
X86406113Y-142574500D01*
X86406114Y-142574500D01*
X86618686Y-142574500D01*
X86618687Y-142574500D01*
X86828643Y-142541246D01*
X87030812Y-142475557D01*
X87220216Y-142379051D01*
X87301880Y-142319719D01*
X87392186Y-142254109D01*
X87392188Y-142254106D01*
X87392192Y-142254104D01*
X87542504Y-142103792D01*
X87542506Y-142103788D01*
X87542509Y-142103786D01*
X87667448Y-141931820D01*
X87667447Y-141931820D01*
X87667451Y-141931816D01*
X87763957Y-141742412D01*
X87829646Y-141540243D01*
X87862900Y-141330287D01*
X87862900Y-141117713D01*
X87829646Y-140907757D01*
X87763957Y-140705588D01*
X87667451Y-140516184D01*
X87667449Y-140516181D01*
X87667448Y-140516179D01*
X87542509Y-140344213D01*
X87392186Y-140193890D01*
X87220220Y-140068951D01*
X87030814Y-139972444D01*
X87030813Y-139972443D01*
X87030812Y-139972443D01*
X86828643Y-139906754D01*
X86828641Y-139906753D01*
X86828640Y-139906753D01*
X86667357Y-139881208D01*
X86618687Y-139873500D01*
X86406113Y-139873500D01*
X86357442Y-139881208D01*
X86196160Y-139906753D01*
X85993985Y-139972444D01*
X85804579Y-140068951D01*
X85632613Y-140193890D01*
X85482290Y-140344213D01*
X85357351Y-140516179D01*
X85260844Y-140705585D01*
X85260843Y-140705587D01*
X85260843Y-140705588D01*
X85232043Y-140794224D01*
X85195153Y-140907760D01*
X85161900Y-141117713D01*
X85161900Y-141330286D01*
X81998689Y-141330286D01*
X82012682Y-141224000D01*
X81992044Y-141067238D01*
X81931536Y-140921159D01*
X81835282Y-140795718D01*
X81835279Y-140795716D01*
X81835278Y-140795714D01*
X81833336Y-140794224D01*
X81832110Y-140792546D01*
X81829532Y-140789967D01*
X81829934Y-140789564D01*
X81792134Y-140737796D01*
X81787979Y-140668050D01*
X81821140Y-140608170D01*
X82048465Y-140380846D01*
X82069618Y-140344208D01*
X82090130Y-140308680D01*
X82090133Y-140308675D01*
X82090767Y-140307576D01*
X82091318Y-140306622D01*
X82113500Y-140223837D01*
X82113500Y-139887585D01*
X82133185Y-139820546D01*
X82149819Y-139799904D01*
X83169718Y-138780005D01*
X83231041Y-138746520D01*
X83257399Y-138743686D01*
X84010970Y-138743686D01*
X84010972Y-138743686D01*
X84093758Y-138721504D01*
X84167981Y-138678651D01*
X85186465Y-137660167D01*
X85202567Y-137632277D01*
X85229318Y-137585943D01*
X85251500Y-137503158D01*
X85251500Y-136540855D01*
X85251501Y-136540842D01*
X85251501Y-136445148D01*
X85243298Y-136414536D01*
X85229318Y-136362361D01*
X85229317Y-136362360D01*
X85229317Y-136362358D01*
X85205412Y-136320955D01*
X85205410Y-136320953D01*
X85186465Y-136288138D01*
X85125862Y-136227535D01*
X85125861Y-136227534D01*
X85121531Y-136223204D01*
X85121520Y-136223194D01*
X84960011Y-136061685D01*
X84926526Y-136000362D01*
X84924753Y-135957818D01*
X84933682Y-135890000D01*
X84933682Y-135889998D01*
X84913044Y-135733239D01*
X84913044Y-135733238D01*
X84852536Y-135587159D01*
X84756282Y-135461718D01*
X84630841Y-135365464D01*
X84484762Y-135304956D01*
X84484760Y-135304955D01*
X84328001Y-135284318D01*
X84327999Y-135284318D01*
X84171239Y-135304955D01*
X84171237Y-135304956D01*
X84025160Y-135365463D01*
X83899718Y-135461718D01*
X83803463Y-135587160D01*
X83742956Y-135733237D01*
X83742955Y-135733239D01*
X83722318Y-135889998D01*
X83722318Y-135890001D01*
X83742955Y-136046760D01*
X83742956Y-136046762D01*
X83794183Y-136170436D01*
X83803464Y-136192841D01*
X83898909Y-136317228D01*
X83899719Y-136318283D01*
X83997227Y-136393103D01*
X84038430Y-136449531D01*
X84042585Y-136519277D01*
X84008373Y-136580197D01*
X83969194Y-136606040D01*
X83898160Y-136635463D01*
X83868398Y-136658300D01*
X83774749Y-136730160D01*
X83772717Y-136731719D01*
X83730029Y-136787351D01*
X83673601Y-136828553D01*
X83657983Y-136832342D01*
X83657998Y-136832396D01*
X83650149Y-136834499D01*
X83650148Y-136834499D01*
X83625252Y-136841170D01*
X83567360Y-136856682D01*
X83567355Y-136856685D01*
X83493144Y-136899530D01*
X83493136Y-136899536D01*
X83432533Y-136960140D01*
X81197684Y-139194988D01*
X81136361Y-139228473D01*
X81093818Y-139230246D01*
X81026001Y-139221318D01*
X81025999Y-139221318D01*
X80869239Y-139241955D01*
X80869237Y-139241956D01*
X80723160Y-139302463D01*
X80597718Y-139398718D01*
X80501464Y-139524159D01*
X80471936Y-139595445D01*
X80428094Y-139649848D01*
X80361800Y-139671912D01*
X80294101Y-139654632D01*
X80269694Y-139635672D01*
X80001819Y-139367797D01*
X79968334Y-139306474D01*
X79965500Y-139280116D01*
X79965500Y-136990448D01*
X79965500Y-136990446D01*
X79945731Y-136916666D01*
X79943318Y-136907660D01*
X79900465Y-136833437D01*
X79199213Y-136132184D01*
X79199211Y-136132182D01*
X79101819Y-136034790D01*
X79068334Y-135973467D01*
X79065500Y-135947109D01*
X79065500Y-135569298D01*
X79085185Y-135502259D01*
X79114010Y-135470925D01*
X79168282Y-135429282D01*
X79264536Y-135303841D01*
X79325044Y-135157762D01*
X79344837Y-135007421D01*
X79345682Y-135001001D01*
X79345682Y-135000998D01*
X79325044Y-134844239D01*
X79325044Y-134844238D01*
X79264536Y-134698159D01*
X79168282Y-134572718D01*
X79042841Y-134476464D01*
X79041747Y-134476011D01*
X78896762Y-134415956D01*
X78896760Y-134415955D01*
X78740001Y-134395318D01*
X78739999Y-134395318D01*
X78583239Y-134415955D01*
X78583237Y-134415956D01*
X78437160Y-134476463D01*
X78311718Y-134572718D01*
X78215463Y-134698160D01*
X78154956Y-134844237D01*
X78154955Y-134844239D01*
X78134318Y-135000998D01*
X78134318Y-135001001D01*
X78154955Y-135157760D01*
X78154956Y-135157762D01*
X78195186Y-135254887D01*
X78215464Y-135303841D01*
X78311718Y-135429282D01*
X78365987Y-135470924D01*
X78407189Y-135527349D01*
X78414500Y-135569298D01*
X78414500Y-135684506D01*
X78394815Y-135751545D01*
X78342011Y-135797300D01*
X78272853Y-135807244D01*
X78209297Y-135778219D01*
X78202819Y-135772187D01*
X77537046Y-135106414D01*
X77503561Y-135045091D01*
X77501788Y-135002546D01*
X77501992Y-135001001D01*
X77502957Y-134993668D01*
X77482319Y-134836906D01*
X77421811Y-134690827D01*
X77325557Y-134565386D01*
X77200116Y-134469132D01*
X77144712Y-134446183D01*
X77054037Y-134408624D01*
X77054035Y-134408623D01*
X76897276Y-134387986D01*
X76897274Y-134387986D01*
X76740514Y-134408623D01*
X76740512Y-134408624D01*
X76594435Y-134469131D01*
X76468993Y-134565386D01*
X76372738Y-134690828D01*
X76312231Y-134836905D01*
X76312230Y-134836907D01*
X76291593Y-134993666D01*
X76291593Y-134993669D01*
X76312230Y-135150428D01*
X76312231Y-135150430D01*
X76355498Y-135254887D01*
X76372739Y-135296509D01*
X76468993Y-135421950D01*
X76594434Y-135518204D01*
X76740513Y-135578712D01*
X76804675Y-135587159D01*
X76897274Y-135599350D01*
X76897275Y-135599350D01*
X76897276Y-135599350D01*
X76945784Y-135592963D01*
X77024032Y-135582662D01*
X77093067Y-135593427D01*
X77127898Y-135617920D01*
X77786672Y-136276694D01*
X77820157Y-136338017D01*
X77815173Y-136407709D01*
X77773301Y-136463642D01*
X77746445Y-136478936D01*
X77675159Y-136508464D01*
X77549718Y-136604718D01*
X77453463Y-136730160D01*
X77392956Y-136876237D01*
X77392955Y-136876239D01*
X77372318Y-137032998D01*
X77372318Y-137033001D01*
X77392955Y-137189760D01*
X77392956Y-137189762D01*
X77452456Y-137333409D01*
X77453464Y-137335841D01*
X77549718Y-137461282D01*
X77675159Y-137557536D01*
X77821238Y-137618044D01*
X77849548Y-137621771D01*
X77977999Y-137638682D01*
X77978000Y-137638682D01*
X77978001Y-137638682D01*
X78026648Y-137632277D01*
X78045818Y-137629753D01*
X78114853Y-137640518D01*
X78149685Y-137665011D01*
X78378181Y-137893507D01*
X78411666Y-137954830D01*
X78414500Y-137981188D01*
X78414500Y-140264155D01*
X78394815Y-140331194D01*
X78342011Y-140376949D01*
X78272853Y-140386893D01*
X78209297Y-140357868D01*
X78192127Y-140339645D01*
X78152282Y-140287718D01*
X78026841Y-140191464D01*
X77994908Y-140178237D01*
X77880762Y-140130956D01*
X77880760Y-140130955D01*
X77724001Y-140110318D01*
X77723999Y-140110318D01*
X77567239Y-140130955D01*
X77567234Y-140130957D01*
X77431042Y-140187369D01*
X77361573Y-140194838D01*
X77299094Y-140163562D01*
X77269029Y-140120261D01*
X77232536Y-140032159D01*
X77136282Y-139906718D01*
X77010841Y-139810464D01*
X76990723Y-139802131D01*
X76864762Y-139749956D01*
X76864760Y-139749955D01*
X76708001Y-139729318D01*
X76707999Y-139729318D01*
X76551239Y-139749955D01*
X76551237Y-139749956D01*
X76405160Y-139810463D01*
X76279718Y-139906718D01*
X76183463Y-140032160D01*
X76122956Y-140178237D01*
X76122955Y-140178239D01*
X76102318Y-140334998D01*
X76102318Y-140335001D01*
X76111246Y-140402817D01*
X76100480Y-140471852D01*
X76075988Y-140506683D01*
X74479037Y-142103635D01*
X74479033Y-142103641D01*
X74436181Y-142177861D01*
X74436182Y-142177862D01*
X74414000Y-142260647D01*
X74414000Y-144022310D01*
X74394315Y-144089349D01*
X74377681Y-144109991D01*
X72053683Y-146433988D01*
X71992360Y-146467473D01*
X71949817Y-146469246D01*
X71882001Y-146460318D01*
X71881999Y-146460318D01*
X71725239Y-146480955D01*
X71725237Y-146480956D01*
X71579160Y-146541463D01*
X71453718Y-146637718D01*
X71357463Y-146763160D01*
X71296956Y-146909237D01*
X71296955Y-146909239D01*
X71276318Y-147065998D01*
X71276318Y-147066001D01*
X69658880Y-147066001D01*
X69658880Y-146349720D01*
X69678565Y-146282681D01*
X69707390Y-146251347D01*
X69761662Y-146209704D01*
X69857916Y-146084263D01*
X69918424Y-145938184D01*
X69939062Y-145781422D01*
X69930133Y-145713603D01*
X69940898Y-145644568D01*
X69965388Y-145609739D01*
X70941310Y-144633819D01*
X71002633Y-144600334D01*
X71028991Y-144597500D01*
X71678981Y-144597500D01*
X71678981Y-144599041D01*
X71716577Y-144603951D01*
X71717384Y-144600940D01*
X71725234Y-144603043D01*
X71725236Y-144603043D01*
X71725238Y-144603044D01*
X71847888Y-144619191D01*
X71881999Y-144623682D01*
X71882000Y-144623682D01*
X71882001Y-144623682D01*
X71934254Y-144616802D01*
X72038762Y-144603044D01*
X72184841Y-144542536D01*
X72310282Y-144446282D01*
X72406536Y-144320841D01*
X72467044Y-144174762D01*
X72487682Y-144018000D01*
X72487288Y-144015011D01*
X72468138Y-143869551D01*
X72467044Y-143861238D01*
X72406536Y-143715159D01*
X72310282Y-143589718D01*
X72310280Y-143589716D01*
X72310279Y-143589715D01*
X72256012Y-143548074D01*
X72214810Y-143491646D01*
X72207500Y-143449699D01*
X72207500Y-139886188D01*
X72227185Y-139819149D01*
X72243814Y-139798511D01*
X73234316Y-138808009D01*
X73295637Y-138774526D01*
X73338181Y-138772753D01*
X73405999Y-138781682D01*
X73406000Y-138781682D01*
X73406001Y-138781682D01*
X73458254Y-138774802D01*
X73562762Y-138761044D01*
X73708841Y-138700536D01*
X73834282Y-138604282D01*
X73930536Y-138478841D01*
X73991044Y-138332762D01*
X74007560Y-138207307D01*
X74035826Y-138143411D01*
X74042806Y-138135824D01*
X75190465Y-136988167D01*
X75233318Y-136913944D01*
X75255500Y-136831158D01*
X75255500Y-136745452D01*
X75255500Y-132902298D01*
X75275185Y-132835259D01*
X75304010Y-132803925D01*
X75358282Y-132762282D01*
X75454536Y-132636841D01*
X75515044Y-132490762D01*
X75535682Y-132334000D01*
X75515044Y-132177238D01*
X75454536Y-132031159D01*
X75358282Y-131905718D01*
X75232841Y-131809464D01*
X75186261Y-131790170D01*
X75086762Y-131748956D01*
X75086760Y-131748955D01*
X74930001Y-131728318D01*
X74929999Y-131728318D01*
X74773239Y-131748955D01*
X74773237Y-131748956D01*
X74627160Y-131809463D01*
X74501718Y-131905718D01*
X74405463Y-132031160D01*
X74344956Y-132177237D01*
X74344955Y-132177239D01*
X74324318Y-132333998D01*
X74324318Y-132334001D01*
X74344955Y-132490760D01*
X74344956Y-132490762D01*
X74393933Y-132609004D01*
X74405464Y-132636841D01*
X74501718Y-132762282D01*
X74555987Y-132803924D01*
X74597189Y-132860349D01*
X74604500Y-132902298D01*
X74604500Y-136602115D01*
X74584815Y-136669154D01*
X74568181Y-136689796D01*
X73695070Y-137562906D01*
X73633747Y-137596391D01*
X73570924Y-137591898D01*
X73570613Y-137593060D01*
X73564585Y-137591444D01*
X73564055Y-137591407D01*
X73563225Y-137591080D01*
X73562760Y-137590955D01*
X73406001Y-137570318D01*
X73405999Y-137570318D01*
X73249239Y-137590955D01*
X73249237Y-137590956D01*
X73103160Y-137651463D01*
X72977716Y-137747719D01*
X72936077Y-137801986D01*
X72879649Y-137843189D01*
X72837701Y-137850500D01*
X69669501Y-137850500D01*
X69602462Y-137830815D01*
X69581820Y-137814181D01*
X69414838Y-137647199D01*
X69381353Y-137585876D01*
X69379580Y-137543331D01*
X69384603Y-137505185D01*
X69388509Y-137475515D01*
X69384235Y-137443054D01*
X69367871Y-137318754D01*
X69367871Y-137318753D01*
X69307363Y-137172674D01*
X69211109Y-137047233D01*
X69085668Y-136950979D01*
X69071373Y-136945058D01*
X68939589Y-136890471D01*
X68939587Y-136890470D01*
X68782828Y-136869833D01*
X68782826Y-136869833D01*
X68626066Y-136890470D01*
X68626064Y-136890471D01*
X68479987Y-136950978D01*
X68354545Y-137047233D01*
X68258290Y-137172675D01*
X68197783Y-137318752D01*
X68197782Y-137318754D01*
X68177145Y-137475512D01*
X68177145Y-137475515D01*
X68178639Y-137486862D01*
X68181960Y-137512094D01*
X68171192Y-137581129D01*
X68146701Y-137615957D01*
X64902257Y-140860403D01*
X64840934Y-140893888D01*
X64814576Y-140896722D01*
X63404974Y-140896722D01*
X63337935Y-140877037D01*
X63306600Y-140848211D01*
X63284140Y-140818940D01*
X63158699Y-140722686D01*
X63096231Y-140696811D01*
X63012620Y-140662178D01*
X63012618Y-140662177D01*
X62855859Y-140641540D01*
X62855857Y-140641540D01*
X62699097Y-140662177D01*
X62699095Y-140662178D01*
X62610016Y-140699076D01*
X62553020Y-140722685D01*
X62545509Y-140725796D01*
X62544181Y-140722591D01*
X62491710Y-140735246D01*
X62425714Y-140712305D01*
X62410097Y-140699076D01*
X58892068Y-137181046D01*
X60996000Y-137181046D01*
X61036434Y-137351651D01*
X61115119Y-137508326D01*
X61180320Y-137588364D01*
X61180336Y-137588382D01*
X62665217Y-139073261D01*
X62665238Y-139073280D01*
X62745269Y-139138476D01*
X62745282Y-139138485D01*
X62901949Y-139217166D01*
X63072555Y-139257601D01*
X63247874Y-139257601D01*
X63418479Y-139217166D01*
X63575154Y-139138481D01*
X63655192Y-139073280D01*
X63655210Y-139073264D01*
X66483592Y-136244880D01*
X66483611Y-136244859D01*
X66548807Y-136164828D01*
X66548816Y-136164815D01*
X66627497Y-136008148D01*
X66667932Y-135837543D01*
X66667932Y-135662223D01*
X66627497Y-135491618D01*
X66548812Y-135334943D01*
X66483611Y-135254905D01*
X66483595Y-135254887D01*
X65917930Y-134689223D01*
X65917929Y-134689223D01*
X63919646Y-136687506D01*
X63858323Y-136720991D01*
X63788631Y-136716007D01*
X63744284Y-136687506D01*
X62417753Y-135360975D01*
X62417752Y-135360975D01*
X61180339Y-136598389D01*
X61180320Y-136598410D01*
X61115124Y-136678441D01*
X61115115Y-136678454D01*
X61036434Y-136835121D01*
X60996000Y-137005726D01*
X60996000Y-137181046D01*
X58892068Y-137181046D01*
X58654819Y-136943797D01*
X58621334Y-136882474D01*
X58618500Y-136856116D01*
X58618500Y-135315298D01*
X58638185Y-135248259D01*
X58667010Y-135216925D01*
X58721282Y-135175282D01*
X58817536Y-135049841D01*
X58835107Y-135007421D01*
X62771305Y-135007421D01*
X63831965Y-136068081D01*
X65564377Y-134335670D01*
X65564377Y-134335669D01*
X64998714Y-133770008D01*
X64998693Y-133769989D01*
X64918662Y-133704793D01*
X64918649Y-133704784D01*
X64761982Y-133626103D01*
X64591377Y-133585669D01*
X64416058Y-133585669D01*
X64245452Y-133626103D01*
X64088777Y-133704788D01*
X64008734Y-133769993D01*
X64008715Y-133770010D01*
X62771305Y-135007421D01*
X58835107Y-135007421D01*
X58878044Y-134903762D01*
X58898682Y-134747000D01*
X58891924Y-134695671D01*
X58878044Y-134590239D01*
X58878044Y-134590238D01*
X58817536Y-134444159D01*
X58721282Y-134318718D01*
X58595841Y-134222464D01*
X58547706Y-134202526D01*
X58449762Y-134161956D01*
X58449760Y-134161955D01*
X58293001Y-134141318D01*
X58292999Y-134141318D01*
X58136239Y-134161955D01*
X58136237Y-134161956D01*
X57990160Y-134222463D01*
X57864718Y-134318718D01*
X57768463Y-134444160D01*
X57707956Y-134590237D01*
X57707955Y-134590239D01*
X57687318Y-134746998D01*
X57687318Y-134747001D01*
X57707955Y-134903760D01*
X57707956Y-134903762D01*
X57748232Y-135000998D01*
X57768464Y-135049841D01*
X57864718Y-135175282D01*
X57918987Y-135216924D01*
X57960189Y-135273349D01*
X57967500Y-135315298D01*
X57967500Y-137085157D01*
X57989682Y-137167945D01*
X58011108Y-137205055D01*
X58032535Y-137242167D01*
X60134121Y-139343753D01*
X62233111Y-141442742D01*
X62233121Y-141442753D01*
X62237451Y-141447083D01*
X62237452Y-141447084D01*
X62298055Y-141507687D01*
X62298057Y-141507688D01*
X62303802Y-141513433D01*
X62302272Y-141514962D01*
X62324869Y-141544406D01*
X62327260Y-141543027D01*
X62331322Y-141550063D01*
X62413591Y-141657279D01*
X62427576Y-141675504D01*
X62553017Y-141771758D01*
X62699096Y-141832266D01*
X62727406Y-141835993D01*
X62855857Y-141852904D01*
X62855857Y-141852903D01*
X62855858Y-141852904D01*
X62923675Y-141843975D01*
X62992710Y-141854740D01*
X63027542Y-141879233D01*
X64791774Y-143643465D01*
X64865997Y-143686318D01*
X64948783Y-143708500D01*
X65034489Y-143708500D01*
X65217701Y-143708500D01*
X65284740Y-143728185D01*
X65316077Y-143757014D01*
X65327442Y-143771826D01*
X65357718Y-143811282D01*
X65483159Y-143907536D01*
X65629238Y-143968044D01*
X65657548Y-143971771D01*
X65785999Y-143988682D01*
X65785999Y-143988681D01*
X65786000Y-143988682D01*
X65853817Y-143979753D01*
X65922852Y-143990518D01*
X65957684Y-144015011D01*
X67984560Y-146041887D01*
X68058783Y-146084740D01*
X68141569Y-146106922D01*
X68227275Y-146106922D01*
X68765081Y-146106922D01*
X68832120Y-146126607D01*
X68863456Y-146155435D01*
X68905098Y-146209704D01*
X68959367Y-146251346D01*
X69000569Y-146307771D01*
X69007880Y-146349720D01*
X69007880Y-148878232D01*
X69030062Y-148961020D01*
X69031791Y-148964014D01*
X69072915Y-149035242D01*
X69072917Y-149035244D01*
X69682992Y-149645319D01*
X69716477Y-149706642D01*
X69711493Y-149776334D01*
X69682992Y-149820681D01*
X67428492Y-152075181D01*
X67367169Y-152108666D01*
X67340811Y-152111500D01*
X65932247Y-152111500D01*
X65873770Y-152123131D01*
X65873769Y-152123132D01*
X65807447Y-152167447D01*
X65763132Y-152233769D01*
X65763131Y-152233770D01*
X65751500Y-152292247D01*
X65751500Y-154031752D01*
X65763131Y-154090229D01*
X65763132Y-154090230D01*
X65807447Y-154156552D01*
X65873769Y-154200867D01*
X65873770Y-154200868D01*
X65932247Y-154212499D01*
X65932250Y-154212500D01*
X65932252Y-154212500D01*
X67671750Y-154212500D01*
X67671751Y-154212499D01*
X67686568Y-154209552D01*
X67730229Y-154200868D01*
X67730229Y-154200867D01*
X67730231Y-154200867D01*
X67796552Y-154156552D01*
X67840867Y-154090231D01*
X67840867Y-154090229D01*
X67840868Y-154090229D01*
X67850922Y-154039682D01*
X67852500Y-154031748D01*
X67852500Y-152623188D01*
X67872185Y-152556149D01*
X67888819Y-152535507D01*
X69980507Y-150443819D01*
X70041830Y-150410334D01*
X70068188Y-150407500D01*
X70537147Y-150407500D01*
X70622853Y-150407500D01*
X71336812Y-150407500D01*
X71403851Y-150427185D01*
X71449606Y-150479989D01*
X71459550Y-150549147D01*
X71430525Y-150612703D01*
X71424496Y-150619177D01*
X71166488Y-150877185D01*
X69882994Y-152160677D01*
X69821671Y-152194162D01*
X69751979Y-152189178D01*
X69747869Y-152187561D01*
X69745958Y-152186769D01*
X69638261Y-152154100D01*
X69547934Y-152126700D01*
X69547932Y-152126699D01*
X69547934Y-152126699D01*
X69342000Y-152106417D01*
X69136067Y-152126699D01*
X68938043Y-152186769D01*
X68865743Y-152225415D01*
X68755550Y-152284315D01*
X68755548Y-152284316D01*
X68755547Y-152284317D01*
X68595589Y-152415589D01*
X68467371Y-152571826D01*
X68464315Y-152575550D01*
X68427114Y-152645147D01*
X68366769Y-152758043D01*
X68306699Y-152956067D01*
X68286417Y-153162000D01*
X68306699Y-153367932D01*
X68323324Y-153422738D01*
X68366768Y-153565954D01*
X68464315Y-153748450D01*
X68473447Y-153759577D01*
X68595589Y-153908410D01*
X68692209Y-153987702D01*
X68755550Y-154039685D01*
X68938046Y-154137232D01*
X69136066Y-154197300D01*
X69136065Y-154197300D01*
X69154529Y-154199118D01*
X69342000Y-154217583D01*
X69547934Y-154197300D01*
X69745954Y-154137232D01*
X69928450Y-154039685D01*
X70088410Y-153908410D01*
X70219685Y-153748450D01*
X70317232Y-153565954D01*
X70337405Y-153499449D01*
X70375700Y-153441012D01*
X70439512Y-153412555D01*
X70508579Y-153423114D01*
X70560974Y-153469338D01*
X70575840Y-153503351D01*
X70608566Y-153625485D01*
X70608569Y-153625492D01*
X70708398Y-153839578D01*
X70843893Y-154033082D01*
X71010916Y-154200105D01*
X71204420Y-154335600D01*
X71418506Y-154435429D01*
X71418515Y-154435433D01*
X71631999Y-154492634D01*
X71631999Y-153595012D01*
X71689006Y-153627925D01*
X71816173Y-153662000D01*
X71947825Y-153662000D01*
X72074992Y-153627925D01*
X72131999Y-153595012D01*
X72131999Y-154492633D01*
X72345482Y-154435433D01*
X72345491Y-154435429D01*
X72559577Y-154335600D01*
X72753081Y-154200105D01*
X72920104Y-154033082D01*
X73055599Y-153839578D01*
X73155428Y-153625492D01*
X73155433Y-153625481D01*
X73188157Y-153503350D01*
X73224521Y-153443689D01*
X73287368Y-153413159D01*
X73356744Y-153421453D01*
X73410622Y-153465938D01*
X73426592Y-153499445D01*
X73443190Y-153554158D01*
X73446768Y-153565954D01*
X73544315Y-153748450D01*
X73553447Y-153759577D01*
X73675589Y-153908410D01*
X73772209Y-153987702D01*
X73835550Y-154039685D01*
X74018046Y-154137232D01*
X74216066Y-154197300D01*
X74216065Y-154197300D01*
X74234529Y-154199118D01*
X74422000Y-154217583D01*
X74627934Y-154197300D01*
X74825954Y-154137232D01*
X75008450Y-154039685D01*
X75168410Y-153908410D01*
X75299685Y-153748450D01*
X75397232Y-153565954D01*
X75457300Y-153367934D01*
X75477583Y-153162000D01*
X75457300Y-152956066D01*
X75397232Y-152758046D01*
X75299685Y-152575550D01*
X75244503Y-152508310D01*
X75168410Y-152415589D01*
X75018115Y-152292247D01*
X75008450Y-152284315D01*
X74825954Y-152186768D01*
X74627934Y-152126700D01*
X74627932Y-152126699D01*
X74627934Y-152126699D01*
X74422000Y-152106417D01*
X74216067Y-152126699D01*
X74018043Y-152186769D01*
X73945743Y-152225415D01*
X73835550Y-152284315D01*
X73835548Y-152284316D01*
X73835547Y-152284317D01*
X73675589Y-152415589D01*
X73547371Y-152571826D01*
X73544315Y-152575550D01*
X73507114Y-152645147D01*
X73446768Y-152758045D01*
X73426592Y-152824554D01*
X73388294Y-152882992D01*
X73324481Y-152911448D01*
X73255414Y-152900886D01*
X73203021Y-152854661D01*
X73188157Y-152820650D01*
X73155432Y-152698516D01*
X73155428Y-152698507D01*
X73055599Y-152484422D01*
X73055598Y-152484420D01*
X72920112Y-152290926D01*
X72920107Y-152290920D01*
X72753081Y-152123894D01*
X72559577Y-151988399D01*
X72345491Y-151888570D01*
X72345485Y-151888567D01*
X72131999Y-151831364D01*
X72131999Y-152728988D01*
X72074992Y-152696075D01*
X71947825Y-152662000D01*
X71816173Y-152662000D01*
X71689006Y-152696075D01*
X71631999Y-152728988D01*
X71631999Y-151831364D01*
X71631998Y-151831364D01*
X71418512Y-151888567D01*
X71418499Y-151888572D01*
X71413623Y-151890846D01*
X71344545Y-151901333D01*
X71280763Y-151872808D01*
X71242528Y-151814329D01*
X71241979Y-151744461D01*
X71273544Y-151690781D01*
X72070507Y-150893819D01*
X72131830Y-150860334D01*
X72158188Y-150857500D01*
X76865636Y-150857500D01*
X76932675Y-150877185D01*
X76978430Y-150929989D01*
X76988374Y-150999147D01*
X76964012Y-151056986D01*
X76945464Y-151081157D01*
X76884956Y-151227237D01*
X76884955Y-151227239D01*
X76864318Y-151383998D01*
X76864318Y-151384001D01*
X76884955Y-151540760D01*
X76884956Y-151540762D01*
X76944381Y-151684228D01*
X76945464Y-151686841D01*
X77018126Y-151781536D01*
X77041719Y-151812283D01*
X77066586Y-151831364D01*
X77141713Y-151889011D01*
X77148733Y-151894397D01*
X77189936Y-151950825D01*
X77194091Y-152020571D01*
X77159879Y-152081491D01*
X77098162Y-152114244D01*
X77061094Y-152116176D01*
X76962001Y-152106417D01*
X76962000Y-152106417D01*
X76941718Y-152108414D01*
X76756067Y-152126699D01*
X76558043Y-152186769D01*
X76485743Y-152225415D01*
X76375550Y-152284315D01*
X76375548Y-152284316D01*
X76375547Y-152284317D01*
X76215589Y-152415589D01*
X76087371Y-152571826D01*
X76084315Y-152575550D01*
X76047114Y-152645147D01*
X75986769Y-152758043D01*
X75926699Y-152956067D01*
X75906417Y-153162000D01*
X75926699Y-153367932D01*
X75943324Y-153422738D01*
X75986768Y-153565954D01*
X76084315Y-153748450D01*
X76093447Y-153759577D01*
X76215589Y-153908410D01*
X76312209Y-153987702D01*
X76375550Y-154039685D01*
X76558046Y-154137232D01*
X76756066Y-154197300D01*
X76756065Y-154197300D01*
X76774529Y-154199118D01*
X76962000Y-154217583D01*
X77167934Y-154197300D01*
X77365954Y-154137232D01*
X77365969Y-154137223D01*
X77367843Y-154136448D01*
X77368918Y-154136332D01*
X77371784Y-154135463D01*
X77371948Y-154136005D01*
X77437311Y-154128969D01*
X77499795Y-154160234D01*
X77502994Y-154163321D01*
X78184194Y-154844520D01*
X78184204Y-154844531D01*
X78188534Y-154848861D01*
X78188535Y-154848862D01*
X78249138Y-154909465D01*
X78249140Y-154909466D01*
X78249144Y-154909469D01*
X78323355Y-154952314D01*
X78323362Y-154952318D01*
X78406148Y-154974501D01*
X78406150Y-154974501D01*
X78499449Y-154974501D01*
X78499465Y-154974500D01*
X80734156Y-154974500D01*
X80734158Y-154974500D01*
X80816944Y-154952318D01*
X80891167Y-154909465D01*
X81376465Y-154424167D01*
X81381012Y-154416289D01*
X81400716Y-154390609D01*
X81981507Y-153809819D01*
X82042830Y-153776334D01*
X82069188Y-153773500D01*
X83501229Y-153773500D01*
X83501231Y-153773500D01*
X83584017Y-153751318D01*
X83658240Y-153708465D01*
X84358228Y-153008477D01*
X84401081Y-152934254D01*
X84423263Y-152851468D01*
X84423263Y-152765762D01*
X84423263Y-152247813D01*
X84442948Y-152180774D01*
X84495752Y-152135019D01*
X84564910Y-152125075D01*
X84628466Y-152154100D01*
X84645639Y-152172327D01*
X84656719Y-152186768D01*
X84661718Y-152193282D01*
X84787159Y-152289536D01*
X84933238Y-152350044D01*
X84961548Y-152353771D01*
X85089999Y-152370682D01*
X85089999Y-152370681D01*
X85090000Y-152370682D01*
X85157817Y-152361753D01*
X85226852Y-152372518D01*
X85261684Y-152397011D01*
X85303138Y-152438465D01*
X85377361Y-152481318D01*
X85460147Y-152503500D01*
X85460149Y-152503500D01*
X87329435Y-152503500D01*
X87396474Y-152523185D01*
X87442229Y-152575989D01*
X87452173Y-152645147D01*
X87423148Y-152708703D01*
X87393865Y-152733447D01*
X87297156Y-152792259D01*
X87293218Y-152794556D01*
X86335504Y-153329777D01*
X86331484Y-153331927D01*
X85354765Y-153831566D01*
X85350668Y-153833568D01*
X84356208Y-154296978D01*
X84352041Y-154298827D01*
X83341233Y-154725357D01*
X83337001Y-154727052D01*
X82310957Y-155116225D01*
X82307199Y-155117582D01*
X81807549Y-155288897D01*
X81767331Y-155295600D01*
X71945501Y-155295601D01*
X62124223Y-155295600D01*
X62082988Y-155288543D01*
X61587561Y-155113851D01*
X61583858Y-155112479D01*
X60565318Y-154716433D01*
X60561148Y-154714724D01*
X59557905Y-154282033D01*
X59553801Y-154280173D01*
X58567002Y-153811343D01*
X58562967Y-153809336D01*
X57593801Y-153304932D01*
X57589842Y-153302779D01*
X56639669Y-152763510D01*
X56635791Y-152761215D01*
X56181877Y-152481317D01*
X55705817Y-152187762D01*
X55702029Y-152185330D01*
X55537127Y-152075181D01*
X55042014Y-151744461D01*
X54793544Y-151578491D01*
X54789843Y-151575921D01*
X53903961Y-150936440D01*
X53900356Y-150933736D01*
X53038347Y-150262531D01*
X53034842Y-150259699D01*
X52750482Y-150021190D01*
X52197719Y-149557556D01*
X52194328Y-149554604D01*
X52112262Y-149480528D01*
X51383337Y-148822568D01*
X51380055Y-148819496D01*
X51373404Y-148813039D01*
X50596154Y-148058433D01*
X50592979Y-148055236D01*
X49837275Y-147266222D01*
X49834217Y-147262911D01*
X49614971Y-147016682D01*
X49107672Y-146446947D01*
X49104741Y-146443533D01*
X48826271Y-146106922D01*
X48408304Y-145601688D01*
X48405499Y-145598167D01*
X47740140Y-144731609D01*
X47737461Y-144727986D01*
X47733335Y-144722188D01*
X47104002Y-143837791D01*
X47101486Y-143834116D01*
X47094292Y-143823187D01*
X46500804Y-142921511D01*
X46498395Y-142917703D01*
X46413137Y-142777318D01*
X45931242Y-141983832D01*
X45928982Y-141979952D01*
X45902094Y-141931820D01*
X45566065Y-141330286D01*
X56155100Y-141330286D01*
X56186365Y-141527689D01*
X56188354Y-141540243D01*
X56239538Y-141697771D01*
X56254044Y-141742414D01*
X56350551Y-141931820D01*
X56475490Y-142103786D01*
X56625813Y-142254109D01*
X56797779Y-142379048D01*
X56797781Y-142379049D01*
X56797784Y-142379051D01*
X56987188Y-142475557D01*
X57189357Y-142541246D01*
X57399313Y-142574500D01*
X57399314Y-142574500D01*
X57611886Y-142574500D01*
X57611887Y-142574500D01*
X57821843Y-142541246D01*
X58024012Y-142475557D01*
X58213416Y-142379051D01*
X58295080Y-142319719D01*
X58385386Y-142254109D01*
X58385388Y-142254106D01*
X58385392Y-142254104D01*
X58535704Y-142103792D01*
X58535706Y-142103788D01*
X58535709Y-142103786D01*
X58660648Y-141931820D01*
X58660647Y-141931820D01*
X58660651Y-141931816D01*
X58757157Y-141742412D01*
X58822846Y-141540243D01*
X58856100Y-141330287D01*
X58856100Y-141117713D01*
X58822846Y-140907757D01*
X58757157Y-140705588D01*
X58660651Y-140516184D01*
X58660649Y-140516181D01*
X58660648Y-140516179D01*
X58535709Y-140344213D01*
X58385386Y-140193890D01*
X58213420Y-140068951D01*
X58024014Y-139972444D01*
X58024013Y-139972443D01*
X58024012Y-139972443D01*
X57821843Y-139906754D01*
X57821841Y-139906753D01*
X57821840Y-139906753D01*
X57660557Y-139881208D01*
X57611887Y-139873500D01*
X57399313Y-139873500D01*
X57350642Y-139881208D01*
X57189360Y-139906753D01*
X56987185Y-139972444D01*
X56797779Y-140068951D01*
X56625813Y-140193890D01*
X56475490Y-140344213D01*
X56350551Y-140516179D01*
X56254044Y-140705585D01*
X56254043Y-140705587D01*
X56254043Y-140705588D01*
X56225243Y-140794224D01*
X56188353Y-140907760D01*
X56155100Y-141117713D01*
X56155100Y-141330286D01*
X45566065Y-141330286D01*
X45396172Y-141026157D01*
X45394053Y-141022196D01*
X45356557Y-140948943D01*
X44896231Y-140049630D01*
X44894258Y-140045595D01*
X44887986Y-140032160D01*
X44440356Y-139073264D01*
X44432118Y-139055617D01*
X44430286Y-139051500D01*
X44004414Y-138045366D01*
X44002733Y-138041185D01*
X43999409Y-138032463D01*
X43613597Y-137019971D01*
X43612253Y-137016266D01*
X43440780Y-136519250D01*
X43434000Y-136478809D01*
X43434000Y-129286001D01*
X43881437Y-129286001D01*
X43901650Y-129517044D01*
X43901651Y-129517051D01*
X43961678Y-129741074D01*
X43961679Y-129741076D01*
X43961680Y-129741079D01*
X44059699Y-129951282D01*
X44192730Y-130141269D01*
X44356731Y-130305270D01*
X44546718Y-130438301D01*
X44756921Y-130536320D01*
X44980950Y-130596349D01*
X45145985Y-130610787D01*
X45211998Y-130616563D01*
X45212000Y-130616563D01*
X45212002Y-130616563D01*
X45269871Y-130611500D01*
X45443050Y-130596349D01*
X45667079Y-130536320D01*
X45877282Y-130438301D01*
X46067269Y-130305270D01*
X46231270Y-130141269D01*
X46364301Y-129951282D01*
X46462320Y-129741079D01*
X46522349Y-129517050D01*
X46542563Y-129286001D01*
X48961437Y-129286001D01*
X48981650Y-129517044D01*
X48981651Y-129517051D01*
X49041678Y-129741074D01*
X49041679Y-129741076D01*
X49041680Y-129741079D01*
X49139699Y-129951282D01*
X49272730Y-130141269D01*
X49436731Y-130305270D01*
X49626718Y-130438301D01*
X49836921Y-130536320D01*
X50060950Y-130596349D01*
X50225985Y-130610787D01*
X50291998Y-130616563D01*
X50292000Y-130616563D01*
X50292002Y-130616563D01*
X50349871Y-130611500D01*
X50523050Y-130596349D01*
X50747079Y-130536320D01*
X50957282Y-130438301D01*
X51147269Y-130305270D01*
X51311270Y-130141269D01*
X51444301Y-129951282D01*
X51542320Y-129741079D01*
X51602349Y-129517050D01*
X51622563Y-129286000D01*
X51602349Y-129054950D01*
X51542320Y-128830921D01*
X51444301Y-128620719D01*
X51444299Y-128620716D01*
X51444298Y-128620714D01*
X51311273Y-128430735D01*
X51311268Y-128430729D01*
X51147269Y-128266730D01*
X51105052Y-128237169D01*
X50957282Y-128133699D01*
X50747079Y-128035680D01*
X50747076Y-128035679D01*
X50747074Y-128035678D01*
X50523051Y-127975651D01*
X50523044Y-127975650D01*
X50292002Y-127955437D01*
X50291998Y-127955437D01*
X50060955Y-127975650D01*
X50060948Y-127975651D01*
X49836917Y-128035681D01*
X49626718Y-128133699D01*
X49626714Y-128133701D01*
X49436735Y-128266726D01*
X49436729Y-128266731D01*
X49272731Y-128430729D01*
X49272726Y-128430735D01*
X49139701Y-128620714D01*
X49139699Y-128620718D01*
X49041681Y-128830917D01*
X48981651Y-129054948D01*
X48981650Y-129054955D01*
X48961437Y-129285998D01*
X48961437Y-129286001D01*
X46542563Y-129286001D01*
X46542563Y-129286000D01*
X46522349Y-129054950D01*
X46462320Y-128830921D01*
X46364301Y-128620719D01*
X46364299Y-128620716D01*
X46364298Y-128620714D01*
X46231273Y-128430735D01*
X46231268Y-128430729D01*
X46067269Y-128266730D01*
X46025052Y-128237169D01*
X45877282Y-128133699D01*
X45667079Y-128035680D01*
X45667076Y-128035679D01*
X45667074Y-128035678D01*
X45443051Y-127975651D01*
X45443044Y-127975650D01*
X45212002Y-127955437D01*
X45211998Y-127955437D01*
X44980955Y-127975650D01*
X44980948Y-127975651D01*
X44756917Y-128035681D01*
X44546718Y-128133699D01*
X44546714Y-128133701D01*
X44356735Y-128266726D01*
X44356729Y-128266731D01*
X44192731Y-128430729D01*
X44192726Y-128430735D01*
X44059701Y-128620714D01*
X44059699Y-128620718D01*
X43961681Y-128830917D01*
X43901651Y-129054948D01*
X43901650Y-129054955D01*
X43881437Y-129285998D01*
X43881437Y-129286001D01*
X43434000Y-129286001D01*
X43434000Y-126746001D01*
X46521819Y-126746001D01*
X46540507Y-126959613D01*
X46540509Y-126959624D01*
X46596005Y-127166739D01*
X46596007Y-127166743D01*
X46596008Y-127166747D01*
X46636060Y-127252639D01*
X46686631Y-127361090D01*
X46801078Y-127524536D01*
X46809627Y-127536745D01*
X46961255Y-127688373D01*
X47136909Y-127811368D01*
X47331253Y-127901992D01*
X47538381Y-127957492D01*
X47690966Y-127970841D01*
X47751998Y-127976181D01*
X47752000Y-127976181D01*
X47752002Y-127976181D01*
X47805404Y-127971508D01*
X47965619Y-127957492D01*
X48172747Y-127901992D01*
X48367091Y-127811368D01*
X48542745Y-127688373D01*
X48694373Y-127536745D01*
X48817368Y-127361091D01*
X48907992Y-127166747D01*
X48963492Y-126959619D01*
X48982181Y-126746000D01*
X48963492Y-126532381D01*
X48907992Y-126325253D01*
X48817368Y-126130910D01*
X48694373Y-125955255D01*
X48542745Y-125803627D01*
X48449613Y-125738415D01*
X48367090Y-125680631D01*
X48228976Y-125616228D01*
X48172747Y-125590008D01*
X48172743Y-125590007D01*
X48172739Y-125590005D01*
X47965624Y-125534509D01*
X47965620Y-125534508D01*
X47965619Y-125534508D01*
X47965618Y-125534507D01*
X47965613Y-125534507D01*
X47752002Y-125515819D01*
X47751998Y-125515819D01*
X47538386Y-125534507D01*
X47538375Y-125534509D01*
X47331260Y-125590005D01*
X47331251Y-125590009D01*
X47136910Y-125680631D01*
X47136908Y-125680632D01*
X46961259Y-125803623D01*
X46961253Y-125803628D01*
X46809628Y-125955253D01*
X46809623Y-125955259D01*
X46686632Y-126130908D01*
X46686631Y-126130910D01*
X46596009Y-126325251D01*
X46596005Y-126325260D01*
X46540509Y-126532375D01*
X46540507Y-126532386D01*
X46521819Y-126745998D01*
X46521819Y-126746001D01*
X43434000Y-126746001D01*
X43434000Y-124206001D01*
X43881437Y-124206001D01*
X43901650Y-124437044D01*
X43901651Y-124437051D01*
X43961678Y-124661074D01*
X43961679Y-124661076D01*
X43961680Y-124661079D01*
X44059699Y-124871282D01*
X44192730Y-125061269D01*
X44356731Y-125225270D01*
X44546718Y-125358301D01*
X44756921Y-125456320D01*
X44980950Y-125516349D01*
X45145985Y-125530787D01*
X45211998Y-125536563D01*
X45212000Y-125536563D01*
X45212002Y-125536563D01*
X45269762Y-125531509D01*
X45443050Y-125516349D01*
X45667079Y-125456320D01*
X45877282Y-125358301D01*
X46067269Y-125225270D01*
X46231270Y-125061269D01*
X46364301Y-124871282D01*
X46462320Y-124661079D01*
X46522349Y-124437050D01*
X46542563Y-124206001D01*
X48961437Y-124206001D01*
X48981650Y-124437044D01*
X48981651Y-124437051D01*
X49041678Y-124661074D01*
X49041679Y-124661076D01*
X49041680Y-124661079D01*
X49139699Y-124871282D01*
X49272730Y-125061269D01*
X49436731Y-125225270D01*
X49626718Y-125358301D01*
X49836921Y-125456320D01*
X50060950Y-125516349D01*
X50225985Y-125530787D01*
X50291998Y-125536563D01*
X50292000Y-125536563D01*
X50292002Y-125536563D01*
X50349762Y-125531509D01*
X50523050Y-125516349D01*
X50747079Y-125456320D01*
X50957282Y-125358301D01*
X51147269Y-125225270D01*
X51311270Y-125061269D01*
X51444301Y-124871282D01*
X51542320Y-124661079D01*
X51602349Y-124437050D01*
X51622563Y-124206000D01*
X51621514Y-124194014D01*
X51609309Y-124054506D01*
X51602349Y-123974950D01*
X51542320Y-123750921D01*
X51444301Y-123540719D01*
X51444299Y-123540716D01*
X51444298Y-123540714D01*
X51311273Y-123350735D01*
X51311268Y-123350729D01*
X51147269Y-123186730D01*
X51096010Y-123150838D01*
X50957282Y-123053699D01*
X50747079Y-122955680D01*
X50747076Y-122955679D01*
X50747074Y-122955678D01*
X50523051Y-122895651D01*
X50523044Y-122895650D01*
X50292002Y-122875437D01*
X50291998Y-122875437D01*
X50060955Y-122895650D01*
X50060948Y-122895651D01*
X49836917Y-122955681D01*
X49626718Y-123053699D01*
X49626714Y-123053701D01*
X49436735Y-123186726D01*
X49436729Y-123186731D01*
X49272731Y-123350729D01*
X49272726Y-123350735D01*
X49139701Y-123540714D01*
X49139699Y-123540718D01*
X49041681Y-123750917D01*
X48981651Y-123974948D01*
X48981650Y-123974955D01*
X48961437Y-124205998D01*
X48961437Y-124206001D01*
X46542563Y-124206001D01*
X46542563Y-124206000D01*
X46541514Y-124194014D01*
X46529309Y-124054506D01*
X46522349Y-123974950D01*
X46462320Y-123750921D01*
X46364301Y-123540719D01*
X46364299Y-123540716D01*
X46364298Y-123540714D01*
X46231273Y-123350735D01*
X46231268Y-123350729D01*
X46067269Y-123186730D01*
X46016010Y-123150838D01*
X45877282Y-123053699D01*
X45667079Y-122955680D01*
X45667076Y-122955679D01*
X45667074Y-122955678D01*
X45443051Y-122895651D01*
X45443044Y-122895650D01*
X45212002Y-122875437D01*
X45211998Y-122875437D01*
X44980955Y-122895650D01*
X44980948Y-122895651D01*
X44756917Y-122955681D01*
X44546718Y-123053699D01*
X44546714Y-123053701D01*
X44356735Y-123186726D01*
X44356729Y-123186731D01*
X44192731Y-123350729D01*
X44192726Y-123350735D01*
X44059701Y-123540714D01*
X44059699Y-123540718D01*
X43961681Y-123750917D01*
X43901651Y-123974948D01*
X43901650Y-123974955D01*
X43881437Y-124205998D01*
X43881437Y-124206001D01*
X43434000Y-124206001D01*
X43434000Y-121970801D01*
X52480318Y-121970801D01*
X52500955Y-122127560D01*
X52500956Y-122127562D01*
X52535124Y-122210052D01*
X52561464Y-122273641D01*
X52657718Y-122399082D01*
X52783159Y-122495336D01*
X52929238Y-122555844D01*
X52973347Y-122561651D01*
X53085999Y-122576482D01*
X53086000Y-122576482D01*
X53086001Y-122576482D01*
X53138254Y-122569602D01*
X53242762Y-122555844D01*
X53388841Y-122495336D01*
X53514282Y-122399082D01*
X53610536Y-122273641D01*
X53671044Y-122127562D01*
X53684802Y-122023054D01*
X53691682Y-121970801D01*
X53691682Y-121970799D01*
X53682753Y-121902980D01*
X53693518Y-121833945D01*
X53718008Y-121799116D01*
X58061307Y-117455819D01*
X58122630Y-117422334D01*
X58148988Y-117419500D01*
X58613701Y-117419500D01*
X58680740Y-117439185D01*
X58712077Y-117468014D01*
X58753260Y-117521686D01*
X58753718Y-117522282D01*
X58807987Y-117563924D01*
X58849189Y-117620349D01*
X58856500Y-117662298D01*
X58856500Y-119549852D01*
X58878682Y-119632640D01*
X58895333Y-119661480D01*
X58921535Y-119706862D01*
X59137100Y-119922427D01*
X59311988Y-120097314D01*
X59345473Y-120158637D01*
X59347246Y-120201179D01*
X59338318Y-120268997D01*
X59338318Y-120269001D01*
X59358955Y-120425760D01*
X59358956Y-120425762D01*
X59402373Y-120530581D01*
X59419464Y-120571841D01*
X59515718Y-120697282D01*
X59641159Y-120793536D01*
X59787238Y-120854044D01*
X59865619Y-120864363D01*
X59943999Y-120874682D01*
X59944000Y-120874682D01*
X59944001Y-120874682D01*
X59996254Y-120867802D01*
X60100762Y-120854044D01*
X60246841Y-120793536D01*
X60372282Y-120697282D01*
X60468536Y-120571841D01*
X60529044Y-120425762D01*
X60549682Y-120269000D01*
X60549039Y-120264118D01*
X60535923Y-120164492D01*
X60529044Y-120112238D01*
X60468536Y-119966159D01*
X60372282Y-119840718D01*
X60246841Y-119744464D01*
X60156059Y-119706861D01*
X60100762Y-119683956D01*
X60100760Y-119683955D01*
X60032274Y-119674939D01*
X62958041Y-119674939D01*
X63523704Y-120240601D01*
X63523725Y-120240620D01*
X63603756Y-120305816D01*
X63603769Y-120305825D01*
X63760436Y-120384506D01*
X63931042Y-120424941D01*
X64106361Y-120424941D01*
X64276966Y-120384506D01*
X64433641Y-120305821D01*
X64513679Y-120240620D01*
X64513697Y-120240604D01*
X64831873Y-119922427D01*
X64831873Y-119922426D01*
X63771213Y-118861767D01*
X62958041Y-119674939D01*
X60032274Y-119674939D01*
X59944001Y-119663318D01*
X59943997Y-119663318D01*
X59876179Y-119672246D01*
X59807144Y-119661480D01*
X59772314Y-119636988D01*
X59543819Y-119408492D01*
X59510334Y-119347169D01*
X59507500Y-119320811D01*
X59507500Y-118348386D01*
X61854487Y-118348386D01*
X61894921Y-118518991D01*
X61973606Y-118675666D01*
X62038807Y-118755704D01*
X62038823Y-118755722D01*
X62497259Y-119214157D01*
X62497260Y-119214157D01*
X63310430Y-118400986D01*
X64017538Y-118400986D01*
X65185425Y-119568873D01*
X65185426Y-119568873D01*
X65503601Y-119250698D01*
X65503620Y-119250677D01*
X65549852Y-119193925D01*
X66654066Y-119193925D01*
X67944511Y-120484370D01*
X67944529Y-120484386D01*
X68006356Y-120534752D01*
X68006357Y-120534752D01*
X68024573Y-120549591D01*
X68181249Y-120628276D01*
X68298853Y-120656149D01*
X68298855Y-120656150D01*
X68351842Y-120668709D01*
X68351850Y-120668710D01*
X68527170Y-120668710D01*
X68697772Y-120628276D01*
X68854449Y-120549590D01*
X68934486Y-120484391D01*
X68934502Y-120484377D01*
X70243251Y-119175629D01*
X73010789Y-119175629D01*
X73031426Y-119332388D01*
X73031427Y-119332390D01*
X73086002Y-119464147D01*
X73091935Y-119478469D01*
X73188189Y-119603910D01*
X73313630Y-119700164D01*
X73459709Y-119760672D01*
X73502056Y-119766247D01*
X73616470Y-119781310D01*
X73616471Y-119781310D01*
X73616472Y-119781310D01*
X73674153Y-119773716D01*
X73773233Y-119760672D01*
X73919312Y-119700164D01*
X74044753Y-119603910D01*
X74141007Y-119478469D01*
X74201515Y-119332390D01*
X74212819Y-119246521D01*
X74241085Y-119182625D01*
X74248077Y-119175025D01*
X75342397Y-118080705D01*
X76460423Y-116962679D01*
X76521744Y-116929196D01*
X76531898Y-116927426D01*
X76610762Y-116917044D01*
X76756841Y-116856536D01*
X76882282Y-116760282D01*
X76978536Y-116634841D01*
X77039044Y-116488762D01*
X77059682Y-116332000D01*
X77059113Y-116327681D01*
X77039044Y-116175239D01*
X77039044Y-116175238D01*
X76978536Y-116029159D01*
X76882282Y-115903718D01*
X76756841Y-115807464D01*
X76653015Y-115764458D01*
X76610762Y-115746956D01*
X76610760Y-115746955D01*
X76454001Y-115726318D01*
X76453999Y-115726318D01*
X76297239Y-115746955D01*
X76297237Y-115746956D01*
X76151160Y-115807463D01*
X76025718Y-115903718D01*
X75929463Y-116029160D01*
X75868956Y-116175238D01*
X75858575Y-116254083D01*
X75830308Y-116317979D01*
X75823317Y-116325577D01*
X73603025Y-118545870D01*
X73541702Y-118579355D01*
X73531531Y-118581128D01*
X73459709Y-118590584D01*
X73459708Y-118590584D01*
X73313631Y-118651091D01*
X73188189Y-118747346D01*
X73091934Y-118872788D01*
X73031427Y-119018865D01*
X73031426Y-119018867D01*
X73010789Y-119175626D01*
X73010789Y-119175629D01*
X70243251Y-119175629D01*
X70472442Y-118946438D01*
X70472442Y-118946436D01*
X68686998Y-117160993D01*
X66654066Y-119193925D01*
X65549852Y-119193925D01*
X65568816Y-119170646D01*
X65568825Y-119170633D01*
X65647506Y-119013966D01*
X65687941Y-118843361D01*
X65687941Y-118668037D01*
X65652026Y-118516502D01*
X65655719Y-118446730D01*
X65696548Y-118390031D01*
X65761549Y-118364406D01*
X65830085Y-118377991D01*
X65860364Y-118400224D01*
X66300511Y-118840372D01*
X66300512Y-118840372D01*
X68333445Y-116807440D01*
X69040551Y-116807440D01*
X70825995Y-118592884D01*
X72434663Y-116984216D01*
X70649219Y-115198772D01*
X70649218Y-115198772D01*
X69078165Y-116769826D01*
X69040551Y-116807440D01*
X68333445Y-116807440D01*
X68686998Y-116453887D01*
X70295664Y-114845219D01*
X71002772Y-114845219D01*
X72788215Y-116630662D01*
X72854599Y-116564278D01*
X72854629Y-116564251D01*
X76288371Y-113130507D01*
X76288390Y-113130486D01*
X76353586Y-113050455D01*
X76353590Y-113050449D01*
X76432276Y-112893772D01*
X76472710Y-112723170D01*
X76472710Y-112547850D01*
X76432275Y-112377247D01*
X76353593Y-112220575D01*
X76353591Y-112220572D01*
X76338751Y-112202354D01*
X76288390Y-112140532D01*
X76288376Y-112140516D01*
X74997925Y-110850065D01*
X74997924Y-110850065D01*
X72611440Y-113236551D01*
X71002772Y-114845219D01*
X70295664Y-114845219D01*
X70295665Y-114845218D01*
X70295665Y-114845217D01*
X68934485Y-113484038D01*
X64932938Y-117485584D01*
X64919647Y-117530851D01*
X64866843Y-117576606D01*
X64834984Y-117583536D01*
X64017538Y-118400984D01*
X64017538Y-118400986D01*
X63310430Y-118400986D01*
X64483550Y-117227865D01*
X64496842Y-117182599D01*
X64549646Y-117136844D01*
X64581502Y-117129913D01*
X68580932Y-113130485D01*
X69288038Y-113130485D01*
X70649218Y-114491665D01*
X72220272Y-112920611D01*
X72220276Y-112920608D01*
X74644372Y-110496513D01*
X74644372Y-110496511D01*
X73283191Y-109135331D01*
X69288038Y-113130484D01*
X69288038Y-113130485D01*
X68580932Y-113130485D01*
X68934485Y-112776932D01*
X72929638Y-108781779D01*
X72929638Y-108781778D01*
X72858915Y-108711056D01*
X72858915Y-108711055D01*
X72858913Y-108711053D01*
X71568457Y-107420598D01*
X71568456Y-107420598D01*
X69181973Y-109807083D01*
X63224598Y-115764458D01*
X63879203Y-116419063D01*
X63912688Y-116480386D01*
X63907704Y-116550078D01*
X63865832Y-116606011D01*
X63800368Y-116630428D01*
X63762926Y-116627402D01*
X63611387Y-116591487D01*
X63436067Y-116591487D01*
X63265461Y-116631921D01*
X63108786Y-116710606D01*
X63028748Y-116775807D01*
X63028730Y-116775823D01*
X62038826Y-117765729D01*
X62038807Y-117765750D01*
X61973611Y-117845781D01*
X61973602Y-117845794D01*
X61894921Y-118002461D01*
X61854487Y-118173066D01*
X61854487Y-118348386D01*
X59507500Y-118348386D01*
X59507500Y-117662298D01*
X59527185Y-117595259D01*
X59556010Y-117563925D01*
X59610282Y-117522282D01*
X59706536Y-117396841D01*
X59767044Y-117250762D01*
X59787240Y-117097355D01*
X59787682Y-117094001D01*
X59787682Y-117093998D01*
X59767044Y-116937239D01*
X59767044Y-116937238D01*
X59706536Y-116791159D01*
X59610282Y-116665718D01*
X59484841Y-116569464D01*
X59338762Y-116508956D01*
X59338760Y-116508955D01*
X59182001Y-116488318D01*
X59181999Y-116488318D01*
X59025239Y-116508955D01*
X59025237Y-116508956D01*
X58879160Y-116569463D01*
X58753716Y-116665719D01*
X58712077Y-116719986D01*
X58655649Y-116761189D01*
X58613701Y-116768500D01*
X58013265Y-116768500D01*
X58013249Y-116768499D01*
X58005653Y-116768499D01*
X57919947Y-116768499D01*
X57864756Y-116783287D01*
X57837160Y-116790682D01*
X57823580Y-116798523D01*
X57800050Y-116812108D01*
X57762938Y-116833535D01*
X57762935Y-116833537D01*
X57702333Y-116894140D01*
X53257684Y-121338788D01*
X53196361Y-121372273D01*
X53153818Y-121374046D01*
X53086001Y-121365118D01*
X53085999Y-121365118D01*
X52929239Y-121385755D01*
X52929237Y-121385756D01*
X52783160Y-121446263D01*
X52657718Y-121542518D01*
X52561463Y-121667960D01*
X52500956Y-121814037D01*
X52500955Y-121814039D01*
X52480318Y-121970798D01*
X52480318Y-121970801D01*
X43434000Y-121970801D01*
X43434000Y-118034859D01*
X45484165Y-118034859D01*
X45504447Y-118240791D01*
X45509632Y-118257883D01*
X45558696Y-118419628D01*
X45564517Y-118438815D01*
X45568748Y-118446730D01*
X45662063Y-118621309D01*
X45662065Y-118621311D01*
X45793337Y-118781269D01*
X45868998Y-118843361D01*
X45953298Y-118912544D01*
X46135794Y-119010091D01*
X46333814Y-119070159D01*
X46333813Y-119070159D01*
X46352277Y-119071977D01*
X46539748Y-119090442D01*
X46745682Y-119070159D01*
X46943702Y-119010091D01*
X47126198Y-118912544D01*
X47286158Y-118781269D01*
X47417433Y-118621309D01*
X47514980Y-118438813D01*
X47575048Y-118240793D01*
X47595331Y-118034859D01*
X47575048Y-117828925D01*
X47514980Y-117630905D01*
X47417433Y-117448409D01*
X47354276Y-117371451D01*
X47286158Y-117288448D01*
X47130851Y-117160993D01*
X47126198Y-117157174D01*
X46943702Y-117059627D01*
X46745682Y-116999559D01*
X46745680Y-116999558D01*
X46745682Y-116999558D01*
X46539748Y-116979276D01*
X46333815Y-116999558D01*
X46135791Y-117059628D01*
X46065212Y-117097354D01*
X45953298Y-117157174D01*
X45953296Y-117157175D01*
X45953295Y-117157176D01*
X45793337Y-117288448D01*
X45662065Y-117448406D01*
X45662063Y-117448409D01*
X45639441Y-117490731D01*
X45564517Y-117630902D01*
X45504447Y-117828926D01*
X45484165Y-118034859D01*
X43434000Y-118034859D01*
X43434000Y-116962301D01*
X43440725Y-116922020D01*
X43442434Y-116917044D01*
X43612280Y-116422544D01*
X43613631Y-116418808D01*
X43676197Y-116254083D01*
X44003272Y-115392952D01*
X44004938Y-115388796D01*
X44431892Y-114378171D01*
X44433708Y-114374084D01*
X44897489Y-113379815D01*
X44899474Y-113375759D01*
X44939169Y-113298227D01*
X45399441Y-112399217D01*
X45401541Y-112395294D01*
X45937050Y-111437740D01*
X45939304Y-111433878D01*
X46509605Y-110496653D01*
X46512037Y-110492818D01*
X46653560Y-110278392D01*
X47116340Y-109577214D01*
X47118911Y-109573472D01*
X47394240Y-109187895D01*
X47449217Y-109144778D01*
X47518779Y-109138228D01*
X47580839Y-109170325D01*
X47615695Y-109230880D01*
X47618227Y-109244842D01*
X47618277Y-109245252D01*
X47655932Y-109384024D01*
X47731152Y-109506550D01*
X47731156Y-109506556D01*
X47774128Y-109548251D01*
X47774142Y-109548263D01*
X49190842Y-110655110D01*
X49190843Y-110655110D01*
X50132480Y-109449870D01*
X50150249Y-109476463D01*
X50289537Y-109615751D01*
X50453322Y-109725189D01*
X50527788Y-109756033D01*
X49584849Y-110962941D01*
X49584849Y-110962942D01*
X50804648Y-111915954D01*
X50845357Y-111972739D01*
X50848903Y-112042519D01*
X50815987Y-112101348D01*
X50252504Y-112664833D01*
X50191181Y-112698318D01*
X50164823Y-112701152D01*
X49316279Y-112701152D01*
X49249240Y-112681467D01*
X49203485Y-112628663D01*
X49192705Y-112566884D01*
X49194463Y-112545730D01*
X49170145Y-112469763D01*
X49170145Y-112469762D01*
X49118607Y-112408883D01*
X49065598Y-112381582D01*
X47393493Y-111902112D01*
X47393483Y-111902111D01*
X47334064Y-111897174D01*
X47334061Y-111897174D01*
X47258097Y-111921491D01*
X47258095Y-111921491D01*
X47197216Y-111973029D01*
X47169915Y-112026038D01*
X46690445Y-113698143D01*
X46690444Y-113698153D01*
X46685507Y-113757572D01*
X46685507Y-113757575D01*
X46709824Y-113833539D01*
X46709824Y-113833541D01*
X46747342Y-113877859D01*
X46761362Y-113894420D01*
X46814373Y-113921722D01*
X47311793Y-114064355D01*
X48486476Y-114401191D01*
X48486481Y-114401191D01*
X48486483Y-114401192D01*
X48545907Y-114406130D01*
X48621874Y-114381812D01*
X48682753Y-114330275D01*
X48710055Y-114277264D01*
X48877884Y-113691972D01*
X48915284Y-113632956D01*
X48978654Y-113603529D01*
X48997080Y-113602152D01*
X50053383Y-113602152D01*
X50120422Y-113621837D01*
X50166177Y-113674641D01*
X50176121Y-113743799D01*
X50147096Y-113807355D01*
X50141064Y-113813833D01*
X48848460Y-115106437D01*
X48787137Y-115139922D01*
X48760779Y-115142756D01*
X48264540Y-115142756D01*
X48197501Y-115123071D01*
X48155182Y-115077209D01*
X48117553Y-115006811D01*
X48117549Y-115006805D01*
X48117547Y-115006803D01*
X48094008Y-114978120D01*
X47986275Y-114846845D01*
X47839063Y-114726033D01*
X47826315Y-114715571D01*
X47643819Y-114618024D01*
X47445799Y-114557956D01*
X47445797Y-114557955D01*
X47445799Y-114557955D01*
X47239865Y-114537673D01*
X47033932Y-114557955D01*
X46835908Y-114618025D01*
X46783613Y-114645978D01*
X46653415Y-114715571D01*
X46653413Y-114715572D01*
X46653412Y-114715573D01*
X46493454Y-114846845D01*
X46376607Y-114989226D01*
X46362180Y-115006806D01*
X46338127Y-115051806D01*
X46264634Y-115189299D01*
X46204564Y-115387323D01*
X46184282Y-115593256D01*
X46204564Y-115799188D01*
X46207075Y-115807464D01*
X46264633Y-115997210D01*
X46362180Y-116179706D01*
X46365635Y-116183916D01*
X46493454Y-116339666D01*
X46589890Y-116418808D01*
X46653415Y-116470941D01*
X46835911Y-116568488D01*
X47033931Y-116628556D01*
X47033930Y-116628556D01*
X47052394Y-116630374D01*
X47239865Y-116648839D01*
X47445799Y-116628556D01*
X47643819Y-116568488D01*
X47826315Y-116470941D01*
X47986275Y-116339666D01*
X48117550Y-116179706D01*
X48128544Y-116159137D01*
X48155182Y-116109303D01*
X48204144Y-116059459D01*
X48264540Y-116043756D01*
X49058052Y-116043756D01*
X49058053Y-116043756D01*
X49148417Y-116019542D01*
X49172631Y-116013055D01*
X49275358Y-115953745D01*
X52905617Y-112323486D01*
X56155100Y-112323486D01*
X56175791Y-112454128D01*
X56188354Y-112533443D01*
X56250000Y-112723170D01*
X56254044Y-112735614D01*
X56350551Y-112925020D01*
X56475490Y-113096986D01*
X56625813Y-113247309D01*
X56797779Y-113372248D01*
X56797781Y-113372249D01*
X56797784Y-113372251D01*
X56987188Y-113468757D01*
X57189357Y-113534446D01*
X57399313Y-113567700D01*
X57399314Y-113567700D01*
X57611886Y-113567700D01*
X57611887Y-113567700D01*
X57821843Y-113534446D01*
X58024012Y-113468757D01*
X58213416Y-113372251D01*
X58315302Y-113298227D01*
X58385386Y-113247309D01*
X58385388Y-113247306D01*
X58385392Y-113247304D01*
X58535704Y-113096992D01*
X58535706Y-113096988D01*
X58535709Y-113096986D01*
X58660648Y-112925020D01*
X58660647Y-112925020D01*
X58660651Y-112925016D01*
X58757157Y-112735612D01*
X58822846Y-112533443D01*
X58856100Y-112323487D01*
X58856100Y-112110913D01*
X58822846Y-111900957D01*
X58757157Y-111698788D01*
X58660651Y-111509384D01*
X58660649Y-111509381D01*
X58660648Y-111509379D01*
X58535709Y-111337413D01*
X58385386Y-111187090D01*
X58213420Y-111062151D01*
X58024014Y-110965644D01*
X58024013Y-110965643D01*
X58024012Y-110965643D01*
X57821843Y-110899954D01*
X57821841Y-110899953D01*
X57821840Y-110899953D01*
X57660557Y-110874408D01*
X57611887Y-110866700D01*
X57399313Y-110866700D01*
X57350642Y-110874408D01*
X57189360Y-110899953D01*
X56987185Y-110965644D01*
X56797779Y-111062151D01*
X56625813Y-111187090D01*
X56475490Y-111337413D01*
X56350551Y-111509379D01*
X56254044Y-111698785D01*
X56188353Y-111900960D01*
X56155100Y-112110913D01*
X56155100Y-112323486D01*
X52905617Y-112323486D01*
X55677663Y-109551440D01*
X55738986Y-109517955D01*
X55765344Y-109515121D01*
X59398066Y-109515121D01*
X59465105Y-109534806D01*
X59485747Y-109551440D01*
X61017552Y-111083245D01*
X61041090Y-111102747D01*
X61041096Y-111102750D01*
X61047442Y-111106821D01*
X61046742Y-111107911D01*
X61092803Y-111149499D01*
X61111115Y-111216926D01*
X61090067Y-111283550D01*
X61074822Y-111302077D01*
X60582299Y-111794601D01*
X60582295Y-111794607D01*
X60522986Y-111897332D01*
X60522985Y-111897332D01*
X60521706Y-111902110D01*
X60521706Y-111902111D01*
X60492286Y-112011909D01*
X60492286Y-114034455D01*
X60472601Y-114101494D01*
X60443464Y-114130608D01*
X60444467Y-114131819D01*
X60415128Y-114156127D01*
X60415115Y-114156139D01*
X59419140Y-115152114D01*
X59399634Y-115175656D01*
X59356785Y-115264634D01*
X59340712Y-115298011D01*
X59320471Y-115432299D01*
X59340712Y-115566586D01*
X59353556Y-115593256D01*
X59399634Y-115688940D01*
X59399635Y-115688941D01*
X59419136Y-115712478D01*
X60910094Y-117203436D01*
X60933631Y-117222937D01*
X61055986Y-117281860D01*
X61190273Y-117302101D01*
X61324561Y-117281860D01*
X61446916Y-117222937D01*
X61470453Y-117203436D01*
X62466436Y-116207453D01*
X62485937Y-116183916D01*
X62544860Y-116061561D01*
X62565101Y-115927273D01*
X62544860Y-115792986D01*
X62485937Y-115670631D01*
X62466436Y-115647094D01*
X61429605Y-114610263D01*
X61396120Y-114548940D01*
X61393286Y-114522582D01*
X61393286Y-114232507D01*
X61412971Y-114165468D01*
X61465775Y-114119713D01*
X61534933Y-114109769D01*
X61598489Y-114138794D01*
X61604967Y-114144826D01*
X62871045Y-115410904D01*
X65257530Y-113024420D01*
X68790804Y-109491144D01*
X68790808Y-109491141D01*
X69181973Y-109099977D01*
X71214904Y-107067044D01*
X71214904Y-107067043D01*
X70447402Y-106299543D01*
X70413917Y-106238220D01*
X70418901Y-106168529D01*
X70460772Y-106112595D01*
X70526237Y-106088178D01*
X70535083Y-106087862D01*
X71022869Y-106087862D01*
X71089908Y-106107547D01*
G37*
%TD.AperFunction*%
%TA.AperFunction,Conductor*%
G36*
X97408001Y-137505185D02*
G01*
X97453756Y-137557989D01*
X97455673Y-137563324D01*
X97455846Y-137563253D01*
X97458955Y-137570760D01*
X97458956Y-137570762D01*
X97519464Y-137716841D01*
X97615718Y-137842282D01*
X97741159Y-137938536D01*
X97844130Y-137981188D01*
X97894679Y-138002126D01*
X97949082Y-138045967D01*
X97971147Y-138112261D01*
X97953868Y-138179960D01*
X97934907Y-138204368D01*
X96952537Y-139186739D01*
X96952533Y-139186745D01*
X96909681Y-139260966D01*
X96909680Y-139260966D01*
X96897488Y-139306474D01*
X96888327Y-139340666D01*
X96887500Y-139343751D01*
X96887500Y-139343753D01*
X96887500Y-141486415D01*
X96867815Y-141553454D01*
X96851181Y-141574096D01*
X95174537Y-143250739D01*
X95174535Y-143250742D01*
X95131682Y-143324965D01*
X95129219Y-143334159D01*
X95117864Y-143376532D01*
X95117864Y-143376535D01*
X95109500Y-143407751D01*
X95109500Y-143407754D01*
X95109500Y-144153414D01*
X95089815Y-144220453D01*
X95073181Y-144241095D01*
X92073188Y-147241087D01*
X92066729Y-147252275D01*
X92047025Y-147277952D01*
X91219145Y-148105834D01*
X91157822Y-148139319D01*
X91131464Y-148142153D01*
X90815501Y-148142153D01*
X90748462Y-148122468D01*
X90702707Y-148069664D01*
X90691501Y-148018153D01*
X90691501Y-147974649D01*
X90691500Y-147974631D01*
X90691500Y-139331584D01*
X90711185Y-139264545D01*
X90763989Y-139218790D01*
X90833147Y-139208846D01*
X90896703Y-139237871D01*
X90903181Y-139243903D01*
X91242798Y-139583520D01*
X91242808Y-139583531D01*
X91247138Y-139587861D01*
X91247139Y-139587862D01*
X91307742Y-139648465D01*
X91307744Y-139648466D01*
X91307745Y-139648467D01*
X91322775Y-139657144D01*
X91322779Y-139657148D01*
X91322780Y-139657147D01*
X91347653Y-139671508D01*
X91381965Y-139691318D01*
X91464751Y-139713500D01*
X91464753Y-139713500D01*
X95223851Y-139713500D01*
X95223853Y-139713500D01*
X95306639Y-139691318D01*
X95380862Y-139648465D01*
X95840316Y-139189009D01*
X95901637Y-139155526D01*
X95944181Y-139153753D01*
X96011999Y-139162682D01*
X96012000Y-139162682D01*
X96012001Y-139162682D01*
X96064254Y-139155802D01*
X96168762Y-139142044D01*
X96314841Y-139081536D01*
X96440282Y-138985282D01*
X96536536Y-138859841D01*
X96597044Y-138713762D01*
X96617682Y-138557000D01*
X96607454Y-138479314D01*
X96597044Y-138400239D01*
X96597044Y-138400238D01*
X96536536Y-138254159D01*
X96440282Y-138128718D01*
X96314841Y-138032464D01*
X96241875Y-138002240D01*
X96187473Y-137958400D01*
X96165408Y-137892106D01*
X96182687Y-137824407D01*
X96233824Y-137776796D01*
X96273141Y-137764741D01*
X96422762Y-137745044D01*
X96568841Y-137684536D01*
X96694282Y-137588282D01*
X96735923Y-137534013D01*
X96792351Y-137492811D01*
X96834299Y-137485500D01*
X97340962Y-137485500D01*
X97408001Y-137505185D01*
G37*
%TD.AperFunction*%
%TA.AperFunction,Conductor*%
G36*
X91332467Y-103476467D02*
G01*
X91344788Y-103485566D01*
X91603083Y-103702221D01*
X91819847Y-103884040D01*
X91823246Y-103886997D01*
X92017926Y-104062727D01*
X92634288Y-104619094D01*
X92637544Y-104622143D01*
X93025445Y-104998745D01*
X93403575Y-105365861D01*
X93437962Y-105426682D01*
X93434008Y-105496440D01*
X93392968Y-105552986D01*
X93354587Y-105573057D01*
X93343430Y-105576585D01*
X93343419Y-105576590D01*
X93292553Y-105608206D01*
X91875849Y-106715056D01*
X91875849Y-106715057D01*
X92818789Y-107921965D01*
X92744322Y-107952811D01*
X92580537Y-108062249D01*
X92441249Y-108201537D01*
X92423480Y-108228129D01*
X91481843Y-107022888D01*
X91481842Y-107022888D01*
X90065142Y-108129736D01*
X90065128Y-108129748D01*
X90022156Y-108171443D01*
X90022152Y-108171449D01*
X89946932Y-108293975D01*
X89909278Y-108432741D01*
X89912244Y-108576486D01*
X89912244Y-108576490D01*
X89955586Y-108713573D01*
X89955590Y-108713580D01*
X89987206Y-108764446D01*
X91094056Y-110181149D01*
X91094057Y-110181149D01*
X92300965Y-109238209D01*
X92331811Y-109312678D01*
X92441249Y-109476463D01*
X92580537Y-109615751D01*
X92607127Y-109633518D01*
X91401888Y-110575155D01*
X91401888Y-110575156D01*
X92508736Y-111991857D01*
X92508748Y-111991871D01*
X92550443Y-112034843D01*
X92550449Y-112034847D01*
X92672975Y-112110067D01*
X92811741Y-112147721D01*
X92955486Y-112144755D01*
X92955490Y-112144755D01*
X93092573Y-112101413D01*
X93092580Y-112101409D01*
X93143446Y-112069793D01*
X94560149Y-110962942D01*
X94560149Y-110962941D01*
X93617210Y-109756034D01*
X93691678Y-109725189D01*
X93855463Y-109615751D01*
X93994751Y-109476463D01*
X94012519Y-109449870D01*
X94954155Y-110655110D01*
X94954156Y-110655110D01*
X96370857Y-109548263D01*
X96370871Y-109548251D01*
X96413843Y-109506556D01*
X96413847Y-109506550D01*
X96489068Y-109384022D01*
X96494432Y-109364255D01*
X96530985Y-109304710D01*
X96593928Y-109274379D01*
X96663277Y-109282892D01*
X96715133Y-109324828D01*
X96913602Y-109603717D01*
X96916118Y-109607393D01*
X96965730Y-109682760D01*
X97516829Y-110519966D01*
X97519238Y-110523774D01*
X98086403Y-111457571D01*
X98088671Y-111461463D01*
X98621530Y-112415232D01*
X98623656Y-112419205D01*
X99121517Y-113391706D01*
X99123497Y-113395753D01*
X99585707Y-114385713D01*
X99587538Y-114389829D01*
X100013468Y-115395898D01*
X100015149Y-115400078D01*
X100404362Y-116421252D01*
X100405709Y-116424964D01*
X100427725Y-116488760D01*
X100575525Y-116917043D01*
X100577216Y-116921941D01*
X100584000Y-116962392D01*
X100584000Y-129667915D01*
X100564315Y-129734954D01*
X100511511Y-129780709D01*
X100442353Y-129790653D01*
X100378797Y-129761628D01*
X100372319Y-129755596D01*
X96442819Y-125826096D01*
X96409334Y-125764773D01*
X96406500Y-125738415D01*
X96406500Y-122672189D01*
X96426185Y-122605150D01*
X96442819Y-122584508D01*
X96470836Y-122556491D01*
X96532159Y-122523006D01*
X96574703Y-122521233D01*
X96595539Y-122523976D01*
X96647239Y-122530783D01*
X96647240Y-122530783D01*
X96647241Y-122530783D01*
X96706312Y-122523006D01*
X96804002Y-122510145D01*
X96950081Y-122449637D01*
X97075522Y-122353383D01*
X97146712Y-122260605D01*
X97203140Y-122219403D01*
X97272886Y-122215248D01*
X97333806Y-122249460D01*
X97366559Y-122311178D01*
X97368368Y-122349436D01*
X97366700Y-122364841D01*
X97366699Y-122364855D01*
X97366699Y-122364856D01*
X97365699Y-122387856D01*
X97365682Y-122388237D01*
X97364683Y-122412225D01*
X97364682Y-122412248D01*
X97364682Y-122429751D01*
X97365689Y-122453926D01*
X97365700Y-122454170D01*
X97365705Y-122454283D01*
X97366699Y-122477147D01*
X97366700Y-122477154D01*
X97369613Y-122504066D01*
X97369614Y-122504070D01*
X97369616Y-122504089D01*
X97373392Y-122525801D01*
X97373530Y-122526613D01*
X97377364Y-122549607D01*
X97379735Y-122561651D01*
X97384735Y-122583651D01*
X97388623Y-122598298D01*
X97395624Y-122621298D01*
X97399172Y-122631929D01*
X97407171Y-122653929D01*
X97408931Y-122658490D01*
X97410166Y-122661687D01*
X97419178Y-122683717D01*
X97423945Y-122694496D01*
X97433949Y-122715503D01*
X97437528Y-122722664D01*
X97448517Y-122743644D01*
X97448542Y-122743690D01*
X97457065Y-122758255D01*
X97458508Y-122760720D01*
X97458515Y-122760731D01*
X97458520Y-122760739D01*
X97484505Y-122800716D01*
X97494837Y-122815229D01*
X97494845Y-122815239D01*
X97508841Y-122833233D01*
X97508854Y-122833249D01*
X97517655Y-122843831D01*
X97517666Y-122843843D01*
X97533666Y-122861844D01*
X97537714Y-122866269D01*
X97553714Y-122883269D01*
X97562731Y-122892286D01*
X97579731Y-122908286D01*
X97584156Y-122912334D01*
X97592177Y-122919463D01*
X97602168Y-122928344D01*
X97612522Y-122936955D01*
X97612762Y-122937155D01*
X97630761Y-122951155D01*
X97642995Y-122959865D01*
X97643291Y-122960199D01*
X97645275Y-122961488D01*
X97645284Y-122961495D01*
X97651111Y-122965282D01*
X97651117Y-122965286D01*
X97665277Y-122974489D01*
X97665277Y-122974490D01*
X97685276Y-122987490D01*
X97702333Y-122997471D01*
X97702350Y-122997480D01*
X97702352Y-122997481D01*
X97723338Y-123008473D01*
X97730491Y-123012048D01*
X97738198Y-123015718D01*
X97751492Y-123022049D01*
X97761495Y-123026473D01*
X97762316Y-123026836D01*
X97778515Y-123033462D01*
X97784298Y-123035828D01*
X97792071Y-123038829D01*
X97814071Y-123046828D01*
X97824694Y-123050374D01*
X97847694Y-123057376D01*
X97862358Y-123061268D01*
X97868161Y-123062586D01*
X97929172Y-123096636D01*
X97962089Y-123158265D01*
X97956462Y-123227908D01*
X97951788Y-123235107D01*
X97953423Y-123246130D01*
X98059688Y-123302931D01*
X98238769Y-123357255D01*
X98425000Y-123375596D01*
X98611230Y-123357255D01*
X98790309Y-123302931D01*
X98896575Y-123246129D01*
X98899005Y-123229748D01*
X98888147Y-123209862D01*
X98893131Y-123140170D01*
X98935003Y-123084237D01*
X98981842Y-123062585D01*
X98987642Y-123061268D01*
X99002306Y-123057376D01*
X99025306Y-123050374D01*
X99035929Y-123046828D01*
X99057929Y-123038829D01*
X99065702Y-123035828D01*
X99081897Y-123029202D01*
X99087683Y-123026836D01*
X99087689Y-123026832D01*
X99087702Y-123026828D01*
X99098508Y-123022049D01*
X99119508Y-123012048D01*
X99126667Y-123008470D01*
X99147667Y-122997471D01*
X99164724Y-122987490D01*
X99184723Y-122974490D01*
X99184722Y-122974489D01*
X99190138Y-122970968D01*
X99204716Y-122961495D01*
X99204715Y-122961495D01*
X99206861Y-122960101D01*
X99206939Y-122960047D01*
X99220753Y-122951067D01*
X99226003Y-122945893D01*
X99237238Y-122937155D01*
X99247843Y-122928334D01*
X99265844Y-122912334D01*
X99270269Y-122908286D01*
X99287269Y-122892286D01*
X99296286Y-122883269D01*
X99312286Y-122866269D01*
X99316334Y-122861844D01*
X99332334Y-122843843D01*
X99341155Y-122833238D01*
X99355155Y-122815239D01*
X99365492Y-122800720D01*
X99391492Y-122760720D01*
X99401469Y-122743670D01*
X99412469Y-122722669D01*
X99416050Y-122715504D01*
X99426050Y-122694505D01*
X99430828Y-122683702D01*
X99439828Y-122661702D01*
X99442829Y-122653929D01*
X99450828Y-122631929D01*
X99454376Y-122621298D01*
X99461377Y-122598298D01*
X99465265Y-122583651D01*
X99470265Y-122561651D01*
X99472636Y-122549607D01*
X99476527Y-122526261D01*
X99480387Y-122504066D01*
X99483301Y-122477144D01*
X99484301Y-122454144D01*
X99484318Y-122453763D01*
X99485318Y-122429763D01*
X99485318Y-122412237D01*
X99484318Y-122388237D01*
X99484301Y-122387856D01*
X99483301Y-122364856D01*
X99480387Y-122337933D01*
X99476570Y-122315985D01*
X99476455Y-122315310D01*
X99475766Y-122311178D01*
X99472636Y-122292394D01*
X99471695Y-122287616D01*
X99470264Y-122280341D01*
X99465269Y-122258364D01*
X99461378Y-122243704D01*
X99459275Y-122236795D01*
X99454380Y-122220710D01*
X99450829Y-122210071D01*
X99442830Y-122188071D01*
X99439826Y-122180290D01*
X99439814Y-122180261D01*
X99430824Y-122158285D01*
X99426054Y-122147502D01*
X99416057Y-122126510D01*
X99412460Y-122119310D01*
X99401480Y-122098350D01*
X99401473Y-122098338D01*
X99401466Y-122098324D01*
X99398732Y-122093652D01*
X99391503Y-122081298D01*
X99391499Y-122081291D01*
X99391495Y-122081285D01*
X99365495Y-122041283D01*
X99365492Y-122041279D01*
X99365487Y-122041271D01*
X99355153Y-122026757D01*
X99341173Y-122008783D01*
X99341154Y-122008760D01*
X99332325Y-121998147D01*
X99322036Y-121986573D01*
X99316321Y-121980143D01*
X99312297Y-121975743D01*
X99296280Y-121958724D01*
X99287278Y-121949722D01*
X99284045Y-121946679D01*
X99270264Y-121933710D01*
X99265852Y-121929674D01*
X99247853Y-121913674D01*
X99247847Y-121913669D01*
X99247838Y-121913661D01*
X99237242Y-121904847D01*
X99232093Y-121900843D01*
X99219234Y-121890841D01*
X99213145Y-121886506D01*
X99204725Y-121880511D01*
X99164714Y-121854504D01*
X99147686Y-121844539D01*
X99147641Y-121844514D01*
X99126708Y-121833550D01*
X99126692Y-121833542D01*
X99126673Y-121833532D01*
X99119501Y-121829948D01*
X99119480Y-121829938D01*
X99119460Y-121829928D01*
X99098529Y-121819960D01*
X99087683Y-121815163D01*
X99069710Y-121807811D01*
X99065702Y-121806172D01*
X99057937Y-121803173D01*
X99035937Y-121795173D01*
X99035936Y-121795172D01*
X99035926Y-121795169D01*
X99032415Y-121793997D01*
X99025290Y-121791620D01*
X99013790Y-121788120D01*
X99002295Y-121784621D01*
X98987646Y-121780733D01*
X98981827Y-121779411D01*
X98920818Y-121745357D01*
X98887905Y-121683725D01*
X98893537Y-121614083D01*
X98898210Y-121606885D01*
X98896576Y-121595869D01*
X98790311Y-121539068D01*
X98611230Y-121484744D01*
X98425000Y-121466403D01*
X98424996Y-121466403D01*
X98381693Y-121470667D01*
X98313048Y-121457647D01*
X98262338Y-121409581D01*
X98245666Y-121341730D01*
X98260594Y-121290614D01*
X98260350Y-121290513D01*
X98261278Y-121288270D01*
X98262159Y-121285257D01*
X98263454Y-121283011D01*
X98263460Y-121283005D01*
X98323968Y-121136926D01*
X98344606Y-120980164D01*
X98338473Y-120933582D01*
X98324678Y-120828795D01*
X98327835Y-120780543D01*
X98328332Y-120778690D01*
X98364684Y-120719026D01*
X98427525Y-120688486D01*
X98460715Y-120687407D01*
X98535021Y-120694998D01*
X98809999Y-120694998D01*
X98810000Y-120694997D01*
X98810000Y-119944999D01*
X99310000Y-119944999D01*
X99310000Y-120694998D01*
X99584972Y-120694998D01*
X99584986Y-120694997D01*
X99687697Y-120684504D01*
X99854119Y-120629357D01*
X99854124Y-120629355D01*
X100003345Y-120537314D01*
X100127315Y-120413344D01*
X100219356Y-120264123D01*
X100219358Y-120264118D01*
X100274505Y-120097696D01*
X100274506Y-120097689D01*
X100284999Y-119994985D01*
X100285000Y-119994972D01*
X100285000Y-119944999D01*
X99310000Y-119944999D01*
X98810000Y-119944999D01*
X98810000Y-119568999D01*
X98829685Y-119501960D01*
X98882489Y-119456205D01*
X98934000Y-119444999D01*
X100284999Y-119444999D01*
X100284999Y-119395027D01*
X100284998Y-119395012D01*
X100274505Y-119292301D01*
X100219358Y-119125879D01*
X100219356Y-119125874D01*
X100127315Y-118976653D01*
X100003345Y-118852683D01*
X99854124Y-118760642D01*
X99854119Y-118760640D01*
X99685920Y-118704905D01*
X99628475Y-118665133D01*
X99601652Y-118600617D01*
X99613967Y-118531841D01*
X99661510Y-118480641D01*
X99683969Y-118470158D01*
X99685515Y-118469617D01*
X99747882Y-118447794D01*
X99857150Y-118367151D01*
X99937793Y-118257883D01*
X99961962Y-118188811D01*
X99982646Y-118129702D01*
X99982646Y-118129700D01*
X99985500Y-118099270D01*
X99985500Y-117490731D01*
X99982646Y-117460301D01*
X99982646Y-117460299D01*
X99949006Y-117364164D01*
X99937793Y-117332119D01*
X99857150Y-117222851D01*
X99747882Y-117142208D01*
X99747880Y-117142207D01*
X99619700Y-117097354D01*
X99589270Y-117094501D01*
X99589266Y-117094501D01*
X99266293Y-117094501D01*
X99199254Y-117074816D01*
X99153499Y-117022012D01*
X99143555Y-116952854D01*
X99172580Y-116889298D01*
X99179261Y-116883263D01*
X99178733Y-116882735D01*
X99213364Y-116848104D01*
X99270065Y-116791403D01*
X99320068Y-116684172D01*
X99326500Y-116635315D01*
X99326500Y-116286683D01*
X99320068Y-116237826D01*
X99320067Y-116237824D01*
X99317497Y-116229006D01*
X99317633Y-116159137D01*
X99355522Y-116100433D01*
X99373426Y-116087569D01*
X99383288Y-116081736D01*
X99383294Y-116081732D01*
X99496731Y-115968295D01*
X99496738Y-115968286D01*
X99578404Y-115830195D01*
X99618844Y-115691001D01*
X97993156Y-115691001D01*
X98033595Y-115830195D01*
X98115261Y-115968286D01*
X98115268Y-115968295D01*
X98228705Y-116081732D01*
X98228711Y-116081737D01*
X98238575Y-116087570D01*
X98286260Y-116138638D01*
X98298766Y-116207380D01*
X98294504Y-116229000D01*
X98291931Y-116237825D01*
X98285500Y-116286682D01*
X98285500Y-116635315D01*
X98291931Y-116684170D01*
X98291932Y-116684172D01*
X98341935Y-116791403D01*
X98425596Y-116875064D01*
X98425598Y-116875065D01*
X98427623Y-116876483D01*
X98430044Y-116879512D01*
X98433267Y-116882735D01*
X98432907Y-116883094D01*
X98471248Y-116931060D01*
X98480500Y-116978058D01*
X98480500Y-117016300D01*
X98460815Y-117083339D01*
X98408011Y-117129094D01*
X98397458Y-117133340D01*
X98372119Y-117142207D01*
X98262848Y-117222852D01*
X98210241Y-117294134D01*
X98154594Y-117336385D01*
X98110471Y-117344501D01*
X98068966Y-117344501D01*
X98001927Y-117324816D01*
X97981289Y-117308186D01*
X97848207Y-117175105D01*
X97814724Y-117113785D01*
X97812951Y-117071243D01*
X97822499Y-116998720D01*
X97822499Y-116173280D01*
X97807686Y-116060764D01*
X97749697Y-115920767D01*
X97657450Y-115800549D01*
X97537232Y-115708302D01*
X97537229Y-115708301D01*
X97530784Y-115703355D01*
X97531649Y-115702226D01*
X97489486Y-115657999D01*
X97476268Y-115589391D01*
X97502242Y-115524529D01*
X97544612Y-115490100D01*
X97721022Y-115402609D01*
X97721025Y-115402607D01*
X97869364Y-115283369D01*
X97906384Y-115237314D01*
X97963727Y-115197395D01*
X98003032Y-115191001D01*
X98556000Y-115191001D01*
X98556000Y-114671069D01*
X99056000Y-114671069D01*
X99056000Y-115191001D01*
X99618844Y-115191001D01*
X99578404Y-115051806D01*
X99496738Y-114913715D01*
X99496731Y-114913706D01*
X99383294Y-114800269D01*
X99383285Y-114800262D01*
X99245191Y-114718594D01*
X99245188Y-114718593D01*
X99091130Y-114673835D01*
X99056000Y-114671069D01*
X98556000Y-114671069D01*
X98555999Y-114671069D01*
X98520869Y-114673835D01*
X98520868Y-114673835D01*
X98366811Y-114718593D01*
X98366804Y-114718596D01*
X98309120Y-114752710D01*
X98241396Y-114769893D01*
X98175134Y-114747733D01*
X98131371Y-114693266D01*
X98122000Y-114645978D01*
X98122000Y-114536000D01*
X95122000Y-114536000D01*
X95122000Y-114737096D01*
X95124897Y-114779824D01*
X95170831Y-114964523D01*
X95255390Y-115135022D01*
X95255392Y-115135025D01*
X95374632Y-115283366D01*
X95374633Y-115283367D01*
X95522974Y-115402607D01*
X95522977Y-115402609D01*
X95699386Y-115490099D01*
X95750699Y-115537520D01*
X95768229Y-115605155D01*
X95746409Y-115671530D01*
X95712690Y-115702672D01*
X95713214Y-115703355D01*
X95706768Y-115708301D01*
X95706766Y-115708302D01*
X95586548Y-115800549D01*
X95509042Y-115901557D01*
X95494299Y-115920770D01*
X95437062Y-116058953D01*
X95393221Y-116113356D01*
X95326927Y-116135421D01*
X95322501Y-116135500D01*
X91646501Y-116135500D01*
X91579462Y-116115815D01*
X91533707Y-116063011D01*
X91522501Y-116011500D01*
X91522501Y-115129386D01*
X91521832Y-115122019D01*
X91516087Y-115058804D01*
X91465479Y-114896394D01*
X91377473Y-114750815D01*
X91377471Y-114750813D01*
X91377470Y-114750811D01*
X91257189Y-114630530D01*
X91236503Y-114618025D01*
X91111607Y-114542522D01*
X90949197Y-114491914D01*
X90949194Y-114491913D01*
X90885278Y-114486105D01*
X90820295Y-114460433D01*
X90779507Y-114403705D01*
X90772501Y-114362614D01*
X90772501Y-114036000D01*
X95122000Y-114036000D01*
X96372000Y-114036000D01*
X96372000Y-113036000D01*
X96872000Y-113036000D01*
X96872000Y-114036000D01*
X98122000Y-114036000D01*
X98122000Y-113834903D01*
X98119102Y-113792175D01*
X98073168Y-113607476D01*
X97988609Y-113436977D01*
X97988607Y-113436974D01*
X97869367Y-113288633D01*
X97869366Y-113288632D01*
X97721025Y-113169392D01*
X97721022Y-113169390D01*
X97550523Y-113084831D01*
X97365824Y-113038897D01*
X97323097Y-113036000D01*
X96872000Y-113036000D01*
X96372000Y-113036000D01*
X95920903Y-113036000D01*
X95878175Y-113038897D01*
X95693476Y-113084831D01*
X95522977Y-113169390D01*
X95522974Y-113169392D01*
X95374633Y-113288632D01*
X95374632Y-113288633D01*
X95255392Y-113436974D01*
X95255390Y-113436977D01*
X95170831Y-113607476D01*
X95124897Y-113792175D01*
X95122000Y-113834903D01*
X95122000Y-114036000D01*
X90772501Y-114036000D01*
X90772501Y-112614694D01*
X90772501Y-112614692D01*
X90741800Y-112500115D01*
X90741800Y-112500114D01*
X90741800Y-112500113D01*
X90682493Y-112397390D01*
X90682489Y-112397385D01*
X88624819Y-110339715D01*
X88591334Y-110278392D01*
X88588500Y-110252034D01*
X88588500Y-107087430D01*
X88608185Y-107020391D01*
X88629932Y-106994918D01*
X88635394Y-106990042D01*
X88635396Y-106990042D01*
X88679883Y-106950336D01*
X91110912Y-103724251D01*
X91136818Y-103670544D01*
X91141339Y-103590908D01*
X91141338Y-103590907D01*
X91142031Y-103578715D01*
X91145097Y-103578889D01*
X91152471Y-103528713D01*
X91198389Y-103476051D01*
X91265489Y-103456575D01*
X91332467Y-103476467D01*
G37*
%TD.AperFunction*%
%TA.AperFunction,Conductor*%
G36*
X62389346Y-98137127D02*
G01*
X62677750Y-98154345D01*
X62694249Y-98156448D01*
X62976747Y-98211925D01*
X62992812Y-98216216D01*
X63265354Y-98309020D01*
X63280693Y-98315421D01*
X63538353Y-98443876D01*
X63552709Y-98452281D01*
X63790835Y-98614065D01*
X63803939Y-98624317D01*
X64018272Y-98816533D01*
X64029878Y-98828439D01*
X64217204Y-99048393D01*
X64226012Y-99060067D01*
X64281542Y-99143476D01*
X64301584Y-99173581D01*
X64310087Y-99188498D01*
X65214500Y-101066600D01*
X78803500Y-101066600D01*
X79836105Y-99185374D01*
X79841566Y-99176359D01*
X79919002Y-99060057D01*
X79927799Y-99048400D01*
X80115127Y-98828444D01*
X80126723Y-98816546D01*
X80341069Y-98624318D01*
X80354163Y-98614074D01*
X80592303Y-98452281D01*
X80606643Y-98443885D01*
X80864320Y-98315423D01*
X80879636Y-98309031D01*
X81152201Y-98216219D01*
X81168246Y-98211934D01*
X81450754Y-98156455D01*
X81467244Y-98154353D01*
X81755653Y-98137135D01*
X81770268Y-98137128D01*
X81897517Y-98144576D01*
X81931511Y-98151423D01*
X82430462Y-98327404D01*
X82434136Y-98328767D01*
X83452642Y-98724891D01*
X83456762Y-98726580D01*
X84459967Y-99159342D01*
X84464044Y-99161189D01*
X85202644Y-99512157D01*
X85450882Y-99630115D01*
X85454915Y-99632123D01*
X86423987Y-100136550D01*
X86427945Y-100138702D01*
X86602332Y-100237687D01*
X87378113Y-100678034D01*
X87381942Y-100680300D01*
X87628998Y-100832658D01*
X87675726Y-100884602D01*
X87686954Y-100953564D01*
X87659115Y-101017648D01*
X87646480Y-101030712D01*
X87596116Y-101075664D01*
X86465156Y-102576500D01*
X85759452Y-103513002D01*
X85759359Y-103513125D01*
X85703293Y-103554819D01*
X85660328Y-103562500D01*
X76818965Y-103562500D01*
X76751926Y-103542815D01*
X76731284Y-103526181D01*
X76195681Y-102990578D01*
X76162196Y-102929255D01*
X76160425Y-102919097D01*
X76150044Y-102840238D01*
X76089536Y-102694159D01*
X75993282Y-102568718D01*
X75867841Y-102472464D01*
X75842390Y-102461922D01*
X75721762Y-102411956D01*
X75721760Y-102411955D01*
X75565001Y-102391318D01*
X75564999Y-102391318D01*
X75408239Y-102411955D01*
X75408237Y-102411956D01*
X75262160Y-102472463D01*
X75136718Y-102568718D01*
X75040463Y-102694160D01*
X74979956Y-102840237D01*
X74979955Y-102840239D01*
X74959318Y-102996998D01*
X74959318Y-102997001D01*
X74979955Y-103153760D01*
X74979956Y-103153762D01*
X74981025Y-103156344D01*
X75040464Y-103299841D01*
X75136718Y-103425282D01*
X75262159Y-103521536D01*
X75408238Y-103582044D01*
X75487083Y-103592424D01*
X75550978Y-103620689D01*
X75558578Y-103627681D01*
X76304386Y-104373489D01*
X76407113Y-104432799D01*
X76431321Y-104439284D01*
X76431324Y-104439286D01*
X76431325Y-104439286D01*
X76461447Y-104447357D01*
X76521691Y-104463500D01*
X85063568Y-104463500D01*
X85130607Y-104483185D01*
X85156079Y-104504930D01*
X85160958Y-104510396D01*
X85200664Y-104554883D01*
X87515906Y-106299543D01*
X87638125Y-106391641D01*
X87679819Y-106447707D01*
X87687500Y-106490672D01*
X87687500Y-110549308D01*
X87711712Y-110639672D01*
X87718200Y-110663885D01*
X87718200Y-110663886D01*
X87741299Y-110703893D01*
X87777511Y-110766614D01*
X87777513Y-110766616D01*
X89835182Y-112824285D01*
X89868667Y-112885608D01*
X89871501Y-112911966D01*
X89871501Y-114362614D01*
X89851816Y-114429653D01*
X89799012Y-114475408D01*
X89758724Y-114486105D01*
X89694807Y-114491913D01*
X89532394Y-114542522D01*
X89386812Y-114630530D01*
X89266531Y-114750811D01*
X89178523Y-114896393D01*
X89127914Y-115058807D01*
X89124960Y-115091318D01*
X89122171Y-115122017D01*
X89121501Y-115129386D01*
X89121501Y-116011500D01*
X89101816Y-116078539D01*
X89049012Y-116124294D01*
X88997501Y-116135500D01*
X88502966Y-116135500D01*
X88435927Y-116115815D01*
X88415285Y-116099181D01*
X88006681Y-115690577D01*
X87973196Y-115629254D01*
X87971425Y-115619095D01*
X87961044Y-115540238D01*
X87900536Y-115394159D01*
X87804282Y-115268718D01*
X87678841Y-115172464D01*
X87675591Y-115171118D01*
X87532762Y-115111956D01*
X87532760Y-115111955D01*
X87376001Y-115091318D01*
X87375999Y-115091318D01*
X87219239Y-115111955D01*
X87219237Y-115111956D01*
X87073160Y-115172463D01*
X86947718Y-115268718D01*
X86851463Y-115394160D01*
X86790956Y-115540237D01*
X86790955Y-115540239D01*
X86770318Y-115696998D01*
X86770318Y-115697001D01*
X86790955Y-115853760D01*
X86790956Y-115853762D01*
X86850258Y-115996931D01*
X86851464Y-115999841D01*
X86947718Y-116125282D01*
X87073159Y-116221536D01*
X87219238Y-116282044D01*
X87298082Y-116292423D01*
X87361977Y-116320689D01*
X87369577Y-116327681D01*
X87988386Y-116946490D01*
X88091113Y-117005799D01*
X88115321Y-117012284D01*
X88115324Y-117012286D01*
X88115325Y-117012286D01*
X88145447Y-117020357D01*
X88205691Y-117036500D01*
X88997501Y-117036500D01*
X89064540Y-117056185D01*
X89110295Y-117108989D01*
X89121501Y-117160500D01*
X89121501Y-118042613D01*
X89127914Y-118113192D01*
X89127914Y-118113194D01*
X89127915Y-118113196D01*
X89142138Y-118158841D01*
X89178523Y-118275606D01*
X89191668Y-118297350D01*
X89209504Y-118364905D01*
X89187986Y-118431379D01*
X89133946Y-118475666D01*
X89085551Y-118485500D01*
X87509493Y-118485500D01*
X87442454Y-118465815D01*
X87421812Y-118449181D01*
X84415043Y-115442411D01*
X84381558Y-115381088D01*
X84378724Y-115354730D01*
X84378724Y-115331673D01*
X84398409Y-115264634D01*
X84415038Y-115243996D01*
X84519533Y-115139502D01*
X84549532Y-115100407D01*
X84589998Y-114989226D01*
X84589998Y-114870911D01*
X84549532Y-114759730D01*
X84519533Y-114720635D01*
X84519529Y-114720631D01*
X84519526Y-114720627D01*
X84273020Y-114474121D01*
X84273015Y-114474117D01*
X84273013Y-114474115D01*
X84233918Y-114444116D01*
X84233917Y-114444115D01*
X84122737Y-114403650D01*
X84004422Y-114403650D01*
X83993574Y-114403650D01*
X83993574Y-114399659D01*
X83944610Y-114394175D01*
X83890403Y-114350092D01*
X83868634Y-114283700D01*
X83868985Y-114278826D01*
X83868750Y-114278826D01*
X83868750Y-114149665D01*
X83868750Y-114149663D01*
X83828284Y-114038482D01*
X83798285Y-113999387D01*
X83798281Y-113999383D01*
X83798278Y-113999379D01*
X83551772Y-113752873D01*
X83551767Y-113752869D01*
X83551765Y-113752867D01*
X83512670Y-113722868D01*
X83512669Y-113722867D01*
X83401489Y-113682402D01*
X83292246Y-113682402D01*
X83225207Y-113662717D01*
X83204565Y-113646083D01*
X83203917Y-113645435D01*
X83170432Y-113584112D01*
X83167598Y-113557754D01*
X83167598Y-113448513D01*
X83167598Y-113448511D01*
X83127132Y-113337330D01*
X83097133Y-113298235D01*
X83097129Y-113298231D01*
X83097126Y-113298227D01*
X82850620Y-113051721D01*
X82850615Y-113051717D01*
X82850613Y-113051715D01*
X82811518Y-113021716D01*
X82803460Y-113017296D01*
X82754153Y-112967793D01*
X82739436Y-112899491D01*
X82743000Y-112877736D01*
X82745849Y-112866640D01*
X82745850Y-112866637D01*
X82745850Y-112706201D01*
X82745849Y-112706196D01*
X82705952Y-112550807D01*
X82705949Y-112550799D01*
X82636120Y-112423782D01*
X81884576Y-113175329D01*
X81486582Y-113573320D01*
X81486582Y-113573321D01*
X81613599Y-113643149D01*
X81613609Y-113643152D01*
X81718462Y-113670074D01*
X81778500Y-113705811D01*
X81809686Y-113768335D01*
X81802118Y-113837794D01*
X81775307Y-113877859D01*
X81689183Y-113963982D01*
X81627863Y-113997466D01*
X81601504Y-114000300D01*
X81019344Y-114000300D01*
X80952305Y-113980615D01*
X80931663Y-113963981D01*
X79905037Y-112937355D01*
X81023302Y-112937355D01*
X81063201Y-113092750D01*
X81133030Y-113219768D01*
X81531023Y-112821776D01*
X81531023Y-112821775D01*
X81163376Y-112454128D01*
X81163375Y-112454128D01*
X81140497Y-112480914D01*
X81140496Y-112480916D01*
X81063201Y-112621514D01*
X81063199Y-112621520D01*
X81023302Y-112776908D01*
X81023302Y-112937355D01*
X79905037Y-112937355D01*
X79068258Y-112100576D01*
X81516928Y-112100576D01*
X81884576Y-112468223D01*
X81884577Y-112468223D01*
X82029313Y-112323486D01*
X85161900Y-112323486D01*
X85182591Y-112454128D01*
X85195154Y-112533443D01*
X85256800Y-112723170D01*
X85260844Y-112735614D01*
X85357351Y-112925020D01*
X85482290Y-113096986D01*
X85632613Y-113247309D01*
X85804579Y-113372248D01*
X85804581Y-113372249D01*
X85804584Y-113372251D01*
X85993988Y-113468757D01*
X86196157Y-113534446D01*
X86406113Y-113567700D01*
X86406114Y-113567700D01*
X86618686Y-113567700D01*
X86618687Y-113567700D01*
X86828643Y-113534446D01*
X87030812Y-113468757D01*
X87220216Y-113372251D01*
X87322102Y-113298227D01*
X87392186Y-113247309D01*
X87392188Y-113247306D01*
X87392192Y-113247304D01*
X87542504Y-113096992D01*
X87542506Y-113096988D01*
X87542509Y-113096986D01*
X87667448Y-112925020D01*
X87667447Y-112925020D01*
X87667451Y-112925016D01*
X87763957Y-112735612D01*
X87829646Y-112533443D01*
X87862900Y-112323487D01*
X87862900Y-112110913D01*
X87829646Y-111900957D01*
X87763957Y-111698788D01*
X87667451Y-111509384D01*
X87667449Y-111509381D01*
X87667448Y-111509379D01*
X87542509Y-111337413D01*
X87392186Y-111187090D01*
X87220220Y-111062151D01*
X87030814Y-110965644D01*
X87030813Y-110965643D01*
X87030812Y-110965643D01*
X86828643Y-110899954D01*
X86828641Y-110899953D01*
X86828640Y-110899953D01*
X86667357Y-110874408D01*
X86618687Y-110866700D01*
X86406113Y-110866700D01*
X86357442Y-110874408D01*
X86196160Y-110899953D01*
X85993985Y-110965644D01*
X85804579Y-111062151D01*
X85632613Y-111187090D01*
X85482290Y-111337413D01*
X85357351Y-111509379D01*
X85260844Y-111698785D01*
X85195153Y-111900960D01*
X85161900Y-112110913D01*
X85161900Y-112323486D01*
X82029313Y-112323486D01*
X82282568Y-112070230D01*
X82155550Y-112000401D01*
X82000155Y-111960502D01*
X81839708Y-111960502D01*
X81684320Y-112000399D01*
X81684314Y-112000401D01*
X81543716Y-112077696D01*
X81543714Y-112077697D01*
X81516928Y-112100575D01*
X81516928Y-112100576D01*
X79068258Y-112100576D01*
X71030413Y-104062731D01*
X71030408Y-104062727D01*
X70950490Y-104016587D01*
X70950489Y-104016586D01*
X70950488Y-104016586D01*
X70861344Y-103992700D01*
X69083344Y-103992700D01*
X68991056Y-103992700D01*
X68901912Y-104016586D01*
X68901909Y-104016587D01*
X68821991Y-104062727D01*
X68821986Y-104062731D01*
X67475422Y-105409294D01*
X67414099Y-105442779D01*
X67344407Y-105437795D01*
X67288474Y-105395923D01*
X67267084Y-105350210D01*
X67239889Y-105235470D01*
X67161203Y-105078794D01*
X67095996Y-104998745D01*
X67095981Y-104998729D01*
X65787859Y-103690609D01*
X65787858Y-103690609D01*
X64868621Y-104609848D01*
X64461680Y-105016788D01*
X64400357Y-105050273D01*
X64330665Y-105045289D01*
X64286318Y-105016788D01*
X64108127Y-104838597D01*
X64074642Y-104777274D01*
X64079626Y-104707582D01*
X64108127Y-104663235D01*
X64515068Y-104256295D01*
X62711946Y-102453173D01*
X62641248Y-102523871D01*
X62576043Y-102603913D01*
X62576039Y-102603919D01*
X62497351Y-102760599D01*
X62456920Y-102931188D01*
X62456919Y-102931199D01*
X62456919Y-103106516D01*
X62456920Y-103106527D01*
X62478558Y-103197821D01*
X62474865Y-103267593D01*
X62434037Y-103324292D01*
X62376383Y-103349033D01*
X62294816Y-103361327D01*
X62294816Y-103361328D01*
X62172463Y-103420250D01*
X62172461Y-103420251D01*
X62148918Y-103439757D01*
X61647920Y-103940755D01*
X61628414Y-103964298D01*
X61628413Y-103964300D01*
X61569491Y-104086653D01*
X61569490Y-104086653D01*
X61557196Y-104168220D01*
X61527739Y-104231577D01*
X61468705Y-104268950D01*
X61405984Y-104270395D01*
X61314690Y-104248757D01*
X61314680Y-104248756D01*
X61139362Y-104248756D01*
X61139351Y-104248757D01*
X60968762Y-104289188D01*
X60812078Y-104367878D01*
X60732038Y-104433080D01*
X60732029Y-104433088D01*
X60661335Y-104503782D01*
X62464458Y-106306905D01*
X62464459Y-106306905D01*
X62871398Y-105899964D01*
X62932721Y-105866479D01*
X63002412Y-105871463D01*
X63046760Y-105899964D01*
X63224951Y-106078155D01*
X63258436Y-106139478D01*
X63253452Y-106209170D01*
X63224951Y-106253517D01*
X62552138Y-106926329D01*
X62490815Y-106959814D01*
X62421123Y-106954830D01*
X62376776Y-106926329D01*
X60307783Y-104857336D01*
X60237085Y-104928034D01*
X60171880Y-105008076D01*
X60171876Y-105008082D01*
X60093188Y-105164762D01*
X60052757Y-105335351D01*
X60052756Y-105335362D01*
X60052756Y-105510679D01*
X60052757Y-105510690D01*
X60074395Y-105601984D01*
X60070702Y-105671756D01*
X60029874Y-105728455D01*
X59972220Y-105753196D01*
X59890653Y-105765490D01*
X59890646Y-105765493D01*
X59886140Y-105767663D01*
X59817198Y-105779010D01*
X59753065Y-105751283D01*
X59714104Y-105693284D01*
X59710830Y-105655535D01*
X59708401Y-105655535D01*
X59708401Y-103670926D01*
X59728086Y-103603887D01*
X59744720Y-103583245D01*
X60178691Y-103149274D01*
X60648738Y-102679227D01*
X60708048Y-102576500D01*
X60716086Y-102546500D01*
X60738749Y-102461922D01*
X60738749Y-102419468D01*
X60758434Y-102352429D01*
X60775068Y-102331787D01*
X61007236Y-102099619D01*
X63065498Y-102099619D01*
X64868621Y-103902742D01*
X64868622Y-103902742D01*
X65434306Y-103337056D01*
X65434306Y-103337055D01*
X64126176Y-102028927D01*
X64126169Y-102028921D01*
X64046120Y-101963712D01*
X63889442Y-101885025D01*
X63718853Y-101844594D01*
X63718843Y-101844593D01*
X63543525Y-101844593D01*
X63543514Y-101844594D01*
X63372925Y-101885025D01*
X63216241Y-101963715D01*
X63136201Y-102028917D01*
X63136192Y-102028925D01*
X63065498Y-102099619D01*
X61007236Y-102099619D01*
X61157807Y-101949048D01*
X61157825Y-101949030D01*
X61177326Y-101925492D01*
X61236249Y-101803137D01*
X61256490Y-101668850D01*
X61236249Y-101534563D01*
X61206868Y-101473554D01*
X61195517Y-101404615D01*
X61223239Y-101340480D01*
X61281234Y-101301514D01*
X61351089Y-101300089D01*
X61374240Y-101308944D01*
X61532585Y-101388467D01*
X61703190Y-101428902D01*
X61878510Y-101428902D01*
X62049111Y-101388468D01*
X62205789Y-101309782D01*
X62285841Y-101244571D01*
X62285846Y-101244566D01*
X62321180Y-101209231D01*
X62321180Y-101209230D01*
X61365879Y-100253929D01*
X61332394Y-100192606D01*
X61334279Y-100166249D01*
X61985304Y-100166249D01*
X62674732Y-100855678D01*
X62710070Y-100820340D01*
X62710076Y-100820333D01*
X62775285Y-100740284D01*
X62853970Y-100583609D01*
X62894404Y-100413008D01*
X62894404Y-100237687D01*
X62853970Y-100067086D01*
X62775282Y-99910405D01*
X62710083Y-99830369D01*
X62710067Y-99830351D01*
X62515634Y-99635918D01*
X62515633Y-99635918D01*
X61985304Y-100166248D01*
X61985304Y-100166249D01*
X61334279Y-100166249D01*
X61337378Y-100122914D01*
X61365879Y-100078567D01*
X61631751Y-99812696D01*
X62162081Y-99282365D01*
X61967635Y-99087921D01*
X61887588Y-99022714D01*
X61730913Y-98944029D01*
X61560312Y-98903596D01*
X61384992Y-98903596D01*
X61214390Y-98944029D01*
X61057709Y-99022717D01*
X60977673Y-99087916D01*
X60977655Y-99087932D01*
X60553431Y-99512157D01*
X60553425Y-99512164D01*
X60488216Y-99592213D01*
X60409531Y-99748888D01*
X60369098Y-99919489D01*
X60369098Y-100094810D01*
X60409531Y-100265411D01*
X60489056Y-100423759D01*
X60501552Y-100492502D01*
X60474899Y-100557089D01*
X60417559Y-100597013D01*
X60347737Y-100599599D01*
X60324444Y-100591130D01*
X60263438Y-100561751D01*
X60129150Y-100541510D01*
X59994863Y-100561751D01*
X59994860Y-100561751D01*
X59872511Y-100620671D01*
X59872506Y-100620674D01*
X59848978Y-100640168D01*
X59848951Y-100640192D01*
X59418690Y-101070453D01*
X59418666Y-101070480D01*
X59399172Y-101094008D01*
X59399169Y-101094013D01*
X59340249Y-101216362D01*
X59340249Y-101216365D01*
X59320008Y-101350652D01*
X59340249Y-101484938D01*
X59340249Y-101484941D01*
X59399169Y-101607290D01*
X59399172Y-101607295D01*
X59411741Y-101622465D01*
X59418673Y-101630832D01*
X59418682Y-101630841D01*
X59418690Y-101630850D01*
X59801430Y-102013589D01*
X59834915Y-102074912D01*
X59837749Y-102101270D01*
X59837749Y-102164648D01*
X59818064Y-102231687D01*
X59801430Y-102252329D01*
X58897414Y-103156344D01*
X58897410Y-103156350D01*
X58838102Y-103259073D01*
X58838101Y-103259078D01*
X58807401Y-103373652D01*
X58807401Y-103702221D01*
X58787716Y-103769260D01*
X58734912Y-103815015D01*
X58665754Y-103824959D01*
X58602198Y-103795934D01*
X58584370Y-103776846D01*
X57480512Y-102311978D01*
X56548883Y-101075664D01*
X56526639Y-101055811D01*
X56504396Y-101035957D01*
X56488598Y-101030441D01*
X56431797Y-100989755D01*
X56406009Y-100924818D01*
X56419423Y-100856248D01*
X56465020Y-100807445D01*
X56722278Y-100650904D01*
X56726140Y-100648650D01*
X57683694Y-100113140D01*
X57687594Y-100111052D01*
X58664191Y-99611056D01*
X58668215Y-99609088D01*
X59662484Y-99145308D01*
X59666571Y-99143492D01*
X60677196Y-98716538D01*
X60681352Y-98714872D01*
X61707220Y-98325226D01*
X61710944Y-98323880D01*
X62213934Y-98151117D01*
X62246955Y-98144605D01*
X62374736Y-98137120D01*
X62389346Y-98137127D01*
G37*
%TD.AperFunction*%
%TA.AperFunction,Conductor*%
G36*
X52987508Y-103325509D02*
G01*
X53039366Y-103372333D01*
X53057677Y-103439761D01*
X53036627Y-103506384D01*
X53031489Y-103513002D01*
X53029958Y-103515601D01*
X53003661Y-103590906D01*
X53003661Y-103590908D01*
X53008182Y-103670544D01*
X53034088Y-103724251D01*
X53710698Y-104622143D01*
X55465116Y-106950336D01*
X55465118Y-106950337D01*
X55509604Y-106990042D01*
X55509605Y-106990042D01*
X55515068Y-106994918D01*
X55551977Y-107054243D01*
X55556500Y-107087430D01*
X55556500Y-107309474D01*
X55536815Y-107376513D01*
X55520181Y-107397155D01*
X54440153Y-108477182D01*
X54378830Y-108510667D01*
X54309138Y-108505683D01*
X54253205Y-108463811D01*
X54232799Y-108421973D01*
X54198068Y-108293976D01*
X54122847Y-108171449D01*
X54122843Y-108171443D01*
X54079871Y-108129748D01*
X54079857Y-108129736D01*
X52663156Y-107022888D01*
X52663155Y-107022888D01*
X51721518Y-108228127D01*
X51703751Y-108201537D01*
X51564463Y-108062249D01*
X51400678Y-107952811D01*
X51326210Y-107921965D01*
X52269149Y-106715057D01*
X52269149Y-106715056D01*
X50852446Y-105608206D01*
X50801580Y-105576590D01*
X50801572Y-105576586D01*
X50693698Y-105542479D01*
X50635712Y-105503500D01*
X50608004Y-105439359D01*
X50619372Y-105370420D01*
X50645022Y-105334973D01*
X51425484Y-104582664D01*
X51428786Y-104579595D01*
X52246108Y-103847716D01*
X52249494Y-103844794D01*
X52854432Y-103341875D01*
X52918567Y-103314155D01*
X52987508Y-103325509D01*
G37*
%TD.AperFunction*%
%TD*%
M02*
