%TF.GenerationSoftware,KiCad,Pcbnew,8.0.1*%
%TF.CreationDate,2024-09-30T12:45:28-07:00*%
%TF.ProjectId,rocketBeaconModule,726f636b-6574-4426-9561-636f6e4d6f64,rev?*%
%TF.SameCoordinates,Original*%
%TF.FileFunction,Legend,Top*%
%TF.FilePolarity,Positive*%
%FSLAX46Y46*%
G04 Gerber Fmt 4.6, Leading zero omitted, Abs format (unit mm)*
G04 Created by KiCad (PCBNEW 8.0.1) date 2024-09-30 12:45:28*
%MOMM*%
%LPD*%
G01*
G04 APERTURE LIST*
%ADD10C,0.150000*%
%ADD11C,0.300000*%
%ADD12C,0.120000*%
%ADD13C,0.254000*%
%ADD14C,0.100000*%
%ADD15C,0.127000*%
%ADD16C,0.200000*%
G04 APERTURE END LIST*
D10*
X71435238Y-150472611D02*
X71387619Y-150567849D01*
X71387619Y-150567849D02*
X71387619Y-150710706D01*
X71387619Y-150710706D02*
X71435238Y-150853563D01*
X71435238Y-150853563D02*
X71530476Y-150948801D01*
X71530476Y-150948801D02*
X71625714Y-150996420D01*
X71625714Y-150996420D02*
X71816190Y-151044039D01*
X71816190Y-151044039D02*
X71959047Y-151044039D01*
X71959047Y-151044039D02*
X72149523Y-150996420D01*
X72149523Y-150996420D02*
X72244761Y-150948801D01*
X72244761Y-150948801D02*
X72340000Y-150853563D01*
X72340000Y-150853563D02*
X72387619Y-150710706D01*
X72387619Y-150710706D02*
X72387619Y-150615468D01*
X72387619Y-150615468D02*
X72340000Y-150472611D01*
X72340000Y-150472611D02*
X72292380Y-150424992D01*
X72292380Y-150424992D02*
X71959047Y-150424992D01*
X71959047Y-150424992D02*
X71959047Y-150615468D01*
X72387619Y-149996420D02*
X71387619Y-149996420D01*
X71387619Y-149996420D02*
X72387619Y-149424992D01*
X72387619Y-149424992D02*
X71387619Y-149424992D01*
X72387619Y-148948801D02*
X71387619Y-148948801D01*
X71387619Y-148948801D02*
X71387619Y-148710706D01*
X71387619Y-148710706D02*
X71435238Y-148567849D01*
X71435238Y-148567849D02*
X71530476Y-148472611D01*
X71530476Y-148472611D02*
X71625714Y-148424992D01*
X71625714Y-148424992D02*
X71816190Y-148377373D01*
X71816190Y-148377373D02*
X71959047Y-148377373D01*
X71959047Y-148377373D02*
X72149523Y-148424992D01*
X72149523Y-148424992D02*
X72244761Y-148472611D01*
X72244761Y-148472611D02*
X72340000Y-148567849D01*
X72340000Y-148567849D02*
X72387619Y-148710706D01*
X72387619Y-148710706D02*
X72387619Y-148948801D01*
X69800000Y-151044039D02*
X69847619Y-150901182D01*
X69847619Y-150901182D02*
X69847619Y-150663087D01*
X69847619Y-150663087D02*
X69800000Y-150567849D01*
X69800000Y-150567849D02*
X69752380Y-150520230D01*
X69752380Y-150520230D02*
X69657142Y-150472611D01*
X69657142Y-150472611D02*
X69561904Y-150472611D01*
X69561904Y-150472611D02*
X69466666Y-150520230D01*
X69466666Y-150520230D02*
X69419047Y-150567849D01*
X69419047Y-150567849D02*
X69371428Y-150663087D01*
X69371428Y-150663087D02*
X69323809Y-150853563D01*
X69323809Y-150853563D02*
X69276190Y-150948801D01*
X69276190Y-150948801D02*
X69228571Y-150996420D01*
X69228571Y-150996420D02*
X69133333Y-151044039D01*
X69133333Y-151044039D02*
X69038095Y-151044039D01*
X69038095Y-151044039D02*
X68942857Y-150996420D01*
X68942857Y-150996420D02*
X68895238Y-150948801D01*
X68895238Y-150948801D02*
X68847619Y-150853563D01*
X68847619Y-150853563D02*
X68847619Y-150615468D01*
X68847619Y-150615468D02*
X68895238Y-150472611D01*
X68847619Y-150139277D02*
X69847619Y-149901182D01*
X69847619Y-149901182D02*
X69133333Y-149710706D01*
X69133333Y-149710706D02*
X69847619Y-149520230D01*
X69847619Y-149520230D02*
X68847619Y-149282135D01*
X69752380Y-148329754D02*
X69800000Y-148377373D01*
X69800000Y-148377373D02*
X69847619Y-148520230D01*
X69847619Y-148520230D02*
X69847619Y-148615468D01*
X69847619Y-148615468D02*
X69800000Y-148758325D01*
X69800000Y-148758325D02*
X69704761Y-148853563D01*
X69704761Y-148853563D02*
X69609523Y-148901182D01*
X69609523Y-148901182D02*
X69419047Y-148948801D01*
X69419047Y-148948801D02*
X69276190Y-148948801D01*
X69276190Y-148948801D02*
X69085714Y-148901182D01*
X69085714Y-148901182D02*
X68990476Y-148853563D01*
X68990476Y-148853563D02*
X68895238Y-148758325D01*
X68895238Y-148758325D02*
X68847619Y-148615468D01*
X68847619Y-148615468D02*
X68847619Y-148520230D01*
X68847619Y-148520230D02*
X68895238Y-148377373D01*
X68895238Y-148377373D02*
X68942857Y-148329754D01*
X69847619Y-147424992D02*
X69847619Y-147901182D01*
X69847619Y-147901182D02*
X68847619Y-147901182D01*
X69847619Y-147091658D02*
X68847619Y-147091658D01*
X69847619Y-146520230D02*
X69276190Y-146948801D01*
X68847619Y-146520230D02*
X69419047Y-147091658D01*
X90279281Y-106299790D02*
X90174915Y-106320901D01*
X90174915Y-106320901D02*
X90062342Y-106408852D01*
X90062342Y-106408852D02*
X89979086Y-106534328D01*
X89979086Y-106534328D02*
X89962672Y-106668011D01*
X89962672Y-106668011D02*
X89983782Y-106772377D01*
X89983782Y-106772377D02*
X90063527Y-106951792D01*
X90063527Y-106951792D02*
X90151479Y-107064365D01*
X90151479Y-107064365D02*
X90306272Y-107185145D01*
X90306272Y-107185145D02*
X90402430Y-107230876D01*
X90402430Y-107230876D02*
X90536114Y-107247290D01*
X90536114Y-107247290D02*
X90678004Y-107196863D01*
X90678004Y-107196863D02*
X90753052Y-107138229D01*
X90753052Y-107138229D02*
X90836308Y-107012753D01*
X90836308Y-107012753D02*
X90844515Y-106945911D01*
X90844515Y-106945911D02*
X90639295Y-106683241D01*
X90639295Y-106683241D02*
X90489197Y-106800510D01*
X91240869Y-106757105D02*
X90625207Y-105969094D01*
X90625207Y-105969094D02*
X91691160Y-106405298D01*
X91691160Y-106405298D02*
X91075499Y-105617287D01*
X92066404Y-106112126D02*
X91450742Y-105324115D01*
X91450742Y-105324115D02*
X91638364Y-105177529D01*
X91638364Y-105177529D02*
X91780254Y-105127102D01*
X91780254Y-105127102D02*
X91913937Y-105143516D01*
X91913937Y-105143516D02*
X92010096Y-105189248D01*
X92010096Y-105189248D02*
X92164889Y-105310028D01*
X92164889Y-105310028D02*
X92252841Y-105422601D01*
X92252841Y-105422601D02*
X92332585Y-105602015D01*
X92332585Y-105602015D02*
X92353695Y-105706381D01*
X92353695Y-105706381D02*
X92337281Y-105840064D01*
X92337281Y-105840064D02*
X92254025Y-105965540D01*
X92254025Y-105965540D02*
X92066404Y-106112126D01*
X95299352Y-117599619D02*
X94823162Y-117599619D01*
X94823162Y-117599619D02*
X94823162Y-116599619D01*
X95632686Y-117075809D02*
X95966019Y-117075809D01*
X96108876Y-117599619D02*
X95632686Y-117599619D01*
X95632686Y-117599619D02*
X95632686Y-116599619D01*
X95632686Y-116599619D02*
X96108876Y-116599619D01*
X96537448Y-117599619D02*
X96537448Y-116599619D01*
X96537448Y-116599619D02*
X96775543Y-116599619D01*
X96775543Y-116599619D02*
X96918400Y-116647238D01*
X96918400Y-116647238D02*
X97013638Y-116742476D01*
X97013638Y-116742476D02*
X97061257Y-116837714D01*
X97061257Y-116837714D02*
X97108876Y-117028190D01*
X97108876Y-117028190D02*
X97108876Y-117171047D01*
X97108876Y-117171047D02*
X97061257Y-117361523D01*
X97061257Y-117361523D02*
X97013638Y-117456761D01*
X97013638Y-117456761D02*
X96918400Y-117552000D01*
X96918400Y-117552000D02*
X96775543Y-117599619D01*
X96775543Y-117599619D02*
X96537448Y-117599619D01*
X98061257Y-117599619D02*
X97489829Y-117599619D01*
X97775543Y-117599619D02*
X97775543Y-116599619D01*
X97775543Y-116599619D02*
X97680305Y-116742476D01*
X97680305Y-116742476D02*
X97585067Y-116837714D01*
X97585067Y-116837714D02*
X97489829Y-116885333D01*
X77569219Y-150996420D02*
X76569219Y-150996420D01*
X76569219Y-150996420D02*
X77569219Y-150424992D01*
X77569219Y-150424992D02*
X76569219Y-150424992D01*
X77569219Y-149377373D02*
X77093028Y-149710706D01*
X77569219Y-149948801D02*
X76569219Y-149948801D01*
X76569219Y-149948801D02*
X76569219Y-149567849D01*
X76569219Y-149567849D02*
X76616838Y-149472611D01*
X76616838Y-149472611D02*
X76664457Y-149424992D01*
X76664457Y-149424992D02*
X76759695Y-149377373D01*
X76759695Y-149377373D02*
X76902552Y-149377373D01*
X76902552Y-149377373D02*
X76997790Y-149424992D01*
X76997790Y-149424992D02*
X77045409Y-149472611D01*
X77045409Y-149472611D02*
X77093028Y-149567849D01*
X77093028Y-149567849D02*
X77093028Y-149948801D01*
X77521600Y-148996420D02*
X77569219Y-148853563D01*
X77569219Y-148853563D02*
X77569219Y-148615468D01*
X77569219Y-148615468D02*
X77521600Y-148520230D01*
X77521600Y-148520230D02*
X77473980Y-148472611D01*
X77473980Y-148472611D02*
X77378742Y-148424992D01*
X77378742Y-148424992D02*
X77283504Y-148424992D01*
X77283504Y-148424992D02*
X77188266Y-148472611D01*
X77188266Y-148472611D02*
X77140647Y-148520230D01*
X77140647Y-148520230D02*
X77093028Y-148615468D01*
X77093028Y-148615468D02*
X77045409Y-148805944D01*
X77045409Y-148805944D02*
X76997790Y-148901182D01*
X76997790Y-148901182D02*
X76950171Y-148948801D01*
X76950171Y-148948801D02*
X76854933Y-148996420D01*
X76854933Y-148996420D02*
X76759695Y-148996420D01*
X76759695Y-148996420D02*
X76664457Y-148948801D01*
X76664457Y-148948801D02*
X76616838Y-148901182D01*
X76616838Y-148901182D02*
X76569219Y-148805944D01*
X76569219Y-148805944D02*
X76569219Y-148567849D01*
X76569219Y-148567849D02*
X76616838Y-148424992D01*
X76569219Y-148139277D02*
X76569219Y-147567849D01*
X77569219Y-147853563D02*
X76569219Y-147853563D01*
X48772051Y-118406510D02*
X48548916Y-119184674D01*
X48548916Y-119184674D02*
X48568439Y-119289348D01*
X48568439Y-119289348D02*
X48601088Y-119348248D01*
X48601088Y-119348248D02*
X48679511Y-119420274D01*
X48679511Y-119420274D02*
X48862609Y-119472776D01*
X48862609Y-119472776D02*
X48967283Y-119453253D01*
X48967283Y-119453253D02*
X49026183Y-119420604D01*
X49026183Y-119420604D02*
X49098208Y-119342181D01*
X49098208Y-119342181D02*
X49321343Y-118564017D01*
X49470801Y-119597635D02*
X49594998Y-119682786D01*
X49594998Y-119682786D02*
X49823870Y-119748414D01*
X49823870Y-119748414D02*
X49928545Y-119728890D01*
X49928545Y-119728890D02*
X49987445Y-119696242D01*
X49987445Y-119696242D02*
X50059470Y-119617818D01*
X50059470Y-119617818D02*
X50085721Y-119526270D01*
X50085721Y-119526270D02*
X50066198Y-119421595D01*
X50066198Y-119421595D02*
X50033549Y-119362695D01*
X50033549Y-119362695D02*
X49955126Y-119290670D01*
X49955126Y-119290670D02*
X49785154Y-119192393D01*
X49785154Y-119192393D02*
X49706731Y-119120368D01*
X49706731Y-119120368D02*
X49674082Y-119061468D01*
X49674082Y-119061468D02*
X49654559Y-118956793D01*
X49654559Y-118956793D02*
X49680810Y-118865245D01*
X49680810Y-118865245D02*
X49752836Y-118786822D01*
X49752836Y-118786822D02*
X49811736Y-118754173D01*
X49811736Y-118754173D02*
X49916410Y-118734650D01*
X49916410Y-118734650D02*
X50145282Y-118800277D01*
X50145282Y-118800277D02*
X50269479Y-118885429D01*
X50883739Y-119507407D02*
X51007937Y-119592558D01*
X51007937Y-119592558D02*
X51040585Y-119651458D01*
X51040585Y-119651458D02*
X51060109Y-119756133D01*
X51060109Y-119756133D02*
X51020732Y-119893456D01*
X51020732Y-119893456D02*
X50948706Y-119971879D01*
X50948706Y-119971879D02*
X50889806Y-120004528D01*
X50889806Y-120004528D02*
X50785132Y-120024051D01*
X50785132Y-120024051D02*
X50418937Y-119919046D01*
X50418937Y-119919046D02*
X50694574Y-118957785D01*
X50694574Y-118957785D02*
X51014995Y-119049664D01*
X51014995Y-119049664D02*
X51093418Y-119121689D01*
X51093418Y-119121689D02*
X51126067Y-119180589D01*
X51126067Y-119180589D02*
X51145590Y-119285263D01*
X51145590Y-119285263D02*
X51119339Y-119376812D01*
X51119339Y-119376812D02*
X51047313Y-119455235D01*
X51047313Y-119455235D02*
X50988413Y-119487884D01*
X50988413Y-119487884D02*
X50883739Y-119507407D01*
X50883739Y-119507407D02*
X50563319Y-119415528D01*
X80219752Y-120765219D02*
X80029276Y-120765219D01*
X80029276Y-120765219D02*
X79934038Y-120812838D01*
X79934038Y-120812838D02*
X79886419Y-120860457D01*
X79886419Y-120860457D02*
X79791181Y-121003314D01*
X79791181Y-121003314D02*
X79743562Y-121193790D01*
X79743562Y-121193790D02*
X79743562Y-121574742D01*
X79743562Y-121574742D02*
X79791181Y-121669980D01*
X79791181Y-121669980D02*
X79838800Y-121717600D01*
X79838800Y-121717600D02*
X79934038Y-121765219D01*
X79934038Y-121765219D02*
X80124514Y-121765219D01*
X80124514Y-121765219D02*
X80219752Y-121717600D01*
X80219752Y-121717600D02*
X80267371Y-121669980D01*
X80267371Y-121669980D02*
X80314990Y-121574742D01*
X80314990Y-121574742D02*
X80314990Y-121336647D01*
X80314990Y-121336647D02*
X80267371Y-121241409D01*
X80267371Y-121241409D02*
X80219752Y-121193790D01*
X80219752Y-121193790D02*
X80124514Y-121146171D01*
X80124514Y-121146171D02*
X79934038Y-121146171D01*
X79934038Y-121146171D02*
X79838800Y-121193790D01*
X79838800Y-121193790D02*
X79791181Y-121241409D01*
X79791181Y-121241409D02*
X79743562Y-121336647D01*
X80934038Y-120765219D02*
X81029276Y-120765219D01*
X81029276Y-120765219D02*
X81124514Y-120812838D01*
X81124514Y-120812838D02*
X81172133Y-120860457D01*
X81172133Y-120860457D02*
X81219752Y-120955695D01*
X81219752Y-120955695D02*
X81267371Y-121146171D01*
X81267371Y-121146171D02*
X81267371Y-121384266D01*
X81267371Y-121384266D02*
X81219752Y-121574742D01*
X81219752Y-121574742D02*
X81172133Y-121669980D01*
X81172133Y-121669980D02*
X81124514Y-121717600D01*
X81124514Y-121717600D02*
X81029276Y-121765219D01*
X81029276Y-121765219D02*
X80934038Y-121765219D01*
X80934038Y-121765219D02*
X80838800Y-121717600D01*
X80838800Y-121717600D02*
X80791181Y-121669980D01*
X80791181Y-121669980D02*
X80743562Y-121574742D01*
X80743562Y-121574742D02*
X80695943Y-121384266D01*
X80695943Y-121384266D02*
X80695943Y-121146171D01*
X80695943Y-121146171D02*
X80743562Y-120955695D01*
X80743562Y-120955695D02*
X80791181Y-120860457D01*
X80791181Y-120860457D02*
X80838800Y-120812838D01*
X80838800Y-120812838D02*
X80934038Y-120765219D01*
X81695943Y-121765219D02*
X81695943Y-121098552D01*
X81695943Y-121193790D02*
X81743562Y-121146171D01*
X81743562Y-121146171D02*
X81838800Y-121098552D01*
X81838800Y-121098552D02*
X81981657Y-121098552D01*
X81981657Y-121098552D02*
X82076895Y-121146171D01*
X82076895Y-121146171D02*
X82124514Y-121241409D01*
X82124514Y-121241409D02*
X82124514Y-121765219D01*
X82124514Y-121241409D02*
X82172133Y-121146171D01*
X82172133Y-121146171D02*
X82267371Y-121098552D01*
X82267371Y-121098552D02*
X82410228Y-121098552D01*
X82410228Y-121098552D02*
X82505467Y-121146171D01*
X82505467Y-121146171D02*
X82553086Y-121241409D01*
X82553086Y-121241409D02*
X82553086Y-121765219D01*
X83029276Y-121765219D02*
X83029276Y-121098552D01*
X83029276Y-121193790D02*
X83076895Y-121146171D01*
X83076895Y-121146171D02*
X83172133Y-121098552D01*
X83172133Y-121098552D02*
X83314990Y-121098552D01*
X83314990Y-121098552D02*
X83410228Y-121146171D01*
X83410228Y-121146171D02*
X83457847Y-121241409D01*
X83457847Y-121241409D02*
X83457847Y-121765219D01*
X83457847Y-121241409D02*
X83505466Y-121146171D01*
X83505466Y-121146171D02*
X83600704Y-121098552D01*
X83600704Y-121098552D02*
X83743561Y-121098552D01*
X83743561Y-121098552D02*
X83838800Y-121146171D01*
X83838800Y-121146171D02*
X83886419Y-121241409D01*
X83886419Y-121241409D02*
X83886419Y-121765219D01*
X68301061Y-109318512D02*
X68272490Y-109375655D01*
X68272490Y-109375655D02*
X68272490Y-109461369D01*
X68272490Y-109461369D02*
X68301061Y-109547083D01*
X68301061Y-109547083D02*
X68358204Y-109604226D01*
X68358204Y-109604226D02*
X68415347Y-109632797D01*
X68415347Y-109632797D02*
X68529633Y-109661369D01*
X68529633Y-109661369D02*
X68615347Y-109661369D01*
X68615347Y-109661369D02*
X68729633Y-109632797D01*
X68729633Y-109632797D02*
X68786776Y-109604226D01*
X68786776Y-109604226D02*
X68843919Y-109547083D01*
X68843919Y-109547083D02*
X68872490Y-109461369D01*
X68872490Y-109461369D02*
X68872490Y-109404226D01*
X68872490Y-109404226D02*
X68843919Y-109318512D01*
X68843919Y-109318512D02*
X68815347Y-109289940D01*
X68815347Y-109289940D02*
X68615347Y-109289940D01*
X68615347Y-109289940D02*
X68615347Y-109404226D01*
X68872490Y-109032797D02*
X68272490Y-109032797D01*
X68272490Y-109032797D02*
X68872490Y-108689940D01*
X68872490Y-108689940D02*
X68272490Y-108689940D01*
X68872490Y-108404226D02*
X68272490Y-108404226D01*
X68272490Y-108404226D02*
X68272490Y-108261369D01*
X68272490Y-108261369D02*
X68301061Y-108175655D01*
X68301061Y-108175655D02*
X68358204Y-108118512D01*
X68358204Y-108118512D02*
X68415347Y-108089941D01*
X68415347Y-108089941D02*
X68529633Y-108061369D01*
X68529633Y-108061369D02*
X68615347Y-108061369D01*
X68615347Y-108061369D02*
X68729633Y-108089941D01*
X68729633Y-108089941D02*
X68786776Y-108118512D01*
X68786776Y-108118512D02*
X68843919Y-108175655D01*
X68843919Y-108175655D02*
X68872490Y-108261369D01*
X68872490Y-108261369D02*
X68872490Y-108404226D01*
X69838456Y-109089941D02*
X69552742Y-109289941D01*
X69838456Y-109432798D02*
X69238456Y-109432798D01*
X69238456Y-109432798D02*
X69238456Y-109204227D01*
X69238456Y-109204227D02*
X69267027Y-109147084D01*
X69267027Y-109147084D02*
X69295599Y-109118513D01*
X69295599Y-109118513D02*
X69352742Y-109089941D01*
X69352742Y-109089941D02*
X69438456Y-109089941D01*
X69438456Y-109089941D02*
X69495599Y-109118513D01*
X69495599Y-109118513D02*
X69524170Y-109147084D01*
X69524170Y-109147084D02*
X69552742Y-109204227D01*
X69552742Y-109204227D02*
X69552742Y-109432798D01*
X69809885Y-108861370D02*
X69838456Y-108775656D01*
X69838456Y-108775656D02*
X69838456Y-108632798D01*
X69838456Y-108632798D02*
X69809885Y-108575656D01*
X69809885Y-108575656D02*
X69781313Y-108547084D01*
X69781313Y-108547084D02*
X69724170Y-108518513D01*
X69724170Y-108518513D02*
X69667027Y-108518513D01*
X69667027Y-108518513D02*
X69609885Y-108547084D01*
X69609885Y-108547084D02*
X69581313Y-108575656D01*
X69581313Y-108575656D02*
X69552742Y-108632798D01*
X69552742Y-108632798D02*
X69524170Y-108747084D01*
X69524170Y-108747084D02*
X69495599Y-108804227D01*
X69495599Y-108804227D02*
X69467027Y-108832798D01*
X69467027Y-108832798D02*
X69409885Y-108861370D01*
X69409885Y-108861370D02*
X69352742Y-108861370D01*
X69352742Y-108861370D02*
X69295599Y-108832798D01*
X69295599Y-108832798D02*
X69267027Y-108804227D01*
X69267027Y-108804227D02*
X69238456Y-108747084D01*
X69238456Y-108747084D02*
X69238456Y-108604227D01*
X69238456Y-108604227D02*
X69267027Y-108518513D01*
X69238456Y-108347084D02*
X69238456Y-108004227D01*
X69838456Y-108175655D02*
X69238456Y-108175655D01*
X70804422Y-108632798D02*
X70518708Y-108832798D01*
X70804422Y-108975655D02*
X70204422Y-108975655D01*
X70204422Y-108975655D02*
X70204422Y-108747084D01*
X70204422Y-108747084D02*
X70232993Y-108689941D01*
X70232993Y-108689941D02*
X70261565Y-108661370D01*
X70261565Y-108661370D02*
X70318708Y-108632798D01*
X70318708Y-108632798D02*
X70404422Y-108632798D01*
X70404422Y-108632798D02*
X70461565Y-108661370D01*
X70461565Y-108661370D02*
X70490136Y-108689941D01*
X70490136Y-108689941D02*
X70518708Y-108747084D01*
X70518708Y-108747084D02*
X70518708Y-108975655D01*
X70204422Y-108432798D02*
X70804422Y-108032798D01*
X70204422Y-108032798D02*
X70804422Y-108432798D01*
X71170388Y-108918513D02*
X71170388Y-108575656D01*
X71770388Y-108747084D02*
X71170388Y-108747084D01*
X71170388Y-108432798D02*
X71770388Y-108032798D01*
X71170388Y-108032798D02*
X71770388Y-108432798D01*
X72707783Y-108975656D02*
X72736354Y-108889942D01*
X72736354Y-108889942D02*
X72736354Y-108747084D01*
X72736354Y-108747084D02*
X72707783Y-108689942D01*
X72707783Y-108689942D02*
X72679211Y-108661370D01*
X72679211Y-108661370D02*
X72622068Y-108632799D01*
X72622068Y-108632799D02*
X72564925Y-108632799D01*
X72564925Y-108632799D02*
X72507783Y-108661370D01*
X72507783Y-108661370D02*
X72479211Y-108689942D01*
X72479211Y-108689942D02*
X72450640Y-108747084D01*
X72450640Y-108747084D02*
X72422068Y-108861370D01*
X72422068Y-108861370D02*
X72393497Y-108918513D01*
X72393497Y-108918513D02*
X72364925Y-108947084D01*
X72364925Y-108947084D02*
X72307783Y-108975656D01*
X72307783Y-108975656D02*
X72250640Y-108975656D01*
X72250640Y-108975656D02*
X72193497Y-108947084D01*
X72193497Y-108947084D02*
X72164925Y-108918513D01*
X72164925Y-108918513D02*
X72136354Y-108861370D01*
X72136354Y-108861370D02*
X72136354Y-108718513D01*
X72136354Y-108718513D02*
X72164925Y-108632799D01*
X72193497Y-108404227D02*
X72164925Y-108375655D01*
X72164925Y-108375655D02*
X72136354Y-108318513D01*
X72136354Y-108318513D02*
X72136354Y-108175655D01*
X72136354Y-108175655D02*
X72164925Y-108118513D01*
X72164925Y-108118513D02*
X72193497Y-108089941D01*
X72193497Y-108089941D02*
X72250640Y-108061370D01*
X72250640Y-108061370D02*
X72307783Y-108061370D01*
X72307783Y-108061370D02*
X72393497Y-108089941D01*
X72393497Y-108089941D02*
X72736354Y-108432798D01*
X72736354Y-108432798D02*
X72736354Y-108061370D01*
X73673749Y-108975656D02*
X73702320Y-108889942D01*
X73702320Y-108889942D02*
X73702320Y-108747084D01*
X73702320Y-108747084D02*
X73673749Y-108689942D01*
X73673749Y-108689942D02*
X73645177Y-108661370D01*
X73645177Y-108661370D02*
X73588034Y-108632799D01*
X73588034Y-108632799D02*
X73530891Y-108632799D01*
X73530891Y-108632799D02*
X73473749Y-108661370D01*
X73473749Y-108661370D02*
X73445177Y-108689942D01*
X73445177Y-108689942D02*
X73416606Y-108747084D01*
X73416606Y-108747084D02*
X73388034Y-108861370D01*
X73388034Y-108861370D02*
X73359463Y-108918513D01*
X73359463Y-108918513D02*
X73330891Y-108947084D01*
X73330891Y-108947084D02*
X73273749Y-108975656D01*
X73273749Y-108975656D02*
X73216606Y-108975656D01*
X73216606Y-108975656D02*
X73159463Y-108947084D01*
X73159463Y-108947084D02*
X73130891Y-108918513D01*
X73130891Y-108918513D02*
X73102320Y-108861370D01*
X73102320Y-108861370D02*
X73102320Y-108718513D01*
X73102320Y-108718513D02*
X73130891Y-108632799D01*
X73702320Y-108061370D02*
X73702320Y-108404227D01*
X73702320Y-108232798D02*
X73102320Y-108232798D01*
X73102320Y-108232798D02*
X73188034Y-108289941D01*
X73188034Y-108289941D02*
X73245177Y-108347084D01*
X73245177Y-108347084D02*
X73273749Y-108404227D01*
X74068286Y-109518513D02*
X74068286Y-109147085D01*
X74068286Y-109147085D02*
X74296857Y-109347085D01*
X74296857Y-109347085D02*
X74296857Y-109261370D01*
X74296857Y-109261370D02*
X74325429Y-109204228D01*
X74325429Y-109204228D02*
X74354000Y-109175656D01*
X74354000Y-109175656D02*
X74411143Y-109147085D01*
X74411143Y-109147085D02*
X74554000Y-109147085D01*
X74554000Y-109147085D02*
X74611143Y-109175656D01*
X74611143Y-109175656D02*
X74639715Y-109204228D01*
X74639715Y-109204228D02*
X74668286Y-109261370D01*
X74668286Y-109261370D02*
X74668286Y-109432799D01*
X74668286Y-109432799D02*
X74639715Y-109489942D01*
X74639715Y-109489942D02*
X74611143Y-109518513D01*
X74068286Y-108975656D02*
X74668286Y-108775656D01*
X74668286Y-108775656D02*
X74068286Y-108575656D01*
X74068286Y-108432798D02*
X74068286Y-108061370D01*
X74068286Y-108061370D02*
X74296857Y-108261370D01*
X74296857Y-108261370D02*
X74296857Y-108175655D01*
X74296857Y-108175655D02*
X74325429Y-108118513D01*
X74325429Y-108118513D02*
X74354000Y-108089941D01*
X74354000Y-108089941D02*
X74411143Y-108061370D01*
X74411143Y-108061370D02*
X74554000Y-108061370D01*
X74554000Y-108061370D02*
X74611143Y-108089941D01*
X74611143Y-108089941D02*
X74639715Y-108118513D01*
X74639715Y-108118513D02*
X74668286Y-108175655D01*
X74668286Y-108175655D02*
X74668286Y-108347084D01*
X74668286Y-108347084D02*
X74639715Y-108404227D01*
X74639715Y-108404227D02*
X74611143Y-108432798D01*
X75034252Y-108604227D02*
X75034252Y-108889941D01*
X75034252Y-108889941D02*
X75319966Y-108918513D01*
X75319966Y-108918513D02*
X75291395Y-108889941D01*
X75291395Y-108889941D02*
X75262823Y-108832799D01*
X75262823Y-108832799D02*
X75262823Y-108689941D01*
X75262823Y-108689941D02*
X75291395Y-108632799D01*
X75291395Y-108632799D02*
X75319966Y-108604227D01*
X75319966Y-108604227D02*
X75377109Y-108575656D01*
X75377109Y-108575656D02*
X75519966Y-108575656D01*
X75519966Y-108575656D02*
X75577109Y-108604227D01*
X75577109Y-108604227D02*
X75605681Y-108632799D01*
X75605681Y-108632799D02*
X75634252Y-108689941D01*
X75634252Y-108689941D02*
X75634252Y-108832799D01*
X75634252Y-108832799D02*
X75605681Y-108889941D01*
X75605681Y-108889941D02*
X75577109Y-108918513D01*
X75034252Y-108404227D02*
X75634252Y-108204227D01*
X75634252Y-108204227D02*
X75034252Y-108004227D01*
X57630085Y-121479504D02*
X58106275Y-121479504D01*
X57534847Y-121765219D02*
X57868180Y-120765219D01*
X57868180Y-120765219D02*
X58201513Y-121765219D01*
X58534847Y-121765219D02*
X58534847Y-121098552D01*
X58534847Y-121289028D02*
X58582466Y-121193790D01*
X58582466Y-121193790D02*
X58630085Y-121146171D01*
X58630085Y-121146171D02*
X58725323Y-121098552D01*
X58725323Y-121098552D02*
X58820561Y-121098552D01*
X59153895Y-121765219D02*
X59153895Y-121098552D01*
X59153895Y-121193790D02*
X59201514Y-121146171D01*
X59201514Y-121146171D02*
X59296752Y-121098552D01*
X59296752Y-121098552D02*
X59439609Y-121098552D01*
X59439609Y-121098552D02*
X59534847Y-121146171D01*
X59534847Y-121146171D02*
X59582466Y-121241409D01*
X59582466Y-121241409D02*
X59582466Y-121765219D01*
X59582466Y-121241409D02*
X59630085Y-121146171D01*
X59630085Y-121146171D02*
X59725323Y-121098552D01*
X59725323Y-121098552D02*
X59868180Y-121098552D01*
X59868180Y-121098552D02*
X59963419Y-121146171D01*
X59963419Y-121146171D02*
X60011038Y-121241409D01*
X60011038Y-121241409D02*
X60011038Y-121765219D01*
X60439609Y-121717600D02*
X60534847Y-121765219D01*
X60534847Y-121765219D02*
X60725323Y-121765219D01*
X60725323Y-121765219D02*
X60820561Y-121717600D01*
X60820561Y-121717600D02*
X60868180Y-121622361D01*
X60868180Y-121622361D02*
X60868180Y-121574742D01*
X60868180Y-121574742D02*
X60820561Y-121479504D01*
X60820561Y-121479504D02*
X60725323Y-121431885D01*
X60725323Y-121431885D02*
X60582466Y-121431885D01*
X60582466Y-121431885D02*
X60487228Y-121384266D01*
X60487228Y-121384266D02*
X60439609Y-121289028D01*
X60439609Y-121289028D02*
X60439609Y-121241409D01*
X60439609Y-121241409D02*
X60487228Y-121146171D01*
X60487228Y-121146171D02*
X60582466Y-121098552D01*
X60582466Y-121098552D02*
X60725323Y-121098552D01*
X60725323Y-121098552D02*
X60820561Y-121146171D01*
X61153895Y-121098552D02*
X61534847Y-121098552D01*
X61296752Y-120765219D02*
X61296752Y-121622361D01*
X61296752Y-121622361D02*
X61344371Y-121717600D01*
X61344371Y-121717600D02*
X61439609Y-121765219D01*
X61439609Y-121765219D02*
X61534847Y-121765219D01*
X61868181Y-121765219D02*
X61868181Y-121098552D01*
X61868181Y-121289028D02*
X61915800Y-121193790D01*
X61915800Y-121193790D02*
X61963419Y-121146171D01*
X61963419Y-121146171D02*
X62058657Y-121098552D01*
X62058657Y-121098552D02*
X62153895Y-121098552D01*
X62630086Y-121765219D02*
X62534848Y-121717600D01*
X62534848Y-121717600D02*
X62487229Y-121669980D01*
X62487229Y-121669980D02*
X62439610Y-121574742D01*
X62439610Y-121574742D02*
X62439610Y-121289028D01*
X62439610Y-121289028D02*
X62487229Y-121193790D01*
X62487229Y-121193790D02*
X62534848Y-121146171D01*
X62534848Y-121146171D02*
X62630086Y-121098552D01*
X62630086Y-121098552D02*
X62772943Y-121098552D01*
X62772943Y-121098552D02*
X62868181Y-121146171D01*
X62868181Y-121146171D02*
X62915800Y-121193790D01*
X62915800Y-121193790D02*
X62963419Y-121289028D01*
X62963419Y-121289028D02*
X62963419Y-121574742D01*
X62963419Y-121574742D02*
X62915800Y-121669980D01*
X62915800Y-121669980D02*
X62868181Y-121717600D01*
X62868181Y-121717600D02*
X62772943Y-121765219D01*
X62772943Y-121765219D02*
X62630086Y-121765219D01*
X63391991Y-121098552D02*
X63391991Y-121765219D01*
X63391991Y-121193790D02*
X63439610Y-121146171D01*
X63439610Y-121146171D02*
X63534848Y-121098552D01*
X63534848Y-121098552D02*
X63677705Y-121098552D01*
X63677705Y-121098552D02*
X63772943Y-121146171D01*
X63772943Y-121146171D02*
X63820562Y-121241409D01*
X63820562Y-121241409D02*
X63820562Y-121765219D01*
X64725324Y-121098552D02*
X64725324Y-121908076D01*
X64725324Y-121908076D02*
X64677705Y-122003314D01*
X64677705Y-122003314D02*
X64630086Y-122050933D01*
X64630086Y-122050933D02*
X64534848Y-122098552D01*
X64534848Y-122098552D02*
X64391991Y-122098552D01*
X64391991Y-122098552D02*
X64296753Y-122050933D01*
X64725324Y-121717600D02*
X64630086Y-121765219D01*
X64630086Y-121765219D02*
X64439610Y-121765219D01*
X64439610Y-121765219D02*
X64344372Y-121717600D01*
X64344372Y-121717600D02*
X64296753Y-121669980D01*
X64296753Y-121669980D02*
X64249134Y-121574742D01*
X64249134Y-121574742D02*
X64249134Y-121289028D01*
X64249134Y-121289028D02*
X64296753Y-121193790D01*
X64296753Y-121193790D02*
X64344372Y-121146171D01*
X64344372Y-121146171D02*
X64439610Y-121098552D01*
X64439610Y-121098552D02*
X64630086Y-121098552D01*
X64630086Y-121098552D02*
X64725324Y-121146171D01*
X65677705Y-121765219D02*
X65201515Y-121765219D01*
X65201515Y-121765219D02*
X65201515Y-120765219D01*
X66439610Y-121765219D02*
X66439610Y-121241409D01*
X66439610Y-121241409D02*
X66391991Y-121146171D01*
X66391991Y-121146171D02*
X66296753Y-121098552D01*
X66296753Y-121098552D02*
X66106277Y-121098552D01*
X66106277Y-121098552D02*
X66011039Y-121146171D01*
X66439610Y-121717600D02*
X66344372Y-121765219D01*
X66344372Y-121765219D02*
X66106277Y-121765219D01*
X66106277Y-121765219D02*
X66011039Y-121717600D01*
X66011039Y-121717600D02*
X65963420Y-121622361D01*
X65963420Y-121622361D02*
X65963420Y-121527123D01*
X65963420Y-121527123D02*
X66011039Y-121431885D01*
X66011039Y-121431885D02*
X66106277Y-121384266D01*
X66106277Y-121384266D02*
X66344372Y-121384266D01*
X66344372Y-121384266D02*
X66439610Y-121336647D01*
X66915801Y-121765219D02*
X66915801Y-120765219D01*
X66915801Y-121146171D02*
X67011039Y-121098552D01*
X67011039Y-121098552D02*
X67201515Y-121098552D01*
X67201515Y-121098552D02*
X67296753Y-121146171D01*
X67296753Y-121146171D02*
X67344372Y-121193790D01*
X67344372Y-121193790D02*
X67391991Y-121289028D01*
X67391991Y-121289028D02*
X67391991Y-121574742D01*
X67391991Y-121574742D02*
X67344372Y-121669980D01*
X67344372Y-121669980D02*
X67296753Y-121717600D01*
X67296753Y-121717600D02*
X67201515Y-121765219D01*
X67201515Y-121765219D02*
X67011039Y-121765219D01*
X67011039Y-121765219D02*
X66915801Y-121717600D01*
X67772944Y-121717600D02*
X67868182Y-121765219D01*
X67868182Y-121765219D02*
X68058658Y-121765219D01*
X68058658Y-121765219D02*
X68153896Y-121717600D01*
X68153896Y-121717600D02*
X68201515Y-121622361D01*
X68201515Y-121622361D02*
X68201515Y-121574742D01*
X68201515Y-121574742D02*
X68153896Y-121479504D01*
X68153896Y-121479504D02*
X68058658Y-121431885D01*
X68058658Y-121431885D02*
X67915801Y-121431885D01*
X67915801Y-121431885D02*
X67820563Y-121384266D01*
X67820563Y-121384266D02*
X67772944Y-121289028D01*
X67772944Y-121289028D02*
X67772944Y-121241409D01*
X67772944Y-121241409D02*
X67820563Y-121146171D01*
X67820563Y-121146171D02*
X67915801Y-121098552D01*
X67915801Y-121098552D02*
X68058658Y-121098552D01*
X68058658Y-121098552D02*
X68153896Y-121146171D01*
X95339067Y-120698419D02*
X95339067Y-119698419D01*
X95339067Y-119698419D02*
X95720019Y-119698419D01*
X95720019Y-119698419D02*
X95815257Y-119746038D01*
X95815257Y-119746038D02*
X95862876Y-119793657D01*
X95862876Y-119793657D02*
X95910495Y-119888895D01*
X95910495Y-119888895D02*
X95910495Y-120031752D01*
X95910495Y-120031752D02*
X95862876Y-120126990D01*
X95862876Y-120126990D02*
X95815257Y-120174609D01*
X95815257Y-120174609D02*
X95720019Y-120222228D01*
X95720019Y-120222228D02*
X95339067Y-120222228D01*
X96243829Y-119698419D02*
X96481924Y-120698419D01*
X96481924Y-120698419D02*
X96672400Y-119984133D01*
X96672400Y-119984133D02*
X96862876Y-120698419D01*
X96862876Y-120698419D02*
X97100972Y-119698419D01*
X98053352Y-120698419D02*
X97720019Y-120222228D01*
X97481924Y-120698419D02*
X97481924Y-119698419D01*
X97481924Y-119698419D02*
X97862876Y-119698419D01*
X97862876Y-119698419D02*
X97958114Y-119746038D01*
X97958114Y-119746038D02*
X98005733Y-119793657D01*
X98005733Y-119793657D02*
X98053352Y-119888895D01*
X98053352Y-119888895D02*
X98053352Y-120031752D01*
X98053352Y-120031752D02*
X98005733Y-120126990D01*
X98005733Y-120126990D02*
X97958114Y-120174609D01*
X97958114Y-120174609D02*
X97862876Y-120222228D01*
X97862876Y-120222228D02*
X97481924Y-120222228D01*
X84839276Y-120765219D02*
X85172609Y-121765219D01*
X85172609Y-121765219D02*
X85505942Y-120765219D01*
X86267847Y-121098552D02*
X86267847Y-121765219D01*
X86029752Y-120717600D02*
X85791657Y-121431885D01*
X85791657Y-121431885D02*
X86410704Y-121431885D01*
X74829200Y-151044039D02*
X74876819Y-150901182D01*
X74876819Y-150901182D02*
X74876819Y-150663087D01*
X74876819Y-150663087D02*
X74829200Y-150567849D01*
X74829200Y-150567849D02*
X74781580Y-150520230D01*
X74781580Y-150520230D02*
X74686342Y-150472611D01*
X74686342Y-150472611D02*
X74591104Y-150472611D01*
X74591104Y-150472611D02*
X74495866Y-150520230D01*
X74495866Y-150520230D02*
X74448247Y-150567849D01*
X74448247Y-150567849D02*
X74400628Y-150663087D01*
X74400628Y-150663087D02*
X74353009Y-150853563D01*
X74353009Y-150853563D02*
X74305390Y-150948801D01*
X74305390Y-150948801D02*
X74257771Y-150996420D01*
X74257771Y-150996420D02*
X74162533Y-151044039D01*
X74162533Y-151044039D02*
X74067295Y-151044039D01*
X74067295Y-151044039D02*
X73972057Y-150996420D01*
X73972057Y-150996420D02*
X73924438Y-150948801D01*
X73924438Y-150948801D02*
X73876819Y-150853563D01*
X73876819Y-150853563D02*
X73876819Y-150615468D01*
X73876819Y-150615468D02*
X73924438Y-150472611D01*
X73876819Y-150139277D02*
X74876819Y-149901182D01*
X74876819Y-149901182D02*
X74162533Y-149710706D01*
X74162533Y-149710706D02*
X74876819Y-149520230D01*
X74876819Y-149520230D02*
X73876819Y-149282135D01*
X74876819Y-148901182D02*
X73876819Y-148901182D01*
X73876819Y-148901182D02*
X73876819Y-148663087D01*
X73876819Y-148663087D02*
X73924438Y-148520230D01*
X73924438Y-148520230D02*
X74019676Y-148424992D01*
X74019676Y-148424992D02*
X74114914Y-148377373D01*
X74114914Y-148377373D02*
X74305390Y-148329754D01*
X74305390Y-148329754D02*
X74448247Y-148329754D01*
X74448247Y-148329754D02*
X74638723Y-148377373D01*
X74638723Y-148377373D02*
X74733961Y-148424992D01*
X74733961Y-148424992D02*
X74829200Y-148520230D01*
X74829200Y-148520230D02*
X74876819Y-148663087D01*
X74876819Y-148663087D02*
X74876819Y-148901182D01*
X74876819Y-147901182D02*
X73876819Y-147901182D01*
X73876819Y-147234516D02*
X73876819Y-147044040D01*
X73876819Y-147044040D02*
X73924438Y-146948802D01*
X73924438Y-146948802D02*
X74019676Y-146853564D01*
X74019676Y-146853564D02*
X74210152Y-146805945D01*
X74210152Y-146805945D02*
X74543485Y-146805945D01*
X74543485Y-146805945D02*
X74733961Y-146853564D01*
X74733961Y-146853564D02*
X74829200Y-146948802D01*
X74829200Y-146948802D02*
X74876819Y-147044040D01*
X74876819Y-147044040D02*
X74876819Y-147234516D01*
X74876819Y-147234516D02*
X74829200Y-147329754D01*
X74829200Y-147329754D02*
X74733961Y-147424992D01*
X74733961Y-147424992D02*
X74543485Y-147472611D01*
X74543485Y-147472611D02*
X74210152Y-147472611D01*
X74210152Y-147472611D02*
X74019676Y-147424992D01*
X74019676Y-147424992D02*
X73924438Y-147329754D01*
X73924438Y-147329754D02*
X73876819Y-147234516D01*
D11*
X57647084Y-119991200D02*
X57932798Y-120086438D01*
X57932798Y-120086438D02*
X58408989Y-120086438D01*
X58408989Y-120086438D02*
X58599465Y-119991200D01*
X58599465Y-119991200D02*
X58694703Y-119895961D01*
X58694703Y-119895961D02*
X58789941Y-119705485D01*
X58789941Y-119705485D02*
X58789941Y-119515009D01*
X58789941Y-119515009D02*
X58694703Y-119324533D01*
X58694703Y-119324533D02*
X58599465Y-119229295D01*
X58599465Y-119229295D02*
X58408989Y-119134057D01*
X58408989Y-119134057D02*
X58028036Y-119038819D01*
X58028036Y-119038819D02*
X57837560Y-118943580D01*
X57837560Y-118943580D02*
X57742322Y-118848342D01*
X57742322Y-118848342D02*
X57647084Y-118657866D01*
X57647084Y-118657866D02*
X57647084Y-118467390D01*
X57647084Y-118467390D02*
X57742322Y-118276914D01*
X57742322Y-118276914D02*
X57837560Y-118181676D01*
X57837560Y-118181676D02*
X58028036Y-118086438D01*
X58028036Y-118086438D02*
X58504227Y-118086438D01*
X58504227Y-118086438D02*
X58789941Y-118181676D01*
X60504227Y-118753104D02*
X60504227Y-120086438D01*
X59647084Y-118753104D02*
X59647084Y-119800723D01*
X59647084Y-119800723D02*
X59742322Y-119991200D01*
X59742322Y-119991200D02*
X59932798Y-120086438D01*
X59932798Y-120086438D02*
X60218513Y-120086438D01*
X60218513Y-120086438D02*
X60408989Y-119991200D01*
X60408989Y-119991200D02*
X60504227Y-119895961D01*
X61456608Y-120086438D02*
X61456608Y-118086438D01*
X61456608Y-118848342D02*
X61647084Y-118753104D01*
X61647084Y-118753104D02*
X62028037Y-118753104D01*
X62028037Y-118753104D02*
X62218513Y-118848342D01*
X62218513Y-118848342D02*
X62313751Y-118943580D01*
X62313751Y-118943580D02*
X62408989Y-119134057D01*
X62408989Y-119134057D02*
X62408989Y-119705485D01*
X62408989Y-119705485D02*
X62313751Y-119895961D01*
X62313751Y-119895961D02*
X62218513Y-119991200D01*
X62218513Y-119991200D02*
X62028037Y-120086438D01*
X62028037Y-120086438D02*
X61647084Y-120086438D01*
X61647084Y-120086438D02*
X61456608Y-119991200D01*
X64313751Y-118181676D02*
X64123275Y-118086438D01*
X64123275Y-118086438D02*
X63837561Y-118086438D01*
X63837561Y-118086438D02*
X63551846Y-118181676D01*
X63551846Y-118181676D02*
X63361370Y-118372152D01*
X63361370Y-118372152D02*
X63266132Y-118562628D01*
X63266132Y-118562628D02*
X63170894Y-118943580D01*
X63170894Y-118943580D02*
X63170894Y-119229295D01*
X63170894Y-119229295D02*
X63266132Y-119610247D01*
X63266132Y-119610247D02*
X63361370Y-119800723D01*
X63361370Y-119800723D02*
X63551846Y-119991200D01*
X63551846Y-119991200D02*
X63837561Y-120086438D01*
X63837561Y-120086438D02*
X64028037Y-120086438D01*
X64028037Y-120086438D02*
X64313751Y-119991200D01*
X64313751Y-119991200D02*
X64408989Y-119895961D01*
X64408989Y-119895961D02*
X64408989Y-119229295D01*
X64408989Y-119229295D02*
X64028037Y-119229295D01*
X65266132Y-120086438D02*
X65266132Y-118086438D01*
X66123275Y-120086438D02*
X66123275Y-119038819D01*
X66123275Y-119038819D02*
X66028037Y-118848342D01*
X66028037Y-118848342D02*
X65837561Y-118753104D01*
X65837561Y-118753104D02*
X65551846Y-118753104D01*
X65551846Y-118753104D02*
X65361370Y-118848342D01*
X65361370Y-118848342D02*
X65266132Y-118943580D01*
X66885180Y-118753104D02*
X67932799Y-118753104D01*
X67932799Y-118753104D02*
X66885180Y-120086438D01*
X66885180Y-120086438D02*
X67932799Y-120086438D01*
X69932800Y-118086438D02*
X71075657Y-118086438D01*
X70504228Y-120086438D02*
X70504228Y-118086438D01*
X71742324Y-120086438D02*
X71742324Y-118753104D01*
X71742324Y-119134057D02*
X71837562Y-118943580D01*
X71837562Y-118943580D02*
X71932800Y-118848342D01*
X71932800Y-118848342D02*
X72123276Y-118753104D01*
X72123276Y-118753104D02*
X72313753Y-118753104D01*
X73837562Y-120086438D02*
X73837562Y-119038819D01*
X73837562Y-119038819D02*
X73742324Y-118848342D01*
X73742324Y-118848342D02*
X73551848Y-118753104D01*
X73551848Y-118753104D02*
X73170895Y-118753104D01*
X73170895Y-118753104D02*
X72980419Y-118848342D01*
X73837562Y-119991200D02*
X73647086Y-120086438D01*
X73647086Y-120086438D02*
X73170895Y-120086438D01*
X73170895Y-120086438D02*
X72980419Y-119991200D01*
X72980419Y-119991200D02*
X72885181Y-119800723D01*
X72885181Y-119800723D02*
X72885181Y-119610247D01*
X72885181Y-119610247D02*
X72980419Y-119419771D01*
X72980419Y-119419771D02*
X73170895Y-119324533D01*
X73170895Y-119324533D02*
X73647086Y-119324533D01*
X73647086Y-119324533D02*
X73837562Y-119229295D01*
X74789943Y-118753104D02*
X74789943Y-120086438D01*
X74789943Y-118943580D02*
X74885181Y-118848342D01*
X74885181Y-118848342D02*
X75075657Y-118753104D01*
X75075657Y-118753104D02*
X75361372Y-118753104D01*
X75361372Y-118753104D02*
X75551848Y-118848342D01*
X75551848Y-118848342D02*
X75647086Y-119038819D01*
X75647086Y-119038819D02*
X75647086Y-120086438D01*
X76504229Y-119991200D02*
X76694705Y-120086438D01*
X76694705Y-120086438D02*
X77075657Y-120086438D01*
X77075657Y-120086438D02*
X77266134Y-119991200D01*
X77266134Y-119991200D02*
X77361372Y-119800723D01*
X77361372Y-119800723D02*
X77361372Y-119705485D01*
X77361372Y-119705485D02*
X77266134Y-119515009D01*
X77266134Y-119515009D02*
X77075657Y-119419771D01*
X77075657Y-119419771D02*
X76789943Y-119419771D01*
X76789943Y-119419771D02*
X76599467Y-119324533D01*
X76599467Y-119324533D02*
X76504229Y-119134057D01*
X76504229Y-119134057D02*
X76504229Y-119038819D01*
X76504229Y-119038819D02*
X76599467Y-118848342D01*
X76599467Y-118848342D02*
X76789943Y-118753104D01*
X76789943Y-118753104D02*
X77075657Y-118753104D01*
X77075657Y-118753104D02*
X77266134Y-118848342D01*
X79075658Y-119991200D02*
X78885182Y-120086438D01*
X78885182Y-120086438D02*
X78504229Y-120086438D01*
X78504229Y-120086438D02*
X78313753Y-119991200D01*
X78313753Y-119991200D02*
X78218515Y-119895961D01*
X78218515Y-119895961D02*
X78123277Y-119705485D01*
X78123277Y-119705485D02*
X78123277Y-119134057D01*
X78123277Y-119134057D02*
X78218515Y-118943580D01*
X78218515Y-118943580D02*
X78313753Y-118848342D01*
X78313753Y-118848342D02*
X78504229Y-118753104D01*
X78504229Y-118753104D02*
X78885182Y-118753104D01*
X78885182Y-118753104D02*
X79075658Y-118848342D01*
X79932801Y-120086438D02*
X79932801Y-118753104D01*
X79932801Y-118086438D02*
X79837563Y-118181676D01*
X79837563Y-118181676D02*
X79932801Y-118276914D01*
X79932801Y-118276914D02*
X80028039Y-118181676D01*
X80028039Y-118181676D02*
X79932801Y-118086438D01*
X79932801Y-118086438D02*
X79932801Y-118276914D01*
X81647087Y-119991200D02*
X81456611Y-120086438D01*
X81456611Y-120086438D02*
X81075658Y-120086438D01*
X81075658Y-120086438D02*
X80885182Y-119991200D01*
X80885182Y-119991200D02*
X80789944Y-119800723D01*
X80789944Y-119800723D02*
X80789944Y-119038819D01*
X80789944Y-119038819D02*
X80885182Y-118848342D01*
X80885182Y-118848342D02*
X81075658Y-118753104D01*
X81075658Y-118753104D02*
X81456611Y-118753104D01*
X81456611Y-118753104D02*
X81647087Y-118848342D01*
X81647087Y-118848342D02*
X81742325Y-119038819D01*
X81742325Y-119038819D02*
X81742325Y-119229295D01*
X81742325Y-119229295D02*
X80789944Y-119419771D01*
X82408992Y-118753104D02*
X82885182Y-120086438D01*
X82885182Y-120086438D02*
X83361373Y-118753104D01*
X84885183Y-119991200D02*
X84694707Y-120086438D01*
X84694707Y-120086438D02*
X84313754Y-120086438D01*
X84313754Y-120086438D02*
X84123278Y-119991200D01*
X84123278Y-119991200D02*
X84028040Y-119800723D01*
X84028040Y-119800723D02*
X84028040Y-119038819D01*
X84028040Y-119038819D02*
X84123278Y-118848342D01*
X84123278Y-118848342D02*
X84313754Y-118753104D01*
X84313754Y-118753104D02*
X84694707Y-118753104D01*
X84694707Y-118753104D02*
X84885183Y-118848342D01*
X84885183Y-118848342D02*
X84980421Y-119038819D01*
X84980421Y-119038819D02*
X84980421Y-119229295D01*
X84980421Y-119229295D02*
X84028040Y-119419771D01*
X85837564Y-120086438D02*
X85837564Y-118753104D01*
X85837564Y-119134057D02*
X85932802Y-118943580D01*
X85932802Y-118943580D02*
X86028040Y-118848342D01*
X86028040Y-118848342D02*
X86218516Y-118753104D01*
X86218516Y-118753104D02*
X86408993Y-118753104D01*
D10*
X97115333Y-135125619D02*
X96782000Y-134649428D01*
X96543905Y-135125619D02*
X96543905Y-134125619D01*
X96543905Y-134125619D02*
X96924857Y-134125619D01*
X96924857Y-134125619D02*
X97020095Y-134173238D01*
X97020095Y-134173238D02*
X97067714Y-134220857D01*
X97067714Y-134220857D02*
X97115333Y-134316095D01*
X97115333Y-134316095D02*
X97115333Y-134458952D01*
X97115333Y-134458952D02*
X97067714Y-134554190D01*
X97067714Y-134554190D02*
X97020095Y-134601809D01*
X97020095Y-134601809D02*
X96924857Y-134649428D01*
X96924857Y-134649428D02*
X96543905Y-134649428D01*
X97448667Y-134125619D02*
X98115333Y-135125619D01*
X98115333Y-134125619D02*
X97448667Y-135125619D01*
X50363513Y-113674635D02*
X50487711Y-113759786D01*
X50487711Y-113759786D02*
X50520359Y-113818686D01*
X50520359Y-113818686D02*
X50539882Y-113923360D01*
X50539882Y-113923360D02*
X50500506Y-114060683D01*
X50500506Y-114060683D02*
X50428480Y-114139107D01*
X50428480Y-114139107D02*
X50369580Y-114171755D01*
X50369580Y-114171755D02*
X50264906Y-114191279D01*
X50264906Y-114191279D02*
X49898711Y-114086274D01*
X49898711Y-114086274D02*
X50174348Y-113125012D01*
X50174348Y-113125012D02*
X50494769Y-113216891D01*
X50494769Y-113216891D02*
X50573192Y-113288917D01*
X50573192Y-113288917D02*
X50605841Y-113347817D01*
X50605841Y-113347817D02*
X50625364Y-113452491D01*
X50625364Y-113452491D02*
X50599113Y-113544040D01*
X50599113Y-113544040D02*
X50527087Y-113622463D01*
X50527087Y-113622463D02*
X50468187Y-113655112D01*
X50468187Y-113655112D02*
X50363513Y-113674635D01*
X50363513Y-113674635D02*
X50043092Y-113582756D01*
X50892952Y-114074139D02*
X51350695Y-114205395D01*
X50722650Y-114322534D02*
X51318707Y-113453152D01*
X51318707Y-113453152D02*
X51363491Y-114506293D01*
X51822226Y-113597533D02*
X52371518Y-113755040D01*
X51821234Y-114637549D02*
X52096872Y-113676287D01*
X52573756Y-105620903D02*
X52526353Y-105525557D01*
X52526353Y-105525557D02*
X52412262Y-105439584D01*
X52412262Y-105439584D02*
X52269514Y-105391641D01*
X52269514Y-105391641D02*
X52136138Y-105410385D01*
X52136138Y-105410385D02*
X52040792Y-105457788D01*
X52040792Y-105457788D02*
X51888130Y-105581251D01*
X51888130Y-105581251D02*
X51802156Y-105695342D01*
X51802156Y-105695342D02*
X51725555Y-105876121D01*
X51725555Y-105876121D02*
X51706270Y-105980839D01*
X51706270Y-105980839D02*
X51725015Y-106114216D01*
X51725015Y-106114216D02*
X51810447Y-106238219D01*
X51810447Y-106238219D02*
X51886508Y-106295535D01*
X51886508Y-106295535D02*
X52029257Y-106343478D01*
X52029257Y-106343478D02*
X52095945Y-106334106D01*
X52095945Y-106334106D02*
X52296550Y-106067894D01*
X52296550Y-106067894D02*
X52144429Y-105953263D01*
X52380901Y-106668087D02*
X52982716Y-105869452D01*
X52982716Y-105869452D02*
X52837265Y-107011982D01*
X52837265Y-107011982D02*
X53439080Y-106213346D01*
X53217567Y-107298560D02*
X53819382Y-106499925D01*
X53819382Y-106499925D02*
X54009533Y-106643214D01*
X54009533Y-106643214D02*
X54094966Y-106767218D01*
X54094966Y-106767218D02*
X54113711Y-106900594D01*
X54113711Y-106900594D02*
X54094426Y-107005312D01*
X54094426Y-107005312D02*
X54017825Y-107186091D01*
X54017825Y-107186091D02*
X53931851Y-107300182D01*
X53931851Y-107300182D02*
X53779189Y-107423645D01*
X53779189Y-107423645D02*
X53683843Y-107471048D01*
X53683843Y-107471048D02*
X53550467Y-107489793D01*
X53550467Y-107489793D02*
X53407718Y-107441849D01*
X53407718Y-107441849D02*
X53217567Y-107298560D01*
X95350152Y-119225219D02*
X94873962Y-119225219D01*
X94873962Y-119225219D02*
X94873962Y-118225219D01*
X95683486Y-118701409D02*
X96016819Y-118701409D01*
X96159676Y-119225219D02*
X95683486Y-119225219D01*
X95683486Y-119225219D02*
X95683486Y-118225219D01*
X95683486Y-118225219D02*
X96159676Y-118225219D01*
X96588248Y-119225219D02*
X96588248Y-118225219D01*
X96588248Y-118225219D02*
X96826343Y-118225219D01*
X96826343Y-118225219D02*
X96969200Y-118272838D01*
X96969200Y-118272838D02*
X97064438Y-118368076D01*
X97064438Y-118368076D02*
X97112057Y-118463314D01*
X97112057Y-118463314D02*
X97159676Y-118653790D01*
X97159676Y-118653790D02*
X97159676Y-118796647D01*
X97159676Y-118796647D02*
X97112057Y-118987123D01*
X97112057Y-118987123D02*
X97064438Y-119082361D01*
X97064438Y-119082361D02*
X96969200Y-119177600D01*
X96969200Y-119177600D02*
X96826343Y-119225219D01*
X96826343Y-119225219D02*
X96588248Y-119225219D01*
X97540629Y-118320457D02*
X97588248Y-118272838D01*
X97588248Y-118272838D02*
X97683486Y-118225219D01*
X97683486Y-118225219D02*
X97921581Y-118225219D01*
X97921581Y-118225219D02*
X98016819Y-118272838D01*
X98016819Y-118272838D02*
X98064438Y-118320457D01*
X98064438Y-118320457D02*
X98112057Y-118415695D01*
X98112057Y-118415695D02*
X98112057Y-118510933D01*
X98112057Y-118510933D02*
X98064438Y-118653790D01*
X98064438Y-118653790D02*
X97493010Y-119225219D01*
X97493010Y-119225219D02*
X98112057Y-119225219D01*
X96621695Y-132804819D02*
X97193123Y-132804819D01*
X96907409Y-133804819D02*
X96907409Y-132804819D01*
X97431219Y-132804819D02*
X98097885Y-133804819D01*
X98097885Y-132804819D02*
X97431219Y-133804819D01*
X84163495Y-102717888D02*
X84536047Y-102223495D01*
X84536047Y-102223495D02*
X84639684Y-102718969D01*
X84639684Y-102718969D02*
X84725657Y-102604878D01*
X84725657Y-102604878D02*
X84821003Y-102557476D01*
X84821003Y-102557476D02*
X84887691Y-102548103D01*
X84887691Y-102548103D02*
X84992410Y-102567389D01*
X84992410Y-102567389D02*
X85182561Y-102710678D01*
X85182561Y-102710678D02*
X85229964Y-102806024D01*
X85229964Y-102806024D02*
X85239336Y-102872712D01*
X85239336Y-102872712D02*
X85220051Y-102977431D01*
X85220051Y-102977431D02*
X85048104Y-103205612D01*
X85048104Y-103205612D02*
X84952758Y-103253015D01*
X84952758Y-103253015D02*
X84886070Y-103262387D01*
X84707994Y-101995313D02*
X85707234Y-102330916D01*
X85707234Y-102330916D02*
X85109204Y-101462889D01*
X85252493Y-101272738D02*
X85625045Y-100778344D01*
X85625045Y-100778344D02*
X85728683Y-101273819D01*
X85728683Y-101273819D02*
X85814656Y-101159728D01*
X85814656Y-101159728D02*
X85910002Y-101112326D01*
X85910002Y-101112326D02*
X85976690Y-101102953D01*
X85976690Y-101102953D02*
X86081409Y-101122239D01*
X86081409Y-101122239D02*
X86271560Y-101265528D01*
X86271560Y-101265528D02*
X86318963Y-101360874D01*
X86318963Y-101360874D02*
X86328335Y-101427562D01*
X86328335Y-101427562D02*
X86309050Y-101532280D01*
X86309050Y-101532280D02*
X86137102Y-101760462D01*
X86137102Y-101760462D02*
X86041756Y-101807865D01*
X86041756Y-101807865D02*
X85975068Y-101817237D01*
X66460019Y-151091658D02*
X66460019Y-150472611D01*
X66460019Y-150472611D02*
X66840971Y-150805944D01*
X66840971Y-150805944D02*
X66840971Y-150663087D01*
X66840971Y-150663087D02*
X66888590Y-150567849D01*
X66888590Y-150567849D02*
X66936209Y-150520230D01*
X66936209Y-150520230D02*
X67031447Y-150472611D01*
X67031447Y-150472611D02*
X67269542Y-150472611D01*
X67269542Y-150472611D02*
X67364780Y-150520230D01*
X67364780Y-150520230D02*
X67412400Y-150567849D01*
X67412400Y-150567849D02*
X67460019Y-150663087D01*
X67460019Y-150663087D02*
X67460019Y-150948801D01*
X67460019Y-150948801D02*
X67412400Y-151044039D01*
X67412400Y-151044039D02*
X67364780Y-151091658D01*
X66460019Y-150186896D02*
X67460019Y-149853563D01*
X67460019Y-149853563D02*
X66460019Y-149520230D01*
X66460019Y-149282134D02*
X66460019Y-148663087D01*
X66460019Y-148663087D02*
X66840971Y-148996420D01*
X66840971Y-148996420D02*
X66840971Y-148853563D01*
X66840971Y-148853563D02*
X66888590Y-148758325D01*
X66888590Y-148758325D02*
X66936209Y-148710706D01*
X66936209Y-148710706D02*
X67031447Y-148663087D01*
X67031447Y-148663087D02*
X67269542Y-148663087D01*
X67269542Y-148663087D02*
X67364780Y-148710706D01*
X67364780Y-148710706D02*
X67412400Y-148758325D01*
X67412400Y-148758325D02*
X67460019Y-148853563D01*
X67460019Y-148853563D02*
X67460019Y-149139277D01*
X67460019Y-149139277D02*
X67412400Y-149234515D01*
X67412400Y-149234515D02*
X67364780Y-149282134D01*
X58223148Y-101636298D02*
X58273575Y-101778188D01*
X58273575Y-101778188D02*
X58265368Y-101845029D01*
X58265368Y-101845029D02*
X58219637Y-101941188D01*
X58219637Y-101941188D02*
X58107064Y-102029140D01*
X58107064Y-102029140D02*
X58002698Y-102050250D01*
X58002698Y-102050250D02*
X57935856Y-102042043D01*
X57935856Y-102042043D02*
X57839697Y-101996311D01*
X57839697Y-101996311D02*
X57605160Y-101696117D01*
X57605160Y-101696117D02*
X58393171Y-101080455D01*
X58393171Y-101080455D02*
X58598391Y-101343125D01*
X58598391Y-101343125D02*
X58619501Y-101447491D01*
X58619501Y-101447491D02*
X58611294Y-101514333D01*
X58611294Y-101514333D02*
X58565563Y-101610492D01*
X58565563Y-101610492D02*
X58490514Y-101669126D01*
X58490514Y-101669126D02*
X58386148Y-101690236D01*
X58386148Y-101690236D02*
X58319307Y-101682029D01*
X58319307Y-101682029D02*
X58223148Y-101636298D01*
X58223148Y-101636298D02*
X58017927Y-101373627D01*
X58416650Y-102270700D02*
X58709822Y-102645943D01*
X58132870Y-102371554D02*
X59126101Y-102018563D01*
X59126101Y-102018563D02*
X58543311Y-102896895D01*
X59448590Y-102431331D02*
X59800397Y-102881623D01*
X58836483Y-103272138D02*
X59624494Y-102656477D01*
X56007537Y-124291762D02*
X55839178Y-124460120D01*
X55738163Y-124224418D02*
X55839178Y-124460120D01*
X55839178Y-124460120D02*
X56074880Y-124561136D01*
X55603476Y-124493792D02*
X55839178Y-124460120D01*
X55839178Y-124460120D02*
X55805506Y-124695823D01*
X56007537Y-124291762D02*
X55839178Y-124460120D01*
X55738163Y-124224418D02*
X55839178Y-124460120D01*
X55839178Y-124460120D02*
X56074880Y-124561136D01*
X55603476Y-124493792D02*
X55839178Y-124460120D01*
X55839178Y-124460120D02*
X55805506Y-124695823D01*
D12*
%TO.C,R9*%
X68791428Y-136556392D02*
X68943931Y-136708895D01*
X69300545Y-136047275D02*
X69453048Y-136199778D01*
%TO.C,C7*%
X87451693Y-146380810D02*
X87299190Y-146228307D01*
X87960810Y-145871693D02*
X87808307Y-145719190D01*
%TO.C,L1*%
X67526889Y-136785494D02*
X67374386Y-136937997D01*
X68036006Y-137294611D02*
X67883503Y-137447114D01*
%TO.C,U3*%
X65091730Y-141426827D02*
X65427605Y-141090951D01*
X65427605Y-141762703D02*
X65091730Y-141426827D01*
X68446951Y-144782049D02*
X68570695Y-144905792D01*
X68782827Y-137735730D02*
X68446951Y-138071605D01*
X69118703Y-138071605D02*
X68782827Y-137735730D01*
X69118703Y-144782049D02*
X68952533Y-144948219D01*
X72138049Y-141090951D02*
X72473924Y-141426827D01*
X72473924Y-141426827D02*
X72138049Y-141762703D01*
X68719187Y-145520975D02*
X68379776Y-145181564D01*
X68782827Y-145117924D01*
X68719187Y-145520975D01*
G36*
X68719187Y-145520975D02*
G01*
X68379776Y-145181564D01*
X68782827Y-145117924D01*
X68719187Y-145520975D01*
G37*
%TO.C,J6*%
X44894673Y-118946742D02*
X47451628Y-119679935D01*
X46311448Y-114005857D02*
X44894673Y-118946742D01*
X46311448Y-114005857D02*
X48868404Y-114739053D01*
X46661508Y-112785055D02*
X47028103Y-111506576D01*
X47028103Y-111506576D02*
X48306582Y-111873175D01*
X48868404Y-114739053D02*
X47451628Y-119679935D01*
%TO.C,R2*%
X54685693Y-132765190D02*
X54533190Y-132917693D01*
X55194810Y-133274307D02*
X55042307Y-133426810D01*
%TO.C,U2*%
D13*
X96024000Y-133757000D02*
G75*
G02*
X95770000Y-133757000I-127000J0D01*
G01*
X95770000Y-133757000D02*
G75*
G02*
X96024000Y-133757000I127000J0D01*
G01*
D12*
%TO.C,C36*%
X65297350Y-149218846D02*
X65144847Y-149371349D01*
X65806467Y-149727963D02*
X65653964Y-149880466D01*
%TO.C,R3*%
X91540359Y-127763000D02*
X91847641Y-127763000D01*
X91540359Y-128523000D02*
X91847641Y-128523000D01*
%TO.C,C11*%
X83133693Y-140538810D02*
X82981190Y-140386307D01*
X83642810Y-140029693D02*
X83490307Y-139877190D01*
%TO.C,C26*%
X69549447Y-134762937D02*
X69701950Y-134610434D01*
X70058564Y-135272054D02*
X70211067Y-135119551D01*
%TO.C,C16*%
X72567190Y-145212307D02*
X72719693Y-145364810D01*
X73076307Y-144703190D02*
X73228810Y-144855693D01*
%TO.C,SWD1*%
X65472000Y-151832000D02*
X66802000Y-151832000D01*
X65472000Y-153162000D02*
X65472000Y-151832000D01*
X68072001Y-151832000D02*
X78292000Y-151832000D01*
X68072001Y-154492000D02*
X68072001Y-151832000D01*
X68072001Y-154492000D02*
X78292000Y-154492000D01*
X78292000Y-154492000D02*
X78292000Y-151832000D01*
%TO.C,R10*%
X99287359Y-131954000D02*
X99594641Y-131954000D01*
X99287359Y-132714000D02*
X99594641Y-132714000D01*
%TO.C,L7*%
X62497946Y-133136591D02*
X62345443Y-132984088D01*
X63007063Y-132627474D02*
X62854560Y-132474971D01*
%TO.C,C32*%
X61088207Y-137474216D02*
X61240710Y-137626719D01*
X61597324Y-136965099D02*
X61749827Y-137117602D01*
%TO.C,C29*%
X63442873Y-142306352D02*
X63595376Y-142153849D01*
X63951990Y-142815469D02*
X64104493Y-142662966D01*
%TO.C,C8*%
X80762282Y-153153399D02*
X80609779Y-153000896D01*
X81271399Y-152644282D02*
X81118896Y-152491779D01*
%TO.C,C3*%
X92633190Y-143966693D02*
X92785693Y-143814190D01*
X93142307Y-144475810D02*
X93294810Y-144323307D01*
%TO.C,L6*%
X62118937Y-135631264D02*
X61966434Y-135478761D01*
X62628054Y-135122147D02*
X62475551Y-134969644D01*
%TO.C,C10*%
X82879693Y-141808810D02*
X82727190Y-141656307D01*
X83388810Y-141299693D02*
X83236307Y-141147190D01*
%TO.C,C33*%
X63423074Y-136935401D02*
X63575577Y-137087904D01*
X63932191Y-136426284D02*
X64084694Y-136578787D01*
%TO.C,EX1*%
X65172000Y-102783999D02*
X65172000Y-103083999D01*
X65172000Y-104904000D02*
X65172000Y-106953998D01*
X65172000Y-106953998D02*
X65942000Y-106953999D01*
X65942000Y-106603999D02*
X67922000Y-106603999D01*
X65942000Y-106953999D02*
X65942000Y-106603999D01*
X65972000Y-101483999D02*
X65972000Y-102783999D01*
X65972000Y-102783999D02*
X65172000Y-102783999D01*
X75842000Y-106603999D02*
X77822000Y-106603999D01*
X75842000Y-107193999D02*
X75842000Y-106603999D01*
X77792000Y-101483999D02*
X65972000Y-101483999D01*
X77792000Y-102783999D02*
X77792000Y-101483999D01*
X77822000Y-106603999D02*
X77822000Y-106953999D01*
X77822000Y-106953999D02*
X78592000Y-106953998D01*
X78592000Y-102783999D02*
X77792000Y-102783999D01*
X78592000Y-103083999D02*
X78592000Y-102783999D01*
X78592000Y-106953998D02*
X78592000Y-104904000D01*
%TO.C,C20*%
X63442964Y-138273200D02*
X63658636Y-138273200D01*
X63442964Y-138993200D02*
X63658636Y-138993200D01*
%TO.C,C37*%
X61607224Y-133682710D02*
X61759727Y-133835213D01*
X62116341Y-133173593D02*
X62268844Y-133326096D01*
%TO.C,C39*%
X61289693Y-127584810D02*
X61137190Y-127432307D01*
X61798810Y-127075693D02*
X61646307Y-126923190D01*
%TO.C,R15*%
X55119000Y-116813359D02*
X55119000Y-117120641D01*
X55879000Y-116813359D02*
X55879000Y-117120641D01*
%TO.C,C6*%
X93268190Y-141021307D02*
X93420693Y-141173810D01*
X93777307Y-140512190D02*
X93929810Y-140664693D01*
%TO.C,R13*%
X61061105Y-131699750D02*
X60908602Y-131547247D01*
X61570222Y-131190633D02*
X61417719Y-131038130D01*
%TO.C,C40*%
X59613190Y-125908307D02*
X59765693Y-126060810D01*
X60122307Y-125399190D02*
X60274810Y-125551693D01*
%TO.C,C21*%
X64093036Y-139989196D02*
X63877364Y-139989196D01*
X64093036Y-140709196D02*
X63877364Y-140709196D01*
%TO.C,C4*%
X87197693Y-148005190D02*
X87045190Y-148157693D01*
X87706810Y-148514307D02*
X87554307Y-148666810D01*
%TO.C,R11*%
X99287359Y-135129000D02*
X99594641Y-135129000D01*
X99287359Y-135889000D02*
X99594641Y-135889000D01*
%TO.C,C14*%
X58343190Y-132409693D02*
X58495693Y-132257190D01*
X58852307Y-132918810D02*
X59004810Y-132766307D01*
%TO.C,C24*%
X61944879Y-139270776D02*
X61729207Y-139270776D01*
X61944879Y-139990776D02*
X61729207Y-139990776D01*
%TO.C,R5*%
X99467641Y-120778000D02*
X99160359Y-120778000D01*
X99467641Y-121538000D02*
X99160359Y-121538000D01*
%TO.C,C15*%
X71890601Y-146059718D02*
X72043104Y-146212221D01*
X72399718Y-145550601D02*
X72552221Y-145703104D01*
%TO.C,U1*%
X76914825Y-147123223D02*
X77250701Y-147459099D01*
X77250701Y-146787347D02*
X76914825Y-147123223D01*
X81684260Y-142353788D02*
X82020136Y-142017912D01*
X82020136Y-142017912D02*
X82356012Y-142353788D01*
X82020136Y-152228534D02*
X81684260Y-151892658D01*
X82356012Y-151892658D02*
X82020136Y-152228534D01*
X86789571Y-146787347D02*
X86955741Y-146953517D01*
X86789571Y-147459099D02*
X86913315Y-147335355D01*
X87528498Y-147186863D02*
X87189087Y-147526274D01*
X87125447Y-147123223D01*
X87528498Y-147186863D01*
G36*
X87528498Y-147186863D02*
G01*
X87189087Y-147526274D01*
X87125447Y-147123223D01*
X87528498Y-147186863D01*
G37*
D14*
%TO.C,D4*%
X98401000Y-133350000D02*
G75*
G02*
X98301002Y-133350000I-49999J0D01*
G01*
X98301002Y-133350000D02*
G75*
G02*
X98401000Y-133350000I49999J0D01*
G01*
%TO.C,D5*%
X98401000Y-134493000D02*
G75*
G02*
X98301000Y-134493000I-50000J0D01*
G01*
X98301000Y-134493000D02*
G75*
G02*
X98401000Y-134493000I50000J0D01*
G01*
D12*
%TO.C,P1*%
X44397000Y-125296000D02*
X44397000Y-128196000D01*
X46302000Y-123391000D02*
X49202000Y-123391000D01*
X46302000Y-130101000D02*
X49202000Y-130101000D01*
X51107000Y-125296000D02*
X51107000Y-128196000D01*
%TO.C,C35*%
X63216367Y-133911812D02*
X63063864Y-134064315D01*
X63725484Y-134420929D02*
X63572981Y-134573432D01*
D14*
%TO.C,D1*%
X100453998Y-120142000D02*
G75*
G02*
X100354000Y-120142000I-49999J0D01*
G01*
X100354000Y-120142000D02*
G75*
G02*
X100453998Y-120142000I49999J0D01*
G01*
%TO.C,D3*%
X100453998Y-119126000D02*
G75*
G02*
X100354000Y-119126000I-49999J0D01*
G01*
X100354000Y-119126000D02*
G75*
G02*
X100453998Y-119126000I49999J0D01*
G01*
D12*
%TO.C,C1*%
X90930000Y-132093581D02*
X90930000Y-131812419D01*
X91950000Y-132093581D02*
X91950000Y-131812419D01*
%TO.C,L5*%
X64673006Y-135311652D02*
X64520503Y-135159149D01*
X65182123Y-134802535D02*
X65029620Y-134650032D01*
%TO.C,C30*%
X65957344Y-136595990D02*
X66109847Y-136748493D01*
X66466461Y-136086873D02*
X66618964Y-136239376D01*
%TO.C,C28*%
X64397601Y-144262282D02*
X64550104Y-144109779D01*
X64906718Y-144771399D02*
X65059221Y-144618896D01*
%TO.C,R8*%
X71997219Y-136888500D02*
X71844716Y-136735997D01*
X72506336Y-136379383D02*
X72353833Y-136226880D01*
%TO.C,C13*%
X91420836Y-133625000D02*
X91205164Y-133625000D01*
X91420836Y-134345000D02*
X91205164Y-134345000D01*
%TO.C,C41*%
X60375190Y-125146307D02*
X60527693Y-125298810D01*
X60884307Y-124637190D02*
X61036810Y-124789693D01*
%TO.C,C31*%
X61732349Y-149548358D02*
X61884852Y-149700861D01*
X62241466Y-149039241D02*
X62393969Y-149191744D01*
%TO.C,C43*%
X64375464Y-123313602D02*
X63369602Y-124319464D01*
X65662398Y-124600536D02*
X64656536Y-125606398D01*
%TO.C,C44*%
X61137190Y-124384307D02*
X61289693Y-124536810D01*
X61646307Y-123875190D02*
X61798810Y-124027693D01*
%TO.C,R4*%
X91667359Y-124715000D02*
X91974641Y-124715000D01*
X91667359Y-125475000D02*
X91974641Y-125475000D01*
%TO.C,R6*%
X99086641Y-115698000D02*
X98779359Y-115698000D01*
X99086641Y-116458000D02*
X98779359Y-116458000D01*
%TO.C,C9*%
X77545693Y-144195190D02*
X77393190Y-144347693D01*
X78054810Y-144704307D02*
X77902307Y-144856810D01*
%TO.C,C42*%
X62051693Y-126822810D02*
X61899190Y-126670307D01*
X62560810Y-126313693D02*
X62408307Y-126161190D01*
%TO.C,FB1*%
X83115325Y-138954574D02*
X82885120Y-138724369D01*
X83836574Y-138233325D02*
X83606369Y-138003120D01*
%TO.C,R12*%
X90651359Y-135383000D02*
X90958641Y-135383000D01*
X90651359Y-136143000D02*
X90958641Y-136143000D01*
D14*
%TO.C,D2*%
X100453998Y-117094000D02*
G75*
G02*
X100354000Y-117094000I-49999J0D01*
G01*
X100354000Y-117094000D02*
G75*
G02*
X100453998Y-117094000I49999J0D01*
G01*
D12*
%TO.C,C19*%
X70427674Y-137117602D02*
X70580177Y-136965099D01*
X70936791Y-137626719D02*
X71089294Y-137474216D01*
%TO.C,C27*%
X70946690Y-134401130D02*
X71099193Y-134553633D01*
X71455807Y-133892013D02*
X71608310Y-134044516D01*
%TO.C,C22*%
X70248068Y-135501156D02*
X70400571Y-135348653D01*
X70757185Y-136010273D02*
X70909688Y-135857770D01*
%TO.C,C38*%
X56971693Y-133781190D02*
X56819190Y-133933693D01*
X57480810Y-134290307D02*
X57328307Y-134442810D01*
%TO.C,C5*%
X76123190Y-145871693D02*
X76275693Y-145719190D01*
X76632307Y-146380810D02*
X76784810Y-146228307D01*
%TO.C,C23*%
X63677190Y-143585693D02*
X63829693Y-143433190D01*
X64186307Y-144094810D02*
X64338810Y-143942307D01*
%TO.C,L4*%
X64293997Y-136369484D02*
X64141494Y-136216981D01*
X64803114Y-135860367D02*
X64650611Y-135707864D01*
%TO.C,L2*%
X65012418Y-137144705D02*
X64859915Y-137297208D01*
X65521535Y-137653822D02*
X65369032Y-137806325D01*
%TO.C,C12*%
X81625779Y-139030896D02*
X81778282Y-139183399D01*
X82134896Y-138521779D02*
X82287399Y-138674282D01*
%TO.C,R14*%
X57631359Y-116841000D02*
X57938641Y-116841000D01*
X57631359Y-117601000D02*
X57938641Y-117601000D01*
%TO.C,X1*%
X61042804Y-147344190D02*
X63729810Y-150031196D01*
X63270190Y-145116804D02*
X61042804Y-147344190D01*
D15*
%TO.C,J1*%
X95575000Y-122276000D02*
X97255000Y-122276000D01*
X95575000Y-131216000D02*
X97255000Y-131216000D01*
X101025000Y-122276000D02*
X99595000Y-122276000D01*
X101025000Y-131216000D02*
X99595000Y-131216000D01*
X101025000Y-131216000D02*
X101025000Y-122276000D01*
D16*
X92525000Y-129946000D02*
G75*
G02*
X92325000Y-129946000I-100000J0D01*
G01*
X92325000Y-129946000D02*
G75*
G02*
X92525000Y-129946000I100000J0D01*
G01*
D12*
%TO.C,L3*%
X61959131Y-136908299D02*
X61806628Y-136755796D01*
X62468248Y-136399182D02*
X62315745Y-136246679D01*
%TO.C,C18*%
X67706495Y-146247765D02*
X67553992Y-146095262D01*
X68215612Y-145738648D02*
X68063109Y-145586145D01*
%TO.C,C17*%
X71505304Y-138195233D02*
X71657807Y-138042730D01*
X72014421Y-138704350D02*
X72166924Y-138551847D01*
%TO.C,C25*%
X65693001Y-144363882D02*
X65845504Y-144211379D01*
X66202118Y-144872999D02*
X66354621Y-144720496D01*
%TO.C,C34*%
X65238924Y-134440728D02*
X65391427Y-134593231D01*
X65748041Y-133931611D02*
X65900544Y-134084114D01*
%TO.C,R7*%
X99467641Y-117730000D02*
X99160359Y-117730000D01*
X99467641Y-118490000D02*
X99160359Y-118490000D01*
%TO.C,Y1*%
X88859060Y-142741487D02*
X91192513Y-145074940D01*
X91192513Y-145074940D02*
X94020940Y-142246513D01*
%TO.C,C2*%
X81327970Y-136263781D02*
X81526781Y-136064970D01*
X82049219Y-136985030D02*
X82248030Y-136786219D01*
%TD*%
M02*
