%TF.GenerationSoftware,KiCad,Pcbnew,8.0.1*%
%TF.CreationDate,2024-09-30T12:45:29-07:00*%
%TF.ProjectId,rocketBeaconModule,726f636b-6574-4426-9561-636f6e4d6f64,rev?*%
%TF.SameCoordinates,Original*%
%TF.FileFunction,Soldermask,Bot*%
%TF.FilePolarity,Negative*%
%FSLAX46Y46*%
G04 Gerber Fmt 4.6, Leading zero omitted, Abs format (unit mm)*
G04 Created by KiCad (PCBNEW 8.0.1) date 2024-09-30 12:45:29*
%MOMM*%
%LPD*%
G01*
G04 APERTURE LIST*
G04 Aperture macros list*
%AMRoundRect*
0 Rectangle with rounded corners*
0 $1 Rounding radius*
0 $2 $3 $4 $5 $6 $7 $8 $9 X,Y pos of 4 corners*
0 Add a 4 corners polygon primitive as box body*
4,1,4,$2,$3,$4,$5,$6,$7,$8,$9,$2,$3,0*
0 Add four circle primitives for the rounded corners*
1,1,$1+$1,$2,$3*
1,1,$1+$1,$4,$5*
1,1,$1+$1,$6,$7*
1,1,$1+$1,$8,$9*
0 Add four rect primitives between the rounded corners*
20,1,$1+$1,$2,$3,$4,$5,0*
20,1,$1+$1,$4,$5,$6,$7,0*
20,1,$1+$1,$6,$7,$8,$9,0*
20,1,$1+$1,$8,$9,$2,$3,0*%
%AMHorizOval*
0 Thick line with rounded ends*
0 $1 width*
0 $2 $3 position (X,Y) of the first rounded end (center of the circle)*
0 $4 $5 position (X,Y) of the second rounded end (center of the circle)*
0 Add line between two ends*
20,1,$1,$2,$3,$4,$5,0*
0 Add two circle primitives to create the rounded ends*
1,1,$1,$2,$3*
1,1,$1,$4,$5*%
%AMRotRect*
0 Rectangle, with rotation*
0 The origin of the aperture is its center*
0 $1 length*
0 $2 width*
0 $3 Rotation angle, in degrees counterclockwise*
0 Add horizontal line*
21,1,$1,$2,0,0,$3*%
G04 Aperture macros list end*
%ADD10C,0.010000*%
%ADD11RotRect,2.900000X5.400000X225.000000*%
%ADD12RotRect,1.700000X1.700000X344.000000*%
%ADD13HorizOval,1.700000X0.000000X0.000000X0.000000X0.000000X0*%
%ADD14R,1.700000X1.700000*%
%ADD15O,1.700000X1.700000*%
%ADD16C,2.200000*%
%ADD17RotRect,4.000000X4.000000X37.000000*%
%ADD18C,2.050000*%
%ADD19C,2.250000*%
%ADD20RotRect,4.000000X4.000000X52.000000*%
%ADD21C,0.600000*%
%ADD22RoundRect,0.250000X-0.475000X0.250000X-0.475000X-0.250000X0.475000X-0.250000X0.475000X0.250000X0*%
%ADD23RoundRect,0.250000X-1.166726X0.247487X0.247487X-1.166726X1.166726X-0.247487X-0.247487X1.166726X0*%
%ADD24RoundRect,0.135000X-0.226274X-0.035355X-0.035355X-0.226274X0.226274X0.035355X0.035355X0.226274X0*%
%ADD25RoundRect,0.250000X-0.159099X0.512652X-0.512652X0.159099X0.159099X-0.512652X0.512652X-0.159099X0*%
%ADD26RoundRect,0.375000X0.625000X0.375000X-0.625000X0.375000X-0.625000X-0.375000X0.625000X-0.375000X0*%
%ADD27RoundRect,0.500000X0.500000X1.400000X-0.500000X1.400000X-0.500000X-1.400000X0.500000X-1.400000X0*%
%ADD28RoundRect,0.135000X0.185000X-0.135000X0.185000X0.135000X-0.185000X0.135000X-0.185000X-0.135000X0*%
%ADD29RoundRect,0.135000X0.135000X0.185000X-0.135000X0.185000X-0.135000X-0.185000X0.135000X-0.185000X0*%
%ADD30RoundRect,0.250000X-1.661701X1.237437X1.237437X-1.661701X1.661701X-1.237437X-1.237437X1.661701X0*%
%ADD31RoundRect,0.250002X-6.788222X-0.494975X-0.494975X-6.788222X6.788222X0.494975X0.494975X6.788222X0*%
%ADD32RotRect,4.000000X4.000000X143.000000*%
%ADD33RotRect,4.000000X4.000000X128.000000*%
%ADD34RoundRect,0.250000X-0.671751X-2.085965X2.085965X0.671751X0.671751X2.085965X-2.085965X-0.671751X0*%
%ADD35RoundRect,0.250000X0.250000X0.475000X-0.250000X0.475000X-0.250000X-0.475000X0.250000X-0.475000X0*%
G04 APERTURE END LIST*
D10*
%TO.C,J1*%
X94831000Y-121922000D02*
X94857000Y-121924000D01*
X94883000Y-121927000D01*
X94909001Y-121932000D01*
X94934000Y-121938000D01*
X94960000Y-121945000D01*
X94984000Y-121954000D01*
X95008001Y-121964000D01*
X95032000Y-121975000D01*
X95055000Y-121988000D01*
X95077000Y-122002000D01*
X95099000Y-122016000D01*
X95120000Y-122032001D01*
X95140000Y-122049000D01*
X95159000Y-122067000D01*
X95177000Y-122086000D01*
X95194000Y-122106001D01*
X95210000Y-122127000D01*
X95224000Y-122149000D01*
X95238000Y-122171000D01*
X95251000Y-122194000D01*
X95262000Y-122218000D01*
X95272000Y-122242000D01*
X95281000Y-122266000D01*
X95288000Y-122291999D01*
X95294000Y-122317000D01*
X95299000Y-122343000D01*
X95302000Y-122369000D01*
X95304000Y-122395000D01*
X95305000Y-122421000D01*
X95304000Y-122451000D01*
X95301000Y-122478000D01*
X95297000Y-122504000D01*
X95292000Y-122530000D01*
X95285000Y-122555000D01*
X95278000Y-122580000D01*
X95268000Y-122605000D01*
X95258000Y-122629000D01*
X95246000Y-122652999D01*
X95233000Y-122676000D01*
X95219000Y-122698000D01*
X95203000Y-122720000D01*
X95187000Y-122741000D01*
X95169000Y-122760000D01*
X95151000Y-122779000D01*
X95131000Y-122797000D01*
X95111000Y-122814000D01*
X95090000Y-122830000D01*
X95068000Y-122844000D01*
X95045000Y-122858000D01*
X95021000Y-122870001D01*
X94997000Y-122881000D01*
X94973000Y-122891000D01*
X94948000Y-122899000D01*
X94922000Y-122906000D01*
X94896000Y-122912000D01*
X94869999Y-122916000D01*
X94844000Y-122919000D01*
X94818000Y-122921000D01*
X94795000Y-122921000D01*
X93694999Y-122921000D01*
X93665000Y-122920000D01*
X93640000Y-122917000D01*
X93614000Y-122914000D01*
X93589000Y-122908000D01*
X93563999Y-122902000D01*
X93539000Y-122894000D01*
X93515000Y-122885000D01*
X93491000Y-122875000D01*
X93468000Y-122863000D01*
X93445000Y-122850000D01*
X93422999Y-122836000D01*
X93402001Y-122821000D01*
X93382000Y-122805000D01*
X93362000Y-122788000D01*
X93344000Y-122770000D01*
X93326000Y-122751000D01*
X93310000Y-122731000D01*
X93294000Y-122710000D01*
X93280000Y-122688000D01*
X93267000Y-122666000D01*
X93255000Y-122643000D01*
X93244000Y-122619000D01*
X93235000Y-122595000D01*
X93227000Y-122571000D01*
X93220000Y-122546000D01*
X93214000Y-122520000D01*
X93210000Y-122495000D01*
X93207000Y-122469000D01*
X93205000Y-122443000D01*
X93205000Y-122421000D01*
X93206000Y-122395000D01*
X93208000Y-122369001D01*
X93211000Y-122343000D01*
X93216000Y-122317000D01*
X93222000Y-122292000D01*
X93229000Y-122266000D01*
X93238000Y-122242000D01*
X93248000Y-122218000D01*
X93258999Y-122194000D01*
X93272000Y-122171000D01*
X93286000Y-122149000D01*
X93300000Y-122127000D01*
X93316000Y-122106000D01*
X93333000Y-122086000D01*
X93351000Y-122067000D01*
X93370000Y-122049000D01*
X93390000Y-122032000D01*
X93411001Y-122016000D01*
X93433000Y-122001999D01*
X93455000Y-121988000D01*
X93478000Y-121975000D01*
X93502000Y-121964000D01*
X93526000Y-121954000D01*
X93550000Y-121945000D01*
X93576000Y-121938000D01*
X93601000Y-121932000D01*
X93627000Y-121927000D01*
X93653000Y-121924001D01*
X93679000Y-121922000D01*
X93705000Y-121921000D01*
X94805000Y-121921000D01*
X94831000Y-121922000D01*
G36*
X94831000Y-121922000D02*
G01*
X94857000Y-121924000D01*
X94883000Y-121927000D01*
X94909001Y-121932000D01*
X94934000Y-121938000D01*
X94960000Y-121945000D01*
X94984000Y-121954000D01*
X95008001Y-121964000D01*
X95032000Y-121975000D01*
X95055000Y-121988000D01*
X95077000Y-122002000D01*
X95099000Y-122016000D01*
X95120000Y-122032001D01*
X95140000Y-122049000D01*
X95159000Y-122067000D01*
X95177000Y-122086000D01*
X95194000Y-122106001D01*
X95210000Y-122127000D01*
X95224000Y-122149000D01*
X95238000Y-122171000D01*
X95251000Y-122194000D01*
X95262000Y-122218000D01*
X95272000Y-122242000D01*
X95281000Y-122266000D01*
X95288000Y-122291999D01*
X95294000Y-122317000D01*
X95299000Y-122343000D01*
X95302000Y-122369000D01*
X95304000Y-122395000D01*
X95305000Y-122421000D01*
X95304000Y-122451000D01*
X95301000Y-122478000D01*
X95297000Y-122504000D01*
X95292000Y-122530000D01*
X95285000Y-122555000D01*
X95278000Y-122580000D01*
X95268000Y-122605000D01*
X95258000Y-122629000D01*
X95246000Y-122652999D01*
X95233000Y-122676000D01*
X95219000Y-122698000D01*
X95203000Y-122720000D01*
X95187000Y-122741000D01*
X95169000Y-122760000D01*
X95151000Y-122779000D01*
X95131000Y-122797000D01*
X95111000Y-122814000D01*
X95090000Y-122830000D01*
X95068000Y-122844000D01*
X95045000Y-122858000D01*
X95021000Y-122870001D01*
X94997000Y-122881000D01*
X94973000Y-122891000D01*
X94948000Y-122899000D01*
X94922000Y-122906000D01*
X94896000Y-122912000D01*
X94869999Y-122916000D01*
X94844000Y-122919000D01*
X94818000Y-122921000D01*
X94795000Y-122921000D01*
X93694999Y-122921000D01*
X93665000Y-122920000D01*
X93640000Y-122917000D01*
X93614000Y-122914000D01*
X93589000Y-122908000D01*
X93563999Y-122902000D01*
X93539000Y-122894000D01*
X93515000Y-122885000D01*
X93491000Y-122875000D01*
X93468000Y-122863000D01*
X93445000Y-122850000D01*
X93422999Y-122836000D01*
X93402001Y-122821000D01*
X93382000Y-122805000D01*
X93362000Y-122788000D01*
X93344000Y-122770000D01*
X93326000Y-122751000D01*
X93310000Y-122731000D01*
X93294000Y-122710000D01*
X93280000Y-122688000D01*
X93267000Y-122666000D01*
X93255000Y-122643000D01*
X93244000Y-122619000D01*
X93235000Y-122595000D01*
X93227000Y-122571000D01*
X93220000Y-122546000D01*
X93214000Y-122520000D01*
X93210000Y-122495000D01*
X93207000Y-122469000D01*
X93205000Y-122443000D01*
X93205000Y-122421000D01*
X93206000Y-122395000D01*
X93208000Y-122369001D01*
X93211000Y-122343000D01*
X93216000Y-122317000D01*
X93222000Y-122292000D01*
X93229000Y-122266000D01*
X93238000Y-122242000D01*
X93248000Y-122218000D01*
X93258999Y-122194000D01*
X93272000Y-122171000D01*
X93286000Y-122149000D01*
X93300000Y-122127000D01*
X93316000Y-122106000D01*
X93333000Y-122086000D01*
X93351000Y-122067000D01*
X93370000Y-122049000D01*
X93390000Y-122032000D01*
X93411001Y-122016000D01*
X93433000Y-122001999D01*
X93455000Y-121988000D01*
X93478000Y-121975000D01*
X93502000Y-121964000D01*
X93526000Y-121954000D01*
X93550000Y-121945000D01*
X93576000Y-121938000D01*
X93601000Y-121932000D01*
X93627000Y-121927000D01*
X93653000Y-121924001D01*
X93679000Y-121922000D01*
X93705000Y-121921000D01*
X94805000Y-121921000D01*
X94831000Y-121922000D01*
G37*
X94805000Y-130571000D02*
X94831000Y-130572000D01*
X94857000Y-130574000D01*
X94883000Y-130577000D01*
X94909000Y-130582000D01*
X94934000Y-130588000D01*
X94960000Y-130595000D01*
X94984001Y-130604000D01*
X95008000Y-130614000D01*
X95032000Y-130625000D01*
X95055000Y-130638000D01*
X95077000Y-130652001D01*
X95099000Y-130666000D01*
X95120000Y-130682000D01*
X95140000Y-130699000D01*
X95159000Y-130717000D01*
X95177000Y-130736000D01*
X95194000Y-130756000D01*
X95210000Y-130777000D01*
X95224000Y-130799000D01*
X95238000Y-130821000D01*
X95251000Y-130844001D01*
X95262000Y-130868000D01*
X95272000Y-130892000D01*
X95281000Y-130916000D01*
X95288000Y-130942000D01*
X95294000Y-130967000D01*
X95299000Y-130993000D01*
X95302000Y-131019000D01*
X95304000Y-131045000D01*
X95305000Y-131071000D01*
X95304000Y-131097000D01*
X95302000Y-131123000D01*
X95299000Y-131149000D01*
X95294000Y-131175000D01*
X95288000Y-131200001D01*
X95281000Y-131226000D01*
X95272000Y-131250000D01*
X95262000Y-131274000D01*
X95251000Y-131298000D01*
X95238000Y-131321000D01*
X95224000Y-131343000D01*
X95210000Y-131365000D01*
X95194000Y-131385999D01*
X95177000Y-131406000D01*
X95159000Y-131425000D01*
X95140000Y-131443000D01*
X95120000Y-131459999D01*
X95099000Y-131476000D01*
X95077000Y-131490000D01*
X95055000Y-131504000D01*
X95032000Y-131517000D01*
X95008001Y-131528000D01*
X94984000Y-131538000D01*
X94960000Y-131547000D01*
X94934000Y-131554000D01*
X94909001Y-131560000D01*
X94883000Y-131565000D01*
X94857000Y-131568000D01*
X94831000Y-131570000D01*
X94805000Y-131571000D01*
X93705000Y-131571000D01*
X93679000Y-131570000D01*
X93653000Y-131567999D01*
X93627000Y-131565000D01*
X93601000Y-131560000D01*
X93576000Y-131554000D01*
X93550000Y-131547000D01*
X93526000Y-131538000D01*
X93502000Y-131528000D01*
X93478000Y-131517000D01*
X93455000Y-131504000D01*
X93433000Y-131490001D01*
X93411001Y-131476000D01*
X93390000Y-131460000D01*
X93370000Y-131443000D01*
X93351000Y-131425000D01*
X93333000Y-131406000D01*
X93316000Y-131386000D01*
X93300000Y-131365000D01*
X93286000Y-131343000D01*
X93272000Y-131321000D01*
X93258999Y-131298000D01*
X93248000Y-131274000D01*
X93238000Y-131250000D01*
X93229000Y-131226000D01*
X93222000Y-131200000D01*
X93216000Y-131175000D01*
X93211000Y-131149000D01*
X93208000Y-131122999D01*
X93206000Y-131097000D01*
X93205000Y-131071000D01*
X93206000Y-131045000D01*
X93208000Y-131019000D01*
X93211000Y-130993000D01*
X93216000Y-130967000D01*
X93221999Y-130942000D01*
X93229000Y-130916000D01*
X93238000Y-130892000D01*
X93248000Y-130868000D01*
X93259000Y-130844000D01*
X93272000Y-130821000D01*
X93286000Y-130799000D01*
X93300000Y-130777000D01*
X93316000Y-130756000D01*
X93333000Y-130736000D01*
X93351000Y-130717000D01*
X93370000Y-130699000D01*
X93390000Y-130682000D01*
X93411000Y-130666000D01*
X93433000Y-130652000D01*
X93455000Y-130638000D01*
X93478000Y-130625000D01*
X93502000Y-130614000D01*
X93526000Y-130604000D01*
X93549999Y-130595000D01*
X93576000Y-130588000D01*
X93601000Y-130582001D01*
X93627000Y-130577000D01*
X93653000Y-130574000D01*
X93679000Y-130572000D01*
X93705000Y-130570999D01*
X94805000Y-130571000D01*
G36*
X94805000Y-130571000D02*
G01*
X94831000Y-130572000D01*
X94857000Y-130574000D01*
X94883000Y-130577000D01*
X94909000Y-130582000D01*
X94934000Y-130588000D01*
X94960000Y-130595000D01*
X94984001Y-130604000D01*
X95008000Y-130614000D01*
X95032000Y-130625000D01*
X95055000Y-130638000D01*
X95077000Y-130652001D01*
X95099000Y-130666000D01*
X95120000Y-130682000D01*
X95140000Y-130699000D01*
X95159000Y-130717000D01*
X95177000Y-130736000D01*
X95194000Y-130756000D01*
X95210000Y-130777000D01*
X95224000Y-130799000D01*
X95238000Y-130821000D01*
X95251000Y-130844001D01*
X95262000Y-130868000D01*
X95272000Y-130892000D01*
X95281000Y-130916000D01*
X95288000Y-130942000D01*
X95294000Y-130967000D01*
X95299000Y-130993000D01*
X95302000Y-131019000D01*
X95304000Y-131045000D01*
X95305000Y-131071000D01*
X95304000Y-131097000D01*
X95302000Y-131123000D01*
X95299000Y-131149000D01*
X95294000Y-131175000D01*
X95288000Y-131200001D01*
X95281000Y-131226000D01*
X95272000Y-131250000D01*
X95262000Y-131274000D01*
X95251000Y-131298000D01*
X95238000Y-131321000D01*
X95224000Y-131343000D01*
X95210000Y-131365000D01*
X95194000Y-131385999D01*
X95177000Y-131406000D01*
X95159000Y-131425000D01*
X95140000Y-131443000D01*
X95120000Y-131459999D01*
X95099000Y-131476000D01*
X95077000Y-131490000D01*
X95055000Y-131504000D01*
X95032000Y-131517000D01*
X95008001Y-131528000D01*
X94984000Y-131538000D01*
X94960000Y-131547000D01*
X94934000Y-131554000D01*
X94909001Y-131560000D01*
X94883000Y-131565000D01*
X94857000Y-131568000D01*
X94831000Y-131570000D01*
X94805000Y-131571000D01*
X93705000Y-131571000D01*
X93679000Y-131570000D01*
X93653000Y-131567999D01*
X93627000Y-131565000D01*
X93601000Y-131560000D01*
X93576000Y-131554000D01*
X93550000Y-131547000D01*
X93526000Y-131538000D01*
X93502000Y-131528000D01*
X93478000Y-131517000D01*
X93455000Y-131504000D01*
X93433000Y-131490001D01*
X93411001Y-131476000D01*
X93390000Y-131460000D01*
X93370000Y-131443000D01*
X93351000Y-131425000D01*
X93333000Y-131406000D01*
X93316000Y-131386000D01*
X93300000Y-131365000D01*
X93286000Y-131343000D01*
X93272000Y-131321000D01*
X93258999Y-131298000D01*
X93248000Y-131274000D01*
X93238000Y-131250000D01*
X93229000Y-131226000D01*
X93222000Y-131200000D01*
X93216000Y-131175000D01*
X93211000Y-131149000D01*
X93208000Y-131122999D01*
X93206000Y-131097000D01*
X93205000Y-131071000D01*
X93206000Y-131045000D01*
X93208000Y-131019000D01*
X93211000Y-130993000D01*
X93216000Y-130967000D01*
X93221999Y-130942000D01*
X93229000Y-130916000D01*
X93238000Y-130892000D01*
X93248000Y-130868000D01*
X93259000Y-130844000D01*
X93272000Y-130821000D01*
X93286000Y-130799000D01*
X93300000Y-130777000D01*
X93316000Y-130756000D01*
X93333000Y-130736000D01*
X93351000Y-130717000D01*
X93370000Y-130699000D01*
X93390000Y-130682000D01*
X93411000Y-130666000D01*
X93433000Y-130652000D01*
X93455000Y-130638000D01*
X93478000Y-130625000D01*
X93502000Y-130614000D01*
X93526000Y-130604000D01*
X93549999Y-130595000D01*
X93576000Y-130588000D01*
X93601000Y-130582001D01*
X93627000Y-130577000D01*
X93653000Y-130574000D01*
X93679000Y-130572000D01*
X93705000Y-130570999D01*
X94805000Y-130571000D01*
G37*
X98851000Y-121921999D02*
X98877000Y-121924000D01*
X98903000Y-121926999D01*
X98929000Y-121932000D01*
X98954000Y-121938000D01*
X98980000Y-121945000D01*
X99004000Y-121954000D01*
X99028000Y-121964000D01*
X99051999Y-121975000D01*
X99074999Y-121988000D01*
X99097000Y-122002000D01*
X99119000Y-122016000D01*
X99140000Y-122032000D01*
X99160000Y-122049000D01*
X99179000Y-122067000D01*
X99197000Y-122086000D01*
X99214000Y-122106000D01*
X99230000Y-122127000D01*
X99244000Y-122149001D01*
X99257999Y-122171000D01*
X99271000Y-122194000D01*
X99282000Y-122218000D01*
X99292001Y-122242000D01*
X99301000Y-122266000D01*
X99308000Y-122292000D01*
X99314000Y-122317000D01*
X99319000Y-122343000D01*
X99322000Y-122369000D01*
X99324000Y-122394999D01*
X99325000Y-122421000D01*
X99324000Y-122447000D01*
X99322000Y-122473000D01*
X99319000Y-122499000D01*
X99314000Y-122525000D01*
X99308000Y-122550000D01*
X99301000Y-122576000D01*
X99292000Y-122600000D01*
X99282000Y-122624000D01*
X99271000Y-122648000D01*
X99258000Y-122671000D01*
X99244000Y-122693000D01*
X99230000Y-122715001D01*
X99214000Y-122736000D01*
X99196999Y-122756000D01*
X99179000Y-122774999D01*
X99160000Y-122792999D01*
X99140000Y-122810000D01*
X99119001Y-122826000D01*
X99097000Y-122840000D01*
X99075000Y-122854000D01*
X99052000Y-122867000D01*
X99027999Y-122878000D01*
X99004000Y-122888000D01*
X98980000Y-122897000D01*
X98954000Y-122904000D01*
X98929000Y-122910000D01*
X98903000Y-122915000D01*
X98877000Y-122918000D01*
X98851000Y-122920000D01*
X98825000Y-122921000D01*
X98025000Y-122921000D01*
X97999000Y-122920000D01*
X97973000Y-122918000D01*
X97947000Y-122915000D01*
X97921000Y-122910000D01*
X97896000Y-122904000D01*
X97870000Y-122897000D01*
X97846000Y-122888000D01*
X97822001Y-122878000D01*
X97798000Y-122867000D01*
X97775000Y-122854000D01*
X97753000Y-122840000D01*
X97730999Y-122826000D01*
X97710000Y-122810000D01*
X97690000Y-122792999D01*
X97671000Y-122774999D01*
X97653001Y-122756000D01*
X97636000Y-122736000D01*
X97620000Y-122715001D01*
X97606000Y-122693000D01*
X97592000Y-122671000D01*
X97579000Y-122648000D01*
X97568000Y-122624000D01*
X97558000Y-122600000D01*
X97549000Y-122576000D01*
X97542000Y-122550000D01*
X97536000Y-122525000D01*
X97531000Y-122499000D01*
X97528000Y-122473000D01*
X97526000Y-122447000D01*
X97525000Y-122421000D01*
X97526000Y-122394999D01*
X97528000Y-122369000D01*
X97531000Y-122343000D01*
X97536000Y-122317000D01*
X97542000Y-122292000D01*
X97549000Y-122266000D01*
X97557999Y-122242000D01*
X97568000Y-122218000D01*
X97579000Y-122194000D01*
X97592001Y-122171000D01*
X97606000Y-122149001D01*
X97620000Y-122127000D01*
X97636000Y-122106000D01*
X97653000Y-122086000D01*
X97671000Y-122067000D01*
X97690000Y-122049000D01*
X97710000Y-122032000D01*
X97731000Y-122016000D01*
X97753000Y-122002000D01*
X97775001Y-121988000D01*
X97798001Y-121975000D01*
X97822000Y-121964000D01*
X97846000Y-121954000D01*
X97870000Y-121945000D01*
X97896000Y-121938000D01*
X97921000Y-121932000D01*
X97947000Y-121926999D01*
X97973000Y-121924000D01*
X97999000Y-121921999D01*
X98025000Y-121921000D01*
X98825000Y-121921000D01*
X98851000Y-121921999D01*
G36*
X98851000Y-121921999D02*
G01*
X98877000Y-121924000D01*
X98903000Y-121926999D01*
X98929000Y-121932000D01*
X98954000Y-121938000D01*
X98980000Y-121945000D01*
X99004000Y-121954000D01*
X99028000Y-121964000D01*
X99051999Y-121975000D01*
X99074999Y-121988000D01*
X99097000Y-122002000D01*
X99119000Y-122016000D01*
X99140000Y-122032000D01*
X99160000Y-122049000D01*
X99179000Y-122067000D01*
X99197000Y-122086000D01*
X99214000Y-122106000D01*
X99230000Y-122127000D01*
X99244000Y-122149001D01*
X99257999Y-122171000D01*
X99271000Y-122194000D01*
X99282000Y-122218000D01*
X99292001Y-122242000D01*
X99301000Y-122266000D01*
X99308000Y-122292000D01*
X99314000Y-122317000D01*
X99319000Y-122343000D01*
X99322000Y-122369000D01*
X99324000Y-122394999D01*
X99325000Y-122421000D01*
X99324000Y-122447000D01*
X99322000Y-122473000D01*
X99319000Y-122499000D01*
X99314000Y-122525000D01*
X99308000Y-122550000D01*
X99301000Y-122576000D01*
X99292000Y-122600000D01*
X99282000Y-122624000D01*
X99271000Y-122648000D01*
X99258000Y-122671000D01*
X99244000Y-122693000D01*
X99230000Y-122715001D01*
X99214000Y-122736000D01*
X99196999Y-122756000D01*
X99179000Y-122774999D01*
X99160000Y-122792999D01*
X99140000Y-122810000D01*
X99119001Y-122826000D01*
X99097000Y-122840000D01*
X99075000Y-122854000D01*
X99052000Y-122867000D01*
X99027999Y-122878000D01*
X99004000Y-122888000D01*
X98980000Y-122897000D01*
X98954000Y-122904000D01*
X98929000Y-122910000D01*
X98903000Y-122915000D01*
X98877000Y-122918000D01*
X98851000Y-122920000D01*
X98825000Y-122921000D01*
X98025000Y-122921000D01*
X97999000Y-122920000D01*
X97973000Y-122918000D01*
X97947000Y-122915000D01*
X97921000Y-122910000D01*
X97896000Y-122904000D01*
X97870000Y-122897000D01*
X97846000Y-122888000D01*
X97822001Y-122878000D01*
X97798000Y-122867000D01*
X97775000Y-122854000D01*
X97753000Y-122840000D01*
X97730999Y-122826000D01*
X97710000Y-122810000D01*
X97690000Y-122792999D01*
X97671000Y-122774999D01*
X97653001Y-122756000D01*
X97636000Y-122736000D01*
X97620000Y-122715001D01*
X97606000Y-122693000D01*
X97592000Y-122671000D01*
X97579000Y-122648000D01*
X97568000Y-122624000D01*
X97558000Y-122600000D01*
X97549000Y-122576000D01*
X97542000Y-122550000D01*
X97536000Y-122525000D01*
X97531000Y-122499000D01*
X97528000Y-122473000D01*
X97526000Y-122447000D01*
X97525000Y-122421000D01*
X97526000Y-122394999D01*
X97528000Y-122369000D01*
X97531000Y-122343000D01*
X97536000Y-122317000D01*
X97542000Y-122292000D01*
X97549000Y-122266000D01*
X97557999Y-122242000D01*
X97568000Y-122218000D01*
X97579000Y-122194000D01*
X97592001Y-122171000D01*
X97606000Y-122149001D01*
X97620000Y-122127000D01*
X97636000Y-122106000D01*
X97653000Y-122086000D01*
X97671000Y-122067000D01*
X97690000Y-122049000D01*
X97710000Y-122032000D01*
X97731000Y-122016000D01*
X97753000Y-122002000D01*
X97775001Y-121988000D01*
X97798001Y-121975000D01*
X97822000Y-121964000D01*
X97846000Y-121954000D01*
X97870000Y-121945000D01*
X97896000Y-121938000D01*
X97921000Y-121932000D01*
X97947000Y-121926999D01*
X97973000Y-121924000D01*
X97999000Y-121921999D01*
X98025000Y-121921000D01*
X98825000Y-121921000D01*
X98851000Y-121921999D01*
G37*
X98851000Y-130572000D02*
X98877000Y-130574000D01*
X98903000Y-130577000D01*
X98929000Y-130582000D01*
X98954000Y-130588000D01*
X98980000Y-130595000D01*
X99004000Y-130604000D01*
X99027999Y-130614000D01*
X99052000Y-130625000D01*
X99075000Y-130638000D01*
X99097000Y-130652000D01*
X99119001Y-130666000D01*
X99140000Y-130682000D01*
X99160000Y-130699001D01*
X99179000Y-130717001D01*
X99196999Y-130736000D01*
X99214000Y-130756000D01*
X99230000Y-130776999D01*
X99244000Y-130799000D01*
X99258000Y-130821000D01*
X99271000Y-130844000D01*
X99282000Y-130868000D01*
X99292000Y-130892000D01*
X99301000Y-130916000D01*
X99308000Y-130942000D01*
X99314000Y-130967000D01*
X99319000Y-130993000D01*
X99322000Y-131019000D01*
X99324000Y-131045000D01*
X99325000Y-131071000D01*
X99324000Y-131097001D01*
X99322000Y-131123000D01*
X99319000Y-131149000D01*
X99314000Y-131175000D01*
X99308000Y-131200000D01*
X99301000Y-131226000D01*
X99292001Y-131250000D01*
X99282000Y-131274000D01*
X99271000Y-131298000D01*
X99257999Y-131321000D01*
X99244000Y-131342999D01*
X99230000Y-131365000D01*
X99214000Y-131386000D01*
X99197000Y-131406000D01*
X99179000Y-131425000D01*
X99160000Y-131443000D01*
X99140000Y-131460000D01*
X99119000Y-131476000D01*
X99097000Y-131490000D01*
X99074999Y-131504000D01*
X99051999Y-131517000D01*
X99028000Y-131528000D01*
X99004000Y-131538000D01*
X98980000Y-131547000D01*
X98954000Y-131554000D01*
X98929000Y-131560000D01*
X98903000Y-131565001D01*
X98877000Y-131568000D01*
X98851000Y-131570001D01*
X98825000Y-131571000D01*
X98025000Y-131571000D01*
X97999000Y-131570001D01*
X97973000Y-131568000D01*
X97947000Y-131565001D01*
X97921000Y-131560000D01*
X97896000Y-131554000D01*
X97870000Y-131547000D01*
X97846000Y-131538000D01*
X97822000Y-131528000D01*
X97798001Y-131517000D01*
X97775001Y-131504000D01*
X97753000Y-131490000D01*
X97731000Y-131476000D01*
X97710000Y-131460000D01*
X97690000Y-131443000D01*
X97671000Y-131425000D01*
X97653000Y-131406000D01*
X97636000Y-131386000D01*
X97620000Y-131365000D01*
X97606000Y-131342999D01*
X97592001Y-131321000D01*
X97579000Y-131298000D01*
X97568000Y-131274000D01*
X97557999Y-131250000D01*
X97549000Y-131226000D01*
X97542000Y-131200000D01*
X97536000Y-131175000D01*
X97531000Y-131149000D01*
X97528000Y-131123000D01*
X97526000Y-131097001D01*
X97525000Y-131071000D01*
X97526000Y-131045000D01*
X97528000Y-131019000D01*
X97531000Y-130993000D01*
X97536000Y-130967000D01*
X97542000Y-130942000D01*
X97549000Y-130916000D01*
X97558000Y-130892000D01*
X97568000Y-130868000D01*
X97579000Y-130844000D01*
X97592000Y-130821000D01*
X97606000Y-130799000D01*
X97620000Y-130776999D01*
X97636000Y-130756000D01*
X97653001Y-130736000D01*
X97671000Y-130717001D01*
X97690000Y-130699001D01*
X97710000Y-130682000D01*
X97730999Y-130666000D01*
X97753000Y-130652000D01*
X97775000Y-130638000D01*
X97798000Y-130625000D01*
X97822001Y-130614000D01*
X97846000Y-130604000D01*
X97870000Y-130595000D01*
X97896000Y-130588000D01*
X97921000Y-130582000D01*
X97947000Y-130577000D01*
X97973000Y-130574000D01*
X97999000Y-130572000D01*
X98025000Y-130571000D01*
X98825000Y-130571000D01*
X98851000Y-130572000D01*
G36*
X98851000Y-130572000D02*
G01*
X98877000Y-130574000D01*
X98903000Y-130577000D01*
X98929000Y-130582000D01*
X98954000Y-130588000D01*
X98980000Y-130595000D01*
X99004000Y-130604000D01*
X99027999Y-130614000D01*
X99052000Y-130625000D01*
X99075000Y-130638000D01*
X99097000Y-130652000D01*
X99119001Y-130666000D01*
X99140000Y-130682000D01*
X99160000Y-130699001D01*
X99179000Y-130717001D01*
X99196999Y-130736000D01*
X99214000Y-130756000D01*
X99230000Y-130776999D01*
X99244000Y-130799000D01*
X99258000Y-130821000D01*
X99271000Y-130844000D01*
X99282000Y-130868000D01*
X99292000Y-130892000D01*
X99301000Y-130916000D01*
X99308000Y-130942000D01*
X99314000Y-130967000D01*
X99319000Y-130993000D01*
X99322000Y-131019000D01*
X99324000Y-131045000D01*
X99325000Y-131071000D01*
X99324000Y-131097001D01*
X99322000Y-131123000D01*
X99319000Y-131149000D01*
X99314000Y-131175000D01*
X99308000Y-131200000D01*
X99301000Y-131226000D01*
X99292001Y-131250000D01*
X99282000Y-131274000D01*
X99271000Y-131298000D01*
X99257999Y-131321000D01*
X99244000Y-131342999D01*
X99230000Y-131365000D01*
X99214000Y-131386000D01*
X99197000Y-131406000D01*
X99179000Y-131425000D01*
X99160000Y-131443000D01*
X99140000Y-131460000D01*
X99119000Y-131476000D01*
X99097000Y-131490000D01*
X99074999Y-131504000D01*
X99051999Y-131517000D01*
X99028000Y-131528000D01*
X99004000Y-131538000D01*
X98980000Y-131547000D01*
X98954000Y-131554000D01*
X98929000Y-131560000D01*
X98903000Y-131565001D01*
X98877000Y-131568000D01*
X98851000Y-131570001D01*
X98825000Y-131571000D01*
X98025000Y-131571000D01*
X97999000Y-131570001D01*
X97973000Y-131568000D01*
X97947000Y-131565001D01*
X97921000Y-131560000D01*
X97896000Y-131554000D01*
X97870000Y-131547000D01*
X97846000Y-131538000D01*
X97822000Y-131528000D01*
X97798001Y-131517000D01*
X97775001Y-131504000D01*
X97753000Y-131490000D01*
X97731000Y-131476000D01*
X97710000Y-131460000D01*
X97690000Y-131443000D01*
X97671000Y-131425000D01*
X97653000Y-131406000D01*
X97636000Y-131386000D01*
X97620000Y-131365000D01*
X97606000Y-131342999D01*
X97592001Y-131321000D01*
X97579000Y-131298000D01*
X97568000Y-131274000D01*
X97557999Y-131250000D01*
X97549000Y-131226000D01*
X97542000Y-131200000D01*
X97536000Y-131175000D01*
X97531000Y-131149000D01*
X97528000Y-131123000D01*
X97526000Y-131097001D01*
X97525000Y-131071000D01*
X97526000Y-131045000D01*
X97528000Y-131019000D01*
X97531000Y-130993000D01*
X97536000Y-130967000D01*
X97542000Y-130942000D01*
X97549000Y-130916000D01*
X97558000Y-130892000D01*
X97568000Y-130868000D01*
X97579000Y-130844000D01*
X97592000Y-130821000D01*
X97606000Y-130799000D01*
X97620000Y-130776999D01*
X97636000Y-130756000D01*
X97653001Y-130736000D01*
X97671000Y-130717001D01*
X97690000Y-130699001D01*
X97710000Y-130682000D01*
X97730999Y-130666000D01*
X97753000Y-130652000D01*
X97775000Y-130638000D01*
X97798000Y-130625000D01*
X97822001Y-130614000D01*
X97846000Y-130604000D01*
X97870000Y-130595000D01*
X97896000Y-130588000D01*
X97921000Y-130582000D01*
X97947000Y-130577000D01*
X97973000Y-130574000D01*
X97999000Y-130572000D01*
X98025000Y-130571000D01*
X98825000Y-130571000D01*
X98851000Y-130572000D01*
G37*
%TD*%
D11*
%TO.C,L8*%
X80919379Y-117810221D03*
X73919021Y-124810579D03*
%TD*%
D12*
%TO.C,J6*%
X47939985Y-113151652D03*
D13*
X47239865Y-115593256D03*
X46539748Y-118034859D03*
%TD*%
D14*
%TO.C,SWD1*%
X66802000Y-153162000D03*
D15*
X69342000Y-153162000D03*
X71881999Y-153162000D03*
X74422000Y-153162000D03*
X76962000Y-153162000D03*
%TD*%
D16*
%TO.C,H1*%
X86512400Y-141224000D03*
%TD*%
%TO.C,H2*%
X57505600Y-112217200D03*
%TD*%
D17*
%TO.C,J4*%
X56007000Y-104013000D03*
%TD*%
D18*
%TO.C,P1*%
X47752000Y-126746000D03*
D19*
X45212000Y-124206000D03*
X45212000Y-129286000D03*
X50292000Y-124206000D03*
X50292000Y-129286000D03*
%TD*%
D20*
%TO.C,J5*%
X50927000Y-108839000D03*
%TD*%
D16*
%TO.C,H4*%
X86512400Y-112217200D03*
%TD*%
%TO.C,H3*%
X57505600Y-141224000D03*
%TD*%
D21*
%TO.C,J1*%
X94745000Y-129636001D03*
X94745000Y-123855999D03*
%TD*%
D22*
%TO.C,C48*%
X99060000Y-117795001D03*
X99060000Y-119694999D03*
%TD*%
D23*
%TO.C,D6*%
X60942786Y-115679786D03*
X63771214Y-118508214D03*
%TD*%
D24*
%TO.C,R17*%
X83306976Y-114244176D03*
X84028224Y-114965424D03*
%TD*%
D25*
%TO.C,C45*%
X61631751Y-100166249D03*
X60288249Y-101509751D03*
%TD*%
D24*
%TO.C,R16*%
X81884576Y-112821776D03*
X82605824Y-113543024D03*
%TD*%
D26*
%TO.C,U6*%
X96622000Y-114286000D03*
X96621999Y-116586000D03*
D27*
X90322001Y-116586000D03*
D26*
X96622000Y-118886000D03*
%TD*%
D28*
%TO.C,R18*%
X98806000Y-116460999D03*
X98806000Y-115441001D03*
%TD*%
D29*
%TO.C,R1*%
X83822000Y-130937000D03*
X82802000Y-130937000D03*
%TD*%
D30*
%TO.C,U5*%
X60060295Y-109064621D03*
X61262377Y-107862540D03*
X62464458Y-106660458D03*
D31*
X68934485Y-113130485D03*
D30*
X63666540Y-105458377D03*
X64868621Y-104256295D03*
%TD*%
D32*
%TO.C,J2*%
X88138000Y-104013000D03*
%TD*%
D33*
%TO.C,J3*%
X93218000Y-108839000D03*
%TD*%
D34*
%TO.C,C46*%
X63831966Y-136421635D03*
X69771662Y-130481939D03*
%TD*%
D35*
%TO.C,C47*%
X90739000Y-121285000D03*
X88839000Y-121285000D03*
%TD*%
M02*
