%TF.GenerationSoftware,KiCad,Pcbnew,8.0.1*%
%TF.CreationDate,2025-05-01T03:19:42-07:00*%
%TF.ProjectId,rocketBeaconModule,726f636b-6574-4426-9561-636f6e4d6f64,rev?*%
%TF.SameCoordinates,Original*%
%TF.FileFunction,Paste,Top*%
%TF.FilePolarity,Positive*%
%FSLAX46Y46*%
G04 Gerber Fmt 4.6, Leading zero omitted, Abs format (unit mm)*
G04 Created by KiCad (PCBNEW 8.0.1) date 2025-05-01 03:19:42*
%MOMM*%
%LPD*%
G01*
G04 APERTURE LIST*
G04 Aperture macros list*
%AMRoundRect*
0 Rectangle with rounded corners*
0 $1 Rounding radius*
0 $2 $3 $4 $5 $6 $7 $8 $9 X,Y pos of 4 corners*
0 Add a 4 corners polygon primitive as box body*
4,1,4,$2,$3,$4,$5,$6,$7,$8,$9,$2,$3,0*
0 Add four circle primitives for the rounded corners*
1,1,$1+$1,$2,$3*
1,1,$1+$1,$4,$5*
1,1,$1+$1,$6,$7*
1,1,$1+$1,$8,$9*
0 Add four rect primitives between the rounded corners*
20,1,$1+$1,$2,$3,$4,$5,0*
20,1,$1+$1,$4,$5,$6,$7,0*
20,1,$1+$1,$6,$7,$8,$9,0*
20,1,$1+$1,$8,$9,$2,$3,0*%
%AMRotRect*
0 Rectangle, with rotation*
0 The origin of the aperture is its center*
0 $1 length*
0 $2 width*
0 $3 Rotation angle, in degrees counterclockwise*
0 Add horizontal line*
21,1,$1,$2,0,0,$3*%
G04 Aperture macros list end*
%ADD10RoundRect,0.140000X-0.219203X-0.021213X-0.021213X-0.219203X0.219203X0.021213X0.021213X0.219203X0*%
%ADD11RoundRect,0.140000X0.219203X0.021213X0.021213X0.219203X-0.219203X-0.021213X-0.021213X-0.219203X0*%
%ADD12RoundRect,0.140000X-0.021213X0.219203X-0.219203X0.021213X0.021213X-0.219203X0.219203X-0.021213X0*%
%ADD13RoundRect,0.232500X0.328805X0.000000X0.000000X0.328805X-0.328805X0.000000X0.000000X-0.328805X0*%
%ADD14RoundRect,0.062500X0.309359X-0.220971X-0.220971X0.309359X-0.309359X0.220971X0.220971X-0.309359X0*%
%ADD15RoundRect,0.062500X0.309359X0.220971X0.220971X0.309359X-0.309359X-0.220971X-0.220971X-0.309359X0*%
%ADD16R,0.350000X0.350000*%
%ADD17R,0.300000X0.900000*%
%ADD18R,0.900000X0.300000*%
%ADD19R,1.800000X1.800000*%
%ADD20RoundRect,0.135000X-0.135000X-0.185000X0.135000X-0.185000X0.135000X0.185000X-0.135000X0.185000X0*%
%ADD21RoundRect,0.140000X0.021213X-0.219203X0.219203X-0.021213X-0.021213X0.219203X-0.219203X0.021213X0*%
%ADD22RoundRect,0.140000X0.170000X-0.140000X0.170000X0.140000X-0.170000X0.140000X-0.170000X-0.140000X0*%
%ADD23R,0.400000X1.000000*%
%ADD24R,2.000000X1.300000*%
%ADD25RoundRect,0.140000X-0.140000X-0.170000X0.140000X-0.170000X0.140000X0.170000X-0.140000X0.170000X0*%
%ADD26RoundRect,0.135000X-0.185000X0.135000X-0.185000X-0.135000X0.185000X-0.135000X0.185000X0.135000X0*%
%ADD27RoundRect,0.200000X0.200000X0.275000X-0.200000X0.275000X-0.200000X-0.275000X0.200000X-0.275000X0*%
%ADD28RoundRect,0.147500X-0.226274X-0.017678X-0.017678X-0.226274X0.226274X0.017678X0.017678X0.226274X0*%
%ADD29RoundRect,0.140000X0.140000X0.170000X-0.140000X0.170000X-0.140000X-0.170000X0.140000X-0.170000X0*%
%ADD30RoundRect,0.135000X0.135000X0.185000X-0.135000X0.185000X-0.135000X-0.185000X0.135000X-0.185000X0*%
%ADD31RoundRect,0.250000X0.000000X0.445477X-0.445477X0.000000X0.000000X-0.445477X0.445477X0.000000X0*%
%ADD32RoundRect,0.062500X0.220971X0.309359X-0.309359X-0.220971X-0.220971X-0.309359X0.309359X0.220971X0*%
%ADD33RoundRect,0.062500X-0.220971X0.309359X-0.309359X0.220971X0.220971X-0.309359X0.309359X-0.220971X0*%
%ADD34RoundRect,0.147500X-0.147500X-0.172500X0.147500X-0.172500X0.147500X0.172500X-0.147500X0.172500X0*%
%ADD35RoundRect,0.147500X0.147500X0.172500X-0.147500X0.172500X-0.147500X-0.172500X0.147500X-0.172500X0*%
%ADD36RoundRect,0.100000X-0.229810X0.088388X0.088388X-0.229810X0.229810X-0.088388X-0.088388X0.229810X0*%
%ADD37RoundRect,0.225000X0.250000X-0.225000X0.250000X0.225000X-0.250000X0.225000X-0.250000X-0.225000X0*%
%ADD38RoundRect,0.218750X0.335876X0.026517X0.026517X0.335876X-0.335876X-0.026517X-0.026517X-0.335876X0*%
%ADD39RoundRect,0.150000X0.512500X0.150000X-0.512500X0.150000X-0.512500X-0.150000X0.512500X-0.150000X0*%
%ADD40RotRect,1.300000X1.100000X315.000000*%
%ADD41R,1.140000X0.600000*%
%ADD42R,1.140000X0.300000*%
%ADD43RoundRect,0.135000X-0.226274X-0.035355X-0.035355X-0.226274X0.226274X0.035355X0.035355X0.226274X0*%
%ADD44RoundRect,0.075000X0.225000X-0.715000X0.225000X0.715000X-0.225000X0.715000X-0.225000X-0.715000X0*%
%ADD45RotRect,1.400000X1.200000X45.000000*%
%ADD46RoundRect,0.225000X0.017678X-0.335876X0.335876X-0.017678X-0.017678X0.335876X-0.335876X0.017678X0*%
G04 APERTURE END LIST*
D10*
%TO.C,R9*%
X68782827Y-136038674D03*
X69461649Y-136717496D03*
%TD*%
D11*
%TO.C,C7*%
X87969411Y-146389411D03*
X87290589Y-145710589D03*
%TD*%
D12*
%TO.C,L1*%
X68044607Y-136776893D03*
X67365785Y-137455715D03*
%TD*%
D13*
%TO.C,U3*%
X68782827Y-143053173D03*
X69596000Y-142240000D03*
X70409173Y-141426827D03*
X67969654Y-142240000D03*
X68782827Y-141426827D03*
X69596000Y-140613654D03*
X67156481Y-141426827D03*
X67969654Y-140613654D03*
X68782827Y-139800481D03*
D14*
X69268963Y-144387837D03*
X69622516Y-144034283D03*
X69976070Y-143680730D03*
X70329623Y-143327176D03*
X70683176Y-142973623D03*
X71036730Y-142620070D03*
X71390283Y-142266516D03*
X71743837Y-141912963D03*
D15*
X71743837Y-140940691D03*
X71390283Y-140587138D03*
X71036730Y-140233584D03*
X70683176Y-139880031D03*
X70329623Y-139526478D03*
X69976070Y-139172924D03*
X69622516Y-138819371D03*
X69268963Y-138465817D03*
D14*
X68296691Y-138465817D03*
X67943138Y-138819371D03*
X67589584Y-139172924D03*
X67236031Y-139526478D03*
X66882478Y-139880031D03*
X66528924Y-140233584D03*
X66175371Y-140587138D03*
X65821817Y-140940691D03*
D15*
X65821817Y-141912963D03*
X66175371Y-142266516D03*
X66528924Y-142620070D03*
X66882478Y-142973623D03*
X67236031Y-143327176D03*
X67589584Y-143680730D03*
X67943138Y-144034283D03*
X68296691Y-144387837D03*
%TD*%
D16*
%TO.C,U2*%
X95242000Y-134412000D03*
D17*
X94742001Y-134112000D03*
X94242000Y-134112000D03*
X93742000Y-134112000D03*
X93241999Y-134112000D03*
D16*
X92742000Y-134412000D03*
D18*
X92442000Y-134911999D03*
X92442000Y-135412000D03*
X92442000Y-135912000D03*
X92442000Y-136412001D03*
D16*
X92742000Y-136912000D03*
D17*
X93241999Y-137212000D03*
X93742000Y-137212000D03*
X94242000Y-137212000D03*
X94742001Y-137212000D03*
D16*
X95242000Y-136912000D03*
D18*
X95542000Y-136412001D03*
X95542000Y-135912000D03*
X95542000Y-135412000D03*
X95542000Y-134911999D03*
D19*
X93992000Y-135662000D03*
%TD*%
D12*
%TO.C,C36*%
X65815068Y-149210245D03*
X65136246Y-149889067D03*
%TD*%
D20*
%TO.C,R3*%
X91184000Y-128143000D03*
X92204000Y-128143000D03*
%TD*%
D11*
%TO.C,C11*%
X83651411Y-140547411D03*
X82972589Y-139868589D03*
%TD*%
D21*
%TO.C,C26*%
X69540846Y-135280655D03*
X70219668Y-134601833D03*
%TD*%
D10*
%TO.C,C16*%
X72558589Y-144694589D03*
X73237411Y-145373411D03*
%TD*%
D20*
%TO.C,R10*%
X98931000Y-132334000D03*
X99951000Y-132334000D03*
%TD*%
D11*
%TO.C,L7*%
X62077600Y-132232400D03*
X61398778Y-131553578D03*
%TD*%
D10*
%TO.C,C32*%
X60767702Y-137315824D03*
X61446524Y-137994646D03*
%TD*%
D21*
%TO.C,C29*%
X63434272Y-142824070D03*
X64113094Y-142145248D03*
%TD*%
D11*
%TO.C,C70*%
X59978611Y-128761811D03*
X59299789Y-128082989D03*
%TD*%
%TO.C,C8*%
X81280000Y-153162000D03*
X80601178Y-152483178D03*
%TD*%
%TO.C,C68*%
X59267411Y-129422211D03*
X58588589Y-128743389D03*
%TD*%
D21*
%TO.C,C3*%
X92624589Y-144484411D03*
X93303411Y-143805589D03*
%TD*%
D11*
%TO.C,L6*%
X62324751Y-135999191D03*
X61645929Y-135320369D03*
%TD*%
D22*
%TO.C,C67*%
X81076800Y-134947600D03*
X81076800Y-133987600D03*
%TD*%
D11*
%TO.C,C10*%
X83397411Y-141817411D03*
X82718589Y-141138589D03*
%TD*%
D10*
%TO.C,C33*%
X63102569Y-136777009D03*
X63781391Y-137455831D03*
%TD*%
D23*
%TO.C,EX1*%
X75382000Y-106693999D03*
X74382000Y-106693999D03*
X73382000Y-106693999D03*
X72382000Y-106693999D03*
X71382000Y-106693999D03*
X70382000Y-106693999D03*
X69382000Y-106693999D03*
X68382000Y-106693999D03*
D24*
X78182000Y-103993999D03*
X65582000Y-103993999D03*
%TD*%
D25*
%TO.C,C20*%
X62816800Y-138938000D03*
X63776800Y-138938000D03*
%TD*%
D20*
%TO.C,R17*%
X65072801Y-119329200D03*
X66092799Y-119329200D03*
%TD*%
D11*
%TO.C,C37*%
X61339381Y-132931022D03*
X60660559Y-132252200D03*
%TD*%
D26*
%TO.C,R18*%
X80010000Y-133957601D03*
X80010000Y-134977599D03*
%TD*%
D27*
%TO.C,TH1*%
X63715400Y-119329200D03*
X62065400Y-119329200D03*
%TD*%
D21*
%TO.C,C73*%
X55997789Y-125205811D03*
X56676611Y-124526989D03*
%TD*%
D28*
%TO.C,L16*%
X62953853Y-133057853D03*
X63639747Y-133743747D03*
%TD*%
D10*
%TO.C,C6*%
X93259589Y-140503589D03*
X93938411Y-141182411D03*
%TD*%
D11*
%TO.C,R13*%
X60640759Y-130795559D03*
X59961937Y-130116737D03*
%TD*%
D29*
%TO.C,C21*%
X64465200Y-140349196D03*
X63505200Y-140349196D03*
%TD*%
D12*
%TO.C,C4*%
X87715411Y-147996589D03*
X87036589Y-148675411D03*
%TD*%
D20*
%TO.C,R11*%
X98931000Y-135509000D03*
X99951000Y-135509000D03*
%TD*%
D29*
%TO.C,C24*%
X61694000Y-139700000D03*
X60734000Y-139700000D03*
%TD*%
D30*
%TO.C,R5*%
X99823999Y-121158000D03*
X98804001Y-121158000D03*
%TD*%
D10*
%TO.C,C15*%
X71882000Y-145542000D03*
X72560822Y-146220822D03*
%TD*%
D31*
%TO.C,U1*%
X84989984Y-147123223D03*
X84000035Y-146133274D03*
X83010085Y-145143324D03*
X82020136Y-144153375D03*
X84000035Y-148113172D03*
X83010085Y-147123223D03*
X82020136Y-146133274D03*
X81030187Y-145143324D03*
X83010085Y-149103122D03*
X82020136Y-148113172D03*
X81030187Y-147123223D03*
X80040237Y-146133274D03*
X82020136Y-150093071D03*
X81030187Y-149103122D03*
X80040237Y-148113172D03*
X79050288Y-147123223D03*
D32*
X86395359Y-146637087D03*
X86041806Y-146283534D03*
X85688252Y-145929980D03*
X85334699Y-145576427D03*
X84981146Y-145222874D03*
X84627592Y-144869320D03*
X84274039Y-144515767D03*
X83920485Y-144162213D03*
X83566932Y-143808660D03*
X83213379Y-143455107D03*
X82859825Y-143101553D03*
X82506272Y-142748000D03*
D33*
X81534000Y-142748000D03*
X81180447Y-143101553D03*
X80826893Y-143455107D03*
X80473340Y-143808660D03*
X80119787Y-144162213D03*
X79766233Y-144515767D03*
X79412680Y-144869320D03*
X79059126Y-145222874D03*
X78705573Y-145576427D03*
X78352020Y-145929980D03*
X77998466Y-146283534D03*
X77644913Y-146637087D03*
D32*
X77644913Y-147609359D03*
X77998466Y-147962912D03*
X78352020Y-148316466D03*
X78705573Y-148670019D03*
X79059126Y-149023572D03*
X79412680Y-149377126D03*
X79766233Y-149730679D03*
X80119787Y-150084233D03*
X80473340Y-150437786D03*
X80826893Y-150791339D03*
X81180447Y-151144893D03*
X81534000Y-151498446D03*
D33*
X82506272Y-151498446D03*
X82859825Y-151144893D03*
X83213379Y-150791339D03*
X83566932Y-150437786D03*
X83920485Y-150084233D03*
X84274039Y-149730679D03*
X84627592Y-149377126D03*
X84981146Y-149023572D03*
X85334699Y-148670019D03*
X85688252Y-148316466D03*
X86041806Y-147962912D03*
X86395359Y-147609359D03*
%TD*%
D34*
%TO.C,D4*%
X98956000Y-133350000D03*
X99926000Y-133350000D03*
%TD*%
%TO.C,D5*%
X98956000Y-134493000D03*
X99926000Y-134493000D03*
%TD*%
D35*
%TO.C,D1*%
X99799000Y-120142000D03*
X98829000Y-120142000D03*
%TD*%
D36*
%TO.C,PE4259-63*%
X56836268Y-126071829D03*
X56376649Y-126531449D03*
X55917029Y-126991068D03*
X57260532Y-128334571D03*
X57720151Y-127874951D03*
X58179771Y-127415332D03*
%TD*%
D12*
%TO.C,C72*%
X55000211Y-126101789D03*
X54321389Y-126780611D03*
%TD*%
D30*
%TO.C,R1*%
X75592399Y-151638000D03*
X74572401Y-151638000D03*
%TD*%
D35*
%TO.C,D3*%
X99799000Y-119126000D03*
X98829000Y-119126000D03*
%TD*%
D37*
%TO.C,C1*%
X91440000Y-132728000D03*
X91440000Y-131178000D03*
%TD*%
D11*
%TO.C,L5*%
X65190724Y-135320253D03*
X64511902Y-134641431D03*
%TD*%
%TO.C,C69*%
X58556211Y-130133411D03*
X57877389Y-129454589D03*
%TD*%
D10*
%TO.C,C30*%
X65948743Y-136078272D03*
X66627565Y-136757094D03*
%TD*%
D21*
%TO.C,C28*%
X64389000Y-144780000D03*
X65067822Y-144101178D03*
%TD*%
D11*
%TO.C,R8*%
X72514937Y-136897101D03*
X71836115Y-136218279D03*
%TD*%
D29*
%TO.C,C13*%
X91793000Y-133985000D03*
X90833000Y-133985000D03*
%TD*%
D10*
%TO.C,C31*%
X61723748Y-149030640D03*
X62402570Y-149709462D03*
%TD*%
D20*
%TO.C,R4*%
X91311000Y-125095000D03*
X92331000Y-125095000D03*
%TD*%
D30*
%TO.C,R6*%
X99442999Y-116078000D03*
X98423001Y-116078000D03*
%TD*%
D12*
%TO.C,C9*%
X78063411Y-144186589D03*
X77384589Y-144865411D03*
%TD*%
D38*
%TO.C,FB1*%
X83917694Y-139035694D03*
X82804000Y-137922000D03*
%TD*%
D20*
%TO.C,R12*%
X90295000Y-135763000D03*
X91315000Y-135763000D03*
%TD*%
D35*
%TO.C,D2*%
X99799000Y-117094000D03*
X98829000Y-117094000D03*
%TD*%
D21*
%TO.C,C19*%
X70419073Y-137635320D03*
X71097895Y-136956498D03*
%TD*%
D10*
%TO.C,C27*%
X70938089Y-133883412D03*
X71616911Y-134562234D03*
%TD*%
D21*
%TO.C,C22*%
X70239467Y-136018874D03*
X70918289Y-135340052D03*
%TD*%
%TO.C,C5*%
X76114589Y-146389411D03*
X76793411Y-145710589D03*
%TD*%
%TO.C,C23*%
X63668589Y-144103411D03*
X64347411Y-143424589D03*
%TD*%
D11*
%TO.C,L4*%
X64499811Y-136737411D03*
X63820989Y-136058589D03*
%TD*%
D12*
%TO.C,L2*%
X65218232Y-137495430D03*
X64539410Y-138174252D03*
%TD*%
D39*
%TO.C,U8*%
X78556700Y-124560499D03*
X78556700Y-123610500D03*
X78556700Y-122660501D03*
X76281700Y-122660501D03*
X76281700Y-124560499D03*
%TD*%
D10*
%TO.C,C12*%
X81617178Y-138513178D03*
X82296000Y-139192000D03*
%TD*%
D40*
%TO.C,X1*%
X62174175Y-147414901D03*
X63659099Y-148899825D03*
X64825825Y-147733099D03*
X63340901Y-146248175D03*
%TD*%
D41*
%TO.C,J1*%
X93675000Y-129946000D03*
X93675000Y-129146000D03*
D42*
X93675000Y-127996000D03*
X93675000Y-126996000D03*
X93675000Y-126496000D03*
X93675000Y-125496000D03*
D41*
X93675000Y-123546000D03*
X93675000Y-124346000D03*
D42*
X93675000Y-124996000D03*
X93675000Y-125996000D03*
X93675000Y-127496000D03*
X93675000Y-128496000D03*
%TD*%
D11*
%TO.C,L3*%
X62164945Y-137276226D03*
X61486123Y-136597404D03*
%TD*%
%TO.C,C18*%
X68224213Y-146256366D03*
X67545391Y-145577544D03*
%TD*%
D21*
%TO.C,C35*%
X60925389Y-134603811D03*
X61604211Y-133924989D03*
%TD*%
%TO.C,C17*%
X71496703Y-138712951D03*
X72175525Y-138034129D03*
%TD*%
%TO.C,C25*%
X65684400Y-144881600D03*
X66363222Y-144202778D03*
%TD*%
D43*
%TO.C,R19*%
X58719776Y-126029776D03*
X59441024Y-126751024D03*
%TD*%
D10*
%TO.C,C34*%
X65230323Y-133923010D03*
X65909145Y-134601832D03*
%TD*%
D30*
%TO.C,R7*%
X99823999Y-118110000D03*
X98804001Y-118110000D03*
%TD*%
D44*
%TO.C,U7*%
X80645000Y-128296502D03*
X81915000Y-128296501D03*
X83185000Y-128296501D03*
X84455000Y-128296502D03*
X84455000Y-122956500D03*
X83185000Y-122956501D03*
X81915000Y-122956501D03*
X80645000Y-122956500D03*
%TD*%
D45*
%TO.C,Y1*%
X91263223Y-143872858D03*
X92818858Y-142317223D03*
X91616777Y-141115142D03*
X90061142Y-142670777D03*
%TD*%
D46*
%TO.C,C2*%
X81239992Y-137073008D03*
X82336008Y-135976992D03*
%TD*%
D25*
%TO.C,C71*%
X80619600Y-121259600D03*
X81579600Y-121259600D03*
%TD*%
M02*
