%TF.GenerationSoftware,KiCad,Pcbnew,8.0.1*%
%TF.CreationDate,2025-05-01T03:19:42-07:00*%
%TF.ProjectId,rocketBeaconModule,726f636b-6574-4426-9561-636f6e4d6f64,rev?*%
%TF.SameCoordinates,Original*%
%TF.FileFunction,Profile,NP*%
%FSLAX46Y46*%
G04 Gerber Fmt 4.6, Leading zero omitted, Abs format (unit mm)*
G04 Created by KiCad (PCBNEW 8.0.1) date 2025-05-01 03:19:42*
%MOMM*%
%LPD*%
G01*
G04 APERTURE LIST*
%TA.AperFunction,Profile*%
%ADD10C,0.100000*%
%TD*%
%TA.AperFunction,Profile*%
%ADD11C,0.010000*%
%TD*%
G04 APERTURE END LIST*
D10*
X64306354Y-99180746D02*
X65214500Y-101066600D01*
X100584000Y-136499600D02*
G75*
G02*
X81788000Y-155295600I-28383880J9587880D01*
G01*
X81915000Y-98145601D02*
G75*
G02*
X100583998Y-116941601I-9914050J-28516489D01*
G01*
X71945501Y-155295601D02*
X62103002Y-155295600D01*
X43434000Y-136499600D02*
X43434000Y-116941600D01*
X62103002Y-155295599D02*
G75*
G02*
X43434002Y-136499599I9909858J28512329D01*
G01*
X79838647Y-99180746D02*
G75*
G02*
X81915001Y-98145593I1907253J-1225654D01*
G01*
X65214500Y-101066600D02*
X78803500Y-101066600D01*
X100584000Y-126720600D02*
X100584000Y-116941600D01*
X100584000Y-136499600D02*
X100584000Y-126720600D01*
X43434000Y-116941600D02*
G75*
G02*
X62230000Y-98145600I28407800J-9611800D01*
G01*
X81788000Y-155295600D02*
X71945501Y-155295601D01*
X62230000Y-98145599D02*
G75*
G02*
X64306348Y-99180750I169100J-2260801D01*
G01*
X79838646Y-99180746D02*
X78803500Y-101066600D01*
D11*
%TO.C,J1*%
X93705000Y-122121000D02*
X94805000Y-122121001D01*
X93705000Y-130771000D02*
X94805000Y-130771000D01*
X94805000Y-122721000D02*
X93705000Y-122721000D01*
X94805000Y-131370999D02*
X93705000Y-131371000D01*
X98025000Y-122121000D02*
X98825000Y-122121000D01*
X98025000Y-130771000D02*
X98825000Y-130771000D01*
X98825000Y-122721000D02*
X98025000Y-122721000D01*
X98825000Y-131371000D02*
X98025000Y-131371000D01*
X93405000Y-122421000D02*
G75*
G02*
X93705000Y-122121000I300000J0D01*
G01*
X93405000Y-131071000D02*
G75*
G02*
X93705000Y-130771000I300000J0D01*
G01*
X93705000Y-122721000D02*
G75*
G02*
X93405000Y-122421000I0J300000D01*
G01*
X93705000Y-131371000D02*
G75*
G02*
X93405000Y-131071000I0J300000D01*
G01*
X94805000Y-122121001D02*
G75*
G02*
X95104999Y-122421000I0J-299999D01*
G01*
X94805000Y-130771000D02*
G75*
G02*
X95105000Y-131071000I0J-300000D01*
G01*
X95105000Y-122421000D02*
G75*
G02*
X94805000Y-122721000I-300000J0D01*
G01*
X95105000Y-131071000D02*
G75*
G02*
X94805000Y-131370999I-299998J-1D01*
G01*
X97725000Y-122421000D02*
G75*
G02*
X98025000Y-122121000I300000J0D01*
G01*
X97725000Y-131071000D02*
G75*
G02*
X98025000Y-130771000I300000J0D01*
G01*
X98025000Y-122721000D02*
G75*
G02*
X97725000Y-122421000I0J300000D01*
G01*
X98025000Y-131371000D02*
G75*
G02*
X97725000Y-131071000I0J300000D01*
G01*
X98825000Y-122121000D02*
G75*
G02*
X99125000Y-122421000I0J-300000D01*
G01*
X98825000Y-130771000D02*
G75*
G02*
X99125000Y-131071000I0J-300000D01*
G01*
X99125000Y-122421000D02*
G75*
G02*
X98825000Y-122721000I-300000J0D01*
G01*
X99125000Y-131071000D02*
G75*
G02*
X98825000Y-131371000I-300000J0D01*
G01*
%TD*%
M02*
