%TF.GenerationSoftware,KiCad,Pcbnew,8.0.1*%
%TF.CreationDate,2025-05-01T03:19:42-07:00*%
%TF.ProjectId,rocketBeaconModule,726f636b-6574-4426-9561-636f6e4d6f64,rev?*%
%TF.SameCoordinates,Original*%
%TF.FileFunction,Copper,L2,Bot*%
%TF.FilePolarity,Positive*%
%FSLAX46Y46*%
G04 Gerber Fmt 4.6, Leading zero omitted, Abs format (unit mm)*
G04 Created by KiCad (PCBNEW 8.0.1) date 2025-05-01 03:19:42*
%MOMM*%
%LPD*%
G01*
G04 APERTURE LIST*
G04 Aperture macros list*
%AMRoundRect*
0 Rectangle with rounded corners*
0 $1 Rounding radius*
0 $2 $3 $4 $5 $6 $7 $8 $9 X,Y pos of 4 corners*
0 Add a 4 corners polygon primitive as box body*
4,1,4,$2,$3,$4,$5,$6,$7,$8,$9,$2,$3,0*
0 Add four circle primitives for the rounded corners*
1,1,$1+$1,$2,$3*
1,1,$1+$1,$4,$5*
1,1,$1+$1,$6,$7*
1,1,$1+$1,$8,$9*
0 Add four rect primitives between the rounded corners*
20,1,$1+$1,$2,$3,$4,$5,0*
20,1,$1+$1,$4,$5,$6,$7,0*
20,1,$1+$1,$6,$7,$8,$9,0*
20,1,$1+$1,$8,$9,$2,$3,0*%
%AMRotRect*
0 Rectangle, with rotation*
0 The origin of the aperture is its center*
0 $1 length*
0 $2 width*
0 $3 Rotation angle, in degrees counterclockwise*
0 Add horizontal line*
21,1,$1,$2,0,0,$3*%
%AMFreePoly0*
4,1,19,0.500000,-0.750000,0.000000,-0.750000,0.000000,-0.744911,-0.071157,-0.744911,-0.207708,-0.704816,-0.327430,-0.627875,-0.420627,-0.520320,-0.479746,-0.390866,-0.500000,-0.250000,-0.500000,0.250000,-0.479746,0.390866,-0.420627,0.520320,-0.327430,0.627875,-0.207708,0.704816,-0.071157,0.744911,0.000000,0.744911,0.000000,0.750000,0.500000,0.750000,0.500000,-0.750000,0.500000,-0.750000,
$1*%
%AMFreePoly1*
4,1,19,0.000000,0.744911,0.071157,0.744911,0.207708,0.704816,0.327430,0.627875,0.420627,0.520320,0.479746,0.390866,0.500000,0.250000,0.500000,-0.250000,0.479746,-0.390866,0.420627,-0.520320,0.327430,-0.627875,0.207708,-0.704816,0.071157,-0.744911,0.000000,-0.744911,0.000000,-0.750000,-0.500000,-0.750000,-0.500000,0.750000,0.000000,0.750000,0.000000,0.744911,0.000000,0.744911,
$1*%
G04 Aperture macros list end*
%TA.AperFunction,EtchedComponent*%
%ADD10C,0.010000*%
%TD*%
%TA.AperFunction,EtchedComponent*%
%ADD11C,0.000000*%
%TD*%
%TA.AperFunction,ComponentPad*%
%ADD12R,1.700000X1.700000*%
%TD*%
%TA.AperFunction,ComponentPad*%
%ADD13O,1.700000X1.700000*%
%TD*%
%TA.AperFunction,ComponentPad*%
%ADD14RotRect,4.000000X4.000000X37.000000*%
%TD*%
%TA.AperFunction,ComponentPad*%
%ADD15RotRect,4.000000X4.000000X52.000000*%
%TD*%
%TA.AperFunction,ComponentPad*%
%ADD16C,2.050000*%
%TD*%
%TA.AperFunction,ComponentPad*%
%ADD17C,2.250000*%
%TD*%
%TA.AperFunction,ComponentPad*%
%ADD18C,0.900000*%
%TD*%
%TA.AperFunction,SMDPad,CuDef*%
%ADD19FreePoly0,180.000000*%
%TD*%
%TA.AperFunction,SMDPad,CuDef*%
%ADD20FreePoly1,180.000000*%
%TD*%
%TA.AperFunction,ComponentPad*%
%ADD21RotRect,4.000000X4.000000X143.000000*%
%TD*%
%TA.AperFunction,ComponentPad*%
%ADD22RotRect,4.000000X4.000000X128.000000*%
%TD*%
%TA.AperFunction,ComponentPad*%
%ADD23C,1.524000*%
%TD*%
%TA.AperFunction,SMDPad,CuDef*%
%ADD24RoundRect,1.166667X2.389333X-15.842333X2.389333X15.842333X-2.389333X15.842333X-2.389333X-15.842333X0*%
%TD*%
%TA.AperFunction,ComponentPad*%
%ADD25C,6.000000*%
%TD*%
%TA.AperFunction,ViaPad*%
%ADD26C,0.800000*%
%TD*%
%TA.AperFunction,ViaPad*%
%ADD27C,0.700000*%
%TD*%
%TA.AperFunction,Conductor*%
%ADD28C,0.250000*%
%TD*%
%TA.AperFunction,Conductor*%
%ADD29C,0.500000*%
%TD*%
%TA.AperFunction,Conductor*%
%ADD30C,1.000000*%
%TD*%
%TA.AperFunction,Conductor*%
%ADD31C,0.300000*%
%TD*%
G04 APERTURE END LIST*
D10*
%TO.C,J1*%
X94805000Y-121971001D02*
X94829000Y-121972000D01*
X94852000Y-121973000D01*
X94875000Y-121977000D01*
X94899000Y-121981000D01*
X94921000Y-121986000D01*
X94944000Y-121993000D01*
X94966000Y-122001000D01*
X94988000Y-122010000D01*
X95009000Y-122020000D01*
X95030000Y-122031000D01*
X95050001Y-122044000D01*
X95070000Y-122057000D01*
X95088000Y-122071000D01*
X95106000Y-122087000D01*
X95123000Y-122103000D01*
X95139000Y-122120000D01*
X95155000Y-122138000D01*
X95169000Y-122156000D01*
X95182000Y-122176000D01*
X95195000Y-122196000D01*
X95206000Y-122217000D01*
X95216000Y-122238000D01*
X95225000Y-122260000D01*
X95233000Y-122282000D01*
X95240000Y-122305000D01*
X95245000Y-122327001D01*
X95249000Y-122351000D01*
X95253000Y-122374000D01*
X95254000Y-122397000D01*
X95255000Y-122421000D01*
X95254000Y-122445000D01*
X95253000Y-122468000D01*
X95249000Y-122491001D01*
X95245000Y-122515000D01*
X95239999Y-122537000D01*
X95233000Y-122560000D01*
X95225000Y-122582000D01*
X95216000Y-122604000D01*
X95206000Y-122625000D01*
X95195000Y-122646000D01*
X95182000Y-122666000D01*
X95169000Y-122686000D01*
X95155000Y-122704000D01*
X95139000Y-122722000D01*
X95123000Y-122739001D01*
X95106000Y-122755000D01*
X95088000Y-122771000D01*
X95070000Y-122785000D01*
X95050000Y-122798000D01*
X95030000Y-122811000D01*
X95009000Y-122822000D01*
X94988000Y-122832000D01*
X94966001Y-122841000D01*
X94944000Y-122849000D01*
X94921000Y-122856000D01*
X94899000Y-122861000D01*
X94875000Y-122865001D01*
X94851999Y-122869000D01*
X94829000Y-122870000D01*
X94805000Y-122871000D01*
X93705000Y-122871000D01*
X93681000Y-122870001D01*
X93658000Y-122869000D01*
X93635000Y-122865000D01*
X93611000Y-122861000D01*
X93589000Y-122856000D01*
X93566000Y-122849000D01*
X93544000Y-122841000D01*
X93522000Y-122832001D01*
X93501000Y-122822000D01*
X93480000Y-122811000D01*
X93460000Y-122798000D01*
X93440000Y-122785000D01*
X93422000Y-122771000D01*
X93404000Y-122755000D01*
X93387000Y-122739000D01*
X93371000Y-122722000D01*
X93355000Y-122704000D01*
X93341001Y-122686000D01*
X93328000Y-122666000D01*
X93315000Y-122646000D01*
X93304000Y-122625000D01*
X93294000Y-122604000D01*
X93285001Y-122582000D01*
X93277000Y-122560000D01*
X93270000Y-122537000D01*
X93265000Y-122515000D01*
X93261000Y-122491000D01*
X93257000Y-122468000D01*
X93256000Y-122445000D01*
X93255000Y-122421000D01*
X93256000Y-122397001D01*
X93257000Y-122374000D01*
X93261000Y-122351000D01*
X93265000Y-122327000D01*
X93270000Y-122305000D01*
X93277000Y-122282000D01*
X93285000Y-122260000D01*
X93294000Y-122238001D01*
X93304000Y-122217000D01*
X93315000Y-122196000D01*
X93328000Y-122176000D01*
X93341000Y-122156000D01*
X93355001Y-122138000D01*
X93371000Y-122120000D01*
X93387000Y-122103000D01*
X93404000Y-122087000D01*
X93422000Y-122071000D01*
X93440000Y-122057000D01*
X93460000Y-122044000D01*
X93479999Y-122031000D01*
X93501000Y-122020000D01*
X93522000Y-122010000D01*
X93544000Y-122001000D01*
X93566000Y-121993000D01*
X93589000Y-121986000D01*
X93611000Y-121981000D01*
X93635000Y-121977000D01*
X93658000Y-121973000D01*
X93681000Y-121972000D01*
X93705000Y-121971000D01*
X94805000Y-121971001D01*
%TA.AperFunction,EtchedComponent*%
G36*
X94805000Y-121971001D02*
G01*
X94829000Y-121972000D01*
X94852000Y-121973000D01*
X94875000Y-121977000D01*
X94899000Y-121981000D01*
X94921000Y-121986000D01*
X94944000Y-121993000D01*
X94966000Y-122001000D01*
X94988000Y-122010000D01*
X95009000Y-122020000D01*
X95030000Y-122031000D01*
X95050001Y-122044000D01*
X95070000Y-122057000D01*
X95088000Y-122071000D01*
X95106000Y-122087000D01*
X95123000Y-122103000D01*
X95139000Y-122120000D01*
X95155000Y-122138000D01*
X95169000Y-122156000D01*
X95182000Y-122176000D01*
X95195000Y-122196000D01*
X95206000Y-122217000D01*
X95216000Y-122238000D01*
X95225000Y-122260000D01*
X95233000Y-122282000D01*
X95240000Y-122305000D01*
X95245000Y-122327001D01*
X95249000Y-122351000D01*
X95253000Y-122374000D01*
X95254000Y-122397000D01*
X95255000Y-122421000D01*
X95254000Y-122445000D01*
X95253000Y-122468000D01*
X95249000Y-122491001D01*
X95245000Y-122515000D01*
X95239999Y-122537000D01*
X95233000Y-122560000D01*
X95225000Y-122582000D01*
X95216000Y-122604000D01*
X95206000Y-122625000D01*
X95195000Y-122646000D01*
X95182000Y-122666000D01*
X95169000Y-122686000D01*
X95155000Y-122704000D01*
X95139000Y-122722000D01*
X95123000Y-122739001D01*
X95106000Y-122755000D01*
X95088000Y-122771000D01*
X95070000Y-122785000D01*
X95050000Y-122798000D01*
X95030000Y-122811000D01*
X95009000Y-122822000D01*
X94988000Y-122832000D01*
X94966001Y-122841000D01*
X94944000Y-122849000D01*
X94921000Y-122856000D01*
X94899000Y-122861000D01*
X94875000Y-122865001D01*
X94851999Y-122869000D01*
X94829000Y-122870000D01*
X94805000Y-122871000D01*
X93705000Y-122871000D01*
X93681000Y-122870001D01*
X93658000Y-122869000D01*
X93635000Y-122865000D01*
X93611000Y-122861000D01*
X93589000Y-122856000D01*
X93566000Y-122849000D01*
X93544000Y-122841000D01*
X93522000Y-122832001D01*
X93501000Y-122822000D01*
X93480000Y-122811000D01*
X93460000Y-122798000D01*
X93440000Y-122785000D01*
X93422000Y-122771000D01*
X93404000Y-122755000D01*
X93387000Y-122739000D01*
X93371000Y-122722000D01*
X93355000Y-122704000D01*
X93341001Y-122686000D01*
X93328000Y-122666000D01*
X93315000Y-122646000D01*
X93304000Y-122625000D01*
X93294000Y-122604000D01*
X93285001Y-122582000D01*
X93277000Y-122560000D01*
X93270000Y-122537000D01*
X93265000Y-122515000D01*
X93261000Y-122491000D01*
X93257000Y-122468000D01*
X93256000Y-122445000D01*
X93255000Y-122421000D01*
X93256000Y-122397001D01*
X93257000Y-122374000D01*
X93261000Y-122351000D01*
X93265000Y-122327000D01*
X93270000Y-122305000D01*
X93277000Y-122282000D01*
X93285000Y-122260000D01*
X93294000Y-122238001D01*
X93304000Y-122217000D01*
X93315000Y-122196000D01*
X93328000Y-122176000D01*
X93341000Y-122156000D01*
X93355001Y-122138000D01*
X93371000Y-122120000D01*
X93387000Y-122103000D01*
X93404000Y-122087000D01*
X93422000Y-122071000D01*
X93440000Y-122057000D01*
X93460000Y-122044000D01*
X93479999Y-122031000D01*
X93501000Y-122020000D01*
X93522000Y-122010000D01*
X93544000Y-122001000D01*
X93566000Y-121993000D01*
X93589000Y-121986000D01*
X93611000Y-121981000D01*
X93635000Y-121977000D01*
X93658000Y-121973000D01*
X93681000Y-121972000D01*
X93705000Y-121971000D01*
X94805000Y-121971001D01*
G37*
%TD.AperFunction*%
X94829000Y-130622000D02*
X94851999Y-130623000D01*
X94875000Y-130626999D01*
X94899000Y-130631000D01*
X94921000Y-130636000D01*
X94944000Y-130643000D01*
X94966001Y-130651000D01*
X94988000Y-130660000D01*
X95009000Y-130670000D01*
X95030000Y-130681000D01*
X95050000Y-130694000D01*
X95070000Y-130707000D01*
X95088000Y-130721000D01*
X95106000Y-130737000D01*
X95123000Y-130752999D01*
X95139000Y-130770000D01*
X95155000Y-130788000D01*
X95169000Y-130806000D01*
X95182000Y-130826000D01*
X95195000Y-130846000D01*
X95206000Y-130867000D01*
X95216000Y-130888000D01*
X95225000Y-130910000D01*
X95233000Y-130932000D01*
X95239999Y-130955000D01*
X95245000Y-130977000D01*
X95249000Y-131000999D01*
X95253000Y-131024000D01*
X95254000Y-131047000D01*
X95255000Y-131071000D01*
X95254000Y-131095000D01*
X95253000Y-131118000D01*
X95249000Y-131141000D01*
X95245000Y-131164999D01*
X95240000Y-131187000D01*
X95233000Y-131210000D01*
X95225000Y-131232000D01*
X95216000Y-131254000D01*
X95206000Y-131275000D01*
X95195000Y-131296000D01*
X95182000Y-131316000D01*
X95169000Y-131336000D01*
X95155000Y-131354000D01*
X95139000Y-131372000D01*
X95123000Y-131389000D01*
X95106000Y-131405000D01*
X95088000Y-131421000D01*
X95070000Y-131435000D01*
X95050001Y-131448000D01*
X95030000Y-131461000D01*
X95009000Y-131472000D01*
X94988000Y-131482000D01*
X94966000Y-131491000D01*
X94944000Y-131499000D01*
X94921000Y-131506000D01*
X94899000Y-131511000D01*
X94875000Y-131515000D01*
X94852000Y-131519000D01*
X94829000Y-131520000D01*
X94805000Y-131520999D01*
X93705000Y-131521000D01*
X93681000Y-131520000D01*
X93658000Y-131519000D01*
X93635000Y-131515000D01*
X93611000Y-131511000D01*
X93589000Y-131506000D01*
X93566000Y-131499000D01*
X93544000Y-131491000D01*
X93522000Y-131482000D01*
X93501000Y-131472000D01*
X93479999Y-131461000D01*
X93460000Y-131448000D01*
X93440000Y-131435000D01*
X93422000Y-131421000D01*
X93404000Y-131405000D01*
X93387000Y-131389000D01*
X93371000Y-131372000D01*
X93355001Y-131354000D01*
X93341000Y-131336000D01*
X93328000Y-131316000D01*
X93315000Y-131296000D01*
X93304000Y-131275000D01*
X93294000Y-131253999D01*
X93285000Y-131232000D01*
X93277000Y-131210000D01*
X93270000Y-131187000D01*
X93265000Y-131165000D01*
X93261000Y-131141000D01*
X93257000Y-131118000D01*
X93256000Y-131094999D01*
X93255000Y-131071000D01*
X93256000Y-131047000D01*
X93257000Y-131024000D01*
X93261000Y-131001000D01*
X93265000Y-130977000D01*
X93270000Y-130955000D01*
X93277000Y-130932000D01*
X93285001Y-130910000D01*
X93294000Y-130888000D01*
X93304000Y-130867000D01*
X93315000Y-130846000D01*
X93328000Y-130826000D01*
X93341001Y-130806000D01*
X93355000Y-130788000D01*
X93371000Y-130770000D01*
X93387000Y-130753000D01*
X93404000Y-130737000D01*
X93422000Y-130721000D01*
X93440000Y-130707000D01*
X93460000Y-130694000D01*
X93480000Y-130681000D01*
X93501000Y-130670000D01*
X93522000Y-130659999D01*
X93544000Y-130651000D01*
X93566000Y-130643000D01*
X93589000Y-130636000D01*
X93611000Y-130631000D01*
X93635000Y-130627000D01*
X93658000Y-130623000D01*
X93681000Y-130621999D01*
X93705000Y-130621000D01*
X94805000Y-130621000D01*
X94829000Y-130622000D01*
%TA.AperFunction,EtchedComponent*%
G36*
X94829000Y-130622000D02*
G01*
X94851999Y-130623000D01*
X94875000Y-130626999D01*
X94899000Y-130631000D01*
X94921000Y-130636000D01*
X94944000Y-130643000D01*
X94966001Y-130651000D01*
X94988000Y-130660000D01*
X95009000Y-130670000D01*
X95030000Y-130681000D01*
X95050000Y-130694000D01*
X95070000Y-130707000D01*
X95088000Y-130721000D01*
X95106000Y-130737000D01*
X95123000Y-130752999D01*
X95139000Y-130770000D01*
X95155000Y-130788000D01*
X95169000Y-130806000D01*
X95182000Y-130826000D01*
X95195000Y-130846000D01*
X95206000Y-130867000D01*
X95216000Y-130888000D01*
X95225000Y-130910000D01*
X95233000Y-130932000D01*
X95239999Y-130955000D01*
X95245000Y-130977000D01*
X95249000Y-131000999D01*
X95253000Y-131024000D01*
X95254000Y-131047000D01*
X95255000Y-131071000D01*
X95254000Y-131095000D01*
X95253000Y-131118000D01*
X95249000Y-131141000D01*
X95245000Y-131164999D01*
X95240000Y-131187000D01*
X95233000Y-131210000D01*
X95225000Y-131232000D01*
X95216000Y-131254000D01*
X95206000Y-131275000D01*
X95195000Y-131296000D01*
X95182000Y-131316000D01*
X95169000Y-131336000D01*
X95155000Y-131354000D01*
X95139000Y-131372000D01*
X95123000Y-131389000D01*
X95106000Y-131405000D01*
X95088000Y-131421000D01*
X95070000Y-131435000D01*
X95050001Y-131448000D01*
X95030000Y-131461000D01*
X95009000Y-131472000D01*
X94988000Y-131482000D01*
X94966000Y-131491000D01*
X94944000Y-131499000D01*
X94921000Y-131506000D01*
X94899000Y-131511000D01*
X94875000Y-131515000D01*
X94852000Y-131519000D01*
X94829000Y-131520000D01*
X94805000Y-131520999D01*
X93705000Y-131521000D01*
X93681000Y-131520000D01*
X93658000Y-131519000D01*
X93635000Y-131515000D01*
X93611000Y-131511000D01*
X93589000Y-131506000D01*
X93566000Y-131499000D01*
X93544000Y-131491000D01*
X93522000Y-131482000D01*
X93501000Y-131472000D01*
X93479999Y-131461000D01*
X93460000Y-131448000D01*
X93440000Y-131435000D01*
X93422000Y-131421000D01*
X93404000Y-131405000D01*
X93387000Y-131389000D01*
X93371000Y-131372000D01*
X93355001Y-131354000D01*
X93341000Y-131336000D01*
X93328000Y-131316000D01*
X93315000Y-131296000D01*
X93304000Y-131275000D01*
X93294000Y-131253999D01*
X93285000Y-131232000D01*
X93277000Y-131210000D01*
X93270000Y-131187000D01*
X93265000Y-131165000D01*
X93261000Y-131141000D01*
X93257000Y-131118000D01*
X93256000Y-131094999D01*
X93255000Y-131071000D01*
X93256000Y-131047000D01*
X93257000Y-131024000D01*
X93261000Y-131001000D01*
X93265000Y-130977000D01*
X93270000Y-130955000D01*
X93277000Y-130932000D01*
X93285001Y-130910000D01*
X93294000Y-130888000D01*
X93304000Y-130867000D01*
X93315000Y-130846000D01*
X93328000Y-130826000D01*
X93341001Y-130806000D01*
X93355000Y-130788000D01*
X93371000Y-130770000D01*
X93387000Y-130753000D01*
X93404000Y-130737000D01*
X93422000Y-130721000D01*
X93440000Y-130707000D01*
X93460000Y-130694000D01*
X93480000Y-130681000D01*
X93501000Y-130670000D01*
X93522000Y-130659999D01*
X93544000Y-130651000D01*
X93566000Y-130643000D01*
X93589000Y-130636000D01*
X93611000Y-130631000D01*
X93635000Y-130627000D01*
X93658000Y-130623000D01*
X93681000Y-130621999D01*
X93705000Y-130621000D01*
X94805000Y-130621000D01*
X94829000Y-130622000D01*
G37*
%TD.AperFunction*%
X98849000Y-121972000D02*
X98872000Y-121973000D01*
X98895000Y-121977000D01*
X98919000Y-121981000D01*
X98941000Y-121986000D01*
X98964000Y-121993000D01*
X98986000Y-122001000D01*
X99008000Y-122010000D01*
X99029000Y-122020000D01*
X99050000Y-122031000D01*
X99070000Y-122044000D01*
X99090000Y-122057000D01*
X99108000Y-122071000D01*
X99125999Y-122087000D01*
X99143000Y-122103000D01*
X99158999Y-122120000D01*
X99175000Y-122138000D01*
X99189000Y-122155999D01*
X99202000Y-122176000D01*
X99215000Y-122196001D01*
X99226000Y-122217000D01*
X99236000Y-122238000D01*
X99245001Y-122260000D01*
X99253000Y-122282000D01*
X99260000Y-122305000D01*
X99265000Y-122327000D01*
X99269000Y-122351000D01*
X99273000Y-122374000D01*
X99274000Y-122397000D01*
X99275000Y-122421000D01*
X99274000Y-122445000D01*
X99273000Y-122468000D01*
X99269000Y-122491001D01*
X99265000Y-122515000D01*
X99260000Y-122537000D01*
X99252999Y-122560000D01*
X99245000Y-122582000D01*
X99236000Y-122604000D01*
X99226000Y-122624999D01*
X99215000Y-122646000D01*
X99202000Y-122666000D01*
X99189000Y-122686000D01*
X99175000Y-122703999D01*
X99159000Y-122722000D01*
X99143000Y-122739000D01*
X99126000Y-122755000D01*
X99107999Y-122771000D01*
X99090000Y-122785000D01*
X99069999Y-122798000D01*
X99050000Y-122811000D01*
X99029000Y-122821999D01*
X99008000Y-122832000D01*
X98986000Y-122841000D01*
X98964000Y-122848999D01*
X98941000Y-122856001D01*
X98919000Y-122861000D01*
X98895000Y-122865000D01*
X98872000Y-122869000D01*
X98849000Y-122870000D01*
X98825000Y-122871000D01*
X98025000Y-122871000D01*
X98001000Y-122870000D01*
X97978000Y-122869000D01*
X97955000Y-122865000D01*
X97931000Y-122861000D01*
X97909000Y-122856001D01*
X97886000Y-122848999D01*
X97864000Y-122841000D01*
X97842000Y-122832000D01*
X97821000Y-122821999D01*
X97800000Y-122811000D01*
X97780001Y-122798000D01*
X97760000Y-122785000D01*
X97742001Y-122771000D01*
X97724000Y-122755000D01*
X97707000Y-122739000D01*
X97691000Y-122722000D01*
X97675000Y-122703999D01*
X97661000Y-122686000D01*
X97648000Y-122666000D01*
X97635000Y-122646000D01*
X97624000Y-122624999D01*
X97614000Y-122604000D01*
X97605000Y-122582000D01*
X97597001Y-122560000D01*
X97590000Y-122537000D01*
X97585000Y-122515000D01*
X97581000Y-122491001D01*
X97577000Y-122468000D01*
X97576000Y-122445000D01*
X97575000Y-122421000D01*
X97576000Y-122397000D01*
X97577000Y-122374000D01*
X97581000Y-122351000D01*
X97585000Y-122327000D01*
X97590000Y-122305000D01*
X97597000Y-122282000D01*
X97604999Y-122260000D01*
X97614000Y-122238000D01*
X97624000Y-122217000D01*
X97635000Y-122196001D01*
X97648000Y-122176000D01*
X97661000Y-122155999D01*
X97675000Y-122138000D01*
X97691001Y-122120000D01*
X97707000Y-122103000D01*
X97724001Y-122087000D01*
X97742000Y-122071000D01*
X97760000Y-122057000D01*
X97780000Y-122044000D01*
X97800000Y-122031000D01*
X97821000Y-122020000D01*
X97842000Y-122010000D01*
X97864000Y-122001000D01*
X97886000Y-121993000D01*
X97909000Y-121986000D01*
X97931000Y-121981000D01*
X97955000Y-121977000D01*
X97978000Y-121973000D01*
X98001000Y-121972000D01*
X98025000Y-121971000D01*
X98825000Y-121971000D01*
X98849000Y-121972000D01*
%TA.AperFunction,EtchedComponent*%
G36*
X98849000Y-121972000D02*
G01*
X98872000Y-121973000D01*
X98895000Y-121977000D01*
X98919000Y-121981000D01*
X98941000Y-121986000D01*
X98964000Y-121993000D01*
X98986000Y-122001000D01*
X99008000Y-122010000D01*
X99029000Y-122020000D01*
X99050000Y-122031000D01*
X99070000Y-122044000D01*
X99090000Y-122057000D01*
X99108000Y-122071000D01*
X99125999Y-122087000D01*
X99143000Y-122103000D01*
X99158999Y-122120000D01*
X99175000Y-122138000D01*
X99189000Y-122155999D01*
X99202000Y-122176000D01*
X99215000Y-122196001D01*
X99226000Y-122217000D01*
X99236000Y-122238000D01*
X99245001Y-122260000D01*
X99253000Y-122282000D01*
X99260000Y-122305000D01*
X99265000Y-122327000D01*
X99269000Y-122351000D01*
X99273000Y-122374000D01*
X99274000Y-122397000D01*
X99275000Y-122421000D01*
X99274000Y-122445000D01*
X99273000Y-122468000D01*
X99269000Y-122491001D01*
X99265000Y-122515000D01*
X99260000Y-122537000D01*
X99252999Y-122560000D01*
X99245000Y-122582000D01*
X99236000Y-122604000D01*
X99226000Y-122624999D01*
X99215000Y-122646000D01*
X99202000Y-122666000D01*
X99189000Y-122686000D01*
X99175000Y-122703999D01*
X99159000Y-122722000D01*
X99143000Y-122739000D01*
X99126000Y-122755000D01*
X99107999Y-122771000D01*
X99090000Y-122785000D01*
X99069999Y-122798000D01*
X99050000Y-122811000D01*
X99029000Y-122821999D01*
X99008000Y-122832000D01*
X98986000Y-122841000D01*
X98964000Y-122848999D01*
X98941000Y-122856001D01*
X98919000Y-122861000D01*
X98895000Y-122865000D01*
X98872000Y-122869000D01*
X98849000Y-122870000D01*
X98825000Y-122871000D01*
X98025000Y-122871000D01*
X98001000Y-122870000D01*
X97978000Y-122869000D01*
X97955000Y-122865000D01*
X97931000Y-122861000D01*
X97909000Y-122856001D01*
X97886000Y-122848999D01*
X97864000Y-122841000D01*
X97842000Y-122832000D01*
X97821000Y-122821999D01*
X97800000Y-122811000D01*
X97780001Y-122798000D01*
X97760000Y-122785000D01*
X97742001Y-122771000D01*
X97724000Y-122755000D01*
X97707000Y-122739000D01*
X97691000Y-122722000D01*
X97675000Y-122703999D01*
X97661000Y-122686000D01*
X97648000Y-122666000D01*
X97635000Y-122646000D01*
X97624000Y-122624999D01*
X97614000Y-122604000D01*
X97605000Y-122582000D01*
X97597001Y-122560000D01*
X97590000Y-122537000D01*
X97585000Y-122515000D01*
X97581000Y-122491001D01*
X97577000Y-122468000D01*
X97576000Y-122445000D01*
X97575000Y-122421000D01*
X97576000Y-122397000D01*
X97577000Y-122374000D01*
X97581000Y-122351000D01*
X97585000Y-122327000D01*
X97590000Y-122305000D01*
X97597000Y-122282000D01*
X97604999Y-122260000D01*
X97614000Y-122238000D01*
X97624000Y-122217000D01*
X97635000Y-122196001D01*
X97648000Y-122176000D01*
X97661000Y-122155999D01*
X97675000Y-122138000D01*
X97691001Y-122120000D01*
X97707000Y-122103000D01*
X97724001Y-122087000D01*
X97742000Y-122071000D01*
X97760000Y-122057000D01*
X97780000Y-122044000D01*
X97800000Y-122031000D01*
X97821000Y-122020000D01*
X97842000Y-122010000D01*
X97864000Y-122001000D01*
X97886000Y-121993000D01*
X97909000Y-121986000D01*
X97931000Y-121981000D01*
X97955000Y-121977000D01*
X97978000Y-121973000D01*
X98001000Y-121972000D01*
X98025000Y-121971000D01*
X98825000Y-121971000D01*
X98849000Y-121972000D01*
G37*
%TD.AperFunction*%
X98849000Y-130622000D02*
X98872000Y-130623000D01*
X98895000Y-130627000D01*
X98919000Y-130631000D01*
X98941000Y-130635999D01*
X98964000Y-130643001D01*
X98986000Y-130651000D01*
X99008000Y-130660000D01*
X99029000Y-130670001D01*
X99050000Y-130681000D01*
X99069999Y-130694000D01*
X99090000Y-130707000D01*
X99107999Y-130721000D01*
X99126000Y-130737000D01*
X99143000Y-130753000D01*
X99159000Y-130770000D01*
X99175000Y-130788001D01*
X99189000Y-130806000D01*
X99202000Y-130826000D01*
X99215000Y-130846000D01*
X99226000Y-130867001D01*
X99236000Y-130888000D01*
X99245000Y-130910000D01*
X99252999Y-130932000D01*
X99260000Y-130955000D01*
X99265000Y-130977000D01*
X99269000Y-131000999D01*
X99273000Y-131024000D01*
X99274000Y-131047000D01*
X99275000Y-131071000D01*
X99274000Y-131095000D01*
X99273000Y-131118000D01*
X99269000Y-131141000D01*
X99265000Y-131165000D01*
X99260000Y-131187000D01*
X99253000Y-131210000D01*
X99245001Y-131232000D01*
X99236000Y-131254000D01*
X99226000Y-131275000D01*
X99215000Y-131295999D01*
X99202000Y-131316000D01*
X99189000Y-131336001D01*
X99175000Y-131354000D01*
X99158999Y-131372000D01*
X99143000Y-131389000D01*
X99125999Y-131405000D01*
X99108000Y-131421000D01*
X99090000Y-131435000D01*
X99070000Y-131448000D01*
X99050000Y-131461000D01*
X99029000Y-131472000D01*
X99008000Y-131482000D01*
X98986000Y-131491000D01*
X98964000Y-131499000D01*
X98941000Y-131506000D01*
X98919000Y-131511000D01*
X98895000Y-131515000D01*
X98872000Y-131519000D01*
X98849000Y-131520000D01*
X98825000Y-131521000D01*
X98025000Y-131521000D01*
X98001000Y-131520000D01*
X97978000Y-131519000D01*
X97955000Y-131515000D01*
X97931000Y-131511000D01*
X97909000Y-131506000D01*
X97886000Y-131499000D01*
X97864000Y-131491000D01*
X97842000Y-131482000D01*
X97821000Y-131472000D01*
X97800000Y-131461000D01*
X97780000Y-131448000D01*
X97760000Y-131435000D01*
X97742000Y-131421000D01*
X97724001Y-131405000D01*
X97707000Y-131389000D01*
X97691001Y-131372000D01*
X97675000Y-131354000D01*
X97661000Y-131336001D01*
X97648000Y-131316000D01*
X97635000Y-131295999D01*
X97624000Y-131275000D01*
X97614000Y-131254000D01*
X97604999Y-131232000D01*
X97597000Y-131210000D01*
X97590000Y-131187000D01*
X97585000Y-131165000D01*
X97581000Y-131141000D01*
X97577000Y-131118000D01*
X97576000Y-131095000D01*
X97575000Y-131071000D01*
X97576000Y-131047000D01*
X97577000Y-131024000D01*
X97581000Y-131000999D01*
X97585000Y-130977000D01*
X97590000Y-130955000D01*
X97597001Y-130932000D01*
X97605000Y-130910000D01*
X97614000Y-130888000D01*
X97624000Y-130867001D01*
X97635000Y-130846000D01*
X97648000Y-130826000D01*
X97661000Y-130806000D01*
X97675000Y-130788001D01*
X97691000Y-130770000D01*
X97707000Y-130753000D01*
X97724000Y-130737000D01*
X97742001Y-130721000D01*
X97760000Y-130707000D01*
X97780001Y-130694000D01*
X97800000Y-130681000D01*
X97821000Y-130670001D01*
X97842000Y-130660000D01*
X97864000Y-130651000D01*
X97886000Y-130643001D01*
X97909000Y-130635999D01*
X97931000Y-130631000D01*
X97955000Y-130627000D01*
X97978000Y-130623000D01*
X98001000Y-130622000D01*
X98025000Y-130621000D01*
X98825000Y-130621000D01*
X98849000Y-130622000D01*
%TA.AperFunction,EtchedComponent*%
G36*
X98849000Y-130622000D02*
G01*
X98872000Y-130623000D01*
X98895000Y-130627000D01*
X98919000Y-130631000D01*
X98941000Y-130635999D01*
X98964000Y-130643001D01*
X98986000Y-130651000D01*
X99008000Y-130660000D01*
X99029000Y-130670001D01*
X99050000Y-130681000D01*
X99069999Y-130694000D01*
X99090000Y-130707000D01*
X99107999Y-130721000D01*
X99126000Y-130737000D01*
X99143000Y-130753000D01*
X99159000Y-130770000D01*
X99175000Y-130788001D01*
X99189000Y-130806000D01*
X99202000Y-130826000D01*
X99215000Y-130846000D01*
X99226000Y-130867001D01*
X99236000Y-130888000D01*
X99245000Y-130910000D01*
X99252999Y-130932000D01*
X99260000Y-130955000D01*
X99265000Y-130977000D01*
X99269000Y-131000999D01*
X99273000Y-131024000D01*
X99274000Y-131047000D01*
X99275000Y-131071000D01*
X99274000Y-131095000D01*
X99273000Y-131118000D01*
X99269000Y-131141000D01*
X99265000Y-131165000D01*
X99260000Y-131187000D01*
X99253000Y-131210000D01*
X99245001Y-131232000D01*
X99236000Y-131254000D01*
X99226000Y-131275000D01*
X99215000Y-131295999D01*
X99202000Y-131316000D01*
X99189000Y-131336001D01*
X99175000Y-131354000D01*
X99158999Y-131372000D01*
X99143000Y-131389000D01*
X99125999Y-131405000D01*
X99108000Y-131421000D01*
X99090000Y-131435000D01*
X99070000Y-131448000D01*
X99050000Y-131461000D01*
X99029000Y-131472000D01*
X99008000Y-131482000D01*
X98986000Y-131491000D01*
X98964000Y-131499000D01*
X98941000Y-131506000D01*
X98919000Y-131511000D01*
X98895000Y-131515000D01*
X98872000Y-131519000D01*
X98849000Y-131520000D01*
X98825000Y-131521000D01*
X98025000Y-131521000D01*
X98001000Y-131520000D01*
X97978000Y-131519000D01*
X97955000Y-131515000D01*
X97931000Y-131511000D01*
X97909000Y-131506000D01*
X97886000Y-131499000D01*
X97864000Y-131491000D01*
X97842000Y-131482000D01*
X97821000Y-131472000D01*
X97800000Y-131461000D01*
X97780000Y-131448000D01*
X97760000Y-131435000D01*
X97742000Y-131421000D01*
X97724001Y-131405000D01*
X97707000Y-131389000D01*
X97691001Y-131372000D01*
X97675000Y-131354000D01*
X97661000Y-131336001D01*
X97648000Y-131316000D01*
X97635000Y-131295999D01*
X97624000Y-131275000D01*
X97614000Y-131254000D01*
X97604999Y-131232000D01*
X97597000Y-131210000D01*
X97590000Y-131187000D01*
X97585000Y-131165000D01*
X97581000Y-131141000D01*
X97577000Y-131118000D01*
X97576000Y-131095000D01*
X97575000Y-131071000D01*
X97576000Y-131047000D01*
X97577000Y-131024000D01*
X97581000Y-131000999D01*
X97585000Y-130977000D01*
X97590000Y-130955000D01*
X97597001Y-130932000D01*
X97605000Y-130910000D01*
X97614000Y-130888000D01*
X97624000Y-130867001D01*
X97635000Y-130846000D01*
X97648000Y-130826000D01*
X97661000Y-130806000D01*
X97675000Y-130788001D01*
X97691000Y-130770000D01*
X97707000Y-130753000D01*
X97724000Y-130737000D01*
X97742001Y-130721000D01*
X97760000Y-130707000D01*
X97780001Y-130694000D01*
X97800000Y-130681000D01*
X97821000Y-130670001D01*
X97842000Y-130660000D01*
X97864000Y-130651000D01*
X97886000Y-130643001D01*
X97909000Y-130635999D01*
X97931000Y-130631000D01*
X97955000Y-130627000D01*
X97978000Y-130623000D01*
X98001000Y-130622000D01*
X98025000Y-130621000D01*
X98825000Y-130621000D01*
X98849000Y-130622000D01*
G37*
%TD.AperFunction*%
D11*
%TA.AperFunction,EtchedComponent*%
%TO.C,JP3*%
G36*
X81468799Y-119172000D02*
G01*
X80968799Y-119172000D01*
X80968799Y-118572000D01*
X81468799Y-118572000D01*
X81468799Y-119172000D01*
G37*
%TD.AperFunction*%
%TD*%
D12*
%TO.P,J6,1,Pin_1*%
%TO.N,/NRST*%
X75631200Y-153263600D03*
D13*
%TO.P,J6,2,Pin_2*%
%TO.N,/SWDIO*%
X73091200Y-153263600D03*
%TO.P,J6,3,Pin_3*%
%TO.N,GND*%
X70551201Y-153263600D03*
%TO.P,J6,4,Pin_4*%
%TO.N,/SWCLK*%
X68011200Y-153263600D03*
%TD*%
D14*
%TO.P,J4,1,Pin_1*%
%TO.N,+BATT*%
X56007000Y-104013000D03*
%TD*%
D15*
%TO.P,J5,1,Pin_1*%
%TO.N,GND*%
X50927000Y-108839000D03*
%TD*%
D16*
%TO.P,AE2,1,A*%
%TO.N,Net-(AE2-A)*%
X47955200Y-126796800D03*
D17*
%TO.P,AE2,2,Shield*%
%TO.N,GND*%
X45415200Y-124256800D03*
X45415200Y-129336800D03*
X50495200Y-124256800D03*
X50495200Y-129336800D03*
%TD*%
D18*
%TO.P,J1,S1,SHIELD*%
%TO.N,GND*%
X94255000Y-131071000D03*
%TO.P,J1,S2,SHIELD*%
X94255000Y-122421000D03*
%TO.P,J1,S3,SHIELD*%
X98425000Y-131071000D03*
%TO.P,J1,S4,SHIELD*%
X98425000Y-122421000D03*
%TD*%
D19*
%TO.P,JP4,1,A*%
%TO.N,Net-(JP3-B)*%
X79034400Y-118872000D03*
D20*
%TO.P,JP4,2,B*%
%TO.N,AMP_ON*%
X77734400Y-118872000D03*
%TD*%
D21*
%TO.P,J2,1,Pin_1*%
%TO.N,+3.3V*%
X88138000Y-104013000D03*
%TD*%
D22*
%TO.P,J3,1,Pin_1*%
%TO.N,GND*%
X93218000Y-108839000D03*
%TD*%
D19*
%TO.P,JP3,1,A*%
%TO.N,Net-(JP3-A)*%
X81868798Y-118872000D03*
D20*
%TO.P,JP3,2,B*%
%TO.N,Net-(JP3-B)*%
X80568800Y-118872000D03*
%TD*%
D23*
%TO.P,RFAMP2,1,RF_INPUT_(PIN)*%
%TO.N,Net-(RFAMP2-RF_INPUT_(PIN))*%
X54508400Y-136712800D03*
%TO.P,RFAMP2,2,GATE_VOLTAGE_(VGG)*%
%TO.N,Net-(RFAMP2-GATE_VOLTAGE_(VGG))*%
X54508400Y-129112800D03*
%TO.P,RFAMP2,3,DRAIN_VOLTAGE_(VDD)*%
%TO.N,+BATT*%
X54508400Y-124012800D03*
%TO.P,RFAMP2,4,RF_OUTPUT_(POUT)*%
%TO.N,Net-(AE2-A)*%
X54508400Y-118922800D03*
D24*
%TO.P,RFAMP2,5,GND*%
%TO.N,GND*%
X62508400Y-127803800D03*
D25*
X62508400Y-114512800D03*
%TD*%
D26*
%TO.N,DPOT_CS*%
X79705200Y-128727200D03*
X83972400Y-142697200D03*
%TO.N,DPOT_MOSI*%
X76047600Y-129794000D03*
%TO.N,DPOT_SCLK*%
X76962000Y-130606800D03*
%TO.N,DPOT_MOSI*%
X73406000Y-142748000D03*
%TO.N,DPOT_SCLK*%
X73609200Y-141681200D03*
%TO.N,/NRST*%
X85852000Y-143637000D03*
X73609200Y-105359200D03*
%TO.N,GND*%
X67183000Y-135128000D03*
X62280800Y-143459200D03*
X94615000Y-142113000D03*
X67259200Y-119329200D03*
X59740800Y-131368800D03*
X83870800Y-126288800D03*
X57759600Y-131013200D03*
X64897000Y-145542000D03*
X92456000Y-122301000D03*
X68199000Y-135255000D03*
X73152000Y-147066000D03*
X61061600Y-146050000D03*
X67802864Y-147376121D03*
X83921600Y-120599200D03*
X95148400Y-140462000D03*
X61874400Y-145288000D03*
X60756800Y-127965200D03*
X69596000Y-133858000D03*
X63872091Y-150290624D03*
X61163200Y-141833600D03*
X94488000Y-115062000D03*
X71120000Y-132715000D03*
X83312000Y-135128000D03*
X91440000Y-147320000D03*
X81280000Y-120345200D03*
X75031600Y-105156000D03*
X76911200Y-106730800D03*
X87731600Y-120599202D03*
X67437000Y-136017000D03*
X67259200Y-119329200D03*
X73279000Y-135763000D03*
X62382400Y-144373600D03*
X60299600Y-148031200D03*
X92537038Y-130670157D03*
X85394800Y-108559600D03*
X88392000Y-145288000D03*
X60401200Y-146913600D03*
X58013600Y-124002800D03*
X91313000Y-126619000D03*
X94488000Y-115062000D03*
X87731600Y-121462800D03*
X70231000Y-133096000D03*
X61976000Y-142494000D03*
X80120027Y-124590282D03*
X73914000Y-136779000D03*
X72644000Y-135001000D03*
X68834000Y-134493000D03*
X77470000Y-139319000D03*
X99966677Y-122378576D03*
X87884000Y-139039600D03*
X94869000Y-132969000D03*
X71882000Y-133223000D03*
X83921600Y-121462800D03*
X63144400Y-135331200D03*
X72517000Y-133985000D03*
D27*
%TO.N,VBUS*%
X68427600Y-108356400D03*
D26*
X75336400Y-109677200D03*
%TO.N,TEMPSENSORADC*%
X79959200Y-137312400D03*
X79959200Y-139903200D03*
%TO.N,/SWCLK*%
X83372763Y-152508310D03*
%TO.N,AMP_SW_CTRL*%
X78740000Y-137058400D03*
X78943200Y-140309600D03*
%TO.N,/LED1*%
X92329000Y-117856000D03*
X85598000Y-150749000D03*
X94996000Y-117856000D03*
X95885000Y-120904000D03*
%TO.N,/LED2*%
X96647240Y-121925101D03*
X85090000Y-151765000D03*
%TO.N,Net-(JP3-B)*%
X78994000Y-120700800D03*
%TO.N,/CP2102N_SIG1*%
X84328000Y-135890000D03*
X89408000Y-133731000D03*
X81407000Y-141224000D03*
X95885000Y-132969000D03*
%TO.N,DPOT_SCLK*%
X76708000Y-148844000D03*
X73914000Y-148844000D03*
%TO.N,RADIO_MARC_INT*%
X72136000Y-148590000D03*
X77724000Y-140716000D03*
%TO.N,RADIO_INT*%
X76708000Y-140335000D03*
X71882000Y-147066000D03*
%TO.N,/S1*%
X82905600Y-116128800D03*
X86995000Y-151003000D03*
%TO.N,/S2*%
X87376000Y-149987000D03*
X81635600Y-115062000D03*
%TO.N,/TX*%
X98044000Y-137414000D03*
X96266000Y-137160000D03*
X79248000Y-153924000D03*
X77470000Y-151384000D03*
X82397600Y-112928400D03*
%TO.N,/RX*%
X81076800Y-111607600D03*
X96012000Y-138557000D03*
X80391000Y-153924000D03*
X78740000Y-151257000D03*
%TO.N,/CP2102N_SIG2*%
X89152686Y-135032539D03*
X81026000Y-139827000D03*
X84201000Y-137160000D03*
X96774000Y-133604000D03*
%TO.N,Net-(JP3-A)*%
X83007200Y-120040400D03*
%TO.N,AMP_ON*%
X77774800Y-142900400D03*
%TO.N,Net-(RFAMP2-GATE_VOLTAGE_(VGG))*%
X70510400Y-149047200D03*
X74980800Y-128981200D03*
%TO.N,+3.3V*%
X73660000Y-151384000D03*
X68782827Y-137475515D03*
X67513200Y-128676400D03*
X90932000Y-136906000D03*
X88747600Y-123444000D03*
X87376000Y-115697000D03*
X76200000Y-147320000D03*
X69333380Y-145781422D03*
X71882000Y-144018000D03*
X67564000Y-131064000D03*
X97917000Y-132461000D03*
X65786000Y-143383000D03*
X97738924Y-120980164D03*
X88646000Y-147447000D03*
X75565000Y-102997000D03*
X73406000Y-138176000D03*
X98298000Y-136144000D03*
X74930000Y-132334000D03*
X92710000Y-132334000D03*
X62855858Y-141247222D03*
X82042000Y-152273000D03*
%TD*%
D28*
%TO.N,Net-(RFAMP2-GATE_VOLTAGE_(VGG))*%
X71581695Y-146341000D02*
X70510400Y-147412295D01*
X70510400Y-147412295D02*
X70510400Y-149047200D01*
X71970604Y-146341000D02*
X71581695Y-146341000D01*
X74289500Y-142026205D02*
X74289500Y-144022104D01*
X76954800Y-137955996D02*
X74334200Y-140576596D01*
X74334200Y-140576596D02*
X74334200Y-141981505D01*
X74334200Y-141981505D02*
X74289500Y-142026205D01*
X76954800Y-131639305D02*
X76954800Y-137955996D01*
X74289500Y-144022104D02*
X71970604Y-146341000D01*
X77687000Y-129706200D02*
X77687000Y-130907105D01*
X76962000Y-128981200D02*
X77687000Y-129706200D01*
X77687000Y-130907105D02*
X76954800Y-131639305D01*
X74980800Y-128981200D02*
X76962000Y-128981200D01*
%TO.N,DPOT_SCLK*%
X76504800Y-131064000D02*
X76962000Y-130606800D01*
X73609200Y-140665200D02*
X76504800Y-137769600D01*
X76504800Y-137769600D02*
X76504800Y-131064000D01*
X73609200Y-141681200D02*
X73609200Y-140665200D01*
%TO.N,/CP2102N_SIG1*%
X84926000Y-136488000D02*
X84328000Y-135890000D01*
X84926000Y-138093909D02*
X84926000Y-136488000D01*
X81795909Y-141224000D02*
X84926000Y-138093909D01*
X81407000Y-141224000D02*
X81795909Y-141224000D01*
%TO.N,RADIO_MARC_INT*%
X77352305Y-140716000D02*
X77724000Y-140716000D01*
X77008305Y-141060000D02*
X77352305Y-140716000D01*
X76619396Y-141060000D02*
X77008305Y-141060000D01*
X75189500Y-144394896D02*
X75189500Y-142489896D01*
X74218800Y-147269200D02*
X74218800Y-145365596D01*
X75189500Y-142489896D02*
X76619396Y-141060000D01*
X72898000Y-148590000D02*
X74218800Y-147269200D01*
X72136000Y-148590000D02*
X72898000Y-148590000D01*
X74218800Y-145365596D02*
X75189500Y-144394896D01*
%TO.N,DPOT_CS*%
X80111600Y-128727200D02*
X79705200Y-128727200D01*
X85394800Y-134010400D02*
X80111600Y-128727200D01*
X85394800Y-138261505D02*
X85394800Y-134010400D01*
X77700895Y-141949000D02*
X81707305Y-141949000D01*
X77049800Y-142600095D02*
X77700895Y-141949000D01*
X77049800Y-143200705D02*
X77049800Y-142600095D01*
X81707305Y-141949000D02*
X85394800Y-138261505D01*
X77474495Y-143625400D02*
X77049800Y-143200705D01*
X83044200Y-143625400D02*
X77474495Y-143625400D01*
X83972400Y-142697200D02*
X83044200Y-143625400D01*
%TO.N,DPOT_MOSI*%
X72884200Y-140679000D02*
X76047600Y-137515600D01*
X73406000Y-142748000D02*
X72884200Y-142226200D01*
X72884200Y-142226200D02*
X72884200Y-140679000D01*
X76047600Y-137515600D02*
X76047600Y-129794000D01*
%TO.N,/NRST*%
X85852000Y-143637000D02*
X87122000Y-143637000D01*
X82807808Y-117303800D02*
X82418899Y-117303800D01*
X89466000Y-139255584D02*
X86338000Y-136127584D01*
X80365600Y-112115600D02*
X73609200Y-105359200D01*
X84974304Y-131840096D02*
X84867902Y-131733694D01*
X80365600Y-115250501D02*
X80365600Y-112115600D01*
X87122000Y-143637000D02*
X87766305Y-143637000D01*
X86338000Y-136127584D02*
X86338000Y-133203792D01*
X87757000Y-143637000D02*
X89466000Y-141928000D01*
X87766305Y-143637000D02*
X89371000Y-145241695D01*
X89466000Y-141928000D02*
X89466000Y-139255584D01*
X87122000Y-143637000D02*
X87757000Y-143637000D01*
X89371000Y-147747305D02*
X88946305Y-148172000D01*
X84097763Y-152808615D02*
X82257378Y-154649000D01*
X86338000Y-133203792D02*
X84974304Y-131840096D01*
X78947695Y-154649000D02*
X77562295Y-153263600D01*
X82418899Y-117303800D02*
X80365600Y-115250501D01*
X84867902Y-119363894D02*
X82807808Y-117303800D01*
X82257378Y-154649000D02*
X78947695Y-154649000D01*
X84867902Y-131733694D02*
X84867902Y-119363894D01*
X77562295Y-153263600D02*
X75631200Y-153263600D01*
X89371000Y-145241695D02*
X89371000Y-147747305D01*
X88946305Y-148172000D02*
X86779396Y-148172000D01*
X86779396Y-148172000D02*
X84097763Y-150853633D01*
X84097763Y-150853633D02*
X84097763Y-152808615D01*
%TO.N,GND*%
X98806000Y-115441001D02*
X97777001Y-115441001D01*
D29*
X96622000Y-112243000D02*
X93218000Y-108839000D01*
X96622000Y-114286000D02*
X96622000Y-112243000D01*
D28*
X97777001Y-115441001D02*
X96622000Y-114286000D01*
D29*
%TO.N,VBUS*%
X75336400Y-109677200D02*
X69748400Y-109677200D01*
X69748400Y-109677200D02*
X68427600Y-108356400D01*
D28*
%TO.N,TEMPSENSORADC*%
X79959200Y-139903200D02*
X79959200Y-137312400D01*
%TO.N,/SWCLK*%
X83372763Y-152508310D02*
X82883073Y-152998000D01*
X73577901Y-154438600D02*
X69186200Y-154438600D01*
X82883073Y-152998000D02*
X81506305Y-152998000D01*
X74266200Y-153750301D02*
X73577901Y-154438600D01*
X76012800Y-150532000D02*
X74266200Y-152278600D01*
X74266200Y-152278600D02*
X74266200Y-153750301D01*
X79040305Y-150532000D02*
X76012800Y-150532000D01*
X81506305Y-152998000D02*
X79040305Y-150532000D01*
X69186200Y-154438600D02*
X68011200Y-153263600D01*
%TO.N,AMP_SW_CTRL*%
X78943200Y-140309600D02*
X78943200Y-137261600D01*
X78943200Y-137261600D02*
X78740000Y-137058400D01*
%TO.N,/LED1*%
X91317653Y-148467653D02*
X92333653Y-147451653D01*
X87299494Y-151728000D02*
X90559840Y-148467653D01*
X99753000Y-132020604D02*
X99753000Y-130233000D01*
X99499000Y-132274604D02*
X99753000Y-132020604D01*
X95631000Y-126111000D02*
X95631000Y-121158000D01*
X94996000Y-117856000D02*
X92329000Y-117856000D01*
X97213000Y-141672604D02*
X97213000Y-139386604D01*
X85598000Y-150749000D02*
X86577000Y-151728000D01*
X99753000Y-130233000D02*
X95631000Y-126111000D01*
X97213000Y-139386604D02*
X99499000Y-137100604D01*
X86577000Y-151728000D02*
X87299494Y-151728000D01*
X95435000Y-143450604D02*
X97213000Y-141672604D01*
X92333653Y-147451653D02*
X92333653Y-147440951D01*
X95435000Y-144339604D02*
X95435000Y-143450604D01*
X92333653Y-147451653D02*
X92583000Y-147202305D01*
X99499000Y-137100604D02*
X99499000Y-132274604D01*
X95631000Y-121158000D02*
X95885000Y-120904000D01*
X92333653Y-147440951D02*
X95435000Y-144339604D01*
X90559840Y-148467653D02*
X91317653Y-148467653D01*
%TO.N,/LED2*%
X100203000Y-130046604D02*
X96081000Y-125924604D01*
X93033000Y-147388701D02*
X93033000Y-147378000D01*
X89732945Y-149930945D02*
X90746237Y-148917653D01*
X93033000Y-147378000D02*
X95885000Y-144526000D01*
X99949000Y-132461000D02*
X100203000Y-132207000D01*
X91504049Y-148917653D02*
X93033000Y-147388701D01*
X100203000Y-132207000D02*
X100203000Y-130046604D01*
X85503000Y-152178000D02*
X87485890Y-152178000D01*
X85090000Y-151765000D02*
X85503000Y-152178000D01*
X87485890Y-152178000D02*
X89732945Y-149930945D01*
X97663000Y-141859000D02*
X97663000Y-139573000D01*
X93033000Y-147378000D02*
X93853000Y-146558000D01*
X99949000Y-137287000D02*
X99949000Y-132461000D01*
X96081000Y-122486000D02*
X96647000Y-121920000D01*
X95885000Y-144526000D02*
X95885000Y-143637000D01*
X90746237Y-148917653D02*
X91504049Y-148917653D01*
X95885000Y-143637000D02*
X97663000Y-141859000D01*
X97663000Y-139573000D02*
X99949000Y-137287000D01*
X96081000Y-125924604D02*
X96081000Y-122486000D01*
%TO.N,Net-(JP3-B)*%
X80568800Y-118872000D02*
X79034400Y-118872000D01*
X79034400Y-118872000D02*
X78994000Y-120700800D01*
X78994000Y-120700800D02*
X79034400Y-120660400D01*
%TO.N,/CP2102N_SIG1*%
X95885000Y-132969000D02*
X95885000Y-132978305D01*
X91313000Y-133694000D02*
X91223000Y-133694000D01*
X95381653Y-133481653D02*
X95169305Y-133694000D01*
X95169305Y-133694000D02*
X91313000Y-133694000D01*
X95169305Y-133694000D02*
X89445000Y-133694000D01*
X95885000Y-132978305D02*
X95381653Y-133481653D01*
X89445000Y-133694000D02*
X89408000Y-133731000D01*
%TO.N,DPOT_SCLK*%
X73914000Y-148844000D02*
X74168000Y-148844000D01*
X76708000Y-148844000D02*
X73914000Y-148844000D01*
%TO.N,RADIO_INT*%
X74739500Y-142303500D02*
X76708000Y-140335000D01*
X74739500Y-144208500D02*
X74739500Y-142303500D01*
X74739500Y-144208500D02*
X71882000Y-147066000D01*
%TO.N,/S1*%
X87238000Y-132831000D02*
X86106000Y-131699000D01*
X90366000Y-148025097D02*
X90366000Y-138882792D01*
X90366000Y-138882792D02*
X87238000Y-135754792D01*
X87676305Y-150712000D02*
X87679097Y-150712000D01*
X85815000Y-130454400D02*
X85815000Y-119038200D01*
X86106000Y-131699000D02*
X85815000Y-131408000D01*
X87385305Y-151003000D02*
X87676305Y-150712000D01*
X85815000Y-119038200D02*
X82905600Y-116128800D01*
X85815000Y-130454400D02*
X85815000Y-130154095D01*
X87679097Y-150712000D02*
X90366000Y-148025097D01*
X85815000Y-131408000D02*
X85815000Y-130454400D01*
X86995000Y-151003000D02*
X87385305Y-151003000D01*
X87238000Y-135754792D02*
X87238000Y-132831000D01*
%TO.N,/S2*%
X85317902Y-119177498D02*
X82994204Y-116853800D01*
X87376000Y-149987000D02*
X87767701Y-149987000D01*
X89916000Y-139069188D02*
X86788000Y-135941188D01*
X89916000Y-141732000D02*
X89916000Y-140716000D01*
X82605295Y-116853800D02*
X81635600Y-115884105D01*
X81635600Y-115884105D02*
X81635600Y-115062000D01*
X87767701Y-149987000D02*
X89916000Y-147838701D01*
X86788000Y-133017396D02*
X85317902Y-131547298D01*
X85317902Y-131547298D02*
X85317902Y-119177498D01*
X86788000Y-135941188D02*
X86788000Y-133017396D01*
X89916000Y-147838701D02*
X89916000Y-141732000D01*
X89916000Y-141732000D02*
X89916000Y-139069188D01*
X82994204Y-116853800D02*
X82605295Y-116853800D01*
%TO.N,/TX*%
X82397600Y-113959099D02*
X82397600Y-112928400D01*
X96266000Y-137160000D02*
X97790000Y-137160000D01*
X96266000Y-137160000D02*
X94488000Y-138938000D01*
X79248000Y-153162000D02*
X79248000Y-153924000D01*
X84080600Y-115642099D02*
X82397600Y-113959099D01*
X77470000Y-151384000D02*
X79248000Y-153162000D01*
X86810000Y-118760408D02*
X84080600Y-116031008D01*
X94488000Y-138938000D02*
X91694000Y-138938000D01*
X97790000Y-137160000D02*
X98044000Y-137414000D01*
X86810000Y-129736000D02*
X86810000Y-118760408D01*
X84080600Y-116031008D02*
X84080600Y-115642099D01*
X88138000Y-131064000D02*
X86810000Y-129736000D01*
X91694000Y-138938000D02*
X88138000Y-135382000D01*
X88138000Y-135382000D02*
X88138000Y-131064000D01*
%TO.N,/RX*%
X87688000Y-135568396D02*
X87688000Y-132011000D01*
X86360000Y-128473200D02*
X86360000Y-118946804D01*
X95181000Y-139388000D02*
X91507604Y-139388000D01*
X86360000Y-128473200D02*
X86360000Y-127863600D01*
X87688000Y-132011000D02*
X86360000Y-130683000D01*
X91507604Y-139388000D02*
X87688000Y-135568396D01*
X83630600Y-116217404D02*
X83630600Y-115828495D01*
X83630600Y-115828495D02*
X81076800Y-113274695D01*
X80391000Y-152908000D02*
X80391000Y-153924000D01*
X86360000Y-118946804D02*
X83630600Y-116217404D01*
X81076800Y-113274695D02*
X81076800Y-111607600D01*
X86360000Y-130683000D02*
X86360000Y-128473200D01*
X96012000Y-138557000D02*
X95181000Y-139388000D01*
X78740000Y-151257000D02*
X80391000Y-152908000D01*
%TO.N,/CP2102N_SIG2*%
X84201000Y-137160000D02*
X83693000Y-137160000D01*
X92075000Y-134874000D02*
X90805000Y-134874000D01*
X83693000Y-137160000D02*
X81026000Y-139827000D01*
X96139000Y-134239000D02*
X93091000Y-134239000D01*
X93091000Y-134239000D02*
X92456000Y-134874000D01*
X92456000Y-134874000D02*
X92075000Y-134874000D01*
X92075000Y-134874000D02*
X89281000Y-134874000D01*
X96774000Y-133604000D02*
X96139000Y-134239000D01*
%TO.N,Net-(JP3-A)*%
X83007200Y-120040400D02*
X83037198Y-120040400D01*
X83007200Y-120010402D02*
X83007200Y-120040400D01*
X81868798Y-118872000D02*
X83007200Y-120010402D01*
X83037198Y-120040400D02*
X83007200Y-120010402D01*
%TO.N,AMP_ON*%
X77734400Y-123229960D02*
X84417902Y-129913462D01*
X85852000Y-133354188D02*
X85852000Y-138480800D01*
X77734400Y-118872000D02*
X77734400Y-123229960D01*
X84417902Y-129913462D02*
X84417902Y-131920090D01*
X84417902Y-131920090D02*
X85852000Y-133354188D01*
X81432400Y-142900400D02*
X77774800Y-142900400D01*
X85852000Y-138480800D02*
X81432400Y-142900400D01*
D30*
%TO.N,+BATT*%
X54578888Y-105441112D02*
X54578888Y-111906783D01*
X55981600Y-122539600D02*
X54508400Y-124012800D01*
X56007000Y-104013000D02*
X54578888Y-105441112D01*
X55981600Y-113309495D02*
X55981600Y-122539600D01*
X54578888Y-111906783D02*
X55981600Y-113309495D01*
D28*
%TO.N,+3.3V*%
X67513200Y-128676400D02*
X67564000Y-128727200D01*
D29*
X90322001Y-116586000D02*
X88265000Y-116586000D01*
X90322001Y-112674001D02*
X88138000Y-110490000D01*
D28*
X69483312Y-138176000D02*
X73406000Y-138176000D01*
D29*
X90322001Y-116586000D02*
X90322001Y-112674001D01*
X97831000Y-117795001D02*
X96621999Y-116586000D01*
D28*
X68184422Y-145781422D02*
X69333380Y-145781422D01*
X70842802Y-144272000D02*
X69333380Y-145781422D01*
X91694000Y-136144000D02*
X90932000Y-136906000D01*
X69716400Y-150082000D02*
X69333380Y-149698980D01*
X98010000Y-120709088D02*
X97738924Y-120980164D01*
D29*
X88265000Y-116586000D02*
X87376000Y-115697000D01*
X76581000Y-104013000D02*
X75565000Y-102997000D01*
D28*
X72136000Y-150082000D02*
X69716400Y-150082000D01*
X88747600Y-123444000D02*
X88773000Y-123469400D01*
X71882000Y-144018000D02*
X71628000Y-144272000D01*
X98010000Y-118845001D02*
X98010000Y-120709088D01*
D29*
X88138000Y-104013000D02*
X76581000Y-104013000D01*
D31*
X65011120Y-141247222D02*
X68782827Y-137475515D01*
D28*
X67564000Y-131064000D02*
X67513200Y-128676400D01*
X86868000Y-147447000D02*
X82042000Y-152273000D01*
X72358000Y-150082000D02*
X72136000Y-150082000D01*
X80899000Y-151130000D02*
X79851000Y-150082000D01*
X71882000Y-139700000D02*
X73406000Y-138176000D01*
X98806000Y-117541001D02*
X99060000Y-117795001D01*
D31*
X62855858Y-141247222D02*
X65011120Y-141247222D01*
D28*
X65786000Y-143383000D02*
X64991636Y-143383000D01*
X74930000Y-132334000D02*
X74930000Y-136788305D01*
X74930000Y-136788305D02*
X73542305Y-138176000D01*
X64991636Y-143383000D02*
X62855858Y-141247222D01*
X98298000Y-136144000D02*
X91694000Y-136144000D01*
D29*
X88138000Y-110490000D02*
X88138000Y-104013000D01*
D28*
X97700000Y-132244000D02*
X97917000Y-132461000D01*
X98806000Y-116460999D02*
X98806000Y-117541001D01*
X65786000Y-143383000D02*
X68184422Y-145781422D01*
X77089000Y-147320000D02*
X76200000Y-147320000D01*
X92800000Y-132244000D02*
X97700000Y-132244000D01*
X79851000Y-150082000D02*
X72136000Y-150082000D01*
X68782827Y-137475515D02*
X69483312Y-138176000D01*
X69333380Y-149698980D02*
X69333380Y-145781422D01*
D29*
X99060000Y-117795001D02*
X97831000Y-117795001D01*
D28*
X99060000Y-117795001D02*
X98010000Y-118845001D01*
X88773000Y-123469400D02*
X88773000Y-128397000D01*
X80899000Y-151130000D02*
X77089000Y-147320000D01*
X92710000Y-132334000D02*
X92800000Y-132244000D01*
X73542305Y-138176000D02*
X73406000Y-138176000D01*
X98298000Y-136144000D02*
X98298000Y-132842000D01*
X71628000Y-144272000D02*
X70842802Y-144272000D01*
X88773000Y-128397000D02*
X92710000Y-132334000D01*
D29*
X96621999Y-116586000D02*
X90322001Y-116586000D01*
D28*
X98298000Y-132842000D02*
X97917000Y-132461000D01*
X73660000Y-151384000D02*
X72358000Y-150082000D01*
X88773000Y-123418600D02*
X88747600Y-123444000D01*
X82042000Y-152273000D02*
X80899000Y-151130000D01*
X71882000Y-144018000D02*
X71882000Y-139700000D01*
X88646000Y-147447000D02*
X86868000Y-147447000D01*
%TD*%
%TA.AperFunction,Conductor*%
%TO.N,GND*%
G36*
X62389346Y-98137127D02*
G01*
X62677750Y-98154345D01*
X62694249Y-98156448D01*
X62976747Y-98211925D01*
X62992812Y-98216216D01*
X63265354Y-98309020D01*
X63280693Y-98315421D01*
X63538353Y-98443876D01*
X63552709Y-98452281D01*
X63790835Y-98614065D01*
X63803939Y-98624317D01*
X64018272Y-98816533D01*
X64029878Y-98828439D01*
X64217204Y-99048393D01*
X64226016Y-99060072D01*
X64301584Y-99173581D01*
X64310087Y-99188498D01*
X65214500Y-101066600D01*
X78803500Y-101066600D01*
X79836105Y-99185374D01*
X79841566Y-99176359D01*
X79919002Y-99060057D01*
X79927799Y-99048400D01*
X80115127Y-98828444D01*
X80126723Y-98816546D01*
X80341069Y-98624318D01*
X80354163Y-98614074D01*
X80592303Y-98452281D01*
X80606643Y-98443885D01*
X80864320Y-98315423D01*
X80879636Y-98309031D01*
X81152201Y-98216219D01*
X81168246Y-98211934D01*
X81450754Y-98156455D01*
X81467244Y-98154353D01*
X81755653Y-98137135D01*
X81770268Y-98137128D01*
X81897517Y-98144576D01*
X81931511Y-98151423D01*
X82430462Y-98327404D01*
X82434136Y-98328767D01*
X83452642Y-98724891D01*
X83456762Y-98726580D01*
X84459967Y-99159342D01*
X84464044Y-99161189D01*
X84521516Y-99188498D01*
X85450882Y-99630115D01*
X85454915Y-99632123D01*
X86423987Y-100136550D01*
X86427945Y-100138702D01*
X87378113Y-100678034D01*
X87381942Y-100680300D01*
X87588112Y-100807444D01*
X87628998Y-100832658D01*
X87675726Y-100884602D01*
X87686954Y-100953564D01*
X87659115Y-101017648D01*
X87646480Y-101030712D01*
X87596116Y-101075664D01*
X86543553Y-102472464D01*
X85759452Y-103513002D01*
X85759359Y-103513125D01*
X85703293Y-103554819D01*
X85660328Y-103562500D01*
X76818965Y-103562500D01*
X76751926Y-103542815D01*
X76731284Y-103526181D01*
X76195681Y-102990578D01*
X76162196Y-102929255D01*
X76160425Y-102919097D01*
X76150044Y-102840238D01*
X76089536Y-102694159D01*
X75993282Y-102568718D01*
X75867841Y-102472464D01*
X75721762Y-102411956D01*
X75721760Y-102411955D01*
X75565001Y-102391318D01*
X75564999Y-102391318D01*
X75408239Y-102411955D01*
X75408237Y-102411956D01*
X75262160Y-102472463D01*
X75136718Y-102568718D01*
X75040463Y-102694160D01*
X74979956Y-102840237D01*
X74979955Y-102840239D01*
X74959318Y-102996998D01*
X74959318Y-102997001D01*
X74979955Y-103153760D01*
X74979956Y-103153762D01*
X75040464Y-103299841D01*
X75136718Y-103425282D01*
X75262159Y-103521536D01*
X75408238Y-103582044D01*
X75487083Y-103592424D01*
X75550978Y-103620689D01*
X75558578Y-103627681D01*
X76304386Y-104373489D01*
X76407113Y-104432799D01*
X76431321Y-104439284D01*
X76431324Y-104439286D01*
X76431325Y-104439286D01*
X76461447Y-104447357D01*
X76521691Y-104463500D01*
X85063568Y-104463500D01*
X85130607Y-104483185D01*
X85156079Y-104504930D01*
X85160958Y-104510396D01*
X85200664Y-104554883D01*
X87044407Y-105944243D01*
X87638125Y-106391641D01*
X87679819Y-106447707D01*
X87687500Y-106490672D01*
X87687500Y-110549308D01*
X87711712Y-110639672D01*
X87718200Y-110663885D01*
X87718200Y-110663886D01*
X87718201Y-110663887D01*
X87777511Y-110766614D01*
X87777513Y-110766616D01*
X89835182Y-112824285D01*
X89868667Y-112885608D01*
X89871501Y-112911966D01*
X89871501Y-116011500D01*
X89851816Y-116078539D01*
X89799012Y-116124294D01*
X89747501Y-116135500D01*
X88502966Y-116135500D01*
X88435927Y-116115815D01*
X88415285Y-116099181D01*
X88006681Y-115690577D01*
X87973196Y-115629254D01*
X87971425Y-115619095D01*
X87961044Y-115540238D01*
X87900536Y-115394159D01*
X87804282Y-115268718D01*
X87678841Y-115172464D01*
X87532762Y-115111956D01*
X87532760Y-115111955D01*
X87376001Y-115091318D01*
X87375999Y-115091318D01*
X87219239Y-115111955D01*
X87219237Y-115111956D01*
X87073160Y-115172463D01*
X86947718Y-115268718D01*
X86851463Y-115394160D01*
X86790956Y-115540237D01*
X86790955Y-115540239D01*
X86770318Y-115696998D01*
X86770318Y-115697001D01*
X86790955Y-115853760D01*
X86790956Y-115853762D01*
X86839947Y-115972038D01*
X86851464Y-115999841D01*
X86947718Y-116125282D01*
X87073159Y-116221536D01*
X87219238Y-116282044D01*
X87298082Y-116292423D01*
X87361977Y-116320689D01*
X87369577Y-116327681D01*
X87988386Y-116946490D01*
X88091113Y-117005799D01*
X88115321Y-117012284D01*
X88115324Y-117012286D01*
X88115325Y-117012286D01*
X88145447Y-117020357D01*
X88205691Y-117036500D01*
X90262692Y-117036500D01*
X92114875Y-117036500D01*
X92181914Y-117056185D01*
X92227669Y-117108989D01*
X92237613Y-117178147D01*
X92208588Y-117241703D01*
X92162328Y-117275061D01*
X92026160Y-117331463D01*
X91900718Y-117427718D01*
X91804463Y-117553160D01*
X91743956Y-117699237D01*
X91743955Y-117699239D01*
X91723318Y-117855998D01*
X91723318Y-117856001D01*
X91743955Y-118012760D01*
X91743956Y-118012762D01*
X91803075Y-118155489D01*
X91804464Y-118158841D01*
X91900718Y-118284282D01*
X92026159Y-118380536D01*
X92172238Y-118441044D01*
X92243631Y-118450443D01*
X92328999Y-118461682D01*
X92329000Y-118461682D01*
X92329001Y-118461682D01*
X92381254Y-118454802D01*
X92485762Y-118441044D01*
X92631841Y-118380536D01*
X92757282Y-118284282D01*
X92798923Y-118230013D01*
X92855351Y-118188811D01*
X92897299Y-118181500D01*
X94427701Y-118181500D01*
X94494740Y-118201185D01*
X94526077Y-118230014D01*
X94565828Y-118281820D01*
X94567718Y-118284282D01*
X94693159Y-118380536D01*
X94839238Y-118441044D01*
X94910631Y-118450443D01*
X94995999Y-118461682D01*
X94996000Y-118461682D01*
X94996001Y-118461682D01*
X95048254Y-118454802D01*
X95152762Y-118441044D01*
X95298841Y-118380536D01*
X95424282Y-118284282D01*
X95520536Y-118158841D01*
X95581044Y-118012762D01*
X95601682Y-117856000D01*
X95581044Y-117699238D01*
X95520536Y-117553159D01*
X95424282Y-117427718D01*
X95298841Y-117331464D01*
X95282791Y-117324816D01*
X95162672Y-117275061D01*
X95108269Y-117231220D01*
X95086204Y-117164926D01*
X95103483Y-117097226D01*
X95154620Y-117049616D01*
X95210125Y-117036500D01*
X96384034Y-117036500D01*
X96451073Y-117056185D01*
X96471714Y-117072818D01*
X97554386Y-118155491D01*
X97656280Y-118214318D01*
X97656284Y-118214322D01*
X97656285Y-118214322D01*
X97657004Y-118214736D01*
X97657114Y-118214800D01*
X97771691Y-118245501D01*
X97849811Y-118245501D01*
X97916850Y-118265186D01*
X97962605Y-118317990D01*
X97972549Y-118387148D01*
X97943524Y-118450704D01*
X97937492Y-118457182D01*
X97749537Y-118645136D01*
X97749533Y-118645142D01*
X97706682Y-118719361D01*
X97702524Y-118734881D01*
X97684500Y-118802148D01*
X97684500Y-120272902D01*
X97664815Y-120339941D01*
X97612011Y-120385696D01*
X97589762Y-120392086D01*
X97590012Y-120393017D01*
X97582161Y-120395120D01*
X97436084Y-120455627D01*
X97310642Y-120551882D01*
X97214387Y-120677324D01*
X97153880Y-120823401D01*
X97153879Y-120823403D01*
X97133242Y-120980162D01*
X97133242Y-120980165D01*
X97153879Y-121136924D01*
X97153880Y-121136926D01*
X97214388Y-121283006D01*
X97238830Y-121314859D01*
X97264024Y-121380028D01*
X97261150Y-121394038D01*
X97318833Y-121414775D01*
X97321125Y-121416490D01*
X97436083Y-121504700D01*
X97582162Y-121565208D01*
X97718531Y-121583161D01*
X97782428Y-121611427D01*
X97820899Y-121669752D01*
X97821730Y-121739616D01*
X97784658Y-121798840D01*
X97753047Y-121819156D01*
X97753068Y-121819200D01*
X97752730Y-121819360D01*
X97752520Y-121819496D01*
X97751480Y-121819955D01*
X97730539Y-121829928D01*
X97723291Y-121833550D01*
X97702358Y-121844514D01*
X97702313Y-121844539D01*
X97685285Y-121854504D01*
X97645274Y-121880511D01*
X97630776Y-121890833D01*
X97612757Y-121904847D01*
X97602161Y-121913661D01*
X97590881Y-121923688D01*
X97584153Y-121929670D01*
X97584127Y-121929693D01*
X97579735Y-121933711D01*
X97562721Y-121949722D01*
X97553719Y-121958724D01*
X97537702Y-121975743D01*
X97533678Y-121980143D01*
X97517683Y-121998138D01*
X97517675Y-121998147D01*
X97517668Y-121998156D01*
X97508826Y-122008783D01*
X97494846Y-122026757D01*
X97484504Y-122041283D01*
X97473288Y-122058539D01*
X97420248Y-122104020D01*
X97351039Y-122113606D01*
X97287634Y-122084252D01*
X97250165Y-122025280D01*
X97246382Y-121974775D01*
X97248495Y-121958731D01*
X97252922Y-121925101D01*
X97245339Y-121867505D01*
X97236424Y-121799784D01*
X97232284Y-121768339D01*
X97171776Y-121622260D01*
X97147332Y-121590404D01*
X97122139Y-121525236D01*
X97125012Y-121511225D01*
X97067330Y-121490489D01*
X97065025Y-121488764D01*
X96950081Y-121400565D01*
X96934323Y-121394038D01*
X96804002Y-121340057D01*
X96804000Y-121340056D01*
X96647241Y-121319419D01*
X96647237Y-121319419D01*
X96559440Y-121330977D01*
X96490405Y-121320211D01*
X96438150Y-121273831D01*
X96419265Y-121206561D01*
X96428694Y-121160589D01*
X96470044Y-121060762D01*
X96490682Y-120904000D01*
X96470044Y-120747238D01*
X96409536Y-120601159D01*
X96313282Y-120475718D01*
X96187841Y-120379464D01*
X96041762Y-120318956D01*
X96041760Y-120318955D01*
X95885001Y-120298318D01*
X95884999Y-120298318D01*
X95728239Y-120318955D01*
X95728237Y-120318956D01*
X95582160Y-120379463D01*
X95456718Y-120475718D01*
X95360463Y-120601160D01*
X95299956Y-120747237D01*
X95299955Y-120747239D01*
X95279318Y-120903998D01*
X95279318Y-120904001D01*
X95299956Y-121060765D01*
X95302060Y-121068617D01*
X95299144Y-121069398D01*
X95303978Y-121107012D01*
X95305500Y-121107012D01*
X95305500Y-121732745D01*
X95285815Y-121799784D01*
X95233011Y-121845539D01*
X95163853Y-121855483D01*
X95123969Y-121842591D01*
X95106692Y-121833542D01*
X95106693Y-121833542D01*
X95106673Y-121833532D01*
X95099501Y-121829948D01*
X95099480Y-121829938D01*
X95099460Y-121829928D01*
X95078529Y-121819960D01*
X95067683Y-121815163D01*
X95049710Y-121807811D01*
X95045702Y-121806172D01*
X95037937Y-121803173D01*
X95015937Y-121795173D01*
X95015936Y-121795172D01*
X95015926Y-121795169D01*
X95012415Y-121793997D01*
X95005290Y-121791620D01*
X94993790Y-121788120D01*
X94982295Y-121784621D01*
X94967635Y-121780730D01*
X94945658Y-121775735D01*
X94933618Y-121773366D01*
X94933606Y-121773364D01*
X94910644Y-121769537D01*
X94909878Y-121769406D01*
X94888067Y-121765613D01*
X94865249Y-121763143D01*
X94861154Y-121762700D01*
X94861145Y-121762699D01*
X94859488Y-121762627D01*
X94852859Y-121762338D01*
X94786739Y-121739759D01*
X94743322Y-121685016D01*
X94735591Y-121656649D01*
X94726575Y-121595868D01*
X94620311Y-121539068D01*
X94441230Y-121484744D01*
X94255000Y-121466403D01*
X94068769Y-121484744D01*
X93889688Y-121539068D01*
X93783423Y-121595869D01*
X93774407Y-121656651D01*
X93745098Y-121720077D01*
X93686152Y-121757588D01*
X93657140Y-121762338D01*
X93652996Y-121762519D01*
X93648853Y-121762699D01*
X93648845Y-121762700D01*
X93621924Y-121765614D01*
X93600174Y-121769397D01*
X93599352Y-121769537D01*
X93576394Y-121773364D01*
X93576376Y-121773367D01*
X93564341Y-121775735D01*
X93542364Y-121780730D01*
X93527704Y-121784621D01*
X93509503Y-121790161D01*
X93504710Y-121791620D01*
X93501142Y-121792810D01*
X93494073Y-121795169D01*
X93481383Y-121799784D01*
X93472063Y-121803173D01*
X93464298Y-121806172D01*
X93464288Y-121806175D01*
X93464283Y-121806178D01*
X93442316Y-121815163D01*
X93431485Y-121819954D01*
X93410517Y-121829938D01*
X93403319Y-121833536D01*
X93382329Y-121844531D01*
X93382315Y-121844538D01*
X93365285Y-121854503D01*
X93365273Y-121854511D01*
X93345274Y-121867511D01*
X93345273Y-121867510D01*
X93325282Y-121880506D01*
X93310762Y-121890843D01*
X93292761Y-121904844D01*
X93282161Y-121913660D01*
X93264125Y-121929692D01*
X93259744Y-121933701D01*
X93242726Y-121949718D01*
X93233737Y-121958707D01*
X93233721Y-121958723D01*
X93233714Y-121958731D01*
X93217714Y-121975731D01*
X93217703Y-121975743D01*
X93217676Y-121975772D01*
X93213688Y-121980131D01*
X93197660Y-121998163D01*
X93188840Y-122008768D01*
X93174842Y-122026764D01*
X93164514Y-122041269D01*
X93138504Y-122081286D01*
X93128539Y-122098313D01*
X93128515Y-122098357D01*
X93117549Y-122119291D01*
X93113951Y-122126491D01*
X93103938Y-122147518D01*
X93099170Y-122158302D01*
X93090187Y-122180261D01*
X93087163Y-122188087D01*
X93079176Y-122210052D01*
X93075619Y-122220714D01*
X93068621Y-122243704D01*
X93064730Y-122258364D01*
X93059735Y-122280341D01*
X93057367Y-122292376D01*
X93053544Y-122315315D01*
X93053397Y-122316174D01*
X93049614Y-122337924D01*
X93046699Y-122364851D01*
X93046699Y-122364855D01*
X93046699Y-122364857D01*
X93045699Y-122387858D01*
X93045683Y-122388237D01*
X93045679Y-122388340D01*
X93045678Y-122388339D01*
X93044682Y-122412225D01*
X93044682Y-122429752D01*
X93045688Y-122453911D01*
X93045689Y-122453926D01*
X93045699Y-122454144D01*
X93046699Y-122477144D01*
X93049613Y-122504067D01*
X93052598Y-122521233D01*
X93053397Y-122525824D01*
X93053544Y-122526685D01*
X93057366Y-122549618D01*
X93059735Y-122561658D01*
X93064730Y-122583635D01*
X93068623Y-122598303D01*
X93075621Y-122621294D01*
X93079094Y-122631699D01*
X93079176Y-122631945D01*
X93084594Y-122646842D01*
X93087179Y-122653951D01*
X93090174Y-122661706D01*
X93099164Y-122683685D01*
X93103956Y-122694520D01*
X93113928Y-122715460D01*
X93113948Y-122715501D01*
X93117532Y-122722673D01*
X93117543Y-122722694D01*
X93117550Y-122722708D01*
X93128514Y-122743641D01*
X93128539Y-122743686D01*
X93138497Y-122760701D01*
X93138508Y-122760720D01*
X93151508Y-122780720D01*
X93151512Y-122780726D01*
X93164513Y-122800726D01*
X93174838Y-122815229D01*
X93174846Y-122815239D01*
X93188840Y-122833233D01*
X93197669Y-122843849D01*
X93213692Y-122861874D01*
X93217701Y-122866255D01*
X93217714Y-122866269D01*
X93233714Y-122883269D01*
X93242731Y-122892286D01*
X93259731Y-122908286D01*
X93259739Y-122908294D01*
X93259744Y-122908298D01*
X93264125Y-122912307D01*
X93282161Y-122928339D01*
X93292761Y-122937155D01*
X93310767Y-122951160D01*
X93325274Y-122961488D01*
X93325280Y-122961492D01*
X93365280Y-122987492D01*
X93382327Y-122997468D01*
X93382333Y-122997471D01*
X93382357Y-122997484D01*
X93403293Y-123008451D01*
X93410510Y-123012058D01*
X93431483Y-123022046D01*
X93431491Y-123022049D01*
X93431492Y-123022050D01*
X93442305Y-123026832D01*
X93464305Y-123035831D01*
X93472063Y-123038827D01*
X93494063Y-123046827D01*
X93504710Y-123050380D01*
X93527710Y-123057380D01*
X93541704Y-123061094D01*
X93542364Y-123061269D01*
X93564341Y-123066264D01*
X93571495Y-123067671D01*
X93576394Y-123068636D01*
X93599396Y-123072469D01*
X93600024Y-123072576D01*
X93615529Y-123075273D01*
X93621926Y-123076386D01*
X93621929Y-123076386D01*
X93621933Y-123076387D01*
X93648847Y-123079301D01*
X93657133Y-123079661D01*
X93723254Y-123102237D01*
X93766673Y-123156978D01*
X93774407Y-123185350D01*
X93783422Y-123246130D01*
X93889688Y-123302931D01*
X94068770Y-123357255D01*
X94188218Y-123369019D01*
X94253006Y-123395179D01*
X94293365Y-123452213D01*
X94296482Y-123522013D01*
X94283452Y-123554421D01*
X94232018Y-123643506D01*
X94232017Y-123643509D01*
X94232016Y-123643514D01*
X94194500Y-123783524D01*
X94194500Y-123928474D01*
X94224080Y-124038867D01*
X94232017Y-124068487D01*
X94304488Y-124194010D01*
X94304490Y-124194012D01*
X94304491Y-124194014D01*
X94406985Y-124296508D01*
X94406986Y-124296509D01*
X94406988Y-124296510D01*
X94532511Y-124368981D01*
X94532512Y-124368981D01*
X94532515Y-124368983D01*
X94672525Y-124406499D01*
X94672528Y-124406499D01*
X94817472Y-124406499D01*
X94817475Y-124406499D01*
X94957485Y-124368983D01*
X95083015Y-124296508D01*
X95093819Y-124285704D01*
X95155142Y-124252219D01*
X95224834Y-124257203D01*
X95280767Y-124299075D01*
X95305184Y-124364539D01*
X95305500Y-124373385D01*
X95305500Y-126153852D01*
X95327682Y-126236640D01*
X95349108Y-126273750D01*
X95370535Y-126310862D01*
X95370537Y-126310864D01*
X99391181Y-130331508D01*
X99424666Y-130392831D01*
X99427500Y-130419189D01*
X99427500Y-130449290D01*
X99407815Y-130516329D01*
X99355011Y-130562084D01*
X99285853Y-130572028D01*
X99227375Y-130547173D01*
X99219227Y-130540836D01*
X99204721Y-130530508D01*
X99184714Y-130517504D01*
X99184709Y-130517501D01*
X99164737Y-130504518D01*
X99164724Y-130504510D01*
X99164714Y-130504504D01*
X99147667Y-130494529D01*
X99147658Y-130494524D01*
X99147647Y-130494518D01*
X99126661Y-130483526D01*
X99119508Y-130479951D01*
X99098524Y-130469958D01*
X99087683Y-130465163D01*
X99065698Y-130456170D01*
X99057952Y-130453180D01*
X99057929Y-130453171D01*
X99043929Y-130448080D01*
X99035919Y-130445168D01*
X99025294Y-130441622D01*
X99002314Y-130434626D01*
X98987655Y-130430735D01*
X98987642Y-130430732D01*
X98981833Y-130429412D01*
X98920823Y-130395362D01*
X98887906Y-130333733D01*
X98893535Y-130264090D01*
X98898210Y-130256888D01*
X98896576Y-130245869D01*
X98790311Y-130189068D01*
X98611230Y-130134744D01*
X98425000Y-130116403D01*
X98238769Y-130134744D01*
X98059686Y-130189069D01*
X97953422Y-130245868D01*
X97950993Y-130262248D01*
X97961853Y-130282137D01*
X97956869Y-130351829D01*
X97914997Y-130407762D01*
X97868170Y-130429411D01*
X97862358Y-130430731D01*
X97847685Y-130434626D01*
X97824705Y-130441622D01*
X97814080Y-130445168D01*
X97798071Y-130450989D01*
X97792071Y-130453171D01*
X97792066Y-130453173D01*
X97792047Y-130453180D01*
X97784301Y-130456170D01*
X97762316Y-130465163D01*
X97751475Y-130469958D01*
X97730491Y-130479951D01*
X97723338Y-130483526D01*
X97702352Y-130494518D01*
X97702310Y-130494542D01*
X97685275Y-130504510D01*
X97685262Y-130504518D01*
X97665291Y-130517501D01*
X97665286Y-130517504D01*
X97645278Y-130530508D01*
X97630770Y-130540837D01*
X97612750Y-130554854D01*
X97602168Y-130563655D01*
X97584141Y-130579679D01*
X97579772Y-130583676D01*
X97579753Y-130583693D01*
X97579731Y-130583714D01*
X97562731Y-130599714D01*
X97562707Y-130599737D01*
X97553737Y-130608707D01*
X97553721Y-130608723D01*
X97553714Y-130608731D01*
X97537714Y-130625731D01*
X97537702Y-130625744D01*
X97537676Y-130625772D01*
X97533679Y-130630141D01*
X97517655Y-130648168D01*
X97508854Y-130658750D01*
X97494841Y-130676765D01*
X97484505Y-130691283D01*
X97458520Y-130731260D01*
X97458497Y-130731298D01*
X97448542Y-130748309D01*
X97448517Y-130748355D01*
X97437528Y-130769335D01*
X97433949Y-130776496D01*
X97423945Y-130797503D01*
X97419178Y-130808282D01*
X97410166Y-130830312D01*
X97407174Y-130838063D01*
X97399172Y-130860070D01*
X97397777Y-130864252D01*
X97395624Y-130870702D01*
X97388623Y-130893702D01*
X97384735Y-130908349D01*
X97381218Y-130923826D01*
X97379735Y-130930350D01*
X97377360Y-130942411D01*
X97373532Y-130965374D01*
X97373388Y-130966221D01*
X97369615Y-130987919D01*
X97366699Y-131014852D01*
X97366425Y-131021147D01*
X97365699Y-131037856D01*
X97365682Y-131038237D01*
X97364682Y-131062237D01*
X97364682Y-131079763D01*
X97365678Y-131103660D01*
X97365689Y-131103926D01*
X97365700Y-131104170D01*
X97365705Y-131104283D01*
X97366699Y-131127144D01*
X97366700Y-131127154D01*
X97369614Y-131154072D01*
X97373397Y-131175824D01*
X97373544Y-131176685D01*
X97377366Y-131199618D01*
X97379735Y-131211658D01*
X97384730Y-131233635D01*
X97388621Y-131248295D01*
X97394224Y-131266703D01*
X97395620Y-131271290D01*
X97399171Y-131281929D01*
X97399178Y-131281947D01*
X97407174Y-131303942D01*
X97410180Y-131311727D01*
X97419175Y-131333714D01*
X97423945Y-131344497D01*
X97433942Y-131365489D01*
X97437539Y-131372689D01*
X97448519Y-131393649D01*
X97448539Y-131393685D01*
X97458496Y-131410701D01*
X97484512Y-131450728D01*
X97494846Y-131465242D01*
X97508826Y-131483216D01*
X97508841Y-131483234D01*
X97508845Y-131483239D01*
X97517675Y-131493853D01*
X97526820Y-131504140D01*
X97533678Y-131511856D01*
X97537702Y-131516256D01*
X97553719Y-131533275D01*
X97562721Y-131542277D01*
X97562731Y-131542286D01*
X97562735Y-131542290D01*
X97579736Y-131558290D01*
X97584148Y-131562326D01*
X97602147Y-131578326D01*
X97602152Y-131578330D01*
X97602161Y-131578338D01*
X97612757Y-131587152D01*
X97612761Y-131587155D01*
X97612766Y-131587159D01*
X97630766Y-131601159D01*
X97645280Y-131611492D01*
X97665275Y-131624489D01*
X97685285Y-131637495D01*
X97702313Y-131647460D01*
X97702358Y-131647485D01*
X97719985Y-131656717D01*
X97723327Y-131658468D01*
X97730499Y-131662052D01*
X97730519Y-131662061D01*
X97730534Y-131662069D01*
X97732878Y-131663185D01*
X97784949Y-131709772D01*
X97803567Y-131777115D01*
X97782821Y-131843834D01*
X97729298Y-131888745D01*
X97727038Y-131889707D01*
X97680318Y-131909060D01*
X97632863Y-131918500D01*
X95107554Y-131918500D01*
X95040515Y-131898815D01*
X94994760Y-131846011D01*
X94984816Y-131776853D01*
X95013841Y-131713297D01*
X95060606Y-131679731D01*
X95067695Y-131676831D01*
X95067702Y-131676828D01*
X95078501Y-131672052D01*
X95078519Y-131672043D01*
X95078529Y-131672039D01*
X95086668Y-131668162D01*
X95099501Y-131662052D01*
X95106673Y-131658468D01*
X95127673Y-131647468D01*
X95144716Y-131637495D01*
X95154280Y-131631279D01*
X95164718Y-131624495D01*
X95179413Y-131614942D01*
X95184724Y-131611490D01*
X95199234Y-131601159D01*
X95217234Y-131587159D01*
X95227849Y-131578330D01*
X95245849Y-131562330D01*
X95250269Y-131558286D01*
X95267269Y-131542286D01*
X95276286Y-131533269D01*
X95292286Y-131516269D01*
X95296330Y-131511849D01*
X95312330Y-131493849D01*
X95321159Y-131483234D01*
X95335159Y-131465234D01*
X95345492Y-131450720D01*
X95371492Y-131410720D01*
X95381468Y-131393673D01*
X95392468Y-131372673D01*
X95396052Y-131365501D01*
X95406052Y-131344501D01*
X95410828Y-131333702D01*
X95419828Y-131311702D01*
X95422827Y-131303937D01*
X95430827Y-131281937D01*
X95434380Y-131271290D01*
X95441380Y-131248290D01*
X95445266Y-131233649D01*
X95450266Y-131211648D01*
X95452636Y-131199606D01*
X95456477Y-131176552D01*
X95456614Y-131175754D01*
X95460385Y-131154079D01*
X95460386Y-131154072D01*
X95460387Y-131154067D01*
X95463301Y-131127144D01*
X95464301Y-131104144D01*
X95464318Y-131103763D01*
X95465318Y-131079763D01*
X95465318Y-131062237D01*
X95464318Y-131038237D01*
X95464301Y-131037856D01*
X95463301Y-131014856D01*
X95460387Y-130987934D01*
X95456603Y-130966174D01*
X95456472Y-130965407D01*
X95452634Y-130942379D01*
X95450263Y-130930339D01*
X95445263Y-130908341D01*
X95441385Y-130893734D01*
X95441381Y-130893718D01*
X95434382Y-130870718D01*
X95434370Y-130870683D01*
X95430834Y-130860083D01*
X95430824Y-130860055D01*
X95422827Y-130838063D01*
X95419828Y-130830298D01*
X95414647Y-130817635D01*
X95410836Y-130808316D01*
X95409954Y-130806322D01*
X95406052Y-130797499D01*
X95406049Y-130797493D01*
X95406039Y-130797470D01*
X95396071Y-130776539D01*
X95396052Y-130776499D01*
X95392468Y-130769327D01*
X95388190Y-130761159D01*
X95381485Y-130748358D01*
X95381471Y-130748334D01*
X95381468Y-130748327D01*
X95381457Y-130748309D01*
X95371495Y-130731285D01*
X95345488Y-130691274D01*
X95335160Y-130676767D01*
X95321155Y-130658761D01*
X95312339Y-130648161D01*
X95296330Y-130630151D01*
X95296306Y-130630125D01*
X95292290Y-130625735D01*
X95292263Y-130625706D01*
X95276293Y-130608736D01*
X95267274Y-130599717D01*
X95255345Y-130588491D01*
X95250264Y-130583709D01*
X95245849Y-130579670D01*
X95227849Y-130563670D01*
X95225942Y-130562084D01*
X95217238Y-130554844D01*
X95199232Y-130540839D01*
X95184725Y-130530511D01*
X95144714Y-130504504D01*
X95127686Y-130494539D01*
X95127641Y-130494514D01*
X95106708Y-130483550D01*
X95106694Y-130483543D01*
X95106673Y-130483532D01*
X95099501Y-130479948D01*
X95099483Y-130479939D01*
X95078486Y-130469941D01*
X95067728Y-130465184D01*
X95067722Y-130465181D01*
X95067705Y-130465174D01*
X95053408Y-130459325D01*
X95045697Y-130456170D01*
X95037935Y-130453172D01*
X95015938Y-130445173D01*
X95005284Y-130441618D01*
X94982295Y-130434621D01*
X94967644Y-130430733D01*
X94945651Y-130425735D01*
X94933614Y-130423364D01*
X94918030Y-130420766D01*
X94910645Y-130419535D01*
X94910028Y-130419430D01*
X94888056Y-130415611D01*
X94888051Y-130415610D01*
X94886094Y-130415335D01*
X94886102Y-130415271D01*
X94886089Y-130415269D01*
X94886164Y-130414837D01*
X94886171Y-130414783D01*
X94823672Y-130388841D01*
X94783866Y-130331420D01*
X94781423Y-130261593D01*
X94817120Y-130201530D01*
X94869452Y-130172573D01*
X94957485Y-130148985D01*
X95083015Y-130076510D01*
X95185509Y-129974016D01*
X95257984Y-129848486D01*
X95295500Y-129708476D01*
X95295500Y-129563526D01*
X95257984Y-129423516D01*
X95249881Y-129409482D01*
X95185511Y-129297989D01*
X95185506Y-129297983D01*
X95083017Y-129195494D01*
X95083011Y-129195489D01*
X94957488Y-129123018D01*
X94957489Y-129123018D01*
X94946006Y-129119941D01*
X94817475Y-129085501D01*
X94672525Y-129085501D01*
X94543993Y-129119941D01*
X94532511Y-129123018D01*
X94406988Y-129195489D01*
X94406982Y-129195494D01*
X94304493Y-129297983D01*
X94304488Y-129297989D01*
X94232017Y-129423512D01*
X94232016Y-129423516D01*
X94194500Y-129563526D01*
X94194500Y-129708476D01*
X94229877Y-129840502D01*
X94232017Y-129848489D01*
X94283452Y-129937577D01*
X94299925Y-130005477D01*
X94277072Y-130071504D01*
X94222151Y-130114695D01*
X94188219Y-130122980D01*
X94068769Y-130134744D01*
X93889686Y-130189069D01*
X93783422Y-130245868D01*
X93774407Y-130306649D01*
X93745099Y-130370075D01*
X93686153Y-130407587D01*
X93657144Y-130412337D01*
X93648847Y-130412699D01*
X93639875Y-130413670D01*
X93621927Y-130415613D01*
X93600173Y-130419397D01*
X93599315Y-130419543D01*
X93576404Y-130423361D01*
X93564341Y-130425735D01*
X93542364Y-130430730D01*
X93527704Y-130434621D01*
X93509503Y-130440161D01*
X93504710Y-130441620D01*
X93502043Y-130442509D01*
X93494060Y-130445173D01*
X93472064Y-130453172D01*
X93464296Y-130456172D01*
X93442308Y-130465166D01*
X93431483Y-130469953D01*
X93410510Y-130479941D01*
X93403293Y-130483548D01*
X93382357Y-130494515D01*
X93382313Y-130494539D01*
X93365285Y-130504504D01*
X93325274Y-130530511D01*
X93310767Y-130540839D01*
X93292761Y-130554844D01*
X93282161Y-130563660D01*
X93264125Y-130579692D01*
X93259744Y-130583701D01*
X93242726Y-130599718D01*
X93233718Y-130608726D01*
X93217701Y-130625744D01*
X93213692Y-130630125D01*
X93197669Y-130648150D01*
X93188840Y-130658766D01*
X93174834Y-130676776D01*
X93164515Y-130691270D01*
X93151899Y-130710679D01*
X93138504Y-130731285D01*
X93128539Y-130748313D01*
X93128514Y-130748358D01*
X93117550Y-130769291D01*
X93113928Y-130776539D01*
X93103956Y-130797479D01*
X93099164Y-130808314D01*
X93090174Y-130830293D01*
X93087179Y-130838048D01*
X93079170Y-130860072D01*
X93075621Y-130870705D01*
X93068623Y-130893696D01*
X93064730Y-130908364D01*
X93059735Y-130930341D01*
X93057367Y-130942376D01*
X93057367Y-130942379D01*
X93057364Y-130942394D01*
X93056104Y-130949957D01*
X93053544Y-130965315D01*
X93053397Y-130966174D01*
X93049614Y-130987924D01*
X93046700Y-131014845D01*
X93046699Y-131014855D01*
X93045705Y-131037717D01*
X93045700Y-131037830D01*
X93045690Y-131038053D01*
X93044682Y-131062247D01*
X93044682Y-131079774D01*
X93045678Y-131103660D01*
X93045679Y-131103660D01*
X93045683Y-131103763D01*
X93045699Y-131104142D01*
X93045817Y-131106853D01*
X93046699Y-131127148D01*
X93049614Y-131154072D01*
X93053397Y-131175824D01*
X93053544Y-131176685D01*
X93057366Y-131199618D01*
X93059735Y-131211658D01*
X93064730Y-131233635D01*
X93068621Y-131248295D01*
X93072120Y-131259790D01*
X93075620Y-131271290D01*
X93077983Y-131278373D01*
X93079176Y-131281947D01*
X93087163Y-131303912D01*
X93090187Y-131311738D01*
X93099170Y-131333697D01*
X93103938Y-131344481D01*
X93103946Y-131344497D01*
X93113946Y-131365498D01*
X93113951Y-131365508D01*
X93117549Y-131372708D01*
X93128515Y-131393642D01*
X93128539Y-131393686D01*
X93137139Y-131408380D01*
X93138508Y-131410720D01*
X93152128Y-131431674D01*
X93164514Y-131450730D01*
X93174842Y-131465235D01*
X93178178Y-131469524D01*
X93188847Y-131483240D01*
X93197667Y-131493844D01*
X93213666Y-131511844D01*
X93217714Y-131516269D01*
X93233714Y-131533269D01*
X93242731Y-131542286D01*
X93259731Y-131558286D01*
X93259739Y-131558294D01*
X93259744Y-131558298D01*
X93264125Y-131562307D01*
X93282161Y-131578339D01*
X93292761Y-131587155D01*
X93310761Y-131601156D01*
X93322991Y-131609863D01*
X93323287Y-131610197D01*
X93327248Y-131612771D01*
X93345276Y-131624489D01*
X93345276Y-131624490D01*
X93365275Y-131637490D01*
X93365283Y-131637494D01*
X93365285Y-131637496D01*
X93382313Y-131647460D01*
X93382329Y-131647469D01*
X93403330Y-131658469D01*
X93410463Y-131662034D01*
X93410517Y-131662061D01*
X93412878Y-131663185D01*
X93431499Y-131672052D01*
X93438556Y-131675173D01*
X93442304Y-131676831D01*
X93449394Y-131679731D01*
X93503990Y-131723333D01*
X93526346Y-131789529D01*
X93509365Y-131857304D01*
X93458438Y-131905139D01*
X93402446Y-131918500D01*
X93197032Y-131918500D01*
X93129993Y-131898815D01*
X93121546Y-131892876D01*
X93012842Y-131809464D01*
X92866762Y-131748956D01*
X92866760Y-131748955D01*
X92710001Y-131728318D01*
X92709997Y-131728318D01*
X92642179Y-131737246D01*
X92573144Y-131726480D01*
X92538314Y-131701988D01*
X90837444Y-130001118D01*
X89134819Y-128298492D01*
X89101334Y-128237169D01*
X89098500Y-128210811D01*
X89098500Y-123992808D01*
X89118185Y-123925769D01*
X89147010Y-123894435D01*
X89175882Y-123872282D01*
X89272136Y-123746841D01*
X89332644Y-123600762D01*
X89346402Y-123496254D01*
X89353282Y-123444001D01*
X89353282Y-123443998D01*
X89334710Y-123302931D01*
X89332644Y-123287238D01*
X89272136Y-123141159D01*
X89175882Y-123015718D01*
X89050441Y-122919464D01*
X89023544Y-122908323D01*
X88904362Y-122858956D01*
X88904360Y-122858955D01*
X88747601Y-122838318D01*
X88747599Y-122838318D01*
X88590839Y-122858955D01*
X88590837Y-122858956D01*
X88444760Y-122919463D01*
X88319318Y-123015718D01*
X88223063Y-123141160D01*
X88162556Y-123287237D01*
X88162555Y-123287239D01*
X88141918Y-123443998D01*
X88141918Y-123444001D01*
X88162555Y-123600760D01*
X88162556Y-123600762D01*
X88223064Y-123746841D01*
X88319318Y-123872282D01*
X88319319Y-123872283D01*
X88398986Y-123933413D01*
X88440189Y-123989841D01*
X88447500Y-124031789D01*
X88447500Y-128354147D01*
X88447500Y-128439853D01*
X88454702Y-128466733D01*
X88469682Y-128522640D01*
X88487164Y-128552918D01*
X88512535Y-128596862D01*
X90311035Y-130395362D01*
X92077988Y-132162314D01*
X92111473Y-132223637D01*
X92113246Y-132266179D01*
X92104318Y-132333997D01*
X92104318Y-132334001D01*
X92124955Y-132490760D01*
X92124956Y-132490762D01*
X92173933Y-132609004D01*
X92185464Y-132636841D01*
X92281718Y-132762282D01*
X92407159Y-132858536D01*
X92553238Y-132919044D01*
X92631619Y-132929363D01*
X92709999Y-132939682D01*
X92710000Y-132939682D01*
X92710001Y-132939682D01*
X92762254Y-132932802D01*
X92866762Y-132919044D01*
X93012841Y-132858536D01*
X93138282Y-132762282D01*
X93234536Y-132636841D01*
X93234539Y-132636833D01*
X93237621Y-132631497D01*
X93288190Y-132583283D01*
X93345007Y-132569500D01*
X95214922Y-132569500D01*
X95281961Y-132589185D01*
X95327716Y-132641989D01*
X95337660Y-132711147D01*
X95329483Y-132740952D01*
X95299957Y-132812234D01*
X95299955Y-132812239D01*
X95279318Y-132968998D01*
X95279318Y-132969002D01*
X95289328Y-133045042D01*
X95278562Y-133114077D01*
X95254071Y-133148907D01*
X95181793Y-133221185D01*
X95181792Y-133221186D01*
X95174726Y-133228253D01*
X95174725Y-133228253D01*
X95174722Y-133228255D01*
X95174723Y-133228256D01*
X95070796Y-133332182D01*
X95009476Y-133365666D01*
X94983117Y-133368500D01*
X89947908Y-133368500D01*
X89880869Y-133348815D01*
X89849535Y-133319989D01*
X89836282Y-133302718D01*
X89710841Y-133206464D01*
X89653549Y-133182733D01*
X89564762Y-133145956D01*
X89564760Y-133145955D01*
X89408001Y-133125318D01*
X89407999Y-133125318D01*
X89251239Y-133145955D01*
X89251237Y-133145956D01*
X89105160Y-133206463D01*
X88979718Y-133302718D01*
X88883463Y-133428160D01*
X88822956Y-133574237D01*
X88822955Y-133574239D01*
X88802318Y-133730998D01*
X88802318Y-133731001D01*
X88822955Y-133887760D01*
X88822956Y-133887762D01*
X88883464Y-134033841D01*
X88979718Y-134159282D01*
X89045401Y-134209682D01*
X89065192Y-134224868D01*
X89106394Y-134281296D01*
X89110549Y-134351043D01*
X89076336Y-134411963D01*
X89014619Y-134444715D01*
X89005895Y-134446182D01*
X88995924Y-134447495D01*
X88995923Y-134447495D01*
X88849846Y-134508002D01*
X88724401Y-134604259D01*
X88685875Y-134654468D01*
X88629447Y-134695671D01*
X88559701Y-134699825D01*
X88498781Y-134665612D01*
X88466028Y-134603894D01*
X88463500Y-134578981D01*
X88463500Y-131116855D01*
X88463501Y-131116842D01*
X88463501Y-131021148D01*
X88463500Y-131021144D01*
X88461814Y-131014852D01*
X88441318Y-130938362D01*
X88436692Y-130930349D01*
X88398465Y-130864138D01*
X88337862Y-130803535D01*
X88337861Y-130803534D01*
X88333531Y-130799204D01*
X88333520Y-130799194D01*
X87171819Y-129637492D01*
X87138334Y-129576169D01*
X87135500Y-129549811D01*
X87135500Y-118717557D01*
X87135500Y-118717555D01*
X87113318Y-118634770D01*
X87089061Y-118592755D01*
X87070469Y-118560552D01*
X87070463Y-118560544D01*
X84442419Y-115932500D01*
X84408934Y-115871177D01*
X84406100Y-115844819D01*
X84406100Y-115599248D01*
X84406100Y-115599246D01*
X84383918Y-115516461D01*
X84345756Y-115450362D01*
X84341069Y-115442243D01*
X84341063Y-115442235D01*
X82759419Y-113860591D01*
X82725934Y-113799268D01*
X82723100Y-113772910D01*
X82723100Y-113496698D01*
X82742785Y-113429659D01*
X82771610Y-113398325D01*
X82825882Y-113356682D01*
X82922136Y-113231241D01*
X82982644Y-113085162D01*
X83003282Y-112928400D01*
X83002836Y-112925016D01*
X82982644Y-112771639D01*
X82982644Y-112771638D01*
X82922136Y-112625559D01*
X82825882Y-112500118D01*
X82700441Y-112403864D01*
X82689222Y-112399217D01*
X82554362Y-112343356D01*
X82554360Y-112343355D01*
X82403435Y-112323486D01*
X85161900Y-112323486D01*
X85193676Y-112524115D01*
X85195154Y-112533443D01*
X85225084Y-112625559D01*
X85260844Y-112735614D01*
X85357351Y-112925020D01*
X85482290Y-113096986D01*
X85632613Y-113247309D01*
X85804579Y-113372248D01*
X85804581Y-113372249D01*
X85804584Y-113372251D01*
X85993988Y-113468757D01*
X86196157Y-113534446D01*
X86406113Y-113567700D01*
X86406114Y-113567700D01*
X86618686Y-113567700D01*
X86618687Y-113567700D01*
X86828643Y-113534446D01*
X87030812Y-113468757D01*
X87220216Y-113372251D01*
X87295509Y-113317548D01*
X87392186Y-113247309D01*
X87392188Y-113247306D01*
X87392192Y-113247304D01*
X87542504Y-113096992D01*
X87542506Y-113096988D01*
X87542509Y-113096986D01*
X87667448Y-112925020D01*
X87667447Y-112925020D01*
X87667451Y-112925016D01*
X87763957Y-112735612D01*
X87829646Y-112533443D01*
X87862900Y-112323487D01*
X87862900Y-112110913D01*
X87829646Y-111900957D01*
X87763957Y-111698788D01*
X87667451Y-111509384D01*
X87667449Y-111509381D01*
X87667448Y-111509379D01*
X87542509Y-111337413D01*
X87392186Y-111187090D01*
X87220220Y-111062151D01*
X87030814Y-110965644D01*
X87030813Y-110965643D01*
X87030812Y-110965643D01*
X86828643Y-110899954D01*
X86828641Y-110899953D01*
X86828640Y-110899953D01*
X86667357Y-110874408D01*
X86618687Y-110866700D01*
X86406113Y-110866700D01*
X86357442Y-110874408D01*
X86196160Y-110899953D01*
X85993985Y-110965644D01*
X85804579Y-111062151D01*
X85632613Y-111187090D01*
X85482290Y-111337413D01*
X85357351Y-111509379D01*
X85260844Y-111698785D01*
X85195153Y-111900960D01*
X85161900Y-112110913D01*
X85161900Y-112323486D01*
X82403435Y-112323486D01*
X82397601Y-112322718D01*
X82397599Y-112322718D01*
X82240839Y-112343355D01*
X82240837Y-112343356D01*
X82094760Y-112403863D01*
X81969318Y-112500118D01*
X81873063Y-112625560D01*
X81812556Y-112771637D01*
X81812555Y-112771639D01*
X81791918Y-112928398D01*
X81791918Y-112928401D01*
X81812555Y-113085160D01*
X81812556Y-113085162D01*
X81873064Y-113231241D01*
X81969318Y-113356682D01*
X81969320Y-113356683D01*
X81972551Y-113360894D01*
X81997745Y-113426064D01*
X81983707Y-113494508D01*
X81934893Y-113544498D01*
X81866802Y-113560162D01*
X81801051Y-113536525D01*
X81786494Y-113524062D01*
X81438619Y-113176187D01*
X81405134Y-113114864D01*
X81402300Y-113088506D01*
X81402300Y-112175898D01*
X81421985Y-112108859D01*
X81450810Y-112077525D01*
X81505082Y-112035882D01*
X81601336Y-111910441D01*
X81661844Y-111764362D01*
X81682482Y-111607600D01*
X81680960Y-111596042D01*
X81661844Y-111450839D01*
X81661844Y-111450838D01*
X81601336Y-111304759D01*
X81505082Y-111179318D01*
X81379641Y-111083064D01*
X81233562Y-111022556D01*
X81233560Y-111022555D01*
X81076801Y-111001918D01*
X81076799Y-111001918D01*
X80920039Y-111022555D01*
X80920037Y-111022556D01*
X80773960Y-111083063D01*
X80648518Y-111179318D01*
X80552263Y-111304760D01*
X80491756Y-111450837D01*
X80491756Y-111450838D01*
X80486116Y-111493676D01*
X80457849Y-111557572D01*
X80399524Y-111596042D01*
X80329659Y-111596873D01*
X80275496Y-111565170D01*
X74241211Y-105530885D01*
X74207726Y-105469562D01*
X74205953Y-105427018D01*
X74214882Y-105359200D01*
X74214882Y-105359198D01*
X74194244Y-105202439D01*
X74194244Y-105202438D01*
X74133736Y-105056359D01*
X74037482Y-104930918D01*
X73912041Y-104834664D01*
X73765962Y-104774156D01*
X73765960Y-104774155D01*
X73609201Y-104753518D01*
X73609199Y-104753518D01*
X73452439Y-104774155D01*
X73452437Y-104774156D01*
X73306360Y-104834663D01*
X73180918Y-104930918D01*
X73084663Y-105056360D01*
X73024156Y-105202437D01*
X73024155Y-105202439D01*
X73003518Y-105359198D01*
X73003518Y-105359201D01*
X73024155Y-105515960D01*
X73024156Y-105515962D01*
X73047805Y-105573057D01*
X73084664Y-105662041D01*
X73180918Y-105787482D01*
X73306359Y-105883736D01*
X73452438Y-105944244D01*
X73480748Y-105947971D01*
X73609199Y-105964882D01*
X73609200Y-105964882D01*
X73609201Y-105964882D01*
X73644908Y-105960180D01*
X73677018Y-105955953D01*
X73746053Y-105966718D01*
X73780885Y-105991211D01*
X80003781Y-112214107D01*
X80037266Y-112275430D01*
X80040100Y-112301788D01*
X80040100Y-115293353D01*
X80062282Y-115376141D01*
X80069589Y-115388796D01*
X80105135Y-115450363D01*
X82158433Y-117503661D01*
X82158434Y-117503662D01*
X82219037Y-117564265D01*
X82219039Y-117564266D01*
X82219043Y-117564269D01*
X82293254Y-117607114D01*
X82293261Y-117607118D01*
X82376046Y-117629300D01*
X82461752Y-117629300D01*
X82621619Y-117629300D01*
X82688658Y-117648985D01*
X82709300Y-117665619D01*
X84506083Y-119462402D01*
X84539568Y-119523725D01*
X84542402Y-119550083D01*
X84542402Y-129278273D01*
X84522717Y-129345312D01*
X84469913Y-129391067D01*
X84400755Y-129401011D01*
X84337199Y-129371986D01*
X84330721Y-129365954D01*
X78096219Y-123131452D01*
X78062734Y-123070129D01*
X78059900Y-123043771D01*
X78059900Y-119951500D01*
X78079585Y-119884461D01*
X78132389Y-119838706D01*
X78183900Y-119827500D01*
X78234403Y-119827500D01*
X78234403Y-119827499D01*
X78280128Y-119822348D01*
X78292618Y-119816333D01*
X78324754Y-119800857D01*
X78393695Y-119789504D01*
X78430736Y-119805055D01*
X78432648Y-119801087D01*
X78445235Y-119807148D01*
X78445236Y-119807148D01*
X78445237Y-119807149D01*
X78511828Y-119822348D01*
X78534395Y-119827499D01*
X78534400Y-119827500D01*
X78560943Y-119827500D01*
X78627982Y-119847185D01*
X78673737Y-119899989D01*
X78684913Y-119954239D01*
X78681128Y-120125525D01*
X78659967Y-120192114D01*
X78632646Y-120221161D01*
X78565720Y-120272515D01*
X78469463Y-120397960D01*
X78408956Y-120544037D01*
X78408955Y-120544039D01*
X78388318Y-120700798D01*
X78388318Y-120700801D01*
X78408955Y-120857560D01*
X78408956Y-120857562D01*
X78469464Y-121003641D01*
X78565718Y-121129082D01*
X78691159Y-121225336D01*
X78837238Y-121285844D01*
X78872703Y-121290513D01*
X78993999Y-121306482D01*
X78994000Y-121306482D01*
X78994001Y-121306482D01*
X79046254Y-121299602D01*
X79150762Y-121285844D01*
X79296841Y-121225336D01*
X79422282Y-121129082D01*
X79518536Y-121003641D01*
X79579044Y-120857562D01*
X79599682Y-120700800D01*
X79596591Y-120677324D01*
X79579044Y-120544039D01*
X79579044Y-120544038D01*
X79518536Y-120397959D01*
X79422282Y-120272518D01*
X79422280Y-120272517D01*
X79422280Y-120272516D01*
X79380466Y-120240432D01*
X79339263Y-120184004D01*
X79331982Y-120139317D01*
X79334168Y-120040401D01*
X79338816Y-119829982D01*
X79359977Y-119763395D01*
X79395745Y-119728407D01*
X79476299Y-119676639D01*
X79520505Y-119638334D01*
X79596974Y-119550083D01*
X79614650Y-119529684D01*
X79614652Y-119529681D01*
X79614659Y-119529673D01*
X79646281Y-119480468D01*
X79646284Y-119480460D01*
X79646287Y-119480456D01*
X79688806Y-119387353D01*
X79734560Y-119334549D01*
X79801600Y-119314864D01*
X79868639Y-119334548D01*
X79914394Y-119387352D01*
X79914394Y-119387353D01*
X79956912Y-119480456D01*
X79956921Y-119480472D01*
X79968649Y-119498721D01*
X79984718Y-119523725D01*
X79988538Y-119529668D01*
X79988549Y-119529684D01*
X80055270Y-119606683D01*
X80082695Y-119638334D01*
X80122474Y-119672803D01*
X80126900Y-119676638D01*
X80126901Y-119676639D01*
X80247849Y-119754368D01*
X80247851Y-119754368D01*
X80247855Y-119754371D01*
X80301060Y-119778669D01*
X80439015Y-119819176D01*
X80496911Y-119827500D01*
X80496914Y-119827500D01*
X81068803Y-119827500D01*
X81068803Y-119827499D01*
X81114528Y-119822348D01*
X81159154Y-119800856D01*
X81228093Y-119789503D01*
X81265120Y-119805086D01*
X81267046Y-119801087D01*
X81279633Y-119807148D01*
X81279634Y-119807148D01*
X81279635Y-119807149D01*
X81346226Y-119822348D01*
X81368793Y-119827499D01*
X81368798Y-119827500D01*
X81940684Y-119827500D01*
X81940687Y-119827500D01*
X81998583Y-119819176D01*
X82136538Y-119778669D01*
X82180831Y-119758440D01*
X82249988Y-119748496D01*
X82313544Y-119777520D01*
X82320024Y-119783553D01*
X82378677Y-119842206D01*
X82412162Y-119903529D01*
X82413935Y-119946071D01*
X82401518Y-120040397D01*
X82401518Y-120040401D01*
X82422155Y-120197160D01*
X82422156Y-120197162D01*
X82453528Y-120272902D01*
X82482664Y-120343241D01*
X82578918Y-120468682D01*
X82704359Y-120564936D01*
X82850438Y-120625444D01*
X82928819Y-120635763D01*
X83007199Y-120646082D01*
X83007200Y-120646082D01*
X83007201Y-120646082D01*
X83059454Y-120639202D01*
X83163962Y-120625444D01*
X83310041Y-120564936D01*
X83435482Y-120468682D01*
X83531736Y-120343241D01*
X83592244Y-120197162D01*
X83612882Y-120040400D01*
X83592244Y-119883638D01*
X83531736Y-119737559D01*
X83435482Y-119612118D01*
X83310041Y-119515864D01*
X83268654Y-119498721D01*
X83163962Y-119455356D01*
X83163960Y-119455355D01*
X83007201Y-119434718D01*
X83007197Y-119434718D01*
X82965887Y-119440156D01*
X82896851Y-119429390D01*
X82862022Y-119404898D01*
X82611143Y-119154018D01*
X82577658Y-119092695D01*
X82576088Y-119083991D01*
X82575555Y-119080287D01*
X82574298Y-119062673D01*
X82574298Y-118681327D01*
X82575560Y-118663680D01*
X82577348Y-118651245D01*
X82577348Y-118592754D01*
X82557856Y-118457182D01*
X82556887Y-118450443D01*
X82556886Y-118450441D01*
X82556886Y-118450439D01*
X82540407Y-118394317D01*
X82536372Y-118385481D01*
X82480685Y-118263543D01*
X82480676Y-118263527D01*
X82472073Y-118250141D01*
X82449057Y-118214327D01*
X82449053Y-118214322D01*
X82449048Y-118214315D01*
X82366143Y-118118638D01*
X82354903Y-118105666D01*
X82310697Y-118067361D01*
X82310696Y-118067360D01*
X82189748Y-117989631D01*
X82189744Y-117989629D01*
X82189743Y-117989629D01*
X82136538Y-117965331D01*
X82046692Y-117938950D01*
X81998587Y-117924825D01*
X81998575Y-117924822D01*
X81940688Y-117916500D01*
X81940687Y-117916500D01*
X81368798Y-117916500D01*
X81368793Y-117916500D01*
X81323069Y-117921652D01*
X81323067Y-117921652D01*
X81278442Y-117943143D01*
X81209501Y-117954495D01*
X81172457Y-117938950D01*
X81170549Y-117942913D01*
X81157964Y-117936852D01*
X81157963Y-117936851D01*
X81157961Y-117936850D01*
X81157960Y-117936850D01*
X81068804Y-117916500D01*
X81068800Y-117916500D01*
X80496911Y-117916500D01*
X80496909Y-117916500D01*
X80439022Y-117924822D01*
X80439010Y-117924825D01*
X80301060Y-117965331D01*
X80247855Y-117989629D01*
X80247849Y-117989631D01*
X80126901Y-118067360D01*
X80126900Y-118067361D01*
X80082692Y-118105669D01*
X79988549Y-118214315D01*
X79988538Y-118214331D01*
X79956921Y-118263527D01*
X79956915Y-118263538D01*
X79914394Y-118356647D01*
X79868639Y-118409451D01*
X79801600Y-118429135D01*
X79734560Y-118409450D01*
X79688806Y-118356647D01*
X79646284Y-118263538D01*
X79646278Y-118263527D01*
X79637675Y-118250141D01*
X79614659Y-118214327D01*
X79614655Y-118214322D01*
X79614650Y-118214315D01*
X79531745Y-118118638D01*
X79520505Y-118105666D01*
X79476299Y-118067361D01*
X79476298Y-118067360D01*
X79355350Y-117989631D01*
X79355346Y-117989629D01*
X79355345Y-117989629D01*
X79302140Y-117965331D01*
X79212294Y-117938950D01*
X79164189Y-117924825D01*
X79164177Y-117924822D01*
X79106290Y-117916500D01*
X79106289Y-117916500D01*
X78534400Y-117916500D01*
X78534395Y-117916500D01*
X78488672Y-117921651D01*
X78444043Y-117943144D01*
X78375101Y-117954495D01*
X78338059Y-117938951D01*
X78336152Y-117942913D01*
X78323564Y-117936851D01*
X78234404Y-117916500D01*
X78234400Y-117916500D01*
X77662511Y-117916500D01*
X77662509Y-117916500D01*
X77604622Y-117924822D01*
X77604610Y-117924825D01*
X77466660Y-117965331D01*
X77413455Y-117989629D01*
X77413449Y-117989631D01*
X77292501Y-118067360D01*
X77292500Y-118067361D01*
X77248292Y-118105669D01*
X77154149Y-118214315D01*
X77154138Y-118214331D01*
X77122521Y-118263527D01*
X77122512Y-118263543D01*
X77062793Y-118394310D01*
X77046312Y-118450438D01*
X77046310Y-118450443D01*
X77025850Y-118592754D01*
X77025850Y-118651244D01*
X77027638Y-118663680D01*
X77028900Y-118681327D01*
X77028900Y-119062673D01*
X77027638Y-119080319D01*
X77025850Y-119092753D01*
X77025850Y-119151245D01*
X77046310Y-119293556D01*
X77046312Y-119293561D01*
X77062793Y-119349689D01*
X77122512Y-119480456D01*
X77122521Y-119480472D01*
X77134249Y-119498721D01*
X77150318Y-119523725D01*
X77154138Y-119529668D01*
X77154149Y-119529684D01*
X77220870Y-119606683D01*
X77248295Y-119638334D01*
X77288074Y-119672803D01*
X77292500Y-119676638D01*
X77292503Y-119676640D01*
X77351938Y-119714836D01*
X77397694Y-119767639D01*
X77408900Y-119819152D01*
X77408900Y-123187107D01*
X77408900Y-123272813D01*
X77416970Y-123302931D01*
X77431082Y-123355600D01*
X77432038Y-123357255D01*
X77473935Y-123429822D01*
X77473937Y-123429824D01*
X84056083Y-130011970D01*
X84089568Y-130073293D01*
X84092402Y-130099651D01*
X84092402Y-131948313D01*
X84072717Y-132015352D01*
X84019913Y-132061107D01*
X83950755Y-132071051D01*
X83887199Y-132042026D01*
X83880721Y-132035994D01*
X80311464Y-128466737D01*
X80311462Y-128466735D01*
X80294017Y-128456663D01*
X80244469Y-128428055D01*
X80208096Y-128396156D01*
X80140937Y-128308634D01*
X80133482Y-128298918D01*
X80008041Y-128202664D01*
X79861962Y-128142156D01*
X79861960Y-128142155D01*
X79705201Y-128121518D01*
X79705199Y-128121518D01*
X79548439Y-128142155D01*
X79548437Y-128142156D01*
X79402360Y-128202663D01*
X79276918Y-128298918D01*
X79180663Y-128424360D01*
X79120156Y-128570437D01*
X79120155Y-128570439D01*
X79099518Y-128727198D01*
X79099518Y-128727201D01*
X79120155Y-128883960D01*
X79120156Y-128883962D01*
X79160432Y-128981198D01*
X79180664Y-129030041D01*
X79276918Y-129155482D01*
X79402359Y-129251736D01*
X79548438Y-129312244D01*
X79626819Y-129322563D01*
X79705199Y-129332882D01*
X79705200Y-129332882D01*
X79705201Y-129332882D01*
X79757454Y-129326002D01*
X79861962Y-129312244D01*
X80008041Y-129251736D01*
X80016692Y-129245097D01*
X80081856Y-129219901D01*
X80150301Y-129233934D01*
X80179862Y-129255789D01*
X85032981Y-134108908D01*
X85066466Y-134170231D01*
X85069300Y-134196589D01*
X85069300Y-135504358D01*
X85049615Y-135571397D01*
X84996811Y-135617152D01*
X84927653Y-135627096D01*
X84864097Y-135598071D01*
X84846925Y-135579845D01*
X84783994Y-135497833D01*
X84756282Y-135461718D01*
X84630841Y-135365464D01*
X84484762Y-135304956D01*
X84484760Y-135304955D01*
X84328001Y-135284318D01*
X84327999Y-135284318D01*
X84171239Y-135304955D01*
X84171237Y-135304956D01*
X84025160Y-135365463D01*
X83899718Y-135461718D01*
X83803463Y-135587160D01*
X83742956Y-135733237D01*
X83742955Y-135733239D01*
X83722318Y-135889998D01*
X83722318Y-135890001D01*
X83742955Y-136046760D01*
X83742956Y-136046762D01*
X83783232Y-136143998D01*
X83803464Y-136192841D01*
X83898909Y-136317228D01*
X83899719Y-136318283D01*
X83997227Y-136393103D01*
X84038430Y-136449531D01*
X84042585Y-136519277D01*
X84008373Y-136580197D01*
X83969194Y-136606040D01*
X83898160Y-136635463D01*
X83855059Y-136668536D01*
X83779163Y-136726773D01*
X83772717Y-136731719D01*
X83730029Y-136787351D01*
X83673601Y-136828553D01*
X83657983Y-136832342D01*
X83657998Y-136832396D01*
X83650149Y-136834499D01*
X83650148Y-136834499D01*
X83625252Y-136841170D01*
X83567360Y-136856682D01*
X83567355Y-136856685D01*
X83493144Y-136899530D01*
X83493136Y-136899536D01*
X83432533Y-136960140D01*
X81197684Y-139194988D01*
X81136361Y-139228473D01*
X81093818Y-139230246D01*
X81026001Y-139221318D01*
X81025999Y-139221318D01*
X80869239Y-139241955D01*
X80869237Y-139241956D01*
X80723160Y-139302463D01*
X80597717Y-139398719D01*
X80558490Y-139449840D01*
X80502061Y-139491042D01*
X80432315Y-139495196D01*
X80384628Y-139472727D01*
X80333213Y-139433274D01*
X80292010Y-139376846D01*
X80284700Y-139334899D01*
X80284700Y-137880698D01*
X80304385Y-137813659D01*
X80333210Y-137782325D01*
X80387482Y-137740682D01*
X80483736Y-137615241D01*
X80544244Y-137469162D01*
X80558452Y-137361239D01*
X80564882Y-137312401D01*
X80564882Y-137312398D01*
X80544244Y-137155639D01*
X80544244Y-137155638D01*
X80483736Y-137009559D01*
X80387482Y-136884118D01*
X80262041Y-136787864D01*
X80257507Y-136785986D01*
X80115962Y-136727356D01*
X80115960Y-136727355D01*
X79959201Y-136706718D01*
X79959199Y-136706718D01*
X79802439Y-136727355D01*
X79802437Y-136727356D01*
X79656360Y-136787863D01*
X79656359Y-136787864D01*
X79566051Y-136857160D01*
X79530917Y-136884119D01*
X79523247Y-136894115D01*
X79466817Y-136935315D01*
X79397071Y-136939467D01*
X79336152Y-136905252D01*
X79310314Y-136866078D01*
X79270164Y-136769146D01*
X79264537Y-136755561D01*
X79264536Y-136755560D01*
X79264536Y-136755559D01*
X79168282Y-136630118D01*
X79042841Y-136533864D01*
X79007313Y-136519148D01*
X78896762Y-136473356D01*
X78896760Y-136473355D01*
X78740001Y-136452718D01*
X78739999Y-136452718D01*
X78583239Y-136473355D01*
X78583237Y-136473356D01*
X78437160Y-136533863D01*
X78311718Y-136630118D01*
X78215463Y-136755560D01*
X78154956Y-136901637D01*
X78154955Y-136901639D01*
X78134318Y-137058398D01*
X78134318Y-137058401D01*
X78154955Y-137215160D01*
X78154956Y-137215162D01*
X78203935Y-137333409D01*
X78215464Y-137361241D01*
X78311718Y-137486682D01*
X78437159Y-137582936D01*
X78437160Y-137582936D01*
X78437161Y-137582937D01*
X78456521Y-137590956D01*
X78541152Y-137626011D01*
X78595556Y-137669851D01*
X78617621Y-137736146D01*
X78617700Y-137740572D01*
X78617700Y-139741299D01*
X78598015Y-139808338D01*
X78569188Y-139839674D01*
X78514920Y-139881315D01*
X78418663Y-140006760D01*
X78358156Y-140152837D01*
X78358156Y-140152839D01*
X78351172Y-140205885D01*
X78322905Y-140269782D01*
X78264580Y-140308252D01*
X78194715Y-140309083D01*
X78152746Y-140288075D01*
X78152283Y-140287720D01*
X78152282Y-140287718D01*
X78026841Y-140191464D01*
X77994908Y-140178237D01*
X77880762Y-140130956D01*
X77880760Y-140130955D01*
X77724001Y-140110318D01*
X77723999Y-140110318D01*
X77567239Y-140130955D01*
X77567234Y-140130957D01*
X77431042Y-140187369D01*
X77361573Y-140194838D01*
X77299094Y-140163562D01*
X77269029Y-140120261D01*
X77232536Y-140032159D01*
X77136282Y-139906718D01*
X77010841Y-139810464D01*
X77005708Y-139808338D01*
X76864762Y-139749956D01*
X76864760Y-139749955D01*
X76708001Y-139729318D01*
X76707999Y-139729318D01*
X76551239Y-139749955D01*
X76551237Y-139749956D01*
X76405160Y-139810463D01*
X76279718Y-139906718D01*
X76183463Y-140032160D01*
X76122956Y-140178237D01*
X76122955Y-140178239D01*
X76102318Y-140334998D01*
X76102318Y-140335001D01*
X76111246Y-140402817D01*
X76100480Y-140471852D01*
X76075988Y-140506683D01*
X74871381Y-141711291D01*
X74810058Y-141744776D01*
X74740366Y-141739792D01*
X74684433Y-141697920D01*
X74660016Y-141632456D01*
X74659700Y-141623610D01*
X74659700Y-140762785D01*
X74679385Y-140695746D01*
X74696019Y-140675104D01*
X75937849Y-139433274D01*
X77215265Y-138155858D01*
X77258118Y-138081635D01*
X77280300Y-137998849D01*
X77280300Y-137913143D01*
X77280300Y-131825494D01*
X77299985Y-131758455D01*
X77316619Y-131737813D01*
X77615897Y-131438535D01*
X77947465Y-131106967D01*
X77990318Y-131032744D01*
X78012500Y-130949958D01*
X78012500Y-130864252D01*
X78012500Y-129663347D01*
X77998303Y-129610361D01*
X77990318Y-129580561D01*
X77963167Y-129533535D01*
X77947465Y-129506338D01*
X77886862Y-129445735D01*
X77886861Y-129445734D01*
X77882531Y-129441404D01*
X77882520Y-129441394D01*
X77522936Y-129081810D01*
X77161862Y-128720735D01*
X77124750Y-128699308D01*
X77087640Y-128677882D01*
X77046246Y-128666791D01*
X77004853Y-128655700D01*
X77004852Y-128655700D01*
X75549099Y-128655700D01*
X75482060Y-128636015D01*
X75450723Y-128607186D01*
X75409083Y-128552919D01*
X75409082Y-128552918D01*
X75283641Y-128456664D01*
X75243053Y-128439852D01*
X75137562Y-128396156D01*
X75137560Y-128396155D01*
X74980801Y-128375518D01*
X74980799Y-128375518D01*
X74824039Y-128396155D01*
X74824037Y-128396156D01*
X74677960Y-128456663D01*
X74552518Y-128552918D01*
X74456263Y-128678360D01*
X74395756Y-128824437D01*
X74395755Y-128824439D01*
X74375118Y-128981198D01*
X74375118Y-128981201D01*
X74395755Y-129137960D01*
X74395756Y-129137962D01*
X74444561Y-129255789D01*
X74456264Y-129284041D01*
X74552518Y-129409482D01*
X74677959Y-129505736D01*
X74824038Y-129566244D01*
X74899426Y-129576169D01*
X74980799Y-129586882D01*
X74980800Y-129586882D01*
X74980801Y-129586882D01*
X75051038Y-129577635D01*
X75137562Y-129566244D01*
X75283641Y-129505736D01*
X75283641Y-129505735D01*
X75291149Y-129502626D01*
X75292316Y-129505444D01*
X75346098Y-129492372D01*
X75412134Y-129515196D01*
X75455349Y-129570098D01*
X75463190Y-129632419D01*
X75441918Y-129793998D01*
X75441918Y-129794001D01*
X75462555Y-129950760D01*
X75462556Y-129950762D01*
X75514642Y-130076510D01*
X75523064Y-130096841D01*
X75619318Y-130222282D01*
X75673587Y-130263924D01*
X75714789Y-130320349D01*
X75722100Y-130362298D01*
X75722100Y-132053725D01*
X75702415Y-132120764D01*
X75649611Y-132166519D01*
X75580453Y-132176463D01*
X75516897Y-132147438D01*
X75483539Y-132101178D01*
X75459037Y-132042026D01*
X75454536Y-132031159D01*
X75358282Y-131905718D01*
X75232841Y-131809464D01*
X75186261Y-131790170D01*
X75086762Y-131748956D01*
X75086760Y-131748955D01*
X74930001Y-131728318D01*
X74929999Y-131728318D01*
X74773239Y-131748955D01*
X74773237Y-131748956D01*
X74627160Y-131809463D01*
X74501718Y-131905718D01*
X74405463Y-132031160D01*
X74344956Y-132177237D01*
X74344955Y-132177239D01*
X74324318Y-132333998D01*
X74324318Y-132334001D01*
X74344955Y-132490760D01*
X74344956Y-132490762D01*
X74393933Y-132609004D01*
X74405464Y-132636841D01*
X74501718Y-132762282D01*
X74555987Y-132803924D01*
X74597189Y-132860349D01*
X74604500Y-132902298D01*
X74604500Y-136602115D01*
X74584815Y-136669154D01*
X74568181Y-136689796D01*
X73695070Y-137562906D01*
X73633747Y-137596391D01*
X73570924Y-137591898D01*
X73570613Y-137593060D01*
X73564585Y-137591444D01*
X73564055Y-137591407D01*
X73563225Y-137591080D01*
X73562760Y-137590955D01*
X73406001Y-137570318D01*
X73405999Y-137570318D01*
X73249239Y-137590955D01*
X73249237Y-137590956D01*
X73103160Y-137651463D01*
X72977716Y-137747719D01*
X72936077Y-137801986D01*
X72879649Y-137843189D01*
X72837701Y-137850500D01*
X69669501Y-137850500D01*
X69602462Y-137830815D01*
X69581820Y-137814181D01*
X69414838Y-137647199D01*
X69381353Y-137585876D01*
X69379580Y-137543331D01*
X69383052Y-137516965D01*
X69388509Y-137475515D01*
X69387672Y-137469160D01*
X69367871Y-137318754D01*
X69367871Y-137318753D01*
X69307363Y-137172674D01*
X69211109Y-137047233D01*
X69085668Y-136950979D01*
X69071373Y-136945058D01*
X68939589Y-136890471D01*
X68939587Y-136890470D01*
X68782828Y-136869833D01*
X68782826Y-136869833D01*
X68626066Y-136890470D01*
X68626064Y-136890471D01*
X68479987Y-136950978D01*
X68354545Y-137047233D01*
X68258290Y-137172675D01*
X68197783Y-137318752D01*
X68197782Y-137318754D01*
X68177981Y-137469162D01*
X68177145Y-137475515D01*
X68178615Y-137486681D01*
X68181960Y-137512094D01*
X68171192Y-137581129D01*
X68146701Y-137615957D01*
X64902257Y-140860403D01*
X64840934Y-140893888D01*
X64814576Y-140896722D01*
X63404974Y-140896722D01*
X63337935Y-140877037D01*
X63306600Y-140848211D01*
X63284140Y-140818940D01*
X63158699Y-140722686D01*
X63143320Y-140716316D01*
X63012620Y-140662178D01*
X63012618Y-140662177D01*
X62855859Y-140641540D01*
X62855857Y-140641540D01*
X62699097Y-140662177D01*
X62699095Y-140662178D01*
X62553018Y-140722685D01*
X62427576Y-140818940D01*
X62331321Y-140944382D01*
X62270814Y-141090459D01*
X62270813Y-141090461D01*
X62250176Y-141247220D01*
X62250176Y-141247223D01*
X62270813Y-141403982D01*
X62270814Y-141403984D01*
X62322055Y-141527692D01*
X62331322Y-141550063D01*
X62427576Y-141675504D01*
X62553017Y-141771758D01*
X62699096Y-141832266D01*
X62727406Y-141835993D01*
X62855857Y-141852904D01*
X62855857Y-141852903D01*
X62855858Y-141852904D01*
X62923675Y-141843975D01*
X62992710Y-141854740D01*
X63027542Y-141879233D01*
X64791774Y-143643465D01*
X64865997Y-143686318D01*
X64948783Y-143708500D01*
X65034489Y-143708500D01*
X65217701Y-143708500D01*
X65284740Y-143728185D01*
X65316077Y-143757014D01*
X65327442Y-143771826D01*
X65357718Y-143811282D01*
X65483159Y-143907536D01*
X65629238Y-143968044D01*
X65657548Y-143971771D01*
X65785999Y-143988682D01*
X65785999Y-143988681D01*
X65786000Y-143988682D01*
X65853817Y-143979753D01*
X65922852Y-143990518D01*
X65957684Y-144015011D01*
X67984560Y-146041887D01*
X68058783Y-146084740D01*
X68141569Y-146106922D01*
X68227275Y-146106922D01*
X68765081Y-146106922D01*
X68832120Y-146126607D01*
X68863456Y-146155435D01*
X68905098Y-146209704D01*
X68959367Y-146251346D01*
X69000569Y-146307771D01*
X69007880Y-146349720D01*
X69007880Y-149741832D01*
X69030062Y-149824620D01*
X69051488Y-149861730D01*
X69072915Y-149898842D01*
X69516538Y-150342465D01*
X69590761Y-150385318D01*
X69673547Y-150407500D01*
X72093147Y-150407500D01*
X72171811Y-150407500D01*
X72238850Y-150427185D01*
X72259492Y-150443819D01*
X73027988Y-151212315D01*
X73061473Y-151273638D01*
X73063246Y-151316181D01*
X73054318Y-151383998D01*
X73054318Y-151384001D01*
X73074955Y-151540760D01*
X73074956Y-151540762D01*
X73134381Y-151684228D01*
X73135464Y-151686841D01*
X73231718Y-151812282D01*
X73357159Y-151908536D01*
X73503238Y-151969044D01*
X73531548Y-151972771D01*
X73659999Y-151989682D01*
X73660000Y-151989682D01*
X73660001Y-151989682D01*
X73727823Y-151980753D01*
X73816762Y-151969044D01*
X73816765Y-151969042D01*
X73824613Y-151966940D01*
X73825413Y-151969928D01*
X73880272Y-151963995D01*
X73942772Y-151995229D01*
X73978463Y-152055295D01*
X73976015Y-152125121D01*
X73965726Y-152148032D01*
X73962885Y-152152953D01*
X73962883Y-152152957D01*
X73940700Y-152235747D01*
X73940700Y-152339617D01*
X73921015Y-152406656D01*
X73868211Y-152452411D01*
X73799053Y-152462355D01*
X73738036Y-152435471D01*
X73677653Y-152385917D01*
X73677651Y-152385916D01*
X73677650Y-152385915D01*
X73495154Y-152288368D01*
X73297134Y-152228300D01*
X73297132Y-152228299D01*
X73297134Y-152228299D01*
X73091200Y-152208017D01*
X72885267Y-152228299D01*
X72687243Y-152288369D01*
X72599314Y-152335369D01*
X72504750Y-152385915D01*
X72504748Y-152385916D01*
X72504747Y-152385917D01*
X72344789Y-152517189D01*
X72237819Y-152647535D01*
X72213515Y-152677150D01*
X72183423Y-152733447D01*
X72115969Y-152859643D01*
X72115968Y-152859645D01*
X72115968Y-152859646D01*
X72096979Y-152922247D01*
X72095795Y-152926149D01*
X72057497Y-152984588D01*
X71993685Y-153013044D01*
X71924618Y-153002484D01*
X71872224Y-152956260D01*
X71857359Y-152922247D01*
X71824634Y-152800116D01*
X71824630Y-152800107D01*
X71724801Y-152586022D01*
X71724800Y-152586020D01*
X71589314Y-152392526D01*
X71589309Y-152392520D01*
X71422283Y-152225494D01*
X71228779Y-152089999D01*
X71014693Y-151990170D01*
X71014687Y-151990167D01*
X70801201Y-151932964D01*
X70801201Y-152830588D01*
X70744194Y-152797675D01*
X70617027Y-152763600D01*
X70485375Y-152763600D01*
X70358208Y-152797675D01*
X70301201Y-152830588D01*
X70301201Y-151932964D01*
X70301200Y-151932964D01*
X70087714Y-151990167D01*
X70087708Y-151990170D01*
X69873623Y-152089999D01*
X69873621Y-152090000D01*
X69680127Y-152225486D01*
X69680121Y-152225491D01*
X69513092Y-152392520D01*
X69513087Y-152392526D01*
X69377601Y-152586020D01*
X69377600Y-152586022D01*
X69277771Y-152800107D01*
X69277768Y-152800113D01*
X69245042Y-152922251D01*
X69208677Y-152981911D01*
X69145830Y-153012440D01*
X69076454Y-153004145D01*
X69022576Y-152959660D01*
X69006606Y-152926152D01*
X69005423Y-152922251D01*
X68986432Y-152859646D01*
X68888885Y-152677150D01*
X68805865Y-152575989D01*
X68757610Y-152517189D01*
X68622923Y-152406656D01*
X68597650Y-152385915D01*
X68415154Y-152288368D01*
X68217134Y-152228300D01*
X68217132Y-152228299D01*
X68217134Y-152228299D01*
X68011200Y-152208017D01*
X67805267Y-152228299D01*
X67607243Y-152288369D01*
X67519314Y-152335369D01*
X67424750Y-152385915D01*
X67424748Y-152385916D01*
X67424747Y-152385917D01*
X67264789Y-152517189D01*
X67157819Y-152647535D01*
X67133515Y-152677150D01*
X67103423Y-152733447D01*
X67035969Y-152859643D01*
X66975899Y-153057667D01*
X66955617Y-153263600D01*
X66975899Y-153469532D01*
X66998880Y-153545291D01*
X67035968Y-153667554D01*
X67133515Y-153850050D01*
X67154762Y-153875940D01*
X67264789Y-154010010D01*
X67333062Y-154066039D01*
X67424750Y-154141285D01*
X67607246Y-154238832D01*
X67805266Y-154298900D01*
X67805265Y-154298900D01*
X67823729Y-154300718D01*
X68011200Y-154319183D01*
X68217134Y-154298900D01*
X68415154Y-154238832D01*
X68415169Y-154238823D01*
X68417043Y-154238048D01*
X68418118Y-154237932D01*
X68420984Y-154237063D01*
X68421148Y-154237605D01*
X68486511Y-154230569D01*
X68548995Y-154261834D01*
X68552194Y-154264921D01*
X68986338Y-154699065D01*
X69060561Y-154741918D01*
X69143347Y-154764100D01*
X69143349Y-154764100D01*
X73620752Y-154764100D01*
X73620754Y-154764100D01*
X73703540Y-154741918D01*
X73777763Y-154699065D01*
X74377302Y-154099523D01*
X74438625Y-154066039D01*
X74508316Y-154071023D01*
X74564250Y-154112894D01*
X74586600Y-154163013D01*
X74592332Y-154191829D01*
X74592332Y-154191830D01*
X74636647Y-154258152D01*
X74702969Y-154302467D01*
X74702970Y-154302468D01*
X74761447Y-154314099D01*
X74761450Y-154314100D01*
X74761452Y-154314100D01*
X76500950Y-154314100D01*
X76500951Y-154314099D01*
X76515768Y-154311152D01*
X76559429Y-154302468D01*
X76559429Y-154302467D01*
X76559431Y-154302467D01*
X76625752Y-154258152D01*
X76670067Y-154191831D01*
X76670067Y-154191829D01*
X76670068Y-154191829D01*
X76681699Y-154133352D01*
X76681700Y-154133350D01*
X76681700Y-153713100D01*
X76701385Y-153646061D01*
X76754189Y-153600306D01*
X76805700Y-153589100D01*
X77376106Y-153589100D01*
X77443145Y-153608785D01*
X77463787Y-153625419D01*
X78687229Y-154848861D01*
X78687230Y-154848862D01*
X78747833Y-154909465D01*
X78747835Y-154909466D01*
X78747839Y-154909469D01*
X78815103Y-154948303D01*
X78822057Y-154952318D01*
X78904842Y-154974500D01*
X78904844Y-154974500D01*
X81980532Y-154974500D01*
X82047571Y-154994185D01*
X82093326Y-155046989D01*
X82103270Y-155116147D01*
X82074245Y-155179703D01*
X82020749Y-155215797D01*
X81807548Y-155288897D01*
X81767331Y-155295600D01*
X71945501Y-155295601D01*
X62124223Y-155295600D01*
X62082988Y-155288543D01*
X61587561Y-155113851D01*
X61583858Y-155112479D01*
X60565318Y-154716433D01*
X60561148Y-154714724D01*
X59557905Y-154282033D01*
X59553801Y-154280173D01*
X58567002Y-153811343D01*
X58562967Y-153809336D01*
X57593801Y-153304932D01*
X57589842Y-153302779D01*
X56639669Y-152763510D01*
X56635791Y-152761215D01*
X56351675Y-152586020D01*
X55705817Y-152187762D01*
X55702029Y-152185330D01*
X55611891Y-152125121D01*
X55107689Y-151788330D01*
X54793544Y-151578491D01*
X54789843Y-151575921D01*
X53903961Y-150936440D01*
X53900356Y-150933736D01*
X53038347Y-150262531D01*
X53034842Y-150259699D01*
X52750482Y-150021190D01*
X52197719Y-149557556D01*
X52194328Y-149554604D01*
X52190664Y-149551297D01*
X51383337Y-148822568D01*
X51380055Y-148819496D01*
X51373404Y-148813039D01*
X50596154Y-148058433D01*
X50592979Y-148055236D01*
X49960463Y-147394840D01*
X49837269Y-147266216D01*
X49834217Y-147262911D01*
X49803866Y-147228825D01*
X49107672Y-146446947D01*
X49104741Y-146443533D01*
X48826271Y-146106922D01*
X48408304Y-145601688D01*
X48405499Y-145598167D01*
X47740140Y-144731609D01*
X47737461Y-144727986D01*
X47648552Y-144603043D01*
X47104002Y-143837791D01*
X47101486Y-143834116D01*
X47094292Y-143823187D01*
X46500804Y-142921511D01*
X46498395Y-142917703D01*
X46405667Y-142765017D01*
X45931242Y-141983832D01*
X45928982Y-141979952D01*
X45902094Y-141931820D01*
X45566065Y-141330287D01*
X56155100Y-141330287D01*
X56160332Y-141363318D01*
X56186365Y-141527690D01*
X56188354Y-141540243D01*
X56239538Y-141697771D01*
X56254044Y-141742414D01*
X56350551Y-141931820D01*
X56475490Y-142103786D01*
X56625813Y-142254109D01*
X56797779Y-142379048D01*
X56797781Y-142379049D01*
X56797784Y-142379051D01*
X56987188Y-142475557D01*
X57189357Y-142541246D01*
X57399313Y-142574500D01*
X57399314Y-142574500D01*
X57611886Y-142574500D01*
X57611887Y-142574500D01*
X57821843Y-142541246D01*
X58024012Y-142475557D01*
X58213416Y-142379051D01*
X58257546Y-142346989D01*
X58385386Y-142254109D01*
X58385388Y-142254106D01*
X58385392Y-142254104D01*
X58535704Y-142103792D01*
X58535706Y-142103788D01*
X58535709Y-142103786D01*
X58660648Y-141931820D01*
X58660647Y-141931820D01*
X58660651Y-141931816D01*
X58757157Y-141742412D01*
X58822846Y-141540243D01*
X58856100Y-141330287D01*
X58856100Y-141117713D01*
X58822846Y-140907757D01*
X58757157Y-140705588D01*
X58660651Y-140516184D01*
X58660649Y-140516181D01*
X58660648Y-140516179D01*
X58535709Y-140344213D01*
X58385386Y-140193890D01*
X58213420Y-140068951D01*
X58024014Y-139972444D01*
X58024013Y-139972443D01*
X58024012Y-139972443D01*
X57821843Y-139906754D01*
X57821841Y-139906753D01*
X57821840Y-139906753D01*
X57660557Y-139881208D01*
X57611887Y-139873500D01*
X57399313Y-139873500D01*
X57350642Y-139881208D01*
X57189360Y-139906753D01*
X56987185Y-139972444D01*
X56797779Y-140068951D01*
X56625813Y-140193890D01*
X56475490Y-140344213D01*
X56350551Y-140516179D01*
X56254044Y-140705585D01*
X56254043Y-140705587D01*
X56254043Y-140705588D01*
X56247402Y-140726026D01*
X56188353Y-140907760D01*
X56163094Y-141067239D01*
X56155100Y-141117713D01*
X56155100Y-141330287D01*
X45566065Y-141330287D01*
X45396172Y-141026157D01*
X45394053Y-141022196D01*
X45342336Y-140921160D01*
X44896231Y-140049630D01*
X44894258Y-140045595D01*
X44887986Y-140032160D01*
X44432118Y-139055617D01*
X44430286Y-139051500D01*
X44004414Y-138045366D01*
X44002733Y-138041185D01*
X43987893Y-138002241D01*
X43613597Y-137019971D01*
X43612253Y-137016266D01*
X43507556Y-136712800D01*
X53541243Y-136712800D01*
X53559826Y-136901481D01*
X53570090Y-136935315D01*
X53614863Y-137082915D01*
X53614864Y-137082918D01*
X53614865Y-137082919D01*
X53614866Y-137082922D01*
X53704234Y-137250118D01*
X53704238Y-137250125D01*
X53824516Y-137396683D01*
X53971074Y-137516961D01*
X53971081Y-137516965D01*
X54138277Y-137606333D01*
X54138278Y-137606333D01*
X54138285Y-137606337D01*
X54319717Y-137661373D01*
X54319716Y-137661373D01*
X54336633Y-137663039D01*
X54508400Y-137679957D01*
X54697083Y-137661373D01*
X54878515Y-137606337D01*
X55045724Y-137516962D01*
X55192283Y-137396683D01*
X55312562Y-137250124D01*
X55401937Y-137082915D01*
X55456973Y-136901483D01*
X55475557Y-136712800D01*
X55456973Y-136524117D01*
X55401937Y-136342685D01*
X55388894Y-136318283D01*
X55312565Y-136175481D01*
X55312561Y-136175474D01*
X55192283Y-136028916D01*
X55045725Y-135908638D01*
X55045718Y-135908634D01*
X54878522Y-135819266D01*
X54878519Y-135819265D01*
X54878518Y-135819264D01*
X54878515Y-135819263D01*
X54697083Y-135764227D01*
X54697081Y-135764226D01*
X54697083Y-135764226D01*
X54508400Y-135745643D01*
X54319718Y-135764226D01*
X54212594Y-135796721D01*
X54138285Y-135819263D01*
X54138282Y-135819264D01*
X54138280Y-135819265D01*
X54138277Y-135819266D01*
X53971081Y-135908634D01*
X53971074Y-135908638D01*
X53824516Y-136028916D01*
X53704238Y-136175474D01*
X53704234Y-136175481D01*
X53614866Y-136342677D01*
X53614865Y-136342680D01*
X53559826Y-136524118D01*
X53541243Y-136712800D01*
X43507556Y-136712800D01*
X43440780Y-136519250D01*
X43434000Y-136478809D01*
X43434000Y-129336800D01*
X43785175Y-129336800D01*
X43805242Y-129591789D01*
X43864952Y-129840502D01*
X43962834Y-130076812D01*
X43962836Y-130076815D01*
X44096477Y-130294898D01*
X44096484Y-130294907D01*
X44099733Y-130298712D01*
X44661084Y-129737360D01*
X44661940Y-129739426D01*
X44754962Y-129878644D01*
X44873356Y-129997038D01*
X45012574Y-130090060D01*
X45014637Y-130090914D01*
X44453287Y-130652265D01*
X44457097Y-130655519D01*
X44675184Y-130789163D01*
X44675187Y-130789165D01*
X44911497Y-130887047D01*
X45160211Y-130946757D01*
X45160210Y-130946757D01*
X45415200Y-130966824D01*
X45670189Y-130946757D01*
X45918902Y-130887047D01*
X46155212Y-130789165D01*
X46155215Y-130789163D01*
X46373295Y-130655524D01*
X46373310Y-130655513D01*
X46377111Y-130652266D01*
X46377111Y-130652264D01*
X45815762Y-130090914D01*
X45817826Y-130090060D01*
X45957044Y-129997038D01*
X46075438Y-129878644D01*
X46168460Y-129739426D01*
X46169314Y-129737361D01*
X46730664Y-130298711D01*
X46730666Y-130298711D01*
X46733913Y-130294910D01*
X46733924Y-130294895D01*
X46867563Y-130076815D01*
X46867565Y-130076812D01*
X46965447Y-129840502D01*
X47025157Y-129591789D01*
X47045224Y-129336800D01*
X48865175Y-129336800D01*
X48885242Y-129591789D01*
X48944952Y-129840502D01*
X49042834Y-130076812D01*
X49042836Y-130076815D01*
X49176477Y-130294898D01*
X49176484Y-130294907D01*
X49179733Y-130298712D01*
X49741084Y-129737360D01*
X49741940Y-129739426D01*
X49834962Y-129878644D01*
X49953356Y-129997038D01*
X50092574Y-130090060D01*
X50094637Y-130090914D01*
X49533287Y-130652265D01*
X49537097Y-130655519D01*
X49755184Y-130789163D01*
X49755187Y-130789165D01*
X49991497Y-130887047D01*
X50240211Y-130946757D01*
X50240210Y-130946757D01*
X50495200Y-130966824D01*
X50750189Y-130946757D01*
X50998902Y-130887047D01*
X51235212Y-130789165D01*
X51235215Y-130789163D01*
X51453295Y-130655524D01*
X51453310Y-130655513D01*
X51457111Y-130652266D01*
X51457111Y-130652264D01*
X50895762Y-130090914D01*
X50897826Y-130090060D01*
X51037044Y-129997038D01*
X51155438Y-129878644D01*
X51248460Y-129739426D01*
X51249314Y-129737361D01*
X51810664Y-130298711D01*
X51810666Y-130298711D01*
X51813913Y-130294910D01*
X51813924Y-130294895D01*
X51947563Y-130076815D01*
X51947565Y-130076812D01*
X52045447Y-129840502D01*
X52105157Y-129591789D01*
X52125224Y-129336800D01*
X52107596Y-129112800D01*
X53541243Y-129112800D01*
X53559826Y-129301481D01*
X53570540Y-129336800D01*
X53614863Y-129482915D01*
X53614864Y-129482918D01*
X53614865Y-129482919D01*
X53614866Y-129482922D01*
X53704234Y-129650118D01*
X53704238Y-129650125D01*
X53824516Y-129796683D01*
X53971074Y-129916961D01*
X53971081Y-129916965D01*
X54138277Y-130006333D01*
X54138278Y-130006333D01*
X54138285Y-130006337D01*
X54319717Y-130061373D01*
X54319716Y-130061373D01*
X54336633Y-130063039D01*
X54508400Y-130079957D01*
X54697083Y-130061373D01*
X54878515Y-130006337D01*
X55045724Y-129916962D01*
X55192283Y-129796683D01*
X55312562Y-129650124D01*
X55401937Y-129482915D01*
X55456973Y-129301483D01*
X55475557Y-129112800D01*
X55456973Y-128924117D01*
X55401937Y-128742685D01*
X55390206Y-128720737D01*
X55366508Y-128676401D01*
X66907518Y-128676401D01*
X66928155Y-128833160D01*
X66928156Y-128833162D01*
X66969996Y-128934174D01*
X66988664Y-128979241D01*
X67084918Y-129104682D01*
X67084919Y-129104683D01*
X67151374Y-129155675D01*
X67192577Y-129212103D01*
X67199860Y-129251413D01*
X67226474Y-130502268D01*
X67208220Y-130569711D01*
X67177990Y-130603280D01*
X67135721Y-130635715D01*
X67135719Y-130635716D01*
X67135718Y-130635718D01*
X67063527Y-130729798D01*
X67039463Y-130761160D01*
X66978956Y-130907237D01*
X66978955Y-130907239D01*
X66958318Y-131063998D01*
X66958318Y-131064001D01*
X66978955Y-131220760D01*
X66978956Y-131220762D01*
X67032718Y-131350556D01*
X67039464Y-131366841D01*
X67135718Y-131492282D01*
X67261159Y-131588536D01*
X67407238Y-131649044D01*
X67478783Y-131658463D01*
X67563999Y-131669682D01*
X67564000Y-131669682D01*
X67564001Y-131669682D01*
X67616254Y-131662802D01*
X67720762Y-131649044D01*
X67866841Y-131588536D01*
X67992282Y-131492282D01*
X68088536Y-131366841D01*
X68149044Y-131220762D01*
X68169682Y-131064000D01*
X68169451Y-131062248D01*
X68153142Y-130938364D01*
X68149044Y-130907238D01*
X68088536Y-130761159D01*
X67992282Y-130635718D01*
X67992280Y-130635717D01*
X67992280Y-130635716D01*
X67957118Y-130608736D01*
X67925822Y-130584722D01*
X67884621Y-130528297D01*
X67877339Y-130488991D01*
X67850724Y-129238128D01*
X67868978Y-129170688D01*
X67899208Y-129137119D01*
X67941482Y-129104682D01*
X68037736Y-128979241D01*
X68098244Y-128833162D01*
X68118882Y-128676400D01*
X68098244Y-128519638D01*
X68037736Y-128373559D01*
X67941482Y-128248118D01*
X67816041Y-128151864D01*
X67801022Y-128145643D01*
X67669962Y-128091356D01*
X67669960Y-128091355D01*
X67513201Y-128070718D01*
X67513199Y-128070718D01*
X67356439Y-128091355D01*
X67356437Y-128091356D01*
X67210360Y-128151863D01*
X67084918Y-128248118D01*
X66988663Y-128373560D01*
X66928156Y-128519637D01*
X66928155Y-128519639D01*
X66907518Y-128676398D01*
X66907518Y-128676401D01*
X55366508Y-128676401D01*
X55312565Y-128575481D01*
X55312561Y-128575474D01*
X55192283Y-128428916D01*
X55045725Y-128308638D01*
X55045718Y-128308634D01*
X54878522Y-128219266D01*
X54878519Y-128219265D01*
X54878518Y-128219264D01*
X54878515Y-128219263D01*
X54697083Y-128164227D01*
X54697081Y-128164226D01*
X54697083Y-128164226D01*
X54508400Y-128145643D01*
X54319718Y-128164226D01*
X54212594Y-128196721D01*
X54138285Y-128219263D01*
X54138282Y-128219264D01*
X54138280Y-128219265D01*
X54138277Y-128219266D01*
X53971081Y-128308634D01*
X53971074Y-128308638D01*
X53824516Y-128428916D01*
X53704238Y-128575474D01*
X53704234Y-128575481D01*
X53614866Y-128742677D01*
X53614865Y-128742680D01*
X53559826Y-128924118D01*
X53541243Y-129112800D01*
X52107596Y-129112800D01*
X52105157Y-129081810D01*
X52045447Y-128833097D01*
X51947565Y-128596787D01*
X51947563Y-128596784D01*
X51813919Y-128378697D01*
X51810665Y-128374887D01*
X51249314Y-128936237D01*
X51248460Y-128934174D01*
X51155438Y-128794956D01*
X51037044Y-128676562D01*
X50897826Y-128583540D01*
X50895761Y-128582684D01*
X51457112Y-128021333D01*
X51453307Y-128018084D01*
X51453298Y-128018077D01*
X51235215Y-127884436D01*
X51235212Y-127884434D01*
X50998902Y-127786552D01*
X50750188Y-127726842D01*
X50750189Y-127726842D01*
X50495200Y-127706775D01*
X50240210Y-127726842D01*
X49991497Y-127786552D01*
X49755187Y-127884434D01*
X49755184Y-127884436D01*
X49537093Y-128018082D01*
X49533286Y-128021332D01*
X50094638Y-128582684D01*
X50092574Y-128583540D01*
X49953356Y-128676562D01*
X49834962Y-128794956D01*
X49741940Y-128934174D01*
X49741084Y-128936238D01*
X49179732Y-128374886D01*
X49176482Y-128378693D01*
X49042836Y-128596784D01*
X49042834Y-128596787D01*
X48944952Y-128833097D01*
X48885242Y-129081810D01*
X48865175Y-129336800D01*
X47045224Y-129336800D01*
X47025157Y-129081810D01*
X46965447Y-128833097D01*
X46867565Y-128596787D01*
X46867563Y-128596784D01*
X46733919Y-128378697D01*
X46730665Y-128374887D01*
X46169314Y-128936237D01*
X46168460Y-128934174D01*
X46075438Y-128794956D01*
X45957044Y-128676562D01*
X45817826Y-128583540D01*
X45815761Y-128582684D01*
X46377112Y-128021333D01*
X46373307Y-128018084D01*
X46373298Y-128018077D01*
X46155215Y-127884436D01*
X46155212Y-127884434D01*
X45918902Y-127786552D01*
X45670188Y-127726842D01*
X45670189Y-127726842D01*
X45415200Y-127706775D01*
X45160210Y-127726842D01*
X44911497Y-127786552D01*
X44675187Y-127884434D01*
X44675184Y-127884436D01*
X44457093Y-128018082D01*
X44453286Y-128021332D01*
X45014638Y-128582684D01*
X45012574Y-128583540D01*
X44873356Y-128676562D01*
X44754962Y-128794956D01*
X44661940Y-128934174D01*
X44661084Y-128936238D01*
X44099732Y-128374886D01*
X44096482Y-128378693D01*
X43962836Y-128596784D01*
X43962834Y-128596787D01*
X43864952Y-128833097D01*
X43805242Y-129081810D01*
X43785175Y-129336800D01*
X43434000Y-129336800D01*
X43434000Y-126796801D01*
X46725019Y-126796801D01*
X46743707Y-127010413D01*
X46743709Y-127010424D01*
X46799205Y-127217539D01*
X46799207Y-127217543D01*
X46799208Y-127217547D01*
X46844520Y-127314719D01*
X46889831Y-127411890D01*
X46889832Y-127411891D01*
X47012827Y-127587545D01*
X47164455Y-127739173D01*
X47340109Y-127862168D01*
X47534453Y-127952792D01*
X47741581Y-128008292D01*
X47890631Y-128021332D01*
X47955198Y-128026981D01*
X47955200Y-128026981D01*
X47955202Y-128026981D01*
X48008604Y-128022308D01*
X48168819Y-128008292D01*
X48375947Y-127952792D01*
X48570291Y-127862168D01*
X48745945Y-127739173D01*
X48897573Y-127587545D01*
X49020568Y-127411891D01*
X49111192Y-127217547D01*
X49166692Y-127010419D01*
X49185381Y-126796800D01*
X49166692Y-126583181D01*
X49111192Y-126376053D01*
X49020568Y-126181710D01*
X49001062Y-126153853D01*
X48897576Y-126006059D01*
X48897571Y-126006053D01*
X48745945Y-125854427D01*
X48570290Y-125731431D01*
X48473119Y-125686120D01*
X48375947Y-125640808D01*
X48375943Y-125640807D01*
X48375939Y-125640805D01*
X48168824Y-125585309D01*
X48168820Y-125585308D01*
X48168819Y-125585308D01*
X48168818Y-125585307D01*
X48168813Y-125585307D01*
X47955202Y-125566619D01*
X47955198Y-125566619D01*
X47741586Y-125585307D01*
X47741575Y-125585309D01*
X47534460Y-125640805D01*
X47534451Y-125640809D01*
X47340110Y-125731431D01*
X47340108Y-125731432D01*
X47164459Y-125854423D01*
X47164453Y-125854428D01*
X47012828Y-126006053D01*
X47012823Y-126006059D01*
X46889832Y-126181708D01*
X46889831Y-126181710D01*
X46799209Y-126376051D01*
X46799205Y-126376060D01*
X46743709Y-126583175D01*
X46743707Y-126583186D01*
X46725019Y-126796798D01*
X46725019Y-126796801D01*
X43434000Y-126796801D01*
X43434000Y-124256800D01*
X43785175Y-124256800D01*
X43805242Y-124511789D01*
X43864952Y-124760502D01*
X43962834Y-124996812D01*
X43962836Y-124996815D01*
X44096477Y-125214898D01*
X44096484Y-125214907D01*
X44099733Y-125218712D01*
X44661084Y-124657360D01*
X44661940Y-124659426D01*
X44754962Y-124798644D01*
X44873356Y-124917038D01*
X45012574Y-125010060D01*
X45014637Y-125010914D01*
X44453287Y-125572265D01*
X44457097Y-125575519D01*
X44675184Y-125709163D01*
X44675187Y-125709165D01*
X44911497Y-125807047D01*
X45160211Y-125866757D01*
X45160210Y-125866757D01*
X45415200Y-125886824D01*
X45670189Y-125866757D01*
X45918902Y-125807047D01*
X46155212Y-125709165D01*
X46155215Y-125709163D01*
X46373295Y-125575524D01*
X46373310Y-125575513D01*
X46377111Y-125572266D01*
X46377111Y-125572264D01*
X45815762Y-125010914D01*
X45817826Y-125010060D01*
X45957044Y-124917038D01*
X46075438Y-124798644D01*
X46168460Y-124659426D01*
X46169314Y-124657361D01*
X46730664Y-125218711D01*
X46730666Y-125218711D01*
X46733913Y-125214910D01*
X46733924Y-125214895D01*
X46867563Y-124996815D01*
X46867565Y-124996812D01*
X46965447Y-124760502D01*
X47025157Y-124511789D01*
X47045224Y-124256800D01*
X48865175Y-124256800D01*
X48885242Y-124511789D01*
X48944952Y-124760502D01*
X49042834Y-124996812D01*
X49042836Y-124996815D01*
X49176477Y-125214898D01*
X49176484Y-125214907D01*
X49179733Y-125218712D01*
X49741084Y-124657360D01*
X49741940Y-124659426D01*
X49834962Y-124798644D01*
X49953356Y-124917038D01*
X50092574Y-125010060D01*
X50094637Y-125010914D01*
X49533287Y-125572265D01*
X49537097Y-125575519D01*
X49755184Y-125709163D01*
X49755187Y-125709165D01*
X49991497Y-125807047D01*
X50240211Y-125866757D01*
X50240210Y-125866757D01*
X50495200Y-125886824D01*
X50750189Y-125866757D01*
X50998902Y-125807047D01*
X51235212Y-125709165D01*
X51235215Y-125709163D01*
X51453295Y-125575524D01*
X51453310Y-125575513D01*
X51457111Y-125572266D01*
X51457111Y-125572264D01*
X50895762Y-125010914D01*
X50897826Y-125010060D01*
X51037044Y-124917038D01*
X51155438Y-124798644D01*
X51248460Y-124659426D01*
X51249314Y-124657361D01*
X51810664Y-125218711D01*
X51810666Y-125218711D01*
X51813913Y-125214910D01*
X51813924Y-125214895D01*
X51947563Y-124996815D01*
X51947565Y-124996812D01*
X52045447Y-124760502D01*
X52105157Y-124511789D01*
X52125224Y-124256800D01*
X52105157Y-124001810D01*
X52045447Y-123753097D01*
X51947565Y-123516787D01*
X51947563Y-123516784D01*
X51813919Y-123298697D01*
X51810665Y-123294887D01*
X51249314Y-123856237D01*
X51248460Y-123854174D01*
X51155438Y-123714956D01*
X51037044Y-123596562D01*
X50897826Y-123503540D01*
X50895761Y-123502684D01*
X51457112Y-122941333D01*
X51453307Y-122938084D01*
X51453298Y-122938077D01*
X51235215Y-122804436D01*
X51235212Y-122804434D01*
X50998902Y-122706552D01*
X50750188Y-122646842D01*
X50750189Y-122646842D01*
X50495200Y-122626775D01*
X50240210Y-122646842D01*
X49991497Y-122706552D01*
X49755187Y-122804434D01*
X49755184Y-122804436D01*
X49537093Y-122938082D01*
X49533286Y-122941332D01*
X50094638Y-123502684D01*
X50092574Y-123503540D01*
X49953356Y-123596562D01*
X49834962Y-123714956D01*
X49741940Y-123854174D01*
X49741084Y-123856238D01*
X49179732Y-123294886D01*
X49176482Y-123298693D01*
X49042836Y-123516784D01*
X49042834Y-123516787D01*
X48944952Y-123753097D01*
X48885242Y-124001810D01*
X48865175Y-124256800D01*
X47045224Y-124256800D01*
X47025157Y-124001810D01*
X46965447Y-123753097D01*
X46867565Y-123516787D01*
X46867563Y-123516784D01*
X46733919Y-123298697D01*
X46730665Y-123294887D01*
X46169314Y-123856237D01*
X46168460Y-123854174D01*
X46075438Y-123714956D01*
X45957044Y-123596562D01*
X45817826Y-123503540D01*
X45815761Y-123502684D01*
X46377112Y-122941333D01*
X46373307Y-122938084D01*
X46373298Y-122938077D01*
X46155215Y-122804436D01*
X46155212Y-122804434D01*
X45918902Y-122706552D01*
X45670188Y-122646842D01*
X45670189Y-122646842D01*
X45415200Y-122626775D01*
X45160210Y-122646842D01*
X44911497Y-122706552D01*
X44675187Y-122804434D01*
X44675184Y-122804436D01*
X44457093Y-122938082D01*
X44453286Y-122941332D01*
X45014638Y-123502684D01*
X45012574Y-123503540D01*
X44873356Y-123596562D01*
X44754962Y-123714956D01*
X44661940Y-123854174D01*
X44661084Y-123856238D01*
X44099732Y-123294886D01*
X44096482Y-123298693D01*
X43962836Y-123516784D01*
X43962834Y-123516787D01*
X43864952Y-123753097D01*
X43805242Y-124001810D01*
X43785175Y-124256800D01*
X43434000Y-124256800D01*
X43434000Y-116962301D01*
X43440725Y-116922020D01*
X43612276Y-116422556D01*
X43613631Y-116418808D01*
X43613882Y-116418148D01*
X44003272Y-115392952D01*
X44004938Y-115388796D01*
X44431892Y-114378171D01*
X44433708Y-114374084D01*
X44897489Y-113379815D01*
X44899474Y-113375759D01*
X44909241Y-113356682D01*
X45399441Y-112399217D01*
X45401541Y-112395294D01*
X45937050Y-111437740D01*
X45939304Y-111433878D01*
X46509605Y-110496653D01*
X46512037Y-110492818D01*
X46653560Y-110278392D01*
X47116340Y-109577214D01*
X47118911Y-109573472D01*
X47136921Y-109548251D01*
X47394240Y-109187895D01*
X47449217Y-109144778D01*
X47518779Y-109138228D01*
X47580839Y-109170325D01*
X47615695Y-109230880D01*
X47618227Y-109244842D01*
X47618277Y-109245252D01*
X47655932Y-109384024D01*
X47731152Y-109506550D01*
X47731156Y-109506556D01*
X47774128Y-109548251D01*
X47774142Y-109548263D01*
X49190842Y-110655110D01*
X49190843Y-110655110D01*
X50132480Y-109449870D01*
X50150249Y-109476463D01*
X50289537Y-109615751D01*
X50453322Y-109725189D01*
X50527788Y-109756033D01*
X49584849Y-110962941D01*
X49584849Y-110962942D01*
X51001553Y-112069793D01*
X51052419Y-112101409D01*
X51052426Y-112101413D01*
X51189511Y-112144755D01*
X51333258Y-112147721D01*
X51472024Y-112110067D01*
X51594550Y-112034847D01*
X51594556Y-112034843D01*
X51636251Y-111991871D01*
X51636263Y-111991857D01*
X52743110Y-110575156D01*
X52743110Y-110575155D01*
X51537870Y-109633519D01*
X51564463Y-109615751D01*
X51703751Y-109476463D01*
X51813189Y-109312678D01*
X51844034Y-109238210D01*
X53050941Y-110181149D01*
X53050942Y-110181149D01*
X53656675Y-109405847D01*
X53713460Y-109365138D01*
X53783240Y-109361592D01*
X53843859Y-109396335D01*
X53876072Y-109458336D01*
X53878388Y-109482189D01*
X53878388Y-111837789D01*
X53878388Y-111975777D01*
X53878388Y-111975779D01*
X53878387Y-111975779D01*
X53905306Y-112111105D01*
X53905309Y-112111115D01*
X53958110Y-112238590D01*
X54034775Y-112353328D01*
X54034776Y-112353329D01*
X55244781Y-113563332D01*
X55278266Y-113624655D01*
X55281100Y-113651013D01*
X55281100Y-118049630D01*
X55261415Y-118116669D01*
X55208611Y-118162424D01*
X55139453Y-118172368D01*
X55078435Y-118145483D01*
X55045725Y-118118638D01*
X55045718Y-118118634D01*
X54878522Y-118029266D01*
X54878519Y-118029265D01*
X54878518Y-118029264D01*
X54878515Y-118029263D01*
X54697083Y-117974227D01*
X54697081Y-117974226D01*
X54697083Y-117974226D01*
X54508400Y-117955643D01*
X54319718Y-117974226D01*
X54212594Y-118006721D01*
X54138285Y-118029263D01*
X54138282Y-118029264D01*
X54138280Y-118029265D01*
X54138277Y-118029266D01*
X53971081Y-118118634D01*
X53971074Y-118118638D01*
X53824516Y-118238916D01*
X53704238Y-118385474D01*
X53704234Y-118385481D01*
X53614866Y-118552677D01*
X53614865Y-118552680D01*
X53614864Y-118552682D01*
X53614863Y-118552685D01*
X53602708Y-118592755D01*
X53559826Y-118734118D01*
X53541243Y-118922800D01*
X53559826Y-119111481D01*
X53559827Y-119111483D01*
X53614863Y-119292915D01*
X53614864Y-119292918D01*
X53614865Y-119292919D01*
X53614866Y-119292922D01*
X53704234Y-119460118D01*
X53704238Y-119460125D01*
X53824516Y-119606683D01*
X53971074Y-119726961D01*
X53971081Y-119726965D01*
X54138277Y-119816333D01*
X54138278Y-119816333D01*
X54138285Y-119816337D01*
X54319717Y-119871373D01*
X54319716Y-119871373D01*
X54336633Y-119873039D01*
X54508400Y-119889957D01*
X54697083Y-119871373D01*
X54878515Y-119816337D01*
X55045724Y-119726962D01*
X55078435Y-119700115D01*
X55142743Y-119672803D01*
X55211611Y-119684593D01*
X55263172Y-119731744D01*
X55281100Y-119795969D01*
X55281100Y-122198080D01*
X55261415Y-122265119D01*
X55244781Y-122285761D01*
X54513705Y-123016836D01*
X54452382Y-123050321D01*
X54438180Y-123052558D01*
X54319718Y-123064226D01*
X54217832Y-123095133D01*
X54138285Y-123119263D01*
X54138282Y-123119264D01*
X54138280Y-123119265D01*
X54138277Y-123119266D01*
X53971081Y-123208634D01*
X53971074Y-123208638D01*
X53824516Y-123328916D01*
X53704238Y-123475474D01*
X53704234Y-123475481D01*
X53614866Y-123642677D01*
X53614865Y-123642680D01*
X53614864Y-123642682D01*
X53614863Y-123642685D01*
X53614612Y-123643514D01*
X53559826Y-123824118D01*
X53541243Y-124012800D01*
X53559826Y-124201481D01*
X53559827Y-124201483D01*
X53614863Y-124382915D01*
X53614864Y-124382918D01*
X53614865Y-124382919D01*
X53614866Y-124382922D01*
X53704234Y-124550118D01*
X53704238Y-124550125D01*
X53824516Y-124696683D01*
X53971074Y-124816961D01*
X53971081Y-124816965D01*
X54138277Y-124906333D01*
X54138278Y-124906333D01*
X54138285Y-124906337D01*
X54319717Y-124961373D01*
X54319716Y-124961373D01*
X54336633Y-124963039D01*
X54508400Y-124979957D01*
X54697083Y-124961373D01*
X54878515Y-124906337D01*
X55045724Y-124816962D01*
X55192283Y-124696683D01*
X55312562Y-124550124D01*
X55401937Y-124382915D01*
X55456973Y-124201483D01*
X55468640Y-124083020D01*
X55494800Y-124018233D01*
X55504353Y-124007502D01*
X56525713Y-122986143D01*
X56529650Y-122980250D01*
X56533504Y-122974485D01*
X56602371Y-122871417D01*
X56602371Y-122871416D01*
X56602375Y-122871411D01*
X56648225Y-122760720D01*
X56655180Y-122743929D01*
X56667161Y-122683695D01*
X56671539Y-122661687D01*
X56682100Y-122608595D01*
X56682100Y-114512800D01*
X59003597Y-114512800D01*
X59022797Y-114879153D01*
X59080184Y-115241484D01*
X59080184Y-115241486D01*
X59175136Y-115595851D01*
X59306604Y-115938335D01*
X59473154Y-116265206D01*
X59672953Y-116572870D01*
X59861697Y-116805948D01*
X61285740Y-115381905D01*
X61364264Y-115489984D01*
X61531216Y-115656936D01*
X61639293Y-115735458D01*
X60215250Y-117159501D01*
X60448329Y-117348246D01*
X60755993Y-117548045D01*
X61082864Y-117714595D01*
X61425348Y-117846063D01*
X61779714Y-117941015D01*
X62142046Y-117998402D01*
X62508399Y-118017603D01*
X62508401Y-118017603D01*
X62874753Y-117998402D01*
X63237084Y-117941015D01*
X63237086Y-117941015D01*
X63591451Y-117846063D01*
X63933935Y-117714595D01*
X64260806Y-117548045D01*
X64568464Y-117348250D01*
X64801548Y-117159501D01*
X63377506Y-115735459D01*
X63485584Y-115656936D01*
X63652536Y-115489984D01*
X63731059Y-115381906D01*
X65155101Y-116805948D01*
X65343850Y-116572864D01*
X65543645Y-116265206D01*
X65710195Y-115938335D01*
X65841663Y-115595851D01*
X65936615Y-115241486D01*
X65936615Y-115241484D01*
X65994002Y-114879153D01*
X66013203Y-114512800D01*
X66013203Y-114512799D01*
X65994002Y-114146446D01*
X65936615Y-113784115D01*
X65936615Y-113784113D01*
X65841663Y-113429748D01*
X65710195Y-113087264D01*
X65543645Y-112760394D01*
X65343846Y-112452729D01*
X65155101Y-112219650D01*
X63731058Y-113643693D01*
X63652536Y-113535616D01*
X63485584Y-113368664D01*
X63377506Y-113290140D01*
X64801549Y-111866097D01*
X64568470Y-111677353D01*
X64260806Y-111477554D01*
X63933935Y-111311004D01*
X63591451Y-111179536D01*
X63237085Y-111084584D01*
X62874753Y-111027197D01*
X62508401Y-111007997D01*
X62508399Y-111007997D01*
X62142046Y-111027197D01*
X61779715Y-111084584D01*
X61779713Y-111084584D01*
X61425348Y-111179536D01*
X61082864Y-111311004D01*
X60755994Y-111477554D01*
X60448324Y-111677357D01*
X60215249Y-111866096D01*
X60215249Y-111866097D01*
X61639293Y-113290141D01*
X61531216Y-113368664D01*
X61364264Y-113535616D01*
X61285741Y-113643693D01*
X59861697Y-112219649D01*
X59861696Y-112219649D01*
X59672957Y-112452724D01*
X59473154Y-112760394D01*
X59306604Y-113087264D01*
X59175136Y-113429748D01*
X59080184Y-113784113D01*
X59080184Y-113784115D01*
X59022797Y-114146446D01*
X59003597Y-114512799D01*
X59003597Y-114512800D01*
X56682100Y-114512800D01*
X56682100Y-113515656D01*
X56701785Y-113448617D01*
X56754589Y-113402862D01*
X56823747Y-113392918D01*
X56862395Y-113405172D01*
X56987179Y-113468753D01*
X56987180Y-113468754D01*
X56987185Y-113468755D01*
X56987188Y-113468757D01*
X57189357Y-113534446D01*
X57399313Y-113567700D01*
X57399314Y-113567700D01*
X57611886Y-113567700D01*
X57611887Y-113567700D01*
X57821843Y-113534446D01*
X58024012Y-113468757D01*
X58213416Y-113372251D01*
X58288709Y-113317548D01*
X58385386Y-113247309D01*
X58385388Y-113247306D01*
X58385392Y-113247304D01*
X58535704Y-113096992D01*
X58535706Y-113096988D01*
X58535709Y-113096986D01*
X58660648Y-112925020D01*
X58660647Y-112925020D01*
X58660651Y-112925016D01*
X58757157Y-112735612D01*
X58822846Y-112533443D01*
X58856100Y-112323487D01*
X58856100Y-112110913D01*
X58822846Y-111900957D01*
X58757157Y-111698788D01*
X58660651Y-111509384D01*
X58660649Y-111509381D01*
X58660648Y-111509379D01*
X58535709Y-111337413D01*
X58385386Y-111187090D01*
X58213420Y-111062151D01*
X58024014Y-110965644D01*
X58024013Y-110965643D01*
X58024012Y-110965643D01*
X57821843Y-110899954D01*
X57821841Y-110899953D01*
X57821840Y-110899953D01*
X57660557Y-110874408D01*
X57611887Y-110866700D01*
X57399313Y-110866700D01*
X57350642Y-110874408D01*
X57189360Y-110899953D01*
X56987185Y-110965644D01*
X56797779Y-111062151D01*
X56625813Y-111187090D01*
X56475490Y-111337413D01*
X56350551Y-111509379D01*
X56254044Y-111698785D01*
X56188353Y-111900960D01*
X56155100Y-112110913D01*
X56155100Y-112192976D01*
X56135415Y-112260015D01*
X56082611Y-112305770D01*
X56013453Y-112315714D01*
X55949897Y-112286689D01*
X55943419Y-112280657D01*
X55315707Y-111652945D01*
X55282222Y-111591622D01*
X55279388Y-111565264D01*
X55279388Y-108356400D01*
X67872350Y-108356400D01*
X67891270Y-108500108D01*
X67891271Y-108500112D01*
X67946737Y-108634022D01*
X67946738Y-108634024D01*
X67946739Y-108634025D01*
X68034979Y-108749021D01*
X68149975Y-108837261D01*
X68216933Y-108864995D01*
X68283888Y-108892729D01*
X68283890Y-108892730D01*
X68287321Y-108893181D01*
X68291595Y-108893744D01*
X68355494Y-108922006D01*
X68363100Y-108929003D01*
X69471783Y-110037687D01*
X69474930Y-110039504D01*
X69474929Y-110039504D01*
X69474934Y-110039506D01*
X69574508Y-110096996D01*
X69574509Y-110096997D01*
X69574511Y-110096997D01*
X69574514Y-110096999D01*
X69689091Y-110127700D01*
X74894981Y-110127700D01*
X74962020Y-110147385D01*
X74970467Y-110153324D01*
X75033557Y-110201735D01*
X75033558Y-110201735D01*
X75033559Y-110201736D01*
X75179638Y-110262244D01*
X75258019Y-110272563D01*
X75336399Y-110282882D01*
X75336400Y-110282882D01*
X75336401Y-110282882D01*
X75388654Y-110276002D01*
X75493162Y-110262244D01*
X75639241Y-110201736D01*
X75764682Y-110105482D01*
X75860936Y-109980041D01*
X75921444Y-109833962D01*
X75942082Y-109677200D01*
X75921444Y-109520438D01*
X75860936Y-109374359D01*
X75764682Y-109248918D01*
X75639241Y-109152664D01*
X75604389Y-109138228D01*
X75493162Y-109092156D01*
X75493160Y-109092155D01*
X75336401Y-109071518D01*
X75336399Y-109071518D01*
X75179639Y-109092155D01*
X75179637Y-109092156D01*
X75033557Y-109152664D01*
X74970467Y-109201076D01*
X74905298Y-109226270D01*
X74894981Y-109226700D01*
X69986365Y-109226700D01*
X69919326Y-109207015D01*
X69898684Y-109190381D01*
X69000203Y-108291900D01*
X68966718Y-108230577D01*
X68964944Y-108220395D01*
X68963930Y-108212690D01*
X68963929Y-108212688D01*
X68908462Y-108078778D01*
X68908461Y-108078775D01*
X68820221Y-107963779D01*
X68705225Y-107875539D01*
X68705224Y-107875538D01*
X68705222Y-107875537D01*
X68571312Y-107820071D01*
X68571310Y-107820070D01*
X68571309Y-107820070D01*
X68499454Y-107810610D01*
X68427601Y-107801150D01*
X68427599Y-107801150D01*
X68283891Y-107820070D01*
X68283887Y-107820071D01*
X68149977Y-107875537D01*
X68034979Y-107963779D01*
X67946737Y-108078777D01*
X67891271Y-108212687D01*
X67891270Y-108212691D01*
X67872350Y-108356399D01*
X67872350Y-108356400D01*
X55279388Y-108356400D01*
X55279388Y-107061448D01*
X55299073Y-106994409D01*
X55351877Y-106948654D01*
X55421035Y-106938710D01*
X55484591Y-106967735D01*
X55485940Y-106968921D01*
X55509604Y-106990042D01*
X55584908Y-107016339D01*
X55664544Y-107011818D01*
X55718251Y-106985912D01*
X58944336Y-104554883D01*
X58984042Y-104510396D01*
X59010339Y-104435092D01*
X59005818Y-104355456D01*
X58979912Y-104301749D01*
X56548883Y-101075664D01*
X56526639Y-101055811D01*
X56504396Y-101035957D01*
X56488598Y-101030441D01*
X56431797Y-100989755D01*
X56406009Y-100924818D01*
X56419423Y-100856248D01*
X56465020Y-100807445D01*
X56722278Y-100650904D01*
X56726140Y-100648650D01*
X57683694Y-100113140D01*
X57687594Y-100111052D01*
X58664191Y-99611056D01*
X58668215Y-99609088D01*
X59662484Y-99145308D01*
X59666571Y-99143492D01*
X60677196Y-98716538D01*
X60681352Y-98714872D01*
X61707220Y-98325226D01*
X61710944Y-98323880D01*
X62213934Y-98151117D01*
X62246955Y-98144605D01*
X62374736Y-98137120D01*
X62389346Y-98137127D01*
G37*
%TD.AperFunction*%
%TA.AperFunction,Conductor*%
G36*
X86382703Y-136633060D02*
G01*
X86389181Y-136639092D01*
X89104181Y-139354092D01*
X89137666Y-139415415D01*
X89140500Y-139441773D01*
X89140500Y-141741811D01*
X89120815Y-141808850D01*
X89104181Y-141829492D01*
X87658492Y-143275181D01*
X87597169Y-143308666D01*
X87570811Y-143311500D01*
X86420299Y-143311500D01*
X86353260Y-143291815D01*
X86321923Y-143262986D01*
X86280283Y-143208719D01*
X86238009Y-143176281D01*
X86154841Y-143112464D01*
X86096308Y-143088219D01*
X86008762Y-143051956D01*
X86008760Y-143051955D01*
X85852001Y-143031318D01*
X85851999Y-143031318D01*
X85695239Y-143051955D01*
X85695237Y-143051956D01*
X85549160Y-143112463D01*
X85423718Y-143208718D01*
X85327463Y-143334160D01*
X85266956Y-143480237D01*
X85266955Y-143480239D01*
X85246318Y-143636998D01*
X85246318Y-143637001D01*
X85266955Y-143793760D01*
X85266956Y-143793762D01*
X85305105Y-143885863D01*
X85327464Y-143939841D01*
X85423718Y-144065282D01*
X85549159Y-144161536D01*
X85695238Y-144222044D01*
X85773619Y-144232363D01*
X85851999Y-144242682D01*
X85852000Y-144242682D01*
X85852001Y-144242682D01*
X85904254Y-144235802D01*
X86008762Y-144222044D01*
X86154841Y-144161536D01*
X86280282Y-144065282D01*
X86321923Y-144011013D01*
X86378351Y-143969811D01*
X86420299Y-143962500D01*
X87079147Y-143962500D01*
X87580116Y-143962500D01*
X87647155Y-143982185D01*
X87667797Y-143998819D01*
X89009181Y-145340203D01*
X89042666Y-145401526D01*
X89045500Y-145427884D01*
X89045500Y-146776922D01*
X89025815Y-146843961D01*
X88973011Y-146889716D01*
X88903853Y-146899660D01*
X88874048Y-146891483D01*
X88802765Y-146861957D01*
X88802760Y-146861955D01*
X88646001Y-146841318D01*
X88645999Y-146841318D01*
X88489239Y-146861955D01*
X88489237Y-146861956D01*
X88343160Y-146922463D01*
X88217716Y-147018719D01*
X88176077Y-147072986D01*
X88119649Y-147114189D01*
X88077701Y-147121500D01*
X86918465Y-147121500D01*
X86918449Y-147121499D01*
X86910853Y-147121499D01*
X86825147Y-147121499D01*
X86825144Y-147121499D01*
X86742843Y-147143553D01*
X86742806Y-147143563D01*
X86742361Y-147143681D01*
X86742359Y-147143682D01*
X86668141Y-147186532D01*
X86668136Y-147186536D01*
X86607533Y-147247140D01*
X82213684Y-151640988D01*
X82152361Y-151674473D01*
X82109818Y-151676246D01*
X82042001Y-151667318D01*
X82041999Y-151667318D01*
X81974181Y-151676246D01*
X81905145Y-151665480D01*
X81870315Y-151640988D01*
X81094543Y-150865215D01*
X81094520Y-150865194D01*
X80614644Y-150385318D01*
X80043797Y-149814470D01*
X80043790Y-149814464D01*
X77288864Y-147059537D01*
X77288863Y-147059536D01*
X77288862Y-147059535D01*
X77251750Y-147038108D01*
X77214640Y-147016682D01*
X77173246Y-147005591D01*
X77131853Y-146994500D01*
X77131852Y-146994500D01*
X76768299Y-146994500D01*
X76701260Y-146974815D01*
X76669923Y-146945986D01*
X76628283Y-146891719D01*
X76628282Y-146891718D01*
X76502841Y-146795464D01*
X76356762Y-146734956D01*
X76356760Y-146734955D01*
X76200001Y-146714318D01*
X76199999Y-146714318D01*
X76043239Y-146734955D01*
X76043237Y-146734956D01*
X75897160Y-146795463D01*
X75771718Y-146891718D01*
X75675463Y-147017160D01*
X75614956Y-147163237D01*
X75614955Y-147163239D01*
X75594318Y-147319998D01*
X75594318Y-147320001D01*
X75614955Y-147476760D01*
X75614956Y-147476762D01*
X75665374Y-147598483D01*
X75675464Y-147622841D01*
X75771718Y-147748282D01*
X75897159Y-147844536D01*
X76043238Y-147905044D01*
X76121619Y-147915363D01*
X76199999Y-147925682D01*
X76200000Y-147925682D01*
X76200001Y-147925682D01*
X76252254Y-147918802D01*
X76356762Y-147905044D01*
X76502841Y-147844536D01*
X76628282Y-147748282D01*
X76669923Y-147694013D01*
X76726351Y-147652811D01*
X76768299Y-147645500D01*
X76902811Y-147645500D01*
X76969850Y-147665185D01*
X76990492Y-147681819D01*
X77995912Y-148687239D01*
X78853493Y-149544819D01*
X78886978Y-149606142D01*
X78881994Y-149675834D01*
X78840122Y-149731767D01*
X78774658Y-149756184D01*
X78765812Y-149756500D01*
X70937744Y-149756500D01*
X70870705Y-149736815D01*
X70824950Y-149684011D01*
X70815006Y-149614853D01*
X70844031Y-149551297D01*
X70862258Y-149534124D01*
X70869037Y-149528922D01*
X70938682Y-149475482D01*
X71034936Y-149350041D01*
X71095444Y-149203962D01*
X71116082Y-149047200D01*
X71115365Y-149041757D01*
X71095444Y-148890439D01*
X71095444Y-148890438D01*
X71034936Y-148744359D01*
X70938682Y-148618918D01*
X70938680Y-148618916D01*
X70938679Y-148618915D01*
X70884412Y-148577274D01*
X70843210Y-148520846D01*
X70835900Y-148478899D01*
X70835900Y-147598483D01*
X70855585Y-147531444D01*
X70872215Y-147510806D01*
X71125696Y-147257324D01*
X71187017Y-147223841D01*
X71256708Y-147228825D01*
X71312642Y-147270696D01*
X71327935Y-147297553D01*
X71357464Y-147368841D01*
X71453718Y-147494282D01*
X71579159Y-147590536D01*
X71725238Y-147651044D01*
X71803619Y-147661363D01*
X71881999Y-147671682D01*
X71882000Y-147671682D01*
X71882001Y-147671682D01*
X71934254Y-147664802D01*
X72038762Y-147651044D01*
X72184841Y-147590536D01*
X72310282Y-147494282D01*
X72406536Y-147368841D01*
X72467044Y-147222762D01*
X72482947Y-147101968D01*
X72487682Y-147066001D01*
X72487682Y-147065999D01*
X72478753Y-146998181D01*
X72489518Y-146929146D01*
X72514008Y-146894317D01*
X73681620Y-145726705D01*
X73742942Y-145693222D01*
X73812634Y-145698206D01*
X73868567Y-145740078D01*
X73892984Y-145805542D01*
X73893300Y-145814388D01*
X73893300Y-147083011D01*
X73873615Y-147150050D01*
X73856981Y-147170692D01*
X72799492Y-148228181D01*
X72738169Y-148261666D01*
X72711811Y-148264500D01*
X72704299Y-148264500D01*
X72637260Y-148244815D01*
X72605923Y-148215986D01*
X72564283Y-148161719D01*
X72491452Y-148105834D01*
X72438841Y-148065464D01*
X72414148Y-148055236D01*
X72292762Y-148004956D01*
X72292760Y-148004955D01*
X72136001Y-147984318D01*
X72135999Y-147984318D01*
X71979239Y-148004955D01*
X71979237Y-148004956D01*
X71833160Y-148065463D01*
X71707718Y-148161718D01*
X71611463Y-148287160D01*
X71550956Y-148433237D01*
X71550955Y-148433239D01*
X71530318Y-148589998D01*
X71530318Y-148590001D01*
X71550955Y-148746760D01*
X71550956Y-148746762D01*
X71610468Y-148890438D01*
X71611464Y-148892841D01*
X71707718Y-149018282D01*
X71833159Y-149114536D01*
X71979238Y-149175044D01*
X72057619Y-149185363D01*
X72135999Y-149195682D01*
X72136000Y-149195682D01*
X72136001Y-149195682D01*
X72188254Y-149188802D01*
X72292762Y-149175044D01*
X72438841Y-149114536D01*
X72564282Y-149018282D01*
X72605923Y-148964013D01*
X72662351Y-148922811D01*
X72704299Y-148915500D01*
X72940851Y-148915500D01*
X72940853Y-148915500D01*
X73023639Y-148893318D01*
X73097862Y-148850465D01*
X73106783Y-148841544D01*
X73168105Y-148808057D01*
X73237797Y-148813039D01*
X73293732Y-148854908D01*
X73317406Y-148913036D01*
X73324118Y-148964014D01*
X73328956Y-149000762D01*
X73389464Y-149146841D01*
X73485718Y-149272282D01*
X73611159Y-149368536D01*
X73757238Y-149429044D01*
X73835619Y-149439363D01*
X73913999Y-149449682D01*
X73914000Y-149449682D01*
X73914001Y-149449682D01*
X73966254Y-149442802D01*
X74070762Y-149429044D01*
X74216841Y-149368536D01*
X74342282Y-149272282D01*
X74383923Y-149218013D01*
X74440351Y-149176811D01*
X74482299Y-149169500D01*
X76139701Y-149169500D01*
X76206740Y-149189185D01*
X76238077Y-149218014D01*
X76257366Y-149243153D01*
X76279718Y-149272282D01*
X76405159Y-149368536D01*
X76551238Y-149429044D01*
X76629619Y-149439363D01*
X76707999Y-149449682D01*
X76708000Y-149449682D01*
X76708001Y-149449682D01*
X76760254Y-149442802D01*
X76864762Y-149429044D01*
X77010841Y-149368536D01*
X77136282Y-149272282D01*
X77232536Y-149146841D01*
X77293044Y-149000762D01*
X77313682Y-148844000D01*
X77310860Y-148822568D01*
X77293044Y-148687239D01*
X77293044Y-148687238D01*
X77232536Y-148541159D01*
X77136282Y-148415718D01*
X77010841Y-148319464D01*
X76932852Y-148287160D01*
X76864762Y-148258956D01*
X76864760Y-148258955D01*
X76708001Y-148238318D01*
X76707999Y-148238318D01*
X76551239Y-148258955D01*
X76551237Y-148258956D01*
X76405160Y-148319463D01*
X76279716Y-148415719D01*
X76238077Y-148469986D01*
X76181649Y-148511189D01*
X76139701Y-148518500D01*
X74482299Y-148518500D01*
X74415260Y-148498815D01*
X74383923Y-148469986D01*
X74342283Y-148415719D01*
X74342282Y-148415718D01*
X74216841Y-148319464D01*
X74070762Y-148258956D01*
X74050925Y-148256344D01*
X73983034Y-148247406D01*
X73919138Y-148219139D01*
X73880667Y-148160814D01*
X73879836Y-148090950D01*
X73911537Y-148036789D01*
X74479265Y-147469062D01*
X74522118Y-147394839D01*
X74544300Y-147312053D01*
X74544300Y-147226347D01*
X74544300Y-145551785D01*
X74563985Y-145484746D01*
X74580619Y-145464104D01*
X74895313Y-145149410D01*
X75449965Y-144594758D01*
X75492818Y-144520535D01*
X75515000Y-144437749D01*
X75515000Y-144352043D01*
X75515000Y-142676085D01*
X75534685Y-142609046D01*
X75551319Y-142588404D01*
X76717904Y-141421819D01*
X76779227Y-141388334D01*
X76805585Y-141385500D01*
X77051156Y-141385500D01*
X77051158Y-141385500D01*
X77133944Y-141363318D01*
X77208167Y-141320465D01*
X77269520Y-141259111D01*
X77330842Y-141225627D01*
X77400534Y-141230611D01*
X77419202Y-141239407D01*
X77421157Y-141240536D01*
X77524449Y-141283320D01*
X77567238Y-141301044D01*
X77645619Y-141311363D01*
X77723999Y-141321682D01*
X77724000Y-141321682D01*
X77724001Y-141321682D01*
X77776254Y-141314802D01*
X77880762Y-141301044D01*
X78026841Y-141240536D01*
X78152282Y-141144282D01*
X78248536Y-141018841D01*
X78309044Y-140872762D01*
X78316027Y-140819714D01*
X78344293Y-140755819D01*
X78402617Y-140717347D01*
X78472481Y-140716515D01*
X78514453Y-140737524D01*
X78514915Y-140737879D01*
X78514918Y-140737882D01*
X78640359Y-140834136D01*
X78786438Y-140894644D01*
X78864819Y-140904963D01*
X78943199Y-140915282D01*
X78943200Y-140915282D01*
X78943201Y-140915282D01*
X78995454Y-140908402D01*
X79099962Y-140894644D01*
X79246041Y-140834136D01*
X79371482Y-140737882D01*
X79467736Y-140612441D01*
X79513209Y-140502658D01*
X79557050Y-140448255D01*
X79623344Y-140426190D01*
X79675222Y-140435550D01*
X79749610Y-140466362D01*
X79802438Y-140488244D01*
X79880819Y-140498563D01*
X79959199Y-140508882D01*
X79959200Y-140508882D01*
X79959201Y-140508882D01*
X80011454Y-140502002D01*
X80115962Y-140488244D01*
X80262041Y-140427736D01*
X80387482Y-140331482D01*
X80426710Y-140280358D01*
X80483135Y-140239157D01*
X80552881Y-140235002D01*
X80600567Y-140257468D01*
X80723159Y-140351536D01*
X80869238Y-140412044D01*
X80901080Y-140416236D01*
X81025999Y-140432682D01*
X81026000Y-140432682D01*
X81150918Y-140416236D01*
X81187862Y-140421997D01*
X81215731Y-140398424D01*
X81218370Y-140397294D01*
X81328841Y-140351536D01*
X81454282Y-140255282D01*
X81550536Y-140129841D01*
X81611044Y-139983762D01*
X81625915Y-139870806D01*
X81631682Y-139827001D01*
X81631682Y-139826999D01*
X81622753Y-139759180D01*
X81633518Y-139690145D01*
X81658008Y-139655316D01*
X83668849Y-137644475D01*
X83730170Y-137610992D01*
X83799862Y-137615976D01*
X83832014Y-137633782D01*
X83898157Y-137684535D01*
X83898158Y-137684535D01*
X83898159Y-137684536D01*
X84044238Y-137745044D01*
X84064557Y-137747719D01*
X84200999Y-137765682D01*
X84201000Y-137765682D01*
X84201001Y-137765682D01*
X84253254Y-137758802D01*
X84357762Y-137745044D01*
X84429049Y-137715515D01*
X84498516Y-137708047D01*
X84560995Y-137739322D01*
X84596648Y-137799410D01*
X84600500Y-137830077D01*
X84600500Y-137907719D01*
X84580815Y-137974758D01*
X84564181Y-137995400D01*
X81871765Y-140687815D01*
X81810442Y-140721300D01*
X81740750Y-140716316D01*
X81717064Y-140703198D01*
X81716876Y-140703526D01*
X81709836Y-140699461D01*
X81563765Y-140638957D01*
X81563760Y-140638955D01*
X81407001Y-140618318D01*
X81406999Y-140618318D01*
X81282081Y-140634763D01*
X81245136Y-140629001D01*
X81217269Y-140652574D01*
X81214556Y-140653736D01*
X81104160Y-140699463D01*
X80978718Y-140795718D01*
X80882463Y-140921160D01*
X80821956Y-141067237D01*
X80821955Y-141067239D01*
X80801318Y-141223998D01*
X80801318Y-141224001D01*
X80821955Y-141380760D01*
X80821957Y-141380765D01*
X80851483Y-141452048D01*
X80858952Y-141521517D01*
X80827676Y-141583996D01*
X80767587Y-141619648D01*
X80736922Y-141623500D01*
X77658042Y-141623500D01*
X77575257Y-141645682D01*
X77575254Y-141645683D01*
X77518956Y-141678187D01*
X77518955Y-141678188D01*
X77501034Y-141688534D01*
X77501031Y-141688536D01*
X76789337Y-142400230D01*
X76789335Y-142400233D01*
X76746480Y-142474458D01*
X76730863Y-142532747D01*
X76730863Y-142532748D01*
X76727715Y-142544499D01*
X76724300Y-142557242D01*
X76724300Y-143157852D01*
X76724300Y-143243558D01*
X76732773Y-143275181D01*
X76746482Y-143326345D01*
X76762266Y-143353682D01*
X76789335Y-143400567D01*
X77214029Y-143825261D01*
X77214030Y-143825262D01*
X77274633Y-143885865D01*
X77274635Y-143885866D01*
X77274639Y-143885869D01*
X77304232Y-143902954D01*
X77348857Y-143928718D01*
X77431642Y-143950900D01*
X77431644Y-143950900D01*
X83087051Y-143950900D01*
X83087053Y-143950900D01*
X83169839Y-143928718D01*
X83244062Y-143885865D01*
X83800716Y-143329209D01*
X83862037Y-143295726D01*
X83904581Y-143293953D01*
X83972399Y-143302882D01*
X83972400Y-143302882D01*
X83972401Y-143302882D01*
X84024654Y-143296002D01*
X84129162Y-143282244D01*
X84275241Y-143221736D01*
X84400682Y-143125482D01*
X84496936Y-143000041D01*
X84557444Y-142853962D01*
X84578082Y-142697200D01*
X84557444Y-142540438D01*
X84496936Y-142394359D01*
X84400682Y-142268918D01*
X84275241Y-142172664D01*
X84258829Y-142165866D01*
X84129162Y-142112156D01*
X84129160Y-142112155D01*
X83972401Y-142091518D01*
X83972399Y-142091518D01*
X83815639Y-142112155D01*
X83815637Y-142112156D01*
X83669560Y-142172663D01*
X83544118Y-142268918D01*
X83447863Y-142394360D01*
X83387356Y-142540437D01*
X83387355Y-142540439D01*
X83366718Y-142697198D01*
X83366718Y-142697201D01*
X83375646Y-142765017D01*
X83364880Y-142834052D01*
X83340388Y-142868883D01*
X82945692Y-143263581D01*
X82884369Y-143297066D01*
X82858011Y-143299900D01*
X81792589Y-143299900D01*
X81725550Y-143280215D01*
X81679795Y-143227411D01*
X81669851Y-143158253D01*
X81698876Y-143094697D01*
X81704908Y-143088219D01*
X83462840Y-141330287D01*
X85161900Y-141330287D01*
X85167132Y-141363318D01*
X85193165Y-141527690D01*
X85195154Y-141540243D01*
X85246338Y-141697771D01*
X85260844Y-141742414D01*
X85357351Y-141931820D01*
X85482290Y-142103786D01*
X85632613Y-142254109D01*
X85804579Y-142379048D01*
X85804581Y-142379049D01*
X85804584Y-142379051D01*
X85993988Y-142475557D01*
X86196157Y-142541246D01*
X86406113Y-142574500D01*
X86406114Y-142574500D01*
X86618686Y-142574500D01*
X86618687Y-142574500D01*
X86828643Y-142541246D01*
X87030812Y-142475557D01*
X87220216Y-142379051D01*
X87264346Y-142346989D01*
X87392186Y-142254109D01*
X87392188Y-142254106D01*
X87392192Y-142254104D01*
X87542504Y-142103792D01*
X87542506Y-142103788D01*
X87542509Y-142103786D01*
X87667448Y-141931820D01*
X87667447Y-141931820D01*
X87667451Y-141931816D01*
X87763957Y-141742412D01*
X87829646Y-141540243D01*
X87862900Y-141330287D01*
X87862900Y-141117713D01*
X87829646Y-140907757D01*
X87763957Y-140705588D01*
X87667451Y-140516184D01*
X87667449Y-140516181D01*
X87667448Y-140516179D01*
X87542509Y-140344213D01*
X87392186Y-140193890D01*
X87220220Y-140068951D01*
X87030814Y-139972444D01*
X87030813Y-139972443D01*
X87030812Y-139972443D01*
X86828643Y-139906754D01*
X86828641Y-139906753D01*
X86828640Y-139906753D01*
X86667357Y-139881208D01*
X86618687Y-139873500D01*
X86406113Y-139873500D01*
X86357442Y-139881208D01*
X86196160Y-139906753D01*
X85993985Y-139972444D01*
X85804579Y-140068951D01*
X85632613Y-140193890D01*
X85482290Y-140344213D01*
X85357351Y-140516179D01*
X85260844Y-140705585D01*
X85260843Y-140705587D01*
X85260843Y-140705588D01*
X85254202Y-140726026D01*
X85195153Y-140907760D01*
X85169894Y-141067239D01*
X85161900Y-141117713D01*
X85161900Y-141330287D01*
X83462840Y-141330287D01*
X83899239Y-140893888D01*
X86112465Y-138680662D01*
X86155318Y-138606439D01*
X86177500Y-138523653D01*
X86177500Y-138437947D01*
X86177500Y-136726773D01*
X86197185Y-136659734D01*
X86249989Y-136613979D01*
X86319147Y-136604035D01*
X86382703Y-136633060D01*
G37*
%TD.AperFunction*%
%TA.AperFunction,Conductor*%
G36*
X97408001Y-137505185D02*
G01*
X97453756Y-137557989D01*
X97455673Y-137563324D01*
X97455846Y-137563253D01*
X97458955Y-137570760D01*
X97458956Y-137570762D01*
X97519464Y-137716841D01*
X97615718Y-137842282D01*
X97741159Y-137938536D01*
X97887238Y-137999044D01*
X97894679Y-138002126D01*
X97949082Y-138045967D01*
X97971147Y-138112261D01*
X97953868Y-138179960D01*
X97934907Y-138204368D01*
X96952537Y-139186739D01*
X96952535Y-139186742D01*
X96909682Y-139260963D01*
X96887500Y-139343751D01*
X96887500Y-141486415D01*
X96867815Y-141553454D01*
X96851181Y-141574096D01*
X95174537Y-143250739D01*
X95174535Y-143250742D01*
X95131683Y-143324962D01*
X95131682Y-143324964D01*
X95131682Y-143324965D01*
X95120972Y-143364935D01*
X95120971Y-143364936D01*
X95109500Y-143407748D01*
X95109500Y-144153414D01*
X95089815Y-144220453D01*
X95073181Y-144241095D01*
X92073188Y-147241087D01*
X92066729Y-147252275D01*
X92047025Y-147277952D01*
X91219145Y-148105834D01*
X91157822Y-148139319D01*
X91131464Y-148142153D01*
X90815501Y-148142153D01*
X90748462Y-148122468D01*
X90702707Y-148069664D01*
X90691501Y-148018153D01*
X90691501Y-147974649D01*
X90691500Y-147974631D01*
X90691500Y-139331584D01*
X90711185Y-139264545D01*
X90763989Y-139218790D01*
X90833147Y-139208846D01*
X90896703Y-139237871D01*
X90903181Y-139243903D01*
X91242798Y-139583520D01*
X91242808Y-139583531D01*
X91247138Y-139587861D01*
X91247139Y-139587862D01*
X91307742Y-139648465D01*
X91307744Y-139648466D01*
X91307745Y-139648467D01*
X91322775Y-139657144D01*
X91322779Y-139657148D01*
X91322780Y-139657147D01*
X91347653Y-139671508D01*
X91381965Y-139691318D01*
X91464751Y-139713500D01*
X91464753Y-139713500D01*
X95223851Y-139713500D01*
X95223853Y-139713500D01*
X95306639Y-139691318D01*
X95380862Y-139648465D01*
X95840316Y-139189009D01*
X95901637Y-139155526D01*
X95944181Y-139153753D01*
X96011999Y-139162682D01*
X96012000Y-139162682D01*
X96012001Y-139162682D01*
X96064254Y-139155802D01*
X96168762Y-139142044D01*
X96314841Y-139081536D01*
X96440282Y-138985282D01*
X96536536Y-138859841D01*
X96597044Y-138713762D01*
X96617682Y-138557000D01*
X96607454Y-138479314D01*
X96597044Y-138400239D01*
X96597044Y-138400238D01*
X96536536Y-138254159D01*
X96440282Y-138128718D01*
X96314841Y-138032464D01*
X96241875Y-138002240D01*
X96187473Y-137958400D01*
X96165408Y-137892106D01*
X96182687Y-137824407D01*
X96233824Y-137776796D01*
X96273141Y-137764741D01*
X96422762Y-137745044D01*
X96568841Y-137684536D01*
X96694282Y-137588282D01*
X96735923Y-137534013D01*
X96792351Y-137492811D01*
X96834299Y-137485500D01*
X97340962Y-137485500D01*
X97408001Y-137505185D01*
G37*
%TD.AperFunction*%
%TA.AperFunction,Conductor*%
G36*
X68919679Y-138083033D02*
G01*
X68954511Y-138107526D01*
X69222846Y-138375861D01*
X69222847Y-138375862D01*
X69283450Y-138436465D01*
X69283452Y-138436466D01*
X69283456Y-138436469D01*
X69356844Y-138478839D01*
X69357674Y-138479318D01*
X69440459Y-138501500D01*
X69526165Y-138501500D01*
X72320811Y-138501500D01*
X72387850Y-138521185D01*
X72433605Y-138573989D01*
X72443549Y-138643147D01*
X72414524Y-138706703D01*
X72408492Y-138713181D01*
X71621537Y-139500135D01*
X71621533Y-139500141D01*
X71578681Y-139574362D01*
X71578680Y-139574363D01*
X71564541Y-139627136D01*
X71558827Y-139648462D01*
X71556992Y-139655313D01*
X71556501Y-139657144D01*
X71556500Y-139657147D01*
X71556500Y-143449699D01*
X71536815Y-143516738D01*
X71507988Y-143548074D01*
X71453720Y-143589715D01*
X71357463Y-143715160D01*
X71317649Y-143811280D01*
X71296957Y-143861237D01*
X71293846Y-143868747D01*
X71290860Y-143867510D01*
X71262382Y-143914245D01*
X71199539Y-143944781D01*
X71178962Y-143946500D01*
X70799949Y-143946500D01*
X70717161Y-143968682D01*
X70642940Y-144011535D01*
X70642937Y-144011537D01*
X69505063Y-145149410D01*
X69443740Y-145182895D01*
X69401197Y-145184668D01*
X69333381Y-145175740D01*
X69333379Y-145175740D01*
X69176619Y-145196377D01*
X69176617Y-145196378D01*
X69030540Y-145256885D01*
X68905096Y-145353141D01*
X68863457Y-145407408D01*
X68807029Y-145448611D01*
X68765081Y-145455922D01*
X68370611Y-145455922D01*
X68303572Y-145436237D01*
X68282930Y-145419603D01*
X66418011Y-143554684D01*
X66384526Y-143493361D01*
X66382753Y-143450816D01*
X66388424Y-143407748D01*
X66391682Y-143383000D01*
X66384466Y-143328192D01*
X66371044Y-143226239D01*
X66371044Y-143226238D01*
X66310536Y-143080159D01*
X66214282Y-142954718D01*
X66088841Y-142858464D01*
X66077972Y-142853962D01*
X65942762Y-142797956D01*
X65942760Y-142797955D01*
X65786001Y-142777318D01*
X65785999Y-142777318D01*
X65629239Y-142797955D01*
X65629237Y-142797956D01*
X65483160Y-142858463D01*
X65357716Y-142954719D01*
X65316077Y-143008986D01*
X65259649Y-143050189D01*
X65217701Y-143057500D01*
X65177825Y-143057500D01*
X65110786Y-143037815D01*
X65090144Y-143021181D01*
X63878366Y-141809403D01*
X63844881Y-141748080D01*
X63849865Y-141678388D01*
X63891737Y-141622455D01*
X63957201Y-141598038D01*
X63966047Y-141597722D01*
X65057262Y-141597722D01*
X65057264Y-141597722D01*
X65146408Y-141573836D01*
X65156573Y-141567967D01*
X65226332Y-141527692D01*
X68642385Y-138111637D01*
X68703706Y-138078154D01*
X68746246Y-138076381D01*
X68782827Y-138081197D01*
X68850644Y-138072268D01*
X68919679Y-138083033D01*
G37*
%TD.AperFunction*%
%TA.AperFunction,Conductor*%
G36*
X91332467Y-103476467D02*
G01*
X91344788Y-103485566D01*
X91505881Y-103620689D01*
X91819847Y-103884040D01*
X91823246Y-103886997D01*
X92634288Y-104619094D01*
X92637544Y-104622143D01*
X93117905Y-105088512D01*
X93403575Y-105365861D01*
X93437962Y-105426682D01*
X93434008Y-105496440D01*
X93392968Y-105552986D01*
X93354587Y-105573057D01*
X93343430Y-105576585D01*
X93343419Y-105576590D01*
X93292553Y-105608206D01*
X91875849Y-106715056D01*
X91875849Y-106715057D01*
X92818789Y-107921965D01*
X92744322Y-107952811D01*
X92580537Y-108062249D01*
X92441249Y-108201537D01*
X92423480Y-108228129D01*
X91481843Y-107022888D01*
X91481842Y-107022888D01*
X90065142Y-108129736D01*
X90065128Y-108129748D01*
X90022156Y-108171443D01*
X90022152Y-108171449D01*
X89946932Y-108293975D01*
X89909278Y-108432741D01*
X89912244Y-108576486D01*
X89912244Y-108576490D01*
X89955586Y-108713573D01*
X89955590Y-108713580D01*
X89987206Y-108764446D01*
X91094056Y-110181149D01*
X91094057Y-110181149D01*
X92300965Y-109238209D01*
X92331811Y-109312678D01*
X92441249Y-109476463D01*
X92580537Y-109615751D01*
X92607127Y-109633518D01*
X91401888Y-110575155D01*
X91401888Y-110575156D01*
X92508736Y-111991857D01*
X92508748Y-111991871D01*
X92550443Y-112034843D01*
X92550449Y-112034847D01*
X92672975Y-112110067D01*
X92811741Y-112147721D01*
X92955486Y-112144755D01*
X92955490Y-112144755D01*
X93092573Y-112101413D01*
X93092580Y-112101409D01*
X93143446Y-112069793D01*
X94560149Y-110962942D01*
X94560149Y-110962941D01*
X93617210Y-109756034D01*
X93691678Y-109725189D01*
X93855463Y-109615751D01*
X93994751Y-109476463D01*
X94012519Y-109449870D01*
X94954155Y-110655110D01*
X94954156Y-110655110D01*
X96370857Y-109548263D01*
X96370871Y-109548251D01*
X96413843Y-109506556D01*
X96413847Y-109506550D01*
X96489068Y-109384022D01*
X96494432Y-109364255D01*
X96530985Y-109304710D01*
X96593928Y-109274379D01*
X96663277Y-109282892D01*
X96715133Y-109324828D01*
X96913602Y-109603717D01*
X96916118Y-109607393D01*
X97065259Y-109833960D01*
X97516829Y-110519966D01*
X97519238Y-110523774D01*
X98086403Y-111457571D01*
X98088671Y-111461463D01*
X98621530Y-112415232D01*
X98623656Y-112419205D01*
X99121517Y-113391706D01*
X99123497Y-113395753D01*
X99585707Y-114385713D01*
X99587538Y-114389829D01*
X100013468Y-115395898D01*
X100015149Y-115400078D01*
X100404362Y-116421252D01*
X100405709Y-116424964D01*
X100577216Y-116921941D01*
X100584000Y-116962392D01*
X100584000Y-129667915D01*
X100564315Y-129734954D01*
X100511511Y-129780709D01*
X100442353Y-129790653D01*
X100378797Y-129761628D01*
X100372319Y-129755596D01*
X96442819Y-125826096D01*
X96409334Y-125764773D01*
X96406500Y-125738415D01*
X96406500Y-122672189D01*
X96426185Y-122605150D01*
X96442819Y-122584508D01*
X96470836Y-122556491D01*
X96532159Y-122523006D01*
X96574703Y-122521233D01*
X96595539Y-122523976D01*
X96647239Y-122530783D01*
X96647240Y-122530783D01*
X96647241Y-122530783D01*
X96706312Y-122523006D01*
X96804002Y-122510145D01*
X96950081Y-122449637D01*
X97075522Y-122353383D01*
X97146712Y-122260605D01*
X97203140Y-122219403D01*
X97272886Y-122215248D01*
X97333806Y-122249460D01*
X97366559Y-122311178D01*
X97368368Y-122349436D01*
X97366700Y-122364841D01*
X97366699Y-122364855D01*
X97366699Y-122364856D01*
X97365699Y-122387856D01*
X97365682Y-122388237D01*
X97364683Y-122412225D01*
X97364682Y-122412248D01*
X97364682Y-122429751D01*
X97365689Y-122453926D01*
X97365700Y-122454170D01*
X97365705Y-122454283D01*
X97366699Y-122477147D01*
X97366700Y-122477154D01*
X97369613Y-122504066D01*
X97369614Y-122504070D01*
X97369616Y-122504089D01*
X97373392Y-122525801D01*
X97373530Y-122526613D01*
X97377364Y-122549607D01*
X97379735Y-122561651D01*
X97384735Y-122583651D01*
X97388623Y-122598298D01*
X97395624Y-122621298D01*
X97399172Y-122631929D01*
X97407171Y-122653929D01*
X97408931Y-122658490D01*
X97410166Y-122661687D01*
X97419178Y-122683717D01*
X97423945Y-122694496D01*
X97433949Y-122715503D01*
X97437528Y-122722664D01*
X97448517Y-122743644D01*
X97448542Y-122743690D01*
X97458497Y-122760701D01*
X97458510Y-122760723D01*
X97484505Y-122800716D01*
X97494837Y-122815229D01*
X97494845Y-122815239D01*
X97508841Y-122833233D01*
X97508854Y-122833249D01*
X97517655Y-122843831D01*
X97517666Y-122843843D01*
X97533666Y-122861844D01*
X97537714Y-122866269D01*
X97553714Y-122883269D01*
X97562731Y-122892286D01*
X97579731Y-122908286D01*
X97584156Y-122912334D01*
X97592177Y-122919463D01*
X97602168Y-122928344D01*
X97612522Y-122936955D01*
X97612762Y-122937155D01*
X97630761Y-122951155D01*
X97642995Y-122959865D01*
X97643291Y-122960199D01*
X97645275Y-122961488D01*
X97645284Y-122961495D01*
X97651111Y-122965282D01*
X97651117Y-122965286D01*
X97665277Y-122974489D01*
X97665277Y-122974490D01*
X97685276Y-122987490D01*
X97702333Y-122997471D01*
X97702350Y-122997480D01*
X97702352Y-122997481D01*
X97723338Y-123008473D01*
X97730491Y-123012048D01*
X97751475Y-123022041D01*
X97751492Y-123022049D01*
X97761495Y-123026473D01*
X97762316Y-123026836D01*
X97778515Y-123033462D01*
X97784298Y-123035828D01*
X97792071Y-123038829D01*
X97814071Y-123046828D01*
X97824694Y-123050374D01*
X97847694Y-123057376D01*
X97862358Y-123061268D01*
X97868161Y-123062586D01*
X97929172Y-123096636D01*
X97962089Y-123158265D01*
X97956462Y-123227908D01*
X97951788Y-123235107D01*
X97953423Y-123246130D01*
X98059688Y-123302931D01*
X98238769Y-123357255D01*
X98425000Y-123375596D01*
X98611230Y-123357255D01*
X98790309Y-123302931D01*
X98896575Y-123246129D01*
X98899005Y-123229748D01*
X98888147Y-123209862D01*
X98893131Y-123140170D01*
X98935003Y-123084237D01*
X98981842Y-123062585D01*
X98987642Y-123061268D01*
X99002306Y-123057376D01*
X99025306Y-123050374D01*
X99035929Y-123046828D01*
X99057929Y-123038829D01*
X99065702Y-123035828D01*
X99081897Y-123029202D01*
X99087683Y-123026836D01*
X99087689Y-123026832D01*
X99087702Y-123026828D01*
X99098508Y-123022049D01*
X99119508Y-123012048D01*
X99126667Y-123008470D01*
X99147667Y-122997471D01*
X99164724Y-122987490D01*
X99184723Y-122974490D01*
X99184722Y-122974489D01*
X99190138Y-122970968D01*
X99204716Y-122961495D01*
X99204715Y-122961495D01*
X99206861Y-122960101D01*
X99206939Y-122960047D01*
X99220753Y-122951067D01*
X99226003Y-122945893D01*
X99237238Y-122937155D01*
X99247843Y-122928334D01*
X99265844Y-122912334D01*
X99270269Y-122908286D01*
X99287269Y-122892286D01*
X99296286Y-122883269D01*
X99312286Y-122866269D01*
X99316334Y-122861844D01*
X99332334Y-122843843D01*
X99341155Y-122833238D01*
X99355155Y-122815239D01*
X99365492Y-122800720D01*
X99391492Y-122760720D01*
X99401469Y-122743670D01*
X99412469Y-122722669D01*
X99416050Y-122715504D01*
X99426050Y-122694505D01*
X99430828Y-122683702D01*
X99439828Y-122661702D01*
X99442829Y-122653929D01*
X99450828Y-122631929D01*
X99454376Y-122621298D01*
X99461377Y-122598298D01*
X99465265Y-122583651D01*
X99470265Y-122561651D01*
X99472636Y-122549607D01*
X99476527Y-122526261D01*
X99480387Y-122504066D01*
X99483301Y-122477144D01*
X99484301Y-122454144D01*
X99484318Y-122453763D01*
X99485318Y-122429763D01*
X99485318Y-122412237D01*
X99484318Y-122388237D01*
X99484301Y-122387856D01*
X99483301Y-122364856D01*
X99480387Y-122337933D01*
X99476570Y-122315985D01*
X99476455Y-122315310D01*
X99475766Y-122311178D01*
X99472636Y-122292394D01*
X99471330Y-122285761D01*
X99470264Y-122280341D01*
X99465269Y-122258364D01*
X99461378Y-122243704D01*
X99459275Y-122236795D01*
X99454380Y-122220710D01*
X99450829Y-122210071D01*
X99442830Y-122188071D01*
X99439826Y-122180290D01*
X99439814Y-122180261D01*
X99430824Y-122158285D01*
X99426054Y-122147502D01*
X99416057Y-122126510D01*
X99412460Y-122119310D01*
X99401480Y-122098350D01*
X99401473Y-122098338D01*
X99401466Y-122098324D01*
X99398732Y-122093652D01*
X99391503Y-122081298D01*
X99391499Y-122081291D01*
X99391495Y-122081285D01*
X99365495Y-122041283D01*
X99365492Y-122041279D01*
X99365487Y-122041271D01*
X99355153Y-122026757D01*
X99341173Y-122008783D01*
X99341154Y-122008760D01*
X99332325Y-121998147D01*
X99322036Y-121986573D01*
X99316321Y-121980143D01*
X99312297Y-121975743D01*
X99296280Y-121958724D01*
X99287278Y-121949722D01*
X99284045Y-121946679D01*
X99270264Y-121933710D01*
X99265852Y-121929674D01*
X99247853Y-121913674D01*
X99247847Y-121913669D01*
X99247838Y-121913661D01*
X99237242Y-121904847D01*
X99232093Y-121900843D01*
X99219234Y-121890841D01*
X99219223Y-121890833D01*
X99204725Y-121880511D01*
X99164714Y-121854504D01*
X99147686Y-121844539D01*
X99147641Y-121844514D01*
X99126708Y-121833550D01*
X99126692Y-121833542D01*
X99126673Y-121833532D01*
X99119501Y-121829948D01*
X99119480Y-121829938D01*
X99119460Y-121829928D01*
X99098529Y-121819960D01*
X99087683Y-121815163D01*
X99069710Y-121807811D01*
X99065702Y-121806172D01*
X99057937Y-121803173D01*
X99035937Y-121795173D01*
X99035936Y-121795172D01*
X99035926Y-121795169D01*
X99032415Y-121793997D01*
X99025290Y-121791620D01*
X99013790Y-121788120D01*
X99002295Y-121784621D01*
X98987646Y-121780733D01*
X98981827Y-121779411D01*
X98920818Y-121745357D01*
X98887905Y-121683725D01*
X98893537Y-121614083D01*
X98898210Y-121606885D01*
X98896576Y-121595869D01*
X98790311Y-121539068D01*
X98611230Y-121484744D01*
X98425000Y-121466403D01*
X98424996Y-121466403D01*
X98381693Y-121470667D01*
X98313048Y-121457647D01*
X98262338Y-121409581D01*
X98245666Y-121341730D01*
X98260594Y-121290614D01*
X98260350Y-121290513D01*
X98261278Y-121288270D01*
X98262159Y-121285257D01*
X98263454Y-121283011D01*
X98263460Y-121283005D01*
X98323968Y-121136926D01*
X98341515Y-121003641D01*
X98344606Y-120980165D01*
X98344606Y-120980162D01*
X98324678Y-120828795D01*
X98327842Y-120780516D01*
X98335500Y-120751941D01*
X98335500Y-119031190D01*
X98355185Y-118964151D01*
X98371819Y-118943509D01*
X99033508Y-118281820D01*
X99094831Y-118248335D01*
X99111250Y-118246569D01*
X99111249Y-118246562D01*
X99119305Y-118245501D01*
X99119309Y-118245501D01*
X99233886Y-118214800D01*
X99336613Y-118155490D01*
X99420489Y-118071614D01*
X99479799Y-117968887D01*
X99510500Y-117854310D01*
X99510500Y-117735692D01*
X99479799Y-117621115D01*
X99420489Y-117518388D01*
X99336613Y-117434512D01*
X99277302Y-117400268D01*
X99233885Y-117375201D01*
X99233882Y-117375200D01*
X99223405Y-117372393D01*
X99163745Y-117336028D01*
X99133217Y-117273181D01*
X99131500Y-117252619D01*
X99131500Y-116418148D01*
X99131500Y-116418146D01*
X99109318Y-116335361D01*
X99100847Y-116320689D01*
X99066469Y-116261143D01*
X99066463Y-116261135D01*
X99005863Y-116200535D01*
X99005855Y-116200529D01*
X98931644Y-116157684D01*
X98931640Y-116157682D01*
X98931638Y-116157681D01*
X98848853Y-116135499D01*
X98763147Y-116135499D01*
X98680362Y-116157681D01*
X98680355Y-116157684D01*
X98606144Y-116200529D01*
X98606136Y-116200535D01*
X98545536Y-116261135D01*
X98545530Y-116261143D01*
X98502685Y-116335354D01*
X98502682Y-116335361D01*
X98480500Y-116418146D01*
X98480500Y-117220501D01*
X98460815Y-117287540D01*
X98408011Y-117333295D01*
X98356500Y-117344501D01*
X98068966Y-117344501D01*
X98001927Y-117324816D01*
X97981285Y-117308182D01*
X96898615Y-116225513D01*
X96898613Y-116225511D01*
X96855343Y-116200529D01*
X96795884Y-116166199D01*
X96760226Y-116156646D01*
X96720766Y-116146073D01*
X96681308Y-116135500D01*
X96681307Y-116135500D01*
X90896501Y-116135500D01*
X90829462Y-116115815D01*
X90783707Y-116063011D01*
X90772501Y-116011500D01*
X90772501Y-112614694D01*
X90772501Y-112614692D01*
X90741800Y-112500115D01*
X90741800Y-112500114D01*
X90741800Y-112500113D01*
X90682493Y-112397390D01*
X90682489Y-112397385D01*
X88624819Y-110339715D01*
X88591334Y-110278392D01*
X88588500Y-110252034D01*
X88588500Y-107087430D01*
X88608185Y-107020391D01*
X88629932Y-106994918D01*
X88635394Y-106990042D01*
X88635396Y-106990042D01*
X88679883Y-106950336D01*
X91110912Y-103724251D01*
X91136818Y-103670544D01*
X91141339Y-103590908D01*
X91141338Y-103590907D01*
X91142031Y-103578715D01*
X91145097Y-103578889D01*
X91152471Y-103528713D01*
X91198389Y-103476051D01*
X91265489Y-103456575D01*
X91332467Y-103476467D01*
G37*
%TD.AperFunction*%
%TA.AperFunction,Conductor*%
G36*
X52987508Y-103325509D02*
G01*
X53039366Y-103372333D01*
X53057677Y-103439761D01*
X53036627Y-103506384D01*
X53031489Y-103513002D01*
X53029958Y-103515601D01*
X53003661Y-103590906D01*
X53003661Y-103590908D01*
X53008182Y-103670544D01*
X53034088Y-103724251D01*
X53626490Y-104510395D01*
X53961377Y-104954806D01*
X53986001Y-105020193D01*
X53971366Y-105088512D01*
X53965452Y-105098316D01*
X53958113Y-105109300D01*
X53958110Y-105109305D01*
X53905309Y-105236779D01*
X53905306Y-105236789D01*
X53878388Y-105372116D01*
X53878388Y-107718093D01*
X53858703Y-107785132D01*
X53805899Y-107830887D01*
X53736741Y-107840831D01*
X53678046Y-107815806D01*
X52663156Y-107022888D01*
X52663155Y-107022888D01*
X51721518Y-108228127D01*
X51703751Y-108201537D01*
X51564463Y-108062249D01*
X51400678Y-107952811D01*
X51326210Y-107921965D01*
X52269149Y-106715057D01*
X52269149Y-106715056D01*
X50852446Y-105608206D01*
X50801580Y-105576590D01*
X50801572Y-105576586D01*
X50693698Y-105542479D01*
X50635712Y-105503500D01*
X50608004Y-105439359D01*
X50619372Y-105370420D01*
X50645022Y-105334973D01*
X51425484Y-104582664D01*
X51428786Y-104579595D01*
X52246108Y-103847716D01*
X52249494Y-103844794D01*
X52854432Y-103341875D01*
X52918567Y-103314155D01*
X52987508Y-103325509D01*
G37*
%TD.AperFunction*%
%TD*%
M02*
