M48
; DRILL file {KiCad 8.0.1} date 2025-05-01T03:19:40-0700
; FORMAT={-:-/ absolute / metric / decimal}
; #@! TF.CreationDate,2025-05-01T03:19:40-07:00
; #@! TF.GenerationSoftware,Kicad,Pcbnew,8.0.1
; #@! TF.FileFunction,Plated,1,2,PTH
FMAT,2
METRIC
; #@! TA.AperFunction,Plated,PTH,ViaDrill
T1C0.300
; #@! TA.AperFunction,Plated,PTH,ViaDrill
T2C0.400
; #@! TA.AperFunction,Plated,PTH,ComponentDrill
T3C0.600
; #@! TA.AperFunction,Plated,PTH,ComponentDrill
T4C0.762
; #@! TA.AperFunction,Plated,PTH,ComponentDrill
T5C1.000
; #@! TA.AperFunction,Plated,PTH,ComponentDrill
T6C1.500
; #@! TA.AperFunction,Plated,PTH,ComponentDrill
T7C1.700
; #@! TA.AperFunction,Plated,PTH,ComponentDrill
T8C2.000
; #@! TA.AperFunction,Plated,PTH,ComponentDrill
T9C3.000
%
G90
G05
T1
X68.428Y-108.356
T2
X57.76Y-131.013
X58.014Y-124.003
X59.741Y-131.369
X60.3Y-148.031
X60.401Y-146.914
X60.757Y-127.965
X61.062Y-146.05
X61.163Y-141.834
X61.874Y-145.288
X61.976Y-142.494
X62.281Y-143.459
X62.382Y-144.374
X62.856Y-141.247
X63.144Y-135.331
X63.872Y-150.291
X64.897Y-145.542
X65.786Y-143.383
X67.183Y-135.128
X67.259Y-119.329
X67.259Y-119.329
X67.437Y-136.017
X67.513Y-128.676
X67.564Y-131.064
X67.803Y-147.376
X68.199Y-135.255
X68.783Y-137.476
X68.834Y-134.493
X69.333Y-145.781
X69.596Y-133.858
X70.231Y-133.096
X70.51Y-149.047
X71.12Y-132.715
X71.882Y-133.223
X71.882Y-144.018
X71.882Y-147.066
X72.136Y-148.59
X72.517Y-133.985
X72.644Y-135.001
X73.152Y-147.066
X73.279Y-135.763
X73.406Y-138.176
X73.406Y-142.748
X73.609Y-105.359
X73.609Y-141.681
X73.66Y-151.384
X73.914Y-136.779
X73.914Y-148.844
X74.93Y-132.334
X74.981Y-128.981
X75.032Y-105.156
X75.336Y-109.677
X75.565Y-102.997
X76.048Y-129.794
X76.2Y-147.32
X76.708Y-140.335
X76.708Y-148.844
X76.911Y-106.731
X76.962Y-130.607
X77.47Y-139.319
X77.47Y-151.384
X77.724Y-140.716
X77.775Y-142.9
X78.74Y-137.058
X78.74Y-151.257
X78.943Y-140.31
X78.994Y-120.701
X79.248Y-153.924
X79.705Y-128.727
X79.959Y-137.312
X79.959Y-139.903
X80.12Y-124.59
X80.391Y-153.924
X81.026Y-139.827
X81.077Y-111.608
X81.28Y-120.345
X81.407Y-141.224
X81.636Y-115.062
X82.042Y-152.273
X82.398Y-112.928
X82.906Y-116.129
X83.007Y-120.04
X83.312Y-135.128
X83.373Y-152.508
X83.871Y-126.289
X83.922Y-120.599
X83.922Y-121.463
X83.972Y-142.697
X84.201Y-137.16
X84.328Y-135.89
X85.09Y-151.765
X85.395Y-108.56
X85.598Y-150.749
X85.852Y-143.637
X86.995Y-151.003
X87.376Y-115.697
X87.376Y-149.987
X87.732Y-120.599
X87.732Y-121.463
X87.884Y-139.04
X88.392Y-145.288
X88.646Y-147.447
X88.748Y-123.444
X89.153Y-135.033
X89.408Y-133.731
X90.932Y-136.906
X91.313Y-126.619
X91.44Y-147.32
X92.329Y-117.856
X92.456Y-122.301
X92.537Y-130.67
X92.71Y-132.334
X94.488Y-115.062
X94.488Y-115.062
X94.615Y-142.113
X94.869Y-132.969
X94.996Y-117.856
X95.148Y-140.462
X95.885Y-120.904
X95.885Y-132.969
X96.012Y-138.557
X96.266Y-137.16
X96.647Y-121.925
X96.774Y-133.604
X97.739Y-120.98
X97.917Y-132.461
X98.044Y-137.414
X98.298Y-136.144
X99.967Y-122.379
T3
X94.255Y-122.421
X94.255Y-131.071
X98.425Y-122.421
X98.425Y-131.071
T4
X54.508Y-118.923
X54.508Y-124.013
X54.508Y-129.113
X54.508Y-136.713
T5
X68.011Y-153.264
X70.551Y-153.264
X73.091Y-153.264
X75.631Y-153.264
T6
X47.955Y-126.797
T7
X45.415Y-124.257
X45.415Y-129.337
X50.495Y-124.257
X50.495Y-129.337
T8
X50.927Y-108.839
X56.007Y-104.013
X88.138Y-104.013
X93.218Y-108.839
T9
X62.508Y-114.513
M30
