%TF.GenerationSoftware,KiCad,Pcbnew,8.0.1*%
%TF.CreationDate,2025-05-01T03:19:42-07:00*%
%TF.ProjectId,rocketBeaconModule,726f636b-6574-4426-9561-636f6e4d6f64,rev?*%
%TF.SameCoordinates,Original*%
%TF.FileFunction,Legend,Bot*%
%TF.FilePolarity,Positive*%
%FSLAX46Y46*%
G04 Gerber Fmt 4.6, Leading zero omitted, Abs format (unit mm)*
G04 Created by KiCad (PCBNEW 8.0.1) date 2025-05-01 03:19:42*
%MOMM*%
%LPD*%
G01*
G04 APERTURE LIST*
%ADD10C,0.150000*%
%ADD11C,0.120000*%
G04 APERTURE END LIST*
D10*
X79217733Y-116526819D02*
X79217733Y-117241104D01*
X79217733Y-117241104D02*
X79265352Y-117383961D01*
X79265352Y-117383961D02*
X79360590Y-117479200D01*
X79360590Y-117479200D02*
X79503447Y-117526819D01*
X79503447Y-117526819D02*
X79598685Y-117526819D01*
X78741542Y-117526819D02*
X78741542Y-116526819D01*
X78741542Y-116526819D02*
X78360590Y-116526819D01*
X78360590Y-116526819D02*
X78265352Y-116574438D01*
X78265352Y-116574438D02*
X78217733Y-116622057D01*
X78217733Y-116622057D02*
X78170114Y-116717295D01*
X78170114Y-116717295D02*
X78170114Y-116860152D01*
X78170114Y-116860152D02*
X78217733Y-116955390D01*
X78217733Y-116955390D02*
X78265352Y-117003009D01*
X78265352Y-117003009D02*
X78360590Y-117050628D01*
X78360590Y-117050628D02*
X78741542Y-117050628D01*
X77312971Y-116860152D02*
X77312971Y-117526819D01*
X77551066Y-116479200D02*
X77789161Y-117193485D01*
X77789161Y-117193485D02*
X77170114Y-117193485D01*
X82052132Y-116526819D02*
X82052132Y-117241104D01*
X82052132Y-117241104D02*
X82099751Y-117383961D01*
X82099751Y-117383961D02*
X82194989Y-117479200D01*
X82194989Y-117479200D02*
X82337846Y-117526819D01*
X82337846Y-117526819D02*
X82433084Y-117526819D01*
X81575941Y-117526819D02*
X81575941Y-116526819D01*
X81575941Y-116526819D02*
X81194989Y-116526819D01*
X81194989Y-116526819D02*
X81099751Y-116574438D01*
X81099751Y-116574438D02*
X81052132Y-116622057D01*
X81052132Y-116622057D02*
X81004513Y-116717295D01*
X81004513Y-116717295D02*
X81004513Y-116860152D01*
X81004513Y-116860152D02*
X81052132Y-116955390D01*
X81052132Y-116955390D02*
X81099751Y-117003009D01*
X81099751Y-117003009D02*
X81194989Y-117050628D01*
X81194989Y-117050628D02*
X81575941Y-117050628D01*
X80671179Y-116526819D02*
X80052132Y-116526819D01*
X80052132Y-116526819D02*
X80385465Y-116907771D01*
X80385465Y-116907771D02*
X80242608Y-116907771D01*
X80242608Y-116907771D02*
X80147370Y-116955390D01*
X80147370Y-116955390D02*
X80099751Y-117003009D01*
X80099751Y-117003009D02*
X80052132Y-117098247D01*
X80052132Y-117098247D02*
X80052132Y-117336342D01*
X80052132Y-117336342D02*
X80099751Y-117431580D01*
X80099751Y-117431580D02*
X80147370Y-117479200D01*
X80147370Y-117479200D02*
X80242608Y-117526819D01*
X80242608Y-117526819D02*
X80528322Y-117526819D01*
X80528322Y-117526819D02*
X80623560Y-117479200D01*
X80623560Y-117479200D02*
X80671179Y-117431580D01*
X62553579Y-129908038D02*
X63029770Y-130241371D01*
X62553579Y-130479466D02*
X63553579Y-130479466D01*
X63553579Y-130479466D02*
X63553579Y-130098514D01*
X63553579Y-130098514D02*
X63505960Y-130003276D01*
X63505960Y-130003276D02*
X63458341Y-129955657D01*
X63458341Y-129955657D02*
X63363103Y-129908038D01*
X63363103Y-129908038D02*
X63220246Y-129908038D01*
X63220246Y-129908038D02*
X63125008Y-129955657D01*
X63125008Y-129955657D02*
X63077389Y-130003276D01*
X63077389Y-130003276D02*
X63029770Y-130098514D01*
X63029770Y-130098514D02*
X63029770Y-130479466D01*
X63077389Y-129146133D02*
X63077389Y-129479466D01*
X62553579Y-129479466D02*
X63553579Y-129479466D01*
X63553579Y-129479466D02*
X63553579Y-129003276D01*
X62839294Y-128669942D02*
X62839294Y-128193752D01*
X62553579Y-128765180D02*
X63553579Y-128431847D01*
X63553579Y-128431847D02*
X62553579Y-128098514D01*
X62553579Y-127765180D02*
X63553579Y-127765180D01*
X63553579Y-127765180D02*
X62839294Y-127431847D01*
X62839294Y-127431847D02*
X63553579Y-127098514D01*
X63553579Y-127098514D02*
X62553579Y-127098514D01*
X62553579Y-126622323D02*
X63553579Y-126622323D01*
X63553579Y-126622323D02*
X63553579Y-126241371D01*
X63553579Y-126241371D02*
X63505960Y-126146133D01*
X63505960Y-126146133D02*
X63458341Y-126098514D01*
X63458341Y-126098514D02*
X63363103Y-126050895D01*
X63363103Y-126050895D02*
X63220246Y-126050895D01*
X63220246Y-126050895D02*
X63125008Y-126098514D01*
X63125008Y-126098514D02*
X63077389Y-126146133D01*
X63077389Y-126146133D02*
X63029770Y-126241371D01*
X63029770Y-126241371D02*
X63029770Y-126622323D01*
X63458341Y-125669942D02*
X63505960Y-125622323D01*
X63505960Y-125622323D02*
X63553579Y-125527085D01*
X63553579Y-125527085D02*
X63553579Y-125288990D01*
X63553579Y-125288990D02*
X63505960Y-125193752D01*
X63505960Y-125193752D02*
X63458341Y-125146133D01*
X63458341Y-125146133D02*
X63363103Y-125098514D01*
X63363103Y-125098514D02*
X63267865Y-125098514D01*
X63267865Y-125098514D02*
X63125008Y-125146133D01*
X63125008Y-125146133D02*
X62553579Y-125717561D01*
X62553579Y-125717561D02*
X62553579Y-125098514D01*
D11*
%TO.C,JP4*%
X76984400Y-119172000D02*
X76984400Y-118572000D01*
X77684400Y-117872000D02*
X79084400Y-117872000D01*
X79084400Y-119872000D02*
X77684400Y-119872000D01*
X79784400Y-118572000D02*
X79784400Y-119172000D01*
X76984400Y-118572000D02*
G75*
G02*
X77684400Y-117872000I700000J0D01*
G01*
X77684400Y-119872000D02*
G75*
G02*
X76984400Y-119172000I0J700000D01*
G01*
X79084400Y-117872000D02*
G75*
G02*
X79784400Y-118572000I1J-699999D01*
G01*
X79784400Y-119172000D02*
G75*
G02*
X79084400Y-119872000I-699999J-1D01*
G01*
%TO.C,JP3*%
X79818799Y-119172001D02*
X79818799Y-118571999D01*
X80518799Y-117872000D02*
X81918799Y-117872000D01*
X81918799Y-119872000D02*
X80518799Y-119872000D01*
X82618799Y-118571999D02*
X82618799Y-119172001D01*
X79818799Y-118571999D02*
G75*
G02*
X80518799Y-117872000I700000J-1D01*
G01*
X80518799Y-119872000D02*
G75*
G02*
X79818799Y-119172001I0J700000D01*
G01*
X81918799Y-117872000D02*
G75*
G02*
X82618799Y-118571999I1J-699999D01*
G01*
X82618799Y-119172001D02*
G75*
G02*
X81918799Y-119872000I-699999J0D01*
G01*
%TO.C,RFAMP2*%
X59508400Y-112812800D02*
X59508400Y-142812800D01*
X59508400Y-112812800D02*
X61008400Y-112812800D01*
X61008400Y-112812800D02*
X61008400Y-114512800D01*
X61008400Y-142812800D02*
X59508400Y-142812800D01*
X61008400Y-142812800D02*
X61008400Y-141112800D01*
X64008400Y-112812800D02*
X64008400Y-114512800D01*
X64008400Y-112812800D02*
X65508400Y-112812800D01*
X64008400Y-142812800D02*
X64008400Y-141112800D01*
X65508400Y-142812800D02*
X64008400Y-142812800D01*
X65508400Y-142812800D02*
X65508400Y-112812800D01*
X61008400Y-141112800D02*
G75*
G02*
X64007831Y-141154123I1500000J0D01*
G01*
X64008400Y-114512800D02*
G75*
G02*
X61008969Y-114471477I-1500000J0D01*
G01*
X67508400Y-138412800D02*
X57508400Y-138412800D01*
X57508400Y-117212800D01*
X67508400Y-117212800D01*
X67508400Y-138412800D01*
%TD*%
M02*
