%TF.GenerationSoftware,KiCad,Pcbnew,(6.0.6)*%
%TF.CreationDate,2024-06-26T22:32:41-07:00*%
%TF.ProjectId,rocketBeaconModule,726f636b-6574-4426-9561-636f6e4d6f64,rev?*%
%TF.SameCoordinates,Original*%
%TF.FileFunction,Soldermask,Top*%
%TF.FilePolarity,Negative*%
%FSLAX46Y46*%
G04 Gerber Fmt 4.6, Leading zero omitted, Abs format (unit mm)*
G04 Created by KiCad (PCBNEW (6.0.6)) date 2024-06-26 22:32:41*
%MOMM*%
%LPD*%
G01*
G04 APERTURE LIST*
G04 Aperture macros list*
%AMRoundRect*
0 Rectangle with rounded corners*
0 $1 Rounding radius*
0 $2 $3 $4 $5 $6 $7 $8 $9 X,Y pos of 4 corners*
0 Add a 4 corners polygon primitive as box body*
4,1,4,$2,$3,$4,$5,$6,$7,$8,$9,$2,$3,0*
0 Add four circle primitives for the rounded corners*
1,1,$1+$1,$2,$3*
1,1,$1+$1,$4,$5*
1,1,$1+$1,$6,$7*
1,1,$1+$1,$8,$9*
0 Add four rect primitives between the rounded corners*
20,1,$1+$1,$2,$3,$4,$5,0*
20,1,$1+$1,$4,$5,$6,$7,0*
20,1,$1+$1,$6,$7,$8,$9,0*
20,1,$1+$1,$8,$9,$2,$3,0*%
G04 Aperture macros list end*
%ADD10C,0.010000*%
%ADD11RoundRect,0.140000X-0.170000X0.140000X-0.170000X-0.140000X0.170000X-0.140000X0.170000X0.140000X0*%
%ADD12C,2.050000*%
%ADD13C,2.250000*%
%ADD14RoundRect,0.102000X0.175000X0.175000X-0.175000X0.175000X-0.175000X-0.175000X0.175000X-0.175000X0*%
%ADD15RoundRect,0.102000X-0.450000X0.150000X-0.450000X-0.150000X0.450000X-0.150000X0.450000X0.150000X0*%
%ADD16RoundRect,0.102000X-0.150000X-0.450000X0.150000X-0.450000X0.150000X0.450000X-0.150000X0.450000X0*%
%ADD17RoundRect,0.102000X0.450000X-0.150000X0.450000X0.150000X-0.450000X0.150000X-0.450000X-0.150000X0*%
%ADD18RoundRect,0.102000X0.150000X0.450000X-0.150000X0.450000X-0.150000X-0.450000X0.150000X-0.450000X0*%
%ADD19RoundRect,0.102000X0.900000X0.900000X-0.900000X0.900000X-0.900000X-0.900000X0.900000X-0.900000X0*%
%ADD20RoundRect,0.140000X0.170000X-0.140000X0.170000X0.140000X-0.170000X0.140000X-0.170000X-0.140000X0*%
%ADD21RoundRect,0.062500X-0.375000X-0.062500X0.375000X-0.062500X0.375000X0.062500X-0.375000X0.062500X0*%
%ADD22RoundRect,0.062500X-0.062500X-0.375000X0.062500X-0.375000X0.062500X0.375000X-0.062500X0.375000X0*%
%ADD23R,5.600000X5.600000*%
%ADD24RoundRect,0.147500X-0.147500X-0.172500X0.147500X-0.172500X0.147500X0.172500X-0.147500X0.172500X0*%
%ADD25RoundRect,0.140000X-0.140000X-0.170000X0.140000X-0.170000X0.140000X0.170000X-0.140000X0.170000X0*%
%ADD26RoundRect,0.140000X0.140000X0.170000X-0.140000X0.170000X-0.140000X-0.170000X0.140000X-0.170000X0*%
%ADD27C,3.200000*%
%ADD28RoundRect,0.135000X0.135000X0.185000X-0.135000X0.185000X-0.135000X-0.185000X0.135000X-0.185000X0*%
%ADD29RoundRect,0.218750X-0.256250X0.218750X-0.256250X-0.218750X0.256250X-0.218750X0.256250X0.218750X0*%
%ADD30RoundRect,0.062500X0.375000X0.062500X-0.375000X0.062500X-0.375000X-0.062500X0.375000X-0.062500X0*%
%ADD31RoundRect,0.062500X0.062500X0.375000X-0.062500X0.375000X-0.062500X-0.375000X0.062500X-0.375000X0*%
%ADD32R,3.450000X3.450000*%
%ADD33RoundRect,0.135000X-0.135000X-0.185000X0.135000X-0.185000X0.135000X0.185000X-0.135000X0.185000X0*%
%ADD34R,1.700000X1.700000*%
%ADD35O,1.700000X1.700000*%
%ADD36R,1.400000X1.200000*%
%ADD37R,1.300000X1.100000*%
%ADD38RoundRect,0.147500X0.147500X0.172500X-0.147500X0.172500X-0.147500X-0.172500X0.147500X-0.172500X0*%
%ADD39C,0.600000*%
%ADD40RoundRect,0.225000X-0.225000X-0.250000X0.225000X-0.250000X0.225000X0.250000X-0.225000X0.250000X0*%
%ADD41RoundRect,0.225000X0.225000X0.250000X-0.225000X0.250000X-0.225000X-0.250000X0.225000X-0.250000X0*%
G04 APERTURE END LIST*
%TO.C,J1*%
G36*
X224354500Y-92108000D02*
G01*
X223114500Y-92108000D01*
X223114500Y-91708000D01*
X224354500Y-91708000D01*
X224354500Y-92108000D01*
G37*
D10*
X224354500Y-92108000D02*
X223114500Y-92108000D01*
X223114500Y-91708000D01*
X224354500Y-91708000D01*
X224354500Y-92108000D01*
G36*
X224354500Y-88308000D02*
G01*
X223114500Y-88308000D01*
X223114500Y-87608000D01*
X224354500Y-87608000D01*
X224354500Y-88308000D01*
G37*
X224354500Y-88308000D02*
X223114500Y-88308000D01*
X223114500Y-87608000D01*
X224354500Y-87608000D01*
X224354500Y-88308000D01*
G36*
X228910500Y-94984000D02*
G01*
X228936500Y-94986000D01*
X228962500Y-94989000D01*
X228988500Y-94994000D01*
X229013500Y-95000000D01*
X229039500Y-95007000D01*
X229063500Y-95016000D01*
X229087500Y-95026000D01*
X229111500Y-95037000D01*
X229134500Y-95050000D01*
X229178500Y-95078000D01*
X229199500Y-95094000D01*
X229219500Y-95111000D01*
X229238500Y-95129000D01*
X229256500Y-95148000D01*
X229273500Y-95168000D01*
X229289500Y-95189000D01*
X229317500Y-95233000D01*
X229330500Y-95256000D01*
X229341500Y-95280000D01*
X229351500Y-95304000D01*
X229360500Y-95328000D01*
X229367500Y-95354000D01*
X229373500Y-95379000D01*
X229378500Y-95405000D01*
X229381500Y-95431000D01*
X229383500Y-95457000D01*
X229384500Y-95483000D01*
X229383500Y-95509000D01*
X229381500Y-95535000D01*
X229378500Y-95561000D01*
X229373500Y-95587000D01*
X229367500Y-95612000D01*
X229360500Y-95638000D01*
X229351500Y-95662000D01*
X229341500Y-95686000D01*
X229330500Y-95710000D01*
X229317500Y-95733000D01*
X229289500Y-95777000D01*
X229273500Y-95798000D01*
X229256500Y-95818000D01*
X229238500Y-95837000D01*
X229219500Y-95855000D01*
X229199500Y-95872000D01*
X229178500Y-95888000D01*
X229134500Y-95916000D01*
X229111500Y-95929000D01*
X229087500Y-95940000D01*
X229063500Y-95950000D01*
X229039500Y-95959000D01*
X229013500Y-95966000D01*
X228988500Y-95972000D01*
X228962500Y-95977000D01*
X228936500Y-95980000D01*
X228910500Y-95982000D01*
X228884500Y-95983000D01*
X228084500Y-95983000D01*
X228058500Y-95982000D01*
X228032500Y-95980000D01*
X228006500Y-95977000D01*
X227980500Y-95972000D01*
X227955500Y-95966000D01*
X227929500Y-95959000D01*
X227905500Y-95950000D01*
X227881500Y-95940000D01*
X227857500Y-95929000D01*
X227834500Y-95916000D01*
X227790500Y-95888000D01*
X227769500Y-95872000D01*
X227749500Y-95855000D01*
X227730500Y-95837000D01*
X227712500Y-95818000D01*
X227695500Y-95798000D01*
X227679500Y-95777000D01*
X227651500Y-95733000D01*
X227638500Y-95710000D01*
X227627500Y-95686000D01*
X227617500Y-95662000D01*
X227608500Y-95638000D01*
X227601500Y-95612000D01*
X227595500Y-95587000D01*
X227590500Y-95561000D01*
X227587500Y-95535000D01*
X227585500Y-95509000D01*
X227584500Y-95483000D01*
X227585500Y-95457000D01*
X227587500Y-95431000D01*
X227590500Y-95405000D01*
X227595500Y-95379000D01*
X227601500Y-95354000D01*
X227608500Y-95328000D01*
X227617500Y-95304000D01*
X227627500Y-95280000D01*
X227638500Y-95256000D01*
X227651500Y-95233000D01*
X227679500Y-95189000D01*
X227695500Y-95168000D01*
X227712500Y-95148000D01*
X227730500Y-95129000D01*
X227749500Y-95111000D01*
X227769500Y-95094000D01*
X227790500Y-95078000D01*
X227834500Y-95050000D01*
X227857500Y-95037000D01*
X227881500Y-95026000D01*
X227905500Y-95016000D01*
X227929500Y-95007000D01*
X227955500Y-95000000D01*
X227980500Y-94994000D01*
X228006500Y-94989000D01*
X228032500Y-94986000D01*
X228058500Y-94984000D01*
X228084500Y-94983000D01*
X228884500Y-94983000D01*
X228910500Y-94984000D01*
G37*
X228910500Y-94984000D02*
X228936500Y-94986000D01*
X228962500Y-94989000D01*
X228988500Y-94994000D01*
X229013500Y-95000000D01*
X229039500Y-95007000D01*
X229063500Y-95016000D01*
X229087500Y-95026000D01*
X229111500Y-95037000D01*
X229134500Y-95050000D01*
X229178500Y-95078000D01*
X229199500Y-95094000D01*
X229219500Y-95111000D01*
X229238500Y-95129000D01*
X229256500Y-95148000D01*
X229273500Y-95168000D01*
X229289500Y-95189000D01*
X229317500Y-95233000D01*
X229330500Y-95256000D01*
X229341500Y-95280000D01*
X229351500Y-95304000D01*
X229360500Y-95328000D01*
X229367500Y-95354000D01*
X229373500Y-95379000D01*
X229378500Y-95405000D01*
X229381500Y-95431000D01*
X229383500Y-95457000D01*
X229384500Y-95483000D01*
X229383500Y-95509000D01*
X229381500Y-95535000D01*
X229378500Y-95561000D01*
X229373500Y-95587000D01*
X229367500Y-95612000D01*
X229360500Y-95638000D01*
X229351500Y-95662000D01*
X229341500Y-95686000D01*
X229330500Y-95710000D01*
X229317500Y-95733000D01*
X229289500Y-95777000D01*
X229273500Y-95798000D01*
X229256500Y-95818000D01*
X229238500Y-95837000D01*
X229219500Y-95855000D01*
X229199500Y-95872000D01*
X229178500Y-95888000D01*
X229134500Y-95916000D01*
X229111500Y-95929000D01*
X229087500Y-95940000D01*
X229063500Y-95950000D01*
X229039500Y-95959000D01*
X229013500Y-95966000D01*
X228988500Y-95972000D01*
X228962500Y-95977000D01*
X228936500Y-95980000D01*
X228910500Y-95982000D01*
X228884500Y-95983000D01*
X228084500Y-95983000D01*
X228058500Y-95982000D01*
X228032500Y-95980000D01*
X228006500Y-95977000D01*
X227980500Y-95972000D01*
X227955500Y-95966000D01*
X227929500Y-95959000D01*
X227905500Y-95950000D01*
X227881500Y-95940000D01*
X227857500Y-95929000D01*
X227834500Y-95916000D01*
X227790500Y-95888000D01*
X227769500Y-95872000D01*
X227749500Y-95855000D01*
X227730500Y-95837000D01*
X227712500Y-95818000D01*
X227695500Y-95798000D01*
X227679500Y-95777000D01*
X227651500Y-95733000D01*
X227638500Y-95710000D01*
X227627500Y-95686000D01*
X227617500Y-95662000D01*
X227608500Y-95638000D01*
X227601500Y-95612000D01*
X227595500Y-95587000D01*
X227590500Y-95561000D01*
X227587500Y-95535000D01*
X227585500Y-95509000D01*
X227584500Y-95483000D01*
X227585500Y-95457000D01*
X227587500Y-95431000D01*
X227590500Y-95405000D01*
X227595500Y-95379000D01*
X227601500Y-95354000D01*
X227608500Y-95328000D01*
X227617500Y-95304000D01*
X227627500Y-95280000D01*
X227638500Y-95256000D01*
X227651500Y-95233000D01*
X227679500Y-95189000D01*
X227695500Y-95168000D01*
X227712500Y-95148000D01*
X227730500Y-95129000D01*
X227749500Y-95111000D01*
X227769500Y-95094000D01*
X227790500Y-95078000D01*
X227834500Y-95050000D01*
X227857500Y-95037000D01*
X227881500Y-95026000D01*
X227905500Y-95016000D01*
X227929500Y-95007000D01*
X227955500Y-95000000D01*
X227980500Y-94994000D01*
X228006500Y-94989000D01*
X228032500Y-94986000D01*
X228058500Y-94984000D01*
X228084500Y-94983000D01*
X228884500Y-94983000D01*
X228910500Y-94984000D01*
G36*
X224354500Y-90608000D02*
G01*
X223114500Y-90608000D01*
X223114500Y-90208000D01*
X224354500Y-90208000D01*
X224354500Y-90608000D01*
G37*
X224354500Y-90608000D02*
X223114500Y-90608000D01*
X223114500Y-90208000D01*
X224354500Y-90208000D01*
X224354500Y-90608000D01*
G36*
X224354500Y-89608000D02*
G01*
X223114500Y-89608000D01*
X223114500Y-89208000D01*
X224354500Y-89208000D01*
X224354500Y-89608000D01*
G37*
X224354500Y-89608000D02*
X223114500Y-89608000D01*
X223114500Y-89208000D01*
X224354500Y-89208000D01*
X224354500Y-89608000D01*
G36*
X224890500Y-94984000D02*
G01*
X224916500Y-94986000D01*
X224942500Y-94989000D01*
X224968500Y-94994000D01*
X224993500Y-95000000D01*
X225019500Y-95007000D01*
X225043500Y-95016000D01*
X225067500Y-95026000D01*
X225091500Y-95037000D01*
X225114500Y-95050000D01*
X225158500Y-95078000D01*
X225179500Y-95094000D01*
X225199500Y-95111000D01*
X225218500Y-95129000D01*
X225236500Y-95148000D01*
X225253500Y-95168000D01*
X225269500Y-95189000D01*
X225297500Y-95233000D01*
X225310500Y-95256000D01*
X225321500Y-95280000D01*
X225331500Y-95304000D01*
X225340500Y-95328000D01*
X225347500Y-95354000D01*
X225353500Y-95379000D01*
X225358500Y-95405000D01*
X225361500Y-95431000D01*
X225363500Y-95457000D01*
X225364500Y-95483000D01*
X225363500Y-95509000D01*
X225361500Y-95535000D01*
X225358500Y-95561000D01*
X225353500Y-95587000D01*
X225347500Y-95612000D01*
X225340500Y-95638000D01*
X225331500Y-95662000D01*
X225321500Y-95686000D01*
X225310500Y-95710000D01*
X225297500Y-95733000D01*
X225269500Y-95777000D01*
X225253500Y-95798000D01*
X225236500Y-95818000D01*
X225218500Y-95837000D01*
X225199500Y-95855000D01*
X225179500Y-95872000D01*
X225158500Y-95888000D01*
X225114500Y-95916000D01*
X225091500Y-95929000D01*
X225067500Y-95940000D01*
X225043500Y-95950000D01*
X225019500Y-95959000D01*
X224993500Y-95966000D01*
X224968500Y-95972000D01*
X224942500Y-95977000D01*
X224916500Y-95980000D01*
X224890500Y-95982000D01*
X224864500Y-95983000D01*
X223764500Y-95983000D01*
X223738500Y-95982000D01*
X223712500Y-95980000D01*
X223686500Y-95977000D01*
X223660500Y-95972000D01*
X223635500Y-95966000D01*
X223609500Y-95959000D01*
X223585500Y-95950000D01*
X223561500Y-95940000D01*
X223537500Y-95929000D01*
X223514500Y-95916000D01*
X223470500Y-95888000D01*
X223449500Y-95872000D01*
X223429500Y-95855000D01*
X223410500Y-95837000D01*
X223392500Y-95818000D01*
X223375500Y-95798000D01*
X223359500Y-95777000D01*
X223331500Y-95733000D01*
X223318500Y-95710000D01*
X223307500Y-95686000D01*
X223297500Y-95662000D01*
X223288500Y-95638000D01*
X223281500Y-95612000D01*
X223275500Y-95587000D01*
X223270500Y-95561000D01*
X223267500Y-95535000D01*
X223265500Y-95509000D01*
X223264500Y-95483000D01*
X223265500Y-95457000D01*
X223267500Y-95431000D01*
X223270500Y-95405000D01*
X223275500Y-95379000D01*
X223281500Y-95354000D01*
X223288500Y-95328000D01*
X223297500Y-95304000D01*
X223307500Y-95280000D01*
X223318500Y-95256000D01*
X223331500Y-95233000D01*
X223359500Y-95189000D01*
X223375500Y-95168000D01*
X223392500Y-95148000D01*
X223410500Y-95129000D01*
X223429500Y-95111000D01*
X223449500Y-95094000D01*
X223470500Y-95078000D01*
X223514500Y-95050000D01*
X223537500Y-95037000D01*
X223561500Y-95026000D01*
X223585500Y-95016000D01*
X223609500Y-95007000D01*
X223635500Y-95000000D01*
X223660500Y-94994000D01*
X223686500Y-94989000D01*
X223712500Y-94986000D01*
X223738500Y-94984000D01*
X223764500Y-94983000D01*
X224864500Y-94983000D01*
X224890500Y-94984000D01*
G37*
X224890500Y-94984000D02*
X224916500Y-94986000D01*
X224942500Y-94989000D01*
X224968500Y-94994000D01*
X224993500Y-95000000D01*
X225019500Y-95007000D01*
X225043500Y-95016000D01*
X225067500Y-95026000D01*
X225091500Y-95037000D01*
X225114500Y-95050000D01*
X225158500Y-95078000D01*
X225179500Y-95094000D01*
X225199500Y-95111000D01*
X225218500Y-95129000D01*
X225236500Y-95148000D01*
X225253500Y-95168000D01*
X225269500Y-95189000D01*
X225297500Y-95233000D01*
X225310500Y-95256000D01*
X225321500Y-95280000D01*
X225331500Y-95304000D01*
X225340500Y-95328000D01*
X225347500Y-95354000D01*
X225353500Y-95379000D01*
X225358500Y-95405000D01*
X225361500Y-95431000D01*
X225363500Y-95457000D01*
X225364500Y-95483000D01*
X225363500Y-95509000D01*
X225361500Y-95535000D01*
X225358500Y-95561000D01*
X225353500Y-95587000D01*
X225347500Y-95612000D01*
X225340500Y-95638000D01*
X225331500Y-95662000D01*
X225321500Y-95686000D01*
X225310500Y-95710000D01*
X225297500Y-95733000D01*
X225269500Y-95777000D01*
X225253500Y-95798000D01*
X225236500Y-95818000D01*
X225218500Y-95837000D01*
X225199500Y-95855000D01*
X225179500Y-95872000D01*
X225158500Y-95888000D01*
X225114500Y-95916000D01*
X225091500Y-95929000D01*
X225067500Y-95940000D01*
X225043500Y-95950000D01*
X225019500Y-95959000D01*
X224993500Y-95966000D01*
X224968500Y-95972000D01*
X224942500Y-95977000D01*
X224916500Y-95980000D01*
X224890500Y-95982000D01*
X224864500Y-95983000D01*
X223764500Y-95983000D01*
X223738500Y-95982000D01*
X223712500Y-95980000D01*
X223686500Y-95977000D01*
X223660500Y-95972000D01*
X223635500Y-95966000D01*
X223609500Y-95959000D01*
X223585500Y-95950000D01*
X223561500Y-95940000D01*
X223537500Y-95929000D01*
X223514500Y-95916000D01*
X223470500Y-95888000D01*
X223449500Y-95872000D01*
X223429500Y-95855000D01*
X223410500Y-95837000D01*
X223392500Y-95818000D01*
X223375500Y-95798000D01*
X223359500Y-95777000D01*
X223331500Y-95733000D01*
X223318500Y-95710000D01*
X223307500Y-95686000D01*
X223297500Y-95662000D01*
X223288500Y-95638000D01*
X223281500Y-95612000D01*
X223275500Y-95587000D01*
X223270500Y-95561000D01*
X223267500Y-95535000D01*
X223265500Y-95509000D01*
X223264500Y-95483000D01*
X223265500Y-95457000D01*
X223267500Y-95431000D01*
X223270500Y-95405000D01*
X223275500Y-95379000D01*
X223281500Y-95354000D01*
X223288500Y-95328000D01*
X223297500Y-95304000D01*
X223307500Y-95280000D01*
X223318500Y-95256000D01*
X223331500Y-95233000D01*
X223359500Y-95189000D01*
X223375500Y-95168000D01*
X223392500Y-95148000D01*
X223410500Y-95129000D01*
X223429500Y-95111000D01*
X223449500Y-95094000D01*
X223470500Y-95078000D01*
X223514500Y-95050000D01*
X223537500Y-95037000D01*
X223561500Y-95026000D01*
X223585500Y-95016000D01*
X223609500Y-95007000D01*
X223635500Y-95000000D01*
X223660500Y-94994000D01*
X223686500Y-94989000D01*
X223712500Y-94986000D01*
X223738500Y-94984000D01*
X223764500Y-94983000D01*
X224864500Y-94983000D01*
X224890500Y-94984000D01*
G36*
X224354500Y-91108000D02*
G01*
X223114500Y-91108000D01*
X223114500Y-90708000D01*
X224354500Y-90708000D01*
X224354500Y-91108000D01*
G37*
X224354500Y-91108000D02*
X223114500Y-91108000D01*
X223114500Y-90708000D01*
X224354500Y-90708000D01*
X224354500Y-91108000D01*
G36*
X224354500Y-89108000D02*
G01*
X223114500Y-89108000D01*
X223114500Y-88408000D01*
X224354500Y-88408000D01*
X224354500Y-89108000D01*
G37*
X224354500Y-89108000D02*
X223114500Y-89108000D01*
X223114500Y-88408000D01*
X224354500Y-88408000D01*
X224354500Y-89108000D01*
G36*
X224354500Y-94708000D02*
G01*
X223114500Y-94708000D01*
X223114500Y-94008000D01*
X224354500Y-94008000D01*
X224354500Y-94708000D01*
G37*
X224354500Y-94708000D02*
X223114500Y-94708000D01*
X223114500Y-94008000D01*
X224354500Y-94008000D01*
X224354500Y-94708000D01*
G36*
X224354500Y-91608000D02*
G01*
X223114500Y-91608000D01*
X223114500Y-91208000D01*
X224354500Y-91208000D01*
X224354500Y-91608000D01*
G37*
X224354500Y-91608000D02*
X223114500Y-91608000D01*
X223114500Y-91208000D01*
X224354500Y-91208000D01*
X224354500Y-91608000D01*
G36*
X224354500Y-93108000D02*
G01*
X223114500Y-93108000D01*
X223114500Y-92708000D01*
X224354500Y-92708000D01*
X224354500Y-93108000D01*
G37*
X224354500Y-93108000D02*
X223114500Y-93108000D01*
X223114500Y-92708000D01*
X224354500Y-92708000D01*
X224354500Y-93108000D01*
G36*
X224890500Y-86334000D02*
G01*
X224916500Y-86336000D01*
X224942500Y-86339000D01*
X224968500Y-86344000D01*
X224993500Y-86350000D01*
X225019500Y-86357000D01*
X225043500Y-86366000D01*
X225067500Y-86376000D01*
X225091500Y-86387000D01*
X225114500Y-86400000D01*
X225158500Y-86428000D01*
X225179500Y-86444000D01*
X225199500Y-86461000D01*
X225218500Y-86479000D01*
X225236500Y-86498000D01*
X225253500Y-86518000D01*
X225269500Y-86539000D01*
X225297500Y-86583000D01*
X225310500Y-86606000D01*
X225321500Y-86630000D01*
X225331500Y-86654000D01*
X225340500Y-86678000D01*
X225347500Y-86704000D01*
X225353500Y-86729000D01*
X225358500Y-86755000D01*
X225361500Y-86781000D01*
X225363500Y-86807000D01*
X225364500Y-86833000D01*
X225363500Y-86863000D01*
X225360500Y-86890000D01*
X225356500Y-86916000D01*
X225351500Y-86942000D01*
X225337500Y-86992000D01*
X225327500Y-87017000D01*
X225317500Y-87041000D01*
X225305500Y-87065000D01*
X225292500Y-87088000D01*
X225278500Y-87110000D01*
X225262500Y-87132000D01*
X225246500Y-87153000D01*
X225210500Y-87191000D01*
X225190500Y-87209000D01*
X225170500Y-87226000D01*
X225149500Y-87242000D01*
X225127500Y-87256000D01*
X225104500Y-87270000D01*
X225080500Y-87282000D01*
X225056500Y-87293000D01*
X225032500Y-87303000D01*
X225007500Y-87311000D01*
X224981500Y-87318000D01*
X224955500Y-87324000D01*
X224929500Y-87328000D01*
X224903500Y-87331000D01*
X224877500Y-87333000D01*
X223754500Y-87333000D01*
X223724500Y-87332000D01*
X223699500Y-87329000D01*
X223673500Y-87326000D01*
X223623500Y-87314000D01*
X223598500Y-87306000D01*
X223574500Y-87297000D01*
X223550500Y-87287000D01*
X223527500Y-87275000D01*
X223504500Y-87262000D01*
X223482500Y-87248000D01*
X223461500Y-87233000D01*
X223441500Y-87217000D01*
X223421500Y-87200000D01*
X223403500Y-87182000D01*
X223385500Y-87163000D01*
X223369500Y-87143000D01*
X223353500Y-87122000D01*
X223339500Y-87100000D01*
X223326500Y-87078000D01*
X223314500Y-87055000D01*
X223303500Y-87031000D01*
X223294500Y-87007000D01*
X223286500Y-86983000D01*
X223279500Y-86958000D01*
X223273500Y-86932000D01*
X223269500Y-86907000D01*
X223266500Y-86881000D01*
X223264500Y-86855000D01*
X223264500Y-86833000D01*
X223265500Y-86807000D01*
X223267500Y-86781000D01*
X223270500Y-86755000D01*
X223275500Y-86729000D01*
X223281500Y-86704000D01*
X223288500Y-86678000D01*
X223297500Y-86654000D01*
X223307500Y-86630000D01*
X223318500Y-86606000D01*
X223331500Y-86583000D01*
X223359500Y-86539000D01*
X223375500Y-86518000D01*
X223392500Y-86498000D01*
X223410500Y-86479000D01*
X223429500Y-86461000D01*
X223449500Y-86444000D01*
X223470500Y-86428000D01*
X223514500Y-86400000D01*
X223537500Y-86387000D01*
X223561500Y-86376000D01*
X223585500Y-86366000D01*
X223609500Y-86357000D01*
X223635500Y-86350000D01*
X223660500Y-86344000D01*
X223686500Y-86339000D01*
X223712500Y-86336000D01*
X223738500Y-86334000D01*
X223764500Y-86333000D01*
X224864500Y-86333000D01*
X224890500Y-86334000D01*
G37*
X224890500Y-86334000D02*
X224916500Y-86336000D01*
X224942500Y-86339000D01*
X224968500Y-86344000D01*
X224993500Y-86350000D01*
X225019500Y-86357000D01*
X225043500Y-86366000D01*
X225067500Y-86376000D01*
X225091500Y-86387000D01*
X225114500Y-86400000D01*
X225158500Y-86428000D01*
X225179500Y-86444000D01*
X225199500Y-86461000D01*
X225218500Y-86479000D01*
X225236500Y-86498000D01*
X225253500Y-86518000D01*
X225269500Y-86539000D01*
X225297500Y-86583000D01*
X225310500Y-86606000D01*
X225321500Y-86630000D01*
X225331500Y-86654000D01*
X225340500Y-86678000D01*
X225347500Y-86704000D01*
X225353500Y-86729000D01*
X225358500Y-86755000D01*
X225361500Y-86781000D01*
X225363500Y-86807000D01*
X225364500Y-86833000D01*
X225363500Y-86863000D01*
X225360500Y-86890000D01*
X225356500Y-86916000D01*
X225351500Y-86942000D01*
X225337500Y-86992000D01*
X225327500Y-87017000D01*
X225317500Y-87041000D01*
X225305500Y-87065000D01*
X225292500Y-87088000D01*
X225278500Y-87110000D01*
X225262500Y-87132000D01*
X225246500Y-87153000D01*
X225210500Y-87191000D01*
X225190500Y-87209000D01*
X225170500Y-87226000D01*
X225149500Y-87242000D01*
X225127500Y-87256000D01*
X225104500Y-87270000D01*
X225080500Y-87282000D01*
X225056500Y-87293000D01*
X225032500Y-87303000D01*
X225007500Y-87311000D01*
X224981500Y-87318000D01*
X224955500Y-87324000D01*
X224929500Y-87328000D01*
X224903500Y-87331000D01*
X224877500Y-87333000D01*
X223754500Y-87333000D01*
X223724500Y-87332000D01*
X223699500Y-87329000D01*
X223673500Y-87326000D01*
X223623500Y-87314000D01*
X223598500Y-87306000D01*
X223574500Y-87297000D01*
X223550500Y-87287000D01*
X223527500Y-87275000D01*
X223504500Y-87262000D01*
X223482500Y-87248000D01*
X223461500Y-87233000D01*
X223441500Y-87217000D01*
X223421500Y-87200000D01*
X223403500Y-87182000D01*
X223385500Y-87163000D01*
X223369500Y-87143000D01*
X223353500Y-87122000D01*
X223339500Y-87100000D01*
X223326500Y-87078000D01*
X223314500Y-87055000D01*
X223303500Y-87031000D01*
X223294500Y-87007000D01*
X223286500Y-86983000D01*
X223279500Y-86958000D01*
X223273500Y-86932000D01*
X223269500Y-86907000D01*
X223266500Y-86881000D01*
X223264500Y-86855000D01*
X223264500Y-86833000D01*
X223265500Y-86807000D01*
X223267500Y-86781000D01*
X223270500Y-86755000D01*
X223275500Y-86729000D01*
X223281500Y-86704000D01*
X223288500Y-86678000D01*
X223297500Y-86654000D01*
X223307500Y-86630000D01*
X223318500Y-86606000D01*
X223331500Y-86583000D01*
X223359500Y-86539000D01*
X223375500Y-86518000D01*
X223392500Y-86498000D01*
X223410500Y-86479000D01*
X223429500Y-86461000D01*
X223449500Y-86444000D01*
X223470500Y-86428000D01*
X223514500Y-86400000D01*
X223537500Y-86387000D01*
X223561500Y-86376000D01*
X223585500Y-86366000D01*
X223609500Y-86357000D01*
X223635500Y-86350000D01*
X223660500Y-86344000D01*
X223686500Y-86339000D01*
X223712500Y-86336000D01*
X223738500Y-86334000D01*
X223764500Y-86333000D01*
X224864500Y-86333000D01*
X224890500Y-86334000D01*
G36*
X224354500Y-92608000D02*
G01*
X223114500Y-92608000D01*
X223114500Y-92208000D01*
X224354500Y-92208000D01*
X224354500Y-92608000D01*
G37*
X224354500Y-92608000D02*
X223114500Y-92608000D01*
X223114500Y-92208000D01*
X224354500Y-92208000D01*
X224354500Y-92608000D01*
G36*
X228910500Y-86334000D02*
G01*
X228936500Y-86336000D01*
X228962500Y-86339000D01*
X228988500Y-86344000D01*
X229013500Y-86350000D01*
X229039500Y-86357000D01*
X229063500Y-86366000D01*
X229087500Y-86376000D01*
X229111500Y-86387000D01*
X229134500Y-86400000D01*
X229178500Y-86428000D01*
X229199500Y-86444000D01*
X229219500Y-86461000D01*
X229238500Y-86479000D01*
X229256500Y-86498000D01*
X229273500Y-86518000D01*
X229289500Y-86539000D01*
X229317500Y-86583000D01*
X229330500Y-86606000D01*
X229341500Y-86630000D01*
X229351500Y-86654000D01*
X229360500Y-86678000D01*
X229367500Y-86704000D01*
X229373500Y-86729000D01*
X229378500Y-86755000D01*
X229381500Y-86781000D01*
X229383500Y-86807000D01*
X229384500Y-86833000D01*
X229383500Y-86859000D01*
X229381500Y-86885000D01*
X229378500Y-86911000D01*
X229373500Y-86937000D01*
X229367500Y-86962000D01*
X229360500Y-86988000D01*
X229351500Y-87012000D01*
X229341500Y-87036000D01*
X229330500Y-87060000D01*
X229317500Y-87083000D01*
X229289500Y-87127000D01*
X229273500Y-87148000D01*
X229256500Y-87168000D01*
X229238500Y-87187000D01*
X229219500Y-87205000D01*
X229199500Y-87222000D01*
X229178500Y-87238000D01*
X229134500Y-87266000D01*
X229111500Y-87279000D01*
X229087500Y-87290000D01*
X229063500Y-87300000D01*
X229039500Y-87309000D01*
X229013500Y-87316000D01*
X228988500Y-87322000D01*
X228962500Y-87327000D01*
X228936500Y-87330000D01*
X228910500Y-87332000D01*
X228884500Y-87333000D01*
X228084500Y-87333000D01*
X228058500Y-87332000D01*
X228032500Y-87330000D01*
X228006500Y-87327000D01*
X227980500Y-87322000D01*
X227955500Y-87316000D01*
X227929500Y-87309000D01*
X227905500Y-87300000D01*
X227881500Y-87290000D01*
X227857500Y-87279000D01*
X227834500Y-87266000D01*
X227790500Y-87238000D01*
X227769500Y-87222000D01*
X227749500Y-87205000D01*
X227730500Y-87187000D01*
X227712500Y-87168000D01*
X227695500Y-87148000D01*
X227679500Y-87127000D01*
X227651500Y-87083000D01*
X227638500Y-87060000D01*
X227627500Y-87036000D01*
X227617500Y-87012000D01*
X227608500Y-86988000D01*
X227601500Y-86962000D01*
X227595500Y-86937000D01*
X227590500Y-86911000D01*
X227587500Y-86885000D01*
X227585500Y-86859000D01*
X227584500Y-86833000D01*
X227585500Y-86807000D01*
X227587500Y-86781000D01*
X227590500Y-86755000D01*
X227595500Y-86729000D01*
X227601500Y-86704000D01*
X227608500Y-86678000D01*
X227617500Y-86654000D01*
X227627500Y-86630000D01*
X227638500Y-86606000D01*
X227651500Y-86583000D01*
X227679500Y-86539000D01*
X227695500Y-86518000D01*
X227712500Y-86498000D01*
X227730500Y-86479000D01*
X227749500Y-86461000D01*
X227769500Y-86444000D01*
X227790500Y-86428000D01*
X227834500Y-86400000D01*
X227857500Y-86387000D01*
X227881500Y-86376000D01*
X227905500Y-86366000D01*
X227929500Y-86357000D01*
X227955500Y-86350000D01*
X227980500Y-86344000D01*
X228006500Y-86339000D01*
X228032500Y-86336000D01*
X228058500Y-86334000D01*
X228084500Y-86333000D01*
X228884500Y-86333000D01*
X228910500Y-86334000D01*
G37*
X228910500Y-86334000D02*
X228936500Y-86336000D01*
X228962500Y-86339000D01*
X228988500Y-86344000D01*
X229013500Y-86350000D01*
X229039500Y-86357000D01*
X229063500Y-86366000D01*
X229087500Y-86376000D01*
X229111500Y-86387000D01*
X229134500Y-86400000D01*
X229178500Y-86428000D01*
X229199500Y-86444000D01*
X229219500Y-86461000D01*
X229238500Y-86479000D01*
X229256500Y-86498000D01*
X229273500Y-86518000D01*
X229289500Y-86539000D01*
X229317500Y-86583000D01*
X229330500Y-86606000D01*
X229341500Y-86630000D01*
X229351500Y-86654000D01*
X229360500Y-86678000D01*
X229367500Y-86704000D01*
X229373500Y-86729000D01*
X229378500Y-86755000D01*
X229381500Y-86781000D01*
X229383500Y-86807000D01*
X229384500Y-86833000D01*
X229383500Y-86859000D01*
X229381500Y-86885000D01*
X229378500Y-86911000D01*
X229373500Y-86937000D01*
X229367500Y-86962000D01*
X229360500Y-86988000D01*
X229351500Y-87012000D01*
X229341500Y-87036000D01*
X229330500Y-87060000D01*
X229317500Y-87083000D01*
X229289500Y-87127000D01*
X229273500Y-87148000D01*
X229256500Y-87168000D01*
X229238500Y-87187000D01*
X229219500Y-87205000D01*
X229199500Y-87222000D01*
X229178500Y-87238000D01*
X229134500Y-87266000D01*
X229111500Y-87279000D01*
X229087500Y-87290000D01*
X229063500Y-87300000D01*
X229039500Y-87309000D01*
X229013500Y-87316000D01*
X228988500Y-87322000D01*
X228962500Y-87327000D01*
X228936500Y-87330000D01*
X228910500Y-87332000D01*
X228884500Y-87333000D01*
X228084500Y-87333000D01*
X228058500Y-87332000D01*
X228032500Y-87330000D01*
X228006500Y-87327000D01*
X227980500Y-87322000D01*
X227955500Y-87316000D01*
X227929500Y-87309000D01*
X227905500Y-87300000D01*
X227881500Y-87290000D01*
X227857500Y-87279000D01*
X227834500Y-87266000D01*
X227790500Y-87238000D01*
X227769500Y-87222000D01*
X227749500Y-87205000D01*
X227730500Y-87187000D01*
X227712500Y-87168000D01*
X227695500Y-87148000D01*
X227679500Y-87127000D01*
X227651500Y-87083000D01*
X227638500Y-87060000D01*
X227627500Y-87036000D01*
X227617500Y-87012000D01*
X227608500Y-86988000D01*
X227601500Y-86962000D01*
X227595500Y-86937000D01*
X227590500Y-86911000D01*
X227587500Y-86885000D01*
X227585500Y-86859000D01*
X227584500Y-86833000D01*
X227585500Y-86807000D01*
X227587500Y-86781000D01*
X227590500Y-86755000D01*
X227595500Y-86729000D01*
X227601500Y-86704000D01*
X227608500Y-86678000D01*
X227617500Y-86654000D01*
X227627500Y-86630000D01*
X227638500Y-86606000D01*
X227651500Y-86583000D01*
X227679500Y-86539000D01*
X227695500Y-86518000D01*
X227712500Y-86498000D01*
X227730500Y-86479000D01*
X227749500Y-86461000D01*
X227769500Y-86444000D01*
X227790500Y-86428000D01*
X227834500Y-86400000D01*
X227857500Y-86387000D01*
X227881500Y-86376000D01*
X227905500Y-86366000D01*
X227929500Y-86357000D01*
X227955500Y-86350000D01*
X227980500Y-86344000D01*
X228006500Y-86339000D01*
X228032500Y-86336000D01*
X228058500Y-86334000D01*
X228084500Y-86333000D01*
X228884500Y-86333000D01*
X228910500Y-86334000D01*
G36*
X224354500Y-93908000D02*
G01*
X223114500Y-93908000D01*
X223114500Y-93208000D01*
X224354500Y-93208000D01*
X224354500Y-93908000D01*
G37*
X224354500Y-93908000D02*
X223114500Y-93908000D01*
X223114500Y-93208000D01*
X224354500Y-93208000D01*
X224354500Y-93908000D01*
G36*
X224354500Y-90108000D02*
G01*
X223114500Y-90108000D01*
X223114500Y-89708000D01*
X224354500Y-89708000D01*
X224354500Y-90108000D01*
G37*
X224354500Y-90108000D02*
X223114500Y-90108000D01*
X223114500Y-89708000D01*
X224354500Y-89708000D01*
X224354500Y-90108000D01*
%TD*%
D11*
%TO.C,C18*%
X206822000Y-96504000D03*
X206822000Y-97464000D03*
%TD*%
D12*
%TO.C,P1*%
X179072000Y-91059000D03*
D13*
X176532000Y-93599000D03*
X176532000Y-88519000D03*
X181612000Y-88519000D03*
X181612000Y-93599000D03*
%TD*%
D14*
%TO.C,U2*%
X221468000Y-101326000D03*
D15*
X221768000Y-100826000D03*
X221768000Y-100326000D03*
X221768000Y-99826000D03*
X221768000Y-99326000D03*
D14*
X221468000Y-98826000D03*
D16*
X220968000Y-98526000D03*
X220468000Y-98526000D03*
X219968000Y-98526000D03*
X219468000Y-98526000D03*
D14*
X218968000Y-98826000D03*
D17*
X218668000Y-99326000D03*
X218668000Y-99826000D03*
X218668000Y-100326000D03*
X218668000Y-100826000D03*
D14*
X218968000Y-101326000D03*
D18*
X219468000Y-101626000D03*
X219968000Y-101626000D03*
X220468000Y-101626000D03*
X220968000Y-101626000D03*
D19*
X220218000Y-100076000D03*
%TD*%
D20*
%TO.C,C26*%
X198272000Y-89214000D03*
X198272000Y-88254000D03*
%TD*%
D21*
%TO.C,U1*%
X212208500Y-76752000D03*
X212208500Y-77252000D03*
X212208500Y-77752000D03*
X212208500Y-78252000D03*
X212208500Y-78752000D03*
X212208500Y-79252000D03*
X212208500Y-79752000D03*
X212208500Y-80252000D03*
X212208500Y-80752000D03*
X212208500Y-81252000D03*
X212208500Y-81752000D03*
X212208500Y-82252000D03*
D22*
X212896000Y-82939500D03*
X213396000Y-82939500D03*
X213896000Y-82939500D03*
X214396000Y-82939500D03*
X214896000Y-82939500D03*
X215396000Y-82939500D03*
X215896000Y-82939500D03*
X216396000Y-82939500D03*
X216896000Y-82939500D03*
X217396000Y-82939500D03*
X217896000Y-82939500D03*
X218396000Y-82939500D03*
D21*
X219083500Y-82252000D03*
X219083500Y-81752000D03*
X219083500Y-81252000D03*
X219083500Y-80752000D03*
X219083500Y-80252000D03*
X219083500Y-79752000D03*
X219083500Y-79252000D03*
X219083500Y-78752000D03*
X219083500Y-78252000D03*
X219083500Y-77752000D03*
X219083500Y-77252000D03*
X219083500Y-76752000D03*
D22*
X218396000Y-76064500D03*
X217896000Y-76064500D03*
X217396000Y-76064500D03*
X216896000Y-76064500D03*
X216396000Y-76064500D03*
X215896000Y-76064500D03*
X215396000Y-76064500D03*
X214896000Y-76064500D03*
X214396000Y-76064500D03*
X213896000Y-76064500D03*
X213396000Y-76064500D03*
X212896000Y-76064500D03*
D23*
X215646000Y-79502000D03*
%TD*%
D24*
%TO.C,D4*%
X226083000Y-100838000D03*
X227053000Y-100838000D03*
%TD*%
D20*
%TO.C,C29*%
X199597000Y-99314000D03*
X199597000Y-98354000D03*
%TD*%
D25*
%TO.C,C32*%
X191717000Y-95384000D03*
X192677000Y-95384000D03*
%TD*%
D20*
%TO.C,C22*%
X197072000Y-87139000D03*
X197072000Y-86179000D03*
%TD*%
D25*
%TO.C,C6*%
X205260000Y-81788000D03*
X206220000Y-81788000D03*
%TD*%
D24*
%TO.C,D2*%
X228242000Y-84328000D03*
X229212000Y-84328000D03*
%TD*%
D11*
%TO.C,C21*%
X198247000Y-95954000D03*
X198247000Y-96914000D03*
%TD*%
%TO.C,C9*%
X216916000Y-84130000D03*
X216916000Y-85090000D03*
%TD*%
D26*
%TO.C,L5*%
X193477000Y-90109000D03*
X192517000Y-90109000D03*
%TD*%
D20*
%TO.C,C19*%
X200697000Y-89614000D03*
X200697000Y-88654000D03*
%TD*%
D27*
%TO.C,H4*%
X178816000Y-110617000D03*
%TD*%
%TO.C,H1*%
X225552000Y-110744000D03*
%TD*%
D28*
%TO.C,R12*%
X219204000Y-96901000D03*
X218184000Y-96901000D03*
%TD*%
D20*
%TO.C,C23*%
X200672000Y-99339000D03*
X200672000Y-98379000D03*
%TD*%
D24*
%TO.C,D5*%
X226083000Y-102616000D03*
X227053000Y-102616000D03*
%TD*%
D20*
%TO.C,C7*%
X210820000Y-76934000D03*
X210820000Y-75974000D03*
%TD*%
D11*
%TO.C,L7*%
X190072000Y-90079000D03*
X190072000Y-91039000D03*
%TD*%
D28*
%TO.C,R6*%
X226570000Y-84328000D03*
X225550000Y-84328000D03*
%TD*%
D11*
%TO.C,C8*%
X220599000Y-76228000D03*
X220599000Y-77188000D03*
%TD*%
D25*
%TO.C,C15*%
X207417000Y-93609000D03*
X208377000Y-93609000D03*
%TD*%
D29*
%TO.C,FB1*%
X209804000Y-82778500D03*
X209804000Y-84353500D03*
%TD*%
D25*
%TO.C,C5*%
X212118000Y-74676000D03*
X213078000Y-74676000D03*
%TD*%
D11*
%TO.C,C24*%
X197097000Y-95954000D03*
X197097000Y-96914000D03*
%TD*%
%TO.C,L2*%
X194122000Y-93904000D03*
X194122000Y-94864000D03*
%TD*%
D30*
%TO.C,U3*%
X205009500Y-95984000D03*
X205009500Y-95484000D03*
X205009500Y-94984000D03*
X205009500Y-94484000D03*
X205009500Y-93984000D03*
X205009500Y-93484000D03*
X205009500Y-92984000D03*
X205009500Y-92484000D03*
D31*
X204322000Y-91796500D03*
X203822000Y-91796500D03*
X203322000Y-91796500D03*
X202822000Y-91796500D03*
X202322000Y-91796500D03*
X201822000Y-91796500D03*
X201322000Y-91796500D03*
X200822000Y-91796500D03*
D30*
X200134500Y-92484000D03*
X200134500Y-92984000D03*
X200134500Y-93484000D03*
X200134500Y-93984000D03*
X200134500Y-94484000D03*
X200134500Y-94984000D03*
X200134500Y-95484000D03*
X200134500Y-95984000D03*
D31*
X200822000Y-96671500D03*
X201322000Y-96671500D03*
X201822000Y-96671500D03*
X202322000Y-96671500D03*
X202822000Y-96671500D03*
X203322000Y-96671500D03*
X203822000Y-96671500D03*
X204322000Y-96671500D03*
D32*
X202572000Y-94234000D03*
%TD*%
D28*
%TO.C,R10*%
X229364000Y-100838000D03*
X228344000Y-100838000D03*
%TD*%
D24*
%TO.C,D3*%
X228242000Y-81788000D03*
X229212000Y-81788000D03*
%TD*%
D33*
%TO.C,R4*%
X221232000Y-89916000D03*
X222252000Y-89916000D03*
%TD*%
D25*
%TO.C,L6*%
X189417000Y-92784000D03*
X190377000Y-92784000D03*
%TD*%
D20*
%TO.C,C25*%
X202822000Y-99364000D03*
X202822000Y-98404000D03*
%TD*%
D34*
%TO.C,EX1*%
X202443000Y-69088000D03*
D35*
X199903000Y-69088000D03*
X197363000Y-69088000D03*
X194823000Y-69088000D03*
X192283000Y-69088000D03*
X189743000Y-69088000D03*
X187203000Y-69088000D03*
%TD*%
D36*
%TO.C,Y1*%
X206586000Y-78652000D03*
X204386000Y-78652000D03*
X204386000Y-80352000D03*
X206586000Y-80352000D03*
%TD*%
D26*
%TO.C,C31*%
X203797000Y-100934000D03*
X202837000Y-100934000D03*
%TD*%
D25*
%TO.C,C34*%
X192517000Y-88959000D03*
X193477000Y-88959000D03*
%TD*%
D20*
%TO.C,C11*%
X209550000Y-81506000D03*
X209550000Y-80546000D03*
%TD*%
D11*
%TO.C,C36*%
X209072000Y-97829000D03*
X209072000Y-98789000D03*
%TD*%
D20*
%TO.C,C28*%
X201747000Y-99364000D03*
X201747000Y-98404000D03*
%TD*%
D28*
%TO.C,R11*%
X229364000Y-102616000D03*
X228344000Y-102616000D03*
%TD*%
D37*
%TO.C,X1*%
X206972000Y-102209000D03*
X209072000Y-102209000D03*
X209072000Y-100559000D03*
X206972000Y-100559000D03*
%TD*%
D26*
%TO.C,C4*%
X219174000Y-84201000D03*
X218214000Y-84201000D03*
%TD*%
D20*
%TO.C,C17*%
X202947000Y-89614000D03*
X202947000Y-88654000D03*
%TD*%
D33*
%TO.C,R5*%
X228344000Y-99060000D03*
X229364000Y-99060000D03*
%TD*%
D25*
%TO.C,C16*%
X207417000Y-92384000D03*
X208377000Y-92384000D03*
%TD*%
D34*
%TO.C,SWD1*%
X219202000Y-69088000D03*
D35*
X216662000Y-69088000D03*
X214122000Y-69088000D03*
X211582000Y-69088000D03*
X209042000Y-69088000D03*
X206502000Y-69088000D03*
%TD*%
D33*
%TO.C,R3*%
X221232000Y-92710000D03*
X222252000Y-92710000D03*
%TD*%
D20*
%TO.C,R9*%
X197097000Y-89214000D03*
X197097000Y-88254000D03*
%TD*%
D28*
%TO.C,R7*%
X226570000Y-81788000D03*
X225550000Y-81788000D03*
%TD*%
D25*
%TO.C,C33*%
X191642000Y-92834000D03*
X192602000Y-92834000D03*
%TD*%
D20*
%TO.C,L3*%
X189072000Y-95264000D03*
X189072000Y-94304000D03*
%TD*%
%TO.C,C37*%
X188697000Y-88664000D03*
X188697000Y-87704000D03*
%TD*%
D25*
%TO.C,C13*%
X221770000Y-97282000D03*
X222730000Y-97282000D03*
%TD*%
D27*
%TO.C,H2*%
X178816000Y-71120000D03*
%TD*%
D26*
%TO.C,L4*%
X192652000Y-94109000D03*
X191692000Y-94109000D03*
%TD*%
D20*
%TO.C,C10*%
X210566000Y-81506000D03*
X210566000Y-80546000D03*
%TD*%
D25*
%TO.C,C30*%
X196742000Y-92309000D03*
X197702000Y-92309000D03*
%TD*%
D27*
%TO.C,H3*%
X225552000Y-71120000D03*
%TD*%
D38*
%TO.C,D1*%
X227053000Y-99060000D03*
X226083000Y-99060000D03*
%TD*%
D20*
%TO.C,C35*%
X191297000Y-91064000D03*
X191297000Y-90104000D03*
%TD*%
D26*
%TO.C,L8*%
X188702000Y-91034000D03*
X187742000Y-91034000D03*
%TD*%
%TO.C,C3*%
X205966000Y-77216000D03*
X205006000Y-77216000D03*
%TD*%
D25*
%TO.C,C12*%
X211102000Y-84582000D03*
X212062000Y-84582000D03*
%TD*%
D20*
%TO.C,C20*%
X195947000Y-96914000D03*
X195947000Y-95954000D03*
%TD*%
D39*
%TO.C,J1*%
X224804500Y-94048000D03*
X224804500Y-88268000D03*
%TD*%
D40*
%TO.C,C1*%
X220459000Y-96012000D03*
X222009000Y-96012000D03*
%TD*%
D20*
%TO.C,R8*%
X201822000Y-89614000D03*
X201822000Y-88654000D03*
%TD*%
D41*
%TO.C,C2*%
X219723000Y-85852000D03*
X218173000Y-85852000D03*
%TD*%
D11*
%TO.C,L1*%
X197672000Y-90279000D03*
X197672000Y-91239000D03*
%TD*%
D20*
%TO.C,C27*%
X198297000Y-87139000D03*
X198297000Y-86179000D03*
%TD*%
M02*
