%TF.GenerationSoftware,KiCad,Pcbnew,(6.0.6)*%
%TF.CreationDate,2024-06-26T22:32:41-07:00*%
%TF.ProjectId,rocketBeaconModule,726f636b-6574-4426-9561-636f6e4d6f64,rev?*%
%TF.SameCoordinates,Original*%
%TF.FileFunction,Legend,Top*%
%TF.FilePolarity,Positive*%
%FSLAX46Y46*%
G04 Gerber Fmt 4.6, Leading zero omitted, Abs format (unit mm)*
G04 Created by KiCad (PCBNEW (6.0.6)) date 2024-06-26 22:32:41*
%MOMM*%
%LPD*%
G01*
G04 APERTURE LIST*
%ADD10C,0.300000*%
%ADD11C,0.100000*%
%ADD12C,0.150000*%
%ADD13C,0.120000*%
%ADD14C,0.254000*%
%ADD15C,0.127000*%
%ADD16C,0.200000*%
G04 APERTURE END LIST*
D10*
X188279285Y-111934523D02*
X188565000Y-112029761D01*
X189041190Y-112029761D01*
X189231666Y-111934523D01*
X189326904Y-111839285D01*
X189422142Y-111648809D01*
X189422142Y-111458333D01*
X189326904Y-111267857D01*
X189231666Y-111172619D01*
X189041190Y-111077380D01*
X188660238Y-110982142D01*
X188469761Y-110886904D01*
X188374523Y-110791666D01*
X188279285Y-110601190D01*
X188279285Y-110410714D01*
X188374523Y-110220238D01*
X188469761Y-110125000D01*
X188660238Y-110029761D01*
X189136428Y-110029761D01*
X189422142Y-110125000D01*
X191136428Y-110696428D02*
X191136428Y-112029761D01*
X190279285Y-110696428D02*
X190279285Y-111744047D01*
X190374523Y-111934523D01*
X190565000Y-112029761D01*
X190850714Y-112029761D01*
X191041190Y-111934523D01*
X191136428Y-111839285D01*
X192088809Y-112029761D02*
X192088809Y-110029761D01*
X192088809Y-110791666D02*
X192279285Y-110696428D01*
X192660238Y-110696428D01*
X192850714Y-110791666D01*
X192945952Y-110886904D01*
X193041190Y-111077380D01*
X193041190Y-111648809D01*
X192945952Y-111839285D01*
X192850714Y-111934523D01*
X192660238Y-112029761D01*
X192279285Y-112029761D01*
X192088809Y-111934523D01*
X194945952Y-110125000D02*
X194755476Y-110029761D01*
X194469761Y-110029761D01*
X194184047Y-110125000D01*
X193993571Y-110315476D01*
X193898333Y-110505952D01*
X193803095Y-110886904D01*
X193803095Y-111172619D01*
X193898333Y-111553571D01*
X193993571Y-111744047D01*
X194184047Y-111934523D01*
X194469761Y-112029761D01*
X194660238Y-112029761D01*
X194945952Y-111934523D01*
X195041190Y-111839285D01*
X195041190Y-111172619D01*
X194660238Y-111172619D01*
X195898333Y-112029761D02*
X195898333Y-110029761D01*
X196755476Y-112029761D02*
X196755476Y-110982142D01*
X196660238Y-110791666D01*
X196469761Y-110696428D01*
X196184047Y-110696428D01*
X195993571Y-110791666D01*
X195898333Y-110886904D01*
X197517380Y-110696428D02*
X198565000Y-110696428D01*
X197517380Y-112029761D01*
X198565000Y-112029761D01*
X200565000Y-110029761D02*
X201707857Y-110029761D01*
X201136428Y-112029761D02*
X201136428Y-110029761D01*
X202374523Y-112029761D02*
X202374523Y-110696428D01*
X202374523Y-111077380D02*
X202469761Y-110886904D01*
X202565000Y-110791666D01*
X202755476Y-110696428D01*
X202945952Y-110696428D01*
X204469761Y-112029761D02*
X204469761Y-110982142D01*
X204374523Y-110791666D01*
X204184047Y-110696428D01*
X203803095Y-110696428D01*
X203612619Y-110791666D01*
X204469761Y-111934523D02*
X204279285Y-112029761D01*
X203803095Y-112029761D01*
X203612619Y-111934523D01*
X203517380Y-111744047D01*
X203517380Y-111553571D01*
X203612619Y-111363095D01*
X203803095Y-111267857D01*
X204279285Y-111267857D01*
X204469761Y-111172619D01*
X205422142Y-110696428D02*
X205422142Y-112029761D01*
X205422142Y-110886904D02*
X205517380Y-110791666D01*
X205707857Y-110696428D01*
X205993571Y-110696428D01*
X206184047Y-110791666D01*
X206279285Y-110982142D01*
X206279285Y-112029761D01*
X207136428Y-111934523D02*
X207326904Y-112029761D01*
X207707857Y-112029761D01*
X207898333Y-111934523D01*
X207993571Y-111744047D01*
X207993571Y-111648809D01*
X207898333Y-111458333D01*
X207707857Y-111363095D01*
X207422142Y-111363095D01*
X207231666Y-111267857D01*
X207136428Y-111077380D01*
X207136428Y-110982142D01*
X207231666Y-110791666D01*
X207422142Y-110696428D01*
X207707857Y-110696428D01*
X207898333Y-110791666D01*
X209707857Y-111934523D02*
X209517380Y-112029761D01*
X209136428Y-112029761D01*
X208945952Y-111934523D01*
X208850714Y-111839285D01*
X208755476Y-111648809D01*
X208755476Y-111077380D01*
X208850714Y-110886904D01*
X208945952Y-110791666D01*
X209136428Y-110696428D01*
X209517380Y-110696428D01*
X209707857Y-110791666D01*
X210565000Y-112029761D02*
X210565000Y-110696428D01*
X210565000Y-110029761D02*
X210469761Y-110125000D01*
X210565000Y-110220238D01*
X210660238Y-110125000D01*
X210565000Y-110029761D01*
X210565000Y-110220238D01*
X212279285Y-111934523D02*
X212088809Y-112029761D01*
X211707857Y-112029761D01*
X211517380Y-111934523D01*
X211422142Y-111744047D01*
X211422142Y-110982142D01*
X211517380Y-110791666D01*
X211707857Y-110696428D01*
X212088809Y-110696428D01*
X212279285Y-110791666D01*
X212374523Y-110982142D01*
X212374523Y-111172619D01*
X211422142Y-111363095D01*
X213041190Y-110696428D02*
X213517380Y-112029761D01*
X213993571Y-110696428D01*
X215517380Y-111934523D02*
X215326904Y-112029761D01*
X214945952Y-112029761D01*
X214755476Y-111934523D01*
X214660238Y-111744047D01*
X214660238Y-110982142D01*
X214755476Y-110791666D01*
X214945952Y-110696428D01*
X215326904Y-110696428D01*
X215517380Y-110791666D01*
X215612619Y-110982142D01*
X215612619Y-111172619D01*
X214660238Y-111363095D01*
X216469761Y-112029761D02*
X216469761Y-110696428D01*
X216469761Y-111077380D02*
X216565000Y-110886904D01*
X216660238Y-110791666D01*
X216850714Y-110696428D01*
X217041190Y-110696428D01*
D11*
X223697857Y-100509428D02*
X224040714Y-100509428D01*
X223869285Y-101109428D02*
X223869285Y-100509428D01*
X224183571Y-100509428D02*
X224583571Y-101109428D01*
X224583571Y-100509428D02*
X224183571Y-101109428D01*
D12*
X201890380Y-73358238D02*
X202890380Y-73024904D01*
X201890380Y-72691571D01*
X202890380Y-72358238D02*
X201890380Y-72358238D01*
X202890380Y-71882047D02*
X201890380Y-71882047D01*
X202890380Y-71310619D01*
X201890380Y-71310619D01*
D11*
X223928000Y-102887428D02*
X223728000Y-102601714D01*
X223585142Y-102887428D02*
X223585142Y-102287428D01*
X223813714Y-102287428D01*
X223870857Y-102316000D01*
X223899428Y-102344571D01*
X223928000Y-102401714D01*
X223928000Y-102487428D01*
X223899428Y-102544571D01*
X223870857Y-102573142D01*
X223813714Y-102601714D01*
X223585142Y-102601714D01*
X224128000Y-102287428D02*
X224528000Y-102887428D01*
X224528000Y-102287428D02*
X224128000Y-102887428D01*
D12*
X214217428Y-113323714D02*
X214455523Y-113990380D01*
X214693619Y-113323714D01*
X215026952Y-113085619D02*
X215074571Y-113038000D01*
X215169809Y-112990380D01*
X215407904Y-112990380D01*
X215503142Y-113038000D01*
X215550761Y-113085619D01*
X215598380Y-113180857D01*
X215598380Y-113276095D01*
X215550761Y-113418952D01*
X214979333Y-113990380D01*
X215598380Y-113990380D01*
X216026952Y-113895142D02*
X216074571Y-113942761D01*
X216026952Y-113990380D01*
X215979333Y-113942761D01*
X216026952Y-113895142D01*
X216026952Y-113990380D01*
X216693619Y-112990380D02*
X216788857Y-112990380D01*
X216884095Y-113038000D01*
X216931714Y-113085619D01*
X216979333Y-113180857D01*
X217026952Y-113371333D01*
X217026952Y-113609428D01*
X216979333Y-113799904D01*
X216931714Y-113895142D01*
X216884095Y-113942761D01*
X216788857Y-113990380D01*
X216693619Y-113990380D01*
X216598380Y-113942761D01*
X216550761Y-113895142D01*
X216503142Y-113799904D01*
X216455523Y-113609428D01*
X216455523Y-113371333D01*
X216503142Y-113180857D01*
X216550761Y-113085619D01*
X216598380Y-113038000D01*
X216693619Y-112990380D01*
X211283523Y-71810571D02*
X210950190Y-71810571D01*
X210950190Y-72334380D02*
X210950190Y-71334380D01*
X211426380Y-71334380D01*
X212283523Y-72334380D02*
X211807333Y-72334380D01*
X211807333Y-71334380D01*
X212569238Y-72048666D02*
X213045428Y-72048666D01*
X212474000Y-72334380D02*
X212807333Y-71334380D01*
X213140666Y-72334380D01*
X213426380Y-72286761D02*
X213569238Y-72334380D01*
X213807333Y-72334380D01*
X213902571Y-72286761D01*
X213950190Y-72239142D01*
X213997809Y-72143904D01*
X213997809Y-72048666D01*
X213950190Y-71953428D01*
X213902571Y-71905809D01*
X213807333Y-71858190D01*
X213616857Y-71810571D01*
X213521619Y-71762952D01*
X213474000Y-71715333D01*
X213426380Y-71620095D01*
X213426380Y-71524857D01*
X213474000Y-71429619D01*
X213521619Y-71382000D01*
X213616857Y-71334380D01*
X213854952Y-71334380D01*
X213997809Y-71382000D01*
X214426380Y-72334380D02*
X214426380Y-71334380D01*
X214426380Y-71810571D02*
X214997809Y-71810571D01*
X214997809Y-72334380D02*
X214997809Y-71334380D01*
X192725380Y-72302666D02*
X192249190Y-72636000D01*
X192725380Y-72874095D02*
X191725380Y-72874095D01*
X191725380Y-72493142D01*
X191773000Y-72397904D01*
X191820619Y-72350285D01*
X191915857Y-72302666D01*
X192058714Y-72302666D01*
X192153952Y-72350285D01*
X192201571Y-72397904D01*
X192249190Y-72493142D01*
X192249190Y-72874095D01*
X191725380Y-71969333D02*
X192725380Y-71302666D01*
X191725380Y-71302666D02*
X192725380Y-71969333D01*
D11*
X228500000Y-80789428D02*
X228214285Y-80789428D01*
X228214285Y-80189428D01*
X229014285Y-80789428D02*
X228671428Y-80789428D01*
X228842857Y-80789428D02*
X228842857Y-80189428D01*
X228785714Y-80275142D01*
X228728571Y-80332285D01*
X228671428Y-80360857D01*
D12*
X199345380Y-73755095D02*
X199345380Y-73136047D01*
X199726333Y-73469380D01*
X199726333Y-73326523D01*
X199773952Y-73231285D01*
X199821571Y-73183666D01*
X199916809Y-73136047D01*
X200154904Y-73136047D01*
X200250142Y-73183666D01*
X200297761Y-73231285D01*
X200345380Y-73326523D01*
X200345380Y-73612238D01*
X200297761Y-73707476D01*
X200250142Y-73755095D01*
X199345380Y-72850333D02*
X200345380Y-72517000D01*
X199345380Y-72183666D01*
X199345380Y-71945571D02*
X199345380Y-71326523D01*
X199726333Y-71659857D01*
X199726333Y-71517000D01*
X199773952Y-71421761D01*
X199821571Y-71374142D01*
X199916809Y-71326523D01*
X200154904Y-71326523D01*
X200250142Y-71374142D01*
X200297761Y-71421761D01*
X200345380Y-71517000D01*
X200345380Y-71802714D01*
X200297761Y-71897952D01*
X200250142Y-71945571D01*
X188262333Y-113704666D02*
X188738523Y-113704666D01*
X188167095Y-113990380D02*
X188500428Y-112990380D01*
X188833761Y-113990380D01*
X189167095Y-113990380D02*
X189167095Y-113323714D01*
X189167095Y-113514190D02*
X189214714Y-113418952D01*
X189262333Y-113371333D01*
X189357571Y-113323714D01*
X189452809Y-113323714D01*
X189786142Y-113990380D02*
X189786142Y-113323714D01*
X189786142Y-113418952D02*
X189833761Y-113371333D01*
X189929000Y-113323714D01*
X190071857Y-113323714D01*
X190167095Y-113371333D01*
X190214714Y-113466571D01*
X190214714Y-113990380D01*
X190214714Y-113466571D02*
X190262333Y-113371333D01*
X190357571Y-113323714D01*
X190500428Y-113323714D01*
X190595666Y-113371333D01*
X190643285Y-113466571D01*
X190643285Y-113990380D01*
X191071857Y-113942761D02*
X191167095Y-113990380D01*
X191357571Y-113990380D01*
X191452809Y-113942761D01*
X191500428Y-113847523D01*
X191500428Y-113799904D01*
X191452809Y-113704666D01*
X191357571Y-113657047D01*
X191214714Y-113657047D01*
X191119476Y-113609428D01*
X191071857Y-113514190D01*
X191071857Y-113466571D01*
X191119476Y-113371333D01*
X191214714Y-113323714D01*
X191357571Y-113323714D01*
X191452809Y-113371333D01*
X191786142Y-113323714D02*
X192167095Y-113323714D01*
X191929000Y-112990380D02*
X191929000Y-113847523D01*
X191976619Y-113942761D01*
X192071857Y-113990380D01*
X192167095Y-113990380D01*
X192500428Y-113990380D02*
X192500428Y-113323714D01*
X192500428Y-113514190D02*
X192548047Y-113418952D01*
X192595666Y-113371333D01*
X192690904Y-113323714D01*
X192786142Y-113323714D01*
X193262333Y-113990380D02*
X193167095Y-113942761D01*
X193119476Y-113895142D01*
X193071857Y-113799904D01*
X193071857Y-113514190D01*
X193119476Y-113418952D01*
X193167095Y-113371333D01*
X193262333Y-113323714D01*
X193405190Y-113323714D01*
X193500428Y-113371333D01*
X193548047Y-113418952D01*
X193595666Y-113514190D01*
X193595666Y-113799904D01*
X193548047Y-113895142D01*
X193500428Y-113942761D01*
X193405190Y-113990380D01*
X193262333Y-113990380D01*
X194024238Y-113323714D02*
X194024238Y-113990380D01*
X194024238Y-113418952D02*
X194071857Y-113371333D01*
X194167095Y-113323714D01*
X194309952Y-113323714D01*
X194405190Y-113371333D01*
X194452809Y-113466571D01*
X194452809Y-113990380D01*
X195357571Y-113323714D02*
X195357571Y-114133238D01*
X195309952Y-114228476D01*
X195262333Y-114276095D01*
X195167095Y-114323714D01*
X195024238Y-114323714D01*
X194929000Y-114276095D01*
X195357571Y-113942761D02*
X195262333Y-113990380D01*
X195071857Y-113990380D01*
X194976619Y-113942761D01*
X194929000Y-113895142D01*
X194881380Y-113799904D01*
X194881380Y-113514190D01*
X194929000Y-113418952D01*
X194976619Y-113371333D01*
X195071857Y-113323714D01*
X195262333Y-113323714D01*
X195357571Y-113371333D01*
X197071857Y-113990380D02*
X196595666Y-113990380D01*
X196595666Y-112990380D01*
X197833761Y-113990380D02*
X197833761Y-113466571D01*
X197786142Y-113371333D01*
X197690904Y-113323714D01*
X197500428Y-113323714D01*
X197405190Y-113371333D01*
X197833761Y-113942761D02*
X197738523Y-113990380D01*
X197500428Y-113990380D01*
X197405190Y-113942761D01*
X197357571Y-113847523D01*
X197357571Y-113752285D01*
X197405190Y-113657047D01*
X197500428Y-113609428D01*
X197738523Y-113609428D01*
X197833761Y-113561809D01*
X198309952Y-113990380D02*
X198309952Y-112990380D01*
X198309952Y-113371333D02*
X198405190Y-113323714D01*
X198595666Y-113323714D01*
X198690904Y-113371333D01*
X198738523Y-113418952D01*
X198786142Y-113514190D01*
X198786142Y-113799904D01*
X198738523Y-113895142D01*
X198690904Y-113942761D01*
X198595666Y-113990380D01*
X198405190Y-113990380D01*
X198309952Y-113942761D01*
X199167095Y-113942761D02*
X199262333Y-113990380D01*
X199452809Y-113990380D01*
X199548047Y-113942761D01*
X199595666Y-113847523D01*
X199595666Y-113799904D01*
X199548047Y-113704666D01*
X199452809Y-113657047D01*
X199309952Y-113657047D01*
X199214714Y-113609428D01*
X199167095Y-113514190D01*
X199167095Y-113466571D01*
X199214714Y-113371333D01*
X199309952Y-113323714D01*
X199452809Y-113323714D01*
X199548047Y-113371333D01*
D11*
X222974000Y-99458428D02*
X222974000Y-98858428D01*
X223202571Y-98858428D01*
X223259714Y-98887000D01*
X223288285Y-98915571D01*
X223316857Y-98972714D01*
X223316857Y-99058428D01*
X223288285Y-99115571D01*
X223259714Y-99144142D01*
X223202571Y-99172714D01*
X222974000Y-99172714D01*
X223516857Y-98858428D02*
X223659714Y-99458428D01*
X223774000Y-99029857D01*
X223888285Y-99458428D01*
X224031142Y-98858428D01*
X224602571Y-99458428D02*
X224402571Y-99172714D01*
X224259714Y-99458428D02*
X224259714Y-98858428D01*
X224488285Y-98858428D01*
X224545428Y-98887000D01*
X224574000Y-98915571D01*
X224602571Y-98972714D01*
X224602571Y-99058428D01*
X224574000Y-99115571D01*
X224545428Y-99144142D01*
X224488285Y-99172714D01*
X224259714Y-99172714D01*
D12*
X189185380Y-72897904D02*
X189185380Y-72326476D01*
X190185380Y-72612190D02*
X189185380Y-72612190D01*
X189185380Y-72088380D02*
X190185380Y-71421714D01*
X189185380Y-71421714D02*
X190185380Y-72088380D01*
X186693000Y-73532904D02*
X186645380Y-73628142D01*
X186645380Y-73771000D01*
X186693000Y-73913857D01*
X186788238Y-74009095D01*
X186883476Y-74056714D01*
X187073952Y-74104333D01*
X187216809Y-74104333D01*
X187407285Y-74056714D01*
X187502523Y-74009095D01*
X187597761Y-73913857D01*
X187645380Y-73771000D01*
X187645380Y-73675761D01*
X187597761Y-73532904D01*
X187550142Y-73485285D01*
X187216809Y-73485285D01*
X187216809Y-73675761D01*
X187645380Y-73056714D02*
X186645380Y-73056714D01*
X187645380Y-72485285D01*
X186645380Y-72485285D01*
X187645380Y-72009095D02*
X186645380Y-72009095D01*
X186645380Y-71771000D01*
X186693000Y-71628142D01*
X186788238Y-71532904D01*
X186883476Y-71485285D01*
X187073952Y-71437666D01*
X187216809Y-71437666D01*
X187407285Y-71485285D01*
X187502523Y-71532904D01*
X187597761Y-71628142D01*
X187645380Y-71771000D01*
X187645380Y-72009095D01*
D11*
X228500000Y-83329428D02*
X228214285Y-83329428D01*
X228214285Y-82729428D01*
X228671428Y-82786571D02*
X228700000Y-82758000D01*
X228757142Y-82729428D01*
X228900000Y-82729428D01*
X228957142Y-82758000D01*
X228985714Y-82786571D01*
X229014285Y-82843714D01*
X229014285Y-82900857D01*
X228985714Y-82986571D01*
X228642857Y-83329428D01*
X229014285Y-83329428D01*
D12*
X196853000Y-72350285D02*
X196805380Y-72445523D01*
X196805380Y-72588380D01*
X196853000Y-72731238D01*
X196948238Y-72826476D01*
X197043476Y-72874095D01*
X197233952Y-72921714D01*
X197376809Y-72921714D01*
X197567285Y-72874095D01*
X197662523Y-72826476D01*
X197757761Y-72731238D01*
X197805380Y-72588380D01*
X197805380Y-72493142D01*
X197757761Y-72350285D01*
X197710142Y-72302666D01*
X197376809Y-72302666D01*
X197376809Y-72493142D01*
X196900619Y-71921714D02*
X196853000Y-71874095D01*
X196805380Y-71778857D01*
X196805380Y-71540761D01*
X196853000Y-71445523D01*
X196900619Y-71397904D01*
X196995857Y-71350285D01*
X197091095Y-71350285D01*
X197233952Y-71397904D01*
X197805380Y-71969333D01*
X197805380Y-71350285D01*
X194313000Y-72350285D02*
X194265380Y-72445523D01*
X194265380Y-72588380D01*
X194313000Y-72731238D01*
X194408238Y-72826476D01*
X194503476Y-72874095D01*
X194693952Y-72921714D01*
X194836809Y-72921714D01*
X195027285Y-72874095D01*
X195122523Y-72826476D01*
X195217761Y-72731238D01*
X195265380Y-72588380D01*
X195265380Y-72493142D01*
X195217761Y-72350285D01*
X195170142Y-72302666D01*
X194836809Y-72302666D01*
X194836809Y-72493142D01*
X195265380Y-71350285D02*
X195265380Y-71921714D01*
X195265380Y-71636000D02*
X194265380Y-71636000D01*
X194408238Y-71731238D01*
X194503476Y-71826476D01*
X194551095Y-71921714D01*
%TO.C,C18*%
X208129142Y-96866142D02*
X208081523Y-96913761D01*
X207938666Y-96961380D01*
X207843428Y-96961380D01*
X207700571Y-96913761D01*
X207605333Y-96818523D01*
X207557714Y-96723285D01*
X207510095Y-96532809D01*
X207510095Y-96389952D01*
X207557714Y-96199476D01*
X207605333Y-96104238D01*
X207700571Y-96009000D01*
X207843428Y-95961380D01*
X207938666Y-95961380D01*
X208081523Y-96009000D01*
X208129142Y-96056619D01*
X209081523Y-96961380D02*
X208510095Y-96961380D01*
X208795809Y-96961380D02*
X208795809Y-95961380D01*
X208700571Y-96104238D01*
X208605333Y-96199476D01*
X208510095Y-96247095D01*
X209652952Y-96389952D02*
X209557714Y-96342333D01*
X209510095Y-96294714D01*
X209462476Y-96199476D01*
X209462476Y-96151857D01*
X209510095Y-96056619D01*
X209557714Y-96009000D01*
X209652952Y-95961380D01*
X209843428Y-95961380D01*
X209938666Y-96009000D01*
X209986285Y-96056619D01*
X210033904Y-96151857D01*
X210033904Y-96199476D01*
X209986285Y-96294714D01*
X209938666Y-96342333D01*
X209843428Y-96389952D01*
X209652952Y-96389952D01*
X209557714Y-96437571D01*
X209510095Y-96485190D01*
X209462476Y-96580428D01*
X209462476Y-96770904D01*
X209510095Y-96866142D01*
X209557714Y-96913761D01*
X209652952Y-96961380D01*
X209843428Y-96961380D01*
X209938666Y-96913761D01*
X209986285Y-96866142D01*
X210033904Y-96770904D01*
X210033904Y-96580428D01*
X209986285Y-96485190D01*
X209938666Y-96437571D01*
X209843428Y-96389952D01*
%TO.C,P1*%
X178208654Y-86255380D02*
X178208654Y-85255380D01*
X178589607Y-85255380D01*
X178684845Y-85303000D01*
X178732464Y-85350619D01*
X178780083Y-85445857D01*
X178780083Y-85588714D01*
X178732464Y-85683952D01*
X178684845Y-85731571D01*
X178589607Y-85779190D01*
X178208654Y-85779190D01*
X179732464Y-86255380D02*
X179161035Y-86255380D01*
X179446750Y-86255380D02*
X179446750Y-85255380D01*
X179351511Y-85398238D01*
X179256273Y-85493476D01*
X179161035Y-85541095D01*
D13*
%TO.C,U2*%
X219598285Y-102657942D02*
X219598285Y-103046514D01*
X219621142Y-103092228D01*
X219644000Y-103115085D01*
X219689714Y-103137942D01*
X219781142Y-103137942D01*
X219826857Y-103115085D01*
X219849714Y-103092228D01*
X219872571Y-103046514D01*
X219872571Y-102657942D01*
X220078285Y-102703657D02*
X220101142Y-102680800D01*
X220146857Y-102657942D01*
X220261142Y-102657942D01*
X220306857Y-102680800D01*
X220329714Y-102703657D01*
X220352571Y-102749371D01*
X220352571Y-102795085D01*
X220329714Y-102863657D01*
X220055428Y-103137942D01*
X220352571Y-103137942D01*
D12*
%TO.C,C26*%
X199854142Y-89701857D02*
X199901761Y-89749476D01*
X199949380Y-89892333D01*
X199949380Y-89987571D01*
X199901761Y-90130428D01*
X199806523Y-90225666D01*
X199711285Y-90273285D01*
X199520809Y-90320904D01*
X199377952Y-90320904D01*
X199187476Y-90273285D01*
X199092238Y-90225666D01*
X198997000Y-90130428D01*
X198949380Y-89987571D01*
X198949380Y-89892333D01*
X198997000Y-89749476D01*
X199044619Y-89701857D01*
X199044619Y-89320904D02*
X198997000Y-89273285D01*
X198949380Y-89178047D01*
X198949380Y-88939952D01*
X198997000Y-88844714D01*
X199044619Y-88797095D01*
X199139857Y-88749476D01*
X199235095Y-88749476D01*
X199377952Y-88797095D01*
X199949380Y-89368523D01*
X199949380Y-88749476D01*
X198949380Y-87892333D02*
X198949380Y-88082809D01*
X198997000Y-88178047D01*
X199044619Y-88225666D01*
X199187476Y-88320904D01*
X199377952Y-88368523D01*
X199758904Y-88368523D01*
X199854142Y-88320904D01*
X199901761Y-88273285D01*
X199949380Y-88178047D01*
X199949380Y-87987571D01*
X199901761Y-87892333D01*
X199854142Y-87844714D01*
X199758904Y-87797095D01*
X199520809Y-87797095D01*
X199425571Y-87844714D01*
X199377952Y-87892333D01*
X199330333Y-87987571D01*
X199330333Y-88178047D01*
X199377952Y-88273285D01*
X199425571Y-88320904D01*
X199520809Y-88368523D01*
%TO.C,U1*%
X214884095Y-74134380D02*
X214884095Y-74943904D01*
X214931714Y-75039142D01*
X214979333Y-75086761D01*
X215074571Y-75134380D01*
X215265047Y-75134380D01*
X215360285Y-75086761D01*
X215407904Y-75039142D01*
X215455523Y-74943904D01*
X215455523Y-74134380D01*
X216455523Y-75134380D02*
X215884095Y-75134380D01*
X216169809Y-75134380D02*
X216169809Y-74134380D01*
X216074571Y-74277238D01*
X215979333Y-74372476D01*
X215884095Y-74420095D01*
%TO.C,C29*%
X199394892Y-102682857D02*
X199442511Y-102730476D01*
X199490130Y-102873333D01*
X199490130Y-102968571D01*
X199442511Y-103111428D01*
X199347273Y-103206666D01*
X199252035Y-103254285D01*
X199061559Y-103301904D01*
X198918702Y-103301904D01*
X198728226Y-103254285D01*
X198632988Y-103206666D01*
X198537750Y-103111428D01*
X198490130Y-102968571D01*
X198490130Y-102873333D01*
X198537750Y-102730476D01*
X198585369Y-102682857D01*
X198585369Y-102301904D02*
X198537750Y-102254285D01*
X198490130Y-102159047D01*
X198490130Y-101920952D01*
X198537750Y-101825714D01*
X198585369Y-101778095D01*
X198680607Y-101730476D01*
X198775845Y-101730476D01*
X198918702Y-101778095D01*
X199490130Y-102349523D01*
X199490130Y-101730476D01*
X199490130Y-101254285D02*
X199490130Y-101063809D01*
X199442511Y-100968571D01*
X199394892Y-100920952D01*
X199252035Y-100825714D01*
X199061559Y-100778095D01*
X198680607Y-100778095D01*
X198585369Y-100825714D01*
X198537750Y-100873333D01*
X198490130Y-100968571D01*
X198490130Y-101159047D01*
X198537750Y-101254285D01*
X198585369Y-101301904D01*
X198680607Y-101349523D01*
X198918702Y-101349523D01*
X199013940Y-101301904D01*
X199061559Y-101254285D01*
X199109178Y-101159047D01*
X199109178Y-100968571D01*
X199061559Y-100873333D01*
X199013940Y-100825714D01*
X198918702Y-100778095D01*
%TO.C,C32*%
X191579142Y-97016142D02*
X191531523Y-97063761D01*
X191388666Y-97111380D01*
X191293428Y-97111380D01*
X191150571Y-97063761D01*
X191055333Y-96968523D01*
X191007714Y-96873285D01*
X190960095Y-96682809D01*
X190960095Y-96539952D01*
X191007714Y-96349476D01*
X191055333Y-96254238D01*
X191150571Y-96159000D01*
X191293428Y-96111380D01*
X191388666Y-96111380D01*
X191531523Y-96159000D01*
X191579142Y-96206619D01*
X191912476Y-96111380D02*
X192531523Y-96111380D01*
X192198190Y-96492333D01*
X192341047Y-96492333D01*
X192436285Y-96539952D01*
X192483904Y-96587571D01*
X192531523Y-96682809D01*
X192531523Y-96920904D01*
X192483904Y-97016142D01*
X192436285Y-97063761D01*
X192341047Y-97111380D01*
X192055333Y-97111380D01*
X191960095Y-97063761D01*
X191912476Y-97016142D01*
X192912476Y-96206619D02*
X192960095Y-96159000D01*
X193055333Y-96111380D01*
X193293428Y-96111380D01*
X193388666Y-96159000D01*
X193436285Y-96206619D01*
X193483904Y-96301857D01*
X193483904Y-96397095D01*
X193436285Y-96539952D01*
X192864857Y-97111380D01*
X193483904Y-97111380D01*
%TO.C,C22*%
X194504142Y-86691142D02*
X194456523Y-86738761D01*
X194313666Y-86786380D01*
X194218428Y-86786380D01*
X194075571Y-86738761D01*
X193980333Y-86643523D01*
X193932714Y-86548285D01*
X193885095Y-86357809D01*
X193885095Y-86214952D01*
X193932714Y-86024476D01*
X193980333Y-85929238D01*
X194075571Y-85834000D01*
X194218428Y-85786380D01*
X194313666Y-85786380D01*
X194456523Y-85834000D01*
X194504142Y-85881619D01*
X194885095Y-85881619D02*
X194932714Y-85834000D01*
X195027952Y-85786380D01*
X195266047Y-85786380D01*
X195361285Y-85834000D01*
X195408904Y-85881619D01*
X195456523Y-85976857D01*
X195456523Y-86072095D01*
X195408904Y-86214952D01*
X194837476Y-86786380D01*
X195456523Y-86786380D01*
X195837476Y-85881619D02*
X195885095Y-85834000D01*
X195980333Y-85786380D01*
X196218428Y-85786380D01*
X196313666Y-85834000D01*
X196361285Y-85881619D01*
X196408904Y-85976857D01*
X196408904Y-86072095D01*
X196361285Y-86214952D01*
X195789857Y-86786380D01*
X196408904Y-86786380D01*
%TO.C,C6*%
X203668333Y-82272142D02*
X203620714Y-82319761D01*
X203477857Y-82367380D01*
X203382619Y-82367380D01*
X203239761Y-82319761D01*
X203144523Y-82224523D01*
X203096904Y-82129285D01*
X203049285Y-81938809D01*
X203049285Y-81795952D01*
X203096904Y-81605476D01*
X203144523Y-81510238D01*
X203239761Y-81415000D01*
X203382619Y-81367380D01*
X203477857Y-81367380D01*
X203620714Y-81415000D01*
X203668333Y-81462619D01*
X204525476Y-81367380D02*
X204335000Y-81367380D01*
X204239761Y-81415000D01*
X204192142Y-81462619D01*
X204096904Y-81605476D01*
X204049285Y-81795952D01*
X204049285Y-82176904D01*
X204096904Y-82272142D01*
X204144523Y-82319761D01*
X204239761Y-82367380D01*
X204430238Y-82367380D01*
X204525476Y-82319761D01*
X204573095Y-82272142D01*
X204620714Y-82176904D01*
X204620714Y-81938809D01*
X204573095Y-81843571D01*
X204525476Y-81795952D01*
X204430238Y-81748333D01*
X204239761Y-81748333D01*
X204144523Y-81795952D01*
X204096904Y-81843571D01*
X204049285Y-81938809D01*
%TO.C,D2*%
X227988904Y-83610380D02*
X227988904Y-82610380D01*
X228227000Y-82610380D01*
X228369857Y-82658000D01*
X228465095Y-82753238D01*
X228512714Y-82848476D01*
X228560333Y-83038952D01*
X228560333Y-83181809D01*
X228512714Y-83372285D01*
X228465095Y-83467523D01*
X228369857Y-83562761D01*
X228227000Y-83610380D01*
X227988904Y-83610380D01*
X228941285Y-82705619D02*
X228988904Y-82658000D01*
X229084142Y-82610380D01*
X229322238Y-82610380D01*
X229417476Y-82658000D01*
X229465095Y-82705619D01*
X229512714Y-82800857D01*
X229512714Y-82896095D01*
X229465095Y-83038952D01*
X228893666Y-83610380D01*
X229512714Y-83610380D01*
%TO.C,C21*%
X198019892Y-100057857D02*
X198067511Y-100105476D01*
X198115130Y-100248333D01*
X198115130Y-100343571D01*
X198067511Y-100486428D01*
X197972273Y-100581666D01*
X197877035Y-100629285D01*
X197686559Y-100676904D01*
X197543702Y-100676904D01*
X197353226Y-100629285D01*
X197257988Y-100581666D01*
X197162750Y-100486428D01*
X197115130Y-100343571D01*
X197115130Y-100248333D01*
X197162750Y-100105476D01*
X197210369Y-100057857D01*
X197210369Y-99676904D02*
X197162750Y-99629285D01*
X197115130Y-99534047D01*
X197115130Y-99295952D01*
X197162750Y-99200714D01*
X197210369Y-99153095D01*
X197305607Y-99105476D01*
X197400845Y-99105476D01*
X197543702Y-99153095D01*
X198115130Y-99724523D01*
X198115130Y-99105476D01*
X198115130Y-98153095D02*
X198115130Y-98724523D01*
X198115130Y-98438809D02*
X197115130Y-98438809D01*
X197257988Y-98534047D01*
X197353226Y-98629285D01*
X197400845Y-98724523D01*
%TO.C,C9*%
X216257142Y-84776666D02*
X216304761Y-84824285D01*
X216352380Y-84967142D01*
X216352380Y-85062380D01*
X216304761Y-85205238D01*
X216209523Y-85300476D01*
X216114285Y-85348095D01*
X215923809Y-85395714D01*
X215780952Y-85395714D01*
X215590476Y-85348095D01*
X215495238Y-85300476D01*
X215400000Y-85205238D01*
X215352380Y-85062380D01*
X215352380Y-84967142D01*
X215400000Y-84824285D01*
X215447619Y-84776666D01*
X216352380Y-84300476D02*
X216352380Y-84110000D01*
X216304761Y-84014761D01*
X216257142Y-83967142D01*
X216114285Y-83871904D01*
X215923809Y-83824285D01*
X215542857Y-83824285D01*
X215447619Y-83871904D01*
X215400000Y-83919523D01*
X215352380Y-84014761D01*
X215352380Y-84205238D01*
X215400000Y-84300476D01*
X215447619Y-84348095D01*
X215542857Y-84395714D01*
X215780952Y-84395714D01*
X215876190Y-84348095D01*
X215923809Y-84300476D01*
X215971428Y-84205238D01*
X215971428Y-84014761D01*
X215923809Y-83919523D01*
X215876190Y-83871904D01*
X215780952Y-83824285D01*
%TO.C,L5*%
X193005333Y-91786380D02*
X192529142Y-91786380D01*
X192529142Y-90786380D01*
X193814857Y-90786380D02*
X193338666Y-90786380D01*
X193291047Y-91262571D01*
X193338666Y-91214952D01*
X193433904Y-91167333D01*
X193672000Y-91167333D01*
X193767238Y-91214952D01*
X193814857Y-91262571D01*
X193862476Y-91357809D01*
X193862476Y-91595904D01*
X193814857Y-91691142D01*
X193767238Y-91738761D01*
X193672000Y-91786380D01*
X193433904Y-91786380D01*
X193338666Y-91738761D01*
X193291047Y-91691142D01*
%TO.C,C19*%
X201179142Y-87376857D02*
X201226761Y-87424476D01*
X201274380Y-87567333D01*
X201274380Y-87662571D01*
X201226761Y-87805428D01*
X201131523Y-87900666D01*
X201036285Y-87948285D01*
X200845809Y-87995904D01*
X200702952Y-87995904D01*
X200512476Y-87948285D01*
X200417238Y-87900666D01*
X200322000Y-87805428D01*
X200274380Y-87662571D01*
X200274380Y-87567333D01*
X200322000Y-87424476D01*
X200369619Y-87376857D01*
X201274380Y-86424476D02*
X201274380Y-86995904D01*
X201274380Y-86710190D02*
X200274380Y-86710190D01*
X200417238Y-86805428D01*
X200512476Y-86900666D01*
X200560095Y-86995904D01*
X201274380Y-85948285D02*
X201274380Y-85757809D01*
X201226761Y-85662571D01*
X201179142Y-85614952D01*
X201036285Y-85519714D01*
X200845809Y-85472095D01*
X200464857Y-85472095D01*
X200369619Y-85519714D01*
X200322000Y-85567333D01*
X200274380Y-85662571D01*
X200274380Y-85853047D01*
X200322000Y-85948285D01*
X200369619Y-85995904D01*
X200464857Y-86043523D01*
X200702952Y-86043523D01*
X200798190Y-85995904D01*
X200845809Y-85948285D01*
X200893428Y-85853047D01*
X200893428Y-85662571D01*
X200845809Y-85567333D01*
X200798190Y-85519714D01*
X200702952Y-85472095D01*
%TO.C,R12*%
X218051142Y-96210380D02*
X217717809Y-95734190D01*
X217479714Y-96210380D02*
X217479714Y-95210380D01*
X217860666Y-95210380D01*
X217955904Y-95258000D01*
X218003523Y-95305619D01*
X218051142Y-95400857D01*
X218051142Y-95543714D01*
X218003523Y-95638952D01*
X217955904Y-95686571D01*
X217860666Y-95734190D01*
X217479714Y-95734190D01*
X219003523Y-96210380D02*
X218432095Y-96210380D01*
X218717809Y-96210380D02*
X218717809Y-95210380D01*
X218622571Y-95353238D01*
X218527333Y-95448476D01*
X218432095Y-95496095D01*
X219384476Y-95305619D02*
X219432095Y-95258000D01*
X219527333Y-95210380D01*
X219765428Y-95210380D01*
X219860666Y-95258000D01*
X219908285Y-95305619D01*
X219955904Y-95400857D01*
X219955904Y-95496095D01*
X219908285Y-95638952D01*
X219336857Y-96210380D01*
X219955904Y-96210380D01*
%TO.C,C23*%
X200669892Y-102707857D02*
X200717511Y-102755476D01*
X200765130Y-102898333D01*
X200765130Y-102993571D01*
X200717511Y-103136428D01*
X200622273Y-103231666D01*
X200527035Y-103279285D01*
X200336559Y-103326904D01*
X200193702Y-103326904D01*
X200003226Y-103279285D01*
X199907988Y-103231666D01*
X199812750Y-103136428D01*
X199765130Y-102993571D01*
X199765130Y-102898333D01*
X199812750Y-102755476D01*
X199860369Y-102707857D01*
X199860369Y-102326904D02*
X199812750Y-102279285D01*
X199765130Y-102184047D01*
X199765130Y-101945952D01*
X199812750Y-101850714D01*
X199860369Y-101803095D01*
X199955607Y-101755476D01*
X200050845Y-101755476D01*
X200193702Y-101803095D01*
X200765130Y-102374523D01*
X200765130Y-101755476D01*
X199765130Y-101422142D02*
X199765130Y-100803095D01*
X200146083Y-101136428D01*
X200146083Y-100993571D01*
X200193702Y-100898333D01*
X200241321Y-100850714D01*
X200336559Y-100803095D01*
X200574654Y-100803095D01*
X200669892Y-100850714D01*
X200717511Y-100898333D01*
X200765130Y-100993571D01*
X200765130Y-101279285D01*
X200717511Y-101374523D01*
X200669892Y-101422142D01*
%TO.C,C7*%
X210017142Y-76620666D02*
X210064761Y-76668285D01*
X210112380Y-76811142D01*
X210112380Y-76906380D01*
X210064761Y-77049238D01*
X209969523Y-77144476D01*
X209874285Y-77192095D01*
X209683809Y-77239714D01*
X209540952Y-77239714D01*
X209350476Y-77192095D01*
X209255238Y-77144476D01*
X209160000Y-77049238D01*
X209112380Y-76906380D01*
X209112380Y-76811142D01*
X209160000Y-76668285D01*
X209207619Y-76620666D01*
X209112380Y-76287333D02*
X209112380Y-75620666D01*
X210112380Y-76049238D01*
%TO.C,L7*%
X190915130Y-88981666D02*
X190915130Y-89457857D01*
X189915130Y-89457857D01*
X189915130Y-88743571D02*
X189915130Y-88076904D01*
X190915130Y-88505476D01*
%TO.C,C8*%
X222116142Y-76874666D02*
X222163761Y-76922285D01*
X222211380Y-77065142D01*
X222211380Y-77160380D01*
X222163761Y-77303238D01*
X222068523Y-77398476D01*
X221973285Y-77446095D01*
X221782809Y-77493714D01*
X221639952Y-77493714D01*
X221449476Y-77446095D01*
X221354238Y-77398476D01*
X221259000Y-77303238D01*
X221211380Y-77160380D01*
X221211380Y-77065142D01*
X221259000Y-76922285D01*
X221306619Y-76874666D01*
X221639952Y-76303238D02*
X221592333Y-76398476D01*
X221544714Y-76446095D01*
X221449476Y-76493714D01*
X221401857Y-76493714D01*
X221306619Y-76446095D01*
X221259000Y-76398476D01*
X221211380Y-76303238D01*
X221211380Y-76112761D01*
X221259000Y-76017523D01*
X221306619Y-75969904D01*
X221401857Y-75922285D01*
X221449476Y-75922285D01*
X221544714Y-75969904D01*
X221592333Y-76017523D01*
X221639952Y-76112761D01*
X221639952Y-76303238D01*
X221687571Y-76398476D01*
X221735190Y-76446095D01*
X221830428Y-76493714D01*
X222020904Y-76493714D01*
X222116142Y-76446095D01*
X222163761Y-76398476D01*
X222211380Y-76303238D01*
X222211380Y-76112761D01*
X222163761Y-76017523D01*
X222116142Y-75969904D01*
X222020904Y-75922285D01*
X221830428Y-75922285D01*
X221735190Y-75969904D01*
X221687571Y-76017523D01*
X221639952Y-76112761D01*
%TO.C,C15*%
X210119892Y-94091142D02*
X210072273Y-94138761D01*
X209929416Y-94186380D01*
X209834178Y-94186380D01*
X209691321Y-94138761D01*
X209596083Y-94043523D01*
X209548464Y-93948285D01*
X209500845Y-93757809D01*
X209500845Y-93614952D01*
X209548464Y-93424476D01*
X209596083Y-93329238D01*
X209691321Y-93234000D01*
X209834178Y-93186380D01*
X209929416Y-93186380D01*
X210072273Y-93234000D01*
X210119892Y-93281619D01*
X211072273Y-94186380D02*
X210500845Y-94186380D01*
X210786559Y-94186380D02*
X210786559Y-93186380D01*
X210691321Y-93329238D01*
X210596083Y-93424476D01*
X210500845Y-93472095D01*
X211977035Y-93186380D02*
X211500845Y-93186380D01*
X211453226Y-93662571D01*
X211500845Y-93614952D01*
X211596083Y-93567333D01*
X211834178Y-93567333D01*
X211929416Y-93614952D01*
X211977035Y-93662571D01*
X212024654Y-93757809D01*
X212024654Y-93995904D01*
X211977035Y-94091142D01*
X211929416Y-94138761D01*
X211834178Y-94186380D01*
X211596083Y-94186380D01*
X211500845Y-94138761D01*
X211453226Y-94091142D01*
%TO.C,FB1*%
X208335571Y-84526333D02*
X208335571Y-84859666D01*
X208859380Y-84859666D02*
X207859380Y-84859666D01*
X207859380Y-84383476D01*
X208335571Y-83669190D02*
X208383190Y-83526333D01*
X208430809Y-83478714D01*
X208526047Y-83431095D01*
X208668904Y-83431095D01*
X208764142Y-83478714D01*
X208811761Y-83526333D01*
X208859380Y-83621571D01*
X208859380Y-84002523D01*
X207859380Y-84002523D01*
X207859380Y-83669190D01*
X207907000Y-83573952D01*
X207954619Y-83526333D01*
X208049857Y-83478714D01*
X208145095Y-83478714D01*
X208240333Y-83526333D01*
X208287952Y-83573952D01*
X208335571Y-83669190D01*
X208335571Y-84002523D01*
X208859380Y-82478714D02*
X208859380Y-83050142D01*
X208859380Y-82764428D02*
X207859380Y-82764428D01*
X208002238Y-82859666D01*
X208097476Y-82954904D01*
X208145095Y-83050142D01*
%TO.C,C5*%
X212431333Y-73873142D02*
X212383714Y-73920761D01*
X212240857Y-73968380D01*
X212145619Y-73968380D01*
X212002761Y-73920761D01*
X211907523Y-73825523D01*
X211859904Y-73730285D01*
X211812285Y-73539809D01*
X211812285Y-73396952D01*
X211859904Y-73206476D01*
X211907523Y-73111238D01*
X212002761Y-73016000D01*
X212145619Y-72968380D01*
X212240857Y-72968380D01*
X212383714Y-73016000D01*
X212431333Y-73063619D01*
X213336095Y-72968380D02*
X212859904Y-72968380D01*
X212812285Y-73444571D01*
X212859904Y-73396952D01*
X212955142Y-73349333D01*
X213193238Y-73349333D01*
X213288476Y-73396952D01*
X213336095Y-73444571D01*
X213383714Y-73539809D01*
X213383714Y-73777904D01*
X213336095Y-73873142D01*
X213288476Y-73920761D01*
X213193238Y-73968380D01*
X212955142Y-73968380D01*
X212859904Y-73920761D01*
X212812285Y-73873142D01*
%TO.C,C24*%
X196694892Y-100207857D02*
X196742511Y-100255476D01*
X196790130Y-100398333D01*
X196790130Y-100493571D01*
X196742511Y-100636428D01*
X196647273Y-100731666D01*
X196552035Y-100779285D01*
X196361559Y-100826904D01*
X196218702Y-100826904D01*
X196028226Y-100779285D01*
X195932988Y-100731666D01*
X195837750Y-100636428D01*
X195790130Y-100493571D01*
X195790130Y-100398333D01*
X195837750Y-100255476D01*
X195885369Y-100207857D01*
X195885369Y-99826904D02*
X195837750Y-99779285D01*
X195790130Y-99684047D01*
X195790130Y-99445952D01*
X195837750Y-99350714D01*
X195885369Y-99303095D01*
X195980607Y-99255476D01*
X196075845Y-99255476D01*
X196218702Y-99303095D01*
X196790130Y-99874523D01*
X196790130Y-99255476D01*
X196123464Y-98398333D02*
X196790130Y-98398333D01*
X195742511Y-98636428D02*
X196456797Y-98874523D01*
X196456797Y-98255476D01*
%TO.C,L2*%
X195330333Y-95261380D02*
X194854142Y-95261380D01*
X194854142Y-94261380D01*
X195616047Y-94356619D02*
X195663666Y-94309000D01*
X195758904Y-94261380D01*
X195997000Y-94261380D01*
X196092238Y-94309000D01*
X196139857Y-94356619D01*
X196187476Y-94451857D01*
X196187476Y-94547095D01*
X196139857Y-94689952D01*
X195568428Y-95261380D01*
X196187476Y-95261380D01*
%TO.C,U3*%
X206060095Y-89861380D02*
X206060095Y-90670904D01*
X206107714Y-90766142D01*
X206155333Y-90813761D01*
X206250571Y-90861380D01*
X206441047Y-90861380D01*
X206536285Y-90813761D01*
X206583904Y-90766142D01*
X206631523Y-90670904D01*
X206631523Y-89861380D01*
X207012476Y-89861380D02*
X207631523Y-89861380D01*
X207298190Y-90242333D01*
X207441047Y-90242333D01*
X207536285Y-90289952D01*
X207583904Y-90337571D01*
X207631523Y-90432809D01*
X207631523Y-90670904D01*
X207583904Y-90766142D01*
X207536285Y-90813761D01*
X207441047Y-90861380D01*
X207155333Y-90861380D01*
X207060095Y-90813761D01*
X207012476Y-90766142D01*
%TO.C,D3*%
X227988904Y-81070380D02*
X227988904Y-80070380D01*
X228227000Y-80070380D01*
X228369857Y-80118000D01*
X228465095Y-80213238D01*
X228512714Y-80308476D01*
X228560333Y-80498952D01*
X228560333Y-80641809D01*
X228512714Y-80832285D01*
X228465095Y-80927523D01*
X228369857Y-81022761D01*
X228227000Y-81070380D01*
X227988904Y-81070380D01*
X228893666Y-80070380D02*
X229512714Y-80070380D01*
X229179380Y-80451333D01*
X229322238Y-80451333D01*
X229417476Y-80498952D01*
X229465095Y-80546571D01*
X229512714Y-80641809D01*
X229512714Y-80879904D01*
X229465095Y-80975142D01*
X229417476Y-81022761D01*
X229322238Y-81070380D01*
X229036523Y-81070380D01*
X228941285Y-81022761D01*
X228893666Y-80975142D01*
%TO.C,R4*%
X221575333Y-89198380D02*
X221242000Y-88722190D01*
X221003904Y-89198380D02*
X221003904Y-88198380D01*
X221384857Y-88198380D01*
X221480095Y-88246000D01*
X221527714Y-88293619D01*
X221575333Y-88388857D01*
X221575333Y-88531714D01*
X221527714Y-88626952D01*
X221480095Y-88674571D01*
X221384857Y-88722190D01*
X221003904Y-88722190D01*
X222432476Y-88531714D02*
X222432476Y-89198380D01*
X222194380Y-88150761D02*
X221956285Y-88865047D01*
X222575333Y-88865047D01*
%TO.C,L6*%
X187755333Y-93186380D02*
X187279142Y-93186380D01*
X187279142Y-92186380D01*
X188517238Y-92186380D02*
X188326761Y-92186380D01*
X188231523Y-92234000D01*
X188183904Y-92281619D01*
X188088666Y-92424476D01*
X188041047Y-92614952D01*
X188041047Y-92995904D01*
X188088666Y-93091142D01*
X188136285Y-93138761D01*
X188231523Y-93186380D01*
X188422000Y-93186380D01*
X188517238Y-93138761D01*
X188564857Y-93091142D01*
X188612476Y-92995904D01*
X188612476Y-92757809D01*
X188564857Y-92662571D01*
X188517238Y-92614952D01*
X188422000Y-92567333D01*
X188231523Y-92567333D01*
X188136285Y-92614952D01*
X188088666Y-92662571D01*
X188041047Y-92757809D01*
%TO.C,C25*%
X204204142Y-98791142D02*
X204156523Y-98838761D01*
X204013666Y-98886380D01*
X203918428Y-98886380D01*
X203775571Y-98838761D01*
X203680333Y-98743523D01*
X203632714Y-98648285D01*
X203585095Y-98457809D01*
X203585095Y-98314952D01*
X203632714Y-98124476D01*
X203680333Y-98029238D01*
X203775571Y-97934000D01*
X203918428Y-97886380D01*
X204013666Y-97886380D01*
X204156523Y-97934000D01*
X204204142Y-97981619D01*
X204585095Y-97981619D02*
X204632714Y-97934000D01*
X204727952Y-97886380D01*
X204966047Y-97886380D01*
X205061285Y-97934000D01*
X205108904Y-97981619D01*
X205156523Y-98076857D01*
X205156523Y-98172095D01*
X205108904Y-98314952D01*
X204537476Y-98886380D01*
X205156523Y-98886380D01*
X206061285Y-97886380D02*
X205585095Y-97886380D01*
X205537476Y-98362571D01*
X205585095Y-98314952D01*
X205680333Y-98267333D01*
X205918428Y-98267333D01*
X206013666Y-98314952D01*
X206061285Y-98362571D01*
X206108904Y-98457809D01*
X206108904Y-98695904D01*
X206061285Y-98791142D01*
X206013666Y-98838761D01*
X205918428Y-98886380D01*
X205680333Y-98886380D01*
X205585095Y-98838761D01*
X205537476Y-98791142D01*
%TO.C,EX1*%
X204701571Y-70254666D02*
X204701571Y-69921333D01*
X205225380Y-69778476D02*
X205225380Y-70254666D01*
X204225380Y-70254666D01*
X204225380Y-69778476D01*
X204225380Y-69445142D02*
X205225380Y-68778476D01*
X204225380Y-68778476D02*
X205225380Y-69445142D01*
X205225380Y-67873714D02*
X205225380Y-68445142D01*
X205225380Y-68159428D02*
X204225380Y-68159428D01*
X204368238Y-68254666D01*
X204463476Y-68349904D01*
X204511095Y-68445142D01*
%TO.C,Y1*%
X202088809Y-79478190D02*
X202088809Y-79954380D01*
X201755476Y-78954380D02*
X202088809Y-79478190D01*
X202422142Y-78954380D01*
X203279285Y-79954380D02*
X202707857Y-79954380D01*
X202993571Y-79954380D02*
X202993571Y-78954380D01*
X202898333Y-79097238D01*
X202803095Y-79192476D01*
X202707857Y-79240095D01*
%TO.C,C31*%
X203019892Y-102772142D02*
X202972273Y-102819761D01*
X202829416Y-102867380D01*
X202734178Y-102867380D01*
X202591321Y-102819761D01*
X202496083Y-102724523D01*
X202448464Y-102629285D01*
X202400845Y-102438809D01*
X202400845Y-102295952D01*
X202448464Y-102105476D01*
X202496083Y-102010238D01*
X202591321Y-101915000D01*
X202734178Y-101867380D01*
X202829416Y-101867380D01*
X202972273Y-101915000D01*
X203019892Y-101962619D01*
X203353226Y-101867380D02*
X203972273Y-101867380D01*
X203638940Y-102248333D01*
X203781797Y-102248333D01*
X203877035Y-102295952D01*
X203924654Y-102343571D01*
X203972273Y-102438809D01*
X203972273Y-102676904D01*
X203924654Y-102772142D01*
X203877035Y-102819761D01*
X203781797Y-102867380D01*
X203496083Y-102867380D01*
X203400845Y-102819761D01*
X203353226Y-102772142D01*
X204924654Y-102867380D02*
X204353226Y-102867380D01*
X204638940Y-102867380D02*
X204638940Y-101867380D01*
X204543702Y-102010238D01*
X204448464Y-102105476D01*
X204353226Y-102153095D01*
%TO.C,C34*%
X192854142Y-88041142D02*
X192806523Y-88088761D01*
X192663666Y-88136380D01*
X192568428Y-88136380D01*
X192425571Y-88088761D01*
X192330333Y-87993523D01*
X192282714Y-87898285D01*
X192235095Y-87707809D01*
X192235095Y-87564952D01*
X192282714Y-87374476D01*
X192330333Y-87279238D01*
X192425571Y-87184000D01*
X192568428Y-87136380D01*
X192663666Y-87136380D01*
X192806523Y-87184000D01*
X192854142Y-87231619D01*
X193187476Y-87136380D02*
X193806523Y-87136380D01*
X193473190Y-87517333D01*
X193616047Y-87517333D01*
X193711285Y-87564952D01*
X193758904Y-87612571D01*
X193806523Y-87707809D01*
X193806523Y-87945904D01*
X193758904Y-88041142D01*
X193711285Y-88088761D01*
X193616047Y-88136380D01*
X193330333Y-88136380D01*
X193235095Y-88088761D01*
X193187476Y-88041142D01*
X194663666Y-87469714D02*
X194663666Y-88136380D01*
X194425571Y-87088761D02*
X194187476Y-87803047D01*
X194806523Y-87803047D01*
%TO.C,C11*%
X208764142Y-81795857D02*
X208811761Y-81843476D01*
X208859380Y-81986333D01*
X208859380Y-82081571D01*
X208811761Y-82224428D01*
X208716523Y-82319666D01*
X208621285Y-82367285D01*
X208430809Y-82414904D01*
X208287952Y-82414904D01*
X208097476Y-82367285D01*
X208002238Y-82319666D01*
X207907000Y-82224428D01*
X207859380Y-82081571D01*
X207859380Y-81986333D01*
X207907000Y-81843476D01*
X207954619Y-81795857D01*
X208859380Y-80843476D02*
X208859380Y-81414904D01*
X208859380Y-81129190D02*
X207859380Y-81129190D01*
X208002238Y-81224428D01*
X208097476Y-81319666D01*
X208145095Y-81414904D01*
X208859380Y-79891095D02*
X208859380Y-80462523D01*
X208859380Y-80176809D02*
X207859380Y-80176809D01*
X208002238Y-80272047D01*
X208097476Y-80367285D01*
X208145095Y-80462523D01*
%TO.C,C36*%
X210519892Y-99372142D02*
X210472273Y-99419761D01*
X210329416Y-99467380D01*
X210234178Y-99467380D01*
X210091321Y-99419761D01*
X209996083Y-99324523D01*
X209948464Y-99229285D01*
X209900845Y-99038809D01*
X209900845Y-98895952D01*
X209948464Y-98705476D01*
X209996083Y-98610238D01*
X210091321Y-98515000D01*
X210234178Y-98467380D01*
X210329416Y-98467380D01*
X210472273Y-98515000D01*
X210519892Y-98562619D01*
X210853226Y-98467380D02*
X211472273Y-98467380D01*
X211138940Y-98848333D01*
X211281797Y-98848333D01*
X211377035Y-98895952D01*
X211424654Y-98943571D01*
X211472273Y-99038809D01*
X211472273Y-99276904D01*
X211424654Y-99372142D01*
X211377035Y-99419761D01*
X211281797Y-99467380D01*
X210996083Y-99467380D01*
X210900845Y-99419761D01*
X210853226Y-99372142D01*
X212329416Y-98467380D02*
X212138940Y-98467380D01*
X212043702Y-98515000D01*
X211996083Y-98562619D01*
X211900845Y-98705476D01*
X211853226Y-98895952D01*
X211853226Y-99276904D01*
X211900845Y-99372142D01*
X211948464Y-99419761D01*
X212043702Y-99467380D01*
X212234178Y-99467380D01*
X212329416Y-99419761D01*
X212377035Y-99372142D01*
X212424654Y-99276904D01*
X212424654Y-99038809D01*
X212377035Y-98943571D01*
X212329416Y-98895952D01*
X212234178Y-98848333D01*
X212043702Y-98848333D01*
X211948464Y-98895952D01*
X211900845Y-98943571D01*
X211853226Y-99038809D01*
%TO.C,C28*%
X201919892Y-102657857D02*
X201967511Y-102705476D01*
X202015130Y-102848333D01*
X202015130Y-102943571D01*
X201967511Y-103086428D01*
X201872273Y-103181666D01*
X201777035Y-103229285D01*
X201586559Y-103276904D01*
X201443702Y-103276904D01*
X201253226Y-103229285D01*
X201157988Y-103181666D01*
X201062750Y-103086428D01*
X201015130Y-102943571D01*
X201015130Y-102848333D01*
X201062750Y-102705476D01*
X201110369Y-102657857D01*
X201110369Y-102276904D02*
X201062750Y-102229285D01*
X201015130Y-102134047D01*
X201015130Y-101895952D01*
X201062750Y-101800714D01*
X201110369Y-101753095D01*
X201205607Y-101705476D01*
X201300845Y-101705476D01*
X201443702Y-101753095D01*
X202015130Y-102324523D01*
X202015130Y-101705476D01*
X201443702Y-101134047D02*
X201396083Y-101229285D01*
X201348464Y-101276904D01*
X201253226Y-101324523D01*
X201205607Y-101324523D01*
X201110369Y-101276904D01*
X201062750Y-101229285D01*
X201015130Y-101134047D01*
X201015130Y-100943571D01*
X201062750Y-100848333D01*
X201110369Y-100800714D01*
X201205607Y-100753095D01*
X201253226Y-100753095D01*
X201348464Y-100800714D01*
X201396083Y-100848333D01*
X201443702Y-100943571D01*
X201443702Y-101134047D01*
X201491321Y-101229285D01*
X201538940Y-101276904D01*
X201634178Y-101324523D01*
X201824654Y-101324523D01*
X201919892Y-101276904D01*
X201967511Y-101229285D01*
X202015130Y-101134047D01*
X202015130Y-100943571D01*
X201967511Y-100848333D01*
X201919892Y-100800714D01*
X201824654Y-100753095D01*
X201634178Y-100753095D01*
X201538940Y-100800714D01*
X201491321Y-100848333D01*
X201443702Y-100943571D01*
%TO.C,X1*%
X207787476Y-103361380D02*
X208454142Y-104361380D01*
X208454142Y-103361380D02*
X207787476Y-104361380D01*
X209358904Y-104361380D02*
X208787476Y-104361380D01*
X209073190Y-104361380D02*
X209073190Y-103361380D01*
X208977952Y-103504238D01*
X208882714Y-103599476D01*
X208787476Y-103647095D01*
%TO.C,C4*%
X220432333Y-84685142D02*
X220384714Y-84732761D01*
X220241857Y-84780380D01*
X220146619Y-84780380D01*
X220003761Y-84732761D01*
X219908523Y-84637523D01*
X219860904Y-84542285D01*
X219813285Y-84351809D01*
X219813285Y-84208952D01*
X219860904Y-84018476D01*
X219908523Y-83923238D01*
X220003761Y-83828000D01*
X220146619Y-83780380D01*
X220241857Y-83780380D01*
X220384714Y-83828000D01*
X220432333Y-83875619D01*
X221289476Y-84113714D02*
X221289476Y-84780380D01*
X221051380Y-83732761D02*
X220813285Y-84447047D01*
X221432333Y-84447047D01*
%TO.C,C17*%
X203919892Y-87457857D02*
X203967511Y-87505476D01*
X204015130Y-87648333D01*
X204015130Y-87743571D01*
X203967511Y-87886428D01*
X203872273Y-87981666D01*
X203777035Y-88029285D01*
X203586559Y-88076904D01*
X203443702Y-88076904D01*
X203253226Y-88029285D01*
X203157988Y-87981666D01*
X203062750Y-87886428D01*
X203015130Y-87743571D01*
X203015130Y-87648333D01*
X203062750Y-87505476D01*
X203110369Y-87457857D01*
X204015130Y-86505476D02*
X204015130Y-87076904D01*
X204015130Y-86791190D02*
X203015130Y-86791190D01*
X203157988Y-86886428D01*
X203253226Y-86981666D01*
X203300845Y-87076904D01*
X203015130Y-86172142D02*
X203015130Y-85505476D01*
X204015130Y-85934047D01*
%TO.C,C16*%
X210094892Y-92691142D02*
X210047273Y-92738761D01*
X209904416Y-92786380D01*
X209809178Y-92786380D01*
X209666321Y-92738761D01*
X209571083Y-92643523D01*
X209523464Y-92548285D01*
X209475845Y-92357809D01*
X209475845Y-92214952D01*
X209523464Y-92024476D01*
X209571083Y-91929238D01*
X209666321Y-91834000D01*
X209809178Y-91786380D01*
X209904416Y-91786380D01*
X210047273Y-91834000D01*
X210094892Y-91881619D01*
X211047273Y-92786380D02*
X210475845Y-92786380D01*
X210761559Y-92786380D02*
X210761559Y-91786380D01*
X210666321Y-91929238D01*
X210571083Y-92024476D01*
X210475845Y-92072095D01*
X211904416Y-91786380D02*
X211713940Y-91786380D01*
X211618702Y-91834000D01*
X211571083Y-91881619D01*
X211475845Y-92024476D01*
X211428226Y-92214952D01*
X211428226Y-92595904D01*
X211475845Y-92691142D01*
X211523464Y-92738761D01*
X211618702Y-92786380D01*
X211809178Y-92786380D01*
X211904416Y-92738761D01*
X211952035Y-92691142D01*
X211999654Y-92595904D01*
X211999654Y-92357809D01*
X211952035Y-92262571D01*
X211904416Y-92214952D01*
X211809178Y-92167333D01*
X211618702Y-92167333D01*
X211523464Y-92214952D01*
X211475845Y-92262571D01*
X211428226Y-92357809D01*
%TO.C,R3*%
X221575333Y-91992380D02*
X221242000Y-91516190D01*
X221003904Y-91992380D02*
X221003904Y-90992380D01*
X221384857Y-90992380D01*
X221480095Y-91040000D01*
X221527714Y-91087619D01*
X221575333Y-91182857D01*
X221575333Y-91325714D01*
X221527714Y-91420952D01*
X221480095Y-91468571D01*
X221384857Y-91516190D01*
X221003904Y-91516190D01*
X221908666Y-90992380D02*
X222527714Y-90992380D01*
X222194380Y-91373333D01*
X222337238Y-91373333D01*
X222432476Y-91420952D01*
X222480095Y-91468571D01*
X222527714Y-91563809D01*
X222527714Y-91801904D01*
X222480095Y-91897142D01*
X222432476Y-91944761D01*
X222337238Y-91992380D01*
X222051523Y-91992380D01*
X221956285Y-91944761D01*
X221908666Y-91897142D01*
%TO.C,R9*%
X195480333Y-89336380D02*
X195147000Y-88860190D01*
X194908904Y-89336380D02*
X194908904Y-88336380D01*
X195289857Y-88336380D01*
X195385095Y-88384000D01*
X195432714Y-88431619D01*
X195480333Y-88526857D01*
X195480333Y-88669714D01*
X195432714Y-88764952D01*
X195385095Y-88812571D01*
X195289857Y-88860190D01*
X194908904Y-88860190D01*
X195956523Y-89336380D02*
X196147000Y-89336380D01*
X196242238Y-89288761D01*
X196289857Y-89241142D01*
X196385095Y-89098285D01*
X196432714Y-88907809D01*
X196432714Y-88526857D01*
X196385095Y-88431619D01*
X196337476Y-88384000D01*
X196242238Y-88336380D01*
X196051761Y-88336380D01*
X195956523Y-88384000D01*
X195908904Y-88431619D01*
X195861285Y-88526857D01*
X195861285Y-88764952D01*
X195908904Y-88860190D01*
X195956523Y-88907809D01*
X196051761Y-88955428D01*
X196242238Y-88955428D01*
X196337476Y-88907809D01*
X196385095Y-88860190D01*
X196432714Y-88764952D01*
%TO.C,C33*%
X193904142Y-93066142D02*
X193856523Y-93113761D01*
X193713666Y-93161380D01*
X193618428Y-93161380D01*
X193475571Y-93113761D01*
X193380333Y-93018523D01*
X193332714Y-92923285D01*
X193285095Y-92732809D01*
X193285095Y-92589952D01*
X193332714Y-92399476D01*
X193380333Y-92304238D01*
X193475571Y-92209000D01*
X193618428Y-92161380D01*
X193713666Y-92161380D01*
X193856523Y-92209000D01*
X193904142Y-92256619D01*
X194237476Y-92161380D02*
X194856523Y-92161380D01*
X194523190Y-92542333D01*
X194666047Y-92542333D01*
X194761285Y-92589952D01*
X194808904Y-92637571D01*
X194856523Y-92732809D01*
X194856523Y-92970904D01*
X194808904Y-93066142D01*
X194761285Y-93113761D01*
X194666047Y-93161380D01*
X194380333Y-93161380D01*
X194285095Y-93113761D01*
X194237476Y-93066142D01*
X195189857Y-92161380D02*
X195808904Y-92161380D01*
X195475571Y-92542333D01*
X195618428Y-92542333D01*
X195713666Y-92589952D01*
X195761285Y-92637571D01*
X195808904Y-92732809D01*
X195808904Y-92970904D01*
X195761285Y-93066142D01*
X195713666Y-93113761D01*
X195618428Y-93161380D01*
X195332714Y-93161380D01*
X195237476Y-93113761D01*
X195189857Y-93066142D01*
%TO.C,L3*%
X187405333Y-95686380D02*
X186929142Y-95686380D01*
X186929142Y-94686380D01*
X187643428Y-94686380D02*
X188262476Y-94686380D01*
X187929142Y-95067333D01*
X188072000Y-95067333D01*
X188167238Y-95114952D01*
X188214857Y-95162571D01*
X188262476Y-95257809D01*
X188262476Y-95495904D01*
X188214857Y-95591142D01*
X188167238Y-95638761D01*
X188072000Y-95686380D01*
X187786285Y-95686380D01*
X187691047Y-95638761D01*
X187643428Y-95591142D01*
%TO.C,C37*%
X185929142Y-88241142D02*
X185881523Y-88288761D01*
X185738666Y-88336380D01*
X185643428Y-88336380D01*
X185500571Y-88288761D01*
X185405333Y-88193523D01*
X185357714Y-88098285D01*
X185310095Y-87907809D01*
X185310095Y-87764952D01*
X185357714Y-87574476D01*
X185405333Y-87479238D01*
X185500571Y-87384000D01*
X185643428Y-87336380D01*
X185738666Y-87336380D01*
X185881523Y-87384000D01*
X185929142Y-87431619D01*
X186262476Y-87336380D02*
X186881523Y-87336380D01*
X186548190Y-87717333D01*
X186691047Y-87717333D01*
X186786285Y-87764952D01*
X186833904Y-87812571D01*
X186881523Y-87907809D01*
X186881523Y-88145904D01*
X186833904Y-88241142D01*
X186786285Y-88288761D01*
X186691047Y-88336380D01*
X186405333Y-88336380D01*
X186310095Y-88288761D01*
X186262476Y-88241142D01*
X187214857Y-87336380D02*
X187881523Y-87336380D01*
X187452952Y-88336380D01*
%TO.C,C13*%
X224020142Y-97639142D02*
X223972523Y-97686761D01*
X223829666Y-97734380D01*
X223734428Y-97734380D01*
X223591571Y-97686761D01*
X223496333Y-97591523D01*
X223448714Y-97496285D01*
X223401095Y-97305809D01*
X223401095Y-97162952D01*
X223448714Y-96972476D01*
X223496333Y-96877238D01*
X223591571Y-96782000D01*
X223734428Y-96734380D01*
X223829666Y-96734380D01*
X223972523Y-96782000D01*
X224020142Y-96829619D01*
X224972523Y-97734380D02*
X224401095Y-97734380D01*
X224686809Y-97734380D02*
X224686809Y-96734380D01*
X224591571Y-96877238D01*
X224496333Y-96972476D01*
X224401095Y-97020095D01*
X225305857Y-96734380D02*
X225924904Y-96734380D01*
X225591571Y-97115333D01*
X225734428Y-97115333D01*
X225829666Y-97162952D01*
X225877285Y-97210571D01*
X225924904Y-97305809D01*
X225924904Y-97543904D01*
X225877285Y-97639142D01*
X225829666Y-97686761D01*
X225734428Y-97734380D01*
X225448714Y-97734380D01*
X225353476Y-97686761D01*
X225305857Y-97639142D01*
%TO.C,L4*%
X190296083Y-94467380D02*
X189819892Y-94467380D01*
X189819892Y-93467380D01*
X191057988Y-93800714D02*
X191057988Y-94467380D01*
X190819892Y-93419761D02*
X190581797Y-94134047D01*
X191200845Y-94134047D01*
%TO.C,C10*%
X209415142Y-79732142D02*
X209367523Y-79779761D01*
X209224666Y-79827380D01*
X209129428Y-79827380D01*
X208986571Y-79779761D01*
X208891333Y-79684523D01*
X208843714Y-79589285D01*
X208796095Y-79398809D01*
X208796095Y-79255952D01*
X208843714Y-79065476D01*
X208891333Y-78970238D01*
X208986571Y-78875000D01*
X209129428Y-78827380D01*
X209224666Y-78827380D01*
X209367523Y-78875000D01*
X209415142Y-78922619D01*
X210367523Y-79827380D02*
X209796095Y-79827380D01*
X210081809Y-79827380D02*
X210081809Y-78827380D01*
X209986571Y-78970238D01*
X209891333Y-79065476D01*
X209796095Y-79113095D01*
X210986571Y-78827380D02*
X211081809Y-78827380D01*
X211177047Y-78875000D01*
X211224666Y-78922619D01*
X211272285Y-79017857D01*
X211319904Y-79208333D01*
X211319904Y-79446428D01*
X211272285Y-79636904D01*
X211224666Y-79732142D01*
X211177047Y-79779761D01*
X211081809Y-79827380D01*
X210986571Y-79827380D01*
X210891333Y-79779761D01*
X210843714Y-79732142D01*
X210796095Y-79636904D01*
X210748476Y-79446428D01*
X210748476Y-79208333D01*
X210796095Y-79017857D01*
X210843714Y-78922619D01*
X210891333Y-78875000D01*
X210986571Y-78827380D01*
%TO.C,C30*%
X196879142Y-93966142D02*
X196831523Y-94013761D01*
X196688666Y-94061380D01*
X196593428Y-94061380D01*
X196450571Y-94013761D01*
X196355333Y-93918523D01*
X196307714Y-93823285D01*
X196260095Y-93632809D01*
X196260095Y-93489952D01*
X196307714Y-93299476D01*
X196355333Y-93204238D01*
X196450571Y-93109000D01*
X196593428Y-93061380D01*
X196688666Y-93061380D01*
X196831523Y-93109000D01*
X196879142Y-93156619D01*
X197212476Y-93061380D02*
X197831523Y-93061380D01*
X197498190Y-93442333D01*
X197641047Y-93442333D01*
X197736285Y-93489952D01*
X197783904Y-93537571D01*
X197831523Y-93632809D01*
X197831523Y-93870904D01*
X197783904Y-93966142D01*
X197736285Y-94013761D01*
X197641047Y-94061380D01*
X197355333Y-94061380D01*
X197260095Y-94013761D01*
X197212476Y-93966142D01*
X198450571Y-93061380D02*
X198545809Y-93061380D01*
X198641047Y-93109000D01*
X198688666Y-93156619D01*
X198736285Y-93251857D01*
X198783904Y-93442333D01*
X198783904Y-93680428D01*
X198736285Y-93870904D01*
X198688666Y-93966142D01*
X198641047Y-94013761D01*
X198545809Y-94061380D01*
X198450571Y-94061380D01*
X198355333Y-94013761D01*
X198307714Y-93966142D01*
X198260095Y-93870904D01*
X198212476Y-93680428D01*
X198212476Y-93442333D01*
X198260095Y-93251857D01*
X198307714Y-93156619D01*
X198355333Y-93109000D01*
X198450571Y-93061380D01*
%TO.C,C35*%
X191719892Y-87657857D02*
X191767511Y-87705476D01*
X191815130Y-87848333D01*
X191815130Y-87943571D01*
X191767511Y-88086428D01*
X191672273Y-88181666D01*
X191577035Y-88229285D01*
X191386559Y-88276904D01*
X191243702Y-88276904D01*
X191053226Y-88229285D01*
X190957988Y-88181666D01*
X190862750Y-88086428D01*
X190815130Y-87943571D01*
X190815130Y-87848333D01*
X190862750Y-87705476D01*
X190910369Y-87657857D01*
X190815130Y-87324523D02*
X190815130Y-86705476D01*
X191196083Y-87038809D01*
X191196083Y-86895952D01*
X191243702Y-86800714D01*
X191291321Y-86753095D01*
X191386559Y-86705476D01*
X191624654Y-86705476D01*
X191719892Y-86753095D01*
X191767511Y-86800714D01*
X191815130Y-86895952D01*
X191815130Y-87181666D01*
X191767511Y-87276904D01*
X191719892Y-87324523D01*
X190815130Y-85800714D02*
X190815130Y-86276904D01*
X191291321Y-86324523D01*
X191243702Y-86276904D01*
X191196083Y-86181666D01*
X191196083Y-85943571D01*
X191243702Y-85848333D01*
X191291321Y-85800714D01*
X191386559Y-85753095D01*
X191624654Y-85753095D01*
X191719892Y-85800714D01*
X191767511Y-85848333D01*
X191815130Y-85943571D01*
X191815130Y-86181666D01*
X191767511Y-86276904D01*
X191719892Y-86324523D01*
%TO.C,L8*%
X186205333Y-91461380D02*
X185729142Y-91461380D01*
X185729142Y-90461380D01*
X186681523Y-90889952D02*
X186586285Y-90842333D01*
X186538666Y-90794714D01*
X186491047Y-90699476D01*
X186491047Y-90651857D01*
X186538666Y-90556619D01*
X186586285Y-90509000D01*
X186681523Y-90461380D01*
X186872000Y-90461380D01*
X186967238Y-90509000D01*
X187014857Y-90556619D01*
X187062476Y-90651857D01*
X187062476Y-90699476D01*
X187014857Y-90794714D01*
X186967238Y-90842333D01*
X186872000Y-90889952D01*
X186681523Y-90889952D01*
X186586285Y-90937571D01*
X186538666Y-90985190D01*
X186491047Y-91080428D01*
X186491047Y-91270904D01*
X186538666Y-91366142D01*
X186586285Y-91413761D01*
X186681523Y-91461380D01*
X186872000Y-91461380D01*
X186967238Y-91413761D01*
X187014857Y-91366142D01*
X187062476Y-91270904D01*
X187062476Y-91080428D01*
X187014857Y-90985190D01*
X186967238Y-90937571D01*
X186872000Y-90889952D01*
%TO.C,C3*%
X203287333Y-77446142D02*
X203239714Y-77493761D01*
X203096857Y-77541380D01*
X203001619Y-77541380D01*
X202858761Y-77493761D01*
X202763523Y-77398523D01*
X202715904Y-77303285D01*
X202668285Y-77112809D01*
X202668285Y-76969952D01*
X202715904Y-76779476D01*
X202763523Y-76684238D01*
X202858761Y-76589000D01*
X203001619Y-76541380D01*
X203096857Y-76541380D01*
X203239714Y-76589000D01*
X203287333Y-76636619D01*
X203620666Y-76541380D02*
X204239714Y-76541380D01*
X203906380Y-76922333D01*
X204049238Y-76922333D01*
X204144476Y-76969952D01*
X204192095Y-77017571D01*
X204239714Y-77112809D01*
X204239714Y-77350904D01*
X204192095Y-77446142D01*
X204144476Y-77493761D01*
X204049238Y-77541380D01*
X203763523Y-77541380D01*
X203668285Y-77493761D01*
X203620666Y-77446142D01*
%TO.C,C12*%
X211193142Y-86082142D02*
X211145523Y-86129761D01*
X211002666Y-86177380D01*
X210907428Y-86177380D01*
X210764571Y-86129761D01*
X210669333Y-86034523D01*
X210621714Y-85939285D01*
X210574095Y-85748809D01*
X210574095Y-85605952D01*
X210621714Y-85415476D01*
X210669333Y-85320238D01*
X210764571Y-85225000D01*
X210907428Y-85177380D01*
X211002666Y-85177380D01*
X211145523Y-85225000D01*
X211193142Y-85272619D01*
X212145523Y-86177380D02*
X211574095Y-86177380D01*
X211859809Y-86177380D02*
X211859809Y-85177380D01*
X211764571Y-85320238D01*
X211669333Y-85415476D01*
X211574095Y-85463095D01*
X212526476Y-85272619D02*
X212574095Y-85225000D01*
X212669333Y-85177380D01*
X212907428Y-85177380D01*
X213002666Y-85225000D01*
X213050285Y-85272619D01*
X213097904Y-85367857D01*
X213097904Y-85463095D01*
X213050285Y-85605952D01*
X212478857Y-86177380D01*
X213097904Y-86177380D01*
%TO.C,C20*%
X195344892Y-100257857D02*
X195392511Y-100305476D01*
X195440130Y-100448333D01*
X195440130Y-100543571D01*
X195392511Y-100686428D01*
X195297273Y-100781666D01*
X195202035Y-100829285D01*
X195011559Y-100876904D01*
X194868702Y-100876904D01*
X194678226Y-100829285D01*
X194582988Y-100781666D01*
X194487750Y-100686428D01*
X194440130Y-100543571D01*
X194440130Y-100448333D01*
X194487750Y-100305476D01*
X194535369Y-100257857D01*
X194535369Y-99876904D02*
X194487750Y-99829285D01*
X194440130Y-99734047D01*
X194440130Y-99495952D01*
X194487750Y-99400714D01*
X194535369Y-99353095D01*
X194630607Y-99305476D01*
X194725845Y-99305476D01*
X194868702Y-99353095D01*
X195440130Y-99924523D01*
X195440130Y-99305476D01*
X194440130Y-98686428D02*
X194440130Y-98591190D01*
X194487750Y-98495952D01*
X194535369Y-98448333D01*
X194630607Y-98400714D01*
X194821083Y-98353095D01*
X195059178Y-98353095D01*
X195249654Y-98400714D01*
X195344892Y-98448333D01*
X195392511Y-98495952D01*
X195440130Y-98591190D01*
X195440130Y-98686428D01*
X195392511Y-98781666D01*
X195344892Y-98829285D01*
X195249654Y-98876904D01*
X195059178Y-98924523D01*
X194821083Y-98924523D01*
X194630607Y-98876904D01*
X194535369Y-98829285D01*
X194487750Y-98781666D01*
X194440130Y-98686428D01*
%TO.C,J1*%
X220731880Y-93341333D02*
X221446166Y-93341333D01*
X221589023Y-93388952D01*
X221684261Y-93484190D01*
X221731880Y-93627047D01*
X221731880Y-93722285D01*
X221731880Y-92341333D02*
X221731880Y-92912761D01*
X221731880Y-92627047D02*
X220731880Y-92627047D01*
X220874738Y-92722285D01*
X220969976Y-92817523D01*
X221017595Y-92912761D01*
%TO.C,C1*%
X221067333Y-94939142D02*
X221019714Y-94986761D01*
X220876857Y-95034380D01*
X220781619Y-95034380D01*
X220638761Y-94986761D01*
X220543523Y-94891523D01*
X220495904Y-94796285D01*
X220448285Y-94605809D01*
X220448285Y-94462952D01*
X220495904Y-94272476D01*
X220543523Y-94177238D01*
X220638761Y-94082000D01*
X220781619Y-94034380D01*
X220876857Y-94034380D01*
X221019714Y-94082000D01*
X221067333Y-94129619D01*
X222019714Y-95034380D02*
X221448285Y-95034380D01*
X221734000Y-95034380D02*
X221734000Y-94034380D01*
X221638761Y-94177238D01*
X221543523Y-94272476D01*
X221448285Y-94320095D01*
%TO.C,R8*%
X202649380Y-87325666D02*
X202173190Y-87659000D01*
X202649380Y-87897095D02*
X201649380Y-87897095D01*
X201649380Y-87516142D01*
X201697000Y-87420904D01*
X201744619Y-87373285D01*
X201839857Y-87325666D01*
X201982714Y-87325666D01*
X202077952Y-87373285D01*
X202125571Y-87420904D01*
X202173190Y-87516142D01*
X202173190Y-87897095D01*
X202077952Y-86754238D02*
X202030333Y-86849476D01*
X201982714Y-86897095D01*
X201887476Y-86944714D01*
X201839857Y-86944714D01*
X201744619Y-86897095D01*
X201697000Y-86849476D01*
X201649380Y-86754238D01*
X201649380Y-86563761D01*
X201697000Y-86468523D01*
X201744619Y-86420904D01*
X201839857Y-86373285D01*
X201887476Y-86373285D01*
X201982714Y-86420904D01*
X202030333Y-86468523D01*
X202077952Y-86563761D01*
X202077952Y-86754238D01*
X202125571Y-86849476D01*
X202173190Y-86897095D01*
X202268428Y-86944714D01*
X202458904Y-86944714D01*
X202554142Y-86897095D01*
X202601761Y-86849476D01*
X202649380Y-86754238D01*
X202649380Y-86563761D01*
X202601761Y-86468523D01*
X202554142Y-86420904D01*
X202458904Y-86373285D01*
X202268428Y-86373285D01*
X202173190Y-86420904D01*
X202125571Y-86468523D01*
X202077952Y-86563761D01*
%TO.C,C2*%
X218781333Y-87639142D02*
X218733714Y-87686761D01*
X218590857Y-87734380D01*
X218495619Y-87734380D01*
X218352761Y-87686761D01*
X218257523Y-87591523D01*
X218209904Y-87496285D01*
X218162285Y-87305809D01*
X218162285Y-87162952D01*
X218209904Y-86972476D01*
X218257523Y-86877238D01*
X218352761Y-86782000D01*
X218495619Y-86734380D01*
X218590857Y-86734380D01*
X218733714Y-86782000D01*
X218781333Y-86829619D01*
X219162285Y-86829619D02*
X219209904Y-86782000D01*
X219305142Y-86734380D01*
X219543238Y-86734380D01*
X219638476Y-86782000D01*
X219686095Y-86829619D01*
X219733714Y-86924857D01*
X219733714Y-87020095D01*
X219686095Y-87162952D01*
X219114666Y-87734380D01*
X219733714Y-87734380D01*
%TO.C,L1*%
X196130333Y-90936380D02*
X195654142Y-90936380D01*
X195654142Y-89936380D01*
X196987476Y-90936380D02*
X196416047Y-90936380D01*
X196701761Y-90936380D02*
X196701761Y-89936380D01*
X196606523Y-90079238D01*
X196511285Y-90174476D01*
X196416047Y-90222095D01*
%TO.C,C27*%
X197319892Y-84772142D02*
X197272273Y-84819761D01*
X197129416Y-84867380D01*
X197034178Y-84867380D01*
X196891321Y-84819761D01*
X196796083Y-84724523D01*
X196748464Y-84629285D01*
X196700845Y-84438809D01*
X196700845Y-84295952D01*
X196748464Y-84105476D01*
X196796083Y-84010238D01*
X196891321Y-83915000D01*
X197034178Y-83867380D01*
X197129416Y-83867380D01*
X197272273Y-83915000D01*
X197319892Y-83962619D01*
X197700845Y-83962619D02*
X197748464Y-83915000D01*
X197843702Y-83867380D01*
X198081797Y-83867380D01*
X198177035Y-83915000D01*
X198224654Y-83962619D01*
X198272273Y-84057857D01*
X198272273Y-84153095D01*
X198224654Y-84295952D01*
X197653226Y-84867380D01*
X198272273Y-84867380D01*
X198605607Y-83867380D02*
X199272273Y-83867380D01*
X198843702Y-84867380D01*
D13*
%TO.C,C18*%
X207182000Y-96876164D02*
X207182000Y-97091836D01*
X206462000Y-96876164D02*
X206462000Y-97091836D01*
%TO.C,P1*%
X177622000Y-87704000D02*
X180522000Y-87704000D01*
X175717000Y-89609000D02*
X175717000Y-92509000D01*
X177622000Y-94414000D02*
X180522000Y-94414000D01*
X182427000Y-89609000D02*
X182427000Y-92509000D01*
%TO.C,U2*%
D14*
X222250000Y-101981000D02*
G75*
G03*
X222250000Y-101981000I-127000J0D01*
G01*
D13*
%TO.C,C26*%
X198632000Y-88841836D02*
X198632000Y-88626164D01*
X197912000Y-88841836D02*
X197912000Y-88626164D01*
%TO.C,U1*%
X212511000Y-75892000D02*
X212036000Y-75892000D01*
X218781000Y-83112000D02*
X219256000Y-83112000D01*
X212036000Y-83112000D02*
X212036000Y-82637000D01*
X212511000Y-83112000D02*
X212036000Y-83112000D01*
X218781000Y-75892000D02*
X219256000Y-75892000D01*
X219256000Y-83112000D02*
X219256000Y-82637000D01*
X219256000Y-75892000D02*
X219256000Y-76367000D01*
D11*
%TO.C,D4*%
X225528000Y-100838000D02*
G75*
G03*
X225528000Y-100838000I-50000J0D01*
G01*
D13*
%TO.C,C29*%
X199237000Y-98941836D02*
X199237000Y-98726164D01*
X199957000Y-98941836D02*
X199957000Y-98726164D01*
%TO.C,C32*%
X192089164Y-95024000D02*
X192304836Y-95024000D01*
X192089164Y-95744000D02*
X192304836Y-95744000D01*
%TO.C,C22*%
X197432000Y-86766836D02*
X197432000Y-86551164D01*
X196712000Y-86766836D02*
X196712000Y-86551164D01*
%TO.C,C6*%
X205632164Y-81428000D02*
X205847836Y-81428000D01*
X205632164Y-82148000D02*
X205847836Y-82148000D01*
D11*
%TO.C,D2*%
X227687000Y-84328000D02*
G75*
G03*
X227687000Y-84328000I-50000J0D01*
G01*
D13*
%TO.C,C21*%
X198607000Y-96326164D02*
X198607000Y-96541836D01*
X197887000Y-96326164D02*
X197887000Y-96541836D01*
%TO.C,C9*%
X216556000Y-84502164D02*
X216556000Y-84717836D01*
X217276000Y-84502164D02*
X217276000Y-84717836D01*
%TO.C,L5*%
X193104836Y-89749000D02*
X192889164Y-89749000D01*
X193104836Y-90469000D02*
X192889164Y-90469000D01*
%TO.C,C19*%
X200337000Y-89241836D02*
X200337000Y-89026164D01*
X201057000Y-89241836D02*
X201057000Y-89026164D01*
%TO.C,R12*%
X218847641Y-97281000D02*
X218540359Y-97281000D01*
X218847641Y-96521000D02*
X218540359Y-96521000D01*
%TO.C,C23*%
X200312000Y-98966836D02*
X200312000Y-98751164D01*
X201032000Y-98966836D02*
X201032000Y-98751164D01*
D11*
%TO.C,D5*%
X225528000Y-102616000D02*
G75*
G03*
X225528000Y-102616000I-50000J0D01*
G01*
D13*
%TO.C,C7*%
X211180000Y-76561836D02*
X211180000Y-76346164D01*
X210460000Y-76561836D02*
X210460000Y-76346164D01*
%TO.C,L7*%
X190432000Y-90451164D02*
X190432000Y-90666836D01*
X189712000Y-90451164D02*
X189712000Y-90666836D01*
%TO.C,R6*%
X226213641Y-83948000D02*
X225906359Y-83948000D01*
X226213641Y-84708000D02*
X225906359Y-84708000D01*
%TO.C,C8*%
X220239000Y-76600164D02*
X220239000Y-76815836D01*
X220959000Y-76600164D02*
X220959000Y-76815836D01*
%TO.C,C15*%
X207789164Y-93249000D02*
X208004836Y-93249000D01*
X207789164Y-93969000D02*
X208004836Y-93969000D01*
%TO.C,FB1*%
X209294000Y-83403221D02*
X209294000Y-83728779D01*
X210314000Y-83403221D02*
X210314000Y-83728779D01*
%TO.C,C5*%
X212490164Y-74316000D02*
X212705836Y-74316000D01*
X212490164Y-75036000D02*
X212705836Y-75036000D01*
%TO.C,C24*%
X196737000Y-96326164D02*
X196737000Y-96541836D01*
X197457000Y-96326164D02*
X197457000Y-96541836D01*
%TO.C,L2*%
X194482000Y-94276164D02*
X194482000Y-94491836D01*
X193762000Y-94276164D02*
X193762000Y-94491836D01*
%TO.C,U3*%
X199962000Y-91624000D02*
X199962000Y-92099000D01*
X204707000Y-91624000D02*
X205182000Y-91624000D01*
X200437000Y-91624000D02*
X199962000Y-91624000D01*
X199962000Y-96844000D02*
X199962000Y-96369000D01*
X204707000Y-96844000D02*
X205182000Y-96844000D01*
X205182000Y-91624000D02*
X205182000Y-92099000D01*
X200437000Y-96844000D02*
X199962000Y-96844000D01*
%TO.C,R10*%
X229007641Y-101218000D02*
X228700359Y-101218000D01*
X229007641Y-100458000D02*
X228700359Y-100458000D01*
D11*
%TO.C,D3*%
X227687000Y-81788000D02*
G75*
G03*
X227687000Y-81788000I-50000J0D01*
G01*
D13*
%TO.C,R4*%
X221588359Y-89536000D02*
X221895641Y-89536000D01*
X221588359Y-90296000D02*
X221895641Y-90296000D01*
%TO.C,L6*%
X189789164Y-92424000D02*
X190004836Y-92424000D01*
X189789164Y-93144000D02*
X190004836Y-93144000D01*
%TO.C,C25*%
X203182000Y-98991836D02*
X203182000Y-98776164D01*
X202462000Y-98991836D02*
X202462000Y-98776164D01*
%TO.C,EX1*%
X203773000Y-67758000D02*
X203773000Y-69088000D01*
X201173000Y-67758000D02*
X185873000Y-67758000D01*
X202443000Y-67758000D02*
X203773000Y-67758000D01*
X201173000Y-67758000D02*
X201173000Y-70418000D01*
X201173000Y-70418000D02*
X185873000Y-70418000D01*
X185873000Y-67758000D02*
X185873000Y-70418000D01*
%TO.C,Y1*%
X207486000Y-77852000D02*
X203486000Y-77852000D01*
X207486000Y-81152000D02*
X207486000Y-77852000D01*
%TO.C,C31*%
X203424836Y-101294000D02*
X203209164Y-101294000D01*
X203424836Y-100574000D02*
X203209164Y-100574000D01*
%TO.C,C34*%
X192889164Y-89319000D02*
X193104836Y-89319000D01*
X192889164Y-88599000D02*
X193104836Y-88599000D01*
%TO.C,C11*%
X209910000Y-81133836D02*
X209910000Y-80918164D01*
X209190000Y-81133836D02*
X209190000Y-80918164D01*
%TO.C,C36*%
X209432000Y-98201164D02*
X209432000Y-98416836D01*
X208712000Y-98201164D02*
X208712000Y-98416836D01*
%TO.C,C28*%
X202107000Y-98991836D02*
X202107000Y-98776164D01*
X201387000Y-98991836D02*
X201387000Y-98776164D01*
%TO.C,R11*%
X229007641Y-102996000D02*
X228700359Y-102996000D01*
X229007641Y-102236000D02*
X228700359Y-102236000D01*
%TO.C,X1*%
X206122000Y-102959000D02*
X209922000Y-102959000D01*
X206122000Y-99809000D02*
X206122000Y-102959000D01*
%TO.C,C4*%
X218801836Y-83841000D02*
X218586164Y-83841000D01*
X218801836Y-84561000D02*
X218586164Y-84561000D01*
%TO.C,C17*%
X202587000Y-89241836D02*
X202587000Y-89026164D01*
X203307000Y-89241836D02*
X203307000Y-89026164D01*
%TO.C,R5*%
X228700359Y-98680000D02*
X229007641Y-98680000D01*
X228700359Y-99440000D02*
X229007641Y-99440000D01*
%TO.C,C16*%
X207789164Y-92024000D02*
X208004836Y-92024000D01*
X207789164Y-92744000D02*
X208004836Y-92744000D01*
%TO.C,SWD1*%
X217932000Y-67758000D02*
X217932000Y-70418000D01*
X205172000Y-67758000D02*
X205172000Y-70418000D01*
X219202000Y-67758000D02*
X220532000Y-67758000D01*
X220532000Y-67758000D02*
X220532000Y-69088000D01*
X217932000Y-67758000D02*
X205172000Y-67758000D01*
X217932000Y-70418000D02*
X205172000Y-70418000D01*
%TO.C,R3*%
X221588359Y-93090000D02*
X221895641Y-93090000D01*
X221588359Y-92330000D02*
X221895641Y-92330000D01*
%TO.C,R9*%
X196737000Y-88841836D02*
X196737000Y-88626164D01*
X197457000Y-88841836D02*
X197457000Y-88626164D01*
%TO.C,R7*%
X226213641Y-81408000D02*
X225906359Y-81408000D01*
X226213641Y-82168000D02*
X225906359Y-82168000D01*
%TO.C,C33*%
X192014164Y-93194000D02*
X192229836Y-93194000D01*
X192014164Y-92474000D02*
X192229836Y-92474000D01*
%TO.C,L3*%
X188712000Y-94891836D02*
X188712000Y-94676164D01*
X189432000Y-94891836D02*
X189432000Y-94676164D01*
%TO.C,C37*%
X188337000Y-88291836D02*
X188337000Y-88076164D01*
X189057000Y-88291836D02*
X189057000Y-88076164D01*
%TO.C,C13*%
X222142164Y-96922000D02*
X222357836Y-96922000D01*
X222142164Y-97642000D02*
X222357836Y-97642000D01*
%TO.C,L4*%
X192279836Y-93749000D02*
X192064164Y-93749000D01*
X192279836Y-94469000D02*
X192064164Y-94469000D01*
%TO.C,C10*%
X210206000Y-81133836D02*
X210206000Y-80918164D01*
X210926000Y-81133836D02*
X210926000Y-80918164D01*
%TO.C,C30*%
X197114164Y-91949000D02*
X197329836Y-91949000D01*
X197114164Y-92669000D02*
X197329836Y-92669000D01*
D11*
%TO.C,D1*%
X227708000Y-99060000D02*
G75*
G03*
X227708000Y-99060000I-50000J0D01*
G01*
D13*
%TO.C,C35*%
X191657000Y-90691836D02*
X191657000Y-90476164D01*
X190937000Y-90691836D02*
X190937000Y-90476164D01*
%TO.C,L8*%
X188329836Y-91394000D02*
X188114164Y-91394000D01*
X188329836Y-90674000D02*
X188114164Y-90674000D01*
%TO.C,C3*%
X205593836Y-77576000D02*
X205378164Y-77576000D01*
X205593836Y-76856000D02*
X205378164Y-76856000D01*
%TO.C,C12*%
X211474164Y-84942000D02*
X211689836Y-84942000D01*
X211474164Y-84222000D02*
X211689836Y-84222000D01*
%TO.C,C20*%
X196307000Y-96541836D02*
X196307000Y-96326164D01*
X195587000Y-96541836D02*
X195587000Y-96326164D01*
D15*
%TO.C,J1*%
X225634500Y-86688000D02*
X227314500Y-86688000D01*
X231084500Y-95628000D02*
X229654500Y-95628000D01*
X231084500Y-86688000D02*
X229654500Y-86688000D01*
X225634500Y-95628000D02*
X227314500Y-95628000D01*
X231084500Y-95628000D02*
X231084500Y-86688000D01*
D16*
X222584500Y-94358000D02*
G75*
G03*
X222584500Y-94358000I-100000J0D01*
G01*
D13*
%TO.C,C1*%
X221093420Y-95502000D02*
X221374580Y-95502000D01*
X221093420Y-96522000D02*
X221374580Y-96522000D01*
%TO.C,R8*%
X201462000Y-89241836D02*
X201462000Y-89026164D01*
X202182000Y-89241836D02*
X202182000Y-89026164D01*
%TO.C,C2*%
X219088580Y-85342000D02*
X218807420Y-85342000D01*
X219088580Y-86362000D02*
X218807420Y-86362000D01*
%TO.C,L1*%
X198032000Y-90651164D02*
X198032000Y-90866836D01*
X197312000Y-90651164D02*
X197312000Y-90866836D01*
%TO.C,C27*%
X197937000Y-86766836D02*
X197937000Y-86551164D01*
X198657000Y-86766836D02*
X198657000Y-86551164D01*
%TD*%
M02*
