%TF.GenerationSoftware,KiCad,Pcbnew,(6.0.6)*%
%TF.CreationDate,2024-06-26T22:32:41-07:00*%
%TF.ProjectId,rocketBeaconModule,726f636b-6574-4426-9561-636f6e4d6f64,rev?*%
%TF.SameCoordinates,Original*%
%TF.FileFunction,Profile,NP*%
%FSLAX46Y46*%
G04 Gerber Fmt 4.6, Leading zero omitted, Abs format (unit mm)*
G04 Created by KiCad (PCBNEW (6.0.6)) date 2024-06-26 22:32:41*
%MOMM*%
%LPD*%
G01*
G04 APERTURE LIST*
%TA.AperFunction,Profile*%
%ADD10C,0.100000*%
%TD*%
%TA.AperFunction,Profile*%
%ADD11C,0.010000*%
%TD*%
G04 APERTURE END LIST*
D10*
X179070000Y-115443000D02*
X225298000Y-115570000D01*
X230378000Y-71374000D02*
X230378000Y-110490000D01*
X179070000Y-66329946D02*
X225298000Y-66294000D01*
X173990000Y-110363000D02*
G75*
G03*
X179070000Y-115443000I5080000J0D01*
G01*
X230378000Y-71374000D02*
G75*
G03*
X225298000Y-66294000I-5080000J0D01*
G01*
X173989465Y-71410481D02*
X173990000Y-110363000D01*
X179070000Y-66329965D02*
G75*
G03*
X173989465Y-71410481I0J-5080535D01*
G01*
X225298000Y-115570000D02*
G75*
G03*
X230378000Y-110490000I0J5080000D01*
G01*
D11*
%TO.C,J1*%
X228084500Y-86533000D02*
X228884500Y-86533000D01*
X224864500Y-95783000D02*
X223764500Y-95783000D01*
X223764500Y-86533000D02*
X224864500Y-86533000D01*
X223764500Y-95183000D02*
X224864500Y-95183000D01*
X228884500Y-95783000D02*
X228084500Y-95783000D01*
X228884500Y-87133000D02*
X228084500Y-87133000D01*
X224864500Y-87133000D02*
X223764500Y-87133000D01*
X228084500Y-95183000D02*
X228884500Y-95183000D01*
X227784500Y-86833000D02*
G75*
G03*
X228084500Y-87133000I300000J0D01*
G01*
X228084500Y-86533000D02*
G75*
G03*
X227784500Y-86833000I0J-300000D01*
G01*
X228084500Y-95183000D02*
G75*
G03*
X227784500Y-95483000I0J-300000D01*
G01*
X228884500Y-95783000D02*
G75*
G03*
X229184500Y-95483000I0J300000D01*
G01*
X225164500Y-95483000D02*
G75*
G03*
X224864500Y-95183000I-300000J0D01*
G01*
X223464500Y-95483000D02*
G75*
G03*
X223764500Y-95783000I300000J0D01*
G01*
X228884500Y-87133000D02*
G75*
G03*
X229184500Y-86833000I0J300000D01*
G01*
X224864500Y-95783000D02*
G75*
G03*
X225164500Y-95483000I0J300000D01*
G01*
X223764500Y-95183000D02*
G75*
G03*
X223464500Y-95483000I0J-300000D01*
G01*
X223764500Y-86533000D02*
G75*
G03*
X223464500Y-86833000I0J-300000D01*
G01*
X229184500Y-86833000D02*
G75*
G03*
X228884500Y-86533000I-300000J0D01*
G01*
X227784500Y-95483000D02*
G75*
G03*
X228084500Y-95783000I300000J0D01*
G01*
X223464500Y-86833000D02*
G75*
G03*
X223764500Y-87133000I300000J0D01*
G01*
X224864500Y-87133000D02*
G75*
G03*
X225164500Y-86833000I0J300000D01*
G01*
X225164500Y-86833000D02*
G75*
G03*
X224864500Y-86533000I-300000J0D01*
G01*
X229184500Y-95483000D02*
G75*
G03*
X228884500Y-95183000I-300000J0D01*
G01*
%TD*%
M02*
