%TF.GenerationSoftware,KiCad,Pcbnew,(6.0.6)*%
%TF.CreationDate,2024-06-26T22:32:41-07:00*%
%TF.ProjectId,rocketBeaconModule,726f636b-6574-4426-9561-636f6e4d6f64,rev?*%
%TF.SameCoordinates,Original*%
%TF.FileFunction,Paste,Top*%
%TF.FilePolarity,Positive*%
%FSLAX46Y46*%
G04 Gerber Fmt 4.6, Leading zero omitted, Abs format (unit mm)*
G04 Created by KiCad (PCBNEW (6.0.6)) date 2024-06-26 22:32:41*
%MOMM*%
%LPD*%
G01*
G04 APERTURE LIST*
G04 Aperture macros list*
%AMRoundRect*
0 Rectangle with rounded corners*
0 $1 Rounding radius*
0 $2 $3 $4 $5 $6 $7 $8 $9 X,Y pos of 4 corners*
0 Add a 4 corners polygon primitive as box body*
4,1,4,$2,$3,$4,$5,$6,$7,$8,$9,$2,$3,0*
0 Add four circle primitives for the rounded corners*
1,1,$1+$1,$2,$3*
1,1,$1+$1,$4,$5*
1,1,$1+$1,$6,$7*
1,1,$1+$1,$8,$9*
0 Add four rect primitives between the rounded corners*
20,1,$1+$1,$2,$3,$4,$5,0*
20,1,$1+$1,$4,$5,$6,$7,0*
20,1,$1+$1,$6,$7,$8,$9,0*
20,1,$1+$1,$8,$9,$2,$3,0*%
G04 Aperture macros list end*
%ADD10RoundRect,0.140000X-0.170000X0.140000X-0.170000X-0.140000X0.170000X-0.140000X0.170000X0.140000X0*%
%ADD11R,0.350000X0.350000*%
%ADD12R,0.900000X0.300000*%
%ADD13R,0.300000X0.900000*%
%ADD14R,1.800000X1.800000*%
%ADD15RoundRect,0.140000X0.170000X-0.140000X0.170000X0.140000X-0.170000X0.140000X-0.170000X-0.140000X0*%
%ADD16RoundRect,0.250000X-0.315000X-0.315000X0.315000X-0.315000X0.315000X0.315000X-0.315000X0.315000X0*%
%ADD17RoundRect,0.062500X-0.375000X-0.062500X0.375000X-0.062500X0.375000X0.062500X-0.375000X0.062500X0*%
%ADD18RoundRect,0.062500X-0.062500X-0.375000X0.062500X-0.375000X0.062500X0.375000X-0.062500X0.375000X0*%
%ADD19RoundRect,0.147500X-0.147500X-0.172500X0.147500X-0.172500X0.147500X0.172500X-0.147500X0.172500X0*%
%ADD20RoundRect,0.140000X-0.140000X-0.170000X0.140000X-0.170000X0.140000X0.170000X-0.140000X0.170000X0*%
%ADD21RoundRect,0.140000X0.140000X0.170000X-0.140000X0.170000X-0.140000X-0.170000X0.140000X-0.170000X0*%
%ADD22RoundRect,0.135000X0.135000X0.185000X-0.135000X0.185000X-0.135000X-0.185000X0.135000X-0.185000X0*%
%ADD23RoundRect,0.218750X-0.256250X0.218750X-0.256250X-0.218750X0.256250X-0.218750X0.256250X0.218750X0*%
%ADD24RoundRect,0.232500X0.232500X0.232500X-0.232500X0.232500X-0.232500X-0.232500X0.232500X-0.232500X0*%
%ADD25RoundRect,0.062500X0.375000X0.062500X-0.375000X0.062500X-0.375000X-0.062500X0.375000X-0.062500X0*%
%ADD26RoundRect,0.062500X0.062500X0.375000X-0.062500X0.375000X-0.062500X-0.375000X0.062500X-0.375000X0*%
%ADD27RoundRect,0.135000X-0.135000X-0.185000X0.135000X-0.185000X0.135000X0.185000X-0.135000X0.185000X0*%
%ADD28R,1.400000X1.200000*%
%ADD29R,1.300000X1.100000*%
%ADD30RoundRect,0.147500X0.147500X0.172500X-0.147500X0.172500X-0.147500X-0.172500X0.147500X-0.172500X0*%
%ADD31R,1.140000X0.600000*%
%ADD32R,1.140000X0.300000*%
%ADD33RoundRect,0.225000X-0.225000X-0.250000X0.225000X-0.250000X0.225000X0.250000X-0.225000X0.250000X0*%
%ADD34RoundRect,0.225000X0.225000X0.250000X-0.225000X0.250000X-0.225000X-0.250000X0.225000X-0.250000X0*%
G04 APERTURE END LIST*
D10*
%TO.C,C18*%
X206822000Y-96504000D03*
X206822000Y-97464000D03*
%TD*%
D11*
%TO.C,U2*%
X221468000Y-101326000D03*
D12*
X221768000Y-100826000D03*
X221768000Y-100326000D03*
X221768000Y-99826000D03*
X221768000Y-99326000D03*
D11*
X221468000Y-98826000D03*
D13*
X220968000Y-98526000D03*
X220468000Y-98526000D03*
X219968000Y-98526000D03*
X219468000Y-98526000D03*
D11*
X218968000Y-98826000D03*
D12*
X218668000Y-99326000D03*
X218668000Y-99826000D03*
X218668000Y-100326000D03*
X218668000Y-100826000D03*
D11*
X218968000Y-101326000D03*
D13*
X219468000Y-101626000D03*
X219968000Y-101626000D03*
X220468000Y-101626000D03*
X220968000Y-101626000D03*
D14*
X220218000Y-100076000D03*
%TD*%
D15*
%TO.C,C26*%
X198272000Y-89214000D03*
X198272000Y-88254000D03*
%TD*%
D16*
%TO.C,U1*%
X216346000Y-77402000D03*
X217746000Y-80202000D03*
X213546000Y-77402000D03*
X216346000Y-80202000D03*
X213546000Y-80202000D03*
X217746000Y-78802000D03*
X216346000Y-81602000D03*
X214946000Y-77402000D03*
X213546000Y-81602000D03*
X214946000Y-78802000D03*
X213546000Y-78802000D03*
X217746000Y-81602000D03*
X216346000Y-78802000D03*
X214946000Y-81602000D03*
X214946000Y-80202000D03*
X217746000Y-77402000D03*
D17*
X212208500Y-76752000D03*
X212208500Y-77252000D03*
X212208500Y-77752000D03*
X212208500Y-78252000D03*
X212208500Y-78752000D03*
X212208500Y-79252000D03*
X212208500Y-79752000D03*
X212208500Y-80252000D03*
X212208500Y-80752000D03*
X212208500Y-81252000D03*
X212208500Y-81752000D03*
X212208500Y-82252000D03*
D18*
X212896000Y-82939500D03*
X213396000Y-82939500D03*
X213896000Y-82939500D03*
X214396000Y-82939500D03*
X214896000Y-82939500D03*
X215396000Y-82939500D03*
X215896000Y-82939500D03*
X216396000Y-82939500D03*
X216896000Y-82939500D03*
X217396000Y-82939500D03*
X217896000Y-82939500D03*
X218396000Y-82939500D03*
D17*
X219083500Y-82252000D03*
X219083500Y-81752000D03*
X219083500Y-81252000D03*
X219083500Y-80752000D03*
X219083500Y-80252000D03*
X219083500Y-79752000D03*
X219083500Y-79252000D03*
X219083500Y-78752000D03*
X219083500Y-78252000D03*
X219083500Y-77752000D03*
X219083500Y-77252000D03*
X219083500Y-76752000D03*
D18*
X218396000Y-76064500D03*
X217896000Y-76064500D03*
X217396000Y-76064500D03*
X216896000Y-76064500D03*
X216396000Y-76064500D03*
X215896000Y-76064500D03*
X215396000Y-76064500D03*
X214896000Y-76064500D03*
X214396000Y-76064500D03*
X213896000Y-76064500D03*
X213396000Y-76064500D03*
X212896000Y-76064500D03*
%TD*%
D19*
%TO.C,D4*%
X226083000Y-100838000D03*
X227053000Y-100838000D03*
%TD*%
D15*
%TO.C,C29*%
X199597000Y-99314000D03*
X199597000Y-98354000D03*
%TD*%
D20*
%TO.C,C32*%
X191717000Y-95384000D03*
X192677000Y-95384000D03*
%TD*%
D15*
%TO.C,C22*%
X197072000Y-87139000D03*
X197072000Y-86179000D03*
%TD*%
D20*
%TO.C,C6*%
X205260000Y-81788000D03*
X206220000Y-81788000D03*
%TD*%
D19*
%TO.C,D2*%
X228242000Y-84328000D03*
X229212000Y-84328000D03*
%TD*%
D10*
%TO.C,C21*%
X198247000Y-95954000D03*
X198247000Y-96914000D03*
%TD*%
%TO.C,C9*%
X216916000Y-84130000D03*
X216916000Y-85090000D03*
%TD*%
D21*
%TO.C,L5*%
X193477000Y-90109000D03*
X192517000Y-90109000D03*
%TD*%
D15*
%TO.C,C19*%
X200697000Y-89614000D03*
X200697000Y-88654000D03*
%TD*%
D22*
%TO.C,R12*%
X219204000Y-96901000D03*
X218184000Y-96901000D03*
%TD*%
D15*
%TO.C,C23*%
X200672000Y-99339000D03*
X200672000Y-98379000D03*
%TD*%
D19*
%TO.C,D5*%
X226083000Y-102616000D03*
X227053000Y-102616000D03*
%TD*%
D15*
%TO.C,C7*%
X210820000Y-76934000D03*
X210820000Y-75974000D03*
%TD*%
D10*
%TO.C,L7*%
X190072000Y-90079000D03*
X190072000Y-91039000D03*
%TD*%
D22*
%TO.C,R6*%
X226570000Y-84328000D03*
X225550000Y-84328000D03*
%TD*%
D10*
%TO.C,C8*%
X220599000Y-76228000D03*
X220599000Y-77188000D03*
%TD*%
D20*
%TO.C,C15*%
X207417000Y-93609000D03*
X208377000Y-93609000D03*
%TD*%
D23*
%TO.C,FB1*%
X209804000Y-82778500D03*
X209804000Y-84353500D03*
%TD*%
D20*
%TO.C,C5*%
X212118000Y-74676000D03*
X213078000Y-74676000D03*
%TD*%
D10*
%TO.C,C24*%
X197097000Y-95954000D03*
X197097000Y-96914000D03*
%TD*%
%TO.C,L2*%
X194122000Y-93904000D03*
X194122000Y-94864000D03*
%TD*%
D24*
%TO.C,U3*%
X201422000Y-94234000D03*
X201422000Y-95384000D03*
X202572000Y-95384000D03*
X203722000Y-95384000D03*
X201422000Y-93084000D03*
X202572000Y-93084000D03*
X203722000Y-94234000D03*
X203722000Y-93084000D03*
X202572000Y-94234000D03*
D25*
X205009500Y-95984000D03*
X205009500Y-95484000D03*
X205009500Y-94984000D03*
X205009500Y-94484000D03*
X205009500Y-93984000D03*
X205009500Y-93484000D03*
X205009500Y-92984000D03*
X205009500Y-92484000D03*
D26*
X204322000Y-91796500D03*
X203822000Y-91796500D03*
X203322000Y-91796500D03*
X202822000Y-91796500D03*
X202322000Y-91796500D03*
X201822000Y-91796500D03*
X201322000Y-91796500D03*
X200822000Y-91796500D03*
D25*
X200134500Y-92484000D03*
X200134500Y-92984000D03*
X200134500Y-93484000D03*
X200134500Y-93984000D03*
X200134500Y-94484000D03*
X200134500Y-94984000D03*
X200134500Y-95484000D03*
X200134500Y-95984000D03*
D26*
X200822000Y-96671500D03*
X201322000Y-96671500D03*
X201822000Y-96671500D03*
X202322000Y-96671500D03*
X202822000Y-96671500D03*
X203322000Y-96671500D03*
X203822000Y-96671500D03*
X204322000Y-96671500D03*
%TD*%
D22*
%TO.C,R10*%
X229364000Y-100838000D03*
X228344000Y-100838000D03*
%TD*%
D19*
%TO.C,D3*%
X228242000Y-81788000D03*
X229212000Y-81788000D03*
%TD*%
D27*
%TO.C,R4*%
X221232000Y-89916000D03*
X222252000Y-89916000D03*
%TD*%
D20*
%TO.C,L6*%
X189417000Y-92784000D03*
X190377000Y-92784000D03*
%TD*%
D15*
%TO.C,C25*%
X202822000Y-99364000D03*
X202822000Y-98404000D03*
%TD*%
D28*
%TO.C,Y1*%
X206586000Y-78652000D03*
X204386000Y-78652000D03*
X204386000Y-80352000D03*
X206586000Y-80352000D03*
%TD*%
D21*
%TO.C,C31*%
X203797000Y-100934000D03*
X202837000Y-100934000D03*
%TD*%
D20*
%TO.C,C34*%
X192517000Y-88959000D03*
X193477000Y-88959000D03*
%TD*%
D15*
%TO.C,C11*%
X209550000Y-81506000D03*
X209550000Y-80546000D03*
%TD*%
D10*
%TO.C,C36*%
X209072000Y-97829000D03*
X209072000Y-98789000D03*
%TD*%
D15*
%TO.C,C28*%
X201747000Y-99364000D03*
X201747000Y-98404000D03*
%TD*%
D22*
%TO.C,R11*%
X229364000Y-102616000D03*
X228344000Y-102616000D03*
%TD*%
D29*
%TO.C,X1*%
X206972000Y-102209000D03*
X209072000Y-102209000D03*
X209072000Y-100559000D03*
X206972000Y-100559000D03*
%TD*%
D21*
%TO.C,C4*%
X219174000Y-84201000D03*
X218214000Y-84201000D03*
%TD*%
D15*
%TO.C,C17*%
X202947000Y-89614000D03*
X202947000Y-88654000D03*
%TD*%
D27*
%TO.C,R5*%
X228344000Y-99060000D03*
X229364000Y-99060000D03*
%TD*%
D20*
%TO.C,C16*%
X207417000Y-92384000D03*
X208377000Y-92384000D03*
%TD*%
D27*
%TO.C,R3*%
X221232000Y-92710000D03*
X222252000Y-92710000D03*
%TD*%
D15*
%TO.C,R9*%
X197097000Y-89214000D03*
X197097000Y-88254000D03*
%TD*%
D22*
%TO.C,R7*%
X226570000Y-81788000D03*
X225550000Y-81788000D03*
%TD*%
D20*
%TO.C,C33*%
X191642000Y-92834000D03*
X192602000Y-92834000D03*
%TD*%
D15*
%TO.C,L3*%
X189072000Y-95264000D03*
X189072000Y-94304000D03*
%TD*%
%TO.C,C37*%
X188697000Y-88664000D03*
X188697000Y-87704000D03*
%TD*%
D20*
%TO.C,C13*%
X221770000Y-97282000D03*
X222730000Y-97282000D03*
%TD*%
D21*
%TO.C,L4*%
X192652000Y-94109000D03*
X191692000Y-94109000D03*
%TD*%
D15*
%TO.C,C10*%
X210566000Y-81506000D03*
X210566000Y-80546000D03*
%TD*%
D20*
%TO.C,C30*%
X196742000Y-92309000D03*
X197702000Y-92309000D03*
%TD*%
D30*
%TO.C,D1*%
X227053000Y-99060000D03*
X226083000Y-99060000D03*
%TD*%
D15*
%TO.C,C35*%
X191297000Y-91064000D03*
X191297000Y-90104000D03*
%TD*%
D21*
%TO.C,L8*%
X188702000Y-91034000D03*
X187742000Y-91034000D03*
%TD*%
%TO.C,C3*%
X205966000Y-77216000D03*
X205006000Y-77216000D03*
%TD*%
D20*
%TO.C,C12*%
X211102000Y-84582000D03*
X212062000Y-84582000D03*
%TD*%
D15*
%TO.C,C20*%
X195947000Y-96914000D03*
X195947000Y-95954000D03*
%TD*%
D31*
%TO.C,J1*%
X223734500Y-94358000D03*
X223734500Y-93558000D03*
D32*
X223734500Y-92408000D03*
X223734500Y-91408000D03*
X223734500Y-90908000D03*
X223734500Y-89908000D03*
D31*
X223734500Y-87958000D03*
X223734500Y-88758000D03*
D32*
X223734500Y-89408000D03*
X223734500Y-90408000D03*
X223734500Y-91908000D03*
X223734500Y-92908000D03*
%TD*%
D33*
%TO.C,C1*%
X220459000Y-96012000D03*
X222009000Y-96012000D03*
%TD*%
D15*
%TO.C,R8*%
X201822000Y-89614000D03*
X201822000Y-88654000D03*
%TD*%
D34*
%TO.C,C2*%
X219723000Y-85852000D03*
X218173000Y-85852000D03*
%TD*%
D10*
%TO.C,L1*%
X197672000Y-90279000D03*
X197672000Y-91239000D03*
%TD*%
D15*
%TO.C,C27*%
X198297000Y-87139000D03*
X198297000Y-86179000D03*
%TD*%
M02*
