%TF.GenerationSoftware,KiCad,Pcbnew,(6.0.6)*%
%TF.CreationDate,2024-06-26T22:32:40-07:00*%
%TF.ProjectId,rocketBeaconModule,726f636b-6574-4426-9561-636f6e4d6f64,rev?*%
%TF.SameCoordinates,Original*%
%TF.FileFunction,Copper,L1,Top*%
%TF.FilePolarity,Positive*%
%FSLAX46Y46*%
G04 Gerber Fmt 4.6, Leading zero omitted, Abs format (unit mm)*
G04 Created by KiCad (PCBNEW (6.0.6)) date 2024-06-26 22:32:40*
%MOMM*%
%LPD*%
G01*
G04 APERTURE LIST*
G04 Aperture macros list*
%AMRoundRect*
0 Rectangle with rounded corners*
0 $1 Rounding radius*
0 $2 $3 $4 $5 $6 $7 $8 $9 X,Y pos of 4 corners*
0 Add a 4 corners polygon primitive as box body*
4,1,4,$2,$3,$4,$5,$6,$7,$8,$9,$2,$3,0*
0 Add four circle primitives for the rounded corners*
1,1,$1+$1,$2,$3*
1,1,$1+$1,$4,$5*
1,1,$1+$1,$6,$7*
1,1,$1+$1,$8,$9*
0 Add four rect primitives between the rounded corners*
20,1,$1+$1,$2,$3,$4,$5,0*
20,1,$1+$1,$4,$5,$6,$7,0*
20,1,$1+$1,$6,$7,$8,$9,0*
20,1,$1+$1,$8,$9,$2,$3,0*%
G04 Aperture macros list end*
%TA.AperFunction,EtchedComponent*%
%ADD10C,0.010000*%
%TD*%
%TA.AperFunction,SMDPad,CuDef*%
%ADD11RoundRect,0.140000X-0.170000X0.140000X-0.170000X-0.140000X0.170000X-0.140000X0.170000X0.140000X0*%
%TD*%
%TA.AperFunction,ComponentPad*%
%ADD12C,2.050000*%
%TD*%
%TA.AperFunction,ComponentPad*%
%ADD13C,2.250000*%
%TD*%
%TA.AperFunction,SMDPad,CuDef*%
%ADD14R,0.350000X0.350000*%
%TD*%
%TA.AperFunction,SMDPad,CuDef*%
%ADD15R,0.900000X0.300000*%
%TD*%
%TA.AperFunction,SMDPad,CuDef*%
%ADD16R,0.300000X0.900000*%
%TD*%
%TA.AperFunction,SMDPad,CuDef*%
%ADD17R,1.800000X1.800000*%
%TD*%
%TA.AperFunction,SMDPad,CuDef*%
%ADD18RoundRect,0.140000X0.170000X-0.140000X0.170000X0.140000X-0.170000X0.140000X-0.170000X-0.140000X0*%
%TD*%
%TA.AperFunction,SMDPad,CuDef*%
%ADD19RoundRect,0.062500X-0.375000X-0.062500X0.375000X-0.062500X0.375000X0.062500X-0.375000X0.062500X0*%
%TD*%
%TA.AperFunction,SMDPad,CuDef*%
%ADD20RoundRect,0.062500X-0.062500X-0.375000X0.062500X-0.375000X0.062500X0.375000X-0.062500X0.375000X0*%
%TD*%
%TA.AperFunction,SMDPad,CuDef*%
%ADD21R,5.600000X5.600000*%
%TD*%
%TA.AperFunction,SMDPad,CuDef*%
%ADD22RoundRect,0.147500X-0.147500X-0.172500X0.147500X-0.172500X0.147500X0.172500X-0.147500X0.172500X0*%
%TD*%
%TA.AperFunction,SMDPad,CuDef*%
%ADD23RoundRect,0.140000X-0.140000X-0.170000X0.140000X-0.170000X0.140000X0.170000X-0.140000X0.170000X0*%
%TD*%
%TA.AperFunction,SMDPad,CuDef*%
%ADD24RoundRect,0.140000X0.140000X0.170000X-0.140000X0.170000X-0.140000X-0.170000X0.140000X-0.170000X0*%
%TD*%
%TA.AperFunction,SMDPad,CuDef*%
%ADD25RoundRect,0.135000X0.135000X0.185000X-0.135000X0.185000X-0.135000X-0.185000X0.135000X-0.185000X0*%
%TD*%
%TA.AperFunction,SMDPad,CuDef*%
%ADD26RoundRect,0.218750X-0.256250X0.218750X-0.256250X-0.218750X0.256250X-0.218750X0.256250X0.218750X0*%
%TD*%
%TA.AperFunction,SMDPad,CuDef*%
%ADD27RoundRect,0.062500X0.375000X0.062500X-0.375000X0.062500X-0.375000X-0.062500X0.375000X-0.062500X0*%
%TD*%
%TA.AperFunction,SMDPad,CuDef*%
%ADD28RoundRect,0.062500X0.062500X0.375000X-0.062500X0.375000X-0.062500X-0.375000X0.062500X-0.375000X0*%
%TD*%
%TA.AperFunction,SMDPad,CuDef*%
%ADD29R,3.450000X3.450000*%
%TD*%
%TA.AperFunction,SMDPad,CuDef*%
%ADD30RoundRect,0.135000X-0.135000X-0.185000X0.135000X-0.185000X0.135000X0.185000X-0.135000X0.185000X0*%
%TD*%
%TA.AperFunction,ComponentPad*%
%ADD31R,1.700000X1.700000*%
%TD*%
%TA.AperFunction,ComponentPad*%
%ADD32O,1.700000X1.700000*%
%TD*%
%TA.AperFunction,SMDPad,CuDef*%
%ADD33R,1.400000X1.200000*%
%TD*%
%TA.AperFunction,SMDPad,CuDef*%
%ADD34R,1.300000X1.100000*%
%TD*%
%TA.AperFunction,SMDPad,CuDef*%
%ADD35RoundRect,0.147500X0.147500X0.172500X-0.147500X0.172500X-0.147500X-0.172500X0.147500X-0.172500X0*%
%TD*%
%TA.AperFunction,SMDPad,CuDef*%
%ADD36R,1.140000X0.600000*%
%TD*%
%TA.AperFunction,SMDPad,CuDef*%
%ADD37R,1.140000X0.300000*%
%TD*%
%TA.AperFunction,ComponentPad*%
%ADD38C,0.900000*%
%TD*%
%TA.AperFunction,SMDPad,CuDef*%
%ADD39RoundRect,0.225000X-0.225000X-0.250000X0.225000X-0.250000X0.225000X0.250000X-0.225000X0.250000X0*%
%TD*%
%TA.AperFunction,SMDPad,CuDef*%
%ADD40RoundRect,0.225000X0.225000X0.250000X-0.225000X0.250000X-0.225000X-0.250000X0.225000X-0.250000X0*%
%TD*%
%TA.AperFunction,ViaPad*%
%ADD41C,0.800000*%
%TD*%
%TA.AperFunction,ViaPad*%
%ADD42C,0.700000*%
%TD*%
%TA.AperFunction,Conductor*%
%ADD43C,0.250000*%
%TD*%
%TA.AperFunction,Conductor*%
%ADD44C,0.300000*%
%TD*%
%TA.AperFunction,Conductor*%
%ADD45C,0.500000*%
%TD*%
%TA.AperFunction,Conductor*%
%ADD46C,0.200000*%
%TD*%
G04 APERTURE END LIST*
%TO.C,J1*%
G36*
X224888500Y-95034000D02*
G01*
X224911500Y-95035000D01*
X224934500Y-95039000D01*
X224958500Y-95043000D01*
X224980500Y-95048000D01*
X225003500Y-95055000D01*
X225025500Y-95063000D01*
X225047500Y-95072000D01*
X225068500Y-95082000D01*
X225089500Y-95093000D01*
X225129500Y-95119000D01*
X225147500Y-95133000D01*
X225165500Y-95149000D01*
X225182500Y-95165000D01*
X225198500Y-95182000D01*
X225214500Y-95200000D01*
X225228500Y-95218000D01*
X225254500Y-95258000D01*
X225265500Y-95279000D01*
X225275500Y-95300000D01*
X225284500Y-95322000D01*
X225292500Y-95344000D01*
X225299500Y-95367000D01*
X225304500Y-95389000D01*
X225308500Y-95413000D01*
X225312500Y-95436000D01*
X225313500Y-95459000D01*
X225314500Y-95483000D01*
X225313500Y-95507000D01*
X225312500Y-95530000D01*
X225308500Y-95553000D01*
X225304500Y-95577000D01*
X225299500Y-95599000D01*
X225292500Y-95622000D01*
X225284500Y-95644000D01*
X225275500Y-95666000D01*
X225265500Y-95687000D01*
X225254500Y-95708000D01*
X225228500Y-95748000D01*
X225214500Y-95766000D01*
X225198500Y-95784000D01*
X225182500Y-95801000D01*
X225165500Y-95817000D01*
X225147500Y-95833000D01*
X225129500Y-95847000D01*
X225089500Y-95873000D01*
X225068500Y-95884000D01*
X225047500Y-95894000D01*
X225025500Y-95903000D01*
X225003500Y-95911000D01*
X224980500Y-95918000D01*
X224958500Y-95923000D01*
X224934500Y-95927000D01*
X224911500Y-95931000D01*
X224888500Y-95932000D01*
X224864500Y-95933000D01*
X223764500Y-95933000D01*
X223740500Y-95932000D01*
X223717500Y-95931000D01*
X223694500Y-95927000D01*
X223670500Y-95923000D01*
X223648500Y-95918000D01*
X223625500Y-95911000D01*
X223603500Y-95903000D01*
X223581500Y-95894000D01*
X223560500Y-95884000D01*
X223539500Y-95873000D01*
X223499500Y-95847000D01*
X223481500Y-95833000D01*
X223463500Y-95817000D01*
X223446500Y-95801000D01*
X223430500Y-95784000D01*
X223414500Y-95766000D01*
X223400500Y-95748000D01*
X223374500Y-95708000D01*
X223363500Y-95687000D01*
X223353500Y-95666000D01*
X223344500Y-95644000D01*
X223336500Y-95622000D01*
X223329500Y-95599000D01*
X223324500Y-95577000D01*
X223320500Y-95553000D01*
X223316500Y-95530000D01*
X223315500Y-95507000D01*
X223314500Y-95483000D01*
X223315500Y-95459000D01*
X223316500Y-95436000D01*
X223320500Y-95413000D01*
X223324500Y-95389000D01*
X223329500Y-95367000D01*
X223336500Y-95344000D01*
X223344500Y-95322000D01*
X223353500Y-95300000D01*
X223363500Y-95279000D01*
X223374500Y-95258000D01*
X223400500Y-95218000D01*
X223414500Y-95200000D01*
X223430500Y-95182000D01*
X223446500Y-95165000D01*
X223463500Y-95149000D01*
X223481500Y-95133000D01*
X223499500Y-95119000D01*
X223539500Y-95093000D01*
X223560500Y-95082000D01*
X223581500Y-95072000D01*
X223603500Y-95063000D01*
X223625500Y-95055000D01*
X223648500Y-95048000D01*
X223670500Y-95043000D01*
X223694500Y-95039000D01*
X223717500Y-95035000D01*
X223740500Y-95034000D01*
X223764500Y-95033000D01*
X224864500Y-95033000D01*
X224888500Y-95034000D01*
G37*
D10*
X224888500Y-95034000D02*
X224911500Y-95035000D01*
X224934500Y-95039000D01*
X224958500Y-95043000D01*
X224980500Y-95048000D01*
X225003500Y-95055000D01*
X225025500Y-95063000D01*
X225047500Y-95072000D01*
X225068500Y-95082000D01*
X225089500Y-95093000D01*
X225129500Y-95119000D01*
X225147500Y-95133000D01*
X225165500Y-95149000D01*
X225182500Y-95165000D01*
X225198500Y-95182000D01*
X225214500Y-95200000D01*
X225228500Y-95218000D01*
X225254500Y-95258000D01*
X225265500Y-95279000D01*
X225275500Y-95300000D01*
X225284500Y-95322000D01*
X225292500Y-95344000D01*
X225299500Y-95367000D01*
X225304500Y-95389000D01*
X225308500Y-95413000D01*
X225312500Y-95436000D01*
X225313500Y-95459000D01*
X225314500Y-95483000D01*
X225313500Y-95507000D01*
X225312500Y-95530000D01*
X225308500Y-95553000D01*
X225304500Y-95577000D01*
X225299500Y-95599000D01*
X225292500Y-95622000D01*
X225284500Y-95644000D01*
X225275500Y-95666000D01*
X225265500Y-95687000D01*
X225254500Y-95708000D01*
X225228500Y-95748000D01*
X225214500Y-95766000D01*
X225198500Y-95784000D01*
X225182500Y-95801000D01*
X225165500Y-95817000D01*
X225147500Y-95833000D01*
X225129500Y-95847000D01*
X225089500Y-95873000D01*
X225068500Y-95884000D01*
X225047500Y-95894000D01*
X225025500Y-95903000D01*
X225003500Y-95911000D01*
X224980500Y-95918000D01*
X224958500Y-95923000D01*
X224934500Y-95927000D01*
X224911500Y-95931000D01*
X224888500Y-95932000D01*
X224864500Y-95933000D01*
X223764500Y-95933000D01*
X223740500Y-95932000D01*
X223717500Y-95931000D01*
X223694500Y-95927000D01*
X223670500Y-95923000D01*
X223648500Y-95918000D01*
X223625500Y-95911000D01*
X223603500Y-95903000D01*
X223581500Y-95894000D01*
X223560500Y-95884000D01*
X223539500Y-95873000D01*
X223499500Y-95847000D01*
X223481500Y-95833000D01*
X223463500Y-95817000D01*
X223446500Y-95801000D01*
X223430500Y-95784000D01*
X223414500Y-95766000D01*
X223400500Y-95748000D01*
X223374500Y-95708000D01*
X223363500Y-95687000D01*
X223353500Y-95666000D01*
X223344500Y-95644000D01*
X223336500Y-95622000D01*
X223329500Y-95599000D01*
X223324500Y-95577000D01*
X223320500Y-95553000D01*
X223316500Y-95530000D01*
X223315500Y-95507000D01*
X223314500Y-95483000D01*
X223315500Y-95459000D01*
X223316500Y-95436000D01*
X223320500Y-95413000D01*
X223324500Y-95389000D01*
X223329500Y-95367000D01*
X223336500Y-95344000D01*
X223344500Y-95322000D01*
X223353500Y-95300000D01*
X223363500Y-95279000D01*
X223374500Y-95258000D01*
X223400500Y-95218000D01*
X223414500Y-95200000D01*
X223430500Y-95182000D01*
X223446500Y-95165000D01*
X223463500Y-95149000D01*
X223481500Y-95133000D01*
X223499500Y-95119000D01*
X223539500Y-95093000D01*
X223560500Y-95082000D01*
X223581500Y-95072000D01*
X223603500Y-95063000D01*
X223625500Y-95055000D01*
X223648500Y-95048000D01*
X223670500Y-95043000D01*
X223694500Y-95039000D01*
X223717500Y-95035000D01*
X223740500Y-95034000D01*
X223764500Y-95033000D01*
X224864500Y-95033000D01*
X224888500Y-95034000D01*
G36*
X224888500Y-86384000D02*
G01*
X224911500Y-86385000D01*
X224934500Y-86389000D01*
X224958500Y-86393000D01*
X224980500Y-86398000D01*
X225003500Y-86405000D01*
X225025500Y-86413000D01*
X225047500Y-86422000D01*
X225068500Y-86432000D01*
X225089500Y-86443000D01*
X225129500Y-86469000D01*
X225147500Y-86483000D01*
X225165500Y-86499000D01*
X225182500Y-86515000D01*
X225198500Y-86532000D01*
X225214500Y-86550000D01*
X225228500Y-86568000D01*
X225254500Y-86608000D01*
X225265500Y-86629000D01*
X225275500Y-86650000D01*
X225284500Y-86672000D01*
X225292500Y-86694000D01*
X225299500Y-86717000D01*
X225304500Y-86739000D01*
X225308500Y-86763000D01*
X225312500Y-86786000D01*
X225313500Y-86809000D01*
X225314500Y-86833000D01*
X225313500Y-86857000D01*
X225312500Y-86880000D01*
X225308500Y-86903000D01*
X225304500Y-86927000D01*
X225299500Y-86949000D01*
X225292500Y-86972000D01*
X225284500Y-86994000D01*
X225275500Y-87016000D01*
X225265500Y-87037000D01*
X225254500Y-87058000D01*
X225228500Y-87098000D01*
X225214500Y-87116000D01*
X225198500Y-87134000D01*
X225182500Y-87151000D01*
X225165500Y-87167000D01*
X225147500Y-87183000D01*
X225129500Y-87197000D01*
X225089500Y-87223000D01*
X225068500Y-87234000D01*
X225047500Y-87244000D01*
X225025500Y-87253000D01*
X225003500Y-87261000D01*
X224980500Y-87268000D01*
X224958500Y-87273000D01*
X224934500Y-87277000D01*
X224911500Y-87281000D01*
X224888500Y-87282000D01*
X224864500Y-87283000D01*
X223764500Y-87283000D01*
X223740500Y-87282000D01*
X223717500Y-87281000D01*
X223694500Y-87277000D01*
X223670500Y-87273000D01*
X223648500Y-87268000D01*
X223625500Y-87261000D01*
X223603500Y-87253000D01*
X223581500Y-87244000D01*
X223560500Y-87234000D01*
X223539500Y-87223000D01*
X223499500Y-87197000D01*
X223481500Y-87183000D01*
X223463500Y-87167000D01*
X223446500Y-87151000D01*
X223430500Y-87134000D01*
X223414500Y-87116000D01*
X223400500Y-87098000D01*
X223374500Y-87058000D01*
X223363500Y-87037000D01*
X223353500Y-87016000D01*
X223344500Y-86994000D01*
X223336500Y-86972000D01*
X223329500Y-86949000D01*
X223324500Y-86927000D01*
X223320500Y-86903000D01*
X223316500Y-86880000D01*
X223315500Y-86857000D01*
X223314500Y-86833000D01*
X223315500Y-86809000D01*
X223316500Y-86786000D01*
X223320500Y-86763000D01*
X223324500Y-86739000D01*
X223329500Y-86717000D01*
X223336500Y-86694000D01*
X223344500Y-86672000D01*
X223353500Y-86650000D01*
X223363500Y-86629000D01*
X223374500Y-86608000D01*
X223400500Y-86568000D01*
X223414500Y-86550000D01*
X223430500Y-86532000D01*
X223446500Y-86515000D01*
X223463500Y-86499000D01*
X223481500Y-86483000D01*
X223499500Y-86469000D01*
X223539500Y-86443000D01*
X223560500Y-86432000D01*
X223581500Y-86422000D01*
X223603500Y-86413000D01*
X223625500Y-86405000D01*
X223648500Y-86398000D01*
X223670500Y-86393000D01*
X223694500Y-86389000D01*
X223717500Y-86385000D01*
X223740500Y-86384000D01*
X223764500Y-86383000D01*
X224864500Y-86383000D01*
X224888500Y-86384000D01*
G37*
X224888500Y-86384000D02*
X224911500Y-86385000D01*
X224934500Y-86389000D01*
X224958500Y-86393000D01*
X224980500Y-86398000D01*
X225003500Y-86405000D01*
X225025500Y-86413000D01*
X225047500Y-86422000D01*
X225068500Y-86432000D01*
X225089500Y-86443000D01*
X225129500Y-86469000D01*
X225147500Y-86483000D01*
X225165500Y-86499000D01*
X225182500Y-86515000D01*
X225198500Y-86532000D01*
X225214500Y-86550000D01*
X225228500Y-86568000D01*
X225254500Y-86608000D01*
X225265500Y-86629000D01*
X225275500Y-86650000D01*
X225284500Y-86672000D01*
X225292500Y-86694000D01*
X225299500Y-86717000D01*
X225304500Y-86739000D01*
X225308500Y-86763000D01*
X225312500Y-86786000D01*
X225313500Y-86809000D01*
X225314500Y-86833000D01*
X225313500Y-86857000D01*
X225312500Y-86880000D01*
X225308500Y-86903000D01*
X225304500Y-86927000D01*
X225299500Y-86949000D01*
X225292500Y-86972000D01*
X225284500Y-86994000D01*
X225275500Y-87016000D01*
X225265500Y-87037000D01*
X225254500Y-87058000D01*
X225228500Y-87098000D01*
X225214500Y-87116000D01*
X225198500Y-87134000D01*
X225182500Y-87151000D01*
X225165500Y-87167000D01*
X225147500Y-87183000D01*
X225129500Y-87197000D01*
X225089500Y-87223000D01*
X225068500Y-87234000D01*
X225047500Y-87244000D01*
X225025500Y-87253000D01*
X225003500Y-87261000D01*
X224980500Y-87268000D01*
X224958500Y-87273000D01*
X224934500Y-87277000D01*
X224911500Y-87281000D01*
X224888500Y-87282000D01*
X224864500Y-87283000D01*
X223764500Y-87283000D01*
X223740500Y-87282000D01*
X223717500Y-87281000D01*
X223694500Y-87277000D01*
X223670500Y-87273000D01*
X223648500Y-87268000D01*
X223625500Y-87261000D01*
X223603500Y-87253000D01*
X223581500Y-87244000D01*
X223560500Y-87234000D01*
X223539500Y-87223000D01*
X223499500Y-87197000D01*
X223481500Y-87183000D01*
X223463500Y-87167000D01*
X223446500Y-87151000D01*
X223430500Y-87134000D01*
X223414500Y-87116000D01*
X223400500Y-87098000D01*
X223374500Y-87058000D01*
X223363500Y-87037000D01*
X223353500Y-87016000D01*
X223344500Y-86994000D01*
X223336500Y-86972000D01*
X223329500Y-86949000D01*
X223324500Y-86927000D01*
X223320500Y-86903000D01*
X223316500Y-86880000D01*
X223315500Y-86857000D01*
X223314500Y-86833000D01*
X223315500Y-86809000D01*
X223316500Y-86786000D01*
X223320500Y-86763000D01*
X223324500Y-86739000D01*
X223329500Y-86717000D01*
X223336500Y-86694000D01*
X223344500Y-86672000D01*
X223353500Y-86650000D01*
X223363500Y-86629000D01*
X223374500Y-86608000D01*
X223400500Y-86568000D01*
X223414500Y-86550000D01*
X223430500Y-86532000D01*
X223446500Y-86515000D01*
X223463500Y-86499000D01*
X223481500Y-86483000D01*
X223499500Y-86469000D01*
X223539500Y-86443000D01*
X223560500Y-86432000D01*
X223581500Y-86422000D01*
X223603500Y-86413000D01*
X223625500Y-86405000D01*
X223648500Y-86398000D01*
X223670500Y-86393000D01*
X223694500Y-86389000D01*
X223717500Y-86385000D01*
X223740500Y-86384000D01*
X223764500Y-86383000D01*
X224864500Y-86383000D01*
X224888500Y-86384000D01*
G36*
X228908500Y-95034000D02*
G01*
X228931500Y-95035000D01*
X228954500Y-95039000D01*
X228978500Y-95043000D01*
X229000500Y-95048000D01*
X229023500Y-95055000D01*
X229045500Y-95063000D01*
X229067500Y-95072000D01*
X229088500Y-95082000D01*
X229109500Y-95093000D01*
X229149500Y-95119000D01*
X229167500Y-95133000D01*
X229185500Y-95149000D01*
X229202500Y-95165000D01*
X229218500Y-95182000D01*
X229234500Y-95200000D01*
X229248500Y-95218000D01*
X229274500Y-95258000D01*
X229285500Y-95279000D01*
X229295500Y-95300000D01*
X229304500Y-95322000D01*
X229312500Y-95344000D01*
X229319500Y-95367000D01*
X229324500Y-95389000D01*
X229328500Y-95413000D01*
X229332500Y-95436000D01*
X229333500Y-95459000D01*
X229334500Y-95483000D01*
X229333500Y-95507000D01*
X229332500Y-95530000D01*
X229328500Y-95553000D01*
X229324500Y-95577000D01*
X229319500Y-95599000D01*
X229312500Y-95622000D01*
X229304500Y-95644000D01*
X229295500Y-95666000D01*
X229285500Y-95687000D01*
X229274500Y-95708000D01*
X229248500Y-95748000D01*
X229234500Y-95766000D01*
X229218500Y-95784000D01*
X229202500Y-95801000D01*
X229185500Y-95817000D01*
X229167500Y-95833000D01*
X229149500Y-95847000D01*
X229109500Y-95873000D01*
X229088500Y-95884000D01*
X229067500Y-95894000D01*
X229045500Y-95903000D01*
X229023500Y-95911000D01*
X229000500Y-95918000D01*
X228978500Y-95923000D01*
X228954500Y-95927000D01*
X228931500Y-95931000D01*
X228908500Y-95932000D01*
X228884500Y-95933000D01*
X228084500Y-95933000D01*
X228060500Y-95932000D01*
X228037500Y-95931000D01*
X228014500Y-95927000D01*
X227990500Y-95923000D01*
X227968500Y-95918000D01*
X227945500Y-95911000D01*
X227923500Y-95903000D01*
X227901500Y-95894000D01*
X227880500Y-95884000D01*
X227859500Y-95873000D01*
X227819500Y-95847000D01*
X227801500Y-95833000D01*
X227783500Y-95817000D01*
X227766500Y-95801000D01*
X227750500Y-95784000D01*
X227734500Y-95766000D01*
X227720500Y-95748000D01*
X227694500Y-95708000D01*
X227683500Y-95687000D01*
X227673500Y-95666000D01*
X227664500Y-95644000D01*
X227656500Y-95622000D01*
X227649500Y-95599000D01*
X227644500Y-95577000D01*
X227640500Y-95553000D01*
X227636500Y-95530000D01*
X227635500Y-95507000D01*
X227634500Y-95483000D01*
X227635500Y-95459000D01*
X227636500Y-95436000D01*
X227640500Y-95413000D01*
X227644500Y-95389000D01*
X227649500Y-95367000D01*
X227656500Y-95344000D01*
X227664500Y-95322000D01*
X227673500Y-95300000D01*
X227683500Y-95279000D01*
X227694500Y-95258000D01*
X227720500Y-95218000D01*
X227734500Y-95200000D01*
X227750500Y-95182000D01*
X227766500Y-95165000D01*
X227783500Y-95149000D01*
X227801500Y-95133000D01*
X227819500Y-95119000D01*
X227859500Y-95093000D01*
X227880500Y-95082000D01*
X227901500Y-95072000D01*
X227923500Y-95063000D01*
X227945500Y-95055000D01*
X227968500Y-95048000D01*
X227990500Y-95043000D01*
X228014500Y-95039000D01*
X228037500Y-95035000D01*
X228060500Y-95034000D01*
X228084500Y-95033000D01*
X228884500Y-95033000D01*
X228908500Y-95034000D01*
G37*
X228908500Y-95034000D02*
X228931500Y-95035000D01*
X228954500Y-95039000D01*
X228978500Y-95043000D01*
X229000500Y-95048000D01*
X229023500Y-95055000D01*
X229045500Y-95063000D01*
X229067500Y-95072000D01*
X229088500Y-95082000D01*
X229109500Y-95093000D01*
X229149500Y-95119000D01*
X229167500Y-95133000D01*
X229185500Y-95149000D01*
X229202500Y-95165000D01*
X229218500Y-95182000D01*
X229234500Y-95200000D01*
X229248500Y-95218000D01*
X229274500Y-95258000D01*
X229285500Y-95279000D01*
X229295500Y-95300000D01*
X229304500Y-95322000D01*
X229312500Y-95344000D01*
X229319500Y-95367000D01*
X229324500Y-95389000D01*
X229328500Y-95413000D01*
X229332500Y-95436000D01*
X229333500Y-95459000D01*
X229334500Y-95483000D01*
X229333500Y-95507000D01*
X229332500Y-95530000D01*
X229328500Y-95553000D01*
X229324500Y-95577000D01*
X229319500Y-95599000D01*
X229312500Y-95622000D01*
X229304500Y-95644000D01*
X229295500Y-95666000D01*
X229285500Y-95687000D01*
X229274500Y-95708000D01*
X229248500Y-95748000D01*
X229234500Y-95766000D01*
X229218500Y-95784000D01*
X229202500Y-95801000D01*
X229185500Y-95817000D01*
X229167500Y-95833000D01*
X229149500Y-95847000D01*
X229109500Y-95873000D01*
X229088500Y-95884000D01*
X229067500Y-95894000D01*
X229045500Y-95903000D01*
X229023500Y-95911000D01*
X229000500Y-95918000D01*
X228978500Y-95923000D01*
X228954500Y-95927000D01*
X228931500Y-95931000D01*
X228908500Y-95932000D01*
X228884500Y-95933000D01*
X228084500Y-95933000D01*
X228060500Y-95932000D01*
X228037500Y-95931000D01*
X228014500Y-95927000D01*
X227990500Y-95923000D01*
X227968500Y-95918000D01*
X227945500Y-95911000D01*
X227923500Y-95903000D01*
X227901500Y-95894000D01*
X227880500Y-95884000D01*
X227859500Y-95873000D01*
X227819500Y-95847000D01*
X227801500Y-95833000D01*
X227783500Y-95817000D01*
X227766500Y-95801000D01*
X227750500Y-95784000D01*
X227734500Y-95766000D01*
X227720500Y-95748000D01*
X227694500Y-95708000D01*
X227683500Y-95687000D01*
X227673500Y-95666000D01*
X227664500Y-95644000D01*
X227656500Y-95622000D01*
X227649500Y-95599000D01*
X227644500Y-95577000D01*
X227640500Y-95553000D01*
X227636500Y-95530000D01*
X227635500Y-95507000D01*
X227634500Y-95483000D01*
X227635500Y-95459000D01*
X227636500Y-95436000D01*
X227640500Y-95413000D01*
X227644500Y-95389000D01*
X227649500Y-95367000D01*
X227656500Y-95344000D01*
X227664500Y-95322000D01*
X227673500Y-95300000D01*
X227683500Y-95279000D01*
X227694500Y-95258000D01*
X227720500Y-95218000D01*
X227734500Y-95200000D01*
X227750500Y-95182000D01*
X227766500Y-95165000D01*
X227783500Y-95149000D01*
X227801500Y-95133000D01*
X227819500Y-95119000D01*
X227859500Y-95093000D01*
X227880500Y-95082000D01*
X227901500Y-95072000D01*
X227923500Y-95063000D01*
X227945500Y-95055000D01*
X227968500Y-95048000D01*
X227990500Y-95043000D01*
X228014500Y-95039000D01*
X228037500Y-95035000D01*
X228060500Y-95034000D01*
X228084500Y-95033000D01*
X228884500Y-95033000D01*
X228908500Y-95034000D01*
G36*
X228908500Y-86384000D02*
G01*
X228931500Y-86385000D01*
X228954500Y-86389000D01*
X228978500Y-86393000D01*
X229000500Y-86398000D01*
X229023500Y-86405000D01*
X229045500Y-86413000D01*
X229067500Y-86422000D01*
X229088500Y-86432000D01*
X229109500Y-86443000D01*
X229149500Y-86469000D01*
X229167500Y-86483000D01*
X229185500Y-86499000D01*
X229202500Y-86515000D01*
X229218500Y-86532000D01*
X229234500Y-86550000D01*
X229248500Y-86568000D01*
X229274500Y-86608000D01*
X229285500Y-86629000D01*
X229295500Y-86650000D01*
X229304500Y-86672000D01*
X229312500Y-86694000D01*
X229319500Y-86717000D01*
X229324500Y-86739000D01*
X229328500Y-86763000D01*
X229332500Y-86786000D01*
X229333500Y-86809000D01*
X229334500Y-86833000D01*
X229333500Y-86857000D01*
X229332500Y-86880000D01*
X229328500Y-86903000D01*
X229324500Y-86927000D01*
X229319500Y-86949000D01*
X229312500Y-86972000D01*
X229304500Y-86994000D01*
X229295500Y-87016000D01*
X229285500Y-87037000D01*
X229274500Y-87058000D01*
X229248500Y-87098000D01*
X229234500Y-87116000D01*
X229218500Y-87134000D01*
X229202500Y-87151000D01*
X229185500Y-87167000D01*
X229167500Y-87183000D01*
X229149500Y-87197000D01*
X229109500Y-87223000D01*
X229088500Y-87234000D01*
X229067500Y-87244000D01*
X229045500Y-87253000D01*
X229023500Y-87261000D01*
X229000500Y-87268000D01*
X228978500Y-87273000D01*
X228954500Y-87277000D01*
X228931500Y-87281000D01*
X228908500Y-87282000D01*
X228884500Y-87283000D01*
X228084500Y-87283000D01*
X228060500Y-87282000D01*
X228037500Y-87281000D01*
X228014500Y-87277000D01*
X227990500Y-87273000D01*
X227968500Y-87268000D01*
X227945500Y-87261000D01*
X227923500Y-87253000D01*
X227901500Y-87244000D01*
X227880500Y-87234000D01*
X227859500Y-87223000D01*
X227819500Y-87197000D01*
X227801500Y-87183000D01*
X227783500Y-87167000D01*
X227766500Y-87151000D01*
X227750500Y-87134000D01*
X227734500Y-87116000D01*
X227720500Y-87098000D01*
X227694500Y-87058000D01*
X227683500Y-87037000D01*
X227673500Y-87016000D01*
X227664500Y-86994000D01*
X227656500Y-86972000D01*
X227649500Y-86949000D01*
X227644500Y-86927000D01*
X227640500Y-86903000D01*
X227636500Y-86880000D01*
X227635500Y-86857000D01*
X227634500Y-86833000D01*
X227635500Y-86809000D01*
X227636500Y-86786000D01*
X227640500Y-86763000D01*
X227644500Y-86739000D01*
X227649500Y-86717000D01*
X227656500Y-86694000D01*
X227664500Y-86672000D01*
X227673500Y-86650000D01*
X227683500Y-86629000D01*
X227694500Y-86608000D01*
X227720500Y-86568000D01*
X227734500Y-86550000D01*
X227750500Y-86532000D01*
X227766500Y-86515000D01*
X227783500Y-86499000D01*
X227801500Y-86483000D01*
X227819500Y-86469000D01*
X227859500Y-86443000D01*
X227880500Y-86432000D01*
X227901500Y-86422000D01*
X227923500Y-86413000D01*
X227945500Y-86405000D01*
X227968500Y-86398000D01*
X227990500Y-86393000D01*
X228014500Y-86389000D01*
X228037500Y-86385000D01*
X228060500Y-86384000D01*
X228084500Y-86383000D01*
X228884500Y-86383000D01*
X228908500Y-86384000D01*
G37*
X228908500Y-86384000D02*
X228931500Y-86385000D01*
X228954500Y-86389000D01*
X228978500Y-86393000D01*
X229000500Y-86398000D01*
X229023500Y-86405000D01*
X229045500Y-86413000D01*
X229067500Y-86422000D01*
X229088500Y-86432000D01*
X229109500Y-86443000D01*
X229149500Y-86469000D01*
X229167500Y-86483000D01*
X229185500Y-86499000D01*
X229202500Y-86515000D01*
X229218500Y-86532000D01*
X229234500Y-86550000D01*
X229248500Y-86568000D01*
X229274500Y-86608000D01*
X229285500Y-86629000D01*
X229295500Y-86650000D01*
X229304500Y-86672000D01*
X229312500Y-86694000D01*
X229319500Y-86717000D01*
X229324500Y-86739000D01*
X229328500Y-86763000D01*
X229332500Y-86786000D01*
X229333500Y-86809000D01*
X229334500Y-86833000D01*
X229333500Y-86857000D01*
X229332500Y-86880000D01*
X229328500Y-86903000D01*
X229324500Y-86927000D01*
X229319500Y-86949000D01*
X229312500Y-86972000D01*
X229304500Y-86994000D01*
X229295500Y-87016000D01*
X229285500Y-87037000D01*
X229274500Y-87058000D01*
X229248500Y-87098000D01*
X229234500Y-87116000D01*
X229218500Y-87134000D01*
X229202500Y-87151000D01*
X229185500Y-87167000D01*
X229167500Y-87183000D01*
X229149500Y-87197000D01*
X229109500Y-87223000D01*
X229088500Y-87234000D01*
X229067500Y-87244000D01*
X229045500Y-87253000D01*
X229023500Y-87261000D01*
X229000500Y-87268000D01*
X228978500Y-87273000D01*
X228954500Y-87277000D01*
X228931500Y-87281000D01*
X228908500Y-87282000D01*
X228884500Y-87283000D01*
X228084500Y-87283000D01*
X228060500Y-87282000D01*
X228037500Y-87281000D01*
X228014500Y-87277000D01*
X227990500Y-87273000D01*
X227968500Y-87268000D01*
X227945500Y-87261000D01*
X227923500Y-87253000D01*
X227901500Y-87244000D01*
X227880500Y-87234000D01*
X227859500Y-87223000D01*
X227819500Y-87197000D01*
X227801500Y-87183000D01*
X227783500Y-87167000D01*
X227766500Y-87151000D01*
X227750500Y-87134000D01*
X227734500Y-87116000D01*
X227720500Y-87098000D01*
X227694500Y-87058000D01*
X227683500Y-87037000D01*
X227673500Y-87016000D01*
X227664500Y-86994000D01*
X227656500Y-86972000D01*
X227649500Y-86949000D01*
X227644500Y-86927000D01*
X227640500Y-86903000D01*
X227636500Y-86880000D01*
X227635500Y-86857000D01*
X227634500Y-86833000D01*
X227635500Y-86809000D01*
X227636500Y-86786000D01*
X227640500Y-86763000D01*
X227644500Y-86739000D01*
X227649500Y-86717000D01*
X227656500Y-86694000D01*
X227664500Y-86672000D01*
X227673500Y-86650000D01*
X227683500Y-86629000D01*
X227694500Y-86608000D01*
X227720500Y-86568000D01*
X227734500Y-86550000D01*
X227750500Y-86532000D01*
X227766500Y-86515000D01*
X227783500Y-86499000D01*
X227801500Y-86483000D01*
X227819500Y-86469000D01*
X227859500Y-86443000D01*
X227880500Y-86432000D01*
X227901500Y-86422000D01*
X227923500Y-86413000D01*
X227945500Y-86405000D01*
X227968500Y-86398000D01*
X227990500Y-86393000D01*
X228014500Y-86389000D01*
X228037500Y-86385000D01*
X228060500Y-86384000D01*
X228084500Y-86383000D01*
X228884500Y-86383000D01*
X228908500Y-86384000D01*
%TD*%
D11*
%TO.P,C18,1*%
%TO.N,+3.3V*%
X206822000Y-96504000D03*
%TO.P,C18,2*%
%TO.N,GND*%
X206822000Y-97464000D03*
%TD*%
D12*
%TO.P,P1,1,Pin_1*%
%TO.N,Net-(L8-Pad2)*%
X179072000Y-91059000D03*
D13*
%TO.P,P1,2*%
%TO.N,N/C*%
X176532000Y-93599000D03*
X176532000Y-88519000D03*
X181612000Y-88519000D03*
X181612000Y-93599000D03*
%TD*%
D14*
%TO.P,U2,1,RS485/GPIO.1*%
%TO.N,unconnected-(U2-Pad1)*%
X221468000Y-101326000D03*
D15*
%TO.P,U2,2,CLK/GPIO.0*%
%TO.N,unconnected-(U2-Pad2)*%
X221768000Y-100826000D03*
%TO.P,U2,3,GND*%
%TO.N,GND*%
X221768000Y-100326000D03*
%TO.P,U2,4,D+*%
%TO.N,/D+*%
X221768000Y-99826000D03*
%TO.P,U2,5,D-*%
%TO.N,/D-*%
X221768000Y-99326000D03*
D14*
%TO.P,U2,6,VDD*%
%TO.N,+3.3V*%
X221468000Y-98826000D03*
D16*
%TO.P,U2,7,VREGIN*%
%TO.N,VBUS*%
X220968000Y-98526000D03*
%TO.P,U2,8,VBUS*%
X220468000Y-98526000D03*
%TO.P,U2,9,~{RST}*%
%TO.N,Net-(R12-Pad2)*%
X219968000Y-98526000D03*
%TO.P,U2,10,NC*%
%TO.N,unconnected-(U2-Pad10)*%
X219468000Y-98526000D03*
D14*
%TO.P,U2,11,~{SUSPEND}*%
%TO.N,unconnected-(U2-Pad11)*%
X218968000Y-98826000D03*
D15*
%TO.P,U2,12,GND*%
%TO.N,GND*%
X218668000Y-99326000D03*
%TO.P,U2,13,~{WAKEUP}*%
%TO.N,unconnected-(U2-Pad13)*%
X218668000Y-99826000D03*
%TO.P,U2,14,SUSPEND*%
%TO.N,unconnected-(U2-Pad14)*%
X218668000Y-100326000D03*
%TO.P,U2,15,~{CTS}*%
%TO.N,unconnected-(U2-Pad15)*%
X218668000Y-100826000D03*
D14*
%TO.P,U2,16,~{RTS}*%
%TO.N,unconnected-(U2-Pad16)*%
X218968000Y-101326000D03*
D16*
%TO.P,U2,17,RXD*%
%TO.N,/TX*%
X219468000Y-101626000D03*
%TO.P,U2,18,TXD*%
%TO.N,/RX*%
X219968000Y-101626000D03*
%TO.P,U2,19,~{RXT}/GPIO.3*%
%TO.N,/RXT*%
X220468000Y-101626000D03*
%TO.P,U2,20,~{TXT}/GPIO.2*%
%TO.N,/TXT*%
X220968000Y-101626000D03*
D17*
%TO.P,U2,EXP*%
%TO.N,N/C*%
X220218000Y-100076000D03*
%TD*%
D18*
%TO.P,C26,1*%
%TO.N,Net-(C26-Pad1)*%
X198272000Y-89214000D03*
%TO.P,C26,2*%
%TO.N,+3.3V*%
X198272000Y-88254000D03*
%TD*%
D19*
%TO.P,U1,1,VBAT*%
%TO.N,+3.3V*%
X212208500Y-76752000D03*
%TO.P,U1,2,PC13*%
%TO.N,unconnected-(U1-Pad2)*%
X212208500Y-77252000D03*
%TO.P,U1,3,PC14*%
%TO.N,unconnected-(U1-Pad3)*%
X212208500Y-77752000D03*
%TO.P,U1,4,PC15*%
%TO.N,unconnected-(U1-Pad4)*%
X212208500Y-78252000D03*
%TO.P,U1,5,PH0*%
%TO.N,/OSC_IN*%
X212208500Y-78752000D03*
%TO.P,U1,6,PH1*%
%TO.N,/OSC_OUT*%
X212208500Y-79252000D03*
%TO.P,U1,7,NRST*%
%TO.N,/NRST*%
X212208500Y-79752000D03*
%TO.P,U1,8,VSSA*%
%TO.N,GND*%
X212208500Y-80252000D03*
%TO.P,U1,9,VREF+*%
%TO.N,+3.3VA*%
X212208500Y-80752000D03*
%TO.P,U1,10,PA0*%
%TO.N,unconnected-(U1-Pad10)*%
X212208500Y-81252000D03*
%TO.P,U1,11,PA1*%
%TO.N,unconnected-(U1-Pad11)*%
X212208500Y-81752000D03*
%TO.P,U1,12,PA2*%
%TO.N,unconnected-(U1-Pad12)*%
X212208500Y-82252000D03*
D20*
%TO.P,U1,13,PA3*%
%TO.N,unconnected-(U1-Pad13)*%
X212896000Y-82939500D03*
%TO.P,U1,14,PA4*%
%TO.N,unconnected-(U1-Pad14)*%
X213396000Y-82939500D03*
%TO.P,U1,15,PA5*%
%TO.N,unconnected-(U1-Pad15)*%
X213896000Y-82939500D03*
%TO.P,U1,16,PA6*%
%TO.N,RADIO_MARC_INT*%
X214396000Y-82939500D03*
%TO.P,U1,17,PA7*%
%TO.N,RADIO_INT*%
X214896000Y-82939500D03*
%TO.P,U1,18,PB0*%
%TO.N,unconnected-(U1-Pad18)*%
X215396000Y-82939500D03*
%TO.P,U1,19,PB1*%
%TO.N,unconnected-(U1-Pad19)*%
X215896000Y-82939500D03*
%TO.P,U1,20,PB2*%
%TO.N,unconnected-(U1-Pad20)*%
X216396000Y-82939500D03*
%TO.P,U1,21,PB10*%
%TO.N,unconnected-(U1-Pad21)*%
X216896000Y-82939500D03*
%TO.P,U1,22,VCAP1*%
%TO.N,Net-(C9-Pad1)*%
X217396000Y-82939500D03*
%TO.P,U1,23,VSS*%
%TO.N,GND*%
X217896000Y-82939500D03*
%TO.P,U1,24,VDD*%
%TO.N,+3.3V*%
X218396000Y-82939500D03*
D19*
%TO.P,U1,25,PB12*%
%TO.N,RADIO_CS*%
X219083500Y-82252000D03*
%TO.P,U1,26,PB13*%
%TO.N,SPI2_SCK*%
X219083500Y-81752000D03*
%TO.P,U1,27,PB14*%
%TO.N,SPI2_MISO*%
X219083500Y-81252000D03*
%TO.P,U1,28,PB15*%
%TO.N,SPI_MOSI*%
X219083500Y-80752000D03*
%TO.P,U1,29,PA8*%
%TO.N,RADIO_RESET*%
X219083500Y-80252000D03*
%TO.P,U1,30,PA9*%
%TO.N,/TX*%
X219083500Y-79752000D03*
%TO.P,U1,31,PA10*%
%TO.N,/RX*%
X219083500Y-79252000D03*
%TO.P,U1,32,PA11*%
%TO.N,unconnected-(U1-Pad32)*%
X219083500Y-78752000D03*
%TO.P,U1,33,PA12*%
%TO.N,unconnected-(U1-Pad33)*%
X219083500Y-78252000D03*
%TO.P,U1,34,PA13*%
%TO.N,/SWDIO*%
X219083500Y-77752000D03*
%TO.P,U1,35,VSS*%
%TO.N,GND*%
X219083500Y-77252000D03*
%TO.P,U1,36,VDD*%
%TO.N,+3.3V*%
X219083500Y-76752000D03*
D20*
%TO.P,U1,37,PA14*%
%TO.N,/SWCLK*%
X218396000Y-76064500D03*
%TO.P,U1,38,PA15*%
%TO.N,unconnected-(U1-Pad38)*%
X217896000Y-76064500D03*
%TO.P,U1,39,PB3*%
%TO.N,unconnected-(U1-Pad39)*%
X217396000Y-76064500D03*
%TO.P,U1,40,PB4*%
%TO.N,unconnected-(U1-Pad40)*%
X216896000Y-76064500D03*
%TO.P,U1,41,PB5*%
%TO.N,unconnected-(U1-Pad41)*%
X216396000Y-76064500D03*
%TO.P,U1,42,PB6*%
%TO.N,/LED2*%
X215896000Y-76064500D03*
%TO.P,U1,43,PB7*%
%TO.N,/LED1*%
X215396000Y-76064500D03*
%TO.P,U1,44,BOOT0*%
%TO.N,unconnected-(U1-Pad44)*%
X214896000Y-76064500D03*
%TO.P,U1,45,PB8*%
%TO.N,/S1*%
X214396000Y-76064500D03*
%TO.P,U1,46,PB9*%
%TO.N,/S2*%
X213896000Y-76064500D03*
%TO.P,U1,47,VSS*%
%TO.N,GND*%
X213396000Y-76064500D03*
%TO.P,U1,48,VDD*%
%TO.N,+3.3V*%
X212896000Y-76064500D03*
D21*
%TO.P,U1,49,VSS*%
%TO.N,GND*%
X215646000Y-79502000D03*
%TD*%
D22*
%TO.P,D4,1,K*%
%TO.N,/TXT*%
X226083000Y-100838000D03*
%TO.P,D4,2,A*%
%TO.N,Net-(D4-Pad2)*%
X227053000Y-100838000D03*
%TD*%
D18*
%TO.P,C29,1*%
%TO.N,GND*%
X199597000Y-99314000D03*
%TO.P,C29,2*%
%TO.N,+3.3V*%
X199597000Y-98354000D03*
%TD*%
D23*
%TO.P,C32,1*%
%TO.N,GND*%
X191717000Y-95384000D03*
%TO.P,C32,2*%
%TO.N,Net-(C32-Pad2)*%
X192677000Y-95384000D03*
%TD*%
D18*
%TO.P,C22,1*%
%TO.N,+3.3V*%
X197072000Y-87139000D03*
%TO.P,C22,2*%
%TO.N,GND*%
X197072000Y-86179000D03*
%TD*%
D23*
%TO.P,C6,1*%
%TO.N,/OSC_OUT*%
X205260000Y-81788000D03*
%TO.P,C6,2*%
%TO.N,GND*%
X206220000Y-81788000D03*
%TD*%
D22*
%TO.P,D2,1,K*%
%TO.N,Net-(D2-Pad1)*%
X228242000Y-84328000D03*
%TO.P,D2,2,A*%
%TO.N,/LED1*%
X229212000Y-84328000D03*
%TD*%
D11*
%TO.P,C21,1*%
%TO.N,Net-(C21-Pad1)*%
X198247000Y-95954000D03*
%TO.P,C21,2*%
%TO.N,Net-(C21-Pad2)*%
X198247000Y-96914000D03*
%TD*%
%TO.P,C9,1*%
%TO.N,Net-(C9-Pad1)*%
X216916000Y-84130000D03*
%TO.P,C9,2*%
%TO.N,GND*%
X216916000Y-85090000D03*
%TD*%
D24*
%TO.P,L5,1,1*%
%TO.N,Net-(C30-Pad1)*%
X193477000Y-90109000D03*
%TO.P,L5,2,2*%
%TO.N,Net-(C34-Pad1)*%
X192517000Y-90109000D03*
%TD*%
D18*
%TO.P,C19,1*%
%TO.N,+3.3V*%
X200697000Y-89614000D03*
%TO.P,C19,2*%
%TO.N,GND*%
X200697000Y-88654000D03*
%TD*%
D25*
%TO.P,R12,1*%
%TO.N,+3.3V*%
X219204000Y-96901000D03*
%TO.P,R12,2*%
%TO.N,Net-(R12-Pad2)*%
X218184000Y-96901000D03*
%TD*%
D18*
%TO.P,C23,1*%
%TO.N,GND*%
X200672000Y-99339000D03*
%TO.P,C23,2*%
%TO.N,Net-(C23-Pad2)*%
X200672000Y-98379000D03*
%TD*%
D22*
%TO.P,D5,1,K*%
%TO.N,/RXT*%
X226083000Y-102616000D03*
%TO.P,D5,2,A*%
%TO.N,Net-(D5-Pad2)*%
X227053000Y-102616000D03*
%TD*%
D18*
%TO.P,C7,1*%
%TO.N,+3.3V*%
X210820000Y-76934000D03*
%TO.P,C7,2*%
%TO.N,GND*%
X210820000Y-75974000D03*
%TD*%
D11*
%TO.P,L7,1,1*%
%TO.N,Net-(C34-Pad1)*%
X190072000Y-90079000D03*
%TO.P,L7,2,2*%
%TO.N,Net-(C37-Pad1)*%
X190072000Y-91039000D03*
%TD*%
D25*
%TO.P,R6,1*%
%TO.N,Net-(D2-Pad1)*%
X226570000Y-84328000D03*
%TO.P,R6,2*%
%TO.N,GND*%
X225550000Y-84328000D03*
%TD*%
D11*
%TO.P,C8,1*%
%TO.N,+3.3V*%
X220599000Y-76228000D03*
%TO.P,C8,2*%
%TO.N,GND*%
X220599000Y-77188000D03*
%TD*%
D23*
%TO.P,C15,1*%
%TO.N,+3.3V*%
X207417000Y-93609000D03*
%TO.P,C15,2*%
%TO.N,GND*%
X208377000Y-93609000D03*
%TD*%
D26*
%TO.P,FB1,1*%
%TO.N,+3.3VA*%
X209804000Y-82778500D03*
%TO.P,FB1,2*%
%TO.N,+3.3V*%
X209804000Y-84353500D03*
%TD*%
D23*
%TO.P,C5,1*%
%TO.N,+3.3V*%
X212118000Y-74676000D03*
%TO.P,C5,2*%
%TO.N,GND*%
X213078000Y-74676000D03*
%TD*%
D11*
%TO.P,C24,1*%
%TO.N,+3.3V*%
X197097000Y-95954000D03*
%TO.P,C24,2*%
%TO.N,GND*%
X197097000Y-96914000D03*
%TD*%
%TO.P,L2,1,1*%
%TO.N,Net-(C33-Pad2)*%
X194122000Y-93904000D03*
%TO.P,L2,2,2*%
%TO.N,Net-(C32-Pad2)*%
X194122000Y-94864000D03*
%TD*%
D27*
%TO.P,U3,1,VDD_GUARD*%
%TO.N,+3.3V*%
X205009500Y-95984000D03*
%TO.P,U3,2,~{RESET}*%
%TO.N,RADIO_RESET*%
X205009500Y-95484000D03*
%TO.P,U3,3,GPIO3*%
%TO.N,RADIO_MARC_INT*%
X205009500Y-94984000D03*
%TO.P,U3,4,GPIO2*%
%TO.N,RADIO_INT*%
X205009500Y-94484000D03*
%TO.P,U3,5,DVDD*%
%TO.N,+3.3V*%
X205009500Y-93984000D03*
%TO.P,U3,6,DCPL*%
%TO.N,Net-(C16-Pad1)*%
X205009500Y-93484000D03*
%TO.P,U3,7,SI*%
%TO.N,SPI_MOSI*%
X205009500Y-92984000D03*
%TO.P,U3,8,SCLK*%
%TO.N,SPI2_SCK*%
X205009500Y-92484000D03*
D28*
%TO.P,U3,9,SO(GPIO1)*%
%TO.N,SPI2_MISO*%
X204322000Y-91796500D03*
%TO.P,U3,10,GPIO0*%
%TO.N,unconnected-(U3-Pad10)*%
X203822000Y-91796500D03*
%TO.P,U3,11,~{CS}*%
%TO.N,RADIO_CS*%
X203322000Y-91796500D03*
%TO.P,U3,12,DVDD*%
%TO.N,+3.3V*%
X202822000Y-91796500D03*
%TO.P,U3,13,AVDD_IF*%
X202322000Y-91796500D03*
%TO.P,U3,14,RBIAS*%
%TO.N,Net-(R8-Pad1)*%
X201822000Y-91796500D03*
%TO.P,U3,15,AVDD_RF*%
%TO.N,+3.3V*%
X201322000Y-91796500D03*
%TO.P,U3,16,NC*%
%TO.N,unconnected-(U3-Pad16)*%
X200822000Y-91796500D03*
D27*
%TO.P,U3,17,PA*%
%TO.N,Net-(C30-Pad2)*%
X200134500Y-92484000D03*
%TO.P,U3,18,TRX_SW*%
%TO.N,Net-(C35-Pad1)*%
X200134500Y-92984000D03*
%TO.P,U3,19,LNA_P*%
%TO.N,Net-(C33-Pad2)*%
X200134500Y-93484000D03*
%TO.P,U3,20,LNA_N*%
%TO.N,Net-(C32-Pad2)*%
X200134500Y-93984000D03*
%TO.P,U3,21,DCPL_VCO*%
%TO.N,Net-(C20-Pad2)*%
X200134500Y-94484000D03*
%TO.P,U3,22,AVDD_SYNTH1*%
%TO.N,+3.3V*%
X200134500Y-94984000D03*
%TO.P,U3,23,LPF0*%
%TO.N,Net-(C21-Pad1)*%
X200134500Y-95484000D03*
%TO.P,U3,24,LPF1*%
%TO.N,Net-(C21-Pad2)*%
X200134500Y-95984000D03*
D28*
%TO.P,U3,25,AVDD_PFD_CHP*%
%TO.N,+3.3V*%
X200822000Y-96671500D03*
%TO.P,U3,26,DCPL_PFD_CHP*%
%TO.N,Net-(C23-Pad2)*%
X201322000Y-96671500D03*
%TO.P,U3,27,AVDD_SYNTH2*%
%TO.N,+3.3V*%
X201822000Y-96671500D03*
%TO.P,U3,28,AVDD_XOSC*%
X202322000Y-96671500D03*
%TO.P,U3,29,DCPL_XOSC*%
%TO.N,Net-(C25-Pad2)*%
X202822000Y-96671500D03*
%TO.P,U3,30,XOSC_Q1*%
%TO.N,Net-(C31-Pad1)*%
X203322000Y-96671500D03*
%TO.P,U3,31,XOSC_Q2*%
%TO.N,Net-(C36-Pad1)*%
X203822000Y-96671500D03*
%TO.P,U3,32,EXT_XOSC*%
%TO.N,GND*%
X204322000Y-96671500D03*
D29*
%TO.P,U3,33,GND_EP*%
X202572000Y-94234000D03*
%TD*%
D25*
%TO.P,R10,1*%
%TO.N,+3.3V*%
X229364000Y-100838000D03*
%TO.P,R10,2*%
%TO.N,Net-(D4-Pad2)*%
X228344000Y-100838000D03*
%TD*%
D22*
%TO.P,D3,1,K*%
%TO.N,Net-(D3-Pad1)*%
X228242000Y-81788000D03*
%TO.P,D3,2,A*%
%TO.N,/LED2*%
X229212000Y-81788000D03*
%TD*%
D30*
%TO.P,R4,1*%
%TO.N,GND*%
X221232000Y-89916000D03*
%TO.P,R4,2*%
%TO.N,Net-(J1-PadB5)*%
X222252000Y-89916000D03*
%TD*%
D23*
%TO.P,L6,1,1*%
%TO.N,Net-(C35-Pad1)*%
X189417000Y-92784000D03*
%TO.P,L6,2,2*%
%TO.N,Net-(C33-Pad1)*%
X190377000Y-92784000D03*
%TD*%
D18*
%TO.P,C25,1*%
%TO.N,GND*%
X202822000Y-99364000D03*
%TO.P,C25,2*%
%TO.N,Net-(C25-Pad2)*%
X202822000Y-98404000D03*
%TD*%
D31*
%TO.P,EX1,1,Pin_1*%
%TO.N,VBUS*%
X202443000Y-69088000D03*
D32*
%TO.P,EX1,2,Pin_2*%
%TO.N,+3.3V*%
X199903000Y-69088000D03*
%TO.P,EX1,3,Pin_3*%
%TO.N,/S1*%
X197363000Y-69088000D03*
%TO.P,EX1,4,Pin_4*%
%TO.N,/S2*%
X194823000Y-69088000D03*
%TO.P,EX1,5,Pin_5*%
%TO.N,/TX*%
X192283000Y-69088000D03*
%TO.P,EX1,6,Pin_6*%
%TO.N,/RX*%
X189743000Y-69088000D03*
%TO.P,EX1,7,Pin_7*%
%TO.N,GND*%
X187203000Y-69088000D03*
%TD*%
D33*
%TO.P,Y1,1,1*%
%TO.N,/OSC_IN*%
X206586000Y-78652000D03*
%TO.P,Y1,2,2*%
%TO.N,GND*%
X204386000Y-78652000D03*
%TO.P,Y1,3,3*%
%TO.N,/OSC_OUT*%
X204386000Y-80352000D03*
%TO.P,Y1,4,4*%
%TO.N,GND*%
X206586000Y-80352000D03*
%TD*%
D24*
%TO.P,C31,1*%
%TO.N,Net-(C31-Pad1)*%
X203797000Y-100934000D03*
%TO.P,C31,2*%
%TO.N,GND*%
X202837000Y-100934000D03*
%TD*%
D23*
%TO.P,C34,1*%
%TO.N,Net-(C34-Pad1)*%
X192517000Y-88959000D03*
%TO.P,C34,2*%
%TO.N,Net-(C30-Pad1)*%
X193477000Y-88959000D03*
%TD*%
D18*
%TO.P,C11,1*%
%TO.N,+3.3VA*%
X209550000Y-81506000D03*
%TO.P,C11,2*%
%TO.N,GND*%
X209550000Y-80546000D03*
%TD*%
D11*
%TO.P,C36,1*%
%TO.N,Net-(C36-Pad1)*%
X209072000Y-97829000D03*
%TO.P,C36,2*%
%TO.N,GND*%
X209072000Y-98789000D03*
%TD*%
D18*
%TO.P,C28,1*%
%TO.N,GND*%
X201747000Y-99364000D03*
%TO.P,C28,2*%
%TO.N,+3.3V*%
X201747000Y-98404000D03*
%TD*%
D25*
%TO.P,R11,1*%
%TO.N,+3.3V*%
X229364000Y-102616000D03*
%TO.P,R11,2*%
%TO.N,Net-(D5-Pad2)*%
X228344000Y-102616000D03*
%TD*%
D34*
%TO.P,X1,1,1*%
%TO.N,Net-(C31-Pad1)*%
X206972000Y-102209000D03*
%TO.P,X1,2,2*%
%TO.N,GND*%
X209072000Y-102209000D03*
%TO.P,X1,3,3*%
%TO.N,Net-(C36-Pad1)*%
X209072000Y-100559000D03*
%TO.P,X1,4,4*%
%TO.N,GND*%
X206972000Y-100559000D03*
%TD*%
D24*
%TO.P,C4,1*%
%TO.N,+3.3V*%
X219174000Y-84201000D03*
%TO.P,C4,2*%
%TO.N,GND*%
X218214000Y-84201000D03*
%TD*%
D18*
%TO.P,C17,1*%
%TO.N,+3.3V*%
X202947000Y-89614000D03*
%TO.P,C17,2*%
%TO.N,GND*%
X202947000Y-88654000D03*
%TD*%
D30*
%TO.P,R5,1*%
%TO.N,Net-(D1-Pad1)*%
X228344000Y-99060000D03*
%TO.P,R5,2*%
%TO.N,GND*%
X229364000Y-99060000D03*
%TD*%
D23*
%TO.P,C16,1*%
%TO.N,Net-(C16-Pad1)*%
X207417000Y-92384000D03*
%TO.P,C16,2*%
%TO.N,GND*%
X208377000Y-92384000D03*
%TD*%
D31*
%TO.P,SWD1,1,Pin_1*%
%TO.N,+3.3V*%
X219202000Y-69088000D03*
D32*
%TO.P,SWD1,2,Pin_2*%
%TO.N,/SWCLK*%
X216662000Y-69088000D03*
%TO.P,SWD1,3,Pin_3*%
%TO.N,GND*%
X214122000Y-69088000D03*
%TO.P,SWD1,4,Pin_4*%
%TO.N,/SWDIO*%
X211582000Y-69088000D03*
%TO.P,SWD1,5,Pin_5*%
%TO.N,/NRST*%
X209042000Y-69088000D03*
%TO.P,SWD1,6,Pin_6*%
%TO.N,unconnected-(SWD1-Pad6)*%
X206502000Y-69088000D03*
%TD*%
D30*
%TO.P,R3,1*%
%TO.N,GND*%
X221232000Y-92710000D03*
%TO.P,R3,2*%
%TO.N,Net-(J1-PadA5)*%
X222252000Y-92710000D03*
%TD*%
D18*
%TO.P,R9,1*%
%TO.N,Net-(C26-Pad1)*%
X197097000Y-89214000D03*
%TO.P,R9,2*%
%TO.N,+3.3V*%
X197097000Y-88254000D03*
%TD*%
D25*
%TO.P,R7,1*%
%TO.N,Net-(D3-Pad1)*%
X226570000Y-81788000D03*
%TO.P,R7,2*%
%TO.N,GND*%
X225550000Y-81788000D03*
%TD*%
D23*
%TO.P,C33,1*%
%TO.N,Net-(C33-Pad1)*%
X191642000Y-92834000D03*
%TO.P,C33,2*%
%TO.N,Net-(C33-Pad2)*%
X192602000Y-92834000D03*
%TD*%
D18*
%TO.P,L3,1,1*%
%TO.N,Net-(C32-Pad2)*%
X189072000Y-95264000D03*
%TO.P,L3,2,2*%
%TO.N,Net-(C33-Pad1)*%
X189072000Y-94304000D03*
%TD*%
%TO.P,C37,1*%
%TO.N,Net-(C37-Pad1)*%
X188697000Y-88664000D03*
%TO.P,C37,2*%
%TO.N,GND*%
X188697000Y-87704000D03*
%TD*%
D23*
%TO.P,C13,1*%
%TO.N,+3.3V*%
X221770000Y-97282000D03*
%TO.P,C13,2*%
%TO.N,GND*%
X222730000Y-97282000D03*
%TD*%
D24*
%TO.P,L4,1,1*%
%TO.N,Net-(C33-Pad2)*%
X192652000Y-94109000D03*
%TO.P,L4,2,2*%
%TO.N,GND*%
X191692000Y-94109000D03*
%TD*%
D18*
%TO.P,C10,1*%
%TO.N,+3.3VA*%
X210566000Y-81506000D03*
%TO.P,C10,2*%
%TO.N,GND*%
X210566000Y-80546000D03*
%TD*%
D23*
%TO.P,C30,1*%
%TO.N,Net-(C30-Pad1)*%
X196742000Y-92309000D03*
%TO.P,C30,2*%
%TO.N,Net-(C30-Pad2)*%
X197702000Y-92309000D03*
%TD*%
D35*
%TO.P,D1,1,K*%
%TO.N,Net-(D1-Pad1)*%
X227053000Y-99060000D03*
%TO.P,D1,2,A*%
%TO.N,+3.3V*%
X226083000Y-99060000D03*
%TD*%
D18*
%TO.P,C35,1*%
%TO.N,Net-(C35-Pad1)*%
X191297000Y-91064000D03*
%TO.P,C35,2*%
%TO.N,Net-(C34-Pad1)*%
X191297000Y-90104000D03*
%TD*%
D24*
%TO.P,L8,1,1*%
%TO.N,Net-(C37-Pad1)*%
X188702000Y-91034000D03*
%TO.P,L8,2,2*%
%TO.N,Net-(L8-Pad2)*%
X187742000Y-91034000D03*
%TD*%
%TO.P,C3,1*%
%TO.N,/OSC_IN*%
X205966000Y-77216000D03*
%TO.P,C3,2*%
%TO.N,GND*%
X205006000Y-77216000D03*
%TD*%
D23*
%TO.P,C12,1*%
%TO.N,+3.3V*%
X211102000Y-84582000D03*
%TO.P,C12,2*%
%TO.N,GND*%
X212062000Y-84582000D03*
%TD*%
D18*
%TO.P,C20,1*%
%TO.N,GND*%
X195947000Y-96914000D03*
%TO.P,C20,2*%
%TO.N,Net-(C20-Pad2)*%
X195947000Y-95954000D03*
%TD*%
D36*
%TO.P,J1,A1/B12,GND*%
%TO.N,GND*%
X223734500Y-94358000D03*
%TO.P,J1,A4/B9,VBUS*%
%TO.N,VBUS*%
X223734500Y-93558000D03*
D37*
%TO.P,J1,A5,CC1*%
%TO.N,Net-(J1-PadA5)*%
X223734500Y-92408000D03*
%TO.P,J1,A6,DP1*%
%TO.N,/D+*%
X223734500Y-91408000D03*
%TO.P,J1,A7,DN1*%
%TO.N,/D-*%
X223734500Y-90908000D03*
%TO.P,J1,A8,SBU1*%
%TO.N,unconnected-(J1-PadA8)*%
X223734500Y-89908000D03*
D36*
%TO.P,J1,B1/A12,GND*%
%TO.N,GND*%
X223734500Y-87958000D03*
%TO.P,J1,B4/A9,VBUS*%
%TO.N,VBUS*%
X223734500Y-88758000D03*
D37*
%TO.P,J1,B5,CC2*%
%TO.N,Net-(J1-PadB5)*%
X223734500Y-89408000D03*
%TO.P,J1,B6,DP2*%
%TO.N,/D+*%
X223734500Y-90408000D03*
%TO.P,J1,B7,DN2*%
%TO.N,/D-*%
X223734500Y-91908000D03*
%TO.P,J1,B8,SBU2*%
%TO.N,unconnected-(J1-PadB8)*%
X223734500Y-92908000D03*
D38*
%TO.P,J1,S1,SHIELD*%
%TO.N,GND*%
X224314500Y-95483000D03*
%TO.P,J1,S2,SHIELD*%
X224314500Y-86833000D03*
%TO.P,J1,S3,SHIELD*%
X228484500Y-95483000D03*
%TO.P,J1,S4,SHIELD*%
X228484500Y-86833000D03*
%TD*%
D39*
%TO.P,C1,1*%
%TO.N,+3.3V*%
X220459000Y-96012000D03*
%TO.P,C1,2*%
%TO.N,GND*%
X222009000Y-96012000D03*
%TD*%
D18*
%TO.P,R8,1*%
%TO.N,Net-(R8-Pad1)*%
X201822000Y-89614000D03*
%TO.P,R8,2*%
%TO.N,GND*%
X201822000Y-88654000D03*
%TD*%
D40*
%TO.P,C2,1*%
%TO.N,+3.3V*%
X219723000Y-85852000D03*
%TO.P,C2,2*%
%TO.N,GND*%
X218173000Y-85852000D03*
%TD*%
D11*
%TO.P,L1,1,1*%
%TO.N,Net-(C26-Pad1)*%
X197672000Y-90279000D03*
%TO.P,L1,2,2*%
%TO.N,Net-(C30-Pad2)*%
X197672000Y-91239000D03*
%TD*%
D18*
%TO.P,C27,1*%
%TO.N,+3.3V*%
X198297000Y-87139000D03*
%TO.P,C27,2*%
%TO.N,GND*%
X198297000Y-86179000D03*
%TD*%
D41*
%TO.N,GND*%
X188341000Y-92837000D03*
X187706000Y-87757000D03*
X187579000Y-88900000D03*
X190246000Y-88773000D03*
X191516000Y-88646000D03*
X192405000Y-88011000D03*
X193421000Y-88011000D03*
X194437000Y-88392000D03*
X194945000Y-89408000D03*
X195834000Y-90043000D03*
X196596000Y-90805000D03*
X183261000Y-94488000D03*
X183515000Y-93472000D03*
X183388000Y-92329000D03*
X184404000Y-92075000D03*
X185420000Y-92075000D03*
X186436000Y-92075000D03*
X187452000Y-92075000D03*
X183261000Y-87503000D03*
X183515000Y-88519000D03*
X183388000Y-89662000D03*
X184404000Y-89916000D03*
X185420000Y-89916000D03*
X186436000Y-89916000D03*
X187452000Y-89916000D03*
%TO.N,/S1*%
X208534000Y-71628000D03*
%TO.N,/NRST*%
X210566000Y-79502000D03*
X209423000Y-77343000D03*
D42*
%TO.N,GND*%
X209072000Y-93009000D03*
X200097000Y-100084000D03*
D41*
X222504000Y-87630000D03*
X216789000Y-86106000D03*
X221232000Y-91442000D03*
X223266000Y-100076000D03*
X217678000Y-99060000D03*
X209832000Y-75974000D03*
X184658000Y-68707000D03*
X208661000Y-81026000D03*
D42*
X203722000Y-93059000D03*
D41*
X190754000Y-94742000D03*
D42*
X189572000Y-87709000D03*
X201822000Y-87759000D03*
D41*
X226314000Y-85598000D03*
D42*
X202572000Y-93084000D03*
X201372000Y-95384000D03*
D41*
X225552000Y-80772000D03*
D42*
X203722000Y-95384000D03*
X202572000Y-95409000D03*
X196522000Y-97609000D03*
D41*
X214884000Y-70612000D03*
X223520000Y-96774000D03*
D42*
X201422000Y-93059000D03*
X202272000Y-100109000D03*
D41*
X211074000Y-83566000D03*
X229108000Y-98044000D03*
D42*
X207822000Y-98184000D03*
X197697000Y-85409000D03*
X203697000Y-94259000D03*
X202572000Y-94259000D03*
X201422000Y-94234000D03*
D41*
%TO.N,+3.3V*%
X218948000Y-92456000D03*
D42*
X208761161Y-94619011D03*
X198897000Y-97859000D03*
X197097000Y-95184000D03*
X205909500Y-96321500D03*
D41*
X221996000Y-98298000D03*
X225552000Y-98044000D03*
D42*
X202021053Y-97516123D03*
X203997000Y-88634000D03*
D41*
X219964000Y-94869000D03*
D42*
X197699500Y-87736500D03*
D41*
%TO.N,VBUS*%
X220599000Y-97409000D03*
X220980000Y-94234000D03*
X208788000Y-86868000D03*
D42*
%TO.N,Net-(C36-Pad1)*%
X208497000Y-97409000D03*
X205304122Y-99516122D03*
D41*
%TO.N,/SWDIO*%
X220100305Y-75057000D03*
X217424000Y-74422000D03*
%TO.N,/LED1*%
X229616000Y-83058000D03*
X214884000Y-72390000D03*
%TO.N,/OSC_OUT*%
X208407000Y-79502000D03*
X206248000Y-82804000D03*
%TO.N,/LED2*%
X226949000Y-78613000D03*
X215773000Y-73025000D03*
%TO.N,SPI_MOSI*%
X222758000Y-80010000D03*
X213868000Y-91440000D03*
%TO.N,SPI2_SCK*%
X213106000Y-90678000D03*
X221234000Y-81788000D03*
%TO.N,SPI2_MISO*%
X221996000Y-81026000D03*
X209296000Y-89916000D03*
%TO.N,RADIO_RESET*%
X221763202Y-79510369D03*
X212075000Y-98059000D03*
%TO.N,RADIO_MARC_INT*%
X212852000Y-85598000D03*
X210312000Y-96266000D03*
%TO.N,RADIO_INT*%
X211074000Y-95250000D03*
X213614000Y-86360000D03*
%TO.N,RADIO_CS*%
X212260000Y-88984000D03*
X220472000Y-82550000D03*
%TO.N,/S1*%
X213614000Y-72390000D03*
%TO.N,/S2*%
X212090000Y-72517000D03*
X208280000Y-72771000D03*
%TO.N,/TX*%
X217170000Y-93599000D03*
X224536000Y-78740000D03*
X220345000Y-72644000D03*
X201168000Y-74168000D03*
X206506692Y-73135652D03*
%TO.N,/RX*%
X205777000Y-75147000D03*
X201967000Y-75147000D03*
X216408000Y-92837000D03*
X223520000Y-77978000D03*
X220345000Y-73787000D03*
%TD*%
D43*
%TO.N,RADIO_RESET*%
X221517571Y-79756000D02*
X221763202Y-79510369D01*
X220726000Y-79756000D02*
X221517571Y-79756000D01*
X220230000Y-80252000D02*
X220726000Y-79756000D01*
X219083500Y-80252000D02*
X220230000Y-80252000D01*
%TO.N,+3.3V*%
X219047000Y-83919000D02*
X219174000Y-83919000D01*
X218396000Y-83268000D02*
X219047000Y-83919000D01*
X219174000Y-84201000D02*
X219174000Y-83919000D01*
%TO.N,GND*%
X218214000Y-83848000D02*
X218214000Y-84201000D01*
%TO.N,+3.3V*%
X212372000Y-75212000D02*
X212372000Y-74930000D01*
X212372000Y-74930000D02*
X212118000Y-74676000D01*
%TO.N,GND*%
X213396000Y-76064500D02*
X213396000Y-74994000D01*
X213396000Y-74994000D02*
X213078000Y-74676000D01*
%TO.N,+3.3V*%
X220599000Y-76228000D02*
X219607500Y-76228000D01*
%TO.N,GND*%
X220535000Y-77252000D02*
X220599000Y-77188000D01*
X219083500Y-77252000D02*
X220535000Y-77252000D01*
%TO.N,/SWDIO*%
X222123000Y-77724000D02*
X222123000Y-76327000D01*
X220853000Y-75057000D02*
X220100305Y-75057000D01*
X222054000Y-77793000D02*
X222123000Y-77724000D01*
X219124500Y-77793000D02*
X222054000Y-77793000D01*
X219083500Y-77752000D02*
X219124500Y-77793000D01*
X222123000Y-76327000D02*
X220853000Y-75057000D01*
%TO.N,Net-(R12-Pad2)*%
X219855000Y-97663000D02*
X218946000Y-97663000D01*
X219968000Y-97776000D02*
X219855000Y-97663000D01*
X219968000Y-98526000D02*
X219968000Y-97776000D01*
X218946000Y-97663000D02*
X218184000Y-96901000D01*
%TO.N,/NRST*%
X209423000Y-73660000D02*
X209423000Y-71374000D01*
X210693000Y-79502000D02*
X210566000Y-79502000D01*
X210939000Y-79756000D02*
X210685000Y-79502000D01*
X209042000Y-70993000D02*
X209042000Y-69088000D01*
X208788000Y-76708000D02*
X208788000Y-74295000D01*
X209423000Y-77343000D02*
X208788000Y-76708000D01*
X210943000Y-79752000D02*
X210693000Y-79502000D01*
X209423000Y-71374000D02*
X209042000Y-70993000D01*
X210943000Y-79752000D02*
X210939000Y-79756000D01*
X208788000Y-74295000D02*
X209423000Y-73660000D01*
X212208500Y-79752000D02*
X210943000Y-79752000D01*
D44*
%TO.N,GND*%
X201747000Y-99364000D02*
X201747000Y-99584000D01*
X191647000Y-95384000D02*
X191022000Y-94759000D01*
X190754000Y-94742000D02*
X190771000Y-94759000D01*
D43*
X208876000Y-80352000D02*
X206586000Y-80352000D01*
X225550000Y-81788000D02*
X225552000Y-80772000D01*
X214820500Y-69786500D02*
X214884000Y-69850000D01*
X223622000Y-94358000D02*
X221968000Y-96012000D01*
D44*
X202947000Y-88509000D02*
X202197000Y-87759000D01*
D43*
X229364000Y-98300000D02*
X229108000Y-98044000D01*
D44*
X195947000Y-96914000D02*
X195947000Y-97034000D01*
D43*
X214896000Y-80252000D02*
X215646000Y-79502000D01*
D44*
X191672000Y-94109000D02*
X191022000Y-94759000D01*
D43*
X218173000Y-84115000D02*
X218214000Y-84074000D01*
D44*
X195947000Y-97034000D02*
X196522000Y-97609000D01*
X206972000Y-99034000D02*
X207822000Y-98184000D01*
X199597000Y-99584000D02*
X200097000Y-100084000D01*
D43*
X205006000Y-78032000D02*
X204386000Y-78652000D01*
X204386000Y-78652000D02*
X204636000Y-78652000D01*
D44*
X201822000Y-88654000D02*
X201822000Y-87759000D01*
D43*
X217896000Y-82939500D02*
X217896000Y-81752000D01*
D44*
X202197000Y-87759000D02*
X201822000Y-87759000D01*
D43*
X225550000Y-84328000D02*
X225550000Y-84834000D01*
D44*
X202822000Y-99559000D02*
X202272000Y-100109000D01*
D43*
X221232000Y-89916000D02*
X221232000Y-91442000D01*
D44*
X208427000Y-98789000D02*
X207822000Y-98184000D01*
D43*
X218214000Y-84074000D02*
X218214000Y-83848000D01*
X210820000Y-75974000D02*
X209832000Y-75974000D01*
X212208500Y-80252000D02*
X214896000Y-80252000D01*
D44*
X202837000Y-100934000D02*
X202837000Y-100674000D01*
D43*
X209550000Y-80546000D02*
X210566000Y-80546000D01*
D44*
X189567000Y-87704000D02*
X189572000Y-87709000D01*
D43*
X221768000Y-100326000D02*
X223016000Y-100326000D01*
X218173000Y-85852000D02*
X218173000Y-84115000D01*
D44*
X197097000Y-96914000D02*
X197097000Y-97034000D01*
D43*
X218214000Y-83848000D02*
X217896000Y-83530000D01*
D44*
X202822000Y-99364000D02*
X202822000Y-99559000D01*
D43*
X218668000Y-99326000D02*
X217944000Y-99326000D01*
X217896000Y-83530000D02*
X217896000Y-82939500D01*
X206220000Y-80718000D02*
X206586000Y-80352000D01*
X212062000Y-84582000D02*
X212062000Y-84554000D01*
D44*
X191022000Y-94759000D02*
X190754000Y-94742000D01*
X199597000Y-99314000D02*
X199597000Y-99584000D01*
D43*
X206220000Y-81788000D02*
X206220000Y-80718000D01*
X223012000Y-97282000D02*
X223520000Y-96774000D01*
X209550000Y-80546000D02*
X209356000Y-80352000D01*
X229364000Y-99060000D02*
X229364000Y-98300000D01*
D44*
X207172000Y-100559000D02*
X208822000Y-102209000D01*
D43*
X213396000Y-77252000D02*
X215646000Y-79502000D01*
X210566000Y-80546000D02*
X210860000Y-80252000D01*
X214122000Y-69088000D02*
X214820500Y-69786500D01*
D44*
X204322000Y-96985257D02*
X204322000Y-96671500D01*
D43*
X217896000Y-81752000D02*
X215646000Y-79502000D01*
X222730000Y-96774000D02*
X221968000Y-96012000D01*
X206336000Y-80352000D02*
X206586000Y-80352000D01*
D44*
X202947000Y-88654000D02*
X202947000Y-88509000D01*
D43*
X214884000Y-69850000D02*
X214884000Y-70612000D01*
D44*
X208447000Y-92384000D02*
X209072000Y-93009000D01*
D43*
X221232000Y-91442000D02*
X221232000Y-92710000D01*
D44*
X208472000Y-93609000D02*
X209072000Y-93009000D01*
X206822000Y-97464000D02*
X207102000Y-97464000D01*
X207102000Y-97464000D02*
X207822000Y-98184000D01*
D43*
X222832000Y-87958000D02*
X222504000Y-87630000D01*
D44*
X191717000Y-95384000D02*
X191647000Y-95384000D01*
X209072000Y-98789000D02*
X208427000Y-98789000D01*
D43*
X208876000Y-80811000D02*
X208661000Y-81026000D01*
X217896000Y-77252000D02*
X215646000Y-79502000D01*
X185039000Y-69088000D02*
X184658000Y-68707000D01*
D44*
X206972000Y-100559000D02*
X206972000Y-99034000D01*
X188697000Y-87704000D02*
X189567000Y-87704000D01*
X198297000Y-86009000D02*
X197697000Y-85409000D01*
D43*
X205006000Y-77216000D02*
X205006000Y-78032000D01*
X187203000Y-69088000D02*
X185039000Y-69088000D01*
X222730000Y-97282000D02*
X222730000Y-96774000D01*
D44*
X201422000Y-87759000D02*
X201822000Y-87759000D01*
D43*
X208876000Y-80352000D02*
X208876000Y-80811000D01*
D44*
X204800743Y-97464000D02*
X204322000Y-96985257D01*
X208377000Y-92384000D02*
X208447000Y-92384000D01*
X204800743Y-97464000D02*
X206822000Y-97464000D01*
X198297000Y-86179000D02*
X198297000Y-86009000D01*
X197072000Y-86179000D02*
X197072000Y-86034000D01*
D43*
X219083500Y-77252000D02*
X217896000Y-77252000D01*
D44*
X197072000Y-86034000D02*
X197697000Y-85409000D01*
D43*
X212062000Y-84554000D02*
X211074000Y-83566000D01*
X218173000Y-85852000D02*
X217043000Y-85852000D01*
D44*
X202837000Y-100674000D02*
X202272000Y-100109000D01*
D43*
X223734500Y-87958000D02*
X222832000Y-87958000D01*
D44*
X200697000Y-88484000D02*
X201422000Y-87759000D01*
D43*
X204636000Y-78652000D02*
X206336000Y-80352000D01*
X217944000Y-99326000D02*
X217678000Y-99060000D01*
X216916000Y-85090000D02*
X217411000Y-85090000D01*
X213396000Y-76064500D02*
X213396000Y-77252000D01*
X209356000Y-80352000D02*
X208876000Y-80352000D01*
X223016000Y-100326000D02*
X223266000Y-100076000D01*
X217411000Y-85090000D02*
X218173000Y-85852000D01*
X225550000Y-84834000D02*
X226314000Y-85598000D01*
D44*
X200697000Y-88654000D02*
X200697000Y-88484000D01*
D43*
X223734500Y-94358000D02*
X223622000Y-94358000D01*
D44*
X191692000Y-94109000D02*
X191672000Y-94109000D01*
D43*
X217043000Y-85852000D02*
X216789000Y-86106000D01*
D44*
X208822000Y-102209000D02*
X209072000Y-102209000D01*
X197097000Y-97034000D02*
X196522000Y-97609000D01*
D43*
X222730000Y-97282000D02*
X223012000Y-97282000D01*
D44*
X208377000Y-93609000D02*
X208472000Y-93609000D01*
D43*
X210860000Y-80252000D02*
X212208500Y-80252000D01*
D44*
X206972000Y-100559000D02*
X207172000Y-100559000D01*
X201747000Y-99584000D02*
X202272000Y-100109000D01*
X200672000Y-99509000D02*
X200097000Y-100084000D01*
X200672000Y-99339000D02*
X200672000Y-99509000D01*
D43*
%TO.N,+3.3V*%
X225552000Y-98529000D02*
X226083000Y-99060000D01*
D44*
X200027000Y-89614000D02*
X198667000Y-88254000D01*
D43*
X221770000Y-97282000D02*
X221742000Y-97282000D01*
D44*
X207042000Y-93984000D02*
X207417000Y-93609000D01*
D43*
X212372000Y-75212000D02*
X212896000Y-75736000D01*
X221770000Y-97282000D02*
X221770000Y-98270000D01*
D45*
X219570000Y-96901000D02*
X220459000Y-96012000D01*
D44*
X197072000Y-87139000D02*
X197072000Y-88229000D01*
D43*
X211582000Y-76708000D02*
X212164500Y-76708000D01*
X228386000Y-99860000D02*
X229364000Y-100838000D01*
D44*
X197072000Y-87139000D02*
X198297000Y-87139000D01*
D43*
X220472000Y-96012000D02*
X219964000Y-95504000D01*
D44*
X198272000Y-88254000D02*
X198667000Y-88254000D01*
X202021053Y-98129947D02*
X201747000Y-98404000D01*
D43*
X221770000Y-98524000D02*
X221468000Y-98826000D01*
X219456000Y-87122000D02*
X213106000Y-87122000D01*
X221742000Y-97282000D02*
X221008000Y-96548000D01*
D44*
X200022000Y-97384000D02*
X199572000Y-97834000D01*
D43*
X210326557Y-67451557D02*
X217565557Y-67451557D01*
D44*
X202322000Y-90634000D02*
X202822000Y-90134000D01*
D43*
X211102000Y-85118000D02*
X211102000Y-84582000D01*
D44*
X197072000Y-88229000D02*
X197097000Y-88254000D01*
X205009500Y-95984000D02*
X205572000Y-95984000D01*
X201822000Y-97317070D02*
X202021053Y-97516123D01*
D45*
X219204000Y-96901000D02*
X219570000Y-96901000D01*
D43*
X213106000Y-87122000D02*
X211102000Y-85118000D01*
X219202000Y-75822500D02*
X219202000Y-72390000D01*
X201539443Y-67451557D02*
X210326557Y-67451557D01*
D44*
X203017000Y-89614000D02*
X203997000Y-88634000D01*
X198297000Y-88229000D02*
X198272000Y-88254000D01*
D43*
X219174000Y-84074000D02*
X220345000Y-84074000D01*
X212896000Y-75736000D02*
X212896000Y-76064500D01*
D44*
X200822000Y-97284000D02*
X200722000Y-97384000D01*
X197097000Y-88254000D02*
X198272000Y-88254000D01*
X202947000Y-90009000D02*
X202947000Y-89614000D01*
D43*
X211356000Y-76934000D02*
X211582000Y-76708000D01*
X219174000Y-84074000D02*
X219174000Y-84046000D01*
D44*
X200134500Y-94984000D02*
X197297000Y-94984000D01*
X199392000Y-98354000D02*
X198897000Y-97859000D01*
D43*
X219964000Y-86614000D02*
X219456000Y-87122000D01*
D44*
X200822000Y-96671500D02*
X200822000Y-97284000D01*
D43*
X229364000Y-102616000D02*
X229364000Y-100838000D01*
X219964000Y-86093000D02*
X219723000Y-85852000D01*
D44*
X197297000Y-94984000D02*
X197097000Y-95184000D01*
X199572000Y-98329000D02*
X199597000Y-98354000D01*
X202322000Y-96671500D02*
X202322000Y-97215176D01*
D43*
X221770000Y-98270000D02*
X221770000Y-98524000D01*
D44*
X208289117Y-94619011D02*
X207417000Y-93746894D01*
X200897000Y-87139000D02*
X201168000Y-86868000D01*
D43*
X219607500Y-76228000D02*
X219202000Y-75822500D01*
X210820000Y-76934000D02*
X211356000Y-76934000D01*
X218396000Y-83268000D02*
X218396000Y-82939500D01*
D44*
X201822000Y-96671500D02*
X201822000Y-97317070D01*
X202692000Y-86868000D02*
X203708000Y-87884000D01*
X200722000Y-97384000D02*
X200022000Y-97384000D01*
X197182000Y-88254000D02*
X197699500Y-87736500D01*
D43*
X219174000Y-84808000D02*
X219174000Y-84074000D01*
D44*
X205009500Y-93984000D02*
X207042000Y-93984000D01*
X202947000Y-89614000D02*
X203017000Y-89614000D01*
D43*
X212164500Y-76708000D02*
X212208500Y-76752000D01*
X220608305Y-71882000D02*
X219710000Y-71882000D01*
X219964000Y-91186000D02*
X219964000Y-86614000D01*
X212372000Y-74930000D02*
X210326557Y-72884557D01*
X219202000Y-72390000D02*
X219202000Y-69088000D01*
D44*
X206092000Y-96504000D02*
X206822000Y-96504000D01*
D43*
X210873500Y-84353500D02*
X211102000Y-84582000D01*
D44*
X199572000Y-97834000D02*
X199572000Y-98329000D01*
D43*
X219723000Y-85852000D02*
X219723000Y-85357000D01*
D44*
X198272000Y-88254000D02*
X198187000Y-88254000D01*
D43*
X199903000Y-69088000D02*
X201539443Y-67451557D01*
X219710000Y-71882000D02*
X219202000Y-72390000D01*
X209804000Y-84353500D02*
X210873500Y-84353500D01*
D44*
X200697000Y-89614000D02*
X200027000Y-89614000D01*
X203997000Y-88173000D02*
X203997000Y-88634000D01*
X199597000Y-98354000D02*
X199392000Y-98354000D01*
X205909500Y-96321500D02*
X206092000Y-96504000D01*
D43*
X206273500Y-87884000D02*
X203708000Y-87884000D01*
D44*
X198297000Y-87139000D02*
X198297000Y-88229000D01*
D43*
X219607500Y-76228000D02*
X219083500Y-76752000D01*
X220472000Y-96012000D02*
X220459000Y-96012000D01*
D44*
X202322000Y-97215176D02*
X202021053Y-97516123D01*
D43*
X225425000Y-78994000D02*
X225425000Y-76698695D01*
D44*
X203708000Y-87884000D02*
X203997000Y-88173000D01*
X198187000Y-88254000D02*
X197072000Y-87139000D01*
D43*
X225526500Y-99060000D02*
X226326500Y-99860000D01*
X221008000Y-96548000D02*
X220472000Y-96012000D01*
D44*
X197699500Y-87736500D02*
X198297000Y-87139000D01*
D43*
X220345000Y-84074000D02*
X225425000Y-78994000D01*
D44*
X202021053Y-97516123D02*
X202021053Y-98129947D01*
X198297000Y-87139000D02*
X200897000Y-87139000D01*
X208761161Y-94619011D02*
X208289117Y-94619011D01*
X207417000Y-93746894D02*
X207417000Y-93609000D01*
D43*
X225425000Y-76698695D02*
X220608305Y-71882000D01*
X226326500Y-99860000D02*
X228386000Y-99860000D01*
X219964000Y-95504000D02*
X219964000Y-94869000D01*
X218948000Y-92456000D02*
X219964000Y-91440000D01*
X219964000Y-91440000D02*
X219964000Y-91186000D01*
D44*
X201168000Y-86868000D02*
X202692000Y-86868000D01*
D43*
X212896000Y-76064500D02*
X212208500Y-76752000D01*
X219723000Y-85357000D02*
X219174000Y-84808000D01*
X217565557Y-67451557D02*
X219202000Y-69088000D01*
D44*
X201322000Y-90721500D02*
X200697000Y-90096500D01*
X201322000Y-91796500D02*
X201322000Y-90721500D01*
X200697000Y-90096500D02*
X200697000Y-89614000D01*
X197097000Y-95184000D02*
X197097000Y-95954000D01*
D43*
X210326557Y-72884557D02*
X210326557Y-67451557D01*
D44*
X202322000Y-91796500D02*
X202322000Y-90634000D01*
D43*
X219964000Y-86614000D02*
X219964000Y-86093000D01*
D44*
X202822000Y-90134000D02*
X202947000Y-90009000D01*
D43*
X225526500Y-99060000D02*
X225552000Y-98044000D01*
D44*
X197097000Y-88254000D02*
X197182000Y-88254000D01*
X202822000Y-91796500D02*
X202822000Y-90134000D01*
D43*
X225526500Y-99060000D02*
X226083000Y-99060000D01*
X209804000Y-84353500D02*
X206273500Y-87884000D01*
D44*
X205572000Y-95984000D02*
X205909500Y-96321500D01*
D43*
%TO.N,/OSC_IN*%
X205966000Y-78032000D02*
X206586000Y-78652000D01*
X205966000Y-77216000D02*
X205966000Y-78032000D01*
X208915000Y-78105000D02*
X211074000Y-78105000D01*
X208368000Y-78652000D02*
X208915000Y-78105000D01*
X211074000Y-78105000D02*
X211721000Y-78752000D01*
X211721000Y-78752000D02*
X212208500Y-78752000D01*
X206586000Y-78652000D02*
X208368000Y-78652000D01*
%TO.N,Net-(C9-Pad1)*%
X217396000Y-83650000D02*
X216916000Y-84130000D01*
X217396000Y-82939500D02*
X217396000Y-83650000D01*
%TO.N,+3.3VA*%
X209804000Y-82778500D02*
X209804000Y-82296000D01*
X209550000Y-81506000D02*
X210566000Y-81506000D01*
X209550000Y-82042000D02*
X209550000Y-81506000D01*
X209804000Y-82778500D02*
X209804000Y-82268000D01*
X209804000Y-82296000D02*
X209550000Y-82042000D01*
X210968992Y-81506000D02*
X211722992Y-80752000D01*
X209804000Y-82268000D02*
X210566000Y-81506000D01*
X210566000Y-81506000D02*
X210968992Y-81506000D01*
X211722992Y-80752000D02*
X212208500Y-80752000D01*
%TO.N,VBUS*%
X223734500Y-88758000D02*
X221122000Y-88758000D01*
X220812000Y-93558000D02*
X220599000Y-93345000D01*
X220968000Y-97778000D02*
X220599000Y-97409000D01*
X220599000Y-93345000D02*
X218059000Y-93345000D01*
X220468000Y-98526000D02*
X220968000Y-98526000D01*
X220468000Y-97540000D02*
X220599000Y-97409000D01*
X220968000Y-98526000D02*
X220968000Y-97778000D01*
X221122000Y-88758000D02*
X220472000Y-89408000D01*
X218059000Y-93345000D02*
X211582000Y-86868000D01*
X220812000Y-94066000D02*
X220980000Y-94234000D01*
X220472000Y-93218000D02*
X220812000Y-93558000D01*
X211582000Y-86868000D02*
X208788000Y-86868000D01*
X220812000Y-93558000D02*
X220812000Y-94066000D01*
X220812000Y-93558000D02*
X223734500Y-93558000D01*
X220468000Y-98526000D02*
X220468000Y-97540000D01*
X220472000Y-89408000D02*
X220472000Y-93218000D01*
D44*
%TO.N,Net-(C16-Pad1)*%
X205009500Y-93484000D02*
X206317000Y-93484000D01*
X206317000Y-93484000D02*
X207417000Y-92384000D01*
%TO.N,Net-(C20-Pad2)*%
X196397000Y-94484000D02*
X195922000Y-94959000D01*
X195922000Y-94959000D02*
X195922000Y-95929000D01*
X195922000Y-95929000D02*
X195947000Y-95954000D01*
X200134500Y-94484000D02*
X196397000Y-94484000D01*
%TO.N,Net-(C21-Pad1)*%
X198717000Y-95484000D02*
X198247000Y-95954000D01*
X200134500Y-95484000D02*
X198717000Y-95484000D01*
%TO.N,Net-(C21-Pad2)*%
X200134500Y-96021500D02*
X200134500Y-95984000D01*
X199242000Y-96914000D02*
X198247000Y-96914000D01*
X199242000Y-96914000D02*
X200134500Y-96021500D01*
%TO.N,Net-(C23-Pad2)*%
X200672000Y-98141107D02*
X200672000Y-98379000D01*
X201322000Y-97491107D02*
X200672000Y-98141107D01*
X201322000Y-96671500D02*
X201322000Y-97491107D01*
%TO.N,Net-(C25-Pad2)*%
X202822000Y-96671500D02*
X202822000Y-98404000D01*
%TO.N,Net-(C26-Pad1)*%
X197672000Y-89814000D02*
X198272000Y-89214000D01*
X197672000Y-89789000D02*
X197097000Y-89214000D01*
X197672000Y-90279000D02*
X197672000Y-89789000D01*
X197672000Y-90279000D02*
X197672000Y-89814000D01*
%TO.N,Net-(C30-Pad1)*%
X193477000Y-88959000D02*
X193477000Y-90109000D01*
X196742000Y-92309000D02*
X196742000Y-92304000D01*
X194547000Y-90109000D02*
X193477000Y-90109000D01*
X196742000Y-92304000D02*
X194547000Y-90109000D01*
%TO.N,Net-(C30-Pad2)*%
X197702000Y-91269000D02*
X197672000Y-91239000D01*
X197702000Y-92309000D02*
X197702000Y-91269000D01*
X197877000Y-92484000D02*
X197702000Y-92309000D01*
X200134500Y-92484000D02*
X197877000Y-92484000D01*
%TO.N,Net-(C31-Pad1)*%
X203322000Y-96671500D02*
X203322000Y-97901035D01*
X203797000Y-98376035D02*
X203797000Y-100934000D01*
X203797000Y-100934000D02*
X205072000Y-102209000D01*
X203322000Y-97901035D02*
X203797000Y-98376035D01*
X205072000Y-102209000D02*
X206972000Y-102209000D01*
%TO.N,Net-(C32-Pad2)*%
X194167000Y-94864000D02*
X195047000Y-93984000D01*
X190872000Y-96084000D02*
X192147000Y-96084000D01*
X192677000Y-95554000D02*
X192677000Y-95384000D01*
X194122000Y-94864000D02*
X194167000Y-94864000D01*
X189072000Y-95264000D02*
X190052000Y-95264000D01*
X193602000Y-95384000D02*
X194122000Y-94864000D01*
X192677000Y-95384000D02*
X193602000Y-95384000D01*
X195047000Y-93984000D02*
X200134500Y-93984000D01*
X190052000Y-95264000D02*
X190872000Y-96084000D01*
X192147000Y-96084000D02*
X192677000Y-95554000D01*
%TO.N,Net-(C33-Pad1)*%
X190377000Y-93629000D02*
X190377000Y-92784000D01*
X190427000Y-92834000D02*
X190377000Y-92784000D01*
X189072000Y-94304000D02*
X189702000Y-94304000D01*
X191642000Y-92834000D02*
X190427000Y-92834000D01*
X189702000Y-94304000D02*
X190377000Y-93629000D01*
%TO.N,Net-(C33-Pad2)*%
X192652000Y-94109000D02*
X193917000Y-94109000D01*
X192602000Y-92834000D02*
X192602000Y-94059000D01*
X192602000Y-94059000D02*
X192652000Y-94109000D01*
X193917000Y-94109000D02*
X194122000Y-93904000D01*
X194542000Y-93484000D02*
X194122000Y-93904000D01*
X200134500Y-93484000D02*
X194542000Y-93484000D01*
%TO.N,Net-(C34-Pad1)*%
X192517000Y-88959000D02*
X192517000Y-90109000D01*
X192517000Y-90109000D02*
X191302000Y-90109000D01*
X191302000Y-90109000D02*
X191297000Y-90104000D01*
X190097000Y-90104000D02*
X190072000Y-90079000D01*
X191297000Y-90104000D02*
X190097000Y-90104000D01*
%TO.N,Net-(C35-Pad1)*%
X189922000Y-91884000D02*
X189417000Y-92389000D01*
X195997000Y-92984000D02*
X194077000Y-91064000D01*
X190647000Y-91884000D02*
X189922000Y-91884000D01*
X194077000Y-91064000D02*
X191297000Y-91064000D01*
X189417000Y-92389000D02*
X189417000Y-92784000D01*
X191297000Y-91064000D02*
X191297000Y-91234000D01*
X191297000Y-91234000D02*
X190647000Y-91884000D01*
X200134500Y-92984000D02*
X195997000Y-92984000D01*
%TO.N,Net-(C36-Pad1)*%
X208497000Y-97409000D02*
X208652000Y-97409000D01*
X209872000Y-99759000D02*
X209872000Y-98134000D01*
X205304122Y-99516122D02*
X205304122Y-99176051D01*
X205304122Y-99176051D02*
X203822000Y-97693929D01*
X209072000Y-100559000D02*
X209872000Y-99759000D01*
X208652000Y-97409000D02*
X209072000Y-97829000D01*
X209567000Y-97829000D02*
X209072000Y-97829000D01*
X209872000Y-98134000D02*
X209567000Y-97829000D01*
X203822000Y-97693929D02*
X203822000Y-96671500D01*
%TO.N,Net-(C37-Pad1)*%
X190067000Y-91034000D02*
X190072000Y-91039000D01*
X188702000Y-91034000D02*
X190067000Y-91034000D01*
X188702000Y-88669000D02*
X188697000Y-88664000D01*
X188702000Y-91034000D02*
X188702000Y-88669000D01*
D43*
%TO.N,/SWDIO*%
X211582000Y-70612000D02*
X211582000Y-69088000D01*
X215519000Y-71501000D02*
X212471000Y-71501000D01*
X217424000Y-73406000D02*
X215519000Y-71501000D01*
X212471000Y-71501000D02*
X211582000Y-70612000D01*
X217424000Y-74422000D02*
X217424000Y-73406000D01*
%TO.N,/SWCLK*%
X218396000Y-76064500D02*
X218396000Y-70822000D01*
X218396000Y-70822000D02*
X216662000Y-69088000D01*
%TO.N,/TXT*%
X221196000Y-101854000D02*
X223012000Y-101854000D01*
X221168000Y-101826000D02*
X221196000Y-101854000D01*
X223012000Y-101854000D02*
X224028000Y-100838000D01*
X224028000Y-100838000D02*
X226083000Y-100838000D01*
D45*
%TO.N,Net-(L8-Pad2)*%
X187742000Y-91034000D02*
X187717000Y-91059000D01*
X187717000Y-91059000D02*
X179072000Y-91059000D01*
D43*
%TO.N,Net-(D2-Pad1)*%
X226570000Y-84328000D02*
X228242000Y-84328000D01*
%TO.N,/LED1*%
X229616000Y-84099500D02*
X229387500Y-84328000D01*
X215396000Y-75315000D02*
X215011000Y-74930000D01*
X229616000Y-83058000D02*
X229616000Y-84099500D01*
X215011000Y-74930000D02*
X215011000Y-72517000D01*
X215011000Y-72517000D02*
X214884000Y-72390000D01*
X215396000Y-76064500D02*
X215396000Y-75315000D01*
%TO.N,/OSC_OUT*%
X211584604Y-79252000D02*
X210887604Y-78555000D01*
X205260000Y-81816000D02*
X206248000Y-82804000D01*
X205260000Y-81788000D02*
X205260000Y-81816000D01*
X209354000Y-78555000D02*
X208407000Y-79502000D01*
X205260000Y-81226000D02*
X204386000Y-80352000D01*
X210887604Y-78555000D02*
X209354000Y-78555000D01*
X205260000Y-81788000D02*
X205260000Y-81226000D01*
X212208500Y-79252000D02*
X211584604Y-79252000D01*
%TO.N,Net-(J1-PadA5)*%
X222252000Y-92710000D02*
X222554000Y-92408000D01*
X222554000Y-92408000D02*
X223734500Y-92408000D01*
D45*
%TO.N,Net-(D3-Pad1)*%
X228242000Y-81788000D02*
X226570000Y-81788000D01*
D43*
%TO.N,/LED2*%
X215896000Y-76064500D02*
X215896000Y-73148000D01*
X229387500Y-81051500D02*
X226949000Y-78613000D01*
X229387500Y-81788000D02*
X229387500Y-81051500D01*
X215896000Y-73148000D02*
X215773000Y-73025000D01*
%TO.N,Net-(D4-Pad2)*%
X228344000Y-100838000D02*
X227101500Y-100838000D01*
%TO.N,/RXT*%
X220468000Y-101626000D02*
X220468000Y-102376000D01*
X220708000Y-102616000D02*
X226210000Y-102616000D01*
X220468000Y-102376000D02*
X220708000Y-102616000D01*
D44*
%TO.N,SPI_MOSI*%
X205530363Y-92984000D02*
X207105363Y-91409000D01*
X208461950Y-91409000D02*
X208492950Y-91440000D01*
X207105363Y-91409000D02*
X208461950Y-91409000D01*
D43*
X220608299Y-80752000D02*
X221096299Y-80264000D01*
D44*
X205009500Y-92984000D02*
X205530363Y-92984000D01*
D43*
X219083500Y-80752000D02*
X220608299Y-80752000D01*
X222504000Y-80264000D02*
X222758000Y-80010000D01*
D44*
X208492950Y-91440000D02*
X213868000Y-91440000D01*
D43*
X221096299Y-80264000D02*
X222504000Y-80264000D01*
%TO.N,SPI2_SCK*%
X221198000Y-81752000D02*
X221234000Y-81788000D01*
D44*
X206872000Y-90909000D02*
X208669056Y-90909000D01*
X205297000Y-92484000D02*
X206872000Y-90909000D01*
X205009500Y-92484000D02*
X205297000Y-92484000D01*
X212852000Y-90932000D02*
X213106000Y-90678000D01*
X208669056Y-90909000D02*
X208692056Y-90932000D01*
D43*
X219083500Y-81752000D02*
X221198000Y-81752000D01*
D44*
X208692056Y-90932000D02*
X212852000Y-90932000D01*
%TO.N,SPI2_MISO*%
X204322000Y-91796500D02*
X205709500Y-90409000D01*
D43*
X219083500Y-81252000D02*
X220744695Y-81252000D01*
X220970695Y-81026000D02*
X221996000Y-81026000D01*
D44*
X209311000Y-90409000D02*
X209311000Y-89931000D01*
X205709500Y-90409000D02*
X209311000Y-90409000D01*
D43*
X220744695Y-81252000D02*
X220970695Y-81026000D01*
D44*
%TO.N,RADIO_RESET*%
X208222000Y-96684000D02*
X209407050Y-96684000D01*
X209407050Y-96684000D02*
X210782050Y-98059000D01*
X210782050Y-98059000D02*
X212075000Y-98059000D01*
X207022000Y-95484000D02*
X208222000Y-96684000D01*
X212172000Y-98059000D02*
X212222000Y-98009000D01*
X212075000Y-98059000D02*
X212172000Y-98059000D01*
X205009500Y-95484000D02*
X207022000Y-95484000D01*
D43*
%TO.N,RADIO_MARC_INT*%
X214396000Y-82939500D02*
X214396000Y-84562000D01*
X213360000Y-85598000D02*
X212852000Y-85598000D01*
D44*
X207229106Y-94984000D02*
X208304106Y-96059000D01*
X208304106Y-96059000D02*
X210105000Y-96059000D01*
X205009500Y-94984000D02*
X207229106Y-94984000D01*
D43*
X214396000Y-84562000D02*
X213360000Y-85598000D01*
D44*
X210105000Y-96059000D02*
X210312000Y-96266000D01*
%TO.N,RADIO_INT*%
X205009500Y-94484000D02*
X207447000Y-94484000D01*
X214896000Y-85078000D02*
X214896000Y-82939500D01*
X213614000Y-86360000D02*
X214896000Y-85078000D01*
X210940000Y-95384000D02*
X211074000Y-95250000D01*
X208347000Y-95384000D02*
X210940000Y-95384000D01*
X207447000Y-94484000D02*
X208347000Y-95384000D01*
D43*
%TO.N,RADIO_CS*%
X220174000Y-82252000D02*
X220472000Y-82550000D01*
X219083500Y-82252000D02*
X220174000Y-82252000D01*
D44*
X203322000Y-90341965D02*
X204679965Y-88984000D01*
X203322000Y-91796500D02*
X203322000Y-90341965D01*
X204679965Y-88984000D02*
X212260000Y-88984000D01*
D43*
%TO.N,Net-(J1-PadB5)*%
X222252000Y-89916000D02*
X222735000Y-89433000D01*
X222783000Y-89433000D02*
X222808000Y-89408000D01*
X222808000Y-89408000D02*
X223734500Y-89408000D01*
X222735000Y-89433000D02*
X222783000Y-89433000D01*
%TO.N,Net-(D5-Pad2)*%
X228346000Y-102616000D02*
X227101500Y-102616000D01*
%TO.N,/S1*%
X208153000Y-71247000D02*
X199522000Y-71247000D01*
X208534000Y-71628000D02*
X208153000Y-71247000D01*
X213614000Y-72390000D02*
X214396000Y-73172000D01*
X199522000Y-71247000D02*
X197363000Y-69088000D01*
X214396000Y-73172000D02*
X214396000Y-76064500D01*
%TO.N,/S2*%
X198824000Y-71697000D02*
X197739000Y-70612000D01*
X208280000Y-72771000D02*
X207206000Y-71697000D01*
X213896000Y-74323000D02*
X212090000Y-72517000D01*
X213896000Y-76064500D02*
X213896000Y-74323000D01*
X195199000Y-70612000D02*
X194823000Y-70236000D01*
X197739000Y-70612000D02*
X195199000Y-70612000D01*
X207206000Y-71697000D02*
X198824000Y-71697000D01*
X194823000Y-70236000D02*
X194823000Y-69088000D01*
%TO.N,/TX*%
X219468000Y-102096000D02*
X219456000Y-102108000D01*
X221488000Y-78740000D02*
X220980000Y-79248000D01*
X224536000Y-78740000D02*
X221488000Y-78740000D01*
X219456000Y-102108000D02*
X217678000Y-102108000D01*
X224536000Y-76835000D02*
X220345000Y-72644000D01*
X216916000Y-101346000D02*
X216916000Y-93853000D01*
X224536000Y-78740000D02*
X224536000Y-76835000D01*
X219087500Y-79756000D02*
X219083500Y-79752000D01*
X201168000Y-74168000D02*
X204978000Y-74168000D01*
X216916000Y-93853000D02*
X217170000Y-93599000D01*
X206506692Y-73135652D02*
X206010348Y-73135652D01*
X206010348Y-73135652D02*
X204978000Y-74168000D01*
X219964000Y-79756000D02*
X219087500Y-79756000D01*
X217678000Y-102108000D02*
X216916000Y-101346000D01*
X220980000Y-79248000D02*
X220472000Y-79248000D01*
X219468000Y-101626000D02*
X219468000Y-102096000D01*
X220472000Y-79248000D02*
X219964000Y-79756000D01*
D44*
%TO.N,Net-(R8-Pad1)*%
X201822000Y-91796500D02*
X201822000Y-89614000D01*
D43*
%TO.N,/RX*%
X219968000Y-102358000D02*
X219710000Y-102616000D01*
X219968000Y-101626000D02*
X219968000Y-102358000D01*
X219831604Y-79252000D02*
X220285604Y-78798000D01*
X223520000Y-77978000D02*
X223520000Y-76962000D01*
X205777000Y-75147000D02*
X201967000Y-75147000D01*
X220793604Y-78798000D02*
X221301604Y-78290000D01*
X219083500Y-79252000D02*
X219831604Y-79252000D01*
X217549604Y-102616000D02*
X216408000Y-101474396D01*
X223520000Y-76962000D02*
X220345000Y-73787000D01*
X221301604Y-78290000D02*
X223208000Y-78290000D01*
X223208000Y-78290000D02*
X223520000Y-77978000D01*
X216408000Y-101474396D02*
X216408000Y-92837000D01*
X219710000Y-102616000D02*
X217549604Y-102616000D01*
X220285604Y-78798000D02*
X220793604Y-78798000D01*
D46*
%TO.N,/D+*%
X222500000Y-99826000D02*
X226314000Y-96012000D01*
X226314000Y-91440000D02*
X225282000Y-90408000D01*
X222864500Y-90458000D02*
X222864500Y-91358000D01*
X225282000Y-90408000D02*
X223734500Y-90408000D01*
X222864500Y-91358000D02*
X222914500Y-91408000D01*
X222914500Y-90408000D02*
X222864500Y-90458000D01*
X223734500Y-90408000D02*
X222914500Y-90408000D01*
X226314000Y-96012000D02*
X226314000Y-91440000D01*
X221768000Y-99826000D02*
X222500000Y-99826000D01*
X222914500Y-91408000D02*
X223734500Y-91408000D01*
%TO.N,/D-*%
X225914000Y-95650000D02*
X225914000Y-92818000D01*
X224620750Y-91524750D02*
X224620750Y-91355250D01*
X223734500Y-91908000D02*
X224554500Y-91908000D01*
X224620750Y-91841750D02*
X224620750Y-91355250D01*
X221768000Y-99326000D02*
X222238000Y-99326000D01*
X224554500Y-91908000D02*
X224620750Y-91841750D01*
X225914000Y-92818000D02*
X224620750Y-91524750D01*
X224620750Y-91355250D02*
X224620750Y-90974250D01*
X224554500Y-90908000D02*
X223734500Y-90908000D01*
X222238000Y-99326000D02*
X225914000Y-95650000D01*
D43*
%TO.N,Net-(D1-Pad1)*%
X228344000Y-99060000D02*
X227101500Y-99060000D01*
%TD*%
M02*
