M48
; DRILL file {KiCad (6.0.6)} date Wed Jun 26 22:32:38 2024
; FORMAT={-:-/ absolute / metric / decimal}
; #@! TF.CreationDate,2024-06-26T22:32:38-07:00
; #@! TF.GenerationSoftware,Kicad,Pcbnew,(6.0.6)
; #@! TF.FileFunction,Plated,1,2,PTH
FMAT,2
METRIC
; #@! TA.AperFunction,Plated,PTH,ViaDrill
T1C0.300
; #@! TA.AperFunction,Plated,PTH,ViaDrill
T2C0.400
; #@! TA.AperFunction,Plated,PTH,ComponentDrill
T3C0.600
; #@! TA.AperFunction,Plated,PTH,ComponentDrill
T4C1.000
; #@! TA.AperFunction,Plated,PTH,ComponentDrill
T5C1.500
; #@! TA.AperFunction,Plated,PTH,ComponentDrill
T6C1.700
%
G90
G05
T1
X189.572Y-87.709
X196.522Y-97.609
X197.097Y-95.184
X197.697Y-85.409
X197.7Y-87.736
X198.897Y-97.859
X200.097Y-100.084
X201.372Y-95.384
X201.422Y-93.059
X201.422Y-94.234
X201.822Y-87.759
X202.021Y-97.516
X202.272Y-100.109
X202.572Y-93.084
X202.572Y-94.259
X202.572Y-95.409
X203.697Y-94.259
X203.722Y-93.059
X203.722Y-95.384
X203.997Y-88.634
X205.304Y-99.516
X205.909Y-96.322
X207.822Y-98.184
X208.497Y-97.409
X208.761Y-94.619
X209.072Y-93.009
T2
X183.261Y-87.503
X183.261Y-94.488
X183.388Y-89.662
X183.388Y-92.329
X183.515Y-88.519
X183.515Y-93.472
X184.404Y-89.916
X184.404Y-92.075
X184.658Y-68.707
X185.42Y-89.916
X185.42Y-92.075
X186.436Y-89.916
X186.436Y-92.075
X187.452Y-89.916
X187.452Y-92.075
X187.579Y-88.9
X187.706Y-87.757
X188.341Y-92.837
X190.246Y-88.773
X190.754Y-94.742
X191.516Y-88.646
X192.405Y-88.011
X193.421Y-88.011
X194.437Y-88.392
X194.945Y-89.408
X195.834Y-90.043
X196.596Y-90.805
X201.168Y-74.168
X201.967Y-75.147
X205.777Y-75.147
X206.248Y-82.804
X206.507Y-73.136
X208.28Y-72.771
X208.407Y-79.502
X208.534Y-71.628
X208.661Y-81.026
X208.788Y-86.868
X209.296Y-89.916
X209.423Y-77.343
X209.832Y-75.974
X210.312Y-96.266
X210.566Y-79.502
X211.074Y-83.566
X211.074Y-95.25
X212.075Y-98.059
X212.09Y-72.517
X212.26Y-88.984
X212.852Y-85.598
X213.106Y-90.678
X213.614Y-72.39
X213.614Y-86.36
X213.868Y-91.44
X214.884Y-70.612
X214.884Y-72.39
X215.773Y-73.025
X216.408Y-92.837
X216.789Y-86.106
X217.17Y-93.599
X217.424Y-74.422
X217.678Y-99.06
X218.948Y-92.456
X219.964Y-94.869
X220.1Y-75.057
X220.345Y-72.644
X220.345Y-73.787
X220.472Y-82.55
X220.599Y-97.409
X220.98Y-94.234
X221.232Y-91.442
X221.234Y-81.788
X221.763Y-79.51
X221.996Y-81.026
X221.996Y-98.298
X222.504Y-87.63
X222.758Y-80.01
X223.266Y-100.076
X223.52Y-77.978
X223.52Y-96.774
X224.536Y-78.74
X225.552Y-80.772
X225.552Y-98.044
X226.314Y-85.598
X226.949Y-78.613
X229.108Y-98.044
X229.616Y-83.058
T3
X224.314Y-86.833
X224.314Y-95.483
X228.484Y-86.833
X228.484Y-95.483
T4
X187.203Y-69.088
X189.743Y-69.088
X192.283Y-69.088
X194.823Y-69.088
X197.363Y-69.088
X199.903Y-69.088
X202.443Y-69.088
X206.502Y-69.088
X209.042Y-69.088
X211.582Y-69.088
X214.122Y-69.088
X216.662Y-69.088
X219.202Y-69.088
T5
X179.072Y-91.059
T6
X176.532Y-88.519
X176.532Y-93.599
X181.612Y-88.519
X181.612Y-93.599
T0
M30
